<svg xmlns="http://www.w3.org/2000/svg" width="80" height="80" viewBox="0 0 80 80">
  <defs>
    <style>
      .a {
        fill: #fff;
      }

      .b {
        stroke: #000;
        stroke-linecap: round;
        stroke-miterlimit: 10;
      }
    </style>
  </defs>
  <title>icon-why-design</title>
  <g>
    <path d="M19.67,32.62c-.87-3.36-1.94-6.76-2.59-10.23a25.74,25.74,0,0,1-.29-7.12,65.87,65.87,0,0,1,1.66-8.53C18.62,6,19.13,5,19.7,4.8s1.45.55,2,1.07c6.55,5.87,9.89,13.4,11.29,21.94a8.61,8.61,0,0,0,1.58,3.83V7.9C34.59,4,34.6,4,38.46,4c2.25,0,4.51.16,6.74,0,2.84-.26,3.55,1,3.5,3.61-.13,5.91-.05,11.81,0,17.72,0,.61.08,1.23.17,2.52,1.7-2.94,3.12-5.3,4.4-7.72a2.79,2.79,0,0,0,0-1.87,6.74,6.74,0,0,1,2-7.18C57.5,8.8,60,6.76,62.38,4.71c1.36-1.15,2.5-.91,2.82.93.61,3.59,1.27,7.19,1.52,10.81.09,1.34-.51,3.4-1.49,4-3.15,1.95-3.09,5-3.59,8-.23,1.38-.57,2.74-.77,3.69,1.16,1.67,2.4,2.94,3,4.47a3.28,3.28,0,0,1-.81,3c-2.08,1.47-1.83,3.44-1.83,5.47,0,7.68,0,15.37,0,23,0,5-2.89,7.82-7.86,7.84q-13.22,0-26.43,0C22,76,19.08,73,19.05,68.1c-.06-8.25,0-16.49,0-24.74A4.28,4.28,0,0,0,18.55,41C15.45,36.68,15.54,35.59,19.67,32.62Zm2.2,8.93c0,9.31-.08,18.29.05,27.28,0,2.84,1.83,4.3,4.85,4.32q13.35.07,26.71,0c3.41,0,4.88-1.58,4.92-5.08.05-4,0-8.06,0-12.09V41.55ZM45.75,30.43C44.19,29.72,42,29.28,42,28.61c-.31-2.83,2.61-.91,3.74-2.17V24.32a4.59,4.59,0,0,1-1.45-.21c-.87-.45-1.67-1-2.5-1.55a7.68,7.68,0,0,1,2.47-1.19c2.24-.18,1.63-1.43,1.37-2.68a5,5,0,0,1-1-.18c-1-.48-1.93-1-2.89-1.49a15,15,0,0,0,2.64-1.37,9.48,9.48,0,0,0,1.53-1.81l-4.19-2.35,4-2.21V7h-8.1V32.67h8.17ZM27.9,19.5l-8.16,2.08c.83,3.19,1.65,6.53,2.59,9.83.17.58.85,1.4,1.32,1.42,2.48.15,5,.07,7.73.07C30.13,28.08,29,23.68,27.9,19.5ZM40.06,35.76h0c-6.19,0-12.38-.05-18.56.07-.76,0-1.51.93-2.26,1.43.73.43,1.44.9,2.2,1.26a2.77,2.77,0,0,0,1.12,0H57.72a6.51,6.51,0,0,0,2.22-.19A2.14,2.14,0,0,0,61,37c.06-.28-.59-.95-1-1.07a9.5,9.5,0,0,0-2.5-.2C51.69,35.75,45.88,35.76,40.06,35.76ZM63.12,8.41l-1.37-.89c-1.71,2.07-3.74,4-5,6.26a5.55,5.55,0,0,0,.07,4.78A4.58,4.58,0,0,0,61,19.91a5.37,5.37,0,0,0,2.82-3.83C64.09,13.57,63.41,11,63.12,8.41ZM55.37,21.78,49.65,32.93c2.61,0,4.65.11,6.68-.06A2.37,2.37,0,0,0,58,31.53c.65-2.69,1.08-5.44,1.58-8.11Zm-28.89-6L20.81,9.14c-.64,3.31-1.15,5.94-1.67,8.66C22.11,18.73,24.41,18.19,26.48,15.79Z"/>
    <path class="a" d="M21.87,41.55H58.41V56c0,4,0,8.06,0,12.09,0,3.5-1.51,5.06-4.92,5.08q-13.35.07-26.71,0c-3,0-4.81-1.48-4.85-4.32C21.79,59.84,21.87,50.86,21.87,41.55Z"/>
    <path class="a" d="M45.75,30.43v2.24H37.58V7h8.1V9.28l-4,2.21,4.19,2.35a9.48,9.48,0,0,1-1.53,1.81A15,15,0,0,1,41.73,17c1,.5,1.92,1,2.89,1.49a5,5,0,0,0,1,.18c.26,1.25.87,2.5-1.37,2.68a7.68,7.68,0,0,0-2.47,1.19c.83.52,1.63,1.1,2.5,1.55a4.59,4.59,0,0,0,1.45.21v2.12c-1.13,1.26-4.05-.66-3.74,2.17C42,29.28,44.19,29.72,45.75,30.43Z"/>
    <path class="a" d="M27.9,19.5c1.09,4.18,2.23,8.58,3.48,13.4-2.75,0-5.25.08-7.73-.07-.47,0-1.15-.84-1.32-1.42-.94-3.3-1.76-6.64-2.59-9.83Z"/>
    <path class="a" d="M40.06,35.76c5.82,0,11.63,0,17.45,0A9.5,9.5,0,0,1,60,36c.43.12,1.08.79,1,1.07a2.14,2.14,0,0,1-1.09,1.33,6.51,6.51,0,0,1-2.22.19H22.56a2.77,2.77,0,0,1-1.12,0c-.76-.36-1.47-.83-2.2-1.26.75-.5,1.5-1.42,2.26-1.43,6.18-.12,12.37-.07,18.56-.07Z"/>
    <path class="a" d="M63.12,8.41c.29,2.56,1,5.16.73,7.67A5.37,5.37,0,0,1,61,19.91a4.58,4.58,0,0,1-4.22-1.35,5.55,5.55,0,0,1-.07-4.78c1.27-2.3,3.3-4.19,5-6.26Z"/>
    <path class="a" d="M55.37,21.78l4.24,1.64c-.5,2.67-.93,5.42-1.58,8.11a2.37,2.37,0,0,1-1.7,1.34c-2,.17-4.07.06-6.68.06Z"/>
    <path class="a" d="M26.48,15.79c-2.07,2.4-4.37,2.94-7.34,2,.52-2.72,1-5.35,1.67-8.66Z"/>
  </g>
  <g>
    <path class="b" d="M24.84,58.6,35,53.92v2l-7.45,3.27v0L35,62.5v2L24.84,59.83Z"/>
    <path class="b" d="M36.25,65.31l5-14.38H43l-5,14.38Z"/>
    <path class="b" d="M55.5,60.09,45.34,64.51v-2l8.13-3.3v0l-8.13-3.31v-2L55.5,58.34Z"/>
  </g>
</svg>
