<svg id="Layer_1" data-name="Layer 1" xmlns="http://www.w3.org/2000/svg" viewBox="0 0 1080 1080"><defs><style>.cls-1{fill:#e61900;}.cls-2{fill:#fff;}.cls-3{fill:#c8c8c8;}</style></defs><title>wds-logo-full</title><rect class="cls-1" width="1080" height="1080"/><circle class="cls-2" cx="540" cy="514.36" r="358.1"/><path class="cls-2" d="M171.79,372.18l-1.26,1.1a23,23,0,0,1-3.33,2.31l-1.58,1.06a11.11,11.11,0,0,1-3.51,1,16.56,16.56,0,0,1-4.13-.3,11.74,11.74,0,0,1-1.59-.44,22.44,22.44,0,0,1-4.73-2.66,28.25,28.25,0,0,1-4.11-3.42,99.79,99.79,0,0,1-9.71-11.84c-.12-.26-.21-.45-.25-.55s-.1-.14-.17-.11a26,26,0,0,1-3.73-3.85,3.9,3.9,0,0,0-1.79-2.11,1.4,1.4,0,0,0-.88-.09c-.32.1-.75-.58-1.28-2a26.44,26.44,0,0,1-1.23-5.19,6.79,6.79,0,0,1-.06-4.45,2.67,2.67,0,0,1,.56-.91.84.84,0,0,1,.74-.26c.29.11.56-.89.82-3,.14-.95.26-1.63.36-2a3.06,3.06,0,0,1,0-1.73c.13-.87.39-2.07.75-3.6a19.94,19.94,0,0,0,.92-2.4A14.6,14.6,0,0,0,133,325a1.54,1.54,0,0,1,.68-1.2,3.42,3.42,0,0,1,2-.6,2.7,2.7,0,0,1,1,.15,1.55,1.55,0,0,1,.91,1.47,12.92,12.92,0,0,1-.54,3.68l-.78,3.12q-1.1,4.17-1.86,9a12.67,12.67,0,0,0-.11,4.68,12.82,12.82,0,0,0,2.25,4.16,6.45,6.45,0,0,0,1.37,2c.79.92,1.62,1.85,2.49,2.8.14.22.32.48.53.79a8.66,8.66,0,0,1,.67,1.09q2,3.21,3,4.5c.65.86,1.1,1.26,1.35,1.19l.54-.75c.25-.38.46-.7.62-1a5.63,5.63,0,0,1,.19-2,12.91,12.91,0,0,0,.35-1.78q1.46-12.72,1.82-14.33a2.45,2.45,0,0,1,0-1.41c.33-.87,1.22-1.42,2.65-1.65a2.06,2.06,0,0,1,.89.09c.44.17.72.67.85,1.5a21.81,21.81,0,0,1-.06,4.4c-.16,2.11-.4,4.64-.69,7.58L153,355a29.46,29.46,0,0,1-1.44,7.88c-.57,1.51-1.27,2.08-2.08,1.71-.43.39-.1,1.14,1,2.25a26.62,26.62,0,0,0,4.26,3.44,24.4,24.4,0,0,0,4.62,2.53,5.24,5.24,0,0,0,1.69.4,7.75,7.75,0,0,0,3.41-.57,8.56,8.56,0,0,0,2.88-2.69c.18-.32.39-.73.64-1.22s.49-1.07.76-1.75a8.28,8.28,0,0,0,.53-3.13,62.12,62.12,0,0,0,1-6.93,19.52,19.52,0,0,0,.07-3.69,4,4,0,0,1,0-.84,2.59,2.59,0,0,1,.15-.61l.12.13c.05,0,.08,0,.1,0s-.19-.74-.74-1.79a15.41,15.41,0,0,1-.67-4.14c-.09-1.67.05-2.47.41-2.39a2.61,2.61,0,0,1,.79.14,5.84,5.84,0,0,1,2.67,3,19.53,19.53,0,0,1,1.84,6,31.5,31.5,0,0,1-.25,9.05,49.58,49.58,0,0,1-2.27,8.85Z"/><path class="cls-2" d="M183.2,340.8a2.18,2.18,0,0,1-2,1.24,7.05,7.05,0,0,1-3.42-.82,22.5,22.5,0,0,1-3.58-2.17,10.77,10.77,0,0,0-2.62-2.17,37.44,37.44,0,0,1-4.2-3.71q-2.94-2.87-3.49-3.55c.09-.19,0-.43-.23-.71a2.76,2.76,0,0,0-.93-.69,4,4,0,0,1-1.2-.86,3.06,3.06,0,0,1-.72-1,4.23,4.23,0,0,1-.7-.54,2.87,2.87,0,0,0-.7-.54,2.22,2.22,0,0,1-.45-.43,1.8,1.8,0,0,0-.52-.46q-1.68-2.15-8.08-8.56t-7.25-6.8a1.1,1.1,0,0,1-.61-1.66,1.66,1.66,0,0,1,.17-1.3l1.66-.6a2.61,2.61,0,0,1,1.32-.16,8,8,0,0,1,1.67.61,6.12,6.12,0,0,1,1.72,1.14c.43.43,1.28,1.39,2.54,2.89.26.3.57.67.91,1.11s.78,1,1.31,1.56c.19.2.87,1,2,2.32a8.47,8.47,0,0,0,1.31,1.46,3.78,3.78,0,0,1,.76.7c.36.4.75.77,1.15,1.14q.89,1.1,3.18,3.66a25.66,25.66,0,0,0,2.59,2.71,1.67,1.67,0,0,1,1,.88c-.06.14,0,.29.19.43a3.19,3.19,0,0,0,.43.29,18.48,18.48,0,0,1,3.25,2.88l1.76,1.59c2.67,2.33,4.63,4,5.89,5a17,17,0,0,0,3.37,2.21,16.47,16.47,0,0,1,2.23,1.16,1.27,1.27,0,0,1,.5,1A2.86,2.86,0,0,1,183.2,340.8Z"/><path class="cls-2" d="M191.24,322.36a7.74,7.74,0,0,1-2.55,2.85,8.48,8.48,0,0,1-3.64,1.39,8.35,8.35,0,0,1-3.19,0,13.68,13.68,0,0,1-3.62-1.36c-.46-.25-1.37-.78-2.71-1.59a15.65,15.65,0,0,1-4.47-4.49,23.29,23.29,0,0,1-3-6.29,14.79,14.79,0,0,1-.75-5.93,4.36,4.36,0,0,1,.35-2.36,7.56,7.56,0,0,1,.58-.93l.68-1a8.78,8.78,0,0,1,1.8-2,3.91,3.91,0,0,1,1.84-.75,6.3,6.3,0,0,1,4.94.37,9.56,9.56,0,0,1,2.7,4.14,16.3,16.3,0,0,1,1.13,6.3,9.93,9.93,0,0,1-1.06,3.05,6.78,6.78,0,0,1-2.71,3,3.78,3.78,0,0,0-.71.85,1.18,1.18,0,0,0,.35,1.37,17,17,0,0,0,2.75,2.18,10.66,10.66,0,0,0,1.35.8c2.37,1.23,4.07,1.13,5.12-.32a14.32,14.32,0,0,0,1.54-2.1,4.51,4.51,0,0,0,.41-2.15l-.08-1.71a3.27,3.27,0,0,0-.15-1.06c-.12-.35-.22-.66-.31-.94s-.12-.36-.23-.65a1.93,1.93,0,0,1-.15-.74,1.41,1.41,0,0,1,.13-.5,1.1,1.1,0,0,1,.64-.46,5.3,5.3,0,0,0,.74-.32c.22-.41.55-.35,1,.18a7.38,7.38,0,0,1,1.24,2.54,15.93,15.93,0,0,1,.7,3.66A6.8,6.8,0,0,1,191.24,322.36Zm-14.63-15.85a3.91,3.91,0,0,0-1.45-2.3,2,2,0,0,0-1.72-.1,2.81,2.81,0,0,0-1.45,1.44,4.6,4.6,0,0,0-.51,1.31,6.89,6.89,0,0,0,.3,3.06,22.27,22.27,0,0,0,1.28,3.57c.49,1.08.85,1.59,1.06,1.52.54,0,1.21-.8,2-2.37a8,8,0,0,0,.95-2.84A8.19,8.19,0,0,0,176.61,306.51Z"/><path class="cls-2" d="M192.76,278.52a3.81,3.81,0,0,1,1.53,2c.14.27.34.72.59,1.36a13.8,13.8,0,0,0,.88,1.81,7.41,7.41,0,0,0,1.31,1.61c.92.81,2.79,2.66,5.6,5.58l2.18,2.32,3.51,3.58q8.56,9.3,8.36,13.27a5.39,5.39,0,0,1-.67,1.87,6.69,6.69,0,0,1-2.81,2.44,10.54,10.54,0,0,1-4.28,1.1,13.18,13.18,0,0,1-3.77-.51q-2.43-.6-2.46-1.17a.79.79,0,0,1,.15-.54,2.37,2.37,0,0,1,.91-.82,1.6,1.6,0,0,1,1.11-.24,10.33,10.33,0,0,0,2.63,0,3.7,3.7,0,0,0,2-.49,5,5,0,0,0,1.62-1.48,2.12,2.12,0,0,0,.29-1.37,9,9,0,0,0-1.14-3.2,30.18,30.18,0,0,0-3.36-4.36l-1.62-1.71a87.6,87.6,0,0,1-6.23-7,10,10,0,0,1-1.27-1.68l.34,1.85c.17.83.3,1.67.4,2.52a9.54,9.54,0,0,1,0,2.45q.33.82-.81,2.7a10.7,10.7,0,0,1-2,2.42,7.63,7.63,0,0,1-2.19,1,10.28,10.28,0,0,1-2.44-.2,4.64,4.64,0,0,1-1.84-.75,19.11,19.11,0,0,1-5.36-5.07,27.41,27.41,0,0,1-3.14-7.37q-1.31-4.51-.69-6.88a3.76,3.76,0,0,1,.49-1.71,5.4,5.4,0,0,1,1.19-1.37,5.26,5.26,0,0,1,1.48-1.38,17.37,17.37,0,0,1,2.75-1.07,11.66,11.66,0,0,1,5-.18A4.14,4.14,0,0,1,192.76,278.52Zm-1.93,7.21a12.39,12.39,0,0,0-3.32-2.46,4.1,4.1,0,0,0-1.47-.53.89.89,0,0,0-.81.51,6.19,6.19,0,0,0-.57,3.67,18.87,18.87,0,0,0,1.21,5.1,14.21,14.21,0,0,0,2.21,3.62,15.17,15.17,0,0,0,3.74,3.36c1,.59,1.65.75,2,.48a8.2,8.2,0,0,0,1.07-4.5,14.66,14.66,0,0,0-1.71-5.64A11.49,11.49,0,0,0,190.83,285.73Z"/><path class="cls-2" d="M210.69,284.61a1.67,1.67,0,0,1-.84,0,2.05,2.05,0,0,0-1.31-.45,1.08,1.08,0,0,1-.67-.29,13.74,13.74,0,0,1-2.78-3.46,58.83,58.83,0,0,1-3.5-6.36,10.05,10.05,0,0,0-.64-1.94,6.18,6.18,0,0,1-.52-1.57.9.9,0,0,1-.34-.53.69.69,0,0,1,.09-.6l-.38-.27c-.39-.28-.82-1.63-1.29-4.08a23.58,23.58,0,0,1-.59-5.58,6.9,6.9,0,0,1,1.21-4,3.87,3.87,0,0,1,2-1.52q.62,0,4.83-1l3.78-.85,2.38,3.41a12.14,12.14,0,0,0,2.72,2.8,10.65,10.65,0,0,0,5.65,1.92,4.14,4.14,0,0,0,2.25-.32,5.43,5.43,0,0,0,2.12-1.36,1.72,1.72,0,0,1,2.4-.39,1.7,1.7,0,0,1,.72,2.23,4.36,4.36,0,0,1-.48.81q-2.67,3.75-9.91,2.7a10.54,10.54,0,0,1-1.88-.33,9.89,9.89,0,0,1-1.74-.52c.16.49.34,1.1.53,1.81s.35,1.36.45,1.94q2,11.88-.81,15.88a5.16,5.16,0,0,1-2.27,1.83A3.91,3.91,0,0,0,210.69,284.61Zm-.06-5.39a8.09,8.09,0,0,0,.54-2.11,14.93,14.93,0,0,0,.08-2.95,57.53,57.53,0,0,0-2.64-13.74l-1.3-3a7.31,7.31,0,0,0-2.9-.05,2.53,2.53,0,0,0-1.51.84q-.94,1.33.37,6.57a51,51,0,0,0,4.18,10.82,29.35,29.35,0,0,0,1.48,2.58l1,1.6C210.18,279.9,210.4,279.72,210.63,279.22Z"/><path class="cls-2" d="M246.38,238.23a5,5,0,0,1-2.81-.13,18.53,18.53,0,0,1-4.29-2.7,4.14,4.14,0,0,1-1.11-1.24c0-.29-.31-.66-.87-1.09l-1.19-1c-1-.74-1.65-.85-2.08-.33a3,3,0,0,0-.59,1.54c-.48,3.41-.85,6.28-1.13,8.64a51.59,51.59,0,0,0-.32,7.17,14.26,14.26,0,0,0,.63,2.67c.24.68.4,1.16.48,1.43a.7.7,0,0,1-.13.7,2.8,2.8,0,0,1-.28.58,1.68,1.68,0,0,1-.94.44,8.78,8.78,0,0,1-.9.15c-.29,0-.78.06-1.46.09a3.36,3.36,0,0,1-1.31-.08,18.09,18.09,0,0,1-1.89-2.26,16.28,16.28,0,0,1-1.69-2.5c.1-.11,0-.5-.29-1.16a10.49,10.49,0,0,1-.62-1.64,39.52,39.52,0,0,1-2.82-5,18,18,0,0,0-1.42-3.18,13.08,13.08,0,0,0-2-2.47l-.12-.1a.65.65,0,0,1-.24-.51.77.77,0,0,1,.16-.48,1.75,1.75,0,0,1,.35-1,2.76,2.76,0,0,1,2.27-.74,4.92,4.92,0,0,1,3.14,1.13q1.56,1.31,3.26,6.11c.18.35.43.86.77,1.52a4.3,4.3,0,0,0,.8,1.23l.54-5.25a21.54,21.54,0,0,1,.24-4.18,14.49,14.49,0,0,1,.91-4.23,8.51,8.51,0,0,1,.85-2.35,4.56,4.56,0,0,1,2.71-1,6.29,6.29,0,0,1,3,.06,3.67,3.67,0,0,0,1.06.69,15.37,15.37,0,0,1,3.06,2.08,14.08,14.08,0,0,1,1.82,1.79c.5.59.72,1,.66,1.22a.91.91,0,0,0,.23.09.32.32,0,0,0,.33-.14l.3.26c-.27.32,0,.64.91,1a5,5,0,0,0,2.36.36,2.27,2.27,0,0,1,1.7.41c.48.41.52,1.05.12,1.93A4.59,4.59,0,0,1,246.38,238.23Z"/><path class="cls-2" d="M256.46,230.87a7.6,7.6,0,0,1-3.1-.69.66.66,0,0,0-.36-.13l-.36,0c-.26,0-.95-.48-2.07-1.58-.9-.87-1.79-1.83-2.68-2.87a23.18,23.18,0,0,1-2-2.66l-2-3.9-1.48-3-1.79-4.68-2.8,1.63a1.29,1.29,0,0,1-1,.26,1.46,1.46,0,0,1-.87-.35,2.81,2.81,0,0,1-.63-1.54q-.18-1.1.09-1.38a5.23,5.23,0,0,0,.93-.84,19.55,19.55,0,0,0,2.27-2.68,1.87,1.87,0,0,0-.13-1.65c-.16-.44-.36-1-.61-1.63s-.47-1.23-.67-1.78c-.11-.33-.29-.85-.52-1.55s-.47-1.52-.7-2.48q-.06-.27-.33-1.29a6,6,0,0,1-.17-2,1.8,1.8,0,0,1,.53-1.33,3.67,3.67,0,0,1,2.15-.74l.75.13a1.23,1.23,0,0,1,.69.3,3.7,3.7,0,0,1,.52,1.37c.23.67.43,1.27.58,1.82s.3,1,.41,1.43c.32,1.18.57,2,.76,2.59a3.16,3.16,0,0,0,.58,1.66c.27.25.63.14,1.1-.35a22.73,22.73,0,0,0,2.22-2.95,13.76,13.76,0,0,1,.92-1.17q1.9-1.95,3.7-.54a8,8,0,0,1,.84.71c.52.51.67,1,.43,1.46a13.56,13.56,0,0,1-2.14,2.54,33.62,33.62,0,0,1-3.3,4c-.22.22-.46.48-.71.78a6.82,6.82,0,0,0-.7,1,1.71,1.71,0,0,0-.29,1,4.14,4.14,0,0,0,.32,1.13,12.14,12.14,0,0,0,.53,2c.58,1.58.91,2.55,1,2.92a78.14,78.14,0,0,0,7,11.2q.8,1,1,1.2a1.74,1.74,0,0,0,1.72.59,5.33,5.33,0,0,0,2.19-1.57,17,17,0,0,0,2.81-3.67,32.33,32.33,0,0,0,1.21-3.72q.21-.78.36-1.44c.11-.44.18-.76.21-.94a.68.68,0,0,1,0-.72c.29-.3.85-.27,1.66.09a4.31,4.31,0,0,1,1.19,1.92,7.5,7.5,0,0,1-.33,3.49,16.58,16.58,0,0,1-4.22,8.5,11.27,11.27,0,0,1-1.8,1.51A4.73,4.73,0,0,1,256.46,230.87Z"/><path class="cls-2" d="M295.55,202l-.09-.23c-.33-.4-.85-.35-1.57.16a12.74,12.74,0,0,1-7.13-1.4c-.81-.43-1.23-.66-1.26-.7a.47.47,0,0,1,0-.48q.12-.28.27-.72a1.53,1.53,0,0,1,.55-.94.74.74,0,0,1,.67-.09,10.06,10.06,0,0,1,1.34.48,6.45,6.45,0,0,0,4.14,0,13,13,0,0,0,4.62-2.46,15.25,15.25,0,0,0,4.21-5.21,11.41,11.41,0,0,0,1.26-3.16,2.43,2.43,0,0,0-.43-2,4.55,4.55,0,0,0-2.09-1.23,3.92,3.92,0,0,0-1.23-.47,14,14,0,0,0-1.7-.19c-.41,0-1.24-.08-2.48-.22a16.37,16.37,0,0,1-2.79.64l-1.77.41a22.2,22.2,0,0,1-5.83.52,15.44,15.44,0,0,1-5.41-.83,6.74,6.74,0,0,1-3.11-1.12,11.83,11.83,0,0,1-2.94-2.66,11.43,11.43,0,0,1-2.33-4.77,27.53,27.53,0,0,1-.47-7.17,30.25,30.25,0,0,1,.73-6.92l.36-2.8c-.09-.19-.11-.33,0-.42l.15-.18c.06-.17.33-.71.81-1.6a10,10,0,0,0,1-3.48,85.94,85.94,0,0,1,4.31-8.24,16.88,16.88,0,0,1,3.45-4.23,8.45,8.45,0,0,1,5.07-1.72,6.72,6.72,0,0,1,4.69,1.91,5.13,5.13,0,0,1,1,1,11.59,11.59,0,0,1,2.22,6,13.47,13.47,0,0,1-.61,6.57,8.13,8.13,0,0,1-1.58,2.38.73.73,0,0,1-.82.16,2.41,2.41,0,0,1-.88-.9,3.29,3.29,0,0,1-.61-1.57,20.5,20.5,0,0,1,0-3.73q-.42-5.61-1.84-7.38a1.19,1.19,0,0,0-1.79-.36,13.52,13.52,0,0,0-3.13,3c-1.54,1.78-2.22,2.77-2.06,3a1.7,1.7,0,0,1,.14.24c.06.12,0,.2-.14.26s-1,2.14-2.45,6.15-2.12,6.15-2,6.41a1.63,1.63,0,0,1,.06,1,4.71,4.71,0,0,1-.48,1.34,9.59,9.59,0,0,0-.55,3.66,41.93,41.93,0,0,0,.64,5.52,12.68,12.68,0,0,0,.63,3.21,8.24,8.24,0,0,0,1.32,2.57,4.1,4.1,0,0,0,1.11,1,8.37,8.37,0,0,0,3.92,1,28.05,28.05,0,0,0,6.28-.27,51.47,51.47,0,0,1,8-.72,12,12,0,0,1,4.93.71,9.47,9.47,0,0,1,4.88,3.21,8.21,8.21,0,0,1,1.09,1.74,8.91,8.91,0,0,1,.13,3.26,3.24,3.24,0,0,1-1,2.37,5.09,5.09,0,0,0-.66,1.29,6,6,0,0,1-.41,1,11.89,11.89,0,0,1-2.62,3.27,35.71,35.71,0,0,1-4.53,3.88Z"/><path class="cls-2" d="M317.74,179.79a12.48,12.48,0,0,1-1.95-.09q-3.68-.81-5-2.69a2.65,2.65,0,0,1-.37-.69,2.4,2.4,0,0,0-.46-1l-.43-.56a1.12,1.12,0,0,1-.51-.18.36.36,0,0,1,0-.29.72.72,0,0,0,0-.35c.26-.18.18-.47-.23-.89a6.5,6.5,0,0,1-1.06-2.65,19.7,19.7,0,0,1-.63-4.37,35.67,35.67,0,0,1,.1-4.34,21.1,21.1,0,0,1,.66-4.34,18.21,18.21,0,0,1,1.39-3.9,13,13,0,0,1,2-2.82,10.52,10.52,0,0,1,1.52-1.51,1.74,1.74,0,0,1,1-.33,7.7,7.7,0,0,1,1.48.17,6.1,6.1,0,0,1,3.76.32,9.6,9.6,0,0,1,3.23,3.26q2.88,4.2,2.83,11.45a22,22,0,0,1-.52,5.16,30.26,30.26,0,0,1-1.75,4.76,13.58,13.58,0,0,1-1.52,3.08,10.12,10.12,0,0,1-2.21,2.23A3.1,3.1,0,0,1,317.74,179.79Zm3.09-16.66a25.93,25.93,0,0,0-.93-5.15,11.54,11.54,0,0,0-1.5-2.87c-.88-1.3-1.55-1.91-2-1.85a3.52,3.52,0,0,0-1.5.56,5.59,5.59,0,0,0-2.07,3.32,20.79,20.79,0,0,0-.62,6.26,57.3,57.3,0,0,0,1,7.93,7.56,7.56,0,0,0,1.18,3.09,2.86,2.86,0,0,0,1.54,1.22,2,2,0,0,0,1.72-.32q2.11-1.45,3-7.19A27.54,27.54,0,0,0,320.83,163.13Z"/><path class="cls-2" d="M339.2,167.74a2.17,2.17,0,0,1-2.32-.05,7,7,0,0,1-2.4-2.57,21,21,0,0,1-1.78-3.78,10.66,10.66,0,0,0-1-3.25,38.51,38.51,0,0,1-1.45-5.41c-.58-2.68-.9-4.31-.95-4.89.18-.11.24-.35.2-.72a2.68,2.68,0,0,0-.4-1.09,4.31,4.31,0,0,1-.53-1.38,3,3,0,0,1-.05-1.21,3.57,3.57,0,0,1-.29-.84,3.76,3.76,0,0,0-.28-.83,1.66,1.66,0,0,1-.15-.61,1.77,1.77,0,0,0-.18-.66q-.21-2.73-2-11.6t-2.3-9.68a1.11,1.11,0,0,1,.41-1.72,1.68,1.68,0,0,1,.86-1l1.71.42a2.57,2.57,0,0,1,1.2.6,7.5,7.5,0,0,1,1.05,1.42,6.1,6.1,0,0,1,.81,1.9c.12.6.29,1.87.52,3.82.06.39.1.87.14,1.42s.12,1.24.24,2q.08.42.42,3.06a7.94,7.94,0,0,0,.28,1.94,3.6,3.6,0,0,1,.24,1c.09.53.2,1.06.34,1.59.08.93.29,2.53.63,4.81a26.18,26.18,0,0,0,.66,3.68,1.73,1.73,0,0,1,.33,1.28c-.13.08-.16.23-.08.46a2.46,2.46,0,0,0,.2.48,19,19,0,0,1,1.11,4.19l.6,2.3q1.41,5.11,2.14,7.42a16.69,16.69,0,0,0,1.6,3.71,16.2,16.2,0,0,1,1.21,2.2,1.26,1.26,0,0,1-.11,1.08A2.65,2.65,0,0,1,339.2,167.74Z"/><path class="cls-2" d="M359.85,149.66a5.88,5.88,0,0,1-.92-1.37l-.79-1.44a5,5,0,0,1-.49,2.68,13,13,0,0,1-1.87,4.05,8.8,8.8,0,0,1-3,3.72,3.88,3.88,0,0,1-3.42-.09,6.73,6.73,0,0,1-2.16-.79,4,4,0,0,1-1.46-1.61,8.17,8.17,0,0,1-.7-1.76,29.12,29.12,0,0,1-1.95-5.28,42.21,42.21,0,0,1-1.06-7.19q-.18-5.54,0-7.5a3,3,0,0,1,.81-.62,1.85,1.85,0,0,1,1.36-.21,2,2,0,0,1,1.11.82,1.45,1.45,0,0,1,.62.65c.63,1.14,1,3.4,1,6.76q.87,7.92,2.23,10.39c.52,1,1.11,1.39,1.76,1.27a1.54,1.54,0,0,0,.86-.2c1.14-.63,2.08-2.15,2.83-4.58s.9-5.77.48-10a18.44,18.44,0,0,0-1.48-5.44,2.69,2.69,0,0,1-.4-.58,2.58,2.58,0,0,1,.14-2.67,2.18,2.18,0,0,1,.39-1.07q.34-.5.63-.3l1.06-.67c.11-.12.32-.07.62.16a1.67,1.67,0,0,0,.73.36c.47.1.9.52,1.3,1.25q1.24,2.27,1.82,8a39.18,39.18,0,0,0,.57,5.18,13.7,13.7,0,0,0,1.05,3.13,6.22,6.22,0,0,0,4.35,3.25,2.19,2.19,0,0,1,1.39.58,5.72,5.72,0,0,1,.89,1.48,1.68,1.68,0,0,1-.24,1.42,3.13,3.13,0,0,1-1.19,1.15,3.09,3.09,0,0,1-1.84.38A11.34,11.34,0,0,1,359.85,149.66Z"/><path class="cls-2" d="M375.76,145.56a7.71,7.71,0,0,1-2.66-1.75.61.61,0,0,0-.29-.25,2,2,0,0,0-.33-.15c-.25-.06-.71-.8-1.37-2.22-.53-1.14-1-2.35-1.47-3.64a22.06,22.06,0,0,1-.93-3.19l-.48-4.36-.33-3.31v-5l-3.19.53a1.36,1.36,0,0,1-1-.12,1.47,1.47,0,0,1-.68-.64,2.7,2.7,0,0,1-.05-1.66c.15-.73.34-1.15.58-1.26a5.53,5.53,0,0,0,1.16-.46,18.45,18.45,0,0,0,3.08-1.69,1.88,1.88,0,0,0,.47-1.59c0-.47,0-1,0-1.74s0-1.32,0-1.91q0-.53.06-1.62c0-.74.11-1.59.23-2.57,0-.19.08-.63.16-1.33a5.79,5.79,0,0,1,.56-1.94,1.81,1.81,0,0,1,1-1.06,3.66,3.66,0,0,1,2.26.08l.66.38a1.37,1.37,0,0,1,.54.53,3.67,3.67,0,0,1,0,1.47c0,.7-.06,1.34-.11,1.91s-.09,1.06-.12,1.48c-.13,1.21-.2,2.11-.22,2.69a3,3,0,0,0,0,1.75c.15.33.53.36,1.15.07a22.36,22.36,0,0,0,3.12-2,12.59,12.59,0,0,1,1.28-.76c1.65-.77,2.86-.49,3.64.81a6.61,6.61,0,0,1,.53,1c.31.66.27,1.17-.11,1.52a14.09,14.09,0,0,1-2.9,1.6,32.62,32.62,0,0,1-4.5,2.52l-.94.48a7,7,0,0,0-1,.69,1.72,1.72,0,0,0-.62.8,4.1,4.1,0,0,0-.1,1.17,12.3,12.3,0,0,0-.23,2.1c0,1.68-.06,2.7-.12,3.08A78.15,78.15,0,0,0,375,139c.26.8.43,1.3.52,1.48a1.77,1.77,0,0,0,1.4,1.17,5.33,5.33,0,0,0,2.6-.69,16.86,16.86,0,0,0,3.94-2.43,32.19,32.19,0,0,0,2.46-3c.31-.44.6-.84.85-1.22s.43-.64.53-.81c0-.35.11-.56.29-.65.38-.18.89.05,1.52.68a4.28,4.28,0,0,1,.43,2.22,7.63,7.63,0,0,1-1.55,3.14,16.66,16.66,0,0,1-7,6.43,10.67,10.67,0,0,1-2.22.77A4.67,4.67,0,0,1,375.76,145.56Z"/><path class="cls-2" d="M390.17,102.46c-.57-.73-.74-1.14-.5-1.24s.64-.81.83-1.81a3.66,3.66,0,0,0-.13-2.28,1,1,0,0,1,0-.63,1.09,1.09,0,0,1,.37-.53,2.08,2.08,0,0,1,.87-.77q1.23-.49,2.94.84a4.26,4.26,0,0,1,1.11,1.49,3.13,3.13,0,0,1,.19,1.49,11.1,11.1,0,0,1-.59,2.31c-.36,1.44-.91,2.31-1.63,2.6a2.74,2.74,0,0,1-1.88-.08A4.51,4.51,0,0,1,390.17,102.46Zm4.31,31.23a4.19,4.19,0,0,1-.34-1.9,3.38,3.38,0,0,1-.21-.93,3.56,3.56,0,0,0-.12-.71,8.22,8.22,0,0,1-.39-2.63,100.42,100.42,0,0,0-.68-11.65.85.85,0,0,1,0-.73,1.71,1.71,0,0,1,.74-.68,3.75,3.75,0,0,1,.73-.46,1.1,1.1,0,0,1,.89,0,8.54,8.54,0,0,1,1.39.83,1.88,1.88,0,0,1,1,1.13,8.81,8.81,0,0,1,.42,3.72,18.13,18.13,0,0,0,.24,4.13,35.12,35.12,0,0,0,.09,4.19q0,.49.27,1.92a7.21,7.21,0,0,1,.06,2.43,16.45,16.45,0,0,1,.35,3.15c0,.63-.18,1-.47,1.12s-.93,0-1.78-.46A4.25,4.25,0,0,1,394.48,133.69Z"/><path class="cls-2" d="M413,131.13a12,12,0,0,1-1.85-.6q-3.33-1.75-4.07-3.9a3.19,3.19,0,0,1-.19-.77,2.38,2.38,0,0,0-.17-1.1l-.27-.65c-.26-.13-.41-.23-.43-.31a.28.28,0,0,1,.07-.27.89.89,0,0,0,.13-.34c.29-.1.3-.4,0-.91a6.62,6.62,0,0,1-.32-2.84,19.43,19.43,0,0,1,.55-4.37,34.91,34.91,0,0,1,1.24-4.16,21.88,21.88,0,0,1,1.78-4,17.39,17.39,0,0,1,2.38-3.39,12.57,12.57,0,0,1,2.71-2.18,10.21,10.21,0,0,1,1.86-1.06,1.75,1.75,0,0,1,1-.06,6.8,6.8,0,0,1,1.38.56,6,6,0,0,1,3.55,1.3,9.53,9.53,0,0,1,2.24,4q1.66,4.82-.29,11.8a21.76,21.76,0,0,1-1.87,4.83,29.18,29.18,0,0,1-2.94,4.13,13.27,13.27,0,0,1-2.29,2.57,10,10,0,0,1-2.71,1.56A2.92,2.92,0,0,1,413,131.13Zm7.39-15.24a26.54,26.54,0,0,0,.46-5.22,11.33,11.33,0,0,0-.68-3.16c-.51-1.49-1-2.26-1.46-2.32a3.39,3.39,0,0,0-1.6.14,5.71,5.71,0,0,0-2.88,2.65,21.34,21.34,0,0,0-2.25,5.88,55.39,55.39,0,0,0-1.14,7.9,7.43,7.43,0,0,0,.31,3.3,2.88,2.88,0,0,0,1.17,1.58,2,2,0,0,0,1.74.15q2.43-.84,4.8-6.14A27.27,27.27,0,0,0,420.38,115.89Z"/><path class="cls-2" d="M458.13,115.05a5,5,0,0,1-2.23-1.73,18.8,18.8,0,0,1-1.95-4.67,4.05,4.05,0,0,1-.19-1.65,1.93,1.93,0,0,0-.09-1.4q-.3-1-.42-1.47c-.36-1.14-.86-1.63-1.51-1.46a3,3,0,0,0-1.37.92q-3.53,3.76-5.89,6.41a50.56,50.56,0,0,0-4.39,5.69,14.69,14.69,0,0,0-1,2.54c-.19.7-.33,1.18-.42,1.45a.75.75,0,0,1-.52.5,2.62,2.62,0,0,1-.56.31,1.7,1.7,0,0,1-1-.18c-.43-.19-.7-.32-.83-.39s-.67-.41-1.25-.77a3.15,3.15,0,0,1-1-.83,17.91,17.91,0,0,1-.25-2.93,15.45,15.45,0,0,1,.06-3c.15,0,.29-.42.43-1.13a9.84,9.84,0,0,1,.44-1.69,39.21,39.21,0,0,1,.59-5.75,18.67,18.67,0,0,0,.67-3.42,13.32,13.32,0,0,0-.23-3.18l0-.15a.64.64,0,0,1,.1-.55.69.69,0,0,1,.4-.31,1.8,1.8,0,0,1,.88-.64,2.79,2.79,0,0,1,2.28.7A5.07,5.07,0,0,1,440.7,99c.35,1.31.06,3.6-.85,6.87-.06.39-.14.95-.25,1.68a4.5,4.5,0,0,0-.05,1.48l3.46-4a21,21,0,0,1,2.61-3.28,14.63,14.63,0,0,1,3.17-2.94,8.8,8.8,0,0,1,2-1.43,4.57,4.57,0,0,1,2.8.73,6.35,6.35,0,0,1,2.45,1.79,3.53,3.53,0,0,0,.47,1.17,15.77,15.77,0,0,1,1.31,3.46,15.38,15.38,0,0,1,.46,2.52c.06.76,0,1.22-.17,1.38a.61.61,0,0,0,.14.2.33.33,0,0,0,.34.08l.1.37c-.4.11-.34.55.19,1.33a4.89,4.89,0,0,0,1.72,1.66,2.21,2.21,0,0,1,1.15,1.32c.16.6-.18,1.15-1,1.64A4.59,4.59,0,0,1,458.13,115.05Z"/><path class="cls-2" d="M469.58,116a7.71,7.71,0,0,1-2.1-1.48c0-.11-.05-.28-.1-.54a.52.52,0,0,1,.14-.55,2.31,2.31,0,0,1,.82-.27q1.31-.24,4.2-.45a21.17,21.17,0,0,0,3.75-1.13c1.38-.55,2.11-1,2.2-1.4q.22,0,.21-.12c0-.11-.27-.32-.75-.66a2.29,2.29,0,0,1-.74-.14,2.48,2.48,0,0,0-.74-.15c0-.2-.32-.43-.84-.68a8.74,8.74,0,0,0-1.7-.6c-1.71-1-2.92-1.68-3.64-2.16s-1-.86-.93-1.14l-.07-.39c-.36.07-.84-.36-1.46-1.28a7.16,7.16,0,0,1-1.17-2.7,9.88,9.88,0,0,1,.47-4.07,14.77,14.77,0,0,1,2-4.51,41.89,41.89,0,0,1,4.77-5.26,24.07,24.07,0,0,1,4.88-3.85,6.82,6.82,0,0,1,2.5-1,3.8,3.8,0,0,1,2.17.16A8.42,8.42,0,0,1,485.72,83a6.88,6.88,0,0,1,1.65,1.85,15.2,15.2,0,0,1,.26,3.34c0,1.09-.28,1.68-.74,1.77a.54.54,0,0,0-.22.12c-.09.07-.12.21-.08.41a1.74,1.74,0,0,1-.16.87,4.26,4.26,0,0,1-.66,1.12,5.26,5.26,0,0,1-2.54,1.74,1,1,0,0,1-1.22-.65,1.56,1.56,0,0,1-.4-.41c-.14-.18-.28-.26-.44-.23s-.15-.07-.31-.22a1.24,1.24,0,0,1-.33-.7.86.86,0,0,1,.1-.54,3.1,3.1,0,0,1,.2-.39q.46-.09,1.2-2.1a6.86,6.86,0,0,0,.63-2.62c-.06-.31-.13-.48-.22-.52a1.87,1.87,0,0,0-.74.05q-5.47,3.81-6.68,5.46a5,5,0,0,1-.23.68.51.51,0,0,1-.39.23q-.13-.69-3.1,6a2.61,2.61,0,0,0-.17,1,5.19,5.19,0,0,0,.05,1.35,6,6,0,0,0,0,.72,1,1,0,0,0,.38.57,5.55,5.55,0,0,0,.85.52c.35.17.7.36,1.06.56a69.8,69.8,0,0,1,6.38,3.48,6.92,6.92,0,0,1,2.34,2.16,5.32,5.32,0,0,1,1.51,2.59,2.31,2.31,0,0,1-.39,1.75,6.94,6.94,0,0,1-1.83,1.69,11.41,11.41,0,0,1-2.71,1.18,31.28,31.28,0,0,1-3.86,1,19.65,19.65,0,0,1-2.33.27A10.31,10.31,0,0,1,469.58,116Z"/><path class="cls-2" d="M550.74,64.12a.67.67,0,0,1-.16.52,1.06,1.06,0,0,1-.41.3,1,1,0,0,0-.3.17,9.35,9.35,0,0,1-2.77.72,5.06,5.06,0,0,1-1.81-.28,4.59,4.59,0,0,0-1.93-.9,25.82,25.82,0,0,0-4.55-.27,35.66,35.66,0,0,1-3.95.47,17.17,17.17,0,0,1-1.47,5.28,12.77,12.77,0,0,1-.69,2.71,5.6,5.6,0,0,0-.36,1.83,34.89,34.89,0,0,0-1.23,4c-.69,2.48-1.32,4.88-1.9,7.22-.42,1.65-.74,2.85-1,3.59a22,22,0,0,0-.83,2.53c-.32,1.14-.54,2-.67,2.43L525.15,100a28.92,28.92,0,0,0-1.29,3.81c-.49,1.73-.88,3.29-1.16,4.66l-.61,2.79c-.2.95-.38,1.67-.53,2.15a1.81,1.81,0,0,1-.38.81,1.83,1.83,0,0,1-.77,0c-.42,0-.89-.28-1.43-.9a3.19,3.19,0,0,1-.85-1.87,23.8,23.8,0,0,1,.85-5.86A55.42,55.42,0,0,1,520.87,99c.15-1,.3-1.72.45-2.31s.24-1,.27-1.27a8.77,8.77,0,0,0,.64-1.73c.28-.93.5-1.8.66-2.59q.15-1.42,3.86-16l.44-1.68a15.85,15.85,0,0,0,1.14-3,1.82,1.82,0,0,0,.52-1.68,1.24,1.24,0,0,1,.23-.64,1.17,1.17,0,0,0,.24-.57,2.12,2.12,0,0,0,.31-.76,2.13,2.13,0,0,1,.45-.93V65.7l-1.24.15-3.78.63-1.71.26c-3,.45-4.71.73-5.17.87a8.33,8.33,0,0,1-3.32,0,1.16,1.16,0,0,1-.76-1.53,2.26,2.26,0,0,1,.89-1.47,6.16,6.16,0,0,1,2.25-.84c.46-.13,1.35-.35,2.69-.64l2.08-.52,2.62-.47a86.75,86.75,0,0,1,9.51-1.53c1.4-.14,2.57-.27,3.53-.41s1.58-.24,1.89-.31c.73,0,1.92.06,3.56.17a18.39,18.39,0,0,1,3.59.49,5.84,5.84,0,0,1,2.59.94,4,4,0,0,1,1.33,2A2.43,2.43,0,0,1,550.74,64.12Z"/><path class="cls-2" d="M543.16,108.54a11.11,11.11,0,0,1-1.58-1.14c-1.74-1.8-2.63-3.46-2.65-5a2.6,2.6,0,0,1,.06-.78,2.38,2.38,0,0,0,.18-1.1c0-.37,0-.6,0-.71-.21-.2-.32-.35-.32-.42a.33.33,0,0,1,.15-.24.77.77,0,0,0,.23-.28q.47,0,.3-.87a6.47,6.47,0,0,1,.58-2.79,19.24,19.24,0,0,1,1.88-4,36.62,36.62,0,0,1,2.48-3.57,22.29,22.29,0,0,1,2.94-3.26,18.5,18.5,0,0,1,3.31-2.48,12.8,12.8,0,0,1,3.26-1.23,11,11,0,0,1,2.09-.43,1.8,1.8,0,0,1,1,.26,7.83,7.83,0,0,1,1.15,1,6,6,0,0,1,3,2.35,9.45,9.45,0,0,1,.89,4.49q.09,5.1-4,11.11a22.14,22.14,0,0,1-3.28,4,30.06,30.06,0,0,1-4.09,3,13.42,13.42,0,0,1-3,1.74,10.19,10.19,0,0,1-3.07.63A2.87,2.87,0,0,1,543.16,108.54Zm11.76-12.18A26.89,26.89,0,0,0,557,91.55a11.86,11.86,0,0,0,.33-3.22c0-1.57-.24-2.45-.66-2.66a3.49,3.49,0,0,0-1.57-.36,5.67,5.67,0,0,0-3.56,1.62,21.2,21.2,0,0,0-4,4.89A58,58,0,0,0,544,99a7.42,7.42,0,0,0-.72,3.22,2.85,2.85,0,0,0,.61,1.87,1.93,1.93,0,0,0,1.61.68c1.72,0,3.87-1.47,6.48-4.33A27.42,27.42,0,0,0,554.92,96.36Z"/><path class="cls-2" d="M589.33,114.72a8,8,0,0,1-2.08-3.89,25,25,0,0,1-.24-8.39,48.64,48.64,0,0,1,1.5-7.76,33.11,33.11,0,0,1,2.65-6.35l.9-1.54a44,44,0,0,1,2.29-4,50.46,50.46,0,0,1,5.59-7.29,78.38,78.38,0,0,1,5.45-6,21.78,21.78,0,0,1,3.69-2.91q1.73-1.05,6.35-3.49a6.7,6.7,0,0,1,4.26-.82,7,7,0,0,1,3.48,1.41,6.2,6.2,0,0,1,2.17,3.06,8,8,0,0,1,.37,4.08A19.45,19.45,0,0,1,623.28,78a16.29,16.29,0,0,1-4.68,5.51,2.22,2.22,0,0,1-1.55.52A3.91,3.91,0,0,1,615,82.47a17,17,0,0,1-.59-1.66c0-.16.08-.25.35-.27a25.35,25.35,0,0,0,2.45-3.06,25.46,25.46,0,0,0,2.29-3.63,10.81,10.81,0,0,0,.5-1.51A21.43,21.43,0,0,0,621,68.75a2.07,2.07,0,0,0-.36-1.54.88.88,0,0,0-.59-.31,5.91,5.91,0,0,0-2.26.52,17.66,17.66,0,0,0-5.15,2.92,44.23,44.23,0,0,0-5.9,5.29q-4.12,4.23-6.39,7a27.56,27.56,0,0,0-3.65,5.79l-1.1,1.92a4.51,4.51,0,0,1-.42,1.53,9.65,9.65,0,0,1-.94,1.93,38.41,38.41,0,0,0-2.17,8.82,27.16,27.16,0,0,0-.14,6,6.53,6.53,0,0,0,1.24,3.71,2.77,2.77,0,0,0,1.79.77,12.39,12.39,0,0,0,3.92-.32q2.39-.49,5.89-1.57a23.36,23.36,0,0,0,3.56-1.23,11.84,11.84,0,0,0,2.57-1.42,6.18,6.18,0,0,1,3.42-1.08,4.09,4.09,0,0,1,1.2-.17c.11,0,.16.08.17.21a3.28,3.28,0,0,1,0,.52,3.74,3.74,0,0,1-1.45,2.23,13.85,13.85,0,0,1-3.39,2.07,10.81,10.81,0,0,1-4,2,29.88,29.88,0,0,1-6.15,2.49,15.48,15.48,0,0,1-6.16.67,9.25,9.25,0,0,1-1.53-.34A16,16,0,0,1,589.33,114.72Z"/><path class="cls-2" d="M624.23,116.11a12.47,12.47,0,0,1-1.29-1.46q-2-3.2-1.52-5.43a2.68,2.68,0,0,1,.23-.75,2.44,2.44,0,0,0,.41-1c0-.36.08-.59.1-.7-.16-.24-.24-.4-.22-.48a.3.3,0,0,1,.2-.2.78.78,0,0,0,.28-.22c.31.06.47-.2.48-.79a6.54,6.54,0,0,1,1.16-2.6,19.75,19.75,0,0,1,2.7-3.49,37.48,37.48,0,0,1,3.18-3,22.75,22.75,0,0,1,3.58-2.56,18.21,18.21,0,0,1,3.77-1.71,12.7,12.7,0,0,1,3.44-.5,11.05,11.05,0,0,1,2.14,0,1.76,1.76,0,0,1,.9.46,7.37,7.37,0,0,1,.91,1.19,6,6,0,0,1,2.39,2.92,9.6,9.6,0,0,1-.09,4.58q-1,5-6.25,10a22,22,0,0,1-4.07,3.21,29.36,29.36,0,0,1-4.63,2.06,13.14,13.14,0,0,1-3.28,1.06,10,10,0,0,1-3.13,0A2.94,2.94,0,0,1,624.23,116.11Zm14.11-9.37a26.24,26.24,0,0,0,3-4.26,11.69,11.69,0,0,0,1-3.08c.31-1.53.28-2.44-.08-2.73a3.4,3.4,0,0,0-1.45-.69,5.66,5.66,0,0,0-3.83.82,21.35,21.35,0,0,0-4.92,3.92,54.72,54.72,0,0,0-5,6.22,7.49,7.49,0,0,0-1.41,3,2.87,2.87,0,0,0,.2,2,2,2,0,0,0,1.43,1q2.52.51,7.25-2.84A28.4,28.4,0,0,0,638.34,106.74Z"/><path class="cls-2" d="M679.16,126.68a9.51,9.51,0,0,1,.47-5l1.1-3.44a4.69,4.69,0,0,0,.26-1.31c0-.27-.1-.44-.3-.5-.64-.19-2.28.26-4.9,1.33a58.55,58.55,0,0,0-8.18,4.21c-.33.17-.77.44-1.34.79a6.17,6.17,0,0,1-1.46.71,1.93,1.93,0,0,1-1.08,0,2,2,0,0,1-1.11-.9l-.62-.92a1.45,1.45,0,0,1-.22-1.21l.35-.63,3.19-4.45q2.77-3.34,3.37-4.28c.4-.62.47-.93.2-1a6.08,6.08,0,0,0-2.08.16,385.42,385.42,0,0,1-3.06,1.31,9.82,9.82,0,0,1-1.77.74,31.41,31.41,0,0,1-4.33,2.56l-2.3,1.2a21.8,21.8,0,0,0-4.23,2.76,5.93,5.93,0,0,1-1.59,1,2.86,2.86,0,0,1-2.25-3.11,3,3,0,0,1,.12-1.52,29,29,0,0,1,2.36-4.7c1-1.57,1.51-2.55,1.68-2.93l.82-1.4a11.67,11.67,0,0,1,1.36-2.13q.92-1.2,3.06-3.75a11.26,11.26,0,0,0,1.68-2.94A2,2,0,0,1,659.48,96a2.34,2.34,0,0,1,1.66-.13,2.43,2.43,0,0,1,1.55,1.36,3.27,3.27,0,0,1,.11,2.4,6.77,6.77,0,0,1-1.38,2.46L660,103.91a42.24,42.24,0,0,0-2.67,3.42,24.87,24.87,0,0,0-1.81,2.69c0,.17.19.18.55,0s.8-.33,1.31-.56a15.68,15.68,0,0,1,2-.89,36.57,36.57,0,0,1,6.55-2.48,24.8,24.8,0,0,1,5.47-1.08,3.26,3.26,0,0,1,1.38.69,4.51,4.51,0,0,1,.82,1.22c.27.55.48,1,.62,1.21a2.75,2.75,0,0,1,.1,2.15,4.63,4.63,0,0,1-.44.93c-.41.65-.92,1.42-1.54,2.33l-1.35,2,2.33-1c1.12-.49,2.15-.94,3.09-1.38,3.07-1.21,5.32-1.61,6.77-1.18a3.34,3.34,0,0,1,2.2,2.44,2.93,2.93,0,0,1,.41,1.64,10.59,10.59,0,0,1-.41,2c-.24.8-.42,1.43-.56,1.88a13.46,13.46,0,0,1-.46,1.82c-.07.42-.23,1.21-.5,2.39a5.1,5.1,0,0,0-.24,2.05c.16.38.93.9,2.3,1.58.85.41,1.18,1,1,1.6-.13.45-.59.8-1.37,1.06a4.64,4.64,0,0,1-2.57-.1,6.92,6.92,0,0,1-2.33-1.18A4.35,4.35,0,0,1,679.16,126.68Z"/><path class="cls-2" d="M676.55,150.32a1.15,1.15,0,0,1-.68-1,2.26,2.26,0,0,1,.13-1.39,20.42,20.42,0,0,1,1.34-2.33,22.18,22.18,0,0,0,2.47-3.91,5.18,5.18,0,0,1,.56-1c.28-.43.52-.82.72-1.19a6.69,6.69,0,0,0,1.16-1.36,8.42,8.42,0,0,0,1-1.75,1.92,1.92,0,0,1,.59-.74,2.48,2.48,0,0,1,.91-.52,7.28,7.28,0,0,1,.75-1.27c.39-.55.65-.93.8-1.16a104.14,104.14,0,0,1,6.51-8.21q5.37-6.39,8.9-10.22a21.14,21.14,0,0,0,2.48-2.9,12.13,12.13,0,0,0,1.31-2.26,1.08,1.08,0,0,1,.4-.48,6.08,6.08,0,0,1,.89-.44,1.47,1.47,0,0,1,1.14-.14,1.64,1.64,0,0,1,.69.6c.21.31.41.65.61,1a10.15,10.15,0,0,1,.2,1.51,3.42,3.42,0,0,1-.24,1.34c-.06.15-.29.59-.69,1.33a4.85,4.85,0,0,1-1.65,2.26c-.69.48-1,.72-.87.71a15,15,0,0,1,6.41.76,6.39,6.39,0,0,1,4,3.84,8.16,8.16,0,0,1-.31,5.78,9.44,9.44,0,0,1-2,2.87,7.77,7.77,0,0,1-2.48,1.93c-.29-.12-.88.24-1.76,1.07a12.5,12.5,0,0,1-4.08,1.21c-1.79.28-2.93.2-3.44-.22a.56.56,0,0,0-.24,0c-.12,0-.21.11-.29.3s-1,.24-2.9.12a14.58,14.58,0,0,1-4.37-.8,6.09,6.09,0,0,1-1.26-.62,2.48,2.48,0,0,1-.69-.82,1.57,1.57,0,0,0-.88.75,12.24,12.24,0,0,1-1.87,2.63c-1,1.22-1.71,1.77-2,1.65a1.91,1.91,0,0,0-.3.22c-.13.12-.13.31,0,.59q-.09.21-.48,1a3,3,0,0,1-.85,1.09,10.54,10.54,0,0,1-.93,1.7,7.51,7.51,0,0,1-1.18,1.52,6.31,6.31,0,0,1-.93,1.61c-.39.49-.68.7-.87.62s-.76.63-1.27,1.94a6.17,6.17,0,0,1-1.85,2.56,2,2,0,0,1-1.93.42Zm23.83-20.12a16.14,16.14,0,0,0,5.48-.41,13.33,13.33,0,0,0,3.57-1.83,6,6,0,0,0,2.14-2.65,3.86,3.86,0,0,0,.18-2.37,2,2,0,0,0-1.42-1.49,8.4,8.4,0,0,0-3.85-.34,15.59,15.59,0,0,0-4.72,1.25,12.41,12.41,0,0,0-3.8,2.84,11.61,11.61,0,0,0-2.53,3.42c-.21.54-.17.86.12,1A19,19,0,0,0,700.38,130.2Z"/><path class="cls-2" d="M714.4,147.13a2.17,2.17,0,0,1-1.26-1.95,7.18,7.18,0,0,1,.8-3.43,21.14,21.14,0,0,1,2.15-3.58,11,11,0,0,0,2.14-2.64,37.47,37.47,0,0,1,3.69-4.22c1.9-2,3.07-3.15,3.53-3.52.19.09.42,0,.71-.24a2.61,2.61,0,0,0,.68-.93,4.37,4.37,0,0,1,.85-1.21,3.1,3.1,0,0,1,1-.72,3.42,3.42,0,0,1,.54-.7,3.24,3.24,0,0,0,.53-.71,1.83,1.83,0,0,1,.42-.45,1.94,1.94,0,0,0,.46-.52q2.13-1.69,8.51-8.14t6.75-7.3a1.11,1.11,0,0,1,1.66-.62,1.67,1.67,0,0,1,1.29.16l.62,1.66a2.54,2.54,0,0,1,.16,1.33,7.33,7.33,0,0,1-.59,1.66,5.83,5.83,0,0,1-1.13,1.73c-.42.44-1.39,1.29-2.88,2.56-.29.27-.66.57-1.1.92s-1,.78-1.55,1.32c-.2.19-1,.88-2.3,2a9,9,0,0,0-1.46,1.31,3.17,3.17,0,0,1-.69.76,15.6,15.6,0,0,0-1.13,1.17c-.73.59-1.94,1.65-3.65,3.2a26.61,26.61,0,0,0-2.69,2.61,1.72,1.72,0,0,1-.87,1c-.14-.07-.29,0-.43.19a2.24,2.24,0,0,0-.28.43,18.71,18.71,0,0,1-2.86,3.26l-1.58,1.78q-3.46,4-5,5.91a16.7,16.7,0,0,0-2.19,3.4,16.88,16.88,0,0,1-1.15,2.23,1.29,1.29,0,0,1-1,.51A2.74,2.74,0,0,1,714.4,147.13Z"/><path class="cls-2" d="M732.85,155a7.89,7.89,0,0,1-2.86-2.53,8.41,8.41,0,0,1-1.41-3.64,8.1,8.1,0,0,1,0-3.18,13.73,13.73,0,0,1,1.34-3.63c.24-.47.76-1.37,1.57-2.72a15.33,15.33,0,0,1,4.46-4.49,23.14,23.14,0,0,1,6.27-3.08,14.84,14.84,0,0,1,5.92-.79,4.38,4.38,0,0,1,2.37.34,7.14,7.14,0,0,1,.94.57l1,.67a9,9,0,0,1,2,1.79,4,4,0,0,1,.76,1.84,6.23,6.23,0,0,1-.35,4.93,9.3,9.3,0,0,1-4.11,2.73,16.33,16.33,0,0,1-6.3,1.17,10,10,0,0,1-3.06-1,6.77,6.77,0,0,1-3-2.69,3.79,3.79,0,0,0-.86-.71c-.42-.21-.87-.09-1.36.36A17.28,17.28,0,0,0,734,143.7a13.65,13.65,0,0,0-.79,1.36c-1.21,2.37-1.1,4.08.35,5.12a14.26,14.26,0,0,0,2.11,1.52,4.55,4.55,0,0,0,2.16.41l1.71-.09a3.49,3.49,0,0,0,1-.17l1-.31c.13,0,.35-.12.64-.24a1.9,1.9,0,0,1,.74-.15,1.41,1.41,0,0,1,.5.13,1.1,1.1,0,0,1,.46.64,7.1,7.1,0,0,0,.33.73c.41.22.35.55-.17,1a7.4,7.4,0,0,1-2.53,1.25,15.62,15.62,0,0,1-3.66.72A6.82,6.82,0,0,1,732.85,155Zm15.76-14.72a3.85,3.85,0,0,0,2.29-1.47,2,2,0,0,0,.1-1.72,2.85,2.85,0,0,0-1.45-1.44,4.64,4.64,0,0,0-1.32-.51,7.15,7.15,0,0,0-3.06.33,22.51,22.51,0,0,0-3.56,1.3c-1.07.5-1.58.86-1.51,1.07,0,.53.81,1.21,2.38,2a8,8,0,0,0,2.85.94A8.18,8.18,0,0,0,748.61,140.32Z"/><path class="cls-2" d="M764.38,173.59a3.67,3.67,0,0,1-.85-.78c-.3-.36-.59-.75-.89-1.17a21.18,21.18,0,0,1-2.31-5.4q-1.27-3.94-.79-4.76a.43.43,0,0,0,.09-.31c0-.07-.09-.14-.23-.22s0-.21-.07-.41a.88.88,0,0,1,.11-.57.72.72,0,0,0,.08-.59.76.76,0,0,0-.34-.49l-2.11.34c-1.08.18-2.22.43-3.43.74-2.29.58-3.84.95-4.66,1.1a2.56,2.56,0,0,1-1.69,0,3.63,3.63,0,0,1-1.34-1.94,2.64,2.64,0,0,1-.05-2.27,28.56,28.56,0,0,1,2.85-.9c1.49-.41,3-.77,4.58-1l6.81-1.69.79-3a49.58,49.58,0,0,1,.79-5.28c-.05-.52-.09-1-.1-1.29a1.63,1.63,0,0,1,.15-.78,2.84,2.84,0,0,1,1.14-.69,2.37,2.37,0,0,1,1.58-.06,2.3,2.3,0,0,1,.7,1c.35.21.47,1.31.36,3.27a10,10,0,0,1-.7,3.83c-.35.59-.32,1,.08,1.24a7.73,7.73,0,0,0,3.37.27c.76-.15,1.38-.3,1.86-.44l.93-.27c.77-.08,2-.19,3.59-.32a19,19,0,0,1,3-.11,1.29,1.29,0,0,1,.66.11,2.4,2.4,0,0,1,1,1.8,3.22,3.22,0,0,1-.34,2.25,2.22,2.22,0,0,1-1.17,1,7.7,7.7,0,0,1-2.46.18c-.33,0-1.33.15-3,.31s-3.81.46-6.44.9l-2.58.38v2.45c-.15,1.87-.06,3,.25,3.53a17.41,17.41,0,0,0,1.24,3.93,13.13,13.13,0,0,0,1.41,3,1.76,1.76,0,0,1,.48.65,5.7,5.7,0,0,0,.52.86,2.9,2.9,0,0,1-.28,2.29q-.65,1.08-1.44.6C764.83,174.41,764.45,174,764.38,173.59Z"/><path class="cls-2" d="M781.21,190.55a2.44,2.44,0,0,1-.13-1.05,1.64,1.64,0,0,1,.37-1.49q1.11-1.42,7.91-5.87,1.77-1.39,3.52-2.63a6.27,6.27,0,0,0,1.72-1.34,6.42,6.42,0,0,1,1-1,7.58,7.58,0,0,0,.85-.78c.49.38,1.6-.11,3.32-1.49.64-.49,1.2-.91,1.66-1.24s.8-.62,1-.83a5,5,0,0,0,.71-.35l.8-.46a26,26,0,0,1,3.38-1.94q2.9-2.22,6.3-4.49t5.22-3.24l2.18-1.29.83-.49a2.8,2.8,0,0,0,.81-.61.52.52,0,0,0,.11-.51.85.85,0,0,1,.17-.86c.42-.54,1.45-.86,3.11-1a6,6,0,0,1,2.2-.23,4,4,0,0,1,1.66.85l1.88,1.65q.69.63,3.89,3.12c.29.55.67,1.17,1.12,1.86.91,1.37,1.3,2.13,1.18,2.3a.56.56,0,0,0-.13.6,2.49,2.49,0,0,0,.51.69c.41.31.69,1.28.86,2.89a13.41,13.41,0,0,1-.24,4.44c-.22.88-.43,1.59-.62,2.14a6.4,6.4,0,0,1-1,1.68,9.13,9.13,0,0,1-1.27,1.39q-.9.9-1.8,1.68a3.23,3.23,0,0,1-1.34.85c-1,0-1.71.16-2,.53s-1.45.79-3.58,1.38a34.41,34.41,0,0,1-5.68,1.15,22,22,0,0,1-6.36.32q-9.83-2.34-12.61-4.72a15.09,15.09,0,0,0-2.81-1.34,2.05,2.05,0,0,0-1.47.5c-.63.38-1.25.78-1.89,1.22a6.13,6.13,0,0,0-1.14.9,56,56,0,0,0-5.18,3.31q-4.29,2.92-6.21,4.51a2.19,2.19,0,0,1-1.33.56,2.44,2.44,0,0,1-1.12-.58A1.49,1.49,0,0,1,781.21,190.55Zm23.71-11.81a15.48,15.48,0,0,0,2.31,1.4,17.23,17.23,0,0,0,3.14,1.24,30.38,30.38,0,0,0,6.79,1.4,23.89,23.89,0,0,0,3.3-.12,27.45,27.45,0,0,0,4.28-.74c.57-.23,1.81-.81,3.74-1.77a16.45,16.45,0,0,0,2.68-1.49,9.91,9.91,0,0,0,2.34-2,4.92,4.92,0,0,0,.51-.79,7.58,7.58,0,0,0,.7-4.27,8.54,8.54,0,0,0-1.58-4.26,16.24,16.24,0,0,0-2.15-2.06,13,13,0,0,0-2-1.25,3.84,3.84,0,0,0-2.12-.25,12.82,12.82,0,0,0-3,1.42,63.17,63.17,0,0,0-7.2,3.94,75.1,75.1,0,0,1-7.54,5.15l-3.75,2.16-.19.24a6,6,0,0,1-.64.7.79.79,0,0,0-.31.65C804.23,178.14,804.46,178.39,804.92,178.74Z"/><path class="cls-2" d="M813.58,207.69a2.35,2.35,0,0,1,.62-1,7,7,0,0,1,.85-.82,37.29,37.29,0,0,1,5-3.8l1.35-.9A43.79,43.79,0,0,1,829,196.9a48.7,48.7,0,0,1,8.74-3.6,2.52,2.52,0,0,1,1.25.6,2.31,2.31,0,0,1,.79,1.68,1.32,1.32,0,0,1-.44,1.18,7.14,7.14,0,0,1-2,1.32q-1.46.73-4.5,2c-.44.17-1.22.51-2.36,1a9.88,9.88,0,0,0-1.92,1c-.07.08-.09.13,0,.17a.51.51,0,0,0,.31.12,2.2,2.2,0,0,1,.37.07,17.39,17.39,0,0,1,5.82-.22,35.67,35.67,0,0,1,5.54.69,9.77,9.77,0,0,1,1.46.48,11.45,11.45,0,0,0,1.18.44,6.58,6.58,0,0,1,2.61,1.53,4.74,4.74,0,0,1,1.18,1.54,2.09,2.09,0,0,1,.12,1.54,1.38,1.38,0,0,0-.26.93,2.93,2.93,0,0,0,.11.63.32.32,0,0,1,.1.36.78.78,0,0,1-.13.25.64.64,0,0,1-.91.07,17.78,17.78,0,0,1-1.8-1.37,8.09,8.09,0,0,0-1.59-.92,13.86,13.86,0,0,0-1.91-.67q-4.92-1.08-7.45-1.48a22.59,22.59,0,0,0-5.79-.06,20.33,20.33,0,0,0-3.94,1,7.4,7.4,0,0,0-2.76,1.36,17.49,17.49,0,0,0-2.35,1.72l-.84.46a5,5,0,0,1-1.39.48c-1,.2-1.69.16-2-.12a3.14,3.14,0,0,1-.55-2.18A3.48,3.48,0,0,1,813.58,207.69Z"/><path class="cls-2" d="M834.28,230.39a12.51,12.51,0,0,1-.24-1.94q.19-3.75,1.83-5.33a3.42,3.42,0,0,1,.62-.49,2.31,2.31,0,0,0,.93-.62q.36-.4.48-.51A1,1,0,0,1,838,221a.34.34,0,0,1,.28-.05.86.86,0,0,0,.36,0c.22.22.49.1.84-.37A6.42,6.42,0,0,1,841.9,219a20.06,20.06,0,0,1,4.2-1.34,36.38,36.38,0,0,1,4.3-.62,21.33,21.33,0,0,1,4.4-.07,18.21,18.21,0,0,1,4.07.73,12.92,12.92,0,0,1,3.12,1.54,10.94,10.94,0,0,1,1.74,1.24,1.8,1.8,0,0,1,.48.9,8.26,8.26,0,0,1,.08,1.49,6,6,0,0,1,.3,3.76,9.48,9.48,0,0,1-2.67,3.72q-3.67,3.53-10.83,4.69a22,22,0,0,1-5.17.33,29.53,29.53,0,0,1-5-.93,13.39,13.39,0,0,1-3.29-1,9.9,9.9,0,0,1-2.56-1.8A3,3,0,0,1,834.28,230.39Zm16.93.3a25.87,25.87,0,0,0,4.93-1.78,11.47,11.47,0,0,0,2.59-1.94c1.13-1.09,1.62-1.86,1.48-2.3a3.44,3.44,0,0,0-.79-1.4,5.71,5.71,0,0,0-3.62-1.49,21.24,21.24,0,0,0-6.28.42,57.58,57.58,0,0,0-7.65,2.29,7.41,7.41,0,0,0-2.86,1.67,2.86,2.86,0,0,0-1,1.72,2,2,0,0,0,.61,1.64q1.77,1.86,7.58,1.78A28.22,28.22,0,0,0,851.21,230.69Z"/><path class="cls-2" d="M854.27,252.13a3.25,3.25,0,0,1,.44-1.43,2.92,2.92,0,0,1,.31-1.22,1.48,1.48,0,0,1,.58-.53c.4.48.71.69.94.64a.31.31,0,0,1,.41,0,1.07,1.07,0,0,1,.38.45q1.21,1.71,5.57,3.27a46.88,46.88,0,0,0,9.72,2.25,36.26,36.26,0,0,0,5.51-.47,6,6,0,0,0,2.62-1,2.71,2.71,0,0,0,.76-.93c.18-.35,0-.89-.62-1.61a9,9,0,0,0-4.52-2.73,44.35,44.35,0,0,0-6.42-1.66,24.19,24.19,0,0,0-5.55-.24,16.38,16.38,0,0,0-3,.42l-2.18.5c-.16.14-.55.07-1.18-.19a3.39,3.39,0,0,1-1.33-.86,2.93,2.93,0,0,1-.09-1.09,1.71,1.71,0,0,1,.47-1.15,3.72,3.72,0,0,0,0-.64,1.33,1.33,0,0,1,.06-.66,1.31,1.31,0,0,1,.35-.45,10.54,10.54,0,0,1,1.87-1c1-.47,1.76-.81,2.26-1q2.69-1.42,5.78-2.73a12,12,0,0,1,3.59-1.2l.89-.29a4,4,0,0,0,1.31-.74,10.94,10.94,0,0,1,1.56-.63,5.64,5.64,0,0,0,1-.41q.49.1,6.36-2a35,35,0,0,1,4.29-1.34c4.11-1.18,6.7-2,7.78-2.41a16.27,16.27,0,0,0,2.42-.39,4.41,4.41,0,0,1,2.12-.14,2.59,2.59,0,0,1,.84,1.38,3.24,3.24,0,0,1,.07,1.92,1.82,1.82,0,0,1-.35.8,5.16,5.16,0,0,1-1.39.59q-1.1.34-2.28.63t-1.77.45l-4.38,1.11q-4.77,1.23-8.31,2.45c-2.35.8-5,1.78-7.91,2.92l-3.85,1.38-1.57.8,2.69.3c.76.18,2.23.44,4.42.78l1.26.22c.36.07.65.12.87.14a18.53,18.53,0,0,1,2.83,1.19,18,18,0,0,1,2.32,1.32,14.23,14.23,0,0,1,2.49,2.39,4.51,4.51,0,0,1,1.14,2.6,8.17,8.17,0,0,1-.58,3.22,6.77,6.77,0,0,1-1.91,2.49,8.79,8.79,0,0,1-4.29,1.95,4.92,4.92,0,0,0-1.13-.08,1.56,1.56,0,0,0-.88.23,7.71,7.71,0,0,1-2.48.33c-1.37.06-2.8.07-4.27,0a29.53,29.53,0,0,1-6.67-1.4,29.87,29.87,0,0,1-5.74-2.37L856.63,255a17.65,17.65,0,0,0-1.44-1.18A5.4,5.4,0,0,1,854.27,252.13Z"/><path class="cls-2" d="M870.16,275.32A2.13,2.13,0,0,1,870,273a7.12,7.12,0,0,1,2.35-2.61,21.54,21.54,0,0,1,3.62-2.1,10.67,10.67,0,0,0,3.16-1.27,37.79,37.79,0,0,1,5.26-1.91q3.93-1.22,4.79-1.36c.13.16.37.21.74.13a2.75,2.75,0,0,0,1.05-.48,4.23,4.23,0,0,1,1.33-.65,3,3,0,0,1,1.2-.16,3.34,3.34,0,0,1,.81-.35,3.76,3.76,0,0,0,.8-.36,1.79,1.79,0,0,1,.59-.19,1.84,1.84,0,0,0,.65-.24c1.8-.3,5.59-1.29,11.39-3s8.94-2.73,9.44-3.11a1.11,1.11,0,0,1,1.75.26,1.68,1.68,0,0,1,1.06.77l-.27,1.75a2.53,2.53,0,0,1-.49,1.24,8.22,8.22,0,0,1-1.33,1.17,5.85,5.85,0,0,1-1.82,1c-.59.18-1.84.46-3.76.85-.39.09-.86.18-1.41.26s-1.22.23-2,.41c-.28.07-1.28.3-3,.68a9.14,9.14,0,0,0-1.92.44,3.22,3.22,0,0,1-1,.33c-.52.13-1,.29-1.55.47-.92.17-2.5.51-4.74,1a24.51,24.51,0,0,0-3.62,1,1.73,1.73,0,0,1-1.24.43c-.09-.12-.25-.14-.47,0a2.72,2.72,0,0,0-.45.24,18.82,18.82,0,0,1-4.08,1.47l-2.25.79c-3.32,1.22-5.72,2.15-7.21,2.77a16.74,16.74,0,0,0-3.56,1.9,15.18,15.18,0,0,1-2.09,1.4,1.24,1.24,0,0,1-1.08,0A2.63,2.63,0,0,1,870.16,275.32Z"/><path class="cls-2" d="M882.5,291.2a7.67,7.67,0,0,1-1.29-3.6,8.55,8.55,0,0,1,.52-3.87,8.31,8.31,0,0,1,1.52-2.8,13.91,13.91,0,0,1,2.93-2.53c.43-.29,1.33-.83,2.69-1.61A15.34,15.34,0,0,1,895,275a22.93,22.93,0,0,1,7,.34,14.78,14.78,0,0,1,5.57,2.18A4.28,4.28,0,0,1,909.4,279a7.31,7.31,0,0,1,.54.95c.16.33.33.68.52,1.05a9,9,0,0,1,.9,2.54,4,4,0,0,1-.22,2,6.33,6.33,0,0,1-2.69,4.16,9.53,9.53,0,0,1-4.93.39,16.42,16.42,0,0,1-6.08-2,10.15,10.15,0,0,1-2.17-2.39,6.77,6.77,0,0,1-1.32-3.81,3.81,3.81,0,0,0-.41-1,1.16,1.16,0,0,0-1.37-.35,17.06,17.06,0,0,0-3.23,1.37,11.51,11.51,0,0,0-1.35.81q-3.32,2.22-2.17,4.64a14.23,14.23,0,0,0,1.11,2.36,4.58,4.58,0,0,0,1.69,1.39l1.54.75a3.41,3.41,0,0,0,1,.36c.36.08.69.14,1,.19s.37.07.68.11a1.75,1.75,0,0,1,.72.22,1.47,1.47,0,0,1,.38.36,1.14,1.14,0,0,1,.1.78,6.07,6.07,0,0,0-.08.8c.26.39.05.65-.64.8a7.34,7.34,0,0,1-2.82-.12,15.93,15.93,0,0,1-3.55-1.14A6.79,6.79,0,0,1,882.5,291.2Zm20.91-5.26a3.87,3.87,0,0,0,2.71-.18,2,2,0,0,0,.91-1.45,2.81,2.81,0,0,0-.56-2,4.74,4.74,0,0,0-.91-1.08,7,7,0,0,0-2.83-1.2,23,23,0,0,0-3.75-.58c-1.18-.08-1.8,0-1.84.2-.25.48.12,1.45,1.11,2.92a8,8,0,0,0,2,2.2A8.14,8.14,0,0,0,903.41,285.94Z"/><path class="cls-2" d="M910.61,330.92a9.7,9.7,0,0,1,3.88-3.27l3.18-1.69a4.87,4.87,0,0,0,1.11-.75.45.45,0,0,0,.14-.56q-.49-.88-4.44-2.49a60.26,60.26,0,0,0-8.78-2.73c-.36-.1-.86-.22-1.51-.36a6.8,6.8,0,0,1-1.55-.52,2,2,0,0,1-.8-.72,2,2,0,0,1-.16-1.42l.2-1.09a1.37,1.37,0,0,1,.69-1l.69-.21,5.39-1q4.33-.45,5.4-.69c.72-.17,1-.35.82-.55a5.89,5.89,0,0,0-1.6-1.34,3.57,3.57,0,0,0-1.88-.73,3.84,3.84,0,0,0-1.22-.48,10.21,10.21,0,0,1-1.78-.71,30.71,30.71,0,0,1-4.88-1.2l-2.49-.76a22.6,22.6,0,0,0-4.95-1,6.1,6.1,0,0,1-1.84-.4,2.87,2.87,0,0,1,.58-3.8,3,3,0,0,1,1.15-1,28.08,28.08,0,0,1,5-1.7c1.78-.46,2.87-.77,3.26-.93l1.56-.42a11.82,11.82,0,0,1,2.46-.57c1-.14,2.6-.32,4.81-.54a11,11,0,0,0,3.26-.92,2,2,0,0,1,1.74-.17,2.35,2.35,0,0,1,1.27,1.08,2.4,2.4,0,0,1,.16,2.05,3.26,3.26,0,0,1-1.61,1.79,6.83,6.83,0,0,1-2.69.79l-2.27.28a36.62,36.62,0,0,0-4.3.57,23,23,0,0,0-3.18.65c-.11.12,0,.26.37.42s.79.33,1.31.52a14.47,14.47,0,0,1,2,.74,36.22,36.22,0,0,1,6.41,2.81,24.54,24.54,0,0,1,4.67,3.06,3.36,3.36,0,0,1,.5,1.46,5.06,5.06,0,0,1-.27,1.45c-.19.58-.32,1-.4,1.29a2.84,2.84,0,0,1-1.44,1.61,4.73,4.73,0,0,1-1,.35c-.74.18-1.65.37-2.72.59l-2.35.46c.45.16,1.25.46,2.39.9s2.19.83,3.16,1.18q4.57,1.9,5.67,3.89a3.38,3.38,0,0,1-.14,3.29,3,3,0,0,1-.85,1.45,10.4,10.4,0,0,1-1.67,1.11l-1.71.95a15.73,15.73,0,0,1-1.61,1c-.34.24-1,.7-2,1.35s-1.54,1.08-1.6,1.3a5.43,5.43,0,0,0,.53,2.73c.32.89.18,1.51-.41,1.84a1.9,1.9,0,0,1-1.73-.2,4.67,4.67,0,0,1-1.76-1.88,7,7,0,0,1-.84-2.47A4.48,4.48,0,0,1,910.61,330.92Z"/><path class="cls-2" d="M911.83,343.52a7.64,7.64,0,0,1,.95-2.4l.5-.22a.51.51,0,0,1,.56,0,2.31,2.31,0,0,1,.45.73,41.89,41.89,0,0,1,1.45,4,20.14,20.14,0,0,0,2,3.37c.85,1.21,1.48,1.81,1.88,1.8.07.14.12.21.17.18a2.28,2.28,0,0,0,.46-.89,2.22,2.22,0,0,1,0-.75,2.22,2.22,0,0,0,0-.75c.19-.09.34-.41.46-1a8.55,8.55,0,0,0,.18-1.79c.53-1.89.93-3.24,1.23-4.06s.58-1.2.88-1.17l.36-.16c-.15-.33.15-.91.9-1.73a7.32,7.32,0,0,1,2.33-1.78,9.84,9.84,0,0,1,4.07-.51,14.86,14.86,0,0,1,4.85.85,42.23,42.23,0,0,1,6.26,3.37,24,24,0,0,1,4.9,3.82,6.68,6.68,0,0,1,1.59,2.19,3.9,3.9,0,0,1,.37,2.14,8.4,8.4,0,0,1-.83,2.55,6.67,6.67,0,0,1-1.4,2,14.81,14.81,0,0,1-3.18,1.05c-1.07.23-1.71.13-1.9-.29a.6.6,0,0,0-.16-.18c-.1-.08-.24-.07-.43,0a1.64,1.64,0,0,1-.87.06,4.24,4.24,0,0,1-1.25-.38,5.32,5.32,0,0,1-2.3-2,1.05,1.05,0,0,1,.34-1.35,1.67,1.67,0,0,1,.3-.48.46.46,0,0,0,.13-.48c0-.05,0-.17.13-.36a1.31,1.31,0,0,1,.6-.49,1,1,0,0,1,.55,0,2.25,2.25,0,0,1,.43.11c.13.28.9.5,2.32.66a6.67,6.67,0,0,0,2.7,0c.28-.13.44-.24.45-.34a1.8,1.8,0,0,0-.23-.7c-3.34-2.94-5.63-4.67-6.9-5.18l-.71-.06a.5.5,0,0,1-.32-.33c.43-.19-1.76-.72-6.56-1.57a2.44,2.44,0,0,0-1,.06,5.78,5.78,0,0,0-1.29.37,6.69,6.69,0,0,0-.71.15,1,1,0,0,0-.46.51,4.26,4.26,0,0,0-.3.95c-.09.38-.19.76-.3,1.16a69.35,69.35,0,0,1-1.85,7A6.91,6.91,0,0,1,922,354a5.38,5.38,0,0,1-2.15,2.08,2.27,2.27,0,0,1-1.79,0,6.89,6.89,0,0,1-2.08-1.37,11.26,11.26,0,0,1-1.8-2.35,29.9,29.9,0,0,1-1.88-3.51,19.91,19.91,0,0,1-.82-2.2A10.49,10.49,0,0,1,911.83,343.52Z"/><path d="M499.55,335.43l-33.8,347.73H402q-.74-21.25-1.58-40t-2.29-35.87q-1.44-17.13-3.26-33.56t-4.11-33.57q-2.29-17.13-5.18-35.61T379.3,465.1q-4.59,27.06-12.8,81T346.7,680.74l-66.89,3.38L255.66,336.88l60.85-1.45q-.24,15-.24,32.6-.24,15.21-.24,34.89v77.64q0,18.1.12,35.62t.24,33.68q.12,16.18.61,29.46L350.08,369h55.78l26.32,200.42q.48-17.86,1.08-37.79t1.09-40.2q.48-20.3.85-40.09t.84-37.91q1-42.26,1.7-84.28Z"/><path d="M672,509.54q0,37.43-5.43,64.59t-14.37,46.24q-8.94,19.08-20.17,30.91a98.39,98.39,0,0,1-22.82,18.36,79.67,79.67,0,0,1-22.46,8.81,93.72,93.72,0,0,1-19.07,2.29l-49.51-4.1q3.15-49.26,4.83-99.13t1.7-100.57q0-38.4-1-76.07t-2.9-75.34q5.81-.48,11.35-.72c3.7-.16,7.33-.25,10.87-.25q40.08,0,65.2,13.65a98.86,98.86,0,0,1,39.24,38.15q14.13,24.51,19.32,58.44A496.11,496.11,0,0,1,672,509.54ZM622.71,503q0-11.83-.49-25.24t-2.05-26.68a207.51,207.51,0,0,0-4.71-25.84,119.49,119.49,0,0,0-8.21-23.06,66.62,66.62,0,0,0-12.43-18,41.34,41.34,0,0,0-17.75-10.63q-1.46,26.57-2.54,51.8t-1.81,49.87q-.72,24.63-1.09,48.89t-.36,48.66V605q0,16.31.48,33.2a34,34,0,0,0,19.32-8.45A61.54,61.54,0,0,0,605,611.56a115.5,115.5,0,0,0,9.17-24.87,250.27,250.27,0,0,0,5.44-28.49q1.92-14.62,2.54-28.86T622.71,503Z"/><path d="M820.24,588.26q0,19.08-4,33.44a94,94,0,0,1-10.38,24.63,69.9,69.9,0,0,1-14.37,16.91,74.24,74.24,0,0,1-16.3,10.5,72.66,72.66,0,0,1-15.94,5.43,66.21,66.21,0,0,1-13.16,1.57q-2.9,0-8-.36a107,107,0,0,1-11.59-1.57,145.91,145.91,0,0,1-14.37-3.5,113.6,113.6,0,0,1-16.54-6.4l2.66-60.85q14.24,12.08,25.47,16.18t19,4.1q15,0,22.58-10.86t7.61-28.26q0-11.58-5.68-26t-20.16-31q-9.9-11.58-20.53-24.14a213.47,213.47,0,0,1-19.31-26.81A152.51,152.51,0,0,1,693,450.62a110.2,110.2,0,0,1-5.55-35.5q0-24.15,6.64-41.78t17.75-29.22a71.32,71.32,0,0,1,25.48-17.26,81.18,81.18,0,0,1,30.06-5.68,111.11,111.11,0,0,1,28.13,3.75,132,132,0,0,1,28.86,11.47l-4.59,60.85a60.69,60.69,0,0,0-13.16-12.68,63.28,63.28,0,0,0-13.28-7.12,53.75,53.75,0,0,0-11.84-3.14,71.13,71.13,0,0,0-9.05-.73,24.88,24.88,0,0,0-12.92,3.51,33.2,33.2,0,0,0-10.14,9.41,47.35,47.35,0,0,0-6.64,14,59.19,59.19,0,0,0-2.42,17,52,52,0,0,0,5.92,24.88,133.17,133.17,0,0,0,14.85,22q8.94,10.86,19.2,22.34a186.11,186.11,0,0,1,19.2,25.83,147.3,147.3,0,0,1,14.85,32.84Q820.23,563.87,820.24,588.26Z"/><ellipse class="cls-3" cx="540" cy="739.37" rx="215.88" ry="23.71"/><path class="cls-2" d="M85,978.2l.84,7.22L87.15,979l10.32-45h6.78l10,45,1.28,6.56.94-7.45L124.37,934h8.11l-12.85,64.53h-7.31l-10.77-47-.66-3.81-.67,3.81-11.17,47H81.7L68.89,934H77Z"/><path class="cls-2" d="M164,998.54a17.49,17.49,0,0,1-1-5.23q-4.17,6.12-10.64,6.11t-10.17-3.65q-3.65-3.66-3.65-10.31,0-7.31,5-11.61T157,969.47h5.76v-5.1c0-2.87-.64-4.9-1.91-6.12s-3.21-1.81-5.81-1.81a8,8,0,0,0-5.76,2.1,7.09,7.09,0,0,0-2.21,5.34h-7.85a12.69,12.69,0,0,1,2.18-7,15,15,0,0,1,5.85-5.25,17.53,17.53,0,0,1,8.19-1.91q7.36,0,11.19,3.66T170.6,964v24.19a29.09,29.09,0,0,0,1.5,9.62v.71Zm-10.46-6.25a10.31,10.31,0,0,0,5.49-1.6,9.82,9.82,0,0,0,3.82-4V975.27h-4.44q-5.58.09-8.81,2.51a7.94,7.94,0,0,0-3.24,6.75q0,4.08,1.64,5.92T153.49,992.29Z"/><path class="cls-2" d="M193,939v11.61h7.22v6.33H193V986.7A8.08,8.08,0,0,0,194,991a3.48,3.48,0,0,0,3.19,1.47,9.75,9.75,0,0,0,3.15-.54l-.09,6.61a17.13,17.13,0,0,1-5.45.88,8.23,8.23,0,0,1-7.09-3.32q-2.44-3.33-2.44-9.39V956.92h-7.31v-6.33h7.31V939Z"/><path class="cls-2" d="M226.7,999.42q-9,0-13.74-5.34t-4.87-15.66v-5.81q0-10.73,4.67-16.82t13.05-6.09q8.43,0,12.59,5.36t4.26,16.71v5.14H215.89V978q0,7.71,2.9,11.21c1.94,2.34,4.72,3.5,8.35,3.5a13.46,13.46,0,0,0,6.1-1.31,15.13,15.13,0,0,0,4.94-4.14l4.08,5Q237.16,999.42,226.7,999.42Zm-.89-43c-3.25,0-5.65,1.11-7.22,3.34s-2.45,5.7-2.66,10.39h18.88v-1.06q-.31-6.83-2.46-9.75T225.81,956.44Z"/><path class="cls-2" d="M271.86,957.94a19.71,19.71,0,0,0-3.55-.31q-6,0-8.42,6.61v34.3h-7.84V950.59h7.62l.14,4.87q3.13-5.76,8.9-5.76a7,7,0,0,1,3.11.62Z"/><path class="cls-2" d="M287.06,950.59l.18,4.43a14.23,14.23,0,0,1,11.56-5.32q8,0,11.22,7a14.22,14.22,0,0,1,12.58-7q13.26,0,13.56,16.53v32.31h-7.8V967q0-5.22-1.86-7.77t-6.29-2.55a7,7,0,0,0-5.76,2.75,12.44,12.44,0,0,0-2.57,7v32.13H304V966.63q-.14-10-8.11-10-5.94,0-8.38,5.94v35.94h-7.8V950.59Z"/><path class="cls-2" d="M372.64,998.54a16.87,16.87,0,0,1-1-5.23q-4.17,6.12-10.64,6.11t-10.17-3.65q-3.66-3.66-3.66-10.31a14.59,14.59,0,0,1,5-11.61q5-4.29,13.6-4.38h5.76v-5.1c0-2.87-.63-4.9-1.9-6.12s-3.21-1.81-5.81-1.81a8,8,0,0,0-5.76,2.1,7.05,7.05,0,0,0-2.21,5.34H348a12.76,12.76,0,0,1,2.17-7,15.16,15.16,0,0,1,5.85-5.25,17.6,17.6,0,0,1,8.2-1.91q7.36,0,11.19,3.66T379.28,964v24.19a29.34,29.34,0,0,0,1.51,9.62v.71Zm-10.46-6.25a10.31,10.31,0,0,0,5.49-1.6,9.73,9.73,0,0,0,3.81-4V975.27h-4.43q-5.58.09-8.82,2.51a8,8,0,0,0-3.23,6.75c0,2.72.54,4.69,1.64,5.92S359.58,992.29,362.18,992.29Z"/><path class="cls-2" d="M398.83,950.59l.22,5.18a14,14,0,0,1,11.66-6.07q12.71,0,12.89,17v31.87h-7.8V967q0-5.62-1.88-8a6.79,6.79,0,0,0-5.65-2.37,8,8,0,0,0-5.25,2,14.12,14.12,0,0,0-3.75,5.1v34.83h-7.84V950.59Z"/><path class="cls-2" d="M434.68,998.54V934h17.06q11.31,0,18,7.18t6.84,19.68v10.46q0,12.72-6.71,20t-18.5,7.25Zm13-53.67v42.85h3.9q6.51,0,9.17-3.43t2.8-11.85V961.22c0-6-.85-10.23-2.53-12.6s-4.55-3.63-8.6-3.75Z"/><path class="cls-2" d="M504.7,999.42q-9.66,0-15.07-5.76t-5.4-16.48v-3.81q0-11.36,5-17.51t14.23-6.16q9,0,13.6,5.78t4.65,17.1v6.15H496.72q.27,5.34,2.35,7.81T505.5,989a14.09,14.09,0,0,0,10.5-4.3l4.92,7.58a16.18,16.18,0,0,1-6.69,5.16A22.9,22.9,0,0,1,504.7,999.42ZM496.81,970h12.54v-1.15a13.51,13.51,0,0,0-1.41-6.52c-.89-1.48-2.43-2.21-4.61-2.21a5.23,5.23,0,0,0-4.77,2.34Q497.08,964.82,496.81,970Z"/><path class="cls-2" d="M550,985.69a3.91,3.91,0,0,0-1.53-3,30.23,30.23,0,0,0-6.8-3.66c-5.17-2.09-8.72-4.27-10.66-6.51a12.42,12.42,0,0,1-2.9-8.38,13.38,13.38,0,0,1,4.54-10.39q4.54-4.09,12-4.1,7.89,0,12.63,4.08a13.68,13.68,0,0,1,4.75,10.94H549.5q0-5.85-4.87-5.85a4.35,4.35,0,0,0-4.56,4.7,3.65,3.65,0,0,0,1.41,2.82,31.59,31.59,0,0,0,6.7,3.48q7.67,2.83,10.83,6.31a12.9,12.9,0,0,1,3.17,9,12.61,12.61,0,0,1-4.83,10.32q-4.83,3.9-12.68,3.9a20.09,20.09,0,0,1-9.3-2.06,15.54,15.54,0,0,1-6.32-5.74,14.76,14.76,0,0,1-2.28-7.93h11.92a7.59,7.59,0,0,0,1.53,4.92q1.44,1.64,4.72,1.64Q550,990.25,550,985.69Z"/><path class="cls-2" d="M570,938.18a6.49,6.49,0,0,1,1.86-4.79,7.56,7.56,0,0,1,9.93,0,6.49,6.49,0,0,1,1.86,4.79,6.83,6.83,0,1,1-13.65,0Zm13.16,60.36H570.56V950.59h12.58Z"/><path class="cls-2" d="M591.34,973.1q0-11.79,4.25-17.59a13.94,13.94,0,0,1,11.93-5.81,11.53,11.53,0,0,1,10.06,5.14l.48-4.25h11.3v47.95q0,9.16-5.14,14t-14.75,4.86a24.3,24.3,0,0,1-8.29-1.58,15.28,15.28,0,0,1-6.47-4l4.21-8.68a13.22,13.22,0,0,0,4.61,3,14.11,14.11,0,0,0,5.36,1.18c2.81,0,4.82-.68,6.05-2s1.85-3.51,1.88-6.49v-4.12a11.22,11.22,0,0,1-9.35,4.69,13.61,13.61,0,0,1-11.85-6q-4.18-6-4.28-16.81Zm12.54,3.15q0,6.64,1.73,9.68a5.87,5.87,0,0,0,5.5,3,6.37,6.37,0,0,0,5.71-2.8V963.26a6.27,6.27,0,0,0-5.63-3.06,6,6,0,0,0-5.51,3.06q-1.8,3.06-1.8,9.84Z"/><path class="cls-2" d="M650,950.59l.36,4.74a13.29,13.29,0,0,1,11.12-5.63q12.36,0,12.72,17.33v31.51H661.58V968c0-2.72-.4-4.69-1.22-5.92s-2.23-1.84-4.27-1.84q-3.42,0-5.32,3.51v34.83H638.18V950.59Z"/><path class="cls-2" d="M713.74,982.23q0-4.83-2.61-7.4t-9.44-5a40.79,40.79,0,0,1-10.44-5.12,17.91,17.91,0,0,1-5.4-6.11,18.13,18.13,0,0,1,3.32-20.5q5.12-5,13.41-5a20,20,0,0,1,10.1,2.53,17.28,17.28,0,0,1,6.82,7.05,20.76,20.76,0,0,1,2.4,9.92h-8.16q0-6-2.88-9.27c-1.92-2.18-4.68-3.28-8.28-3.28-3.28,0-5.83.92-7.63,2.76s-2.7,4.41-2.7,7.72a9.06,9.06,0,0,0,2.92,6.84q2.93,2.75,9.05,4.93,9.53,3.15,13.62,7.76t4.1,12q0,7.85-5.09,12.57T703,999.42A22.32,22.32,0,0,1,692.58,997a18.57,18.57,0,0,1-7.49-6.91,19.22,19.22,0,0,1-2.72-10.21h8.15q0,6,3.35,9.3t9.1,3.33q5.37,0,8.07-2.75A10.22,10.22,0,0,0,713.74,982.23Z"/><path class="cls-2" d="M729.83,972.35q0-10.47,5.08-16.56a16.58,16.58,0,0,1,13.4-6.09,16.77,16.77,0,0,1,13.41,5.94q5.07,5.94,5.2,16.17v5.06q0,10.41-5,16.48a18,18,0,0,1-26.83.18q-5-5.89-5.21-15.95Zm7.85,4.52q0,7.39,2.9,11.63a9,9,0,0,0,7.82,4.23q10.36,0,10.68-15v-5.4c0-4.91-1-8.78-2.92-11.64a9.07,9.07,0,0,0-7.85-4.27,8.92,8.92,0,0,0-7.73,4.27q-2.91,4.29-2.9,11.59Z"/><path class="cls-2" d="M785.49,998.54h-7.84V930.47h7.84Z"/><path class="cls-2" d="M822.28,994.33q-3.9,5.1-11.39,5.09-6.52,0-9.84-4.49t-3.37-13.1V950.59h7.8v30.66q0,11.22,6.74,11.22,7.13,0,9.83-6.39V950.59h7.85v47.95h-7.45Z"/><path class="cls-2" d="M852,939v11.61h7.22v6.33H852V986.7a8.08,8.08,0,0,0,.93,4.3,3.47,3.47,0,0,0,3.19,1.47,9.84,9.84,0,0,0,3.15-.54l-.09,6.61a17.13,17.13,0,0,1-5.45.88,8.22,8.22,0,0,1-7.09-3.32q-2.45-3.33-2.44-9.39V956.92h-7.31v-6.33h7.31V939Z"/><path class="cls-2" d="M877.58,937.87a5,5,0,0,1-1.1,3.32,4.14,4.14,0,0,1-3.37,1.33,4.08,4.08,0,0,1-3.33-1.33,5,5,0,0,1-1.1-3.32,5.19,5.19,0,0,1,1.1-3.37,4.72,4.72,0,0,1,6.67,0A5.12,5.12,0,0,1,877.58,937.87ZM877,998.54h-7.84V950.59H877Z"/><path class="cls-2" d="M887.64,972.35q0-10.47,5.08-16.56a16.58,16.58,0,0,1,13.4-6.09,16.76,16.76,0,0,1,13.41,5.94q5.07,5.94,5.21,16.17v5.06q0,10.41-5.06,16.48a18,18,0,0,1-26.83.18q-5-5.89-5.21-15.95Zm7.85,4.52q0,7.39,2.9,11.63a9,9,0,0,0,7.82,4.23q10.38,0,10.68-15v-5.4c0-4.91-1-8.78-2.92-11.64a9.07,9.07,0,0,0-7.85-4.27,8.93,8.93,0,0,0-7.73,4.27q-2.89,4.29-2.9,11.59Z"/><path class="cls-2" d="M942.24,950.59l.22,5.18a14,14,0,0,1,11.66-6.07q12.72,0,12.9,17v31.87h-7.8V967q0-5.62-1.89-8a6.77,6.77,0,0,0-5.65-2.37,8,8,0,0,0-5.25,2,14,14,0,0,0-3.74,5.1v34.83h-7.85V950.59Z"/><path class="cls-2" d="M1002.07,986.26a5.8,5.8,0,0,0-1.91-4.34q-1.9-1.81-7.35-4.25a48.44,48.44,0,0,1-8.93-4.48A12.75,12.75,0,0,1,980,969a11.67,11.67,0,0,1-1.29-5.65,12.58,12.58,0,0,1,4.28-9.73,15.62,15.62,0,0,1,10.93-3.88c4.66,0,8.42,1.36,11.25,4.08a13.84,13.84,0,0,1,4.26,10.46h-7.8a7.74,7.74,0,0,0-2.17-5.52,7.33,7.33,0,0,0-5.54-2.28,7.73,7.73,0,0,0-5.43,1.79,6.14,6.14,0,0,0-2,4.79,5.19,5.19,0,0,0,1.45,3.84c.95,1,3.27,2.26,6.93,3.85q8.73,3.42,11.88,6.68a11.41,11.41,0,0,1,3.14,8.28,12.62,12.62,0,0,1-4.29,10q-4.3,3.75-11.53,3.75-7.49,0-12.14-4.29a14.21,14.21,0,0,1-4.65-10.91h7.88A9.41,9.41,0,0,0,1000,991,5.89,5.89,0,0,0,1002.07,986.26Z"/></svg>