<svg id="_3engineers2_Image" data-name="3engineers2 Image" xmlns="http://www.w3.org/2000/svg" viewBox="0 0 416.24 350.67"><defs><style>.cls-1{fill:none;}.cls-2{fill:#c1bdbd;}.cls-3{fill:#e7d1c2;}.cls-4{fill:#090505;}.cls-5{fill:#080808;}.cls-6{fill:#191615;}.cls-7{fill:#060606;}.cls-8{fill:#1a1a1a;}.cls-9{fill:#101010;}.cls-10{fill:#222121;}.cls-11{fill:#262525;}.cls-12{fill:#3a3939;}.cls-13{fill:#141414;}.cls-14{fill:#212121;}.cls-15{fill:#242424;}.cls-16{fill:#0d0d0d;}.cls-17{fill:#171615;}.cls-18{fill:#515151;}.cls-19{fill:#161413;}.cls-20{fill:#1f1212;}.cls-21{fill:#9b4b4b;}.cls-22{fill:#666;}.cls-23{fill:#f1f0f0;}.cls-24{fill:#9d4d4d;}.cls-25{fill:#121212;}.cls-26{fill:#c0bdbd;}.cls-27{fill:#2d2c2c;}.cls-28{fill:#1d1d1d;}.cls-29{fill:#383838;}.cls-30{fill:#555454;}.cls-31{fill:#414141;}.cls-32{fill:#2e2e2e;}.cls-33{fill:#2d2626;}.cls-34{fill:#9d5656;}.cls-35{fill:#a4a4a4;}.cls-36{fill:#2f2c2c;}.cls-37{fill:#373636;}.cls-38{fill:#e1cdbf;}.cls-39{fill:#b37676;}.cls-40{fill:#aeaeae;}.cls-41{fill:#965a5a;}.cls-42{fill:#767676;}.cls-43{fill:#434343;}.cls-44{fill:#292929;}.cls-45{fill:#bbb;}.cls-46{fill:#0b0b0b;}.cls-47{fill:#1b1a1a;}.cls-48{fill:#2c2b2b;}.cls-49{fill:#424141;}.cls-50{fill:#2b2a2a;}.cls-51{fill:#585757;}.cls-52{fill:#514f4f;}.cls-53{fill:#3f3b38;}.cls-54{fill:#363535;}.cls-55{fill:#a4a1a1;}.cls-56{fill:#656363;}.cls-57{fill:#f0f0f0;}.cls-58{fill:#6f6d6d;}.cls-59{fill:#444242;}.cls-60{fill:#7f7c7c;}.cls-61{fill:#8a8888;}.cls-62{fill:#7b7979;}.cls-63{fill:#868484;}.cls-64{fill:#5b5b5b;}.cls-65{fill:#070606;}.cls-66{fill:#0a0909;}.cls-67{fill:#151311;}.cls-68{fill:#9c4a49;}.cls-69{fill:#11100f;}.cls-70{fill:#272422;}.cls-71{fill:#f0eeee;}.cls-72{fill:#3b3531;}.cls-73{fill:#3c3632;}.cls-74{fill:#9d5956;}.cls-75{fill:#1c1917;}.cls-76{fill:#302b28;}.cls-77{fill:#3c3633;}.cls-78{fill:#292522;}.cls-79{fill:#f5f4f3;}.cls-80{fill:#534b46;}.cls-81{fill:#494340;}.cls-82{fill:#2b1f1e;}.cls-83{fill:#7a7470;}.cls-84{fill:#333231;}.cls-85{fill:#4e4742;}.cls-86{fill:#994646;}.cls-87{fill:#984545;}.cls-88{fill:#8e4545;}.cls-89{fill:#974545;}.cls-90{fill:#954444;}.cls-91{fill:#964646;}.cls-92{fill:#944444;}.cls-93{fill:#934545;}.cls-94{fill:#934242;}.cls-95{fill:#833b3b;}.cls-96{fill:#6f3838;}.cls-97{fill:#723939;}.cls-98{fill:#934f4f;}.cls-99{fill:#864d4d;}.cls-100{fill:#7f4343;}.cls-101{fill:#937575;}.cls-102{fill:#4c2323;}.cls-103{fill:#966161;}.cls-104{fill:#582828;}.cls-105{fill:#834747;}.cls-106{fill:#5f3636;}.cls-107{fill:#6a3838;}.cls-108{fill:#dac0c0;}.cls-109{fill:#834545;}.cls-110{fill:#502626;}.cls-111{fill:#6f4242;}.cls-112{fill:#e7e0e0;}.cls-113{fill:#bd9595;}.cls-114{fill:#655e59;}.cls-115{fill:#6b3030;}.cls-116{fill:#c0a0a0;}.cls-117{fill:#fefefe;}.cls-118{fill:#e2cfc1;}.cls-119{fill:#f6f6f6;}.cls-120{fill:#edecec;}.cls-121{fill:#746a64;}.cls-122{fill:#dfd8d8;}.cls-123{fill:#595959;}.cls-124{fill:#d2c4bc;}.cls-125{fill:#efedec;}.cls-126{fill:#cbb4b4;}.cls-127{fill:#a19187;}.cls-128{fill:#5f5f5f;}.cls-129{fill:#e3e2e2;}.cls-130{fill:#cec6c1;}.cls-131{fill:#6e6c6c;}.cls-132{fill:#efefef;}.cls-133{fill:#b1b1b1;}.cls-134{fill:#6d6d6d;}.cls-135{fill:#f5f5f5;}.cls-136{fill:#2b2b2b;}.cls-137{fill:#d7d7d7;}.cls-138{fill:#c6c6c6;}.cls-139{fill:#e5d7d7;}.cls-140{fill:#bfbcbc;}.cls-141{fill:#dad9d9;}.cls-142{fill:#e0e0e0;}.cls-143{fill:#f4f4f4;}.cls-144{fill:#bcb8b8;}.cls-145{fill:#bebaba;}.cls-146{fill:#bbb7b7;}.cls-147{fill:#aaa6a6;}.cls-148{fill:#bebbbb;}.cls-149{fill:#bab6b6;}.cls-150{fill:#565454;}.cls-151{fill:#a09d9d;}.cls-152{fill:#868383;}.cls-153{fill:#ada9a9;}.cls-154{fill:#5e5c5c;}.cls-155{fill:#9c9999;}.cls-156{fill:#7b7878;}.cls-157{fill:#737171;}.cls-158{fill:#474545;}.cls-159{fill:#8a8787;}.cls-160{fill:#454343;}.cls-161{fill:#a19e9e;}.cls-162{fill:#605e5e;}.cls-163{fill:#b9b5b5;}.cls-164{fill:#403f3f;}.cls-165{fill:#d7d1cd;}.cls-166{fill:#030303;}.cls-167{fill:#050505;}.cls-168{fill:#070707;}.cls-169{fill:#0c0c0c;}.cls-170{fill:#cfcfcf;}.cls-171{fill:#4d4641;}.cls-172{fill:#dfcabb;}.cls-173{fill:#0a0a0a;}.cls-174{fill:#090909;}.cls-175{fill:#111;}.cls-176{fill:#0e0e0e;}.cls-177{fill:#151515;}.cls-178{fill:#161616;}.cls-179{fill:#2a2a2a;}.cls-180{fill:#191919;}.cls-181{fill:#2d2d2d;}.cls-182{fill:#494949;}.cls-183{fill:#636161;}.cls-184{fill:#7e7c7c;}.cls-185{fill:#6c6a6a;}.cls-186{fill:#989595;}.cls-187{fill:#ececec;}.cls-188{fill:#e4e4e4;}.cls-189{fill:#dbdbdb;}.cls-190{fill:#dedede;}.cls-191{fill:#dcdcdc;}.cls-192{fill:#b9b9b9;}</style></defs><title>3engineers2</title><path class="cls-1" d="M208.12.06q103,0,206-.06c1.77,0,2.17.53,2.17,2.9q-.08,172.44,0,344.87c0,2.37-.4,2.9-2.17,2.9q-205.95-.1-411.9,0c-1.77,0-2.17-.53-2.17-2.9Q.08,175.33,0,2.9C0,.53.4,0,2.17,0Q105.15.11,208.12.06Z"/><path class="cls-2" d="M156.71,313.87a3.27,3.27,0,0,1-3-.45c-3-2.89-6.59-.95-9.91-1.1-.37,0-.77.62-1.15.95-.85-2.18.76-2.55,2.22-2.84a108.32,108.32,0,0,1,14.68-1.77c12.08-.63,24.16-.49,36.24-.07,1.67.06,3.25.63,4.91.56-12.44-1.13-24.91-1-37.39-.63-8.54.22-16.89,1.7-25.3,2.94-2.93.44-5.85-.34-8.8-.38-11.14-.14-22.21,1.5-33.35,1.25a59,59,0,0,1-16.08-2.72,7,7,0,0,1-2.56-1.17c-.4-.34-.85-.71-.64-1.29a1.28,1.28,0,0,1,1-.65,6.68,6.68,0,0,1,1.26-.09c6.09-.07,12.18,0,18.28-.26,3.66-.17,7.15,1.31,10.9,1.36,8,.12,16,0,24,.19-6.59-.13-13.19.06-19.78-.1-1-.39-2.43-.24-2.27-2,1.83-1.32,4.07-1,6.08-1.19,5.17-.57,10.36-1,15.55-1.51-9.66.93-19.32,1.72-29,2.7a162.77,162.77,0,0,1-28.27.41A9.24,9.24,0,0,1,66.49,301a4.31,4.31,0,0,1-.31-1.06,98.19,98.19,0,0,1-.28-28.22,114.6,114.6,0,0,0-.65,20.18c-.26.85-.06,2.09-1.59,1.81a4.09,4.09,0,0,1-.78-2.66c-.6-17.12-1.87-34.22-1.28-51.36.07-1.91-.4-3.76-.33-5.47-.3,2.23,1.28,4.89-1.25,7.1-1.15-16.22-1.5-32.47-2-47.37-.2,2.89.31,7.1.33,11.32,0,1.35.19,2.77-.91,3.87-1.5-1.88.06-4.32-1.14-6.26-.91-.67-.75-1.67-.75-2.59,0-5.66,0-11.32,0-17,0-2.3.72-3.17,3.16-3,6,.54,12,1.4,18.08,1.72a172.28,172.28,0,0,0,25.4-.14,120.54,120.54,0,0,1,19.47.09,54.43,54.43,0,0,0,9.38-.15c5-.42,10,.41,15,.68,4.6.25,9.2.38,13.8.43,1.78,0,3.54.38,5.32.32,3.86-.89,7.72,0,11.58.23-3.76-.28-7.5-.92-11.28-.47-1.06-.31-1.69-.92-1.45-2.12,1.07-1.42,2.65-1.07,4.07-1.08,7.66,0,15.33-.19,23,.61a18.12,18.12,0,0,1,3.53.24c3.95.83,7.94.17,11.9.41,1.39.09,3-.42,3.93,1.24-.4.89-1.22.82-2,.87-3.59,0-7.16.54-10.75.33-4.09.09-8.12,1-12.23.78-.39.3.32.52.05.2s-.1-.3.13-.29c4.07.15,8.1-.54,12.15-.67,4.17.19,8.31-.48,12.46-.36,2.43-.16,4.88-1.53,7.29.08.43.28.76.13,1.07-.23,1.69-2,4-1.91,6.35-2,16.6,0,33.13-1.61,49.74-1.48,9.51.08,19-.86,28.59-1.18,3.65-.13,7.31-.58,11-.51,3.85-.15,7.72.41,11.55-.38a22.8,22.8,0,0,1,4.13-.24c4,.08,8.1-.09,12.16.22,2,.15,2.86.92,2.72,2.87-1.12,11.39-3.25,22.62-5.12,33.9-2.75,16.56-5,33.19-5.4,50-.11,4.4-1,8.75-1.37,13.13-.46,2.34-1.16,4.64-.91,7.07,0,3.86-1.49,7.65-.55,11.55a5.7,5.7,0,0,1,.17,1.48c-.34,3.14-1.37,6.21-1.1,9.42,0,.32,0,.63-.08.95-.13,2.16-.73,3.21-3.44,3A60.29,60.29,0,0,0,308.89,312c-2.69,1.1-5.4.11-8.07,0-8.94-.46-17.88-.13-26.82-.23-13.57-.15-27.14,0-40.71.33q-23.81.52-47.62.95c-4.3.08-8.61.26-12.92.29h-8.52C161.73,313.61,159.16,312.77,156.71,313.87Z"/><path class="cls-3" d="M227.94,155.34c-.11,1,.71,2.35-1.1,2.64-1.9-1-2.1.79-2.55,1.72-2.2,4.52-3.16,9.54-5.66,13.93-1.56,2.76-2.48,6.1-6,7.23-4.72.2-9.44.07-14.15.08a5,5,0,0,1-3-.59c-.73-1.65.76-1.56,1.56-1.83,2-.67,4.06-.94,5.85-2.42a25.89,25.89,0,0,1-11.32,1.5c-2-.22-3.17.22-3.66,2.2-2.67.79-5.39.17-8.08.23-5.12.13-10.25,0-15.37.05-3.86-1.19-5-4.76-6.72-7.78-.41-.72.32-1.35,1-1.7,2.83-1.32.53-3.62,1-5.39a17.14,17.14,0,0,0-3-7.17,25.53,25.53,0,0,1-3.94-12.76c-.37-6.46-.42-12.93,1-19.38,1.05-4.81,1.79-9.62,4.5-13.85a41.56,41.56,0,0,1,10.51-21.31,4.15,4.15,0,0,1,2-1.38c5.64,2.24,11.69,2.44,17.57,3.46a4.7,4.7,0,0,1,2.44,1.35c1.1,1.1,2.08,2.58,3.74.62.47-.54,1.19-.17,1.75.13a3.49,3.49,0,0,0,2.76,0c2.15-.66,4.23-1.87,5.6,1.33.41,1,1.95.14,3,.24,4,.49,7.75,2.28,11.87,1.92a5.67,5.67,0,0,1,1,.18,15.44,15.44,0,0,0,6.93.05c3.09.82,3.23,2,.61,5-5,3.5-7.27,9-10.08,14,1.94-1.74,3.25-4,4.87-6,.7-.86,1.7-2.37,2.36.12a39.23,39.23,0,0,1-3.4,6.72c-.41.74-1.35,1.7,0,2.37s3,1.18,3.23,2.72a9.19,9.19,0,0,1-.68,5.2c-1.3,2.56-1.36,4,1.68,4.93a4.9,4.9,0,0,1,1.67,1.4c1.12,1,.31,2.95,2.36,4.35-1.29-3.27.19-5.36,1.61-7.48.41-.6.81-1.39,1.65-1.24,1.07.18,1,1.21,1.1,2,.41,6.22-1.74,11.72-4.91,16.91-1.76.17-1.36-1.09-1.29-2a9.67,9.67,0,0,0,.1-2.79,1,1,0,0,0-.62-.85c.3,1.8.45,3.52-.73,5a4.66,4.66,0,0,0-3.33,2.49c-2,2.94-3.6,6.1-6.22,9.48,2.62-3.08,3.94-6.16,6-8.76.83-1.09,1.85-2.5,2.75,0A3.54,3.54,0,0,0,227.94,155.34Z"/><path class="cls-4" d="M207.22,97.27c-1.77.13-4.51,2-3.87-2.21.09-.56-1.13-.72-1.17-.56-.75,2.58-3.26.44-4.67,1.85-1.23,1.23-1.36-1.34-2.51-1.6-1.19.45-.09,2.72-1.81,2.65-1.28-.05-1.62-1.5-2.49-2.21-.64-.53-1.23-1.11-1.85-1.67-1.62-.32-3.35-.51-3.52-2.73,0-1.89,1.82-2.69,2.54-4.08-.29.19.49.14.24-.2-.77.58-1.53,1.68-2.54.52a2.2,2.2,0,0,1,.18-2.89,69.59,69.59,0,0,1,5.16-5.43c.23-.3.62-.46.75-.88A6.67,6.67,0,0,0,189.74,79c-2.38,2.19-4.84,4.35-6.41,7.22-1.33,2.39-3.63,1.68-5.46,1.71-1.2,0-.92-1.53-.31-2.57-1.91.43-3.42,2.09-5.53,1.8A1.92,1.92,0,0,1,170.54,85c.27-3,1.26-5.72,4.49-7.7-1.38.56-2.23,1-3.25.81s-1.05-2-2.52-1-3.16,1.94-4.18,3.68a86.81,86.81,0,0,0-6.24,12.32,48.93,48.93,0,0,1-3.92,7.87c-1.07,1.73-1.58,3.3-.85,5.28a6.13,6.13,0,0,1,0,3.42,5.28,5.28,0,0,0,0,2.62c0,1.08-.45,1.93-1.65,1.77-1.91-.27-1.3-2.35-2.1-3.31A24.23,24.23,0,0,0,152,115c.59,1,1.29,2.47-.11,3.34s-2.27-.34-3-1.37c-.19-.24-.35-.51-.52-.77-.73-1-1.37-2-.89-3.31.82-2.32.08-4.76.47-7.11,1-3-.31-6.19.37-8.17-.44,2.25-.09,5.63-.47,9-.42,2,1,4.43-1.15,6.14-1.85-.51-.9-1.77-.77-2.82-.06-3.12.68-6.55-.4-9.26-1.17-2.92-.73-5.58-.83-8.37.73-.7-.13-1.89.9-2.66a2.58,2.58,0,0,1,.73,3.29c-.16-3.78,2.77-7.18,4-11.2a5.22,5.22,0,0,1,.89-1.66,8.62,8.62,0,0,1,3.7-2.72c2.46.56,2.8,1.23,1.07,2.77-2,1.77-3.34,4-5.12,6.62,1.55-1.3,1.93-3.62,3.9-2.76s.8,2.76.79,4.23a6.06,6.06,0,0,1-.66,2.33c1.78-2.67,3.14-5.52,4.93-8.11.18-.26.58-.51.48-.78-1.9-5.09,3.29-6,5.22-8.78a1.35,1.35,0,0,1,1.42-.53c4.12,1.57,6.55-1.48,9.41-3.37.31-.73.33-1.6,1-2.16a5.3,5.3,0,0,1,2.61-.84c1.15-.45,2.23-1.25,3.63-.68-.05,1.73-2.17.8-2.61,2,.61.58,1.38.08,2.06.27.77-.18,1.57-.51,2.2.32-.47,1.77-2.31,1.48-3.63,2.33,1.67-.12,2.76-1.35,4.19-1.4,1.73-.07,3.46.45,4.13,2.13s-.5,2.8-1.87,3.58c-4.13,2.31-7.87,5.21-12.4,7.85,4.35-2,7.4-5.1,11.17-7.07,3.57-1.87,6.9-4.65,11.41-2.9a2,2,0,0,0,1.52-.26c.69-.34,1.41-.81,1.31-1.61-.12-1-1.1-.77-1.79-.79-3.25-.1-6.52.17-9.77-.16-1.23-.12-2.82-.19-1.62-2.21,2.58-1.16,5.17-.71,7.77-.08a10,10,0,0,1,6.58,0c3.15,1.1,6.55.47,9.72-.83a23.16,23.16,0,0,1,3.33-.83c1-.27,1.76.64,2.72.58,1.85.45,3.69,1.11,5.64.46.46.14.79.37.63.93-1.92,1.52-1.92,1.52-.63,2.09,2.8,3.35,4.86,3.75,9.66,1.84,1.7-.68,1.8-.63,2.31,1L231,75.21c-.64,1.42-2.35,1.66-3.25,2.71.47,1.17,1.48.92,2.2,1.23,1,.3,2,.32,3,.53.76.17,1.21.9,1.95,1.11l1.85.79c.77,1.09,0,1.7-.69,2.37-4.22,3.54-9.61,5.32-13.45,9.14,1.09,0,2.49-.72,3.64.49-.34,3.52-3.29,1.91-4.84,2.56a7.18,7.18,0,0,1,2,0,1.36,1.36,0,0,1,1,.87,1.78,1.78,0,0,1-1,1.38c-.89.64-1.69,1.66-3,.83l-.64-.06a30.82,30.82,0,0,1-5.87-1.94C211.83,96.19,209.46,97.11,207.22,97.27Z"/><path class="cls-5" d="M120.15,86.34c5.83,2.61,7.47,7,5.15,13.48a13.31,13.31,0,0,1-3.38,5.26c-6.72,6.29-14.39,9.33-23.61,6.59-2-.6-3.14-.86-4.29,1.67-2.44,5.42-7.3,6.75-12.71,5.44-3.47-.84-5.69-.22-7.67,2.9-2.64,4.16-6.62,5.17-11.3,3.55-2.68-.92-5.71-2.75-8.06-2.15-2.09.54-3.44,3.88-5.17,5.94-5.67,6.74-12.63,9.45-21.37,7-7-2-10-6.92-7.91-13.92.56-1.86.19-2.45-1.32-3.37-7.45-4.59-8.47-15.89-2.12-22,2.06-2,4.77-1.91,7.37-2.37-2.8-4.21-1.45-11.54,2.54-14.5,2.26-1.67,4.87-.84,7.34-1,.79,0,1.78.62,2.18-1,1.41-5.53,4.33-7.74,10-7.76,4.77,0,9.43.57,13.61,3.17,2.54-6,5.37-7.82,11.88-7.74,3.58,0,7.19,0,10.51,1.6,1.09.54,1.44.15,1.84-.77,1.86-4.28,5.2-5.33,9.57-4.61A55,55,0,0,1,105.08,65c1.39.56,2.93,1.26,3.43,2.62.94,2.59,2.82,2.49,5,2.58,2.93.13,5.85.59,8.77,1,2.3.29,3.15,1.61,3,3.94C124.94,79.46,122.67,82.94,120.15,86.34Z"/><path class="cls-6" d="M171.19,84.76c-.09,1,.18,1.84,1.4,1.95.25,2.53,2.25,2.72,4.06,2.79A47.49,47.49,0,0,1,185.84,91a5.3,5.3,0,0,0,3,2.53c-6.17-.85-12.58-.6-18.27-3.79-2.76-.72-4.13,1.49-5.77,2.89-1.33,1.13-2.35,2.63-3.78,3.71-2.53,1.92-1.38,4.82-1.87,7.28-.28,1.37-1.26,2.57-1,4.07.4,1.34.57,2.73.87,4.09,0,.42.17.91,0,1.23-6.65,12.52-7,25.79-4.12,39.21.8,3.76,3.38,7.15,5.23,10.66.48.93,1.36,1.69.13,2.64-1.79,1.65-.19,3.94-1.09,5.76-.86.21-1.39.59-.7,1.5l5.1,6.67c.72.47.22,1.33.61,1.9l1.28,1.26a.9.9,0,0,1,0,1.28c-.19.44-.15,1.18-.9,1-10.94-2.08-22.1-2.08-33.1-2-9.7.06-19.39-1.2-29.09-.24-2.59.66-5.15,0-7.73-.15-.75,0-1.52-.35-1.39-1.3s1-.77,1.69-.8a4.25,4.25,0,0,0-2.29.36,8,8,0,0,1-3.34-.08c-2.69-.69-5.42-.27-8.14-.36-5.43-.19-10.87-.18-16.3-.41-4.31-.18-8.73.27-13.1.13-2.81-.09-5.63-.26-8.43-.52-.7.05-1.36,0-1.71-.73s.29-.91.64-1.25c3-.12,6.06-.34,9.08-.33,15.5.06,31-1.66,46.48-.23,2.09.68,4.31-.21,6.4.5l1.19.07c1.8.8,3.84-.22,6.42,1-4.12,1.52-7.58.3-11,.25-5.87-.64-11.78-.67-17.65-1.35v.46c5.29-.45,10.49.66,15.77.63a208.17,208.17,0,0,0,22.33,1.26c10.39.67,20.8,1.06,31.2,1.37,2.55.44,5.11,1.35,7.64,0-1.08-.52-2.29-.1-3.34-.58s-1.28-1-.1-1.66c1.26-.25,3-.22,1.36-2.23a17,17,0,0,1-1.41-3,14.68,14.68,0,0,1-2.64-9.14c.26-5.11-3.76-7.82-6.74-11.06a1.49,1.49,0,0,0-1.11-.47c-4.26.63-4.25-2.1-4.16-5.08a73.46,73.46,0,0,0-.92-12.56,16.1,16.1,0,0,1,.52-7.79c.63-1.73,1.69-3,3.79-2.36.55.16,1,1,1.63.41s.25-1.48-.13-2c-2.75-3.95-.59-8.51-1.63-12.67-.07-.28.37-.68.57-1,.17.86-.27,1.86.58,2.57.3.53.95.52,1.37.88-.31,1.15.7,1.6,1.23,2.31-.62,1.78.91,2.85,1.42,4.25a4.33,4.33,0,0,1-2,1.58c-.42.16-.68-.2-1-.31.28.49.76.82,1,1.32.15.23.28.48.41.73.25.5.5,1,.76,1.51.46.76.67,2,1.76,1.88s.94-1.36,1.18-2.19a15.45,15.45,0,0,0,.25-1.81,11.15,11.15,0,0,1,2.14-8,4.52,4.52,0,0,0,.47-5.29,5.92,5.92,0,0,1-.27-1.38c0-2.82.62-5.59.71-8.41a8.64,8.64,0,0,1,2.54-5.25c2.56-3,5.82-5.28,8-8.62C167.54,84.13,169.63,85.11,171.19,84.76Z"/><path class="cls-7" d="M363.9,69.5c15,3.84,27.09,11.13,35.18,25.27,8.78,15.35,8,30.69,3.09,46.5-1.87,6-6.52,10.23-11.73,13.64-14.75,9.65-30.76,12.34-47.66,7.53-13.84-3.94-28.1-6.5-41.5-11.86a180.18,180.18,0,0,1-20.79-9.83c-3.64-2-6.87-4.68-11.16-5.44a6.85,6.85,0,0,0-4.81.59A80.08,80.08,0,0,0,253,143c-1.73,1.37-2.83.07-3.73-.6-1.28-1-.2-2,.71-2.78.83-1.33,2.46.13,3.35-1a124.71,124.71,0,0,1,10.92-6.31c2-.94,3.84-.7,6-.18,7.87,1.88,13.74,7.51,21,10.64,9.2,4,18.29,7.87,28.11,10.09,10.76,2.43,21.12,6.53,32.06,8.23a49.74,49.74,0,0,0,32.57-6,55.22,55.22,0,0,0,7.93-5.12c8.15-6.56,9.83-15.81,10.84-25.33.56-5.25-.67-10.48-.71-15.73a5.28,5.28,0,0,0-.4-1.84C396.91,95.57,391,85,379.9,78.45c-4.43-2.61-9.61-3.66-14.36-5.65-1.23-.52-2.69-.71-3.29-2.18C362.25,69.44,362.74,69,363.9,69.5Z"/><path class="cls-8" d="M67.13,300.64a9.79,9.79,0,0,0,7.76,4.64c11.14,1.18,22.19.07,33.26-1.07,8-.84,16.07-1.5,24.12-2.16.92-.08,2.61-.65,2.68.62.09,1.61-1.71,1.05-2.72,1.14-7.41.72-14.83,1.38-22.24,2.05-2,.82-4.18.75-6.32.85,2.72-.1,5.49-.66,8.16.23,7.72.38,15.5-.52,23.17,1-10.58.53-21.28,1.33-31.67-.12-8.86-1.24-17.57.38-26.32-.65a39.72,39.72,0,0,0,17.7,4.1c6.41.06,12.83-.17,19.23-.49,7.46-.38,14.92-.26,22.37-.38,7-.11,14-1.79,21-2.36,15.23-1.24,30.47-.69,45.69.28.61,0,1.48,0,1.52.75.05,1.06-1,.95-1.64.91-4.08-.21-8.15-.62-12.23-.73-14.93-.44-29.86-.54-44.69,1.75-1.37.21-3.4-.23-3.28,2.26-3.6,1.57-7.41,1.22-11.18,1.21-.71,0-1.64.25-2-.55-.49-1.07,1.26-.78,1.33-1.82-7.26-.38-14.37.37-21.49.68a163,163,0,0,1-18.36,0l-2.45-.17c-5.36.11-10.25-1.69-14.91-4-2.12-1.07-4.48-1.74-6.34-3.32a7.38,7.38,0,0,1-1.65-2.37,2.91,2.91,0,0,1-.13-1.93A1.1,1.1,0,0,1,67.13,300.64Z"/><path class="cls-4" d="M227.36,103.59a9.07,9.07,0,0,0,1.59-1.9c.61-1.4.71-2.72-1.53-2.45a2.59,2.59,0,0,1-2.61,0c-.33-1.51,1.15-1.74,1.81-2.55.51-.46.34-1.16.58-1.71,1.19-1.19-1-.92-.75-1.7,1.37-2.76,5.76-4.88,9.06-4.38a.64.64,0,0,1,.16.89L235.46,91c-.86,2.25,1.73.94,2,2s-.38,1.51-.73,2.26c-.72,1.5-1.45,3.35-.18,4.7,2.47,2.6.8,4.68-.39,6.91-1.18,1.74-1.68,3.84-2.94,5.53a6.36,6.36,0,0,1-1.62,1.48c1.82,1.33,2.35,4.41,1.15,6.76-1,2-2.56,3.93-1.74,6.46a4.59,4.59,0,0,1,.07,1.77c-.67,1.93-2,3.56-2.62,5.51a1.24,1.24,0,0,1-1.07.69c-.69.28-1.68.66-1.78-.36-.16-1.6-.57-1.25-1.67-.73-1.58.75-2.35-.24-1.73-1.66a24.38,24.38,0,0,0,1.93-7c.21-1.8-.86-3.89-2.59-3.42-2.64.72-2-.58-1.34-1.83,1.43-2.78,3-5.49,4.48-8.23,1-.6.87-1.4.68-2.4A5.84,5.84,0,0,1,227.36,103.59Z"/><path class="cls-9" d="M253.2,139.44c-1,2.17-2.22-1-3.26.14,2.39-3.69,4.68-7.46,7.22-11a5.88,5.88,0,0,0,.86-3.87q-.19-15.93-.5-31.87A24.44,24.44,0,0,1,259,83.18c3.16-7.86,5.66-16.09,12.65-21.8a18.71,18.71,0,0,1,9.53-4.52c6.05-.78,12.1-1.57,18.15-2.29,4.62-.55,9,.72,13.29,2.13A182.44,182.44,0,0,0,342.26,64,131.62,131.62,0,0,1,363.9,69.5c-.77.09-1.32.4-1.35,1.28a2.41,2.41,0,0,1-2.66.33c-12.55-4-25.77-5.08-38.42-8.69-4.45-1.26-8.79-2.87-13.28-4a27.32,27.32,0,0,0-11.52-.76c-4.65.79-9.37,1.22-14.06,1.81-7.46.92-11.88,5.85-15.42,11.78a71.67,71.67,0,0,0-3.53,7.39,32.55,32.55,0,0,0-3.2,14.64c.32,9.34-.68,18.73.67,28,1,7-3.51,11.54-6.87,16.64C253.92,138.45,253.25,138.72,253.2,139.44Z"/><path class="cls-10" d="M67.13,300.64a1.68,1.68,0,0,0-1.53.92c-.68.12-1.32-.41-2-.07a9.06,9.06,0,0,0,.16,5.21,4,4,0,0,1-.19,2.42c-.3.46-.66.79-1.27.54-.72-1-.4-2.09-.46-3.15a10.76,10.76,0,0,1-.81-4.57,14,14,0,0,0-1.18-6.36c-.44-2.1-.34-4.09,1.29-5.73,1.26-3.84.22-7.8.47-11.69-.15,1.81.05,3.62.08,5.43-.77,1.45-1.61,1-2.4.06a3.62,3.62,0,0,1-.8-2.35c.1-6.17-.45-12.34.44-18.51a20.69,20.69,0,0,0-.12-7.19c0-15.51-.49-31-1.33-46.48.35-6.86-.6-13.75.21-20.6l.93,0,1.68,52.07h.58v-11l1.17,0c.32,21.37.8,42.73,1.83,64.07,1.12,1.52.65,3.67,2,5.09a6.93,6.93,0,0,0,1.06,1.3A.53.53,0,0,1,67.13,300.64Z"/><path class="cls-11" d="M172.48,312.81c18.9-.47,37.81-1,56.72-1.38,24.05-.51,48.11-.95,72.17-.15,2.52.08,5,.49,7.52.75.43,1.2-.14,1.49-1.22,1.43-35.65-1.83-71.29-.26-106.93.09a6,6,0,0,1-.94-.11c-8.76.47-17.54.1-26.3.19C172.94,313.64,172.45,313.53,172.48,312.81Z"/><path class="cls-12" d="M43.4,179.54c14.85-.41,29.7-.39,44.55-.06a7.72,7.72,0,0,1,1.76.49c-2.31,1.89-5,1-7.57,1-5.49,0-11-.38-16.46-.66,8.35.34,16.7.94,25.07.73a2.41,2.41,0,0,0,1.94-.85,11.68,11.68,0,0,1,4.63.12c-1,1-2.55-.11-3.66,1.23a32.14,32.14,0,0,0,8.77,1.15c-1.68.83-3.49.5-5.25.59-12.93.64-25.77-.61-38.58-2.1-2.06-.24-2.53.24-2.48,2.2.16,6.5.16,13,.23,19.5-1.14,17.1-1.16,34.24-1.73,51.38-1.66-1-1.34-2.42-1.32-3.68.19-14.83.4-29.66,1.32-44.46.47-7.47.22-14.94.54-22.4.1-2.31-.73-3.06-3.07-3.09A32.34,32.34,0,0,1,43.4,179.54Z"/><path class="cls-13" d="M331,297.54l-.15-1.28c-.36-4.5,1.17-8.8,1.36-13.24.82-5,1.52-10,2.26-14.94.22-1.47.34-2.93,1.41-4.08q4.23-21.69,8.48-43.36c.06-.28.35-.52.53-.77.37-.41.15-1.45,1.05-1.22.61.16.48.78.18,1.27-1.05,4.55-2.91,9.09-3,13.67-.38,16.34-5.46,31.88-7.43,47.93-.73,6-2,11.89-2.2,17.93-.88,2.09.12,4.35-.59,6.46a2.89,2.89,0,0,1-1.34,2.48,4.67,4.67,0,0,1-.65-3.58A14.55,14.55,0,0,0,331,297.54Z"/><path class="cls-14" d="M332.17,277.92a697.37,697.37,0,0,1,11.09-89.81c.46-2.45.14-5,1.09-7.37.24-.45.41-1,1.12-.66-.68,11.4-2.91,22.59-4.76,33.83a418.46,418.46,0,0,0-5.42,46.29,77.63,77.63,0,0,1-2.19,18.22C332.44,278.9,332.13,278.74,332.17,277.92Z"/><path class="cls-15" d="M193.26,27.05a16.25,16.25,0,0,1-2.51.06c-1-.14-2.25-.38-2.42-1.62s.88-1.78,1.87-2.21a4.07,4.07,0,0,0,1.17-.45c.91-.81,2.83-2.09,2.89-1.64.28,2.06,2.56,1.81,3.1,3.23.87,2.26-1.29,3-2.35,4.54.73.38,1.47.73,2.18,1.15,1.95,1.16,4.34,2,3.07,5.18-.19.49.44,1.32.69,2-2.51-1-5.38-.27-7.82-1.61a.56.56,0,0,1,.66-.46c-.38-.32-.68,0-1,.15-1.82.63-3.76-.36-5.55.44-2,.68-1.15,2.87-2.09,4.11-1.24-.09-2.6-1.06-3.57.62a2.41,2.41,0,0,0,.4,3.37c1.56,1.63,4.12.9,5.73,2.42-.61,1.79-2.27.86-3.4,1.3a16,16,0,0,1-1.8-.5c-2.16-.84-4-2.14-4.21-4.6s1.5-4.23,3.57-5.51c1.08-.67,2.67-.68,2.43-2.82-.11-1,1.58-1.14,2.6-1.14a43.57,43.57,0,0,1,10,1.06c.66.15,1.56.57,1.91-.33s-.58-1.25-1.16-1.59a11.63,11.63,0,0,0-6.54-1.88c-1.25.06-2.51.05-3.77,0-.73,0-1.57-.15-1.54-1.15s.9-1,1.61-1.17c1.94-.44,3.93,1,5.85-.17.22-.41.73-.61.81-1.12A1.45,1.45,0,0,1,193.26,27.05Z"/><path class="cls-16" d="M184.33,47.62c.66-1.4,2.57-.14,3.23-1.52a1,1,0,0,1,.29-1.05,2.88,2.88,0,0,1,1.21-1,2.21,2.21,0,0,1,1.79.72,1.42,1.42,0,0,1,.13.73c1.41.93,2.77-.44,4.15-.1,1.58-.31,3.37,1,4.78-.63a2.57,2.57,0,0,1,1.6-.56c1.47.55,2.18,1.95,2.86,3.1,2.42,4.1.59,7-5,7.64a47,47,0,0,1-8.8.11c-4.37-.29-5.56-1.84-5.33-6.36C185.28,48,184.46,48.13,184.33,47.62Z"/><path class="cls-17" d="M213.49,180.11c4.14-4.77,6.37-10.48,8.22-16.39.71-2.3,1.4-4.62,3.15-6.4a1.62,1.62,0,0,1,2.21-.44c.12.08-.14.72-.23,1.1-1.53.66-2,2.14-2.42,3.49-2,6.3-4,12.54-8,18.44a64.1,64.1,0,0,0,18.44-1.18c1-.1,2.08-.91,2.68.61-2,1.9-4.5,2-7,2.29-2.08.19-4.19-.25-6.27.23s-5.13-.63-5.41,3.11c0,.14-.7.22-1.08.33-1.18-4.68-4.36-.75-6.46-1.49a1.46,1.46,0,0,0-.31,0c-.66-.74-2.22.55-2.49-1.09l1.67-.17c-.1-1.51-1.28-.8-1.94-.83-4.58-.23-9.17.28-13.74-.29l-3.08-.12c-1.08-.47-3.08-.16-2.06-2.42,1.45-.41,2.61.63,4,.78,2.59,1.17,5.35.78,8,.74C205.38,180.3,209.45,180.76,213.49,180.11Z"/><path class="cls-7" d="M201.51,44.21a1.31,1.31,0,0,1-1.27.69c-.41.35-.93.71-1.41.53a8.83,8.83,0,0,0-6.08.08,2,2,0,0,1-2-.61l-1.87-.63c-1.43-.86-3.38-.84-4.29-2.57a1.77,1.77,0,0,1,.46-1.8c.49-1.58-1.33-4.17,2-4.51a11.43,11.43,0,0,1,6.22.15,2.31,2.31,0,0,0,2.85.18c1.65-1.06,3.12-2.16,3.21,1.17,0,.55,1.06.37,1.65.39.66.78,1.18,2,.52,2.57C199.66,41.46,200.78,42.78,201.51,44.21Z"/><path class="cls-18" d="M121.31,180.68c-7.52.36-14.92-.89-22.35-1.72.47-.86,1.5-.14,2.07-.73,3.11.67,6.25.44,9.65.42-1.78-1.06-3.75.21-5.2-1.08,15.61-.07,31.21.15,46.79,1.32,1.24.09,2.5,0,3.76,0,.73-.55,1.17-.4,1.29.54a.93.93,0,0,0-.26.15c-.09.11-.15.26-.23.38,1.58.42,3.42-.65,4.81.84-1.68,1.34-3.65.72-5.51.83-11.65-1.49-23.42-.81-35.11-1.77C120.79,179.81,121.67,180.23,121.31,180.68Z"/><path class="cls-19" d="M227.43,135a.36.36,0,0,1,.23-.38,36.19,36.19,0,0,1,3.72-4.77c.86-.81-.88-.28-.83-.92s0-1.26,0-1.89c1.85-1.28,3.17-.56,4.24,1.11a17.09,17.09,0,0,1,.56,10.47,42.19,42.19,0,0,1-7.4,16.71c-3,.69-2.74-1.13-2.41-3a7.15,7.15,0,0,0,2.32-2c.78.39,1.1-.12,1.37-.71,1-2.41,2-4.82,2.92-7.24,1.42-3.53,1.72-7.19,1.37-11.9-1.44,3.16-4.47,4.78-2.41,8.14.24.39.15,2.37-.93,2.23s-2.75-1.09-2.51-2.48C227.88,137.12,227.23,136.13,227.43,135Z"/><path class="cls-20" d="M177.5,67.09c-.52.62-.23,1.28-.09,1.92-4.49,1.75-9.35,2.14-13.88,3.81a40.32,40.32,0,0,0-8.18,3.88,19.67,19.67,0,0,0-2.23,1.49c-1.06.89-3.08,1.14-2.18,3.32-.8,4.53-4,8.14-5,12.68V89.94c-.63,1.1-1,1.72-1.32,2.33a20.33,20.33,0,0,1,8.14-17c5-4.68,11.4-5.93,17.68-7.54,1.44-.25,2.82-.7,4.24-1C175.69,66.52,176.68,66.18,177.5,67.09Z"/><path class="cls-21" d="M234.78,128.16a6.51,6.51,0,0,0-4.24-1.11c-1.78-2.51.06-4.63,1.35-6.16,1.65-2,.54-3.85.66-5.65s-1.57.39-2.78-.46c3.19-1.92,3.55-5.87,6.43-8,.93,3.62-.44,7.17-.34,10.77,0,2.07-1.45,4.78-.58,6.09C236.7,125.8,235.35,126.74,234.78,128.16Z"/><path class="cls-22" d="M274.75,175c8.66-1.26,17.39-.92,26-.38,10.06.62,20.11.68,30.17,1.09,3.42.14,6.9.11,10.25,1.11-4.16,1.45-8.44.52-12.66.53-1.38,0-2.7-.24-3.9.61a51.27,51.27,0,0,1-9,0c-4.6-1.45-9.38-1.28-14.11-1.49-6.92,0-13.83.07-20.73,0-2.7,0-5.34,1.34-8.07.27-.83-.62-.84-1.12.25-1.39C273.56,175.25,274.22,175.47,274.75,175Z"/><path class="cls-10" d="M59.76,304.64a186,186,0,0,1-4.49-33.33l.37,2.42c.21-.28.35-.38.35-.48.14-3-.67-6.07,1.12-8.87.45-.7.6-1.58,1.65-1.64.8,2.5,0,5-.13,7.46A79.36,79.36,0,0,0,59.29,288c.42,2.68.53,5.39.74,8.09a12.51,12.51,0,0,1,1.21,6.81C61.13,303.83,61.17,304.86,59.76,304.64Z"/><path class="cls-23" d="M59.46,296.09C58.12,287,56.8,277.87,58,268.6c.25-2,1.24-3.81.8-5.86l.06-7.14c.73,7.82.45,15.68.72,23.51.05,1.47.15,2.93.26,4.39,0,.56.32,1.08,1,1s.62-.74.62-1.27c1.66,2.37.71,4.92.51,7.41a4,4,0,0,0-1.37,4.18C60.14,295.19,60.84,296.49,59.46,296.09Z"/><path class="cls-24" d="M170.5,68.34c-6.1,1.79-12.24,3.49-17.71,6.92,6.26-9.14,18.3-11.7,27.12-9.32a3.58,3.58,0,0,1-2.41,1.15l-2.54.47A5.14,5.14,0,0,0,170.5,68.34Z"/><path class="cls-25" d="M59.19,149.72c-1.13-2.51,2.87-3.71,2.05-6.39,0-.05.12-.22.19-.22,2.58.1,5.17.09,7.72.44.61.08.23,1.12-.57,1.14-3.34.11-3,1.94-2.37,4.36.94,3.88,0,5.39-3.12,5.78S59.22,154.09,59.19,149.72Z"/><path class="cls-13" d="M58.06,141.35c.08,2.61-2.17,4.43-5.69,4.61a4.87,4.87,0,0,1-5.22-4.7c-.11-2.36,2.67-4.62,5.74-4.67C55.32,136.55,58,139,58.06,141.35Z"/><path class="cls-26" d="M67.52,304.65a70.5,70.5,0,0,0,21,8c-7.5,2-14-.31-19.8-4.9-1.56-1.25-1.72-.37-2.31.56C65.37,306.66,65.15,305.25,67.52,304.65Z"/><path class="cls-27" d="M274.75,175l-2.56,1.15a2.61,2.61,0,0,1-2,1c-9.64.9-19.32,1.38-28.89,3a6.39,6.39,0,0,1-3.1-.13,1.69,1.69,0,0,1-.84-.72c-.73-.78-1.74-.22-2.56-.57,5.21-1.63,10.66-1.58,16-2.2,4.35-.5,8.74-.65,13.11-.95,2.32-.65,4.74.17,7.06-.46Z"/><path class="cls-28" d="M76,153c.22-2.31.29-4.61,2.93-5.16,1.25-.26,3.37-1.22,2.66,1.93-.23,1,.92,2.25,1.32,3.43.61,1.77,1.07,3.55-1.5,4.25-2.89.78-4.84-.22-5.28-2.76C76.07,154.11,76.07,153.47,76,153Z"/><path class="cls-29" d="M346.16,219.92c-.34-1.74-.82,0-1.23,0,1-4.39,2-8.76,2.84-13.17.36-1.87,1.59-3.67.56-5.74-.21-.41.23-1.18.46-1.75s.53-1.61,1.43-1.34.72,1.15.55,1.9c-1,4.7-2,9.41-3.09,14.1C347.22,215.9,346.67,217.9,346.16,219.92Z"/><path class="cls-30" d="M324.65,177.53c.35-1.76,1.78-1.32,2.77-1.12,4.58.9,9.19.41,13.79.44,1.39-.17,2.91.76,4-1.16.7-1.21,1.3,0,1.51.8.15.55,2.12,1.24,0,1.72-1.14.25-.84,1.27-1.3,1.87l-1.12.66c.33-2-.27-2.68-2.47-2.56-4.06.22-8.13,0-12.2,0C328.08,177.29,326.23,178.46,324.65,177.53Z"/><path class="cls-31" d="M172.48,312.81c1,.9,2.18.5,3.28.51,8,.07,16,.09,24,.12-7.21.78-14.46.43-21.69.52-5,.06-10.07,0-15.11-.06-.21-.61.12-.89.65-1Z"/><path class="cls-32" d="M235.56,72.52c-.61-1.78-1.31-1-2.15-.14-2.74,2.75-6,.36-9,.62-.62.06.34-2.37-.86-3.3,3.35,2.2,7,.87,10.6,1C236.07,70.83,236.07,70.79,235.56,72.52Z"/><path class="cls-33" d="M195.6,67.27c-2.56,1.21-5.51-.61-8,1A2,2,0,0,1,185,68.2c-.54-.7-1.4-.35-2.06-.66A58.24,58.24,0,0,1,193.14,65C194.84,64.77,196.08,65.1,195.6,67.27Z"/><path class="cls-34" d="M235,80.79a3.19,3.19,0,0,1-2-.57c-.93-.69-1.86-1.38-3-.46-.31,0-.62,0-.93-.08-1-.2-2.4-.11-2.62-1.21-.26-1.34,1.07-1.77,2.17-2.16.85-.31,1.67-.73,2.51-1.1C232.7,76.82,235,78,235,80.79Z"/><path class="cls-35" d="M332.72,278.49c1.5-6,1.57-12.21,2.57-18.29.59,1.21-.44,2.68.63,3.8q-1.46,9.58-2.92,19.16a1.73,1.73,0,0,1-1.06-1.49A6.89,6.89,0,0,1,332.72,278.49Z"/><path class="cls-36" d="M217.91,67c-1.3.37-1.89-.68-2.68-1.34a26.42,26.42,0,0,1,8.14-1.76c1-.11,2.29-.18,2.63,1.06a2,2,0,0,1-1.78,2.67l-.64-.59A6.49,6.49,0,0,0,217.91,67Z"/><path class="cls-37" d="M67.52,304.65a3.92,3.92,0,0,0-1.15,3.67,5.71,5.71,0,0,1-.18,1.24c-.41,1.12-.28,2.89-1.86,2.9s-1.72-1.57-2-2.8l1-.93c.15-1,.9,2,1.09-.21s-.27-4.51,1.84-6.07C66.22,303.44,67.15,303.88,67.52,304.65Z"/><path class="cls-37" d="M59.46,296.09l1.06-1.31c1.92,3.74,1.58,7.74,1.33,11.73-.12-1.27-1.12-1.55-2.09-1.87,1.54-1.92,1.09-4,.29-6A4.08,4.08,0,0,1,59.46,296.09Z"/><path class="cls-38" d="M157.32,179.4l-1.29-.54a12.39,12.39,0,0,1,.67-5.19,17,17,0,0,1,3.48,5.58Z"/><path class="cls-39" d="M235.67,89.75a.64.64,0,0,1-.22-.54c-1.64-1.93-1.63-3.81.21-5.61a2,2,0,0,0,1.16-2C239.28,84.7,236.83,87.13,235.67,89.75Z"/><path class="cls-26" d="M90.93,312.83l18.36,0A56,56,0,0,1,90.93,312.83Z"/><path class="cls-40" d="M42.33,177.56l-.64,1.25H34.51l-.07-.93A25.1,25.1,0,0,1,42.33,177.56Z"/><path class="cls-41" d="M237.5,92.94c-.31,0-.63,0-.93,0-.84.12-1.83,1.32-2.44.15-.42-.82.65-1.56,1.33-2.16,1.11.42,1.28-2,2.39-.91C238.65,90.86,238,92,237.5,92.94Z"/><path class="cls-42" d="M163.65,312.86c-.22.35-.43.7-.65,1l-6.29,0c-.46-.89,0-1,.78-1C159.54,312.86,161.6,312.86,163.65,312.86Z"/><path class="cls-2" d="M331.69,304.5c0,1.29-.07,2.59-.1,3.89-.86.91-.6-.63-1.1-.5a4.63,4.63,0,0,0-.32-.42,7,7,0,0,1,.18-3.31c.12-.68.15-1.72,1-1.5S331.92,303.81,331.69,304.5Z"/><path class="cls-43" d="M391.13,218.31a1.1,1.1,0,0,1-1.24,1.06,1.16,1.16,0,0,1-1.24-1.39,1.18,1.18,0,0,1,1.25-1.1C390.79,216.9,391.12,217.48,391.13,218.31Z"/><path class="cls-22" d="M271,175.12c-2.3,1-4.69.64-7.06.46A18.87,18.87,0,0,1,271,175.12Z"/><path class="cls-44" d="M332.93,305.91c0-2.17-.7-4.41.59-6.46A18.78,18.78,0,0,1,332.93,305.91Z"/><path class="cls-18" d="M104.29,177.5c-2.17.21-4.33.49-6.4-.5A18.16,18.16,0,0,1,104.29,177.5Z"/><path class="cls-45" d="M193.26,27.05l2.46-2.92c.36,2.75-1,3.27-2.46,3.69Z"/><path class="cls-46" d="M223,271.68c-7.74,7.79-17.28,8.72-27.47,7.19l-1.54-.2c-1.08.31-1.91-.55-2.92-.61-2.65-.83-4.77-2.54-6.95-4.16-1.75-2.15-3.32-4.44-4.89-6.73a19.55,19.55,0,0,1-1.83-16.83c1.58-7.55,6-13.29,11.67-18.23.82-.71,1.67-1.79,3-.79a1.31,1.31,0,0,1-.16,1.28c-.6.8-.85,1.8-1.42,2.64a6,6,0,0,1-.87.95c-1.54,1.8-3.94,2.86-4.64,5.38a42.22,42.22,0,0,0-3.14,7c-.72,1,.29,1.61.55,2.39a2.91,2.91,0,0,1-.09,1.28,12.66,12.66,0,0,0-.93,5.73,35.76,35.76,0,0,0,5.46-3.55,2.16,2.16,0,0,1,2.18.62,1.94,1.94,0,0,1,.34.89,1.88,1.88,0,0,1-.8,1.63,19.92,19.92,0,0,0-5.88,5.71c2,.7,3.64-.45,5.33-.48,2.32-.05,2.71.67,1.57,2.93-.76.69-1.93.81-2.58,2,.92.87,2.09.49,3.13.61,1.29.15,3-.29,3.45,1.39.52,1.93-1.49,1.86-2.51,2.55-1.07,1.73.09,2.44,1.41,3.07,1.92.46,3.72,1.66,5.82.82a28.44,28.44,0,0,0,9-3.67,6.7,6.7,0,0,0,2.76-1.86c1.32-1.06,2.18-2.74,4-3.1a1.17,1.17,0,0,1,1,.73,2,2,0,0,1,0,.87,11.78,11.78,0,0,1-1.38,2.22c-1.83,1.71-4.14,2.75-6,4.39a7.3,7.3,0,0,1-.72.52,9.29,9.29,0,0,1-4.08,1.32,45.15,45.15,0,0,0,9.11-2c3-.94,6.08-1.56,8-4.41a11.28,11.28,0,0,1,.35-1.61,1.7,1.7,0,0,1,1.42-.79,2.77,2.77,0,0,1,2.05,2C223.73,271.25,223.25,271.37,223,271.68Z"/><path class="cls-27" d="M324.65,177.53c1.65.37,3.47-.58,5,.61l-3.69.1c-3.8.7-7.66-.19-11.45.46-18.67.78-37.33,1.87-56,1.94-11.43.05-22.82,1.6-34.28,1.22.27-.15.55-.45.8-.42,4.31.41,8.3-1,12.34-2.14a3.07,3.07,0,0,0,.26.25c5.9.47,11.68-.81,17.52-1.22,5-.35,10.06-.53,15.09-.48,10.6.11,21.18-.32,31.75-1.09a49.32,49.32,0,0,1,13.11.68Z"/><path class="cls-47" d="M192,231.83c-2.78-.25-4.1,2-5.47,3.63-3.71,4.34-7.3,8.85-8.38,14.73-1.28.55-1.16,1.79-1.37,2.84a55.4,55.4,0,0,1-1.74,7.33c-1,2.86.47,5.58.42,8.39-.17.64-.32,1.32-1.25,1.08-2.39-5-1.55-10.09-.41-15.19.44-.62-.12-1.45.45-2q1.91-4.71,3.82-9.4c.69-.57.6-1.44.83-2.19a19.27,19.27,0,0,1,2-3.1,24.71,24.71,0,0,1,2.18-2.4c3.31-3.4,7.6-5.76,10.38-9.74a3.08,3.08,0,0,1,2.19-1.62c.55-.31.79.05,1,.48a1.82,1.82,0,0,1-.45,1.17,2.83,2.83,0,0,0-.85,2.4c0,.23-.54.44-.26.6s.7-.07,1.08,0c.63.18,1.16.44,1,1.24A6.19,6.19,0,0,1,192,231.83Z"/><path class="cls-48" d="M72.47,188.15c25.14-1.28,50.24-3.1,75.75-2.28C146.51,187.09,83.53,189,72.47,188.15Z"/><path class="cls-49" d="M260.32,306.27c13.33-3.07,58-1.3,66.16,2.75-11.58-1.11-22.5-2.41-33.52-2.79S271.2,305.69,260.32,306.27Z"/><path class="cls-50" d="M213.46,271a1.86,1.86,0,0,1,1.24-1.87c2.74-1.92,6-3.38,6.55-7.28a3.28,3.28,0,0,1,1.63-1.61c2.14-.72,3-2.41,3.35-4.46a29.78,29.78,0,0,0,.23-7.12,11.06,11.06,0,0,1-.33-2c.12-.94.32-2,1.55-1.71s1.59,1.68,1.64,2.94c-.54,2.06.34,4.12,0,6.18l-.19,1.74a23.59,23.59,0,0,1-1,4.14,6.34,6.34,0,0,1-1,1.91c-2.07,1.8-3.47,4.25-5.72,5.87a38.49,38.49,0,0,1-4,2.8C216.12,271.05,214.92,272.2,213.46,271Z"/><path class="cls-37" d="M67,300.08c-.51,0-1,0-1.28-.56-1.43-2.41-1-5.11-1.19-7.71-.29-8.55,0-17.05,2-25.44C66,277.63,65.13,288.87,67,300.08Z"/><path class="cls-51" d="M174.26,252.61a2.27,2.27,0,0,1-.45,2c-.43-1.07-.84-2.14-1.28-3.2-4.67-11.22.34-25.52,11.3-31.32-.56,1.92-2,2.59-3.11,3.51C172.18,230.81,169.38,243.3,174.26,252.61Z"/><path class="cls-52" d="M229.36,254.08c-.23-2-2.09-3.78-.64-5.93a17.37,17.37,0,0,0-11.58-17.32c-1-.33-2.15-.39-2-1.88.27-.73.91-.83,1.56-.9C227.18,231.86,233.75,242.9,229.36,254.08Z"/><path class="cls-53" d="M189.5,178.81c-.3,1.53.94,1.88,1.89,2.46q-12-.84-24.08-.6c-1,0-2.32-.66-3.11.67-.71-.47-.54-1.22-.61-1.9,7.3,0,14.59.06,21.89,0,.92,0,2.12.73,2.74-.67A.93.93,0,0,1,189.5,178.81Z"/><path class="cls-54" d="M216.66,228.05c-.3.61-.89.68-1.47.79-2.05.58-3.79-.7-5.71-1a26.24,26.24,0,0,0-10.77.23c-1.14.29-2.39.92-3.55-.05-1.55-1.12-.53-1.8.42-2.49,5.75-1.84,11.49-2.15,17.19.22Z"/><path class="cls-54" d="M174.22,269.83c.6-.28.67-.86.78-1.41,1.05-.07,1.43.75,1.8,1.46,2,3.83,5.42,5.67,9.39,6.49,1.68.35,3.19,1.63,5.05,1.05,1.23-.29,1.83.81,2.74,1.25C187.6,280.18,176.73,277.12,174.22,269.83Z"/><path class="cls-55" d="M212.77,225.74a15.74,15.74,0,0,1-4.88-.44,22.25,22.25,0,0,0-9.87.43c-.82.21-1.73,1-2.44-.21l.78-.77c2.7-2.86,6-2.64,9.47-2,1.27.25,2.3,1.48,3.76.92A3.76,3.76,0,0,1,212.77,225.74Z"/><path class="cls-56" d="M179.39,241.35a2.08,2.08,0,0,1-1.31,1.86c-.35-1.06,1-3.73-2.49-2.18C180.2,237,180,230,185.5,226.72c-2.24,2.79-4.4,5.62-5.41,9.45l3-.65a5,5,0,0,1-1.61,2.76A2.6,2.6,0,0,0,179.39,241.35Z"/><path class="cls-57" d="M332.3,281.82l.7,1.34q-1,6.54-2.11,13.1c-1.37-4.12.17-8.08.63-12.1A1.88,1.88,0,0,1,332.3,281.82Z"/><path class="cls-54" d="M209.59,223.71c-.43.76-1.08.48-1.61.25a12.58,12.58,0,0,0-11.62.79l-.74-.59c3.5-2.89,7.35-3,11.41-1.42C207.88,223.07,208.58,223.81,209.59,223.71Z"/><path class="cls-44" d="M331.69,304.5l-.35-2c-.5,2.1-.84,3.52-1.17,5-.95-3.42.21-6.65.87-9.93C333.43,299.66,332.2,302.11,331.69,304.5Z"/><path class="cls-58" d="M227.57,259.77c.53-1.32,1.07-2.63,1.6-3.95a51.68,51.68,0,0,0,1.21,9.5c.25,1.44.75,3.07-.48,4.42l-.33-.32c-.66-1.52-.33-3.33-1.34-4.76C227.5,263.1,228.27,261.34,227.57,259.77Z"/><path class="cls-53" d="M194.47,181.39q8-.07,16-.12c.46,0,1.26-.17,1.16.57s-.85.8-1.52.67c-2.56-1.31-5.3-.4-8-.65S197,182.19,194.47,181.39Z"/><path class="cls-59" d="M208.48,182.68l2.49,1.09-13.22,0c-.25-.13-.32-.24-.23-.34a.35.35,0,0,1,.27-.14Z"/><path class="cls-60" d="M165.52,183.88l0-1.28c4,.16,8.08-.47,12.86,1a16.38,16.38,0,0,1-6.73,0C169.58,183.12,167.5,182.78,165.52,183.88Z"/><path class="cls-61" d="M197.79,183.33a1.56,1.56,0,0,0,0,.48,38,38,0,0,1-12.67.3C189.35,184.24,193.5,182.71,197.79,183.33Z"/><path class="cls-62" d="M111.83,306.94H103c2.28-.67,4.54-1.44,7-1.08Z"/><path class="cls-63" d="M64.51,291.81c.48,2.56,1.22,5.07,1.19,7.71-2-1.5-1.93-3.67-1.81-5.83Z"/><path class="cls-30" d="M314.54,178.7c3.78-1,7.62-.5,11.45-.46C322.2,179.11,318.36,178.74,314.54,178.7Z"/><path class="cls-58" d="M223,271.68l.55-.71a3.26,3.26,0,0,1,1.6-1.13c1.6-.16,3.18-1,4.79-.06l0,0C228,272,225.42,271.49,223,271.68Z"/><path class="cls-64" d="M332.3,281.82l-.78,2.34c-1-2.2.14-4.19.65-6.24l.55.57Z"/><path class="cls-65" d="M170,117.44l7.5,1.21a5.46,5.46,0,0,0,3.39-.11c.88-.42,2.31-1.74,2.59-.58s2.49,2.06,1,4.12c-.81,1.11.87,2.84,1.38,4.31.42,1.21,1.49,2.53-1.3,1.91-1.39-.31-2.88,1-3.84,2.23-1.1,1.47-1.48.5-1.79-.5a8.79,8.79,0,0,1-.14-1.56c-.59-4.62-.59-4.71-5.32-4.84-1.51,0-1.78-1.86-3.49-1.65-2.33.28-4,1.56-6,2.57-1.19.62-2.72,2.73-4,1.19s1.14-2.36,1.93-3.47C164,119.39,167.23,118.63,170,117.44Z"/><path class="cls-65" d="M214.68,133.39c-2,0-4-.49-5.89,1.12-.94.81-2.41.26-3.5-.53-1.48-.36-1-2.38-2.42-2.8-.67.11-1.38-.11-2,.23-.83.34-.42,2.2-1.83,1.66-1-.41-.43-1.42-.36-2.22,0-.38-.24-.78-.26-1.18-.26-3.68,1.11-5.43,4.67-5.44a9.2,9.2,0,0,0,3.29-.61c3.59-1.31,12.18,2,14,5.34a1.49,1.49,0,0,1,.2,1.15c-.33.6-.95.32-1.38.07a25.94,25.94,0,0,1-2.37-1.54c-2.28-1.6-4.44-2.93-7.47-1.3-1.33.72-3.26.32-5.9.5a19.35,19.35,0,0,0,9.16,3.6c1.87.24,3.77.33,5.64.64,1,.17,2.47.46,2.06,1.8s-1.57,0-2.39.05C216.84,133.72,215.62,134.36,214.68,133.39Z"/><path class="cls-66" d="M182.35,169.45c.21.55,1.45,1.06.89,1.35-1.1.58-2.71,1.11-3.72.7-1.33-.53-3.1-1.54-3.14-3.18,0-1.37,1.77-1.57,2.91-2A33.67,33.67,0,0,1,201.21,165a5.7,5.7,0,0,1,1.75.68c.89.62,2.4,1,1.91,2.49s-1.85.07-2.74.53c.23,1,2,.18,1.68,1.35s-1.41.52-2.16.53c-2.58,0-5.18-.85-7.73.2a1.34,1.34,0,0,1-.35-1.29,3.62,3.62,0,0,1,1.43-1.71c.44-.35.83-.69-.06-1-1.66-.56-3.27.1-4.91.2-2.6-.12-5,.76-7.52,1.3C181.26,168.52,182.21,169,182.35,169.45Z"/><path class="cls-67" d="M198.9,147.27c3.27.9,4.17,3.83,2.07,5.9a24.24,24.24,0,0,0-2.85,3.33c-1.19,1.69-2.45,1.71-4.31,1s-3.54-.86-4.57-2.79c-.74-1.4-2.15-.73-3.39-.61-3.75.36-6.12-3.21-4.41-7.28a30.13,30.13,0,0,0,.81,3.1c.47,1.22,1.15,2.2,2.74,2.16s3.58-1.38,4.72,1.06a2.94,2.94,0,0,0,1.92-.52c1.44-1.7,3.36-1.17,5.14-1.47.71-.12,1.68,1.24,2.2-.39C199.35,149.62,200.66,148.55,198.9,147.27Z"/><path class="cls-68" d="M158.55,103.8c-1.69-6.73,3.72-9.51,7.4-13.23.49-.51,1.5-.62,1.82-1.18,1.3-2.25,2-.81,2.81.34a48.27,48.27,0,0,0-11.14,19.62,21.42,21.42,0,0,0-.4,2.42l-1.68-3.68C157.58,106.61,158.73,105.39,158.55,103.8Z"/><path class="cls-69" d="M168,130.84c-1.81.88-3.63,1.86-5.43,0-.42-.43-1-.86-.69-1.59a1.1,1.1,0,0,1,1.35-.49c3.15.64,5.79-1.24,8.67-1.86,1.7-.36,3.79-1,4.72,0a4.63,4.63,0,0,1,.22,5.13c-.62.47-1.12.24-1.59-.25-.29-.42-.27-1-.58-1.4-.24.6.26,1.2,0,1.79-1,1.38-2.39.72-3.67.56-.48,0-1-.05-1.16-.64C170,130.66,169.54,130,168,130.84Z"/><path class="cls-70" d="M227.36,103.59c-1.9,5-1.91,5.18-.16,7.69-.67.9-1.76-.07-2.47.52-.09-1.62-.72-.43-.93-.13-1.62,2.21-3.18,4.45-4.77,6.68-.49.69-1.09,1.61-2,1.06s-.31-1.49.05-2.24C219.2,112.78,222.2,109,225,105A4.4,4.4,0,0,1,227.36,103.59Z"/><path class="cls-65" d="M189.5,178.81h-1.28c-.54-.16-1.13-.64-.94-1a2,2,0,0,1,2.29-1.24c3.06.93,6,0,9-.15,2.07-.13,3.93-.38,4.71-3.62,1.1,3,1.09,4.54-1.61,5.22a39.71,39.71,0,0,1-6.37,1.55,3.51,3.51,0,0,1-2.63.56A3.14,3.14,0,0,1,189.5,178.81Z"/><path class="cls-71" d="M182.35,169.45a4.93,4.93,0,0,1-2.91-1A28,28,0,0,1,190,166.27c1.26,1.79,3.71.31,5.07,1.83.12.84-.85.76-1.1,1.29-.61.83-1.3,1.43-2.38.7C188.49,169.84,185.38,170.27,182.35,169.45Z"/><path class="cls-72" d="M228.32,150.63c-.58,1.15-.84,2.81-2.79,1.67-.25-1.18-.67-1.08-1.23-.18-1.34,2.14-2.67,4.29-4,6.4-1.08,1.65-2.2,3.29-5.18,3.92,4.19-4.51,6.49-9.43,9.7-13.75,1.06-1.43,1.4-.45,1.92.34A2.16,2.16,0,0,1,228.32,150.63Z"/><path class="cls-73" d="M195.16,138.1c-2.19-4.76-1-9.77,2.56-12.21A31.66,31.66,0,0,0,195.16,138.1Z"/><path class="cls-74" d="M207.22,97.27c4.71-2.79,8.6-.23,12.55,1.91C215.38,99.89,211.41,97.84,207.22,97.27Z"/><path class="cls-75" d="M228.32,150.63c-.82-.25-1.53-.62-1.62-1.6-.13-1.72,1.45-3.56-.54-5.18-.6-.48.09-1.12.68-1.36,1.12-.47,1.78.09,2.13,1.12.69,2-.49,4,.25,6C229.33,150.3,229.27,150.85,228.32,150.63Z"/><path class="cls-76" d="M173,160c.23-4.23,2.57-6.51,4.72-8.87.39-.41,1-.91,1.59-.23.38.46.08,1-.26,1.4Z"/><path class="cls-53" d="M192.7,180.09a3.36,3.36,0,0,1,2.63-.56c2.56,1.18,5.27.45,7.9.55,3.42.13,6.84,0,10.26,0-.69.89-1.69.64-2.6.65q-7.8,0-15.6,0C194.39,180.73,193.39,181,192.7,180.09Z"/><path class="cls-77" d="M159.19,171.27c-1.22-1.65-.36-3.55-.57-5.33-.15-1.2,1.09-.23,1.66-.43.26,1.29.6,2.58.75,3.88S160.87,171.7,159.19,171.27Z"/><path class="cls-78" d="M192.15,128.78c-1.46.14-2.65.12-2.59-1.37s1.44-1,2.24-1c1.07,0,2.71-.31,2.61,1.38C194.32,129.28,192.73,128.54,192.15,128.78Z"/><path class="cls-79" d="M202.89,130.32c2.72,0,1.3,2.64,2.4,3.66-1.12,2.41-2.16,1.32-3.2-.07C202.29,132.7,201.7,131.31,202.89,130.32Z"/><path class="cls-80" d="M207.35,165.88a13.14,13.14,0,0,1-3-6.57C206.42,161,207.83,163.05,207.35,165.88Z"/><path class="cls-81" d="M214.68,133.39c1.13-.15,2.29-.42,3.24.54-1,1.44-2.31,2.35-4.19,1.74C213.48,134.65,215.5,134.63,214.68,133.39Z"/><path class="cls-82" d="M224.9,98.68c.69.86,1.67.4,2.52.56a8.34,8.34,0,0,1-7,0c1.31.48,1.44-1.37,2.54-1.28C223.52,98.42,224.48,97.82,224.9,98.68Z"/><path class="cls-83" d="M202.89,130.32c-.15,1.22.25,2.57-.8,3.59-1-.54-.07-2-1.25-2.5A2.53,2.53,0,0,1,202.89,130.32Z"/><path class="cls-84" d="M171,132.78c1.1-.5,3,.81,3.34-1.41a.86.86,0,0,1,1.16-.05,1.37,1.37,0,0,0,1.35.76C175,133.17,173.14,133.91,171,132.78Z"/><path class="cls-84" d="M168,130.84c.39-.63,1-.64,1.65-.66.78,0,1.69.09,1.83.86.25,1.3-1.52.06-1.65,1.1C169.18,131.8,169,130.72,168,130.84Z"/><path class="cls-85" d="M191.55,170.09l2.38-.7v1.34a2.41,2.41,0,0,1-2.61.42A8.82,8.82,0,0,1,191.55,170.09Z"/><path class="cls-86" d="M171.19,84.76a15.8,15.8,0,0,1-1,1.44c-2.48-1.39-3.07-.14-4.17,2-.8,1.59-3,2.85-4.55,4-4.22,3.17-5.4,7.1-4.93,12,.12,1.19-.47,2.45-.73,3.68-.78.68-.68,2.49-2.45,1.93.07-.62.37-1.36.15-1.86-1.74-3.92.43-6.88,2.2-10,2.87-5.12,4.66-10.74,7.66-15.85,2-3.35,4.66-5.21,7.87-6.92.08,2.72.08,2.72,5.2,1C174,78.67,171.57,81.11,171.19,84.76Z"/><path class="cls-87" d="M154.7,76.5c4.16-3.88,9.63-4.73,14.77-6.21,2.54-.74,5.18-1.59,7.94-1.28-2,2.57-5.31,3.23-7.77,5.15-.35.27-1.11.68-1.34,0-1.06-3-2.28-.9-3.22,0a44.3,44.3,0,0,0-4.33,4.55c-1.16,1.4-1.11,2.54,1.39,2.38-3.74,3-4.36,7.85-8,10.9.36-2.24.66-4.19,1-6.13.11-.67.07-1.32-.62-1.59s-1.12.32-1.48.84c-.18.25-.28.56-.47.81-.68.9-1,3-2.34,2.14-1.07-.69.35-2.24,1-3.22,1.35-1.94,2.28-4.25,4.62-5.37.44-.21.95-.71.69-1.26-.34-.71-1.08-.42-1.68-.38A.92.92,0,0,1,154.7,76.5Z"/><path class="cls-88" d="M185,68.2l2.54.07c1,1.28,2.32.66,3.51.69,2.83.06,5.68-.08,8.51,0,1,0,2.71-.81,2.8.83A3.37,3.37,0,0,1,200.2,73a3.74,3.74,0,0,1-2.15.32c-6.35-2-10.7,2.18-15.1,5.3a70.94,70.94,0,0,1-8.69,5.11,8.12,8.12,0,0,1,3.34-3.55c3.31-2,6.62-4.07,9.88-6.18,1.19-.78,3-1.86,1.74-3.39a3.48,3.48,0,0,0-4.51-.81,25.65,25.65,0,0,1-3.38,1.63c-.55.24-1.28.53-1.58-.33a1.21,1.21,0,0,1,.84-1.5C182.05,69.07,183.55,68.66,185,68.2Z"/><path class="cls-89" d="M185.84,91a1.47,1.47,0,0,1-1.69.47,31.41,31.41,0,0,0-8.31-1c-1.57,0-2.66-1-3.78-1.94-1.27-1.09.18-1.23.53-1.76l5.66-2.62c.47,1.42-1.41,2.33-.52,3.53,1.14.69,1.64-2.43,3.13-.29.41.61,1.24-.72,1.67-1.4a23.65,23.65,0,0,1,6.94-7.52c.77-.13,1.61-.45,2,.65-1.63,1.76-3.27,3.51-4.89,5.28-.65.69-1.5,1.56-.57,2.39s1.4-.42,2-.87a6.24,6.24,0,0,1,1.86-1.15Z"/><path class="cls-90" d="M197.37,91.86c-.71-6.93,4.65-9.11,9.63-12.08-.05,3,1.22,4.32,4.25,3.9-2.86,2.37-2.45,8.26-8.33,7.07-.06-1.38,1.07-2.2,1.56-3.32.36-.82,1.28-1.75.33-2.54s-1.91.12-2.71.77A17.39,17.39,0,0,0,197.37,91.86Z"/><path class="cls-91" d="M150.3,120.07c-1.9-1-2.44-2.48-1.24-4.41.31.55.58,1.11.94,1.63s.81,1.08,1.53.71.39-1.06.18-1.63c-.78-2.12-1.79-4.18-1.8-6.62,1,.8,1,2,1.48,2.87.31.56.56,1.21,1.37,1s.58-1,.66-1.58a3.24,3.24,0,0,1,2.73-2.59c1.21,1.5,1.67,2.76.1,4.58a11.52,11.52,0,0,0-2.64,8.56c-1.11,1.74-2.4,3-4.68,1.89l-.48-1.23C149.4,122.37,149.46,121,150.3,120.07Z"/><path class="cls-92" d="M235.66,83.6c-1.11,1.83-.54,3.73-.21,5.61a11.4,11.4,0,0,0-8.56,4.2.54.54,0,0,1-.85.16l-5.7.5C225.18,89.48,230.56,86.73,235.66,83.6Z"/><path class="cls-93" d="M219.73,73.26c-2,3-5.43,2.45-8.52,3.37,1.68-3,6.19-5.7,8.57-5.25C219.75,72,219.1,72.62,219.73,73.26Z"/><path class="cls-94" d="M216,77.35A9.85,9.85,0,0,1,210.42,82c-.92.35-1.91.33-2.32-.84a1.54,1.54,0,0,1,1.09-2.2C211.26,78.44,213.36,78,216,77.35Z"/><path class="cls-95" d="M147.25,106.19a33.57,33.57,0,0,1,1.44-12.81c-.19,4.11,1.35,8.2-.15,12.29a2.23,2.23,0,0,1-.17-2.52C147.25,103.76,149.16,105.76,147.25,106.19Z"/><path class="cls-96" d="M222.36,87.86c1.25-2.26,4.15-3.29,4.57-6.21.11-.82.89-.64,1.53-.52a23.69,23.69,0,0,1,4.48,1.08c-3.19-.76-4.67,1.68-6.68,3.14-1.24.91-2.28,2.21-3.93,2.48Z"/><path class="cls-97" d="M197.1,83c-1.7,2.39-4.11,4.29-4,7.62a1,1,0,0,1-1.22,1.1,3.9,3.9,0,0,1-1.73-.57c-.52-.39-.22-1,.17-1.34C192.6,87.57,194.26,84.73,197.1,83Z"/><path class="cls-98" d="M210.46,69a7,7,0,0,1-7.76,3.57C204.45,69,208.06,70.36,210.46,69Z"/><path class="cls-99" d="M226,93.57l.85-.16,2.7.23c-.07,1.47-1.82.78-2.19,1.82-1,1.42-2.46,1.12-3.84,1.19-1.54-.7-3.85,2.24-4.5-.42-.27-1.1,2.7-.3,4.06-.86C224.18,94.94,225.82,95.36,226,93.57Z"/><path class="cls-100" d="M218.24,69.22A4.8,4.8,0,0,1,215,71.37a1.8,1.8,0,0,1-1.87-1.71c0-1.47,1.37-1.32,2.38-1.28S217.56,68,218.24,69.22Z"/><path class="cls-101" d="M147.25,106.19c1.09-.83.13-2.24,1-3.39.09,1.1.17,2,.25,2.87-1,2.49,1,5.26-.71,7.68-.76.18-1.43.22-1.37-.88C148.12,110.55,146.39,108.21,147.25,106.19Z"/><path class="cls-102" d="M190.18,88.29c1.16-3.59,3.82-5.88,6.79-7.92Z"/><path class="cls-103" d="M217.91,67c1.46-2.1,3.86-1.06,5.78-1.56.95-.24,0,1-.11,1.6C221.67,69.27,219.8,67,217.91,67Z"/><path class="cls-104" d="M222.33,87.83c-1.86,2.17-4.36,2.82-7.1,2.91,1.8-2.33,4.93-1.5,7.13-2.88Z"/><path class="cls-105" d="M220.53,86.63c1-2.62,3.9-3.3,3.75-6.23C225.83,82.55,224.65,84.48,220.53,86.63Z"/><path class="cls-106" d="M199.32,80.41c.85-2,2.34-3.34,4.84-4.43A10,10,0,0,1,199.32,80.41Z"/><path class="cls-107" d="M228,74.05c-.29.61-.37,1-.53,1.08-1.42.28-1.92,2.17-3.53,2-.22,0-.58-.92-.53-1A10.26,10.26,0,0,1,228,74.05Z"/><path class="cls-108" d="M156.15,109.43,153.42,112a1.27,1.27,0,0,1-.07-2.11c1.64.4.55-2.66,2.45-1.93C155.92,108.46,156,109,156.15,109.43Z"/><path class="cls-109" d="M150.94,81.51c-.46-.17-1.77,1.76-1.35-.47a4.15,4.15,0,0,1,3.26-3.34c.41,1.29-1,1.69-1.27,2.66Z"/><path class="cls-110" d="M186.46,72.36c-1.21,1.66-2.79,2.74-5.53,3.72A10.87,10.87,0,0,1,186.46,72.36Z"/><path class="cls-111" d="M191.45,79.06l-2-.65a7,7,0,0,1,4.17-1.94A4,4,0,0,1,191.45,79.06Z"/><path class="cls-112" d="M229.91,79.76c.41-.56-.12-1.81.79-1.81,1.3,0,1.85,1.15,2.24,2.27C231.89,80.34,230.83,80.54,229.91,79.76Z"/><path class="cls-82" d="M223.56,96.65c1.11-1,2.62-.61,3.84-1.19.06.43.72.94-.15,1.26-1,.53-1.82,1.67-3.06.52Z"/><path class="cls-113" d="M151.58,80.36c-.08-1.13.91-1.74,1.27-2.66.57-.47.79-1.49,1.86-1.2,0,.44.06.87.1,1.31Z"/><path class="cls-114" d="M224.19,97.24c1.09.29,2-.37,3.06-.52-.36,1.17-1.54,1.34-2.35,2-.68-.16-1.51.09-2-.72Z"/><path class="cls-115" d="M152.47,92c-.92-.29-.83-.87-.82-1.35a1.82,1.82,0,0,1,1-1.68A3.62,3.62,0,0,1,152.47,92Z"/><path class="cls-116" d="M219.73,73.26c-.51-.19-1.45.28-1.49-.6s.93-1,1.54-1.27C221,72,220.85,72.66,219.73,73.26Z"/><path class="cls-117" d="M33.09,80.86c.86.12,2.52.37,4.19.55s2.38-.39,1.49-2.17c-1.38-2.78-.83-4.21,2-5.79,4.23-2.35,13.54-1.31,17.73,2,2.32,1.82,2.79,1.66,3.32-1.15.8-4.25,3.52-6.71,7.79-6.66,4.48,0,9.08-.46,13.08,2.49,1.24.92,2,0,2.51-1.33,1.94-5,2.71-5.45,8-4.85a43.67,43.67,0,0,1,9.47,2.38c2.73,1,5,2.18,5.06,5.61,0,1.34.71,1.66,2.14,1.07,4.11-1.7,8.23-.15,12.32.41,1.3.17.93,1.48.8,2.37-.53,3.56-2.39,6.45-4.65,9.16-2.1,2.53-1.91,3.07,1.21,3.8,3.78.89,4.2,1.64,4.33,5.7a12.66,12.66,0,0,1-5,10.71c-.75.62-1.39,1.69-2.68.8-.82-.56-1.42.16-1.86.7-3.21,3.94-7.42,4.36-12,3.48a14,14,0,0,1-1.87-.27c-4-1.37-7.32-2.18-9.06,3.45-1,3.24-4.44,4.09-8,3.59-2.49-.37-5-.4-7.38-1.46-1.29-.58-1.84-.16-2.19,1.22-1.4,5.58-5.26,7.92-10.7,6.49-2.94-.77-6-1.34-8.65-2.88-1.42-.82-2.13-.39-2.65.95-1.41,3.66-4.13,6.32-6.91,8.89a16.58,16.58,0,0,1-19,2.92A7.32,7.32,0,0,1,24,120.58c1-.88.92-1.63-.27-2.14-.86-.37-1.84-.44-2.7-.82-7.39-3.26-9.14-13.51-3.3-19.27,2-2,4.68-1.59,7.14-1.9,1-.13,2.27.16,2.66-1.16.33-1.1-.56-1.86-1.33-2.3-3.21-1.87-2.57-4.34-1.37-7,1.28-2.88,2.49-5.74,6.51-5.08C31.63,80.91,32,80.86,33.09,80.86Z"/><path class="cls-118" d="M144,144.69c-.35-4.69-1.45-9.32-1.27-14.06.06-1.55-.06-3.44,1.67-4.09,1.56-.6,2.76,1,4.17,1.46,4.1,1.26,3.31,4.53,3.15,7.47a65.53,65.53,0,0,0,1.41,16.88,19,19,0,0,1,.37,4.11c-1.19-2.08-3.73-2.38-5-4.19-1.65-6,.25-11.69,1.41-17.44a2.89,2.89,0,0,0-1.08-3.34c-.89-.61-1.89-1.63-2.94-.13-1,3.25.77,6.41.32,9.65-.22,1.54.23,3.15-.48,4.64C144.23,146.89,144.58,145,144,144.69Z"/><path class="cls-119" d="M121.31,180.68c-1-.91-2.47,0-3.91-1.45,13.23,0,25.92.12,38.58,1.53,0,1.68-.07,1.72-2.6,1.29C142.67,182.09,132,181.32,121.31,180.68Z"/><path class="cls-120" d="M92.69,180.17c.41,1.48-.33,1.75-1.64,1.78-9.13.22-18.18-.81-27.25-2H89.71Z"/><path class="cls-121" d="M145.34,130.21c1.65-1.69,2.77-.13,3.95.7s2.22,2.25,1.51,3.77c-1.46,3.16-1.14,6.55-1.63,9.83-.3,2.05-1.75,4.06.34,6.08.57.55-.69,1.09-1.06,1.68-1.24-1.21-3.15-.13-4.39-1.3.59-.93,2.68-.19,2.36-2.14,0-2.73-.92-5.41-.31-8.15,1.25.06,1.91-.27,1.61-1.78a9.56,9.56,0,0,1,.43-3.1c.29-2-.11-3.56-2.05-4.47A2.17,2.17,0,0,1,145.34,130.21Z"/><path class="cls-122" d="M148.93,124.46c1.82,0,3.25-.92,4.68-1.89q-.45,2.61-.89,5.2C150.27,128,149.24,126.61,148.93,124.46Z"/><path class="cls-123" d="M101,178.23c-.51.75-1.37.52-2.07.73L83,178C89,177,95,178.12,101,178.23Z"/><path class="cls-124" d="M153.38,182.05c.79-.58,2.36.42,2.6-1.29h5.66c.32.72,1.64,1.84-.45,1.79C158.59,182.5,156,182.77,153.38,182.05Z"/><path class="cls-125" d="M147.16,149.71c.32.48,1,1.06-.28,1.13l-2.82.13q0-3.14-.07-6.28l1.36,1.26C147.16,146.63,146,148.74,147.16,149.71Z"/><path class="cls-4" d="M150.3,120.07c0,1.41.81,3.31-1.85,3.16v0a1.52,1.52,0,0,1-.08-1.83C148.46,120.18,149.31,120,150.3,120.07Z"/><path class="cls-126" d="M158.55,103.8c1.2,1.87-.31,3-1.19,4.29A5.23,5.23,0,0,1,158.55,103.8Z"/><path class="cls-127" d="M156.87,165.31c0-2-1.19-3.38-.63-5.09C157.59,161.59,157.54,163.11,156.87,165.31Z"/><path class="cls-128" d="M148.37,121.42c0,.61.06,1.22.08,1.83a7,7,0,0,1-1.92-4C148.26,119.26,147.55,120.92,148.37,121.42Z"/><path class="cls-117" d="M253.2,139.44c.73-3.45,3.09-6.06,4.95-8.83A9,9,0,0,0,260,125.2c-.16-10.94-.78-21.9-.35-32.82a41.78,41.78,0,0,1,13.89-30,13.18,13.18,0,0,1,7.3-3.44q9.22-1.24,18.47-2.39c4.3-.53,8.38.64,12.37,2A185.51,185.51,0,0,0,343,66.06c6.67,1,13,3.4,19.6,4.72,3.93,1.49,7.8,3.15,11.79,4.43,8.53,2.72,14.77,8.25,19.55,15.58,2.35,3.6,4.47,7.37,6.59,11.11a21.19,21.19,0,0,1,2.55,9.33c.53,8.53.84,17-1.54,25.35a28.09,28.09,0,0,1-12.12,16.32c-14.15,9.27-29.51,12.07-45.8,7.41-13.43-3.84-27.19-6.55-40.32-11.37a109.94,109.94,0,0,1-21.6-10.24c-4.17-2.68-8.79-4.06-12.9-6.58-1.08-.66-2,0-3,.34C261.2,134.1,257.65,137.58,253.2,139.44Z"/><path class="cls-129" d="M66.21,302.45c-1.37,2.49-.34,5.54-1.73,8-1.05-.25-.58-1.34-1.2-1.75-.08-.78-.15-1.56-.23-2.34-.08-2.08-.77-4.2.37-6.21,1-.05,1.26,1.21,2.18,1.38Z"/><path class="cls-117" d="M131.61,313.73a14.55,14.55,0,0,1,8.51-1A14.13,14.13,0,0,1,131.61,313.73Z"/><path class="cls-130" d="M230.55,128.94c.9.08,1.8-.67,3,.16-2.33,1.54-4,3.68-5.87,5.53C228.58,132.71,229,130.54,230.55,128.94Z"/><path class="cls-131" d="M61.89,290.6c-.17-2.47.15-5-.51-7.41a12.81,12.81,0,0,1,.43-5.82c.27,3.69.56,7.39.78,11.09C62.63,289.21,63,290.17,61.89,290.6Z"/><path class="cls-37" d="M63.42,300.18c-.64,2-.1,4.15-.37,6.21C62.41,304.28,61.81,302.16,63.42,300.18Z"/><path class="cls-132" d="M185,39.9c0,.56,0,1.12-.07,1.67-.32.88-1.25,1-1.85,1.54-.68.31-.72,1.64-1.88,1.19a3.94,3.94,0,0,1,2.33-6.17C185.29,37.78,184.13,39.67,185,39.9Z"/><path class="cls-133" d="M181.24,44.3c.9-.28.44-1.62,1.42-1.83a5.85,5.85,0,0,0,3.57,1.71c.69.06,2.07-.3,1.82,1.3l-.49.62A6.42,6.42,0,0,1,181.24,44.3Z"/><path class="cls-134" d="M193.24,35.54,187,35.39c0-1.18.79-.94,1.54-.88,2,.16,3.94.26,5.95.39-.14.21-.21.44-.35.48A5.53,5.53,0,0,1,193.24,35.54Z"/><path class="cls-135" d="M198.26,51.19c-2.06,2.47-4.66,2-7.33,1.4s-3.1-1.59-.81-3.32c2.24-.36,4.5-.76,6.75-.09C197.8,49.46,199.11,49.62,198.26,51.19Z"/><path class="cls-15" d="M188.05,45.48c-1.06-1-2.37-.37-3.56-.55-1.51-.24-2.32-.82-1.83-2.46l2.31-.9c.94,1.42,3.61.34,3.9,2.7C188.83,44.83,188.79,45.39,188.05,45.48Z"/><path class="cls-15" d="M190.74,44.9a7.29,7.29,0,0,0,4.09-.95c2-1.36,3.42,1.58,5.41.95-.13,1.15-.47,2-1.94,1.62a33.11,33.11,0,0,0-3.32-.44c-1.31-.89-3,.77-4.24-.62A5.23,5.23,0,0,1,190.74,44.9Z"/><path class="cls-136" d="M198.26,51.19c-.67-2.3-2.77-1.14-4.16-1.62a15.35,15.35,0,0,0-4-.3,12.54,12.54,0,0,1,5.26-1.1c1.38.47,3,0,4.21,1.16C199.24,50,199.17,50.9,198.26,51.19Z"/><path class="cls-137" d="M190.74,45.46a6.37,6.37,0,0,1,4.24.62c-1.92-.09-3.72,1.22-5.71.53C189.2,45.5,190.22,45.8,190.74,45.46Z"/><path class="cls-138" d="M199.59,49.33c-1.56.19-2.87-.54-4.21-1.16C196.8,48.49,198.75,46.9,199.59,49.33Z"/><path class="cls-132" d="M197.32,41.41c-3.38-.21-6.07-.32-8.76-.58-.75-.07-1.78-.26-1.59-1.48A1.49,1.49,0,0,1,188.43,38C191.61,37.74,194.66,37.89,197.32,41.41Z"/><path class="cls-139" d="M170.5,68.34c1.13-2.29,2.78-1.62,4.46-.78Z"/><path class="cls-140" d="M315.1,177.44q-33.62,1-67.21,2.07c-3.42.1-6.83,1.33-10.26,0q14.19-1.49,28.38-3c1.44-.14,2.91-.14,4.36-.21,3.12.64,6.23-.08,9.34,0,7.51.09,15-.42,22.53.23.06,0-.49-.4-.33-.78,4.3-.43,8.52.83,12.8.63C315.58,176.36,315.34,177,315.1,177.44Z"/><path class="cls-141" d="M301.91,175.77c.63.78,1.73.35,3.36,1.13-11.78,0-22.63,0-33.49,0a4.49,4.49,0,0,1-1.41-.52l1.82-.18c8.75-.46,17.51-.71,26.28-.5C299.62,175.7,300.77,175.74,301.91,175.77Z"/><path class="cls-142" d="M64.33,150.18c.36,1.93-.27,2.61-1.54,2.6-2,0-1.37-1.68-1.52-2.76-.18-1.44.19-3.22,1.77-3S64,149.49,64.33,150.18Z"/><path class="cls-132" d="M53.82,139.75c1.38-.15,2.23.43,2.08,1.73-.26,2.28-2.24,2.16-3.85,2.35-1.28.15-2.75-.71-2.41-1.8C50.19,140.27,51.94,139.52,53.82,139.75Z"/><path class="cls-143" d="M78.06,153c.36-.8-.2-2.66,1-2.4,1.53.34,1.77,2.36,2.19,3.82.32,1.08-.6,1.11-1.32,1.16C78,155.77,78.13,154.36,78.06,153Z"/><path class="cls-2" d="M195.16,228c5.37-1.5,10.77-2.32,16.25-.6,1.29.4,2.52,1,3.78,1.43.13.91.77,1,1.55,1.16,7.12,1.28,13.63,10.37,12.52,17.43,0,.26-.35.48-.54.72-.12-.59-.23-1.19-.39-1.77s-.16-1.35-1-1.18c-1,.2-.44,1.15-.64,1.74a14.38,14.38,0,0,0-3.47,10.16c.08,2-1.3,3.34-1.54,5.11-.16,3.16-3.12,6.09-7,6.91a.42.42,0,0,0,.18-.44c.75-3.4,2.54-6.7.88-10.8-4,5.47-8.41,10.1-15,11.89-2,.4-3.38-.75-4.76-1.86-3.91-3.14-6.95-6.8-7.1-12.14a.58.58,0,0,0-.16-.53c-2.93-3.4-2.85-9.31.19-12.39a12.34,12.34,0,0,0,1.46-1.61c.91-1.31,2.84-2.7-.36-3.7a1.29,1.29,0,0,1-.49-1.89l.54-.6c2.09-.39,3.4-2.43,5.57-2.65,1.84-.33,3.67-.79,5.55-.18.31.1.65.54,1.06.16a2.31,2.31,0,0,1-.61-1.06c-.19-.67,0-1.67-1-1.67-1.63,0-3.21-.79-4.86-.32-.7-.38-1.59,1.07-2.09-.18C193.64,229,194.65,228.4,195.16,228Z"/><path class="cls-144" d="M191.24,277.42c-4.81,1.05-11.66-1.81-14.48-6.06-.63-.95-1.17-2-1.76-2.94-2.78-7.12,1-13.34,2.41-20,1,.58.53,1.28.75,1.8a20.47,20.47,0,0,0,1.87,17c.17,3,2.19,4.75,4.38,6.37Z"/><path class="cls-50" d="M200.84,269.33c3.44-1.76,6.9-3.48,9.72-6.22a17.73,17.73,0,0,0,3.84-5.33c.3-.66.56-1.45,1.53-1.28.79.14.83.87.92,1.47.54,3.78.81,7.53-2,10.71l-.88-.88c-.57-2.25,1.06-4.21.72-6.31-2.1,3.62-5.88,5.61-9.41,8.23,1.63,1.11,3.73-.15,5,1.33-.62,1-1.28,1.92-2.65,1.83a15.13,15.13,0,0,1-4-.12c-3.74-1.07-6.89.48-10,2.3-.31.75-1.19.55-1.68,1-2.26-.77-2.87-2.26-1.93-4.43,2.93,1,5.23-1.12,7.85-1.64C198.89,269.73,199.87,269.55,200.84,269.33Z"/><path class="cls-47" d="M189.58,235.65c.5.66.43,1.74,1.9,1.57,2.23-.25,2.17,1.05,1.22,2.53a5.41,5.41,0,0,1-1.21,1.43c-5.28,3.86-4.5,8.86-2.71,14.06l-1.66-.62c-1.36-1.21-1.15-3-1.46-4.49-.26-1.34-.76-.84-1.35-.32S183,251.08,182,251c-.28-.69-2.53-.65-.76-2.09.93-.85,1.25-2.17,2.25-3a11.47,11.47,0,0,0,2.28-2.59c.37-.75.78-1.68-.73-1.71a.76.76,0,0,1-.64-.37C185,238.33,187.52,237.22,189.58,235.65Z"/><path class="cls-145" d="M210.34,271.05l-5.33,0a1.3,1.3,0,0,1-1.42-.91c-.14-.6.56-.78,1-1,4.09-2.34,7.8-5.12,10.57-9.44A10.49,10.49,0,0,1,214,267.8C212.64,268.73,211.91,270.36,210.34,271.05Z"/><path class="cls-146" d="M198.42,270.41a22.73,22.73,0,0,1-6.15,2.35c-.89.27-2.22.74-2.18-1.12.37-.17.74-.37,1.13-.51.8-.28,2.24.09,2-1.32s-1.52-.71-2.38-.7a13.78,13.78,0,0,1-5.94-.72,6,6,0,0,1,4.57-3.05c.84-.24.92-1.54,2-1.44C193.69,266.18,196.7,267.6,198.42,270.41Z"/><path class="cls-147" d="M193.17,274.88c-.7-.83.11-1,.59-1.26a17.3,17.3,0,0,1,13.93-.74,18.43,18.43,0,0,1-9.28,3.9C196.21,277.41,194.65,276.25,193.17,274.88Z"/><path class="cls-148" d="M183.82,249.58a6,6,0,0,1,2.26-2.43c.35,2.57.69,5,1,7.47-1.24,2.51-3.78,3.06-6.3,4.46-.23-2.74-.83-5,1-7.12C183.09,251.71,183.16,250.4,183.82,249.58Z"/><path class="cls-149" d="M191.27,264.08c-.56.48-.83,1.38-1.8,1.26.39-.47,1-.88.64-1.6s-1.07-.51-1.67-.38c-1.74.37-3.47.8-5.22,1.14a1.61,1.61,0,0,1-1.72-.49c-.47-.69.14-1.22.57-1.58,2-1.72,3.35-4.2,6-5.16A13.53,13.53,0,0,1,191.27,264.08Z"/><path class="cls-144" d="M221,271.1c-1.91,3.4-5.31,4.21-8.71,5-1.68-.29-3.66,1.84-5.06-.63l-.07-.07c3.12-1.92,6.28-3.78,10-4.42C218.4,270.78,219.74,270,221,271.1Z"/><path class="cls-49" d="M191.27,264.08a29.62,29.62,0,0,1-3.2-6.81l.87-1.5c1.61,4.94,4.08,9.27,8.48,12.29a5.45,5.45,0,0,0,3.42,1.27l-2.42,1.08A37.16,37.16,0,0,1,191.27,264.08Z"/><path class="cls-150" d="M221,271.1c-4.93.44-9.37,2.44-13.84,4.33,1.75-2,4.18-3,6.3-4.44,1.51.32,2.56-.81,3.83-1.22,1.06.6,2.17-1.21,3.21.07Z"/><path class="cls-151" d="M192,231.83l5-1.9a3.74,3.74,0,0,1,3.92-.1c.68,1.5.31,2.38-1.46,2.33a13.72,13.72,0,0,0-2.71.3c-1.79-.36-3.57,1.68-5.37,0Z"/><path class="cls-152" d="M207.23,275.5c1.55,1.33,3.4.18,5.06.63a20.35,20.35,0,0,1-11.21,1.69Z"/><path class="cls-153" d="M183.81,246.4c-.83.86-1,2.44-2.55,2.52a14.81,14.81,0,0,1,3.16-7.64,1.22,1.22,0,0,0,.56-.11c1.41.11.86,1.09.7,1.76A11.23,11.23,0,0,1,183.81,246.4Z"/><path class="cls-154" d="M184.41,273.59c-4-1.26-5.24-3-4.38-6.37C181.56,269.3,183.31,271.22,184.41,273.59Z"/><path class="cls-47" d="M191.41,232.49c1.73.39,3.3-.64,5-.6.39.74-.17.89-.67,1.09-2.07.15-3.23,2.77-5.61,2.07C190.73,234.29,189.94,232.82,191.41,232.49Z"/><path class="cls-155" d="M220.5,269.84c-1.06-.38-2.17,1.45-3.21-.07L221,267.2c1-.26,1,.45,1.08,1.09a1.15,1.15,0,0,1-.5.78Z"/><path class="cls-156" d="M193.17,274.88c1.92.17,3.18,2.12,5.24,1.9-2.28,1.15-4.29-.18-6.39-.71Z"/><path class="cls-157" d="M184.64,270.51c1.47-.05,2.76-.69,3.53.67.17.32-.34,1.49-.67,1.55C186,273,185.58,271.64,184.64,270.51Z"/><path class="cls-50" d="M221.62,269.07a1.24,1.24,0,0,1,.11-.54c.3-1.51,1.31-1.53,2.49-1.18a3.33,3.33,0,0,1,.82.17,1,1,0,0,1,.65,1c-.11.72-.7,1.22-.86,1.92-.28.54-.78.55-1.29.54Z"/><path class="cls-158" d="M184,266.26c-.39.95-.86,1.7-2,1.24-.25-.11-.54-.85-.43-1A1.75,1.75,0,0,1,184,266.26Z"/><path class="cls-159" d="M183.82,249.58c-.32,1.1.72,3.39-2,2.38.08-.32.17-.64.25-1Z"/><path class="cls-160" d="M200.8,230l-3.77-.07-1.24-.6c1.67-1.16,3.55-.77,5.33-.56,1.45.18,1.87,1.12.89,2.4C200.88,231.53,201.41,230.17,200.8,230Z"/><path class="cls-161" d="M179.39,241.35c-1.15-2.24-.34-3.18,2.05-3.07C180.76,239.31,180.08,240.33,179.39,241.35Z"/><path class="cls-149" d="M227.24,248.45c.06,2.94.27,5.86-.43,8.78-.5,2-1.45,3.42-3.7,3.54a19,19,0,0,1,1.55-11.19C225.08,248.61,225.77,247.42,227.24,248.45Z"/><path class="cls-162" d="M227.24,248.45c-3.31.84-2.87,3.9-3.48,6.2a37.57,37.57,0,0,0-.65,6.12,2.61,2.61,0,0,0-1.44,1.44c-.37-.22-2,.12-1-.62,1.89-1.37,1.31-3.06,1.57-4.71.58-3.7.26-7.81,4.4-9.94Z"/><path class="cls-58" d="M224.23,267.87c-.51,1.45-2.09-1.15-2.5.66,0-.55-.06-1.09-.69-1.33,2.28-1.51,3.24-4.34,5.7-5.66C228,264.49,225.91,266.09,224.23,267.87Z"/><path class="cls-153" d="M224.23,267.87c.61-2.2,2.65-3.83,2.51-6.33l.83-1.77c2,1.28.75,3.29,1.07,5l-.09.41a6.07,6.07,0,0,1-3.77,2.55A1.57,1.57,0,0,1,224.23,267.87Z"/><path class="cls-163" d="M224.83,270.43c-1.35-1.11.09-1.42.58-2,.65-1.61,2.51-2.18,3.26-3.72l0,0c2.08,1.26,1,3.33,1.29,5.06Z"/><path class="cls-164" d="M195,168.1c-1.21,0-2.43.06-3.63-.06-1-.09-2.23-.16-1.44-1.77,1.72-.37,3.43-1,5.2-.28.68.27,1.93-.32,2,.86S196,168.16,195,168.1Z"/><path class="cls-165" d="M175.52,131.32l-1.16.05c-.44-.73-1.83-1-1.17-2.22.16-.31,1-.47,1.43-.37C176.22,129.11,175.48,130.37,175.52,131.32Z"/><path class="cls-166" d="M39.19,102.75c2.4-1.92,3.89-1.75,5,.67a51.3,51.3,0,0,1,1.93,5.64c.24.77.26,1.42-.83,1.58-.86.14-1.42,0-1.69-.9s-.63-2-1-3-.66-1.73-1.17-3c-1.68,2.37-.44,4.23-.05,6.12.17.84,1.35,2-.28,2.6s-1.79-.67-2.16-1.81c-1.21-3.68-2.51-7.33-3.78-11-.29-.82-1.17-1.73.36-2.26,1.2-.41,1.68.21,2,1.26C38,99.93,38.56,101.17,39.19,102.75Z"/><path class="cls-166" d="M75.3,92c-1.4,2.28-.09,4.16.33,6.13.16.73,1.16,1.8-.4,2.31s-1.72-.38-2.09-1.54c-1.2-3.79-2.55-7.54-3.85-11.3-.29-.83-1.14-1.74.39-2.25,1.22-.41,1.66.25,2,1.28.42,1.28,1,2.52,1.58,4,1-.56,1.72-2,3.13-1.24A4.29,4.29,0,0,1,78.61,92c.54,1.59,1.08,3.18,1.55,4.79.23.76.6,1.63-.77,1.87-1.11.19-1.52-.28-1.76-1.24a18.39,18.39,0,0,0-.91-2.68C76.37,93.88,76.41,92.83,75.3,92Z"/><path class="cls-167" d="M31.86,111.4c0,1.39,0,2.22,0,3a1.5,1.5,0,0,1-1.08,1.68c-.9.31-1.36-.16-1.75-.87-1.2-2.2-2.46-4.37-3.62-6.59-.29-.54-1-1.36.22-1.77a1.45,1.45,0,0,1,2.07.78c.62,1.42,1,3,2.42,4.39-.21-1.87-.38-3.42-.56-5-.09-.7,0-1.3.82-1.42.6-.09.92.34,1.15.85A10,10,0,0,0,33.78,110c-.2-1.68-.35-3.38-.62-5-.16-1-.12-1.61,1-1.86,1.39-.31,1.24.69,1.31,1.47.22,2.61.46,5.21.61,7.82.05.74.43,1.72-.76,2.09-1,.32-1.54-.21-2-1A21.71,21.71,0,0,0,31.86,111.4Z"/><path class="cls-167" d="M48,103c-.58,0-1.4.71-1.68,0A3.65,3.65,0,0,1,47,99.23a2.45,2.45,0,0,1,2.78-.94,3.26,3.26,0,0,1,2,1.86c.58,1.33,1.13,2.69,1.58,4.07,1.07,3.34-.3,5.16-3.76,5a2.45,2.45,0,0,1-2.21-1.51c-.79-1.71,0-3,1.17-4.22.1-.31.47-.66.06-.91C48.43,102.49,48.19,102.84,48,103Z"/><path class="cls-7" d="M80.09,91.11c0-2.58.4-4.46,3-4.73,1.54-.15,4,2.52,4,4.25,0,1.43-1.39,1.34-2.09,2-.5.46-1.49.45-1.42,1.41a1.14,1.14,0,0,0,.58.71c1,.58,1.3-.37,1.54-1,.34-.84.82-.81,1.46-.51.84.37.52,1,.32,1.58A3.23,3.23,0,0,1,81.78,96,7.4,7.4,0,0,1,80.09,91.11Z"/><path class="cls-168" d="M66.08,89.61c.94-.21,1.25.29,1.43,1,.34,1.23.28,2.8,2.3,2.6.12,0,.54.9.42,1-2.07,2.41.27,4.39.59,6.55.1.73,1,1.46-.44,2-1.22.44-1.57-.06-2.09-1-.94-1.78-.34-4.49-3.08-5.25A1.37,1.37,0,0,1,65,95.35c1.61-1.35.35-2.72,0-4S65,89.64,66.08,89.61Z"/><path class="cls-168" d="M54.37,93.48c1.23-.29,1.55.16,1.77.84.38,1.18.2,2.84,2.27,2.63.12,0,.56.88.44,1-2,2.39.14,4.4.61,6.54.2.94.74,1.67-.71,2.09s-1.43-.63-1.89-1.41c-1-1.64-.63-3.75-2.84-5.16-1.05-.66-.36-4.11-.37-6.3C53.65,93.61,54.39,93.48,54.37,93.48Z"/><path class="cls-169" d="M92.85,93c.36,1.59-.59,1.81-1.55,1.92-2,.23-1.45-1.61-1.91-2.54-.65-1.31.61-1.25,1.33-1.41C92.65,90.55,92.43,92.27,92.85,93Z"/><path class="cls-169" d="M96.51,89c1.89.12,1.9,1.54,2.08,2.67.23,1.43-1.08,1.46-1.86,1.44-1.8,0-1.36-1.82-1.71-2.81C94.56,89,96.12,89.52,96.51,89Z"/><path class="cls-169" d="M103.62,89.4c.25,1.7-.92,1.76-1.76,1.78-1.85.06-1.39-1.75-1.78-2.72-.5-1.27.86-1.16,1.55-1.26C103.54,86.92,103.21,88.64,103.62,89.4Z"/><path class="cls-170" d="M48,103c.21-.83-.24-2,1.09-2.21.22,0,.65.48.81.82.63,1.31-.44,1.55-1.28,1.92Z"/><path class="cls-171" d="M147.16,149.71c-2.55-.32-.77-2.71-1.81-3.76a62.82,62.82,0,0,0-.41-10.26c-.22-1.85-.64-3.72.4-5.48l.62.67c1.18,3,2.18,6.05.7,9.27C146.05,143.38,147.77,146.48,147.16,149.71Z"/><path class="cls-172" d="M146.66,140.15c-.23-3.09-.47-6.18-.7-9.27,2.3-.14,3.33,1.18,3.18,3.23-.2,2.76-.73,5.5-1.16,8.53C146.74,141.94,147.33,140.72,146.66,140.15Z"/><path class="cls-167" d="M281.68,75.32c-.6,1.09-1.23,2.16-1.8,3.26A1.1,1.1,0,0,1,277.8,78l.72-10.34c.05-.63.29-.91,1-.73.85.22,1.22.63,1.09,1.55a33.38,33.38,0,0,0-.4,6c.6-1.26,1.16-2.55,1.82-3.78.35-.67.31-2,1.47-1.68,1.34.31.76,1.53.7,2.39-.09,1.24-.31,2.48-.51,3.94,1.66-1.59,2.05-3.61,2.92-5.36.41-.84.68-1.5,1.79-1.13,1.43.48.63,1.3.31,2-1.24,2.54-2.5,5.07-3.84,7.55-.39.74-.58,2-1.91,1.57-1.05-.37-.69-1.4-.73-2.2s0-1.64,0-2.46Z"/><path class="cls-168" d="M311.16,102.77c-1.63,1-2.09,2.53-2.31,4.21-.09.67-.22,1.29-1.08,1.21s-1.17-.68-1-1.56c.17-.72.21-1.46.36-2.18.9-4,.91-4.08,4.42-3.52,1.17.18,2.15.74,3.52.3s2,.9,2,2.2c.09,2-.79,3.88-1.39,5.78a.85.85,0,0,1-1.21.61c-.74-.24-.84-.75-.67-1.48.39-1.71,1.38-3.29,1.18-5.36-1.86.93-1.87,2.69-2.35,4.17-.25.76-.21,1.82-1.52,1.41s-.57-1.29-.48-2C310.83,105.29,311.73,104.17,311.16,102.77Z"/><path class="cls-168" d="M373.75,94.6c-1.87,1.32-1.94,3.08-2.39,4.64-.22.75-.41,1.47-1.46,1.12s-.7-1-.57-1.76c.23-1.31,1.13-2.53.57-4-1.63,1-2.09,2.53-2.31,4.21-.09.66-.21,1.29-1.07,1.2s-1.19-.67-1-1.55c.46-1.93.89-3.88,1.33-5.82.21-.94.7-1.32,1.49-.59a5,5,0,0,0,4.53,1.1c2.57-.52,3.07.84,2.91,2.73a25.47,25.47,0,0,1-1.14,4.55c-.19.7-.34,1.54-1.41,1.22s-.78-1-.6-1.78C373.07,98.23,374,96.73,373.75,94.6Z"/><path class="cls-168" d="M372.69,123.16c-3.15.11-4-.93-3.2-3.66,1.13-3.91,3.87-5.17,6.15-2.84.27.28.83.42.65.91-1.13,3.11-1.16,6.63-3.47,9.3a2,2,0,0,1-2.54.57,3.83,3.83,0,0,1-1.87-2.4c-.07-.2.16-.72.3-.74a1.93,1.93,0,0,1,1.14.16C371.63,125.44,371.62,125.46,372.69,123.16Z"/><path class="cls-173" d="M278.14,116.11c-2.3,1.21-2.41,3-2.95,4.67-.19.59-.22,1.58-1.39,1.21-1-.31-.88-.9-.67-1.71.83-3.24,1.6-6.49,2.39-9.74.15-.6.22-1.32,1.12-1.13s1.2.57,1,1.56c-.33,1.53-1.49,3.3,1.46,4,1.35.29.58,7.12-.83,7.72a1.59,1.59,0,0,1-1.15-.23c-.57-.32-.4-.88-.26-1.39C277.24,119.53,277.63,118,278.14,116.11Z"/><path class="cls-173" d="M292.65,75.71c-2.31,1.18-2.39,3.05-2.94,4.69-.2.6-.28,1.56-1.42,1.15s-.82-1-.62-1.74c.83-3.23,1.6-6.49,2.39-9.73.15-.63.26-1.31,1.15-1.09s1.16.64.93,1.6c-.38,1.57-1.42,3.31,1.51,3.94,1.33.28.49,7.2-.89,7.71A1.6,1.6,0,0,1,291.6,82c-.57-.35-.34-.91-.21-1.41C291.77,79.06,292.16,77.58,292.65,75.71Z"/><path class="cls-174" d="M368.71,138.69c-.85,1.58-.89,4.55-4.28,4.65-1.52,0-1,1.3-1.32,2.07-.25.61-.12,1.56-1.27,1.35-1.32-.24-.9-1.1-.7-1.9.66-2.74,1.23-5.51,2-8.22.26-.93.34-3.07,1.45-2.38C366.11,135.22,369.4,134.75,368.71,138.69Z"/><path class="cls-167" d="M301.38,122.89c-.67,1.58-.82,4.52-4.15,4.63-1.78.07-.93,1.51-1.45,2.21-.36.49,0,1.59-1.26,1.25-1-.29-.91-1-.74-1.72.63-2.76,1.18-5.54,2-8.24.29-.93.4-3.23,1.4-2.53C298.69,119.53,302.11,118.77,301.38,122.89Z"/><path class="cls-9" d="M322.76,83.62c.22,1.84-.75,2.48-2.6,2.28-.54-.05-1.47-.27-1.43.65s.77.83,1.34.37a.75.75,0,0,1,1.26.28c.44.8-.35,1-.8,1.36a1.51,1.51,0,0,1-.28.15,2.28,2.28,0,0,1-3.08-.61c-1.55-2.06-.43-4,.59-5.81.69-1.23,1.69-2.24,3.28-1.77C322.47,80.93,322.86,82.11,322.76,83.62Z"/><path class="cls-9" d="M324,127.71c.23,2-.73,2.61-2.58,2.41-.54-.06-1.47-.28-1.44.64s.77.83,1.34.38a.75.75,0,0,1,1.26.27c.44.8-.34,1-.8,1.36a1.43,1.43,0,0,1-.27.15,2.29,2.29,0,0,1-3.09-.6c-1.53-2.06-.44-4,.59-5.81.69-1.23,1.69-2.25,3.28-1.78C323.71,125.15,324.15,126.3,324,127.71Z"/><path class="cls-173" d="M337.66,91.06c2.28-.78,1.91-2.9,2.57-4.41.27-.61.1-1.6,1.29-1.26,1,.28.91,1,.73,1.75-.44,1.94-.87,3.89-1.32,5.83a1.58,1.58,0,0,1-.39.81.73.73,0,0,1-1.09-.17c-.73-2-4.61.63-4.1-2.83.26-1.75.89-3.44,1.32-5.17.19-.73.65-.67,1.2-.51.71.21,1,.54.76,1.37C338.25,87.93,337.36,89.3,337.66,91.06Z"/><path class="cls-173" d="M340.73,113.91c1.88-.84,2-2.33,2.44-3.68.26-.75-.19-2.58,1.57-2,1.57.48.49,1.73.38,2.66a13.54,13.54,0,0,1-.31,1.54c-1,4.48-1,4.49-4.94,3.24a2,2,0,0,1-1.34-2.51c.32-1.53.85-3,1.23-4.55.2-.8.57-1,1.34-.73s.86.7.66,1.43C341.37,110.71,340.6,112.09,340.73,113.91Z"/><path class="cls-46" d="M367,116c-1.92.81-2.34,2.38-2.75,4-.16.58,0,1.62-1.22,1.39s-1-1.1-.84-1.94c.34-1.54.62-3.1,1.06-4.61.71-2.42,2.83.14,4.16-1.09.56-.51,1.5.77,1.58,1.83a14,14,0,0,1-1,5.22c-.16.52-.2,1.35-1.18,1s-1.19-.71-.9-1.64C366.26,118.82,366.59,117.4,367,116Z"/><path class="cls-46" d="M327.87,83.44a8.71,8.71,0,0,0-2.76,4.7c-.16.65.07,1.93-1.31,1.65s-.88-1.39-.72-2.26.3-1.65.49-2.47a3.72,3.72,0,0,1,4.86-2.9c2.23.84,1.46,2.85,1.05,4.35-.36,1.31-.17,3.94-1.89,3.56-2.51-.56.09-2.53-.17-3.9A10.9,10.9,0,0,1,327.87,83.44Z"/><path class="cls-46" d="M284,95.18a7.76,7.76,0,0,0-2.57,4.62c-.15.59,0,1.62-1.23,1.38-1-.2-1.07-.85-.89-1.65.37-1.64.66-3.31,1.14-4.91.72-2.38,2.82.1,4.16-1.08.58-.51,1.5.79,1.57,1.84a14,14,0,0,1-1,5.23c-.16.52-.21,1.33-1.18,1s-1.21-.74-.88-1.65A12.56,12.56,0,0,0,284,95.18Z"/><path class="cls-46" d="M355.58,113.35c-2,1-2.37,2.62-2.77,4.25-.15.61-.11,1.6-1.33,1.24-1-.3-.9-1-.74-1.74.34-1.54.7-3.07,1.06-4.61.14-.6.48-1.61,1-1.19,1.45,1.1,3.29-1.41,4.49.66.58,1-.31,6.72-1.24,7.25a1.5,1.5,0,0,1-1.13-.08c-.78-.31-.62-.93-.44-1.58C354.89,116.16,355.23,114.75,355.58,113.35Z"/><path class="cls-173" d="M361.49,136.19c-.49,1.81-1,3.62-1.47,5.44-.15.59-.56,1.08-1,.69-1.15-.92-3.06-.12-3.82-1.77a1.93,1.93,0,0,1,.44-2.32,9.86,9.86,0,0,1,1.57-1c.69-.44,2.47.36,2.07-1.11-.56-2-1.21.56-1.94.23-.27-.12-.62-.16-.8-.36-.34-.37-.11-.75.17-1.09.76-.93,1.63-1.74,2.93-1.43S361.38,134.84,361.49,136.19Z"/><path class="cls-174" d="M339.72,126.25c0,1.38-2.11,2.54.45,3.55.51.2.32,1.34.07,1.34-3.48,0-1.87,3-2.82,4.52-.3.47-.1,1.31-1.13,1-.72-.22-1-.58-.9-1.34.58-3.38.81-6.86,2.73-9.86a2.28,2.28,0,0,1,2.27-1.36,1.76,1.76,0,0,1,1.54,1.73c.06.92.49,2.28-.4,2.6C340,129,340.81,127,339.72,126.25Z"/><path class="cls-169" d="M300.94,78.73c-.2.79-.49,2-.81,3.21-.23.88-.6,2.55-1.05,2.34-1.3-.63-3-.26-4-1.46-1.13-1.37-.08-3.11,2.25-3.74.77-.21,2,0,1.52-1.25s-1,.13-1.5.36a.89.89,0,0,1-1.12-.23.81.81,0,0,1,.08-1.12c.73-.94,1.61-1.71,2.9-1.45C300.79,75.7,301,77,300.94,78.73Z"/><path class="cls-169" d="M364.74,93.8c-.25,1.06-.56,2.6-1,4.08-.2.65-.31,2.12-1.33,1.45-1.24-.82-3.41.07-3.83-2.1a2.09,2.09,0,0,1,1.3-2.53,9.71,9.71,0,0,1,2.09-.53c.66-.11.92-.51.77-1.08-.32-1.16-.89-.48-1.27-.06-.58.64-1.13.54-1.51-.07s.13-1,.49-1.35a2.7,2.7,0,0,1,2.77-1C364.58,91,364.74,92.12,364.74,93.8Z"/><path class="cls-174" d="M334.88,130.4c0,2.73-1.82,5.51-3.71,5.44s-2.75-1.26-2.71-3.12c.05-2.55,2-5.54,3.8-5.49C334.23,127.27,334.91,128.59,334.88,130.4Z"/><path class="cls-175" d="M287.24,122.87a14.63,14.63,0,0,1-1.71-2.69,2.51,2.51,0,0,1,1.5-3.34,2.1,2.1,0,0,1,2.84.39c.84,1.1,1.12,2.52-.37,3.16s-.27,1.3-.18,1.89c.26,1.92-.7,2.77-2.45,2.78a2.51,2.51,0,0,1-2.44-1.68c-.33-.92-.14-1.81,1.11-.86C286,122.83,286.19,123.32,287.24,122.87Z"/><path class="cls-16" d="M311.67,124.71c.2,1.87-.87,2.51-2.81,2.23-.62-.1-1.38-.1-1.17.86.16.74.76.55,1.21.25.68-.45,1.29-.3,1.48.4s-.55,1-1.05,1.25a2.24,2.24,0,0,1-3.1-.45c-1.53-2-.6-4,.41-5.8.69-1.25,1.67-2.26,3.24-1.91S311.68,123.11,311.67,124.71Z"/><path class="cls-16" d="M330.55,111.53a.83.83,0,0,1,1.28.41c.31.65-.35.81-.67,1.14a1.17,1.17,0,0,1-.27.15,2.38,2.38,0,0,1-3.34-.55c-1.15-1.41-.51-4.88,1.22-6.6,1-.94,2.08-1.56,3.33-.6,1.53,1.16,1.18,2.81.75,4.3-.37,1.28-1.58.57-2.42.71-.56.1-1.46-.2-1.28.8S330,111.83,330.55,111.53Z"/><path class="cls-167" d="M351.08,92.85c.64-1.17,1.27-2.34,1.94-3.49.28-.48.48-1.3,1.31-.76a1.07,1.07,0,0,1,.39,1.59c-1.62,3-3.19,6.09-4.77,9.15-.31.62-.7,1-1.45.72a.77.77,0,0,1-.42-1.25c2.12-2.76.47-5.89.95-8.8.12-.72-.33-2,.85-2s1.22,1.1,1,2.11a22.65,22.65,0,0,0-.26,2.48Z"/><path class="cls-25" d="M346,136.68c1.21.46,1.62-1.48,2.71-.38.54.53.19,1-.15,1.33-.89,1-1.92,1.78-3.3,1-1.88-1-1.81-2.62-1.13-4.34s1.26-4,3.79-4c1.39,0,2.5,2.58,1.74,3.76a1,1,0,0,1-1,.51c-1.17-.13-.28-1.59-1.37-1.91A5,5,0,0,0,346,136.68Z"/><path class="cls-169" d="M291.39,91.1c1.27.22,2.41.46,2.94,1.68A3,3,0,0,1,294,96c-1.17,1.46-3.15,2-4.22,3.65-.34.53-.92,0-1.28-.36a1.05,1.05,0,0,1,.17-1.64c1-.9,2.11-1.69,3.17-2.53.45-.35.77-.84.48-1.33-.15-.24-.75-.32-1.12-.28-1.08.09-2.75,1.61-3-.4C288,91.41,290.31,91.73,291.39,91.1Z"/><path class="cls-16" d="M315.61,124.75c-1.25,1.62-1.82,2.89-1.54,4.44.79.26,1.2-.27,1.66-.64s.71-.2,1,.14a.75.75,0,0,1,.07,1.11c-.75.92-1.6,1.75-2.91,1.49a2.28,2.28,0,0,1-2-2.15,6.56,6.56,0,0,1,2.44-5.87c1.51-1.19,2.82-.55,3.33,1.26.23.82.6,2.1-.52,2.44C315.81,127.39,316,125.91,315.61,124.75Z"/><path class="cls-176" d="M314.11,81.37a6,6,0,0,0-1.36,4,1.94,1.94,0,0,0,.49.28c.84.16,1.27-1.73,2.34-.49.46.55.07,1-.29,1.35-.92,1-2,1.69-3.32.89-1.89-1.11-1.56-2.87-1-4.47.63-1.75,1.3-3.72,3.66-3.78a1.84,1.84,0,0,1,1.77,1.55c.19.82.52,2-.14,2.41C314.56,84.27,314.9,82.21,314.11,81.37Z"/><path class="cls-173" d="M385.69,93.45c-.74,3.16-1.47,6.31-2.19,9.47-.16.68,0,1.64-1.2,1.2-.64-.23-1.4-.39-1.13-1.49.82-3.35,1.54-6.73,2.32-10.09.21-.91.78-1.14,1.64-.84S386,92.73,385.69,93.45Z"/><path class="cls-5" d="M298.69,104.71Q299.86,100,301,95.3c.18-.7.29-1.47,1.39-1.16.82.24,1.23.54,1,1.53-.83,3.35-1.57,6.71-2.34,10.07-.16.68-.39,1.17-1.25.91A1.5,1.5,0,0,1,298.69,104.71Z"/><path class="cls-16" d="M302.43,79c.76-1.62,1.44-3.27,2.31-4.83.28-.49,1.26-.17,1.31.2.26,1.63.95,4.34.3,4.74-2,1.21-1.38,3.08-2.08,4.55-.29.6-.24,1.49-1.42,1.14s-.91-.91-.71-1.67c.34-1.3.65-2.6,1-3.9Z"/><path class="cls-16" d="M272.71,111.89c.81,2.94-1.83,5.15-2,8,0,.55-.29,1.19-1.24.93s-1.11-.83-.79-1.61c1-2.54.06-5.58,2.09-7.86.41-.47.11-1.64,1.28-1.3C272.84,110.31,273.3,110.84,272.71,111.89Z"/><path class="cls-174" d="M334.91,83c1.55,3-2.12,5-2.06,8,0,.6-.41.93-1.05.79s-1.15-.41-1-1.26c.68-3,.73-6.09,2.28-8.83.28-.5.51-.91,1.17-.67C335.11,81.33,335.54,81.79,334.91,83Z"/><path class="cls-174" d="M334.1,112.78c.95-2.46-.06-5.4,1.95-7.63.48-.53.21-1.82,1.57-1.3,1,.37.47,1.11.62,1.74.74,3-1.88,5-2.13,7.72-.07.76-.24,1.47-1.34,1.2S334,113.49,334.1,112.78Z"/><path class="cls-177" d="M370.56,139.55a28,28,0,0,1,1.41-6.12c.29-.86.43-1.61,1.69-1.12s1.1,1.13.65,2.15c-.81,1.81-1.47,3.7-2.17,5.56-.2.54,0,1.47-.94,1.32S370.47,140.26,370.56,139.55Z"/><path class="cls-169" d="M351.38,110.73c-.06.2-.09.55-.2.57-3,.73-2.7,3.48-3.39,5.61-.21.65-.53,1-1.37.76s-.85-.73-.69-1.41c.39-1.74.7-3.49,1.14-5.21.53-2.09,2.54-.24,3.58-1.24C350.69,109.58,351.41,110.06,351.38,110.73Z"/><path class="cls-169" d="M347,87.05c.48-.06,1.11,0,1.2.58s-.27,1.31-.48,1.32c-2.86.2-2.07,2.71-2.79,4.25-.34.73,0,2.11-1.56,1.71s-.59-1.45-.46-2.23c.15-.93.71-1.88.58-2.75C343,86.93,345.44,87.65,347,87.05Z"/><path class="cls-169" d="M355.8,133.42c-.06.2-.08.55-.18.58-3,.73-2.71,3.46-3.4,5.6-.19.62-.45,1.12-1.33.82s-.93-.64-.76-1.38a55.51,55.51,0,0,1,1.24-5.5c.56-1.64,2.41,0,3.45-1C355.09,132.31,355.79,132.74,355.8,133.42Z"/><path class="cls-174" d="M323,112.05c-.67-.15-1.17-.4-1-1.25.43-1.93.8-3.88,1.27-5.81.16-.67,3.84-1.09,4.23-.53s.18,1.27-.24,1.33c-2.93.42-2.33,3-3.11,4.79C324,111.17,324.19,112.17,323,112.05Z"/><path class="cls-13" d="M361.84,112.79c-.58,2.33-1.09,4.46-1.63,6.57-.12.48-.21,1-1,.83s-1.22-.41-1-1.22c.5-2.13,1-4.24,1.56-6.36.18-.71.54-1,1.34-.77C361.7,112.05,361.89,112.42,361.84,112.79Z"/><path class="cls-178" d="M283.9,117c-.34,1.37-.82,3.39-1.34,5.41-.14.56-.19,1.26-1.17,1-.75-.23-1-.62-.86-1.35.48-2,1-4,1.49-6.06.15-.57.31-1.24,1.23-1C284,115.17,284.3,115.56,283.9,117Z"/><path class="cls-178" d="M279,93.51c-.53,2.12-1,4.24-1.58,6.36-.13.52-.32.94-1.05.74s-1.12-.55-.93-1.31q.76-3.18,1.58-6.36c.14-.52.39-.93,1.09-.74S279.25,92.72,279,93.51Z"/><path class="cls-169" d="M301.91,126.16c.35-1.41.81-3.21,1.22-5,.16-.67.33-1.22,1.17-1.1,1.05.14,1,.85.81,1.62-.43,1.81-.88,3.62-1.28,5.45-.17.77-.33,1.45-1.36,1.21S301.77,127.26,301.91,126.16Z"/><path class="cls-177" d="M308.2,95.49c-1.61,1-.74,3.29-2.73,3.58a.81.81,0,0,1-.77-1.28c.67-1.17.3-3,2.06-3.42C307.09,94.29,307.59,95,308.2,95.49Z"/><path class="cls-179" d="M289.9,101.81c-.31.65-.16,1.79-1.31,1.63-.59-.08-1.49-.36-1.2-1.39.18-.65.11-1.59,1.11-1.54C289.22,100.53,289.92,100.83,289.9,101.81Z"/><path class="cls-180" d="M370.54,145c-.88-.22-1.42-.56-1.16-1.54.19-.72.21-1.52,1.31-1.3a1.08,1.08,0,0,1,1,1.36C371.54,144.18,371.57,145.07,370.54,145Z"/><path class="cls-181" d="M278.63,89.08c.82.18,1.3.49,1.21,1.27s-.41,1.16-1.21.9c-.46-.16-1.06-.23-.91-1S277.9,89,278.63,89.08Z"/><path class="cls-181" d="M361.47,108.69c.66.12,1.19.39,1.12,1.18s-.34,1.21-1.17,1c-.46-.13-1.11-.19-1-.91C360.57,109.36,360.53,108.6,361.47,108.69Z"/><path class="cls-181" d="M283.61,111.83c.66.07,1.25.27,1.29,1,0,.49,0,1.12-.71,1.16s-1.37-.06-1.42-.8C282.73,112.73,282.73,111.93,283.61,111.83Z"/><path class="cls-182" d="M304.8,116.81c.82.23,1.48.44,1.31,1.24-.11.54-.25,1.33-1.13,1.1-.55-.15-1.28-.25-1.15-1.14A1.25,1.25,0,0,1,304.8,116.81Z"/><path class="cls-183" d="M200.8,230l1.21,1.17c.32,1.29,2,.92,3.13,2.36-3.58-.28-6.48-1.24-9.41-.55l.67-1.09c1,0,2-.12,3-.11C200.72,231.79,201,231.09,200.8,230Z"/><path class="cls-184" d="M191.83,257.23c-1.67-2.6-.51-4.93,0-7.31l.86.08Q192.26,253.62,191.83,257.23Z"/><path class="cls-185" d="M183.81,246.4c-.13-1.86,1.82-3.25,1.17-5.23,1.11-1,2-1.28,2.05.73C187.12,244.24,185.46,245.31,183.81,246.4Z"/><path class="cls-186" d="M188.26,241.88c.16-2.34,1.05-3.25,3.17-3.07A5.85,5.85,0,0,1,188.26,241.88Z"/><path class="cls-58" d="M228.67,264.7a5.54,5.54,0,0,1-3.26,3.73l-.63-.75C225.76,266.28,227.34,265.66,228.67,264.7Z"/><path class="cls-187" d="M83.16,88.34c.63,1.07,1.79,1.65.89,2.83a2.07,2.07,0,0,1-1,.56A2.55,2.55,0,0,1,83.16,88.34Z"/><path class="cls-188" d="M373.86,116.88c.5,2.6-.68,3.81-2.45,5.25A5.31,5.31,0,0,1,373.86,116.88Z"/><path class="cls-189" d="M364.27,141.58a4.39,4.39,0,0,1-.1-1.05c.34-1.26.32-2.72,1.68-3.47a.58.58,0,0,1,.84.56C366.53,139.22,366.31,140.84,364.27,141.58Z"/><path class="cls-190" d="M296.84,126.11c.18-2.28.22-4,2.09-5C299.49,123.7,299.49,123.7,296.84,126.11Z"/><path class="cls-191" d="M332.41,128.46a9,9,0,0,1,.4.9,5.48,5.48,0,0,1-1.45,4.62c-.07.07-.7-.15-.73-.3C330.23,131.78,331.21,130.37,332.41,128.46Z"/><path class="cls-192" d="M309.27,123.33a.71.71,0,0,1,.65.9c-.07.6-.16,1.33-.92,1.43s-1-.35-.81-1A1.76,1.76,0,0,1,309.27,123.33Z"/><path class="cls-192" d="M331.37,108c-.17.5-.18,1.22-1.05,1.21a.65.65,0,0,1-.68-.83c.15-.67.37-1.48,1.28-1.44C331.39,107,331.45,107.52,331.37,108Z"/></svg>