<svg xmlns="http://www.w3.org/2000/svg" xmlns:xlink="http://www.w3.org/1999/xlink" viewBox="0 0 1366.69 1556.04"><defs><style>.cls-1{fill:none;}.cls-2{fill:#f7f18b;}.cls-3{opacity:0.74;}.cls-4{clip-path:url(#clip-path);}.cls-5{fill:#f9bbe2;}</style><clipPath id="clip-path" transform="translate(-46)"><rect class="cls-1" y="358.89" width="1367" height="761.86"/></clipPath></defs><title>Asset 2</title><g id="Layer_2" data-name="Layer 2"><g id="Layer_1-2" data-name="Layer 1"><rect class="cls-2" y="357.75" width="1321" height="762.53"/><g class="cls-3"><g class="cls-4"><g id="TfrBDX.tif"><path class="cls-5" d="M1408.9,0c1.41,6.54-4,8.3-6.72,11.42Q1128.07,324,853.74,636.23q-49.29,56.13-98.67,112.15c-2.28,2.58-3.68,7.81-8.55,5.93,0-3.66,2.56-5.64,4.22-8.15q97.5-147.42,199.56-290.8,139.71-196.91,286-387.54c17.18-22.48,35.4-43.95,51.17-67.82Z" transform="translate(-46)"/><path class="cls-5" d="M712.48,754.31c-5.72,1.77-7.19-4.44-9.86-7.48q-249-283.1-497.7-566.51Q130.14,95.17,55.46,9.93C53.13,7.26,48.6,5.57,50.1,0H171.56c2.44,3.7,4.7,7.58,7.36,11.07,41.59,54.65,83.46,109,124.82,163.92q191.39,254,370.16,519.58C687.08,714.2,701.12,733.15,712.48,754.31Z" transform="translate(-46)"/><path class="cls-5" d="M748.45,801.77c4.09.94,6,5.06,8.57,8q323,367.68,645.85,735.58c2.54,2.9,7.5,4.62,6,10.68H1287.44c-14.68-22.55-31.85-42.69-48-63.8-137.27-179.29-271-362-399.24-549.72-29.67-43.44-58.9-87.28-88.2-131C750.19,808.78,746,806.68,748.45,801.77Z" transform="translate(-46)"/><path class="cls-5" d="M50.1,1556c-1.42-6.54,4-8.3,6.72-11.42Q345,1216,633.52,887.64q34.88-39.72,69.8-79.39c2.15-2.44,3.69-6,7.23-6.48,2.49,4.4-1.31,6.43-2.93,8.89Q588.16,991.28,462,1165.94,353.29,1317.1,240.74,1464.57c-19.45,25.57-39.15,50.88-58.67,76.38-3.71,4.83-8.06,9.11-10.51,15.09Z" transform="translate(-46)"/><path class="cls-5" d="M46.31,144.8c4.41-1.5,6,3.1,8.4,5.42,62.51,61.29,124.61,123.14,187.42,184Q430.59,516.95,626.62,689c27.53,24.16,55.34,47.91,82.91,72,2.48,2.17,6.72,3.35,5.88,8.66-2.4-1.7-4.74-3.53-7.21-5.09Q500.89,634.26,302.85,486.3C215.77,421.13,130.54,353,46.31,283.11Z" transform="translate(-46)"/><path class="cls-5" d="M743.89,769.18c-.08-5.42,4.13-6.92,7-9.36q246.23-211.24,480.41-439.57c58-56.3,115.3-113.42,173-170,2.36-2.31,4-6.94,8.39-5.41V283.11c-2.6,2-5.25,4-7.79,6.12Q1202.07,459,987.15,608.32C907.15,664.06,825.78,717.14,743.89,769.18Z" transform="translate(-46)"/><path class="cls-5" d="M712.48,791c-13.05,14.66-28.5,25.87-43,38.44Q475.34,998,288.52,1177.08q-116.25,111-230.14,225.18c-3.54,3.55-6.27,9.14-12.07,9V1272.93c88.8-73.9,178.9-145.67,271-214.13q189-140.46,386.58-264.63C706.5,792.53,708.88,789.44,712.48,791Z" transform="translate(-46)"/><path class="cls-5" d="M1412.69,1411.25c-5.8.15-8.53-5.44-12.07-9q-168.3-168.82-341.86-330.56Q907.89,931.28,752.44,797.5c-2.19-1.88-5.08-3-5.92-6.55,4.31-1.36,7.06,2.34,10.21,4.32a5927.33,5927.33,0,0,1,651.29,474c1.53,1.28,3.11,2.46,4.67,3.68Z" transform="translate(-46)"/><path class="cls-5" d="M1162.19,0c-.55,7-5.3,11.18-8.54,16.22Q937.83,351.77,760,715.06c-7.53,15.32-15.26,30.51-22.9,45.76-1.43-3.82.55-6.94,1.66-10.2,10.18-30.18,20.26-60.41,30.63-90.5C840.45,453.88,920.24,252.19,1012.5,57c8.94-18.9,19.47-36.86,26.33-57Z" transform="translate(-46)"/><path class="cls-5" d="M720.26,760.45c-14.91-34.93-32.49-68.19-49.37-101.87A6944.49,6944.49,0,0,0,302,11c-2.13-3.3-5.7-6-5.21-11H420.17c-.29,4.34,2.33,7.34,4,10.7Q463,90.37,499,171.76c79.22,178.86,148.78,362.57,211.52,549.65,4.32,12.9,10.49,25.21,11.45,39.42a6.88,6.88,0,0,0-1.8-.38Z" transform="translate(-46)"/><path class="cls-5" d="M737.05,795.23Q759.73,840.62,782.4,886A6959.21,6959.21,0,0,0,1157,1545.08c2.12,3.3,5.69,6,5.2,11H1038.83c.3-4.34-2.33-7.35-4-10.71q-39.78-81.54-76.53-164.92C877.3,1197,806.2,1008.55,742.52,816.47,740.25,809.61,736,803.27,737.05,795.23Z" transform="translate(-46)"/><path class="cls-5" d="M296.81,1556c.52-7,5.28-11.19,8.52-16.22q216-336.08,394.08-699.84c7.37-15,15-29.84,22.54-44.75,1.4,3.81-.56,6.95-1.67,10.21C703.78,853.63,687.59,902,670.67,950c-70.16,198.94-149.06,393.21-239.62,581.25-3.9,8.1-9.11,15.51-10.88,24.83Z" transform="translate(-46)"/><path class="cls-5" d="M716.29,784.78c-21.3,6.66-41.52,16.75-62,25.8-164,72.28-325.07,152.38-481.56,244-38.74,22.68-76.88,46.67-115.34,70-3.56,2.16-6.69,5.5-11,5.77V989.82C70.53,980.57,94.7,971.13,119,962.1c195.48-72.65,394.58-129.79,595.23-180.29Z" transform="translate(-46)"/><path class="cls-5" d="M1412.69,1130.29c-14.5-6.28-27.36-16.15-40.89-24.51C1224.6,1014.85,1073,934.64,918.14,862.15c-56.31-26.36-112.84-52.12-170-76a37.93,37.93,0,0,0-5.4-1.42c.69-1,1.38-2,2.08-2.95,34.14,8.81,68.33,17.45,102.43,26.47,143.25,37.92,285.58,79.8,426,129.77,46.66,16.61,93,34.47,139.47,51.76Z" transform="translate(-46)"/><path class="cls-5" d="M46.31,425.75c9.54,3,17.43,9.83,25.94,15.13,154.64,96.48,314.24,181,477.37,257,53.43,24.91,107,49.28,161.28,71.87a41.27,41.27,0,0,0,5.39,1.48c.08,1.69-.93,2.37-2.07,2.94-50.11-13.12-100.29-25.93-150.32-39.44C436.77,700.45,310.56,662.19,185.8,618c-46.69-16.55-93-34.44-139.49-51.72Z" transform="translate(-46)"/><path class="cls-5" d="M742.71,771.27c25.22-8.11,49.17-20.18,73.51-31,156.27-69.24,309.68-145.83,459.16-232.48,43-24.95,85.77-50.58,127.92-77.45,3-1.88,5.62-4.79,9.39-4.63V566.23c-1.52.43-3.07.74-4.55,1.32q-101.62,39.81-204.7,74.45C1052,692.67,898.81,735.27,744.78,774.21,743.64,773.64,742.63,773,742.71,771.27Z" transform="translate(-46)"/><path class="cls-5" d="M543.52,1556c20.42-68.32,40.17-136.89,58.37-206,39.57-150.36,73.84-302.31,104.67-455.28,6.7-33.21,14.27-66.23,19-99.93,2.53.46,2,3,2.56,4.84q-2.16,32.25-4.33,64.5c-2.74,41.56-5.27,83.14-8.23,124.68q-6.11,85.39-12.73,170.74c-3.23,42.22-6.49,84.45-10.13,126.63q-6.93,80.41-14.54,160.76c-3.47,36.41-7.53,72.74-11.33,109.1Z" transform="translate(-46)"/><path class="cls-5" d="M733.4,794.82c5.36,36.49,13.5,72.29,20.77,108.31,33.13,164.16,70.2,327.15,114.08,488,15.06,55.2,31.45,109.93,47.23,164.87H792.13c-8.52-70.45-14.46-141.24-20.76-212-5.06-56.82-9.45-113.71-13.86-170.6Q749.1,1065,741.18,956.57c-3.75-52.29-6.92-104.62-10.34-156.94C731.36,797.8,730.88,795.27,733.4,794.82Z" transform="translate(-46)"/><path class="cls-5" d="M915.48,0c-21.59,72.05-42.29,144.42-61.35,217.4C807.72,395.06,768.7,574.86,733.72,755.84a38.16,38.16,0,0,0-.32,5.37c-2.52-.44-2-3-2.57-4.8,2.13-33.32,4.19-66.66,6.41-100,2.56-38.34,5.12-76.68,7.93-115Q751.4,456.61,758,371.82c3.2-41.15,6.47-82.3,10-123.41q6.06-69.69,12.73-139.3C784.3,72.71,788.33,36.37,792.13,0Z" transform="translate(-46)"/><path class="cls-5" d="M725.6,761.23c-5.37-36.49-13.5-72.3-20.77-108.31-31.14-154.36-66-307.61-106.22-459.25-17.23-65-35.9-129.42-55.09-193.67H666.87c5.64,55.64,11.73,111.24,16.8,167,5.75,63.23,10.77,126.56,15.8,189.88Q708,464.68,716,572.62c4.41,61.23,8.15,122.53,12.19,183.79C727.64,758.24,728.12,760.78,725.6,761.23Z" transform="translate(-46)"/><path class="cls-5" d="M1412.69,849.34c-25.82-5.16-51.94-7.56-78-10.78q-78.6-9.73-157.26-18.68c-37.69-4.25-75.44-7.84-113.17-11.64-41.19-4.14-82.37-8.34-123.57-12.22q-52.4-4.93-104.83-9.14c-29.28-2.32-58.5-5.94-87.88-6.56l-.09-4.61c31.19-2.29,62.39-4.37,93.56-6.94,29.29-2.41,58.56-5.22,87.81-8q74.09-7.14,148.15-14.54c37.11-3.71,74.23-7.3,111.31-11.46,46.48-5.23,92.92-10.91,139.37-16.53,24.47-3,48.92-6.19,73.37-9.37,3.76-.49,7.46-1.4,11.19-2.12Z" transform="translate(-46)"/><path class="cls-5" d="M711,780.32c-32.22.8-64.26,4.77-96.38,7.25-28.34,2.2-56.65,5-85,7.71q-63.69,6.08-127.36,12.35c-37.74,3.75-75.48,7.42-113.18,11.6-47.12,5.22-94.2,10.82-141.28,16.47-30.13,3.62-60.23,7.61-90.33,11.5-3.75.49-7.45,1.42-11.17,2.14V706.7c26,3.6,52,7.48,78,10.73q69.16,8.64,138.4,16.62c36.12,4.13,72.29,7.79,108.45,11.47q62.26,6.33,124.55,12.31,48.62,4.67,97.26,8.92,52.41,4.59,104.86,8.82c4.4.36,8.84.11,13.27.14Z" transform="translate(-46)"/><path class="cls-5" d="M740.8,763.32c.25-4.42,2.62-7.11,5.79-9.14C748.13,760.08,743.89,761.23,740.8,763.32Z" transform="translate(-46)"/><path class="cls-5" d="M712.41,754.18l6.09,6.54C714.22,762.09,712.74,760.5,712.41,754.18Z" transform="translate(-46)"/><path class="cls-5" d="M737.16,795.38c-1.9.73-1.95-1.31-2.67-2.33l2.7-.35Z" transform="translate(-46)"/><path class="cls-5" d="M724.53,793.05c-.73,1-.79,3.06-2.69,2.33l0-2.69Z" transform="translate(-46)"/><path class="cls-5" d="M734.48,763c.73-1,.77-3.06,2.68-2.32l0,2.67Z" transform="translate(-46)"/><path class="cls-5" d="M721.81,763.34l0-2.67c1.91-.74,1.95,1.31,2.68,2.32Z" transform="translate(-46)"/><path class="cls-5" d="M740.82,792c2.51,2,5.33,3.69,5.79,7.7C741.91,799.8,741.09,796.15,740.82,792Z" transform="translate(-46)"/><path class="cls-5" d="M746.63,791c-1.5.13-2.47-.49-2.56-2.35C745.4,788.8,746.94,788.62,746.63,791Z" transform="translate(-46)"/><path class="cls-5" d="M746.55,799.61q2.15-.23,2,2.22C746.27,802.89,745.9,801.82,746.55,799.61Z" transform="translate(-46)"/><path class="cls-5" d="M712.4,799.66c-.22-3.36,3-4.37,3.74-7.1C718.23,796.94,717.59,798.15,712.4,799.66Z" transform="translate(-46)"/><path class="cls-5" d="M714.92,788.69c-.09,1.85-1.06,2.47-2.55,2.35C712.06,788.64,713.59,788.8,714.92,788.69Z" transform="translate(-46)"/><path class="cls-5" d="M710.5,801.83q-.21-2.46,2-2.22C713.09,801.82,712.73,802.89,710.5,801.83Z" transform="translate(-46)"/></g></g></g></g></g></svg>