<svg xmlns="http://www.w3.org/2000/svg" viewBox="0 0 361 232.96"><defs><style>.cls-1{fill:#d0adad;}.cls-2{fill:#fff;}.cls-3{fill:#97aad1;}</style></defs><title>focus</title><g id="Layer_3" data-name="Layer 3"><path class="cls-1" d="M305.18,52.29l7.68-.36a443.33,443.33,0,0,0-54.92.14c-5,.33-10.64,1.06-13.71,5a3.19,3.19,0,0,0-.81,2.07,3.48,3.48,0,0,0,1.4,2.25c4.52,3.92,10.92,4.64,16.9,4.9a191.17,191.17,0,0,0,57-6.09c2.06-.55,4.65-2.2,3.73-4.12a3.46,3.46,0,0,0-2-1.48,27.36,27.36,0,0,0-11.6-1.79"/><path class="cls-1" d="M305.18,53.79l7.68-.36a1.5,1.5,0,0,0,0-3c-10.45-.6-20.92-.87-31.39-.75-9.14.1-18.65,0-27.7,1.31-3.85.57-11.58,2.66-11.8,7.79-.24,5.35,8.62,7.68,12.57,8.36,17.17,2.94,36.41.51,53.37-2.87,3.72-.74,15.77-1.34,16.2-7,.46-6-11.64-6-15.28-5.89-1.93.06-1.93,3.06,0,3s8.34-.54,9.6,1.17c2.93,4-5.73,4.67-7.57,5.07a185.06,185.06,0,0,1-20.41,3.34c-11.78,1.26-25.69,2.79-37.33-.12-2.65-.67-9.59-2.57-6.93-6.64,1.57-2.41,6.42-3.06,9-3.36,5.78-.69,11.68-.76,17.48-.94,13.41-.42,26.83-.21,40.22.56v-3l-7.68.36c-1.92.1-1.93,3.1,0,3Z"/><path class="cls-1" d="M270.7,68.28l-4.15,0a219,219,0,0,1,39.23-1.91,106.53,106.53,0,0,1-29.71,1.75l45.76,1.93c6.61.27,13.67.44,19.31-3s8.6-12,4.05-16.85c-2.37-2.51-6-3.3-9.38-3.9-22.12-3.93-44.64-5-67.09-5.55-3.51-.08-7.1-.14-10.45.94s-6.45,3.53-7.37,6.92l8.92-4.23a17.3,17.3,0,0,0-8.73-3.61,4,4,0,0,1,3.61-.73c-20-5.06-41.31,1.51-61.75-1.47a33.53,33.53,0,0,0,15.46,2.07L204,40.5a324.39,324.39,0,0,1,69.12,3.69,307.58,307.58,0,0,1-66-2.63,243.76,243.76,0,0,0,26.66,9.3,43,43,0,0,0-31.07-10.38A90.19,90.19,0,0,0,232.12,53"/><path class="cls-1" d="M270.7,66.78l-4.15,0,.4,3a227.05,227.05,0,0,1,38.83-1.86l-.39-3a110.91,110.91,0,0,1-29.32,1.7v3L307.9,71c8.47.36,17.56,1.63,26,.21,6.22-1,11.91-4.31,14.16-10.48,1.68-4.59.86-9.73-3.19-12.78-5.8-4.36-15.41-4.27-22.37-5.17-10.18-1.31-20.42-2.13-30.67-2.67-9.33-.49-19.06-1.44-28.39-.81-6.13.42-11.78,2.85-14,8.93-.49,1.35,1.13,2.2,2.2,1.7l8.92-4.23a1.52,1.52,0,0,0,0-2.59,20.51,20.51,0,0,0-9.09-3.77l.36,2.74,2.85-.52c1.68.21,2-2.57.4-3-20.53-4.83-41.46,1.21-62.15-1.52-1.77-.23-1.89,2.42-.4,2.95a37.68,37.68,0,0,0,15.86,2.12,1.5,1.5,0,0,0,0-3L204,39v3a330.65,330.65,0,0,1,68.72,3.64l.4-3a314.42,314.42,0,0,1-65.61-2.58,1.5,1.5,0,0,0-.8,2.89,259.63,259.63,0,0,0,26.66,9.31c1.37.4,2.64-1.52,1.46-2.51A45.58,45.58,0,0,0,202.72,39a1.51,1.51,0,0,0-.76,2.79,95.71,95.71,0,0,0,29.76,12.67c1.87.45,2.67-2.44.79-2.89a93.27,93.27,0,0,1-29-12.37l-.76,2.8a42.45,42.45,0,0,1,30,10l1.46-2.51a258.8,258.8,0,0,1-26.66-9.31l-.8,2.89a317.3,317.3,0,0,0,66.41,2.69c1.58-.1,2.17-2.66.4-2.95A334.89,334.89,0,0,0,204,39a1.5,1.5,0,0,0,0,3l4.39.16v-3a35.9,35.9,0,0,1-15.06-2l-.4,2.94c20.41,2.7,41.12-3.35,61.35,1.41l.4-2.94a6.23,6.23,0,0,0-4.37.93c-1,.6-1,2.53.36,2.75a19.05,19.05,0,0,1,8.37,3.46V43.11l-8.91,4.22,2.2,1.7c3-8.37,14.15-6.83,21.18-6.63s14.12.47,21.17.87c14.35.83,29.69,1.43,43.64,5.09,4,1,7.54,3.19,7.56,7.8a11.85,11.85,0,0,1-3.84,8.33c-5.21,4.9-13.62,4.35-20.23,4.1-15.26-.59-30.51-1.29-45.76-1.93-1.95-.08-1.91,2.86,0,3a113.89,113.89,0,0,0,30.11-1.81c1.72-.33,1.23-2.88-.4-2.94a232.36,232.36,0,0,0-39.63,2c-1.7.23-1.25,3,.4,2.95l4.15,0a1.5,1.5,0,0,0,0-3Z"/><path class="cls-1" d="M249.81,48.58a49.23,49.23,0,0,1-11.19-2.42A34.49,34.49,0,0,1,256,41.9a71.88,71.88,0,0,0-28.68-2.7c11.64,2,23.32,3.92,35.12,4.33a3,3,0,0,0,1.6-.24c1.34-.77.7-2.93-.5-3.9-2.51-2-6.12-1.71-9.31-1.25q-17.13,2.41-34.11,5.77,9-.24,18-1.09A84.74,84.74,0,0,0,227.37,41"/><path class="cls-1" d="M249.81,47.08A56.77,56.77,0,0,1,239,44.72l.36,2.74A35.27,35.27,0,0,1,256,43.4a1.5,1.5,0,0,0,.4-2.94,76.8,76.8,0,0,0-29.08-2.76c-1.54.14-2.2,2.64-.4,2.94,9.83,1.66,19.68,3.32,29.63,4.07,3.21.24,12.65,1.26,9.06-5.17-2.84-5.07-11.17-2.95-15.58-2.3q-15.23,2.23-30.31,5.23c-1.66.32-1.28,3,.4,2.94q9-.27,18-1.09c1.58-.14,2.17-2.55.4-3a107,107,0,0,0-11.12-1.85c-1.92-.22-1.9,2.78,0,3a97.51,97.51,0,0,1,10.32,1.75l.4-3q-9,.82-18,1.09l.4,3c6-1.17,12-2.28,18-3.28s12.43-2.59,18.55-2.75c.73,0,3.3-.25,3.73.29,2.37,3.08-2.42,2.21-3.23,2.15q-4.41-.3-8.81-.83c-7-.83-14-2-21-3.19l-.4,3a74.45,74.45,0,0,1,28.28,2.65l.4-3a38.58,38.58,0,0,0-18.1,4.47,1.52,1.52,0,0,0,.36,2.74,60.16,60.16,0,0,0,11.58,2.47c1.91.23,1.89-2.77,0-3Z"/><path class="cls-1" d="M203.43,42.84a1.57,1.57,0,0,0,.38-2.51,265.38,265.38,0,0,0-27.56,2.75L188.12,39q-13.32,4.68-26.4,10a28.52,28.52,0,0,0,11.14-3.6q-17.55,7-35.69,12.42l22.07-9.12L127.76,59.12l42.5-16.81a332.36,332.36,0,0,1-34.74,16.25q28.64-9.95,57.83-18.15c-16.33,4.22-32.76,8.46-48.09,15.48l68.48-18.11L149.91,61.63l74.68-20.76c-23.77,6.5-47.66,13.06-70,23.45A481.74,481.74,0,0,1,244,40C216.83,50.24,187,53,161,65.85l83.47-21.41L210,57c-10.44,3.8-20.92,7.62-30.68,12.92A270.7,270.7,0,0,1,235,53.82c.33,1.79-1.44,3.21-3,4.17L208.32,72.65c18-5.6,36-11.21,54.42-14.87-.2,3.09-3.44,4.92-6.24,6.23a300.09,300.09,0,0,0-37,20.53c1.4,1.77,4.15,1.36,6.33.77a515.53,515.53,0,0,0,50.82-16.63q-32.38,11.88-65.59,21.37c2.11-4.32,6.41-7.07,10.5-9.59l27.23-16.78a288.81,288.81,0,0,0-34.89,14.38A274,274,0,0,1,243.71,64q-16,8-31.41,17.21l34.13-11.06c-7.45,5.39-15,10.85-21,17.79q18.41-7.73,36.19-16.83c1-.43-1.12-1.61-1.36-.52s1,1.91,2,2.39a76.32,76.32,0,0,1,18.9,12.92c1.23,1.16,2.5,2.5,2.69,4.18a6.32,6.32,0,0,1-1.25,4c-5.21,8.12-15.74,10.61-25.22,12.42a13.83,13.83,0,0,0,5.74,5.7,20.84,20.84,0,0,1-18.79,16.13,15.14,15.14,0,0,1-16.53,24.27c0,7.46-.48,16.07-6.44,20.55-3.82,2.87-9.06,3.21-13.72,2.16s-8.92-3.35-13.24-5.39a14.18,14.18,0,0,0-6.48-1.82,22.7,22.7,0,0,0-5.39,1.37c-4.14,1.25-8.54,1.26-12.86,1.16a275.2,275.2,0,0,1-66.78-9.77c-5.09-1.4-10.36-3.07-14.13-6.76-3.08-3-4.87-7.12-6.09-11.26-2.06-7-2.67-14.34-3.28-21.61-1-12.24-2-24.53-1.41-36.79.2-3.88.84-8.25,4-10.5,1.77-1.27,4-1.61,6.17-2,18.72-3.2,36.22-11.18,54.09-17.62S179.22,42.85,198,46"/><path class="cls-1" d="M204.49,43.9a3.19,3.19,0,0,0,.62-4.32,1.5,1.5,0,0,0-1.3-.75q-14.06.72-28,2.8l.8,2.89,11.87-4.11-.8-2.89q-13.32,4.69-26.4,10a1.5,1.5,0,0,0,.8,2.89,33.6,33.6,0,0,0,11.5-3.76c1.47-.78.45-3.37-1.16-2.74q-17.58,7-35.69,12.42l.8,2.89,22.07-9.11c1.73-.71,1.09-3.51-.79-2.89L127.36,57.68l.8,2.89,42.49-16.81L169.5,41a345.38,345.38,0,0,1-34.37,16.1c-1.75.7-1.07,3.53.79,2.89q28.65-9.93,57.83-18.15A1.5,1.5,0,0,0,193,39c-16.47,4.25-32.9,8.63-48.45,15.63-1.58.71-.44,3.16,1.16,2.74l68.48-18.11-.8-2.9L149.51,60.18c-1.78.66-1.1,3.42.8,2.89L225,42.31a1.5,1.5,0,0,0-.79-2.89C200.3,46,176.4,52.64,153.84,63c-1.53.7-.44,3.34,1.16,2.74a491.11,491.11,0,0,1,89.37-24.36l-.79-2.9c-27.34,10.18-56.93,13.27-83.35,26.05-1.56.75-.45,3.15,1.16,2.74l83.46-21.41L244.06,43c-21.86,8-44.91,14.64-65.49,25.62-1.46.78-.44,3.39,1.16,2.74a278.31,278.31,0,0,1,55.64-16.09l-1.9-1.45c-.31,3.63-10.44,8-13.23,9.68l-12.67,7.85c-1.41.87-.52,3.26,1.15,2.74,18-5.59,35.95-11.13,54.41-14.86l-1.84-1.85c-.91,4.36-7,6-10.54,7.71s-7.13,3.58-10.64,5.47c-7.3,3.94-14.42,8.19-21.38,12.69a1.5,1.5,0,0,0-.3,2.35c2.41,2,4.81,1.83,7.79,1.16,5.87-1.33,11.68-3.28,17.43-5.05Q260.54,76.49,277,70.13c1.77-.68,1-3.56-.8-2.89Q243.83,79.09,210.65,88.6l1.7,2.2c3.51-6.31,10.84-9.59,16.76-13.24L249.53,65c1.4-.86.51-3.31-1.15-2.74a308.19,308.19,0,0,0-35.24,14.53l1.51,2.59a287.94,287.94,0,0,1,29.46-13.92L243,62.69q-16,8-31.41,17.2c-1.42.85-.5,3.28,1.16,2.74l34.13-11.06-1.16-2.74c-7.56,5.48-15,11-21.29,18-.89,1,0,3.14,1.46,2.51,6.83-2.89,13.62-5.88,20.34-9q5.16-2.43,10.27-5c2-1,5.46-1.91,6.74-3.95a1.51,1.51,0,0,0-.24-1.82c-1.54-1.38-3.95-1.24-4.15,1.16-.15,1.78,1.43,2.7,2.69,3.49,3,1.88,6.25,3.27,9.21,5.25,3.11,2.08,7.11,4.41,9.39,7.44,3.46,4.59-.24,9-4.21,11.68-5.57,3.74-12.44,5.1-18.91,6.36a1.51,1.51,0,0,0-.9,2.2,17.42,17.42,0,0,0,6.29,6.24l-.69-1.7a19.6,19.6,0,0,1-17.35,15,1.52,1.52,0,0,0-1.06,2.56c8.78,11-2,25.86-15.07,21.77a1.5,1.5,0,0,0-1.9,1.44c0,4.56,0,9.34-1.72,13.65-2.83,7.33-10.34,9.16-17.4,7.38-4.95-1.24-9.23-4-13.94-5.87-4.92-1.94-8.06-.33-12.9.73-5.64,1.23-11.72.68-17.44.41q-9.16-.44-18.3-1.48A272.77,272.77,0,0,1,108,160.58c-4.9-1.25-10.33-2.35-14.69-5-6.06-3.71-8.54-10.07-10.07-16.71-2.6-11.34-3-23.52-3.59-35.11-.3-5.8-.45-11.63-.22-17.44a29.09,29.09,0,0,1,.75-6.77c1.19-4.22,4.37-5.4,8.41-6.19a204.44,204.44,0,0,0,32.55-9.49c24.45-9.11,49.73-20.51,76.47-16.43,1.89.28,2.7-2.61.8-2.9-26.44-4-51.26,6.32-75.48,15.47-6.31,2.38-12.65,4.69-19.11,6.62s-13,2.64-19.26,4.49c-10.11,3-8.36,16.77-8.2,24.89.25,13.25,1,27,3.28,40.08,1.91,10.92,5.94,20.06,16.8,24.25,12.6,4.85,26.83,7.09,40.14,9,13.12,1.88,27.28,3.82,40.55,2.6a53.73,53.73,0,0,0,8.51-1.92c5.24-1.34,9.91,2.19,14.54,4.22,5,2.17,10.4,3.81,15.86,2.75,11.7-2.29,13.29-14.47,13.3-24.43l-1.9,1.45c16.32,5.09,28.48-13.65,18-26.78l-1.06,2.56a22.67,22.67,0,0,0,20.24-17.23,1.53,1.53,0,0,0-.69-1.69,14.35,14.35,0,0,1-5.21-5.17l-.9,2.21c9.27-1.8,23-4.66,27-14.71,1.9-4.78-1.79-7.83-5.16-10.7a77.88,77.88,0,0,0-7.36-5.55c-1.71-1.15-3.48-2.22-5.28-3.22-.77-.43-1.55-.85-2.34-1.25a4.09,4.09,0,0,0-3.76-.72l-.23-1.81c-1,1.64-6.53,3.3-8.22,4.13q-4.27,2.08-8.58,4.1Q234.5,82.5,225,86.47L226.5,89c6.08-6.81,13.32-12.22,20.69-17.56,1.28-.93.58-3.3-1.16-2.74L211.9,79.74l1.16,2.74q15.38-9.18,31.41-17.2c1.49-.75.43-3.39-1.16-2.74a292.11,292.11,0,0,0-30.17,14.22c-1.72.93-.21,3.43,1.51,2.59a300,300,0,0,1,34.53-14.22L248,62.38,224.2,77.07c-5.45,3.36-11.23,6.44-14.44,12.22a1.51,1.51,0,0,0,1.69,2.2Q244.62,82,277,70.13l-.8-2.89q-13.38,5.13-27,9.56-6.37,2.06-12.78,4c-3.51,1-12.71,5.37-15.9,2.73l-.31,2.36c8.51-5.5,17.26-10.62,26.27-15.26,5.51-2.84,16.21-5.36,17.67-12.4a1.52,1.52,0,0,0-1.84-1.85c-18.46,3.74-36.45,9.27-54.41,14.87l1.15,2.74,18.59-11.52c3.54-2.19,8.4-4,8.8-8.6.09-1-1-1.6-1.9-1.44a278.31,278.31,0,0,0-55.64,16.09l1.16,2.74c20.33-10.84,43.16-17.46,64.76-25.32a1.5,1.5,0,0,0-.79-2.89L160.59,64.41l1.15,2.74c26.18-12.66,55.55-15.66,82.63-25.74a1.5,1.5,0,0,0-.79-2.9A491.24,491.24,0,0,0,154.2,62.88l1.15,2.74c22.32-10.28,46-16.84,69.63-23.31l-.79-2.89L149.51,60.18l.8,2.89,63.83-23.84c1.77-.67,1.1-3.4-.8-2.9L144.86,54.45,146,57.19c15.3-6.89,31.53-11.15,47.73-15.33L193,39q-29.17,8.22-57.82,18.15l.79,2.89A353,353,0,0,0,171,43.61c1.47-.79.45-3.38-1.15-2.75l-42.5,16.82c-1.75.69-1.07,3.51.8,2.89l31.48-10.43-.79-2.89-22.08,9.11c-1.73.71-1.11,3.47.8,2.89q18.1-5.46,35.69-12.42l-1.15-2.74a31.44,31.44,0,0,1-10.79,3.46l.8,2.89q13.08-5.32,26.4-10c1.81-.64,1-3.53-.8-2.89l-11.87,4.11a1.5,1.5,0,0,0,.8,2.89c4.76-.71,9.54-1.31,14.33-1.77,1.8-.17,10.16.25,11.39-1a1.5,1.5,0,0,0,2.12,2.12Z"/><path class="cls-1" d="M256.07,64.32l4-2.66a66.44,66.44,0,0,0-19,15.28l24.21-13.1a114.81,114.81,0,0,1-20.61,18.07,115.21,115.21,0,0,0,15.9-13.25,88.46,88.46,0,0,0-20,16.9,46,46,0,0,0,13.9-19.91,77.08,77.08,0,0,0-27.09,13.1c6.28-7.18,14.93-11.77,23.37-16.2-7.81-2.74-17.51,5.68-24.06.61A41.42,41.42,0,0,1,246.44,57a62.35,62.35,0,0,1-26.35,4.5A86.74,86.74,0,0,1,236.44,59c3.17-.17,6.42-.19,9.41-1.28S251.58,54.16,252,51c-19.68-12.81-44.69-13.52-68.15-12.34-5.41.27-11.62,1.06-14.6,5.58a11.44,11.44,0,0,0-1.11,9.16c2.38,9,11.84,13.91,20.51,17.22a230.72,230.72,0,0,0,35.77,10.45"/><path class="cls-1" d="M256.83,65.62l4-2.67a1.5,1.5,0,0,0-1.52-2.59A71.68,71.68,0,0,0,240,75.88a1.51,1.51,0,0,0,1.82,2.36L266,65.13l-1.82-2.35a120.52,120.52,0,0,1-20.3,17.84l1.51,2.59a127.5,127.5,0,0,0,16.2-13.49,1.51,1.51,0,0,0-1.81-2.36A95.23,95.23,0,0,0,239.4,84.5a1.5,1.5,0,0,0,2.12,2.12A49.91,49.91,0,0,0,255.81,66c.41-1.1-.82-2.12-1.85-1.84a82,82,0,0,0-27.45,13.25l1.82,2.36c6.45-7.07,14.71-11.57,23.07-16a1.52,1.52,0,0,0-.36-2.74c-7.69-2.15-16.9,5.24-23.7.76v2.59a42.37,42.37,0,0,1,19.1-6l-.4-2.95A64.65,64.65,0,0,1,220.09,60l.39,3c7.55-1.82,15.16-1.64,22.71-3,4.84-.88,9.05-3.49,10.22-8.51a1.55,1.55,0,0,0-.69-1.7c-12.77-8.08-27.49-11.5-42.43-12.54a208.78,208.78,0,0,0-23.2-.15c-5.62.23-12.32.17-16.9,4-9.77,8.13-.63,21,7.38,26,5.94,3.72,12.83,6,19.42,8.21a237.85,237.85,0,0,0,27,7.29c1.88.4,2.69-2.49.8-2.89-13.31-2.8-26.87-6.38-39.34-11.9-5.18-2.29-10.64-5.3-13.83-10.16-2.16-3.28-3.35-7.58-1.65-11.3s5.06-4.93,8.72-5.59c11.59-2.11,24.88-1.33,36.54-.08,12.74,1.35,25.1,4.82,36,11.7l-.69-1.69c-1.66,7.13-10.17,6.54-15.92,7A94,94,0,0,0,219.69,60c-1.69.4-1.26,2.89.4,2.94a66.67,66.67,0,0,0,26.75-4.56c1.44-.56,1.42-3.07-.4-2.94a45.76,45.76,0,0,0-20.62,6.4,1.52,1.52,0,0,0,0,2.59c7.81,5.13,16.22-2.75,24.42-.46l-.35-2.74c-8.59,4.51-17.07,9.18-23.68,16.42-1.08,1.19.38,3.42,1.82,2.36a79.72,79.72,0,0,1,26.73-13l-1.85-1.84A46.84,46.84,0,0,1,239.4,84.5l2.12,2.12A92.22,92.22,0,0,1,261.27,70l-1.82-2.36a122.9,122.9,0,0,1-15.59,13c-1.57,1.1-.08,3.69,1.51,2.59A124.41,124.41,0,0,0,266.28,64.9a1.51,1.51,0,0,0-1.81-2.36L240.26,75.65,242.07,78a69.25,69.25,0,0,1,18.74-15l-1.52-2.59-4,2.67c-1.6,1.06-.1,3.66,1.52,2.59Z"/><path class="cls-1" d="M249.55,59.78c-3.07-5.35-10.41-7.51-16.14-5.23s-9.5,8.39-9.66,14.55A17.87,17.87,0,0,0,257,78.74,24.6,24.6,0,0,0,260,68.57a22.29,22.29,0,0,0-.94-10,12,12,0,0,0-6.74-7.16"/><path class="cls-1" d="M250.84,59c-5.91-9-18.73-8.85-25-.3s-3.72,20.36,4.57,26.5c8.47,6.29,21,4,27.09-4.57,6.21-8.71,6.68-25.51-4.37-30.54-1.74-.8-3.27,1.79-1.51,2.59,9.11,4.15,8.62,17.8,4,25.29-4.31,7.07-14,10-21.43,6.12S223.07,70.72,226.74,63c4-8.52,16-10.92,21.51-2.46,1.06,1.61,3.65.11,2.59-1.51Z"/><path class="cls-2" d="M74.68,68.15C70.05,67.58,65,67.09,61,69.46c-6.26,3.69-7.1,12.25-7.1,19.52,0,15.69.61,31.37,1.53,47,.57,9.73,1.29,19.65,5,28.68,2.4,5.86,6.27,11.44,12,14.21s13.41,1.95,17.28-3.06a4.19,4.19,0,0,0,.86-1.61,5.43,5.43,0,0,0-.41-3c-9.77-29-22.43-58.77-18-89.06.83-5.7,2.27-11.32,2.73-17.07A64.17,64.17,0,0,0,57.74,70"/><path class="cls-2" d="M74.68,66.65c-6.94-.81-14.41-.8-18.69,5.64s-3.6,15.23-3.54,22.57c.1,10.79.48,21.57,1,32.34.5,10,.71,20.28,3.05,30.08,3,12.55,13.87,30.47,29.43,23.29,2.06-.95,4.52-2.6,5.53-4.73,1.56-3.29-.62-7.08-1.7-10.21-3.43-9.95-7-19.85-10.05-29.93-3.37-11.24-6.1-22.76-6.83-34.5-.76-12.38,2.25-23.89,3.44-36.08.1-1.07-1-1.58-1.9-1.44a71.9,71.9,0,0,0-17.47,5c-1.77.75-.24,3.34,1.52,2.59a69.17,69.17,0,0,1,16.75-4.73l-1.9-1.45c-.83,8.48-3.09,16.7-3.52,25.24a108.47,108.47,0,0,0,1.33,22c2.57,16.45,8.15,32.24,13.61,47.9,1.13,3.24,3.84,7.95,3.92,11.35.13,5.87-6,7.7-10.85,7.2C69.31,178,64,170,61.23,162.59c-3-8.21-3.69-17-4.22-25.66q-.76-12.69-1.19-25.4c-.3-9.06-1-18.4-.22-27.44.35-4.17,1.22-9,4.39-12,3.92-3.74,9.77-3.05,14.69-2.47,1.91.22,1.9-2.78,0-3Z"/><path class="cls-3" d="M46.14,69a104.7,104.7,0,0,1-24.41,2.09l.4,2.94a84.78,84.78,0,0,1,16.51-2.78l-1.06-2.56a65.16,65.16,0,0,0-9.75,9.47c-1,1.24.27,3.31,1.81,2.36A82.42,82.42,0,0,0,42,71.27l-2.51-1.46a25.16,25.16,0,0,0-.29,14.46,1.52,1.52,0,0,0,2.74.35l2.4-4.27-2.8-.76L39.65,99.18c-.16,1.72,2.49,2,3,.4L50,74.26c.49-1.71-1.81-2.51-2.75-1.16a29.75,29.75,0,0,0-4.23,9,1.5,1.5,0,0,0,2.89.8,19.38,19.38,0,0,0,.63-9.29c-.23-1.51-2.55-1.35-2.89,0a142,142,0,0,0-3.55,52.18c.22,1.87,3,2,3,0a179.23,179.23,0,0,1,1.75-29.82l-2.94-.4.54,39.73h3l-.73-26.57h-3L47,148.47c.24,1.85,3,2,3,0l-.7-36.06a1.5,1.5,0,0,0-3,0,138.52,138.52,0,0,0,5.48,43.13,1.51,1.51,0,0,0,2.9-.8,212.24,212.24,0,0,1-3.78-36.35,1.5,1.5,0,0,0-3,0,251.43,251.43,0,0,0,3.87,41.16l2.89-.8-5.17-18a1.5,1.5,0,0,0-2.89.8l9.93,39.22c.48,1.88,3.3,1.08,2.9-.8L57,169.05c-.41-1.91-3.21-1.08-2.89.8a66.14,66.14,0,0,0,7.18,20.59c.83,1.53,3.1.46,2.74-1.16a56.35,56.35,0,0,0-4.43-12.5l-2.59,1.51L63,189.17A1.5,1.5,0,0,0,65.71,188l-.81-2.64-2.51,1.46a20.07,20.07,0,0,0,6.21,3.34,1.52,1.52,0,0,0,1.9-1.45,26.21,26.21,0,0,0-3.35-14.23c-.67-1.23-3-.76-2.79.76l.76,6.57,2.56-1.06-4-4.47c-1-1.07-2.42-.12-2.56,1.06a13.27,13.27,0,0,0,1.16,7.32l2.59-1.52-3.35-6.45c-.86-1.65-2.95-.39-2.74,1.15A16.66,16.66,0,0,0,71.67,192l-1-1.84L69.71,194l2.89.8c.44-2.74.89-8.92-2.56-10a1.48,1.48,0,0,0-1.46.38,2.45,2.45,0,0,0-.77,2.64c.12.34.62.64.69.9,1.62.69,1.72,2,.28,4-.69.37-1.4.73-2.11,1.07-7.09,3.54-14.29,6.88-21.5,10.19-1.55.71-.45,3.24,1.16,2.74a73.88,73.88,0,0,0,12.75-5.29,1.51,1.51,0,0,0-1.16-2.74,140.63,140.63,0,0,0-23.72,9.9c-1.53.81-.46,3.14,1.16,2.74a128.6,128.6,0,0,0,37.27-15.91,1.5,1.5,0,0,0-1.15-2.74,66.73,66.73,0,0,1-14.87,2.22,1.52,1.52,0,0,0-.76,2.8c3.14,2.06,6.63-.38,7-3.83.33-3-1.49-5.88-2.69-8.45l-6.07-13-2.59,1.52A105.61,105.61,0,0,0,66.2,189.65c1.23,1.08,3.28-.29,2.36-1.82a158.53,158.53,0,0,0-11.39-16.42l-2.12,2.12a41.55,41.55,0,0,1,9,19.56l2.51-1.46a26.87,26.87,0,0,1-8.16-13.25l-2.74,1.15c1.81,3.45,3.65,9.13,1.84,12.95L57.09,194q-6.27-1.22-.45-3a20.79,20.79,0,0,1,4.06-.85L59,188A23.82,23.82,0,0,1,40.07,201l.76,2.79,16.58-7.33-1.82-2.35a43.68,43.68,0,0,1-16,10.26l1.15,2.74L57,194.67a1.5,1.5,0,0,0-1.51-2.59L32.23,204.2l1.82,2.36a169,169,0,0,0,15-17.44L46.27,188A63,63,0,0,1,33.9,208.42l2.51,1.46a38.88,38.88,0,0,1,9.1-18l-2.36-1.82-8.48,15.71c-.67,1.23.75,2.94,2,2.05q14.94-10.22,29.1-21.49l-2.36-.3,3.27,4.26a1.52,1.52,0,0,0,2.74-.36,6.06,6.06,0,0,0-.72-6,1.52,1.52,0,0,0-2.74.36,11.39,11.39,0,0,0,0,8.75,1.5,1.5,0,0,0,2.89-.8,35.44,35.44,0,0,0-4.25-12l-1.69,2.2c5.42,1.5,5.57,8.37,2.28,12-2.7,2.95-6.75,4.06-10.56,4.68-1.6.26-1.24,2.44,0,2.89,10.16,3.67,18.27-6.55,16-16.18-.92-3.81-3.68-8.69-8.15-8.86A5.39,5.39,0,0,0,57,183.82l2.74-1.16A49,49,0,0,1,53.18,165l-2.89.8,4.09,11.46c.64,1.8,3.51,1,2.89-.8a161.74,161.74,0,0,0-8.6-20.63c-.73-1.45-2.67-.59-2.8.76a38.14,38.14,0,0,0,3.36,19.58c.74,1.64,3.05.41,2.75-1.15q-4-20.16-9.17-40c-.5-1.9-3.23-1.08-2.9.79a395.66,395.66,0,0,0,10.83,45,1.5,1.5,0,0,0,2.89-.8A341.9,341.9,0,0,1,41,94.29H38a541.52,541.52,0,0,0,8.76,61.05l2.9-.8a292,292,0,0,1-7.91-70.69h-3a675.48,675.48,0,0,0,4.53,75.49l3-.4L36.7,89.06c-.22-1.63-2.43-1.18-2.89,0-3.08,7.93-2.55,16.2-2,24.53.6,8.67,1.27,17.33,2.2,26,1.88,17.38,4.82,34.62,10.08,51.32.57,1.83,3.46,1.05,2.89-.8A324.74,324.74,0,0,1,32.39,88.78c0-1.94-2.89-1.92-3,0a237.31,237.31,0,0,0,12.09,89.11,1.5,1.5,0,0,0,2.89-.8l-12-70.52-2.9.79,8.25,42.43C40.18,162.48,42.36,175.28,48,187c.8,1.66,3,.39,2.74-1.15a434.91,434.91,0,0,0-9.64-46.17c-.42-1.59-3.11-1.33-2.94.4,1.69,17.42,3.5,34.89,8.93,51.62a1.5,1.5,0,0,0,2.89-.8,370.65,370.65,0,0,0-11.85-53c-.57-1.89-3.18-1.07-2.89.8,2.61,17.3,5.34,34.61,11.32,51.13.54,1.46,3.14,1.4,3-.4-3.27-31.38-14.44-61.77-13.43-93.58l-2.94.4A91.76,91.76,0,0,0,37.72,113c.55,1.46,3.09,1.41,3-.4l-2-25.81a1.5,1.5,0,0,0-2.94-.4,24.6,24.6,0,0,0-1.87,12c.14,1.56,2.61,2.18,3,.4a64,64,0,0,0,.07-24.09,1.52,1.52,0,0,0-2.51-.66,73.88,73.88,0,0,0-8.23,10.18l2.75,1.15,2.25-9A1.51,1.51,0,0,0,28.64,75a52.85,52.85,0,0,0-7.26,9.74A1.5,1.5,0,0,0,24,86.25a13.75,13.75,0,0,1,6-5.49l-2.2-1.7a28.43,28.43,0,0,0,3.38,19,1.51,1.51,0,0,0,2.79-.75,64.78,64.78,0,0,0-2.54-19.38c-.46-1.57-3-1.33-2.95.4l1.28,23.5a1.5,1.5,0,0,0,2.94.4,82.54,82.54,0,0,0,2.82-19.46c0-1.65-2.62-2.08-3-.4L30,95.51l2.95.4,1.21-11.43h-3a148.07,148.07,0,0,0,10,62.12c.57,1.46,3,1.43,3-.4a168.08,168.08,0,0,0-4.93-32.86c-.41-1.62-3-1.32-3,.39A76.8,76.8,0,0,0,39,130.49a1.5,1.5,0,0,0,2.89-.79l-5.76-22.88a1.5,1.5,0,0,0-2.94.4,106.2,106.2,0,0,0,3.7,28.7c.51,1.9,3.18,1.06,2.89-.8a133.71,133.71,0,0,1,2.48-53.66l-3-.4,1.06,40.47,2.94-.4c-1.71-9.62-3.42-19.26-3.95-29a98.84,98.84,0,0,1,.1-13.33c.22-2.77,1.37-5.53-.63-7.72a1.55,1.55,0,0,0-2.13,0l-.35.29A1.49,1.49,0,0,0,36,72.8l.16.55a1.5,1.5,0,0,0,1.84,1l.28-.1a1.52,1.52,0,0,0,1.1-1.44c-.39-3.92-3.32-6-7.19-6.21-6.78-.31-14.21,1.77-20.91,2.73-1.61.23-1.23,2.45,0,2.89a11.47,11.47,0,0,0,8,.14l-1.16-2.74a16,16,0,0,0-7.59,8.82l2.95.4-.2-7.28a1.53,1.53,0,0,0-1.9-1.45,8.13,8.13,0,0,0-5.69,3.9c-1.07,1.62,1.53,3.13,2.59,1.52a4.77,4.77,0,0,1,3.9-2.52l-1.9-1.45.2,7.28a1.5,1.5,0,0,0,2.94.4,12.87,12.87,0,0,1,6.22-7,1.51,1.51,0,0,0-1.16-2.74A9.94,9.94,0,0,1,12,69.37v2.89c4.29-.61,23.67-5.7,24.3.59l1.1-1.45-.28.1,1.85,1-.18.63H36.69c1.22,1.32-.51,10.08-.52,12.25a121.88,121.88,0,0,0,.62,12.38c.79,8.1,2.2,16.12,3.62,24.12.3,1.68,3,1.27,3-.4L42.3,81.06a1.51,1.51,0,0,0-2.95-.4,137.26,137.26,0,0,0-2.47,55.26l2.89-.8a103.06,103.06,0,0,1-3.59-27.9l-3,.4L39,130.49l2.89-.79a73.11,73.11,0,0,1-2.65-16l-2.95.4a164,164,0,0,1,4.83,32.07l2.94-.39a146,146,0,0,1-9.94-61.33c.1-2-2.81-1.88-3,0L29.9,95.91c-.18,1.67,2.62,2,3,.4l2.54-13.14-2.94-.4a79.49,79.49,0,0,1-2.71,18.66l2.95.4-1.28-23.5-2.94.4A62.43,62.43,0,0,1,30.9,97.31l2.8-.76a25.2,25.2,0,0,1-3.08-16.69,1.52,1.52,0,0,0-2.21-1.69,16.39,16.39,0,0,0-7,6.57L24,86.25a49.65,49.65,0,0,1,6.79-9.13l-2.51-1.46-2.26,9a1.51,1.51,0,0,0,2.75,1.15,70.5,70.5,0,0,1,7.75-9.57L34,75.57a59.9,59.9,0,0,1-.07,22.49l2.94.4a23,23,0,0,1,1.76-11.24l-2.95-.4,2,25.81,2.95-.4A91.57,91.57,0,0,1,36,95.49c-.3-1.72-2.89-1.23-2.95.4-1,31.84,10.15,62.19,13.43,93.58l2.95-.4c-6-16.51-8.72-33.83-11.33-51.13l-2.89.8a370.65,370.65,0,0,1,11.85,53l2.89-.8c-5.35-16.48-7.16-33.66-8.82-50.82l-3,.4a437.23,437.23,0,0,1,9.64,46.16l2.74-1.15c-5.81-12.06-7.84-25.42-10.37-38.45l-7.87-40.49c-.37-1.91-3.22-1.09-2.9.79l12,70.53,2.89-.8a235.1,235.1,0,0,1-12-88.31h-3a327.45,327.45,0,0,0,14.73,102.1l2.89-.8c-5.17-16.44-8.13-33.41-10-50.52-.86-8-1.5-16.07-2.07-24.11-.61-8.64-1.48-17.34,1.73-25.59H33.81l9.54,69.88c.23,1.65,3.15,1.28,2.95-.4a675.48,675.48,0,0,1-4.53-75.49,1.5,1.5,0,0,0-3,0,295.66,295.66,0,0,0,8,71.49c.45,1.89,3.28,1.08,2.9-.8A534.23,534.23,0,0,1,41,94.29c-.16-1.9-3-2-3,0A345,345,0,0,0,50.74,180.8l2.89-.8a393.34,393.34,0,0,1-10.82-45l-2.9.79q5.21,19.88,9.17,40l2.74-1.16a35.3,35.3,0,0,1-3-18.07l-2.79.75a156.14,156.14,0,0,1,8.3,19.92l2.89-.8L53.18,165a1.5,1.5,0,0,0-2.89.8,51,51,0,0,0,6.82,18.4A1.51,1.51,0,0,0,59.85,183q3.9-5,6.34-.13a12.62,12.62,0,0,1,1.51,3.76,12.31,12.31,0,0,1-.32,6.91,9.22,9.22,0,0,1-11.94,5.58V202c6-1,13.15-3.92,14.73-10.51,1.21-5.05-1.35-10.49-6.46-11.9a1.51,1.51,0,0,0-1.69,2.2A33.28,33.28,0,0,1,66,193.07l2.89-.8a10,10,0,0,1,0-7.16l-2.74.36.42,3.69,2.74-.36-3.26-4.26a1.55,1.55,0,0,0-2.36-.31q-13.86,11-28.49,21l2,2.05,8.48-15.71c.78-1.44-1.17-3.13-2.35-1.81a41.85,41.85,0,0,0-9.87,19.31c-.3,1.37,1.44,2.64,2.51,1.45a67.64,67.64,0,0,0,13.14-21.78c.64-1.73-1.81-2.41-2.74-1.16a163.73,163.73,0,0,1-14.5,16.84,1.5,1.5,0,0,0,1.82,2.35L57,194.67l-1.51-2.59L39.24,204.5c-1.22.93-.6,3.38,1.15,2.74a47,47,0,0,0,17.32-11c1.28-1.28-.33-3-1.82-2.36l-16.58,7.33a1.51,1.51,0,0,0,.76,2.8A26.93,26.93,0,0,0,61.6,189.54a1.52,1.52,0,0,0-1.7-2.2c-3.64.58-8.6,1.66-9.85,5.78-.83,2.73.7,6.5,3.62,7.18,3.78.89,5.68-3.33,6.54-6.24a21.27,21.27,0,0,0-1.92-16c-.8-1.52-3.19-.47-2.75,1.16a29.68,29.68,0,0,0,8.94,14.57A1.52,1.52,0,0,0,67,192.29a44.5,44.5,0,0,0-9.82-20.88c-1.25-1.5-3.3.63-2.12,2.12A153.13,153.13,0,0,1,66,189.34l2.35-1.81A102.27,102.27,0,0,1,54.1,172.34a1.5,1.5,0,0,0-2.59,1.52L56,183.41c.68,1.44,1.37,2.88,2,4.34l.8,1.74c1.67,2.17,1.19,4-1.42,5.57l-.76,2.79a70.4,70.4,0,0,0,15.67-2.33l-1.16-2.74a126.27,126.27,0,0,1-36.56,15.61l1.15,2.74a137.86,137.86,0,0,1,23-9.6l-1.16-2.74a69.5,69.5,0,0,1-12,5l1.16,2.74q6.91-3.18,13.79-6.45c3.47-1.66,8.27-3.08,11.13-5.72a5.11,5.11,0,0,0,2-4.63,3.74,3.74,0,0,0-1.34-2.38c-3.16-2.69-2.27,5-2.53,6.62-.29,1.86,2.44,2.72,2.89.8l.92-3.84a1.53,1.53,0,0,0-1-1.85,13.83,13.83,0,0,1-10.81-12l-2.74,1.15,3.35,6.46c.91,1.75,3.32.21,2.59-1.52a8.9,8.9,0,0,1-.75-5.8l-2.56,1.06,4,4.47a1.51,1.51,0,0,0,2.56-1.06l-.76-6.57-2.8.76a22.94,22.94,0,0,1,2.94,12.71l1.9-1.45a12.49,12.49,0,0,1-4.89-2.56c-1.08-.83-3-.12-2.5,1.46l.81,2.63,2.74-1.15-5.92-10.88c-.93-1.71-3.43-.21-2.59,1.51a53.08,53.08,0,0,1,4.13,11.79l2.74-1.16A63.5,63.5,0,0,1,57,169.05l-2.89.8,2.34,10.93,2.9-.8-9.94-39.22-2.89.8,5.17,18c.54,1.88,3.23,1.07,2.89-.8a247.13,247.13,0,0,1-3.76-40.36h-3a216.58,216.58,0,0,0,3.88,37.15l2.9-.8a135.53,135.53,0,0,1-5.38-42.33h-3l.7,36.06h3L44.73,108.7c-.25-1.85-3.06-2-3,0l.73,26.57c0,1.92,3,1.93,3,0l-.54-39.73c0-1.62-2.7-2.13-3-.4a182.39,182.39,0,0,0-1.86,30.62h3a139.87,139.87,0,0,1,3.44-51.38H43.66A16.28,16.28,0,0,1,43,82.07l2.89.8a27.38,27.38,0,0,1,3.93-8.25l-2.74-1.16L39.7,98.78l2.95.4,1.84-19.59c.14-1.52-2.1-2-2.79-.76l-2.4,4.28,2.74.36a22.36,22.36,0,0,1,.29-12.86,1.51,1.51,0,0,0-2.5-1.46A77.79,77.79,0,0,1,28.13,78L30,80.33a64.74,64.74,0,0,1,9.75-9.48,1.51,1.51,0,0,0-1.06-2.56,89.17,89.17,0,0,0-17.31,2.89,1.51,1.51,0,0,0,.4,2.95,108.28,108.28,0,0,0,25.21-2.2c1.89-.39,1.09-3.28-.8-2.89Z"/><path class="cls-3" d="M25.67,86.2a1.5,1.5,0,0,0,0-3,1.5,1.5,0,0,0,0,3Z"/><path class="cls-3" d="M21.19,76.23A50.47,50.47,0,0,0,9.52,88c-1,1.44,1.15,2.92,2.35,1.81a63.27,63.27,0,0,1,14-9.7l-2.05-2-5.95,9.57c-1,1.56,1.11,2.79,2.36,1.82L33.81,78.94l-2.35-1.82L19.4,95.88c-1,1.53,1.12,2.84,2.36,1.82A79.69,79.69,0,0,0,33.34,85.91l-2.12-2.12a129.9,129.9,0,0,0-11.6,17.33A1.5,1.5,0,0,0,22,102.94l12.12-11.8L32,89a73.26,73.26,0,0,0-11.29,19.73c-.55,1.44,1.52,2.47,2.51,1.46l9.62-9.83-2.35-1.82a83.93,83.93,0,0,0-9.59,16.5,1.51,1.51,0,0,0,2.36,1.82A55.79,55.79,0,0,0,32.07,108l-2.36-1.82A94.06,94.06,0,0,0,19,125.72c-.59,1.45,1.53,2.45,2.51,1.46L32.94,115.6l-2.35-1.82a141.13,141.13,0,0,0-11.78,23.71c-.67,1.74,1.8,2.37,2.74,1.16l10-12.91c1-1.33-1.32-3.16-2.36-1.81A78.75,78.75,0,0,0,17,146.13c-.62,1.74,1.8,2.38,2.74,1.15l10.83-14.12L28,131.65a110.12,110.12,0,0,0-11,24.8c-.52,1.72,1.8,2.47,2.74,1.15l10.71-15-2.74-1.15L20,160.94c-.68,1.7,1.82,2.4,2.75,1.15l11.61-15.77-2.59-1.52Q27.38,154.13,22.2,163l2.74,1.15,11.28-43.88-2.95-.4L30.5,142.64h3a244.79,244.79,0,0,0,.43-36.13,1.5,1.5,0,0,0-3,0c-.66,13.53-1.21,27.05.51,40.53.24,1.85,3,2,3,0A109.4,109.4,0,0,0,28,108.65c-.46-1.28-2.56-1.56-2.89,0-3.34,15.61-.95,31.31,1.66,46.83.29,1.7,2.95,1.26,2.95-.39l.05-32.92a1.5,1.5,0,0,0-3,0,39.3,39.3,0,0,0,2.21,13.6c.53,1.53,3,1.38,2.95-.4A240.34,240.34,0,0,0,30,110.09H27a243.58,243.58,0,0,1,.75,56c-.17,1.67,2.68,2.07,3,.4l3.24-20c.31-1.87-2.36-2.7-2.89-.8l-9.57,34.29,3,.4A68.49,68.49,0,0,1,31.7,154l-2.8-.76a160.14,160.14,0,0,1-3.42,31.4l2.95.39A122,122,0,0,1,35,156.15l-2.89-.8-6,24.42c-.47,1.93,2.17,2.53,2.9.79a115.42,115.42,0,0,0,7.47-26.29c.3-1.87-2.51-2.71-2.89-.8a115.35,115.35,0,0,0-2.19,25.08,1.5,1.5,0,0,0,3,0,215.59,215.59,0,0,0-1.15-38.77c-.22-1.86-3-2-3,0a171.37,171.37,0,0,0,6.27,48.15,1.5,1.5,0,0,0,2.94-.4,149.45,149.45,0,0,0-.94-34.6c-.24-1.72-2.92-1.24-2.94.4a242.34,242.34,0,0,0,1.88,34.9c.19,1.52,2.57,2.22,2.94.4A128.13,128.13,0,0,0,43,164.71c0-1.66-2.6-2.09-2.94-.4q-2.52,12.33-4.29,24.78h2.89A36.2,36.2,0,0,1,39.08,174l-2.94-.4a40.63,40.63,0,0,1-10.32,25.55,1.5,1.5,0,0,0,2.12,2.12,78.24,78.24,0,0,1,11.9-8.38l-2.2-1.69a17.93,17.93,0,0,1-11,11.4l1.46,2.51,8.43-8.58c1.35-1.38-.77-3.5-2.12-2.12L25.94,203c-1,1,0,3,1.46,2.51A21.12,21.12,0,0,0,40.53,192a1.51,1.51,0,0,0-2.2-1.69,82.9,82.9,0,0,0-12.51,8.85l2.12,2.12a44,44,0,0,0,11.2-27.67,1.51,1.51,0,0,0-3-.4,40.28,40.28,0,0,0-.42,16.65c.25,1.41,2.68,1.46,2.89,0q1.77-12.46,4.29-24.78l-3-.4a124.89,124.89,0,0,1-2.5,23.13l3,.39a242.34,242.34,0,0,1-1.88-34.9l-3,.4a145.88,145.88,0,0,1,.83,33.8l2.95-.4a168.67,168.67,0,0,1-6.16-47.35h-3a215.59,215.59,0,0,1,1.15,38.77h3a111.82,111.82,0,0,1,2.08-24.28l-2.89-.8a115.67,115.67,0,0,1-7.48,26.3l2.9.79,6-24.41a1.5,1.5,0,0,0-2.89-.8,125.12,125.12,0,0,0-6.72,29.7c-.17,1.68,2.6,2,2.95.4a165,165,0,0,0,3.52-32.19,1.51,1.51,0,0,0-2.79-.76,72.54,72.54,0,0,0-7.69,27.82c-.13,1.72,2.5,2,2.94.4l9.57-34.29-2.89-.8-3.25,20,2.95.39a243.58,243.58,0,0,0-.75-56c-.24-1.89-3.24-1.92-3,0a240.34,240.34,0,0,1,1.9,25.28l2.94-.39a36.71,36.71,0,0,1-2.1-12.81h-3l-.05,32.92,2.94-.4c-2.51-15-4.88-30.18-1.66-45.24H25.07A107,107,0,0,1,31.44,147h3c-1.72-13.48-1.17-27-.51-40.53h-3a244.79,244.79,0,0,1-.43,36.13c-.17,2,2.77,1.88,3,0l2.77-22.73c.21-1.7-2.53-2-2.94-.4L22.05,163.39a1.51,1.51,0,0,0,2.74,1.16q5.19-8.91,9.56-18.23a1.5,1.5,0,0,0-2.59-1.52L20.15,160.58l2.74,1.15,7.77-19.45c.68-1.69-1.83-2.44-2.74-1.16l-10.71,15L20,157.24a107.49,107.49,0,0,1,10.66-24.08c1-1.71-1.45-3-2.59-1.51L17.19,145.77l2.74,1.15a74.23,74.23,0,0,1,11.35-20.87l-2.35-1.82-10,12.9,2.74,1.16a135.89,135.89,0,0,1,11.48-23,1.51,1.51,0,0,0-2.36-1.82L19.34,125.06l2.5,1.46A90.83,90.83,0,0,1,32.3,107.65c1-1.37-1.3-3.16-2.35-1.82a55.79,55.79,0,0,1-8.85,8.93l2.35,1.82A83.65,83.65,0,0,1,33,100.08c1-1.39-1.19-3-2.36-1.82l-9.62,9.82,2.5,1.46a69,69,0,0,1,10.53-18.4c1.17-1.47-.71-3.5-2.13-2.12l-12.11,11.8,2.36,1.82A124.63,124.63,0,0,1,33.34,85.91c1.18-1.5-.92-3.63-2.12-2.12A79.75,79.75,0,0,1,19.63,95.58L22,97.4,34.05,78.63c1-1.55-1.12-2.78-2.36-1.81L18.1,87.35l2.35,1.82,5.95-9.56c.84-1.34-.78-2.71-2-2.06A65.89,65.89,0,0,0,9.75,87.72l2.36,1.82A46.05,46.05,0,0,1,22.7,78.82c1.55-1.13.05-3.73-1.51-2.59Z"/><path class="cls-3" d="M30.07,204.64c-3.76-7.29,1.58-18.37,4.37-25.34.63-1.56-2-2.69-2.74-1.15q-4.95,10.6-10.93,20.66L23.51,200,34.7,173c.57-1.38-1.58-2.56-2.51-1.46-6,7.11-11.44,14.69-16.8,22.31l2.74.35c-.93-4.23,3.73-10.9,5.68-14.51s3.9-7,5.94-10.53L27,168.05a36.27,36.27,0,0,1-7.34,12.17l2.51,1.46c1.64-9.37,6.28-17.46,11.34-25.37l-2.59-1.51-10.3,17.91a1.5,1.5,0,0,0,2.59,1.51l10.3-17.91a1.5,1.5,0,0,0-2.59-1.51c-5.2,8.12-10,16.47-11.64,26.08-.24,1.35,1.41,2.68,2.5,1.46a40.36,40.36,0,0,0,8.11-13.5c.6-1.62-1.9-2.59-2.74-1.15-3,5.08-5.84,10.22-8.54,15.46-2,3.88-4.36,7.43-3.38,11.89a1.52,1.52,0,0,0,2.74.36c5.22-7.41,10.47-14.78,16.33-21.7l-2.5-1.46L20.62,199.16c-.67,1.61,1.9,2.58,2.74,1.16q6-10.06,10.93-20.66l-2.74-1.16c-3.21,8-8.41,19.23-4.07,27.66.89,1.71,3.47.2,2.59-1.52Z"/></g><g id="Layer_1_copy" data-name="Layer 1 copy"><path d="M335,38c-34.32-.93-68.57-3.77-102.92-3.75-16.32,0-32.88.28-49,2.78-16.41,2.54-31.45,8.38-46.94,14.14-8.67,3.22-17.35,6.46-26,9.66-4.49,1.66-9,3.69-13.64,5s-9.41,2.12-14,3.38a1.5,1.5,0,0,0,.8,2.89c7.85-2.12,15.53-3.9,23.16-6.71q11.72-4.3,23.39-8.67c15.2-5.65,30.3-12.19,46.25-15.4,33.09-6.66,68.34-4.36,101.84-2.81,19.06.88,38.11,2,57.18,2.49,1.93,0,1.93-3,0-3Z"/><path d="M267,73.22c12.61-1.75,25.36-1.44,38-.39,11.16.92,22.29,3.37,33.31.22a1.5,1.5,0,0,0-.8-2.89c-11.82,3.38-24.27.22-36.25-.61a168.59,168.59,0,0,0-35.08.78c-1.91.26-1.1,3.15.8,2.89Z"/><path d="M85.32,65.51a12.89,12.89,0,0,0-4.81,2l2.26,1.3C81.29,55,55.15,69,50.13,74.15c-1.36,1.38.76,3.5,2.12,2.12A30.17,30.17,0,0,1,64.1,69.05c2.89-1,15.08-5.75,15.67-.23A1.52,1.52,0,0,0,82,70.12a7.55,7.55,0,0,1,4.1-1.71c1.88-.4,1.08-3.29-.8-2.9Z"/><path d="M56.25,65.13C50.18,69.45,49.18,76.71,49,83.7c-.34,12.08-.18,24.22.15,36.3.55,20.09,2.48,40.75,13,58.37a1.5,1.5,0,0,0,2.59-1.52c-9.64-16.17-11.81-35-12.47-53.47-.35-9.75-.43-19.52-.38-29.27,0-8.15-1.73-21,5.9-26.39,1.56-1.11.07-3.71-1.51-2.59Z"/><path d="M56.21,65.33c-8.28,1.35-16.68,1-25,1.75A123,123,0,0,0,9.1,71.32a1.5,1.5,0,0,0,.8,2.89,118.22,118.22,0,0,1,25-4.42c7.41-.46,14.79-.37,22.14-1.56,1.9-.31,1.09-3.2-.8-2.9Z"/><path d="M71,195.29c-3.47,7.39-11.64,8.59-18.67,10.77a81.19,81.19,0,0,0-18.54,8.49c-1.65,1-.14,3.6,1.51,2.59,7.66-4.69,15.59-7.42,24.12-10,5.91-1.79,11.44-4.51,14.17-10.33.82-1.74-1.77-3.27-2.59-1.52Z"/><path d="M59.34,172.77l-.3-1.18H56a58.42,58.42,0,0,0,14,33.27c1.26,1.47,3.37-.66,2.12-2.12A55,55,0,0,1,59,171.59c-.17-1.89-3-2-3,0a4.27,4.27,0,0,0,.71,2.69c.93,1.7,3.52.19,2.59-1.51Z"/><path d="M80.43,193.89l.63-8.71-3,.4a11,11,0,0,1-4,11.82c-1.54,1.13,0,3.74,1.51,2.59A14.07,14.07,0,0,0,81,184.78a1.51,1.51,0,0,0-3,.4l-.63,8.71c-.14,1.92,2.86,1.91,3,0Z"/><path d="M65.53,176a12.81,12.81,0,0,1-3.4-6l-2.5,1.46c2.45,2.63,4.88,5.29,7.37,7.89,1.61,1.69,2.86,3.34,5.31,3.48,2.73.15,6-1.47,8.5-2.29,3.79-1.24,7.55-2.58,11.28-4,1.79-.67,1-3.57-.8-2.89-5,1.88-10.39,4.34-15.65,5.37-6.09,1.18-10.08-5.62-13.89-9.7a1.51,1.51,0,0,0-2.51,1.46,15.78,15.78,0,0,0,4.17,7.32c1.34,1.39,3.46-.74,2.12-2.12Z"/><path d="M94.08,174.46c-4.78-16.66-10.36-33.31-13.87-50.29a123.06,123.06,0,0,1,.85-53.27c.44-1.88-2.45-2.68-2.9-.8a126.41,126.41,0,0,0-1.58,51.06c3.25,18.31,9.49,36.24,14.61,54.09a1.5,1.5,0,0,0,2.89-.79Z"/><path d="M80.19,63.66C75.58,76.11,76,89.31,77.5,102.3c1.58,13.43,3.59,26.82,5.4,40.22.26,1.91,3.15,1.1,2.9-.8C84,128.59,82,115.47,80.5,102.3,79,89.56,78.56,76.67,83.09,64.46c.67-1.81-2.23-2.6-2.9-.8Z"/><path d="M97.18,163.06C94.52,153.9,90.93,145,89,135.62a104.07,104.07,0,0,1-1.56-29.89h-3a194.33,194.33,0,0,0,5.42,35.17c2.41,9.54,4.71,21.12,10.85,29.08,1.25,1.61,3,3.25,5.06,1.9,2.68-1.74,1.22-6.11.8-8.51-2.09-12-5.71-23.6-9.81-35a1.5,1.5,0,0,0-2.89.8,74,74,0,0,0,9.47,24.18c.74,1.2,2.91.79,2.8-.76a51,51,0,0,1,.36-11.25h-2.89l2.19,5.63c.69,1.78,3.59,1,2.89-.8l-2.19-5.62c-.46-1.2-2.66-1.64-2.89,0a54.49,54.49,0,0,0-.47,12l2.79-.75a71.74,71.74,0,0,1-9.17-23.47l-2.89.8a239.74,239.74,0,0,1,7.78,25.29c.46,1.92,3.57,11.42,2.48,12.45-2.41,2.3-5.88-8.2-6.25-9.26a197.5,197.5,0,0,1-10.44-51.89,1.5,1.5,0,0,0-3,0,108.26,108.26,0,0,0,1.31,28.87c1.85,10,5.69,19.5,8.52,29.26.54,1.85,3.44,1.06,2.9-.8Z"/><path d="M79.86,155.75l-.12-3-2.95.4A140.72,140.72,0,0,0,85.54,171l2.59-1.51a108,108,0,0,0-10.64-13.2,1.52,1.52,0,0,0-2.56,1.06,35.11,35.11,0,0,0,2.33,13.79l2.51-1.46a61.28,61.28,0,0,1-8.34-10.7,1.52,1.52,0,0,0-2.74.36,16.68,16.68,0,0,0,.6,13.14c.72,1.58,3.16.44,2.74-1.16A88.27,88.27,0,0,0,65.55,154c-.86-1.73-3.45-.21-2.59,1.51a84.59,84.59,0,0,1,6.18,16.58l2.74-1.16a13.68,13.68,0,0,1-.29-10.83l-2.75.36a64,64,0,0,0,8.81,11.31c1,1,3.07,0,2.5-1.46a33.12,33.12,0,0,1-2.22-13l-2.56,1.06A104.26,104.26,0,0,1,85.54,171c1.08,1.57,3.58.18,2.59-1.51a135.2,135.2,0,0,1-8.45-17.11c-.58-1.44-3-1.44-2.94.4l.12,3c.07,1.93,3.07,1.94,3,0Z"/><path d="M44.52,173.58a12.76,12.76,0,0,0-4.25,7,22.08,22.08,0,0,0-.5,4.58c0,.91.75,5.33.21,5.9-1.12,1.19-4.89-.85-6.68-.3-2.15.67-4.34,4-6.68,3.67-1.88-.28-2.7,2.61-.79,2.89,2.14.32,3.51-.34,5.25-1.56,2.57-1.82,3.15-2.05,6.42-1.21a5.2,5.2,0,0,0,3.07.34c2.22-.65,2.42-2.55,2.38-4.57-.11-5.28-.84-10.8,3.69-14.6,1.48-1.24-.65-3.35-2.12-2.12Z"/><path d="M189.43,170.1l1.27-.14c1.37.25,2.65-1.41,1.46-2.5a63.79,63.79,0,0,1-11-13.16c-2.88-4.61-6.37-9.72-6-15.37.12-1.93-2.88-1.92-3,0-.34,5.77,2.76,10.82,5.65,15.58A68.57,68.57,0,0,0,190,169.58l1.46-2.51a4.48,4.48,0,0,0-3.59.44c-1.76.79-.23,3.38,1.52,2.59Z"/><path d="M190,143.5a25.17,25.17,0,0,0,2.35,2.81,1.5,1.5,0,0,0,2.12-2.12,21.19,21.19,0,0,1-1.88-2.21,1.55,1.55,0,0,0-2.05-.54,1.52,1.52,0,0,0-.54,2.06Z"/><path d="M242.08,129.38a76.45,76.45,0,0,0,16.55-1.06c1.9-.34,1.09-3.23-.8-2.89a72.87,72.87,0,0,1-15.75.95c-1.93-.06-1.93,2.94,0,3Z"/><path d="M197.36,108.21c4.62,6.48,9.25,13.51,16.67,17,1.74.82,3.27-1.77,1.52-2.59-7-3.3-11.27-9.86-15.6-16-1.11-1.56-3.71-.06-2.59,1.52Z"/><path d="M271.55,105.71c7.88-1,17.44-4.67,18.74-13.64,1.4-9.76-8.05-15.55-15.93-18.45-7.32-2.7-13.67-5.23-19.92-10a68.8,68.8,0,0,0-16.2-9.7c-14-5.68-29.39-8.7-44-12.7a1.5,1.5,0,0,0-.8,2.89c11.78,3.24,23.62,6.28,35.33,9.74a71.35,71.35,0,0,1,15.62,6.39c4.79,2.77,8.83,6.57,13.44,9.6,7.95,5.23,18.63,5.71,25.66,12.36,4.3,4.08,5.37,10.54,1,15-3.32,3.43-8.38,4.91-13,5.51-1.88.24-1.91,3.25,0,3Z"/><path d="M232.33,90.55a13.33,13.33,0,0,0,6.84,11.51c1.69.92,3.21-1.67,1.51-2.6a10.27,10.27,0,0,1-5.35-8.91c-.06-1.93-3.06-1.94-3,0Z"/><path d="M223.76,87.82a29.09,29.09,0,0,0,4.63,1.59c1.88.44,2.68-2.45.8-2.89a24.63,24.63,0,0,1-3.92-1.29,1.56,1.56,0,0,0-2.05.54,1.5,1.5,0,0,0,.54,2Z"/><path d="M198.71,83c3.36,3.66,8.28,3.28,12.75,2.37,1.89-.38,1.09-3.27-.8-2.89-3.4.69-7.24,1.21-9.83-1.6-1.31-1.43-3.42.7-2.12,2.12Z"/><path d="M163.81,73.39l-1.23-3.32-2.21,1.69a132.12,132.12,0,0,0,31.55,16c1.82.64,2.61-2.26.79-2.89a129.41,129.41,0,0,1-30.82-15.69,1.52,1.52,0,0,0-2.21,1.7l1.24,3.32c.66,1.79,3.56,1,2.89-.8Z"/><path d="M189.31,62c-5.16,2.14.91,10,2.74,12.69,1.1,1.57,3.7.07,2.59-1.52-.92-1.32-1.82-2.66-2.62-4.06a19.09,19.09,0,0,1-1.33-2.68,5.79,5.79,0,0,1-.36-1.21c-.05-.44.15-.48-.22-.33,1.76-.72,1-3.63-.8-2.89Z"/><path d="M201.83,94.48c1,.43,2,.88,3,1.35V93.24a19.42,19.42,0,0,1-3.25,1.87,1.5,1.5,0,0,0-.54,2,1.54,1.54,0,0,0,2,.54,19,19,0,0,0,3.25-1.87c.82-.59,1.12-2.08,0-2.59s-2-.92-3-1.35a1.56,1.56,0,0,0-2.06.53,1.52,1.52,0,0,0,.54,2.06Z"/><path d="M213.15,121.61c-5.79-2.86-10.78-7.17-12.84-13.46-.6-1.83-3.5-1.05-2.89.79,2.29,7,7.7,12,14.22,15.26,1.72.85,3.24-1.74,1.51-2.59Z"/><path d="M237.49,125.65q-3.11-.08-6.2-.2c-1.93-.08-1.93,2.92,0,3s4.13.15,6.2.2,1.93-3,0-3Z"/><path d="M262.56,119.93c-2.35,4-4.83,6-9.57,6.2-3.32.11-6.64-.32-10-.4-1.93,0-1.93,3,0,3,4.63.12,9.59,1.07,14.16-.07,3.75-.93,6.07-4,8-7.21a1.5,1.5,0,0,0-2.59-1.52Z"/><path d="M270.58,109.73a2.78,2.78,0,0,0-2.17-2.94,1.53,1.53,0,0,0-1.9,1.44,28.91,28.91,0,0,1-.56,2.92c-.45,1.87,2.44,2.68,2.89.79a35.58,35.58,0,0,0,.67-3.71l-1.89,1.45c.33.09.05,0,0-.12s0,0,0,.17a1.5,1.5,0,1,0,3,0Z"/><path d="M195.45,144.53a32.8,32.8,0,0,1-5.09-4.55c-1.31-1.43-3.42.7-2.12,2.12a36.28,36.28,0,0,0,5.7,5c1.57,1.13,3.07-1.47,1.51-2.59Z"/><path d="M200.18,147.37a39.08,39.08,0,0,1-3.82-2.21c-1.61-1.07-3.12,1.53-1.51,2.59a40.14,40.14,0,0,0,3.81,2.21c1.72.88,3.24-1.71,1.52-2.59Z"/><path d="M253.91,126.46l-.22,0a1.52,1.52,0,0,0-2.74.35c-.93,4.22,0,8,.26,12.2.33,5.86-2.16,9.71-7.42,12.16-1.75.81-.23,3.4,1.51,2.59,3.66-1.7,6.84-4.35,8.23-8.27,2.07-5.85-1-11.92.31-17.88l-2.74.36c.9,1.3,1.18,1.55,2.81,1.53,1.93,0,1.93-3,0-3Z"/><path d="M199.3,170.6c-13.44-6.31-23.86-18.49-25.06-33.65-.15-1.91-3.15-1.93-3,0,1.28,16.19,12.1,29.46,26.54,36.24,1.74.81,3.27-1.77,1.52-2.59Z"/><path d="M230.72,156a35,35,0,0,1-2.24,7c-.79,1.74,1.8,3.27,2.59,1.51a38.52,38.52,0,0,0,2.54-7.69c.41-1.88-2.48-2.68-2.89-.79Z"/><path d="M193.23,113.78l-4.3,6.8c-1,1.64,1.56,3.14,2.59,1.51l4.3-6.79c1-1.64-1.56-3.15-2.59-1.52Z"/><path d="M226.92,173.69a7.14,7.14,0,0,0,6.32-4.16,1.55,1.55,0,0,0-.54-2.05,1.51,1.51,0,0,0-2,.54,4.21,4.21,0,0,1-3.73,2.67c-1.92.08-1.93,3.08,0,3Z"/><path d="M226.27,44.06a3.82,3.82,0,0,0-3.16,1.37,1.53,1.53,0,0,0,.3,2.36,30,30,0,0,0,6.89,3.14c1.84.63,2.62-2.27.8-2.89a26.76,26.76,0,0,1-6.17-2.84l.3,2.35a1,1,0,0,1,1-.49c1.94.07,1.93-2.93,0-3Z"/><path d="M258,67.84a25.84,25.84,0,0,0,3,5,1.52,1.52,0,0,0,2.74-.36c.33-1,.61-2.09.85-3.15.42-1.88-2.48-2.69-2.89-.8-.24,1.07-.52,2.12-.85,3.16l2.74-.36a25.84,25.84,0,0,1-3-5,1.5,1.5,0,0,0-2.05-.54,1.54,1.54,0,0,0-.54,2Z"/><path d="M335.5,39.14c-13.26-1.45-26.47,1.15-39.75.54-1.93-.08-1.93,2.92,0,3,13.28.61,26.49-2,39.75-.54,1.92.21,1.91-2.79,0-3Z"/><path d="M337.89,69.89a46,46,0,0,1-8,0c-1.92-.15-1.91,2.85,0,3a46,46,0,0,0,8,0c1.91-.17,1.93-3.17,0-3Z"/><path d="M331.07,40a12.68,12.68,0,0,0-5.15-2.08,1.53,1.53,0,0,0-1.85,1.85,6.43,6.43,0,0,0,2.13,3.36c1.47,1.23,3.6-.88,2.12-2.12a3.75,3.75,0,0,1-1.36-2l-1.84,1.85a10.55,10.55,0,0,1,4.44,1.77c1.59,1.1,3.09-1.5,1.51-2.59Z"/><path d="M334.7,38.94a39.73,39.73,0,0,0-10.56.11c-1.9.26-1.09,3.15.8,2.9a36.66,36.66,0,0,1,9.76,0c1.91.25,1.89-2.75,0-3Z"/><path d="M331.91,40.65c.4-.73,7.73,3.05,8.42,3.45A22.24,22.24,0,0,1,348.08,51c4.48,7,2.16,14.89-6,17.06a1.5,1.5,0,0,0,.8,2.89c8.74-2.32,12.85-10.37,9.19-18.87-3.25-7.55-12.81-13.9-21-14.58a1.46,1.46,0,0,0-1.29.74l-.47.87c-.93,1.69,1.66,3.21,2.59,1.51Z"/><path d="M179.07,166.5c.6.78,1.2,1.56,1.81,2.33.9,1.15,2.43.06,2.56-1.06a13.64,13.64,0,0,0-2.08-8.86L179,160.73l8.07,10.2c1.2,1.51,3.31-.62,2.12-2.12l-8.07-10.2c-1.06-1.34-3.25.39-2.36,1.82a11,11,0,0,1,1.68,7.34l2.56-1.06L181.66,165c-1.16-1.52-3.76,0-2.59,1.51Z"/><path d="M109.06,155.72c-.39-.54-.82-1-1.24-1.55-1.06-1.27-2.73.15-2.51,1.46a15.21,15.21,0,0,0,3.42,7.23c1.08,1.29,2.7-.16,2.51-1.46l-.1-.65c-.28-1.9-3.17-1.1-2.89.8l.09.65,2.51-1.46a12.26,12.26,0,0,1-2.64-5.91l-2.51,1.46c.26.31.53.62.77,1,1.12,1.54,3.72,0,2.59-1.52Z"/><path d="M91.18,169.67A9.2,9.2,0,0,1,87.81,165c-.59-1.82-3.47-1.05-2.89.8l2.49,8,2.74-1.16-2.58-6c-.58-1.33-3-.69-2.8.76l.92,7,2.8-.75-4.07-7.5c-.86-1.58-3-.43-2.74,1.16l1.65,9.51,2.89-.8a64.27,64.27,0,0,0-4.94-11.32,1.51,1.51,0,0,0-2.8.76,45.2,45.2,0,0,0,.89,10.45l2.89-.8a36.75,36.75,0,0,0-4.46-9.2c-.75-1.13-2.94-.84-2.79.76a32.32,32.32,0,0,0,2.59,10.13c.68,1.58,3.19.44,2.74-1.16a32,32,0,0,0-6.09-11.79c-1-1.27-2.77.14-2.51,1.46l2,9.91,2.51-1.46-4-4.92a1.52,1.52,0,0,0-2.56,1.06,28.43,28.43,0,0,0,2.42,10.67c.71,1.64,3,.41,2.74-1.16a41.17,41.17,0,0,0-5.92-14.52,1.52,1.52,0,0,0-2.8.76,15.86,15.86,0,0,0,1.78,8.81c.87,1.74,3.4.22,2.59-1.51A178.73,178.73,0,0,1,53.57,89c.24-5.77,3-14.95-2.4-19.16a1.52,1.52,0,0,0-2.56,1.06,236,236,0,0,0,20.72,95c.79,1.76,3.38.23,2.59-1.51a232.43,232.43,0,0,1-20.31-93.5L49.05,72c3.75,2.92,2,9.39,1.71,13.48s-.38,8.3-.35,12.46a182.45,182.45,0,0,0,17.51,76.54l2.59-1.51a13.07,13.07,0,0,1-1.37-7.3l-2.8.75A39,39,0,0,1,72,180.18L74.71,179a24.39,24.39,0,0,1-2-9.15l-2.56,1.06,4,4.93c1,1.26,2.78-.15,2.51-1.46l-2-9.92-2.51,1.46a28.39,28.39,0,0,1,5.32,10.47l2.74-1.16A27,27,0,0,1,78,166.64l-2.8.75a34.33,34.33,0,0,1,4.16,8.49,1.5,1.5,0,0,0,2.89-.8,41.17,41.17,0,0,1-.78-9.65l-2.79.76a59.87,59.87,0,0,1,4.64,10.6,1.5,1.5,0,0,0,2.89-.8l-1.65-9.51-2.74,1.16,4.07,7.49c.66,1.23,3,.76,2.79-.76l-.92-7-2.79.75,2.58,6c.68,1.57,3.24.45,2.74-1.15l-2.49-8-2.89.8a11.81,11.81,0,0,0,4.13,6c1.5,1.19,3.64-.92,2.13-2.12Z"/><path d="M66.22,182l-2.75-8.26a1.5,1.5,0,0,0-2.9.79,53.06,53.06,0,0,0,9.9,22.32,1.52,1.52,0,0,0,2.8-.76c.67-5.61-.73-10.83-2.35-16.16l-2.74,1.16q1.63,3.18,3.36,6.31c.87,1.58,3,.44,2.75-1.15l-.45-2.51c-.33-1.89-3.22-1.09-2.89.8l.44,2.51,2.74-1.16q-1.72-3.14-3.36-6.32A1.51,1.51,0,0,0,68,180.75c1.54,5.06,2.87,10,2.24,15.36l2.79-.75a51.09,51.09,0,0,1-9.59-21.6l-2.9.79,2.75,8.27c.61,1.82,3.51,1,2.9-.8Z"/><path d="M49.94,178.17l11.53,26.21,2.59-1.51a306.4,306.4,0,0,0-16-28,1.5,1.5,0,0,0-2.59,1.51,171.39,171.39,0,0,1,9,23.91l2.2-1.69c-4.15-2.34-3.85-8.62-7.63-11.64a1.52,1.52,0,0,0-2.51,1.46q1.77,7.58,4,15l2.51-1.46a70.47,70.47,0,0,1-7.42-11.29c-.84-1.58-3-.44-2.74,1.16a52.18,52.18,0,0,0,5.14,14.64l2.59-1.52a105.44,105.44,0,0,0-8.6-12.37c-.88-1.09-2.51-.12-2.56,1.06a139.07,139.07,0,0,0,.31,14.86l2.56-1.06c-1.6-2-6.15-10.55-9.85-7.47-1.54,1.28-1.11,3.78-1.2,5.46a25.47,25.47,0,0,1-4.22,12.86c-1.05,1.63,1.55,3.14,2.59,1.52A27.52,27.52,0,0,0,34,208.62c.13-.92-.19-5.39.71-5.8.28-.13,5,6.06,5.51,6.72a1.51,1.51,0,0,0,2.56-1.06,139.07,139.07,0,0,1-.31-14.86l-2.57,1.06a100.16,100.16,0,0,1,8.14,11.77,1.5,1.5,0,0,0,2.59-1.52A49.17,49.17,0,0,1,45.82,191l-2.75,1.15A74.42,74.42,0,0,0,51,204.06c1,1.2,2.91-.09,2.5-1.45q-2.22-7.46-4-15L47,189.06c4.08,3.25,3.42,9.39,8.24,12.1a1.52,1.52,0,0,0,2.2-1.7,175.73,175.73,0,0,0-9.33-24.62l-2.59,1.51a307.75,307.75,0,0,1,16,28c.88,1.75,3.35.22,2.59-1.51L52.54,176.66c-.78-1.77-3.37-.24-2.6,1.51Z"/><path d="M45.92,71a10.58,10.58,0,0,0,6-3.46l-2.51-1.46a80.53,80.53,0,0,0-4.88,44c.31,1.91,3.18,1.08,2.89-.8a375.46,375.46,0,0,1-3.94-39.6,1.51,1.51,0,0,0-1.5-1.5c-6.28.49-8.45,12.14-9.73,16.94l2.89.8a99.33,99.33,0,0,0,1.54-13.54,1.52,1.52,0,0,0-2.8-.76,42,42,0,0,0-4.77,10.69l2.89.8c.4-2.45,1.42-8.64-1.65-10s-7.49,3.31-9.42,5l2.51,1.46c1.27-3.24,2.25-7.73-1.5-9.79s-7.29.57-10,2.77l2.56,1.06.26-3.56c.13-1.93-2.87-1.92-3,0l-.26,3.56c-.1,1.43,1.65,1.79,2.56,1.06l1.78-1.36q2.4-2.41,3.79,1c2.16,2.32,1.93,2,.94,4.49-.59,1.51,1.5,2.37,2.51,1.46s3.14-3.16,4.7-3.54L29,76.1a14,14,0,0,1,.08,6.21c-.31,1.87,2.34,2.7,2.89.8a38.69,38.69,0,0,1,4.47-10l-2.79-.76a93.89,93.89,0,0,1-1.43,12.74c-.35,1.87,2.38,2.69,2.89.8.8-3,3.15-14.45,6.84-14.74l-1.5-1.5a382.72,382.72,0,0,0,4.05,40.4l2.89-.8a77.66,77.66,0,0,1,4.89-42.4c.57-1.41-1.55-2.52-2.51-1.46a8.82,8.82,0,0,1-4.68,2.69c-1.89.41-1.09,3.31.8,2.89Z"/><path d="M94.16,79.1c-5.42,10.14-3.87,20,1.15,29.87a72.92,72.92,0,0,1,8.08,40c-.17,1.92,2.83,1.91,3,0a73.27,73.27,0,0,0-4.7-33.32c-2-5-4.92-9.52-6.73-14.55a25,25,0,0,1,1.79-20.44c.91-1.7-1.68-3.22-2.59-1.52Z"/><path d="M137.47,135.19c16.13,2.87,32.71.19,46.3-9.22,1.57-1.1.07-3.7-1.52-2.59-12.91,8.94-28.63,11.65-44,8.91-1.89-.33-2.7,2.56-.8,2.9Z"/><path d="M160.28,174.05a170.68,170.68,0,0,0,26.81-2.16c1.42-.23,1.45-2.7,0-2.9a45.4,45.4,0,0,0-9.54-.27c-1.91.14-1.93,3.14,0,3a41.3,41.3,0,0,1,8.75.17V169a164.39,164.39,0,0,1-26,2.06,1.5,1.5,0,0,0,0,3Z"/><path d="M114.8,164.43l-5.52-2.22-.8,2.89a166,166,0,0,0,33.73,7.82c1.91.24,1.89-2.76,0-3a162.49,162.49,0,0,1-32.93-7.71c-1.86-.64-2.55,2.19-.8,2.89l5.53,2.22c1.79.72,2.57-2.18.79-2.89Z"/><path d="M107.68,162l-2.12,2.15,2.51.66-5.52-17.05a1.51,1.51,0,0,0-3,.4q-.39,8.52-.1,17.05l2.94-.4q-1.72-6.47-3-13c-.35-1.77-2.79-1.16-2.94.4a35.25,35.25,0,0,0,1.06,12.89l1.85-1.84a5.75,5.75,0,0,1-3.87-2.54c-1.06-1.61-3.66-.11-2.59,1.51a8.47,8.47,0,0,0,5.66,3.92,1.53,1.53,0,0,0,1.85-1.85,32.86,32.86,0,0,1-1-12.09l-3,.4q1.31,6.57,3,13a1.51,1.51,0,0,0,3-.4q-.3-8.53.1-17.05l-2.95.4,5.52,17.05a1.52,1.52,0,0,0,2.51.66l2.12-2.14c1.36-1.38-.76-3.5-2.12-2.13Z"/><path d="M269.1,78.07c-4.69,1.28-5.78,6.05-3.18,9.86,3.29,4.82,8.23,7.13,13.92,5.26,3.92-1.28,8.79-4,6.34-8.82-1.12-2.18-3.38-3.19-5.55-4.05a27.8,27.8,0,0,1-9.58-5.91c-1.39-1.35-3.52.77-2.12,2.12A28.86,28.86,0,0,0,274.74,81c2.14,1.2,4.8,1.68,6.81,3,5.64,3.71-2.44,7-5.88,7a7.8,7.8,0,0,1-5.43-2.48c-2-1.94-4.69-6.31-.34-7.5a1.5,1.5,0,0,0-.8-2.89Z"/><path d="M333.64,69.36c-.93,1.45.19,2.93,1.71,3.31,2.24.55,5.3-.9,7.27-1.86,4.2-2,9.06-6.37,6.73-11.46-.81-1.75-3.4-.23-2.59,1.52,2.2,4.81-10.25,9.88-10.72,8.8v1.51l.19-.31c1-1.63-1.55-3.13-2.59-1.51Z"/><path d="M280.1,101l-16.93,1c-5.44.32-11.51,1.31-16.86-.14-5.15-1.39-8.93-5.11-12.12-9.21-1.87-2.41-3.17-3.72-2.34-6.74.91-3.34,3.3-6.53,5.55-9.08a1.51,1.51,0,0,0-1.46-2.51c-3.41,1-4.59,3.68-6,6.69s-3,6.86-7.57,4.75c-4-1.86-4.09-7.26-3.94-11,.08-1.73-2.46-2-2.94-.4L214,79.25c-.7,2.27-.76,4.41-3.43,3.91-4.39-.83-5.6-7.42-4.7-10.83l-2.89-.8-2.23,9.92,2.2-.9A45.3,45.3,0,0,1,190.54,71c-1.25-1.37-3,.37-2.36,1.81a45,45,0,0,0,6,10.25c3.19,4.08,9.51,7.68,9.87,13.38.28,4.47-4.25,10.78-7,14a39.51,39.51,0,0,1-12.72,9.41c-9.11,4.55-19.31,7.75-29.1,10.51-11.1,3.13-22.51,4.75-33.83,1.78a1.5,1.5,0,0,0-.79,2.89c12.13,3.19,24.42,1.4,36.3-2,11.16-3.21,23.3-6.8,33.25-13,8.64-5.33,15.59-14.09,17.08-24.37.74-5.12-2.91-6.57-6.27-9.65a42.09,42.09,0,0,1-10.2-14.73l-2.36,1.82a47.27,47.27,0,0,0,13,10,1.51,1.51,0,0,0,2.2-.89l2.23-9.92c.42-1.88-2.4-2.68-2.89-.8-1.47,5.53.86,11.82,6.21,14.37,7,3.31,7.76-6,9.22-10.78l-2.95-.4c-.25,6.09,1.54,14.43,9.17,14.61,8.1.19,6.06-10.47,12.1-12.16l-1.46-2.5c-2.75,3.12-8.12,9.82-7.25,14.35.38,2,3.15,4.64,4.38,6.17a33.27,33.27,0,0,0,6,6.06c5.2,3.87,11.13,4.4,17.42,4.13,8.08-.34,16.16-.92,24.24-1.39,1.91-.11,1.93-3.11,0-3Z"/><path d="M266.46,104.6a19.83,19.83,0,0,1-6.41,18.92c-6.1,5.32-14.75,4.93-22.38,5-14.62.19-33.35-3.43-37-20.25-.41-1.88-3.3-1.08-2.89.8,4.28,19.75,26.71,22.92,43.53,22.36,8.5-.28,16.75-.94,22.74-7.68a22.81,22.81,0,0,0,5.3-20c-.39-1.89-3.28-1.09-2.89.8Z"/><path d="M252.89,126.93c-5.36,5.49.73,13.64-4.93,19.4-6.81,6.95-19.13,6.83-27.69,4.09-4.19-1.34-8.09-3.43-12.44-4.32-3.58-.74-7.28-.81-10.83-1.7-10.06-2.52-12.38-11.87-13.95-20.9-.33-1.9-3.22-1.09-2.89.8,1.35,7.75,3.3,16.72,10.7,21,3.65,2.08,7.83,2.52,11.91,3.07,6,.82,11,3.15,16.7,5,8.56,2.76,19.22,2.71,27.07-2.1a15.4,15.4,0,0,0,6.78-7.77c1.48-4.3-1.67-10.95,1.69-14.39,1.35-1.38-.77-3.5-2.12-2.12Z"/><path d="M233.61,153.18l-.19-.23v2.12l.29-.27h-2.12c1,1-.49,6.35-.75,7.44a21.71,21.71,0,0,1-2.94,7c-2.68,4-7.05,7.08-12,7.35-7.87.44-16.85-5.43-23.06-9.83-13-9.19-22.75-22.64-25.08-38.57-.28-1.9-3.17-1.09-2.89.8,3,20.45,18,37,36,46.1,8.35,4.22,17.48,6.88,25.43.33A22.94,22.94,0,0,0,233.74,163c.63-2.63,2.15-8.18,0-10.36a1.53,1.53,0,0,0-2.12,0l-.29.27a1.53,1.53,0,0,0,0,2.12l.19.23c1.25,1.47,3.36-.66,2.12-2.12Z"/><path d="M189.65,166.85c-4.2-2.76-10.2-2.26-15-2.42-6.8-.23-13.6-.14-20.4-.2-13.6-.13-27.17-1-39.95-6-1.79-.71-2.57,2.19-.8,2.89,11.33,4.47,23.35,5.75,35.44,6,6.21.16,12.42.09,18.62.15,5.88.06,15.56-1.16,20.6,2.15,1.62,1.06,3.13-1.53,1.52-2.59Z"/><path d="M140.88,172.64c5,3.55,15,2.83,20.84,2.67a95.67,95.67,0,0,0,20-2.76c1.6-.39,1.31-3.13-.4-3-23.61,2.44-48,1.13-69.64-9.32L110.51,163a212.85,212.85,0,0,0,38,8.86c11.75,1.6,23.91,2.63,35.17-1.85a1.5,1.5,0,0,0-.8-2.89,102.38,102.38,0,0,1-24.49.46c-7.7-.81-15.19-2.88-23-2.45-1.6.09-2.14,2.58-.39,2.94a132,132,0,0,0,47.84,1.08c1.9-.3,1.1-3.19-.79-2.89a128,128,0,0,1-46.26-1.08l-.4,3c8.37-.47,16.52,1.92,24.82,2.62A106.34,106.34,0,0,0,183.7,170l-.8-2.89c-11.65,4.64-24.41,3.23-36.52,1.42a212.23,212.23,0,0,1-35.07-8.43c-1.59-.52-2.7,2-1.15,2.74,22.18,10.7,47,12.23,71.15,9.73l-.4-2.95a89.55,89.55,0,0,1-35.71,1.56c-1.87-.31-5.09-1.52-6.57.33-1.08,1.35-.54,2.79.73,3.69,1.58,1.11,3.08-1.49,1.52-2.59Z"/><path d="M178.09,133.15a6.19,6.19,0,0,0,.54-2.29,1.51,1.51,0,0,0-1.9-1.45l-5.91,2.39,1.45,2.51a28.68,28.68,0,0,1,6.86-4.54l-1.82-2.36L170.55,135c-.93,1.05-.05,3,1.46,2.51a15.88,15.88,0,0,0,6.57-4c1.39-1.38-.67-3.36-2.12-2.12l-2.34,2,2.36,1.82c3.72-7.26,9.6-12.66,15.63-18,1.45-1.29-.67-3.37-2.12-2.12-6.4,5.5-15.19,11-17.13,19.84A1.51,1.51,0,0,0,175.6,136l1.59-2.8c.68-1.2-.8-3-2.05-2.05a19.71,19.71,0,0,0-5.56,6.38l2.35-.3c-5-5-12-4.65-18.52-3.42l.8,2.9a13.15,13.15,0,0,1,14.65,3.11l1.82-2.35a43.65,43.65,0,0,0-22.22-5.79,1.5,1.5,0,0,0,0,3,40.51,40.51,0,0,1,20.7,5.38,1.51,1.51,0,0,0,1.82-2.36,16,16,0,0,0-17.57-3.89,1.51,1.51,0,0,0,.8,2.9c5.38-1,11.39-1.51,15.6,2.64a1.52,1.52,0,0,0,2.36-.3,16.36,16.36,0,0,1,4.48-5.31l-2.05-2.05L173,134.52l2.74,1.16c1.78-8.06,10.49-13.48,16.36-18.52L190,115c-6.22,5.5-12.27,11.11-16.1,18.59a1.5,1.5,0,0,0,2.35,1.82l2.34-2-2.12-2.12a12.74,12.74,0,0,1-5.25,3.26l1.46,2.5,6.76-7.57a1.5,1.5,0,0,0-1.82-2.35,31,31,0,0,0-7.46,5c-1.06.95.06,3.07,1.46,2.51l5.92-2.39-1.9-1.45-.43,1.5c-.74,1.78,2.16,2.56,2.89.79Z"/><path d="M206.28,95.65c4.24-4.68,10.11-6.37,16-7.91a1.51,1.51,0,0,0,0-2.89c-4.36-1.7-9.53.57-13.82,1.62l1.15,2.74a13.57,13.57,0,0,1,6.47-2.57c1.72-.24,1.24-2.93-.39-3a37.64,37.64,0,0,0-7.93.73c-1.79.35-1.15,2.78.4,3l2.88.32v-3c-3.2,0-5.51-4.49-8.3-5.76A1.5,1.5,0,0,0,201,81.28c.63.68,2.83,3.8,3.42,2.92-.24.36-4.86-3-5.26-3.28-1.2-.91-2.85.85-2.05,2l2.55,3.82,2-2.05-4.13-3.16c-1.21-.92-2.84.86-2.05,2.06a6.55,6.55,0,0,0,2,2.08c1.54,1.16,3-1.44,1.51-2.59l-.9-1-2.06,2,4.13,3.16c1.21.92,2.85-.86,2.06-2l-2.55-3.82-2.05,2.05c2.36,1.79,6.65,5.49,9.77,3.68a1.47,1.47,0,0,0,.74-1.29c-.18-2.71-3.32-4.88-5-6.74l-1.82,2.36c3.93,1.78,5.05,6.14,9.82,6.17,2,0,1.87-2.8,0-3l-2.88-.32.4,2.94a32.38,32.38,0,0,1,7.13-.62l-.4-3a15.17,15.17,0,0,0-7.19,2.88,1.51,1.51,0,0,0,1.15,2.74c3.66-.89,8.61-3,12.23-1.62V84.85c-6.44,1.68-12.76,3.6-17.35,8.68-1.29,1.43.83,3.56,2.12,2.12Z"/><path d="M267.78,108.35l-.93-2.73c-.43-1.25-2.67-1.6-2.89,0a21.85,21.85,0,0,1-7.57,13.94l2.12,2.12a17.13,17.13,0,0,0,4.29-15.39c-.36-1.82-2.74-1.13-2.94.39a38.46,38.46,0,0,1-7.69,18.42l2.74,1.16,2.78-11.14A1.5,1.5,0,0,0,255,114l-4.38,7.7a1.5,1.5,0,0,0,2.59,1.52l4.38-7.71-2.74-1.15L252,125.46a1.51,1.51,0,0,0,2.74,1.15,41.24,41.24,0,0,0,8.1-19.93l-2.95.4a14,14,0,0,1-3.52,12.48,1.5,1.5,0,0,0,2.12,2.12,24.3,24.3,0,0,0,8.34-15.26H264l.92,2.73c.62,1.82,3.52,1,2.9-.8Z"/><path d="M267,112.25a15.82,15.82,0,0,0,1-5,1.51,1.51,0,0,0-2.95-.39,22.15,22.15,0,0,1-8.89,13c-1.58,1.09-.08,3.69,1.51,2.59A25.24,25.24,0,0,0,268,107.7l-2.94-.4a13.36,13.36,0,0,1-.91,4.15c-.68,1.81,2.22,2.59,2.9.8Z"/><path d="M213.91,122.73c6.37,5.8,15.35,4.16,23.25,5.39,6.53,1,12.79,1.81,18.27-2.53,1.52-1.2-.62-3.31-2.12-2.12-5.36,4.24-12.2,2.12-18.3,1.29-6.4-.87-13.79.58-19-4.15-1.43-1.3-3.56.82-2.13,2.12Z"/><path d="M249.62,131.9l-.85-1.42a1.5,1.5,0,0,0-2.74,1.15c1.29,4.48,3.48,11.53-1.19,14.66-4.2,2.81-10.69,2.51-15.59,2.12-1.92-.15-1.91,2.85,0,3,5.23.41,14.77.88,18.71-3.41,4.26-4.63,2.51-11.82,1-17.16L246.18,132l.85,1.42a1.5,1.5,0,0,0,2.59-1.51Z"/><path d="M230.84,154.53c.6-1.31.74-1.63.21-3a1.51,1.51,0,0,0-3,.39,44.5,44.5,0,0,1-8.95,24.93c-1.15,1.55,1.45,3,2.59,1.52a47.39,47.39,0,0,0,9.36-26.45l-2.94.4.09.69c-.79,1.74,1.79,3.27,2.59,1.51Z"/></g></svg>