<svg id="graphic-island_Image" data-name="graphic-island Image" xmlns="http://www.w3.org/2000/svg" viewBox="0 0 900 983"><defs><style>.cls-1{fill:#8fe0e1;}.cls-2{fill:#080a07;}.cls-3{fill:#010100;}.cls-4{fill:#030402;}.cls-5{fill:#131211;}.cls-6{fill:#040404;}.cls-7{fill:#58924a;}.cls-8{fill:#90e0e1;}.cls-9{fill:#161919;}.cls-10{fill:#050503;}.cls-11{fill:#0e120d;}.cls-12{fill:#e89675;}.cls-13{fill:#91e1e2;}.cls-14{fill:#15100f;}.cls-15{fill:#161c14;}.cls-16{fill:#151311;}.cls-17{fill:#181818;}.cls-18{fill:#e19374;}.cls-19{fill:#0c0c0c;}.cls-20{fill:#1f2327;}.cls-21{fill:#0f0f0f;}.cls-22{fill:#121212;}.cls-23{fill:#1a1a1a;}.cls-24{fill:#161616;}.cls-25{fill:#101010;}.cls-26{fill:#414141;}.cls-27{fill:#e7e259;}.cls-28{fill:#2a2a2a;}.cls-29{fill:#dcbd44;}.cls-30{fill:#9fb0ba;}.cls-31{fill:#413c29;}.cls-32{fill:#7d7d7d;}.cls-33{fill:#fefefe;}.cls-34{fill:#fdfefe;}.cls-35{fill:#fbfdfd;}.cls-36{fill:#d7b89c;}.cls-37{fill:#e99675;}.cls-38{fill:#a9703d;}.cls-39{fill:#a8703d;}.cls-40{fill:#fafafa;}.cls-41{fill:#568d47;}.cls-42{fill:#cbae94;}.cls-43{fill:#497b3e;}.cls-44{fill:#ccad91;}.cls-45{fill:#395c31;}.cls-46{fill:#528945;}.cls-47{fill:#44723a;}.cls-48{fill:#37321b;}.cls-49{fill:#538b46;}.cls-50{fill:#ceaf93;}.cls-51{fill:#a27247;}.cls-52{fill:#447239;}.cls-53{fill:#233b1e;}.cls-54{fill:#45733a;}.cls-55{fill:#9d654f;}.cls-56{fill:#497a3d;}.cls-57{fill:#b99f87;}.cls-58{fill:#4b7e3f;}.cls-59{fill:#766556;}.cls-60{fill:#bbd6f0;}.cls-61{fill:#f8d031;}.cls-62{fill:#f7cf31;}.cls-63{fill:#f3cc30;}.cls-64{fill:#e4bf2e;}.cls-65{fill:#ebc52f;}.cls-66{fill:#f1cb35;}.cls-67{fill:#e9c32e;}.cls-68{fill:#eac42e;}.cls-69{fill:#f0c92f;}.cls-70{fill:#deba2c;}.cls-71{fill:#e6c12d;}.cls-72{fill:#e5c02d;}.cls-73{fill:#ebc52e;}.cls-74{fill:#dab72b;}.cls-75{fill:#f3f2f2;}.cls-76{fill:#3b320c;}.cls-77{fill:#c3a427;}.cls-78{fill:#a68b21;}.cls-79{fill:#bfa026;}.cls-80{fill:#cfb244;}.cls-81{fill:#aa8e22;}.cls-82{fill:#766317;}.cls-83{fill:#8d761c;}.cls-84{fill:#a48920;}.cls-85{fill:#8e886f;}.cls-86{fill:#756217;}.cls-87{fill:#ad9122;}.cls-88{fill:#594b12;}.cls-89{fill:#5d5225;}.cls-90{fill:#9f851f;}.cls-91{fill:#a18720;}.cls-92{fill:#141312;}.cls-93{fill:#e49373;}.cls-94{fill:#d38a6d;}.cls-95{fill:#a36952;}.cls-96{fill:#815341;}.cls-97{fill:#57392d;}.cls-98{fill:#704939;}.cls-99{fill:#905d49;}.cls-100{fill:#508543;}.cls-101{fill:#4b7d3f;}.cls-102{fill:#416c36;}.cls-103{fill:#ebcec2;}.cls-104{fill:#e7cbbf;}.cls-105{fill:#e8ccc0;}.cls-106{fill:#574c48;}.cls-107{fill:#d6b89c;}.cls-108{fill:#ae9990;}.cls-109{fill:#fcf543;}.cls-110{fill:#d4b497;}.cls-111{fill:#050607;}.cls-112{fill:#070808;}.cls-113{fill:#0f1214;}.cls-114{fill:#070809;}.cls-115{fill:#0a0b0d;}.cls-116{fill:#08090a;}.cls-117{fill:#f2f3f2;}.cls-118{fill:#131518;}.cls-119{fill:#171411;}.cls-120{fill:#080706;}.cls-121{fill:#080707;}.cls-122{fill:#0f0d0c;}.cls-123{fill:#0d0b0b;}.cls-124{fill:#0e0d0c;}.cls-125{fill:#221d1c;}.cls-126{fill:#9fb6cc;}.cls-127{fill:#a4bcd3;}.cls-128{fill:#92a7bc;}</style></defs><title>graphic-island</title><path class="cls-1" d="M837.4,772.63a58.77,58.77,0,0,1-26.74,6.12c-16.66,0-33.24,1.17-49.84,2.2-5,.31-6.36,3.89-7.55,7.32-.79,2.26,1.59,3.26,3.72,3.66,19.19,3.6,38.29,2.49,57.47-.43,8.82-1.34,17.78-1.64,26.65-3.15,6.79-1.16,11.88,4.41,17.43,7.62a13.4,13.4,0,0,1,6.31,6.81c1,2.56.51,4.35-2.29,4.79-14.86,2.31-28.66,9.69-44.27,8.73-4.71-.29-9.59.69-14.42.7-2.09,0-4.42.41-5.35,2.17-2.29,4.35-6.4,4.28-10.22,4.72-15.33,1.8-30.68,3.42-46,5.15a34,34,0,0,0-4.87,1c-7.42,2-8.57,6.05-3.23,11.69-6.58,2.27-13.51,1.85-20.18,3.1-9,1.67-18.15,2.45-26.13,7.52a7.37,7.37,0,0,1-4.86.72c-5.91-.63-11.53,1.07-17.25,2-2,.32-3.94,1-3.87,3.67a3.77,3.77,0,0,0,3.82,3.89c4.23,0,7.72,2.67,12,2.74a13.13,13.13,0,0,1,8.68,3.36c2.36,2.11,5.43,2.17,8.46,2.39,19.63,1.42,39.29.51,58.93.8,5.83.09,11.66.1,17.49.24,2.44.06,4.84.47,4.85,3.72s-1.58,5-4.83,5.15c-17.41,1-34.83,2-52.25,2.85-14.7.69-29.17-1.48-43.55-4.24a25.09,25.09,0,0,0-6.93-.54c-12.47,1.15-24.27-3.29-36.5-4.13-1.46-.11-2.26-1.4-3.42-1.86-2.58-1-5.34-3-6.69,2-1,3.89-5.2,3.55-8.4,3.86-7.12.68-13.94,2.59-21.28,4,3.45,6.36,9.42,6,14.57,6.89,7.21,1.2,14.48,1.73,21.82.29,4-.78,5.94,2.16,6.22,5.55.31,3.69-2.89,3-5.32,3.5-7.46,1.42-14.74-.59-22-.68-8.07-.1-16.37,1.28-24.39.37a58.73,58.73,0,0,0-27.74,3.77c-1.9.7-3.28,1.12-2.64,3.71a5.4,5.4,0,0,1-2.32,5.74c-5.06,3.4-10.15,6.89-16.33,8-1.49.27-3,.15-3.89,1.69-1.91,3.39-5.32,3.86-8.31,3-9.18-2.75-18.52-1.39-27.78-1.67-8-.24-9.58-2.43-6.79-10.07-8.57,0-17,.16-25.5-.06-4.88-.13-9.57-.92-11.87-6.41s-1.52-8.54,4.1-11.47c2.06-1.08,4.25-1.89,6.38-2.83,1.46-.64,2.74-1.49,2.29-3.35a3.46,3.46,0,0,0-3.15-2.8c-12.06-1.11-24.07-3.17-36.24-1.42-4.27.61-8.63,0-12.9,1.14-2.19.58-3.9-.82-4.41-3.07s-.11-4,2.29-4.87c3.43-1.26,6.89-2.47,10.26-3.87a45.43,45.43,0,0,0,7.59-3.76c2.37-1.58,4.37-3.68,3.85-7s-3.2-4.34-5.92-5.32a14.8,14.8,0,0,0-5.89-.79c-8.74.46-17.18-1.52-25.69-3-2.3-.4-2.66-1.08-1.92-3.28,1.81-5.37-.56-8.73-6.18-8.9-16.82-.51-33.53,1.25-50.25,2.78-13,1.2-25.88-.43-38.76-2.06q-21-2.65-42-4.65c-9.73-.93-19.22-4.19-29.16-3.11-7.11-5.7-15.54-1.32-23.1-3.06-5.1-1.18-10-3.16-15.33-3.44a14.57,14.57,0,0,0-3-.33c-11.15,1.93-20.27-4.07-30-7.67-3.21-1.18-3.42-3-1-5.63,4.07-4.41,3.55-8.68-2.18-10.71-11.66-4.14-23.19-9-36-9.13-11.59-.14-23.3,1.64-34.75-1.88s-23-6.55-34.41-10.16c-8.94-2.82-11.19-10.45-5.23-17.52,5.3-6.29,11.7-10.9,20.56-10.42A14.58,14.58,0,0,0,68,753c10.9-6.34,22.79-5.2,34.55-4.51,3.17.19,6,.48,8.25-2,1.69-1.86,4-1.28,6-2,2.25-.77,4.55-1.41,5-4.2.5-3-1.29-4.81-3.55-6-3.06-1.65-6.39-2.82-9.49-4.41C96.07,723.37,82.89,718,68.54,716c-1.33-.19-3.12-.24-2.86-2s2.27-1.19,3.36-1c11.79,2.37,23.82.82,35.76,2.21a139,139,0,0,0,26.71.31c7.29-.58,15,.19,20.63,6.35,1.8,2,4.69,1.38,6.87,2.54,1.16.62,3.05.34,2.39,2.85-1.2,4.52,1.94,5.92,5.51,6.47a16.19,16.19,0,0,0,6-.12c8.75-2,17.18.33,25.68,1.68,4.72.75,3.65,6,6.08,8.71,1.27,1.41,1.87,3.34,4,4,2.59.81,2.68,2,.63,3.8-9.15,8-19.56,13.39-31.87,12.83a172.67,172.67,0,0,0-21.82.1c-15.4,1.24-30.82,2.14-46.24,3.16-2.21.14-5.34.36-5.5,2.4-.22,2.76,3.26,2.67,5.32,3.42,10.18,3.7,20.52,2.09,30.94,1.21,8.71-.74,17.46-1.18,26.18-1.85,7.28-.56,14.65-.91,21.91-.88,20.55.07,41.14.63,61.65,2,14.22.92,28.47,4.12,42.62,3.35,16.87-.92,33.57,1.12,50.36.6,3-.1,5.95.54,8.92.8a2.2,2.2,0,0,1,2.35,2c1.88,9.1,8.74,14,16.69,15.77,15.37,3.47,31,5.56,46.95,3.46,4.59-.6,9.21-.42,13.68,1.67a86.34,86.34,0,0,0,20.43,6.34,36,36,0,0,0,8.86.19c23.54-1.26,46.85-7.25,70.49-5.16,21.91,2,43.4-2.4,65.15-2.49,16.1-.08,32-3.28,47.92-5.52,6.71-.94,13.61.93,20.31-1.27,3.53-1.16,6.93-2.31,9.32-5.4,2.18-2.83,5.39-3.81,8.7-4.42,10.11-1.84,20.3-3.25,30-6.85a24.73,24.73,0,0,1,8.85-1.21c17,.08,34,0,50.79-2.32,17.49-2.42,34.94-4.3,52.61-3.86C828.91,770,832.6,771.14,837.4,772.63Z"/><path class="cls-1" d="M876.24,637.1c1.23,1,1.11,3,3.32,3.53-7,1-9.47,6.5-12.38,11.07-2.57,4-5.79,5.79-10.24,6.55-5,.86-10.27,1.2-14.21,5.29-.74.76-2.5.52-3.86.76,3.74,2.68,4.34,5.87,1.28,9a14.12,14.12,0,0,0-4.44,9.16c-.23,2.68,3.55,10.64,6.11,11.35a14.27,14.27,0,0,1,6.72,4.06c1.94,2,8,3.69-.34,5.76-2.72.67-3.78,5.73-3.26,9.16.6,3.87-.47,6.09-4.23,6.94,1.92,4.43,4.61,7.34,9.17,8.95a6.38,6.38,0,0,1,4.13,6.81c-.15,1.3.27,2.68,1.75,2.37,6-1.27,11.18,3.81,17.32,2.16,2.32-.63,4.79.14,4.89,3.42.1,3-2.08,4.22-4.46,4.4a71.24,71.24,0,0,0-10.2,2c-3.36.76-3.9,1.94-2.49,4.67,1.74,3.35.47,4.68-3,4.54-8.63-.36-17.27.55-25.92-.76-7.5-1.13-14.68,2.38-22.17,2.45-1,0-2,.08-2.94.12-5.29-1-10.47.51-15.64,1-10.91,1.06-21.81,2.12-32.75,2.61-3.17.14-6.21,1.29-9.4,1-8.7,1.12-17.49.72-26.2,1.74-5,.59-9.36-1.71-13.9-3.21-2.93-1.91-2.44-5-2.31-7.69A69,69,0,0,0,702,728.41c-4.49-12-12.92-20.77-21.28-29.81-15.43-16.68-34.18-29.66-50.26-45.59-2-2-4.34-3.64-6.37-5.62-1.16-1.13-2.73-2.38-2-4.19.65-1.55,2.5-1.4,4-1.6,9.74-1.28,19.57-1.44,29.36-2.06,16.46-1,33-.32,49.4-1.23,18.33-1,36.65-1.08,54.92-.55s36.65,0,54.9,1c14.67.82,29.29.58,43.93.67C864.52,639.5,870.55,639.31,876.24,637.1Z"/><path class="cls-1" d="M264.06,717.66a45.17,45.17,0,0,0-17.94-2c-9.21.75-18.57-.45-27.86-.5-5.81,0-11.62.41-17.42.8-8.53.58-16.28-2-24.12-5-15-5.78-30.38-9.17-46.69-7.27-4.13.48-8-2.54-12.33-3-16-1.67-31.45-6.3-47.31-8.87a118.9,118.9,0,0,1-28.65-8c-.75-.33-1.87-.6-2.12-1.2-3.31-7.86-10.84-8-17.5-9.41-3.52-.73-6.29-2-8.07-5.11a8.89,8.89,0,0,0-4.7-4.31c-3.28-1.1-4.55-3.51-5.17-6.56,1.24-1.58,3-1.26,4.63-1.16C22,656.92,35,654.58,48,653.33a412.07,412.07,0,0,1,61.33-1.54c14.79.79,29.59.7,44.38,1.37,13.37.61,26.82-1.65,40.29-1.64a336.83,336.83,0,0,1,44.2,2.88,43.65,43.65,0,0,0,5,.11c22.61.32,45.21,2,67.83.12a15.92,15.92,0,0,1,6.92.53c3,2.41.2,4-1.15,5.08-7.7,6.36-14,14.24-21.64,20.55-9,7.42-15.33,16.88-22.19,26-2.19,2.92-4,6.09-6.11,9.09C266.25,716.78,265.91,718.53,264.06,717.66Z"/><path class="cls-2" d="M452.72,446.85c2.23-1.25,1.78-3.42,1.66-5.34-.7-11.46-2.24-22.93-2.07-34.38.25-16.45,1.69-32.89,2.67-49.32.2-3.33.92-6.64.84-9.95-.51-22.55,7.76-42.25,19.19-61.05,10.36-17,21.6-33.37,37.55-45.65,19.3-14.86,39.34-28.56,63-35.87,7.66-2.37,15.59-.65,24-2.44-5.34-6.95-9.8-14.23-15.71-20-6.29-6.19-12-12.93-18.36-19-9.71-9.27-20.63-15.54-34.65-14.84-6.33.32-13.1.94-18.85-1.32-14.31-5.64-29.2-1.55-43.62-3.85a9.39,9.39,0,0,0-3,.17c-5.87,1-5.49.82-6.1-.7-1-2.44-3.35-4.32-.61-7.37,1-1.15-2.18-3.87.61-6-13.83,3.15-28,3.2-40.91,9.3-1.5.71-6.11,5.77-6.07-1.8,0-1.09-1.66-.51-2.56-.54-4.32-.12-8.65-.11-13-.28-1.1-.05-2.39-.27-2.79-1.67s.64-2,1.53-2.82a12.88,12.88,0,0,1,4.8-2.42c8.73-2.67,17.38-5.58,26.57-8.58-1.75-1.7-3.58-1.51-5.22-1.48-25.34.42-50.54-3.08-75.88-2.72-1.4,0-3.39.52-3.68-1.54s1.73-2,3.13-2.3c27.34-5.09,54.43-11.68,82-15.47,29-4,57.82-9.72,87.36-9.17,13.18.25,24.07,4.59,33.16,13.68,5.05,5,9.52,10.68,14.25,16,3.47,1.56,4.82,5,6.66,7.87,2.51,3.93,5,7.87,7.79,11.61,1.61,2.15,3.22,2.89,6,1.84,5.86-2.24,11.82-1.58,17.5.69,2.52,1,4.54.15,6.74-.47,2.67-.76,5.11-.78,6.1,2.4.86,2.74,5.25,2.07,4.93,6.38,3.34-2.78,6.13-4.13,10.11-1.82,3.41,2,3.54,4,2.24,6.88a86,86,0,0,1-7.92,13.86c-.91,1.17-.87,2.66-1.34,4-1.73,2.59-3.56,4.64-6.37,1.13-1.69-9.86-8.12-15.39-16.89-19.12-3.61-1.54-6.76-4.13-10.78-5.47,9.63,8.62,17.89,18.22,25.82,28.13a3.91,3.91,0,0,1,.2,1.52,2.09,2.09,0,0,1-2.07,2c-2-.26-3.21-1.65-4.44-3a396.58,396.58,0,0,0-29.43-29.85c-5.5-5-9.24-11.38-13-17.64-5.75-9.51-13.15-17.72-21.08-25.23-6.66-6.32-15.17-9.52-24.76-10.6-23-2.57-45.05,3.23-67.48,5.65-26.86,2.9-53.34,8.11-79.74,13.75-2.54.55-5.16.13-6.76.6,6,.49,12.94-.06,19.77.59,17,1.63,34,.44,50.93.86a47.88,47.88,0,0,1,5.49.17c1.5.22,3.06.5,3.38,2.38s-.93,2.74-2.35,3.38a99.9,99.9,0,0,1-13.54,5.08c-7.21,2.06-14.26,4.61-22.2,7.11,7.19-.51,13.34-1.31,19-4.88,6.34-4,14-5.29,20.4-9.27a6.3,6.3,0,0,1,3.39-.73c1.67,0,3.56,0,4.16,1.95.69,2.29-1,3.36-2.76,4.1-6.43,2.75-13.31,4.12-17.08,5.5,9.29-4.46,22.72-4.7,35.14-8.86,1.74-.59,3.71-1.11,5.19.4,1.68,1.7.74,3.76.23,5.67-.81,3-3.45,4.74-5.19,7.24,3-.62,5.46-4.07,8.68-1.5,1.67,1.33.83,3-.4,4.49,7.94-5.06,17-5.52,25.93-6.26,1.78-.15,3.71-.54,5.11,1.16a2.51,2.51,0,0,1,.07,2.25c-1.91,2-4.46,2.05-6.93,2.32a182.75,182.75,0,0,0-18.82,3.47c11.89,1.59,25-2.94,38.35-6.12,2.14-.51,5.19-1.92,6.16.95s-2.35,3.38-4.36,4.31a6.46,6.46,0,0,0-1.91.79c6.32-.81,12.26,1.75,18.67,1,3.42-.41,7.51,1.94,11.35,2.92,1.66.43,3.7,1.48,1.53,3.79-.23.24-.7.36-.58.54.26.42.8.48,1.23.69,18.47,9.29,29.88,26,42.9,41,2.38,2.75,4.72,5.59,6.9,8.54a8.28,8.28,0,0,0,7.33,3.5c3.16-.08,6.34.27,9.47-.23,2.08-.33,4.54-.58,4.07-3.8.53-1.49,1.81-1.68,3.11-1.84a7,7,0,0,1,3,.5c1.78,1.43,3.93,1.44,6.06,1.53,2.56-.19,4.47,3.09,6.87,1.85,2-1,2.26-3.94,3.66-5.8a6.22,6.22,0,0,1,1.71-1.79c11.11-6.2,20.82-14.7,32.52-19.95,1.07-.49,2.1-1,3.31-.45,1.39,3.81-1.14,5.12-4,6.25A100.66,100.66,0,0,0,660,189c4.41,2.67,6.87-1.23,10-2,1.61-.22,3.2-.34,4.35,1.14a30.94,30.94,0,0,1-3.93,3c-3.14,1.69-4.7,3.32-3.69,7.62,1.71,7.21,1.16,7.46,8.55,7.92s14.9,1.53,22.35,2.36c17.49,2,31.7,10.52,44.67,21.65a40.71,40.71,0,0,1,9.78,13.15c8.87,18,13.85,36.86,16.09,56.85,3.39,30.17,4.2,60.48,6.8,90.68.2,2.3.73,4.58.94,6.88.13,1.32,0,2.85-1.56,3.3-1.37.39-1.84-.9-2.61-1.79-3.66-4.22-5.53-9.49-8.11-14.27-5.17-9.57-11.24-18.62-13.94-29.6-5.93-24.07-13-47.87-19.4-71.82-1.4-5.23-2.22-10.61-3.52-17-2.27,4.13-4,7.33-5.77,10.45-1.1,1.88-2.33,3.81-4.87,3.8-2.76,0-3.36-2.37-4.26-4.28-1.69-3.62-3.4-7.23-4.91-10.92-1.13-2.78-2.5-3.42-5.3-1.86-6.6,3.7-8.2,3.36-12-3.39-3.5-6.15-8.88-10.78-12.69-16.65a8.19,8.19,0,0,0-4.51-3c-12-3.92-23.1-10.18-35.22-13.84-2.92-.88-5.34-1-8,.78-1.88,1.3-4.15,2.65-6.33,2.8-6.07.41-8.86,4.34-11.38,9.05-7.84,14.66-17.9,28.07-24.34,43.53a7.43,7.43,0,0,0,0,6.4c3.47,8.82,6.31,17.9,6.11,27.59,0,1.29.08,2.85-1.49,3.39s-2.2-1.11-3.34-2c-3.43,5.17-2.93,10.75-1.73,16.28,2.53,11.71,6.79,23,8,35A209.87,209.87,0,0,1,595,413a1.82,1.82,0,0,1-2.24.12c-1.77-2.56-1.17-5.48-1.12-8.26.29-17.88-.61-35.62-5-53.07-1.18-4.69-2.83-9.23-3.91-14a39.68,39.68,0,0,1,.06-19.28c1.24-4.67,2.46-9.46-1.71-12.65.58,1,2.17,2.4,2.55,4.39.34,1.84-.17,3.35-2,4.12a2.79,2.79,0,0,1-3.82-1.43c-2.31-4.79-5.11-9.4-6.64-14.51-.73-2.45-.7-5.27,3.25-5,.73.05,1.55.88.71-.69s-1.52-3.4.68-4.22,3.69.77,4.63,2.71c.88,1.43,2.37,2.25,3.56,3.54-.67-1.5-2.29-1.78-3.13-2.91-1-1.25-.2-3.12-1.84-4.38a3.57,3.57,0,0,1-.36-5c3.47-4.31,3.29-9.63,4.53-14.56.78-3.08,1.44-5.89,5.11-7.29,2.53-1,3.4-3.94,3.29-6.75-.06-1.31-.73-2.63-.13-3.91s1.74-2.12-1.18-1.8c-2.28.26-2.55-3.1,0-5.28a46.24,46.24,0,0,0,9.13-9.62c-6.15,3.57-11.74,7.95-17.51,12.07a12,12,0,0,1-3.88,2.19c-1.17.3-2.35.41-3.18-.7-.7-.94-.27-1.9.2-2.8a31.63,31.63,0,0,1,7.13-9.51c4.6-3.8,9.33-7.45,15-9.56,3.09-1.16,3.56-.65,2.92,2.9,3.16-4.13,9.22-5.36,8.47-11.72a1.68,1.68,0,0,1,.34-1.26c.68-1.21,2.26-2.56-.86-2.72-17.46-.93-33.92,1.93-49.55,10.48-37.92,20.72-60.08,53.56-73.24,93.5a267.8,267.8,0,0,0-13.13,87c0,3.5.7,5.32,4.74,4.07,2.45-.76,4.48.48,6.19,2.32,4.38,4.7,7.94,9.8,9,16.33a100.76,100.76,0,0,0,2.46,11.72c1.38,4.75,0,8.34-3.61,11.39-1.06-.88-2.59,1.59-3.49-.49,4.64-8.68,1-17.06-1-25.46-.94-3.82-3.35-6.85-6.26-9.43-1.65-1.45-3.46-2.63-5.62-.79a27.33,27.33,0,0,1-.93,4.42c-.52,1.86.75,3.13,1.51,4.56,2.41,4.59,1.52,9.21-2.45,12.34-.38.3-.92,0-1.26-.46-2.56-12.55-4.2-25.16-3.82-38,.77-26.24,4.27-52.05,12.16-77.13,10.6-33.67,26.91-63.75,55.45-85.81,2.1-1.62,1.57-4.29,3.62-5.55,11.38-3.34,20.53-11.33,31.79-15.08a87.3,87.3,0,0,1,26.62-4.26c-17.81-1.69-35.1,5.9-51.59,16.1-2,1.23-4.49,1.29-6.3,2.88-7.73,5.49-14.59,12.12-22.81,17-4.24,2.51-8.33,5.59-7.92,11.51-1.86.55-3.8-1.27-5.63.21s-2.94,3.62-4.5,5.35c-4.37,4.86-4.32,4.9-1.15,10.78.56,1,1.33,2.23.55,3.26-1,1.33-2.47.63-3.62,0-2.21-1.25-4.13-2.76-6.45.17-4.06,5.12-4.94,8-2.77,11.42a18.5,18.5,0,0,1,1.1,1.67c.79,1.58,2.41,3.37.62,4.93-1.59,1.38-3.13-.25-4.33-1.32-2.56-2.31-4.41-1.68-6,1.11-.89,1.6-1.81,3.2-2.83,4.71-2.42,3.6-3.12,6.86.9,9.93,1.26,1,2.7,2.62,1.49,4.29s-3.12.61-4.46-.3c-2.47-1.68-3.92-1.07-4.87,1.64-.66,1.88-1.42,3.73-2.08,5.62-1.05,3-.54,5.54,1.95,7.63a14.17,14.17,0,0,1,2.1,2.14c1,1.37,3.37,2.68,1.93,4.54-1.33,1.71-3.36.38-5-.51-4.05-2.24-4.29-2.16-5,2.47-.78,5-.25,10-.37,15a3.16,3.16,0,0,0,2.09,3.09,9.31,9.31,0,0,1,4,3.63c.58,1,1.27,2.13.45,3.25s-2.13,1-3.17.38c-3.79-2.13-4.81.2-5.11,3.24a118.63,118.63,0,0,0-.11,18.47c.2,3.49,3.23,5.24,5.51,7.4,1.37,1.28,4.07,2.48,2.63,4.6s-3.92.95-5.91-.08a8.2,8.2,0,0,0-3-1.43c-.93,6.18-1.71,12.32-1.27,18.63.32,4.64,3.59,6.88,6.59,9.47,1.65,1.41,3.57,2.46,5.22,3.86,1,.87,2.32,1.95,1.67,3.31-.74,1.57-2.52,1.41-4,1.12-3-.6-5.42-2.44-8.05-4.57,1,7.31-.31,14.44,1.38,21.42C457.29,447.55,455.23,448.48,452.72,446.85Z"/><path class="cls-3" d="M290,380.13a32.5,32.5,0,0,1-3.24-1.27c-1.95-1-5.59-.54-5.37-3.46.25-3.14,3.72-1.92,5.81-2.22,6.25-.91,12.53-1.54,18.8-2.32.94-.12,2.06.06,2.72-1.36-3-1.48-6.34-1.29-9.5-1.83-1.28-.22-2.93-.35-2.92-2.11,0-2.19,1.91-2,3.32-1.95,4.16.24,8.3.69,12.43-.2,1.09-.24,2.5.07,2.95-1.34s-.57-2.17-1.46-2.92c-1.27-1.08-2.65-2-3.9-3.1-1.57-1.35-4.77-2.63-3.41-4.71a13.25,13.25,0,0,1,6.11-4.52c7.21-3,8.55,5.68,13.8,5.64.28,0,.56,0,1.13.07.41-2.09.69-4.21,1.25-6.27.48-1.78-.32-4.73,2.36-4.85,3-.15,2.45,3,3.12,4.9.89,2.46,1.54,5,2.45,8,4.48-3.88,6.7-8.78,9.85-12.95,1.6-2.12,3.1-4.32,4.64-6.5,1-1.44,2.22-2.81,4.08-1.66s.77,2.67.17,4c-1.84,4-3.76,8.05-6.15,13.16,4.76-2.79,8.48-5.07,12.3-7.18,3-1.67,5.59-2.2,5,2.81-.3,2.73.78,3.37,3.08,1.81a69.2,69.2,0,0,0,6.15-4.25c2.62-2.24,3.32-1.23,3.34,1.61a6.77,6.77,0,0,0,.13,2c2.27,7.06,2.38,13.42-5.3,17.67,1.91-.48,3.8-1,5.72-1.43,3.25-.72,4.8.54,3.07,3.61-1.07,1.87-.41,2.15,1,2.68a27.74,27.74,0,0,1,2.75,1.18c6.93,3.6,7.27,7.25,1.12,11.68-1.2.86-2.36,1.79-3.52,2.7-.11.09-.23.29-.19.4s.22.23.35.34c1.62,3.27,4,5.37,7.91,5.08l0,0c1.78,3.48-.65,5.2-2.92,7-.94,1.49-3.59,2.7-.73,4.78,1.38,1,4.11,1.15,3.54,3.52s-3.51,1-5.15,1.95c.24,2.07,7.28,3,1,6.06-2.05,1-4.64-.27-6.7,1.08-.58,1.82,1.11,1.79,1.88,2.44s1.11,2,.94,2c-4-.16-3.76,5.56-7.62,5.37a6.84,6.84,0,0,0-6.37,3.11A103.51,103.51,0,0,1,389,431.93c.81,1.18,3.16-.14,3.33,2,.09,1.17-.82,1.62-1.77,1.93-5-.07-9.87-1.33-14.79-2.13a22.49,22.49,0,0,0-16.56,3.37c-6.73,4.23-13.74,8.1-20.68,12-4.11,2.32-8.95,2.3-13.26,4.2-7.67,3.37-14.13,7.74-18.58,15.17-4.38,7.28-8.75,14.58-12.8,22-3.38,6.2-7.07,11.61-14.12,14.65,1.63.33,2.75-.2,3.81.31a3.59,3.59,0,0,1,2.11,2.61c.27,1.33-.26,2.63-.34,4,2,1.07,5.08-1.19,6.21,1.81a4.17,4.17,0,0,1-2.07,5.52c-1.51.36-2.6-1-4-1-2.88-.06-4,1.94-5,4.16-3.8,8.34-8.41,16.25-13,24.17a19,19,0,0,1-2.24,3.3c-.93,1-2,2-3.44,1-1.85-1.24-.83-2.54.11-3.78,6.33-11.76,14.19-22.76,17.67-36-1.89-.74-3.55,1-5.48,1-1.33,0-2.78.33-3.61-1s0-2.62.87-3.59a28.43,28.43,0,0,1,4.34-4.09c7.55-5.37,12-13,16.21-21a212.71,212.71,0,0,1,13.26-21.61c3.94-5.73,9.94-9.2,16.24-12,2.28-1,4.07-2.18,3.55-5.06,2.2-1.4,4.88-.86,7.18-1.8.88-.36,2.21-.68,1.77-1.93-.5-1.43-1.89-1.28-2.91-.59-2,1.37-3.68,3.32-5.94,4.42a2.54,2.54,0,0,0-.95,0c-1.52.62-2.93,3.35-4.59,1.2-1.48-1.9,1.13-3,2.16-4.39a12.86,12.86,0,0,0,.84-1.67c-2.14,0-3.9,0-5.66,0-1.51-.05-3.15-.14-3.81-1.79s.41-3,1.6-3.88c3.41-2.5,3.58-4.36.16-7.41-2.58-2.3-3.94-6-5.85-9-.82-.9-.59-2-.64-3.07-1.28-1.35,0-5.35-4-3.83-1.1.4-2.2.86-3.23-.12-4.94-3.85-.87-8.51-1.08-12.87-2,.56-1.72,4.93-4.48,3.3s.36-4.07.22-6.43c-1.77.21-3.38.43-5,.6s-3.57.27-4.25-1.61c-.74-2.06,1.09-2.89,2.53-3.65,2.32-1.22,4.7-2.3,7.06-3.45.71-1,1.3-2.09-.44-2.71A39.3,39.3,0,0,1,290,380.13Z"/><path class="cls-3" d="M452.72,446.85c2.17-.3,4.36-.53,6.29-1.71a2.23,2.23,0,0,1,1.35-1.91c5-1.72,7.45-6.59,11.69-9.23,3.55-5.07,5.2-10-.29-15-1.35-1.24.3-1.86,1.49-2.11,2.59-1.55,4.38.22,6.29,1.5,4.9,4.65.42,9.25-1,13.06-4.65,12.88-14.59,19.64-28.19,21.16-2.27.25-4.94.12-6.61,1.85-2.18,2.26-5.76,4.35-4.07,8.26a9.67,9.67,0,0,0,10.79,5.39c9.63-2.57,18.51-6.43,25.12-14.29.43-.51,1-1.26,1.55-1.17,4.22.7,6.91-2.68,10.43-3.79,1.13.1,2.29-1.41,3.37.08-2.19,2.73-4.28,5.46-7.74,6.91a4.73,4.73,0,0,0-3.15,5c.47,1.5,1,3-1.15,3.71a6.42,6.42,0,0,0-6.88.18c-4,2.33-8.24,4.12-12.25,6.4-2,2-5.07.7-7.21,2.32a52.78,52.78,0,0,1-14.92,3.87c-6.19.85-8.32,2.62-9.67,8.9A72.1,72.1,0,0,0,426.93,512c.76,5.25,2.07,10.36-.28,15.66-1.36,3.08,1,5.76,2.62,8.22,2.7,4.07,4.82,8.19,5.21,13.26.26,3.26-.25,5.7-3.19,7.06-3.2,1.49-3.76,3.79-3,6.93C429.6,569,429.5,575,429.31,581c-.22,1.59-.5,3.14-2.36,3.67-3.64-1.34-10.62,1-12.84,4.36a2.83,2.83,0,0,1-2.32,1.57c-6.15-3.27-9.61-9-12.82-14.74-2-3.57-3.76-4.12-6.87-1.78a7.77,7.77,0,0,1-4.62,1.59c-1.7,0-3.68-3-4.71-.67-1.67,3.75-6.67,5.93-5.2,11.25a18.36,18.36,0,0,1,0,10.81,3.52,3.52,0,0,1-2.24,1.67c-2.41.22-3.21-1.17-3.3-3.29-.06-1.61.23-3.38-2-4.27,3,2.27,1.92,4.48.36,6.73-.75,1.07-2.45,2.22.09,3.23a3.65,3.65,0,0,1,.42,2.68c-2.46,2.72-3,7.66-8.18,7.44.63,2.78,4.57,5.58.39,8.78-5.35-3.94-7.46-10-10.18-15.63-1.33-2.76-1.89-5.75-5.16-7.5-1.83-1-2.67-1-4.22,0a111.5,111.5,0,0,1-10,5.61c-4.54,2.15-6.75.8-6.72-4.09,0-6.31-.53-12.67,1-18.89.63-2.6-.34-4.92-.78-7.35a137,137,0,0,0-8.22-28.72c-2.29-5.42-2.63-11.33-4.59-16.82-.95-2.67,2.55-4.85,1-7.79-.51-1-.34-2.57-1.59-2.76-.67-.1-1.91.9-2.24,1.67-1.74,4.11-5.53,6-8.74,8.58-1.47,1.18-2.16,3.9-4.55,3.24s-.55-3.59-1.87-5.32l-2.81,2c-1.58.72-2.59.22-3.06-1.43,2.17-5.67,6.37-6.94,10.71-3.3,4.21-5.14,8.81-10,12.37-15.64,1.07-1.7,2.75-3.22,5-2.17,2,.94,1.74,3,1.64,4.85a64.84,64.84,0,0,0,1.45,17.85c2.93,13.15,5.27,26.43,8.83,39.43,1.4,5.15,3.56,6,7.72,2.79s6.75-7.32,9.24-11.67c1.69-2.94,3.27-5.74,7.18-2.46,1.83,1.53,3.05-.25,4.17-1.4a7.79,7.79,0,0,1,8-2.48c3.66.81,7.45-1.13,11.32-.17,1.6.39,2.44-1.49,3.19-2.77a86.82,86.82,0,0,1,4.93-7.52c1-1.35,2.88-3.41,3.87-2.62,5,4.06,10.15-2,15.17.56,2.71,1.36,4.59-2.14,7.39-2.18,3.78-.05,2.88-3.37,3.25-5.65s1-4.41,2.79-5.69c3.31-2.33,3.41-5.5,2.8-8.9-.79-4.43-1.07-8.92-1.56-13.38-1-8.79,2.31-17.08,3.55-25.61a4.47,4.47,0,0,1,4.07-3.84c2.81-.47,5.25-1.88,8-2.9-5.12-5.09-5.35-6.46-2.3-12.73.21-.44.85-1,.72-1.25-1.27-2.63-3.24-4.53-2.32-8.35,1.08-4.5-4.35-2.27-6.37-4a7.43,7.43,0,0,0-2.37-.78c-1.55-.76-3.7-.22-5.08-2.88a45.8,45.8,0,0,1,12.53-.09c1.93.45,3.87.83,5.78,1.35,6.24,1.68,6.33,2,2.56,7.39C443.56,449.08,448.06,447.25,452.72,446.85Z"/><path class="cls-1" d="M202.11,872.82c9.79-2.69,18.31-2.22,26.67-1.53a124.78,124.78,0,0,0,20.43.52c8.21-.68,15,3.89,22.78,4.68,15.41,1.56,30.79,2.34,46.27.77,13.42-1.37,27-2.12,40.36-.8,5.37.53,10.56,3.59,16.4,2.83a3.41,3.41,0,0,1,2.69,1.93c1.13,4.62,4.59,3.91,7.85,3.77a5.3,5.3,0,0,1,4.54,1.61c1.24,1.41,1.36,3.22-.71,3.33-4.54.25-6.31,4.34-10.23,6.16,6,3.23,11.68,1.18,17.26.58,5-.53,9.72,1.56,14.65,1.89.72.05,1.93.81,2,1.34.45,4.74,5.07,6.27,7.17,9.65,2.39,3.86,5.76,6.33,9.64,8.39,2.25,1.2,4.55,2.73,3.88,5.72-.74,3.32-3.56,3.36-6.36,3.44-4.52.13-8.3-.94-10.16-5.53-.72-1.77-2.15-2.38-3.78-2.91-1.95-.63-4.3-1.67-4.61-3.51-.81-4.78-4.29-4.3-7.68-5.6-10.24-3.91-21.79-2.48-31.49-8.14a2.69,2.69,0,0,0-1.46-.27c-11.38.7-22.83-2.65-34.19.58a13.91,13.91,0,0,1-5.46.26c-14.11-1.84-28.22,1-42.32-.07-4.53-.35-9.3.5-13-3.38-.69-.71-2.54-.37-3.85-.43-2.08-.09-4.29-1.23-3.92-3,1.55-7.5-4.47-5.69-7.66-6-6.95-.59-14-.2-21-.28a10.68,10.68,0,0,1-3.87-.6,2.77,2.77,0,0,1-1.78-3.23c.28-1.39,1.43-1.77,2.64-1.82,3.17-.11,6.34-.06,9.49-.25,1.31-.08,3.5.66,3.44-1.65-.05-1.89-2-1.27-3.21-1.36-12.91-1.06-25.85-1.95-38.31-5.9C204.62,873.84,204.07,873.59,202.11,872.82Z"/><path class="cls-4" d="M674.34,188.15,669,188c-1.75-2.26-.13-3.63,1.35-5,2.56-2.38,5.71-3.92,8.57-5.89,2.15-1.11,3.85-2.58,4-5.21-.25-1.45.8-2.19,1.75-2.75,10.17-6,19.81-13,30.8-17.48,4.18-1.73,4.25-1.69,6.58,2.28.47.81.53,0,.73,0,9.28-2.39,18.12,1.05,22.35,8.67a14,14,0,0,1-1.34-7c.09-1.65,0-3.54,2.07-4.11,2.18-.62,3.35.91,4.36,2.53a8.08,8.08,0,0,1,.91,2.84c-.12-2.05-1.22-3.88-1.27-5.94,0-2.24.07-4.49,2.59-5.4,2.28-.82,3.9.59,5.06,2.28a108.45,108.45,0,0,1,9.3,16.49c-.9-2.38-2.15-4.68-1.84-7.33.16-1.41.7-2.67,2.17-3a2.5,2.5,0,0,1,2.88,1.53c.94,2.26,2.6,2.81,4.84,3.23s3.38,2.57,4.59,4.36c3.25,4.8,6.29,9.74,10.37,14.15a7,7,0,0,1-.79-2.43c-.14-1.51-.34-3.23,1.31-3.95,1.94-.85,3.46.54,4,2.06,2.51,7.35,7.77,12.6,13,18a21.44,21.44,0,0,1,5,8.57c1,3.11,0,4.12-3.09,3.31-1.94-.5-4.2-1-5.14-2.81-3.56-6.95-10.59-10.43-15.56-16-3.33-3.7-6.85-7.18-9.24-11.6,13.92,23.65,34.48,41.47,53.2,61-3.55-10.09-4.61-20.8-9.22-30.5a61.1,61.1,0,0,1-4.67-14.73,20.12,20.12,0,0,0-2.81-7.44c-8.74-13.2-15.45-27.59-23.81-41-6.61-10.63-14.89-19.12-27.52-22.42-2.29-.6-5-.92-6-3.79.14-1.07.24-2.18,1.82-1.59,8.41,3,17.31,5.1,23.72,12.06a33.82,33.82,0,0,1,6.12,6.07c6.28,7.37,10.72,15.94,15.7,24.16,1.64,2.69,2.75,5.72,4.48,8.35,16.15,24.49,21.88,52.93,30.57,80.25.43,1.35,1.14,3.1-.73,3.92-1.53.68-2.39-.68-3.18-1.76-4.22-5.87-9.61-10.57-15-15.28a94.88,94.88,0,0,1-13.7-14.48c-6.78-9-16.47-15.29-23-24.93-.64,1-.93,1.21-.93,1.44.07,2.34,2.46,5.41-.32,6.83-3.3,1.69-4.88-2-6.51-4-3.71-4.61-7.09-9.49-10.73-14.44a11.37,11.37,0,0,0-.87,1.44c-3.29,9.07-9.16,7-13.59,2.46a139.9,139.9,0,0,0-11.43-10.25,19.06,19.06,0,0,0-27.38,2.78c-5.31,6.8-11.89,12-19.09,16.64-1.15.73-2.39,1.73-3.5.42-.88-1,.1-2.1.75-3.09,1.74-2.64,3.35-5.35,5.09-8,1.34-2,2.32-4.29.21-6.09s-4,.44-5.57,1.6C686,181.84,680.06,184.79,674.34,188.15Z"/><path class="cls-5" d="M370,604c0-.9,0-1.8,0-2.7.75-2.25,3.14-2,4.66-3.1L377,597c1.7,1.61,1.75,3.84,2.15,5.91,1.05,5.54,1,5.54,6,2.61,3.85-2.26,6.91-5.56,10.75-7.9A59,59,0,0,1,412.31,591c4.6-2.36,8.83-5.45,13.84-7,2.1-.2,1.56-2,2-3.25,1.8,0,3.6.18,5.26-.94,9.8-6.56,21-10.42,31.08-16.54,1.6-1,3.28-1.64,5.16-.77.83,2.12,4,1.91,4.37,4.53-6.75,3.63-14.31,5.22-19.56,7.84a155.46,155.46,0,0,1,36.11-7.1,259.67,259.67,0,0,1,26.47,0c4.31.15,8.86.59,10.22,6-3.77,2.87-7.3.16-10.78-.68-3.1-.74-5.62-1.41-9,.06s-7.5.24-11.19-.79c-2-.55-3.88-1.2-5.36.92-25.83,3.51-50.89,9.77-74.7,20.58-4.83,2.2-9.79,4.16-14.31,7-6.17,2.33-10.56,7-15.14,11.44-7.12,4.32-14.2,8.69-21.39,12.86-16.31,9.45-29.62,22.61-43.69,34.79-9.05,7.83-17.45,16.42-26.09,24.74C281,698.82,270,715.61,260,733.17c-3.79,6.67-7.43,13.41-10.66,20.36-2.06,4.44-1.38,5.59,3.54,6,20.73,1.83,41.35,4.63,62,6.66,12,1.18,24.12,2.07,36.36.76a103.27,103.27,0,0,1,28.89.54,24.53,24.53,0,0,1,4.83,1.26c6.1,2.35,7.54,6.8,3.95,12.21-2.93,4.43-2.84,4.6,2.42,5.47a190.89,190.89,0,0,0,36.84,2.14c5.22-.16,10.36.18,15.24,2.09,16.83,6.61,33.91,5.47,51.16,2.09,14.57-2.84,29.26-4.77,44.16-4.15,6.48.27,12.93.89,19.43,1.08,26.08.8,51.92-.84,77.46-6.38a23.82,23.82,0,0,1,5.44-.67c3,.07,5.51-.5,7.15-3.47.89-1.61,2.83-2.26,4.53-2.95a66.68,66.68,0,0,1,9.47-3.18c11.63-2.77,23.51-4.66,34.5-9.68,1.68.16,1.77,1.83,2.6,2.79-8,5.28-17,7.31-26.23,8.9A88.88,88.88,0,0,0,655.32,780c-.86.34-2.75.6-1.67,2,3.27,4.15-.06,4-2.6,4.18-12.65.91-25.11,3.14-37.54,5.47-21.16,4-42.49,3.24-63.75,2a215.77,215.77,0,0,0-51.22,2.92c-4.75.86-9.53,1.56-14.29,2.35A83.49,83.49,0,0,1,441,794.65a35.62,35.62,0,0,0-14.73-1.72,156.85,156.85,0,0,1-40.72-3.23c-6.54-1.34-7.07-3.64-2.51-8.55,1.64-1.76,4.37-3.37,3.35-6.15s-4-2.6-6.44-3.1a57.16,57.16,0,0,0-15.92-1c-27.57,2.07-54.87-.33-82.13-4.29-9.22-1.33-18.54-1.9-27.82-2.82-3.56-1-6.71,1.28-10.15,1.26-1.68-3.6-5.38-3.2-8.36-4.25-1.36-.47-3.47-.74-3-2.59.47-2.06,2.5-1.18,3.78-.72,4.76,1.71,7.14.21,9.13-4.61,5.09-12.3,12-23.71,18.61-35.25,6.59-10.79,14.69-20.49,22.16-30.63,2.2-3,5.77-4.94,8.55-7.54,8-7.47,16-15,24-22.56,0-2.86-2.16-1.28-3.14-1.35-4.48-.33-9,.16-13.5-1,6.91-2,14-.34,20.95-1.47a362.82,362.82,0,0,1,40-32.29c2.49-2.69,5.7-4.37,8.76-6.28,3.81-2.36,4.75-6.2,2.84-10.16C373.26,601.58,371.47,605,370,604Z"/><path class="cls-6" d="M491,572.82c-1-3.37,1.16-3.17,3.14-2.57,3,.91,5.88,2,9.12,1.84,2.09-.08,4.06,1.19,5.79-1.61.79-1.3,3.51-.38,5.47.45,4.05,1.71,8.25,3.22,12.8,2.88,3.76-1.51,7.08.59,10.47,1.09-7.21-4.19-14.63-8.29-22.79-11a37.57,37.57,0,0,0-20.08-1c-5,1.06-10,2.48-15.06,3.4-1.89.35-3.87,1.34-5.73-.17-2.08-.38-5.39.75-4.33-3.51a3.12,3.12,0,0,1,2.5-1.92c9.46-2.52,19.13-3.84,28.83-5.08,1.33-.19,2.68-.49,3.9.42l3.54.87c3.13-1,5.87,0,8.46,1.7,13.58,3.75,24.63,12.1,36.08,19.75,2.42,1.82,5.63,3,5.87,6.7,3.63,3.85,8.36,5.89,13,8,.9.41,2.17.89,1.86,2-.47,1.65-2,.15-3.44.66,5.51,6.46,11.69,11.87,17.74,17.37,8,7.28,16.29,14.25,24.17,21.65a12.45,12.45,0,0,0,9.36,3.53c32.44,0,64.83-1.78,97.26-2.29,32.63-.5,65.25,0,97.86,1.13,17.63.62,35.28.83,52.91-.16,2.15-.13,4.31.13,6.47.21-.38,3.56-3.35,2.68-5.36,2.85-16.78,1.4-33.62,1-50.4.55-41.27-1.14-82.54-2.07-123.82-.68-20.11.68-40.21,1.28-60.32,2-4.47.15-8.82,1.57-13.13,1.06,3.62,4,6.94,8.27,10.92,11.83,12,10.75,24.46,21.06,36.46,31.86,6.14,5.53,11.83,11.59,17.46,17.66,14.76,15.91,22.34,34.41,19.75,56.42a2.08,2.08,0,0,0,1.2,2.44c1,2.32-.59,2.33-2.18,2.45-2.27.16-4.6-.5-6.82.43l-.27.29-.4-.06c-1.35-.12-2.14-.6-1.32-2.09,4.35-2.38,5-6,5-10.8.1-19.88-8.82-35.33-22.07-49.17-15.13-15.81-32.08-29.54-48.59-43.78-.75-.66-1.55-1.27-2.24-2-20.84-21.55-45.29-39.26-65.52-61.46a14.19,14.19,0,0,0-6.83-3.92c-8.31-2.42-16.68-4.64-25-7.21-4.15-1.7-8.21-3.69-12.67-4.54-7.42-1.86-14.82-3.79-22.38-5C495.25,575.76,492.27,575.91,491,572.82Z"/><path class="cls-7" d="M620.94,167a103.24,103.24,0,0,0,8.32-14.74c.86-2,.37-2.39-1.77-4.16-5.66-4.68-7.32,1-11.07,2.55.82-4.18.52-7.41-4.88-4.66.38-6.13-.3-6.68-5.78-4.81a8.25,8.25,0,0,1-7.39-.4c-4.66-2.27-11-2.87-15.82.11-3.27,2-4.63.66-6-1.35-4.93-7.08-9.67-14.28-14.48-21.44l4.94-.88c3.45,2.49,7.46,1.6,11,1,11.51-1.8,22.85,0,34.23.86,5.43.39,11,.48,16,3.05,9.71,4.93,13.64,13.69,15,23.75.92,6.64-.7,13.18-2.54,19.58a2.79,2.79,0,0,1-3.68,1.66c-4.43-1.6-8.39-.06-12.48,1.37C623.28,169,620.61,171.13,620.94,167Z"/><path class="cls-8" d="M155.13,846.51c-11.21.19-22.24.61-33.33-.1-13.26-.85-26.6-.42-39.91-.44-9.57,0-16.34-5.61-21.75-12.24-5.64-6.93-.23-18,8.63-19.71,7.28-1.38,14.5-.42,21.75.1.94.07,2-.09,2,1.47-.23,7.5,5.66,10.2,10.8,13.26,1.91,1.13,3.8,1.54,3.91,4.36s2.65,3.72,5,3.72c10.2,0,20,2.66,30,4.19C146.82,841.82,150.47,845.41,155.13,846.51Z"/><path class="cls-9" d="M323,653.16c-4.46,1.94-9.13.41-13.69.81-2.08.19-4.19,0-6.29,1,4.6,0,9.21-.06,13.81,0,.93,0,3.41-.85,1.86,1.88-6.31-1.92-12.87-1.68-19.16-.85-12.17,1.61-24.26.39-36.4.41-27,0-53.8-4.76-80.85-3.17-20.8,1.22-41.62,1.76-62.43.49-32.71-2-65.27-.45-97.77,3.38-6,.71-12-.24-17.93,0-2-.4-4.27,1-6-1,.44-1.8,1.84-1.46,2.84-1.4,16.37,1.07,32.53-1.45,48.75-2.87a482,482,0,0,1,64.83-1.21c21.45,1,42.91.91,64.37-.13,19.32-.94,38.54.54,57.81,1.81,23.37,1.54,46.81,2.86,70.27.71C312.36,652.61,317.72,653.11,323,653.16Z"/><path class="cls-10" d="M795.07,518.24c8.48,15.89,2.56,29.63-16.17,37.54-16.27,6.86-36.6.49-46.29-14.26-4.49-6.83-4.45-14-2.85-21.57,5.91-27.91,28-29.92,46.57-22.89,2.23.84,5.1,1.62,4.31,5.58-.32,1.59,2.36,2.47,3.83,3.49C790,508.42,792.31,513.53,795.07,518.24Z"/><path class="cls-11" d="M608.94,214.86l.06,1c.55,3.42-2.37,4-4.38,5.09-7.83,4.26-15.91,8.09-22.7,14-4.83,3.82-10,7.14-14.89,10.92a16.49,16.49,0,0,0-6.69,13.28c-.31,9.88,1.1,19.61,2.73,29.26a853.45,853.45,0,0,0,23.24,100.57c2.35,7.95,3.86,16.12,6.63,23.95H595c-.28,3.07-3.23,5.43-1.39,9.7-3.71-2.15-4-5-4.72-7.29-6-18.19-9.57-37-15.08-55.35-8.85-29.43-12.59-59.83-17.72-90-2.71-15.9,3.23-26.39,16.14-34.12C584.35,228.69,596.05,220.73,608.94,214.86Z"/><path class="cls-12" d="M261.94,547.28c.31,1.07-1.3,2.41.12,3.17,1.72.93,2.3-.85,2.9-1.87,5.12-8.73,10.49-17.36,14.27-26.76,1.36-3.38,3.14-4.75,6.48-4.68,2.12,1.55.63,3.44.5,5.2-.3,1.36-1,2.78.51,3.92,4.62,1.24,4.66,1.71,1.59,5.1-5.33,5.86-7.88,13.37-11.43,20.27-1.25,2.43.41,4.51,1.79,6.37a50.82,50.82,0,0,1,5.31,9c1.17,2.58.14,3.82-2.68,3.51a22.38,22.38,0,0,1-2.93-.6c-3.5-.89-6.69-.87-9.92,1.42-3.6,2.55-4.78,2-6.11-2.23-.52-1.66-1.48-2-2.88-2.15-3.08-.41-3.21-1.78-1.23-3.89,1.17-1.25,3.5-2.2,2.34-4.38-1-1.86-3.24-1.28-5-1.4-1-.06-2,.07-3,0-1.87-.23-4.61.4-4.79-2.29-.16-2.46,2.57-2.56,4.34-3.34,1.43-.62,4,.28,3.9-2.6C257.59,547.1,260.11,548.37,261.94,547.28Z"/><path class="cls-13" d="M745.48,847.13c8.5-.92,16.58-1.73,24.63-2.68,3.16-.38,6.21-1.09,8.79,1.73,1.23,1.34,3.16.78,4.78.79,10.31,0,20.66.54,30.91-.24,6.42-.48,8,4.86,11.62,7.57,1.73,1.3-1,3.39-2.65,3.52a43.31,43.31,0,0,1-18-2.2,19.68,19.68,0,0,0-6-1.63c-8.13-.29-16.25-.71-24.37-1.08a4,4,0,0,1-1.48-.1c-10.51-5.15-21,0-31.54-.07-1.49,0-3,.17-4.48.22s-3.15-.35-3.37-2.2,1.18-2.54,2.81-2.76C740,847.61,742.88,846.54,745.48,847.13Z"/><path class="cls-14" d="M284.93,523c-.52-2.06,2.22-3.67.79-5.85,1.84-.54,2.28,1.43,3.52,2,.79,1.45.19,3.4,1.64,4.61a2.51,2.51,0,0,0,2.51,2.46c-5.13,7.58-9.12,15.81-13.61,23.76-1.29,2.28-1.43,3.8.22,6.16,2.73,3.9,4.75,8.31,7,12.53.72,1.32,1.58,2.76.31,4.14-1,1.14-2.46.72-3.76.35-2.08-.58-4.17-1.14-6.23-1.79a7.46,7.46,0,0,0-7.78,1.49c-4.45,3.68-7.84,2.54-9.53-2.76-.63-2-1.78-.85-2.72-.84-1.81,0-4,.64-4.88-1.43-.95-2.37,1.36-3.43,2.8-4.73,1-.87,1.95-1.72,3.6-3.18-4.39-.62-8-1.07-11.64-1.66-1.65-.27-3.59-.7-3.77-2.69s1.59-2.73,3.06-3.56c3-1.66,6.3-2.08,9.51-2.94,1,.43,3-.92,3.07,1.33,0,1.51-1.46,1.55-2.59,1.75-2.9.53-6,.43-8.68,2.81,3.11,2.1,6.49,1,9.61,1.43,1.9.24,4.35-.61,5.35,1.64,1.16,2.62-1.48,3.7-2.84,5.23-.74.83-2.09,1.08-2.31,2.61,3.14.09,8.4-2.33,5.77,4.85-.59,1.61,1.57,1.11,2.55.8,10.16-3.16,10.15-3.18,17.94-2-2.55-4.26-4.16-8.75-7.45-12.26a5.2,5.2,0,0,1-1-6.4c2.84-5.63,5.79-11.2,8.61-16.84,1.24-2.47,3.69-3.65,5.84-5.64-1.4-1.55-3.83.73-4.7-1.41A3,3,0,0,0,284.93,523Z"/><path class="cls-15" d="M620.94,167c.21.41.61,1.17.62,1.16a28.73,28.73,0,0,1,18.34-2.28c.8.16,1.38.88,2.24.89,4.84,7,4.76,6.92,11.46,2.18,26.33-18.62,52-38.18,79.68-54.9,8.85-5.35,17.63-6,27-2.2a2.08,2.08,0,0,0-1.23,1.93c-4,1.16-8-1.19-12.19-.08-10.71,2.81-19.61,8.89-28.68,14.75C703,138.28,687.71,148,673.45,159.27c-7.31,5.75-14.76,11.35-22.22,16.93A7.15,7.15,0,0,0,648,183c.31,3.47-.55,6.64-4.19,8.25a1.85,1.85,0,0,1-1.56-1.43c.2-3.93,1.26-7.72.53-11.81-1.39-7.87-5.91-11-13.79-9.17-3,.7-5.53,3.21-8.92,2.33C620.12,169.76,619.49,168.18,620.94,167Z"/><path class="cls-16" d="M505.05,556l-3.19,1c-2.23-1.2-3-3.42-3.9-5.56q-3.9-9.42-7.29-19c-1-2.84-2-4-5.36-2.89-5.36,1.75-15.06-2-18.27-6.45-1.35-1.89-2.22-3.93,0-5.71,2.4-1.93,3.93-.38,5.13,1.69,1.47,2.54,4.13,3.13,6.58,4.07.67.09-.16,0,.5.1,8.41,1.24,8.75.7,7.76-7.72-1.76-15.06-6.11-29.55-9.09-44.34-.47-2.32-1.8-4.8.18-7.11,2.14-.15,1.64-1.94,2-3.2,4.28,19.25,9.63,38.27,11.86,57.95C493.46,532.1,499.05,544.14,505.05,556Z"/><path class="cls-17" d="M559,585c-1-3-4.88-3.17-6-6.06,3.88-2.41,8-1.25,12.1-.82,5.76.61,11.47.81,17.29-.78-19.53-14.21-42.33-16-65.24-17.41-3.32.28-4.93-4.22-8.57-3.08,26.23-2.3,51.36,1.16,74.51,14.51,2.87,1.66,7.22,3.45,6.42,7.39-.86,4.3-5.64,3.15-8.9,3.59a60.7,60.7,0,0,1-17.39-.46C560.55,581.46,559.06,582.12,559,585Z"/><path class="cls-2" d="M642.14,166.78c-1.61,1.88-1.89.4-2.24-.89.52-3.27,1-6.55,1.58-9.8a32.86,32.86,0,0,0-3.74-23C633.37,125.4,627,121.83,618.49,121c-15.84-1.55-31.67-2.77-47.6-1.28-1.3.12-4.83,1.75-3.92-2.48a206.85,206.85,0,0,1,54.73,1.69c14.42,2.47,24,15.38,23.35,30C644.76,155.05,643.16,160.84,642.14,166.78Z"/><path class="cls-6" d="M749,764.05c18.29-1.58,36.58-3.19,54.89-4.63.74-.06,3.27-1.74,2.92,1.38-16.63,3.6-33.5,4.85-50.45,5.33-3.8.71-7.55.33-11.72.16C745.75,763.66,747.91,765.13,749,764.05Z"/><path class="cls-18" d="M370,604c1.48-1.21,2.69-3.61,4.76-2.88s.69,3.31,1.37,4.89c2.37,5.53-.38,8.38-5.08,10.45-2.79,1.23-4.84,3.84-8,4.41a.85.85,0,0,1,0-.88c2.54-3.26-.35-5.46-1.58-8-.52-1.06-1.27-2.12,0-3s2.11-1.2,2.26,1.13c.07,1.2,1.19,0,1.6-.49C366.93,607.78,368.46,605.88,370,604Z"/><path class="cls-19" d="M698.65,559.89c3.5-.37,6.27-1.18,7.79,1.18s-1,4.18-2.42,5.88c-4.94,6.09-11,11.07-16.88,16.14-1.41,1.21-3.52,3.5-4.94,2-1.61-1.72,1-3.46,2.3-4.76,4.75-4.63,9.63-9.12,14.43-13.69C701,564.7,703.23,562.75,698.65,559.89Z"/><path class="cls-5" d="M749,764.05l-4.18,2.08h11.54c-8.37,1.47-17,.85-25.28,2.2-10.71,1.73-20.59-3.58-31.08-2.4,1.45-1.64,3.39-.77,5.12-1,1.51-.19,3.48.57,3.88-1.9C722.22,767.9,735.66,764.07,749,764.05Z"/><path class="cls-20" d="M430.28,439.84H418.44c2.09,1.81,4.39.32,5.56,2.14-3.26,2.46-7,1.55-10.53,1.25-7.31-.61-14.18-3.21-21.06-5.59-1.16-.41-2.63-.85-2.32-2.68,3.89-2.5-2.12-1.53-1.07-3l23.83,4.18c-.85,3.15-3.13,1.32-4.88,1.5,4,.43,8.12.29,12.08,1.27C423.45,439.3,427,438.74,430.28,439.84Z"/><path class="cls-21" d="M694,519c-9.59-.74-19.17-.53-28.42-3.24a2.59,2.59,0,0,1-2-2.53,2.74,2.74,0,0,1,2-2.6c1.24-.48,2.5-.89,4.2-1.48-.46,2.33-.24,4,2.61,4.16,4.3.26,8.58.93,12.87,1.44C688.56,515.17,691.7,516,694,519Z"/><path class="cls-22" d="M709.93,455.66c.51,4.07,2.84,8.89,4.6,13.88.45,1.25,1,2.46,1.44,3.72a1.82,1.82,0,0,1-.67,2.22,1.69,1.69,0,0,1-2.49-.87,84.41,84.41,0,0,1-8-24,1.94,1.94,0,0,1,1.27-2.41,2,2,0,0,1,2.46,1.19C709.28,450.93,710.55,452.38,709.93,455.66Z"/><path class="cls-23" d="M830,456.84c.38,3-.8,4.26-1.76,5.52-5.56,7.36-12.32,13.5-19.47,19.26-.9.73-1.78,1.73-3,.57a1.46,1.46,0,0,1,.13-2.22C814.14,472.94,821.55,465,830,456.84Z"/><path class="cls-24" d="M734.45,604.25c-.62-5.81,2.44-9.29,4.07-13.29,1.29-3.18,5.25-5.84,2.12-10.18-.85-1.17.92-1.95,2.07-1.78,2.57.39,4,2.34,3.34,4.61A52.49,52.49,0,0,1,734.45,604.25Z"/><path class="cls-25" d="M813.44,600.21c-6.58-3.94-11.13-9.87-16.11-15.36a1.87,1.87,0,1,1,2.68-2.6C805.05,587.79,811.09,592.57,813.44,600.21Z"/><path class="cls-17" d="M849.74,539.83c-6.27,3.74-13,2.55-19.64,4.37C832.89,538.77,842.94,536.66,849.74,539.83Z"/><path class="cls-26" d="M762.59,452.43c3.42,4.82,2.25,10.13,5.2,14.06C763.1,466.6,761.35,462.17,762.59,452.43Z"/><path class="cls-27" d="M795.07,518.24l-10.6-12.11C791.73,506.91,793.56,512.44,795.07,518.24Z"/><path class="cls-28" d="M391.93,391c-1.68-.87-1.08,4.19-3.26,1.36-1.61-2.09-7-1.54-4.65-6.44A16.06,16.06,0,0,1,391.93,391Z"/><path class="cls-29" d="M290,380.13c3.57,0,6.27,2.5,9.66,3.12-.49,2-1.58,2.87-3.52,2.61C293.94,384.07,291.3,382.79,290,380.13Z"/><path class="cls-30" d="M420.05,438.88c-4.5.2-9,.76-13.68-1.43l6.48-1.34C415.85,435.48,417.45,438.47,420.05,438.88Z"/><path class="cls-31" d="M309.89,413.91,309,417c-2.63-2.34-6-3.82-7.89-7l3.07-.77A41,41,0,0,1,309.89,413.91Z"/><path class="cls-32" d="M243.94,765.08c2.87-4.5,6.66-1.69,10.15-1.26C250.62,763.57,247.77,768.25,243.94,765.08Z"/><path class="cls-15" d="M790.12,130a18.4,18.4,0,0,1-6.12-6.07A10.78,10.78,0,0,1,790.12,130Z"/><path class="cls-28" d="M389,398.07c1.29-2.2,3.78-3.9,2.92-7C394.91,395.05,392.16,396.64,389,398.07Z"/><path class="cls-33" d="M551,875.4c7.46,2.4,14.84,1.39,22,2.46,1.46.23,3,0,4.48.16,1.24.12,2.32.68,2.2,2.16-.1,1.15-1.05,1.61-2.09,1.76a10.22,10.22,0,0,1-2,.11c-16-.57-32.16,1.55-48.15-1.78-6-1.24-12.15,1.4-18.22-.35-1.89-.55-4.2-.37-3.92-3.35.19-2.08-1.42-1.49-2.37-1.45A63.94,63.94,0,0,1,484.65,873c-1.94-.48-5.42.2-4.9-2.42a6.37,6.37,0,0,1,5.92-4.82c7.47-.59,14.93-.61,22.39-.78,8.23-.2,16.46-1.07,24.7,0,2.38.31,4.76.22,5.4,3.24.39,1.82,1.83,1.66,3.14,1.66,2.33,0,4.67.07,7-.13,2-.17,4.18-1.16,5.39,1.06S552,873.64,551,875.4Z"/><path class="cls-34" d="M302.75,822.66a8.61,8.61,0,0,1-6.58-.6c-11.71-6.27-24.22-5.58-36.93-4.75-13,.86-26,3-39.14.05-5.54-1.24-11.55-.33-17.37.18-6.3.56-12.93,2.24-18.76-2.13-1.13-.84-3.12-1.1-2.4-3.15a3.13,3.13,0,0,1,3.62-2.08c4.53.88,8.85-.83,13.19-.88,10.83-.12,21.6-1.69,32.4-1.25,10.06.41,20.08,1.69,30.11,2.7,1.9.19,3.62-.36,5.42-.52A79.25,79.25,0,0,1,297.66,814C302.3,815.43,300,820.09,302.75,822.66Z"/><path class="cls-34" d="M551.3,844.08c-7.12-1.43-14.68-2.19-22-4.37-4.24-1.26-8.58-.36-12.87-.6-2.35-.13-4.09-.38-5.83-2.71-2.21-2.94-6.43-2.71-9.9-3.41a16.64,16.64,0,0,0-4,.09c-2.26.11-4.88,0-5.2-2.62-.35-2.86,2.55-2.8,4.54-3.48,7.65-2.58,15.84-1.25,23.52-3.39,2.17-.61,1.71.51,1.55,1.74-.5,4,2.36,5.11,5.36,5.7,3.4.68,6.87,1,10.33,1.4s6.89,1.06,7.7,5.49c.26,1.38,1.44,2.09,3,2.11a15.17,15.17,0,0,1,4.42.52c1.47.47,4.23-.21,4.13,1.8C556,844.92,553.23,843.54,551.3,844.08Z"/><path class="cls-34" d="M342.06,801.31c-9.4-1-17.5-2-24.74.82-10.39,4-20.57-.19-30.78.87-1,.1-2.18,0-2.29-1.3s.95-1.48,2-1.7a104.15,104.15,0,0,1,19.06-2.56c3.85-.12,7.61-2,11.47-2.82A122.53,122.53,0,0,1,353.54,792c1,.08,2.09-.06,2.3,1.31a2.27,2.27,0,0,1-1,2.16C350.67,798.92,346.77,803.14,342.06,801.31Z"/><path class="cls-35" d="M88.36,782.82c-2,.14-4.08.63-5.25-1.68a2.22,2.22,0,0,0-2.55-1.1c-6.16,1-9.18-3.45-12.9-7.06-1.65-1.6-4.38-2.14-6.67-3-1-.38-2.72.21-2.78-1.37-.08-1.74,1.8-2,3-2.05,4.12-.22,7.65,2.18,10.58,4.31s5.14,2.22,8.15,1.77c4.88-.74,9.79-1.63,13.67,3,1.27,1.51,3.54,2.63,2.89,4.77s-3.2,2-5.12,2.42A16.44,16.44,0,0,1,88.36,782.82Z"/><path class="cls-35" d="M381.87,812.9c-4.69-1.22-10.4-.36-15.95-1.08-3.37-.43-6.67-2.35-9.69-4.13-1.94-1.14-1.58-3.47-.75-5.43,1-2.45,3-3.35,5.57-3.28,2,0,3.42.37,4,2.74,1.08,4.5,3.67,6.9,8.81,6.46,3.39-.29,6.81,1.14,10.33.89,1.35-.1,3.46-.61,3.64,1.48.2,2.34-1.92,2.24-3.57,2.34C383.75,812.92,383.25,812.9,381.87,812.9Z"/><path class="cls-33" d="M775.69,670.17c3.74,2,7.43,3.61,6.92,7.36-.63,4.72-5.26,5.81-9.75,7.31,3.73,2.16,7.33,3.81,5.6,8.82-.53,1.52,1.55,1.21,2.59,1.33,8.39.92,9.65,3.27,5.34,10.12.37.95,1.34.8,2.05,1.13,1.87.83,3.63,1.71,3.64,4.21a5.34,5.34,0,0,1-3.86,5.27c-3.38,1.2-7,1.89-10.45,2.8,4.38,6.42,3.94,7.22-7,13,1.84,1,4.52,1.65,3.9,4.36s-3.28,3-5.65,3.09a94.21,94.21,0,0,1-29.62-3.06c-1.76-.49-4.61-.89-3.81-3.51.67-2.2,3-1.13,4.81-.77,3.47.71,6.58.61,9.92-1.49,3.58-2.23,7.9-3.28,12.39-5-2.57-2.18-7.09-2.38-6.51-6.59s4.93-4.35,8.41-6.15c-2-.53-3.53-.88-5-1.34-4.16-1.29-5.08-3.6-2.88-7.3.42-.71,1.36-1.47.84-2.16-3.55-4.65-.82-7.19,3.22-9.2-1-1.87-2.82-1.26-4-2-2.2-1.27-4.65-2.34-4.61-5.32s2.24-4.28,4.71-5.13,5-1.62,7.7-2.46c.21-2.51-3.7-3.34-3.07-5.11,1.55-4.39.48-8.38-.39-12.55a2.57,2.57,0,0,1,1.09-2.09,38.81,38.81,0,0,0,6.51-5.49c3.06-2.91,7.42-1,10.59.94,2.77,1.72,3.22,4.27.94,7.64C778.37,663.48,780.63,668.15,775.69,670.17Z"/><path class="cls-7" d="M623.16,197.86c1.79.66,3.53,1.31.71,3.08-2.47,1.55-5.21,1.54-8,2-10,1.82-15.92-3.28-20.76-10.84-8.43-13.18-20.85-22.79-31-34.47-4.23-4.88-10.93-6.19-16.64-10.12l5.42-1.42c-12.55-4.7-24.65-4.12-36.72-6,1.86-1.95,4-1.83,5.68-2.69,1.36-.69,4.17-.29,3.64-2.44s-2.74-.7-4.24-.32c-5.64,1.42-11.34,2.66-16.91,4.33-9,2.69-18.08,2.33-28.66,2,10.76-5,21.22-5,31.2-7.09,5.2-2.64,11.1-3.2,16.25-5.5-4.19,1.42-8.53,2.83-13,4-1.2.3-2.25.62-3.23-.37-9.38.17-18.78,0-27.31,5-1.93,1.14-4.34,1.45-6.62,2.16-.09-.57-.26-.9-.15-1.06,1.13-1.76,4.95-2.67,3.1-5.2-1.48-2-3.81.72-5.7,1.44a64.67,64.67,0,0,0-6.31,3.22,14.6,14.6,0,0,1,5-6.66c2.48-2,2.94-4.73,3.53-7.4.89-4-2.05-2.53-3.58-2-13.12,4.87-27.42,4.92-40.47,10a6.2,6.2,0,0,1-1.83,0c4.83-3.79,10.71-4,15.77-6.24,2-.87,4.07-1.47,6.05-2.33,1.39-.61,4-.73,3.16-2.93-.73-2-3.23-1.64-4.84-1-4.92,2-9.83,4.06-14.53,6.51-9.49,5-18.9,9.92-30.23,7.88.06-1.78,1.85-1.47,2.89-1.81,9-3,18.06-5.8,27.09-8.69,2.69-.86,5.39-1.72,8.05-2.69,1.42-.51,3-1.26,2.57-3.14-.4-1.7-2.07-1.38-3.36-1.37-2.16,0-4.32.18-6.49.23a703.28,703.28,0,0,1-72.58-2.3A867.56,867.56,0,0,1,453.37,97c14.2-1.69,28.31-4.49,42.55-5.5,14.73-1,29.85-1.59,42.88,7.53a83.32,83.32,0,0,1,23.26,25.13c7.53,12.41,17.1,22.71,27.4,32.66,7.42,7.16,14.3,14.87,21.42,22.34a2.76,2.76,0,0,1,1,3.09c-1.48,6.5,1.93,10.23,7.21,12.94A12.18,12.18,0,0,1,623.16,197.86Z"/><path class="cls-7" d="M643.93,190.91c2.59-2.7,4-5.8,2.64-9.52-.86-2.39.83-3.43,2.17-4.49,7.67-6.08,15.34-12.17,23.16-18,8.08-6.07,16-12.39,24.6-17.71,13.66-8.49,26.42-18.41,41-25.48,7.06-3.42,14.07-4.74,21.57-1.88,5.49,3.06,12.06,3.5,17.33,7.16,9.57,6.64,15.84,16,21.48,25.86s10.33,20.17,16.86,29.47c3.22,4.59,4.42,9.94,6.13,15.17,4.29,13.11,9.07,26.07,12.64,39.42.46,1.72,1.62,3.29,1,6.38-20.91-21.87-43.61-41.17-58.29-68.35,2.93,0,2.91,1.89,3.76,2.83,1,1.09,1.72,2.46,2.68,3.6,5,5.92,9.39,12.49,16.83,15.85a4.79,4.79,0,0,1,1.85,2.27c2.17,4.36,4.63,8.29,10.48,8.31A22.92,22.92,0,0,0,803.05,188c-4.55-3.34-6.44-7.84-8.7-12.41-.51-1-.84-2.17-1.41-3.17a1.73,1.73,0,0,0-2.12-.89,1.59,1.59,0,0,0-.87,2.08c.57,2.21,1.32,4.37,2.44,8-5.53-5.12-8.78-10.21-12.19-15.17-1.51-2.19-2.74-5.67-4.72-6.19-3.34-.87-5.93-1.57-7-5.14-.07-.23-1.31-.4-1.77-.16-1.06.54-1,1.72-.76,2.65.83,3.2,1.78,6.35,2.41,9.68-3.8-4.28-5.93-9.62-9-14.33-1.72-2.62-2.73-7.58-6.44-6.42s-1.24,5.49-1.09,8.48c.07,1.32.15,2.64.31,5.38-1.35-2.75-2.09-4.29-2.87-5.8-.69-1.32-1.3-3-3.21-2.47s-1.33,2.52-1.17,3.86c.37,3.09,1,6.15,1.34,9.47C743.64,160.11,739,157,734,155.08c-4.82-1.79-10.2-2.29-14.39,2.88-.44-3,3.43-4.54,1.57-6.33-1.69-1.63-4,.72-5.86,1.55-11.43,5.1-21.88,11.94-32.36,18.72-9.64,5.4-20.15,9.43-28,17.71a3.9,3.9,0,0,1-2.13,1.19c-5.28.58-7.5,4.32-9.09,8.67-1.06,2.9-2.22,3.76-4.7,1.12-.92-1-2.7-1.11-4.08-1.62-.78-1-2.67.16-2.93-1.22-.32-1.72,1.45-2,2.58-2.36C638,194.4,640.65,192,643.93,190.91Z"/><path class="cls-7" d="M719,274.4c-.33-2.45,1.7-4.31.58-6.76-2,.6-1.57,3-3.81,4-.54-6.75-6.3-10.39-9.52-15.59a74.26,74.26,0,0,1-6.45-13.67c-.76-2-2.35-3.67-4.43-3.25s-1.26,2.77-1.38,4.32c-.15,1.79,0,3.6,0,6.89-1.74-4.54-2.86-7.77-4.22-10.9-.62-1.42-1-3.84-3-3.41-2.69.56-.46,2.73-.69,4.15a14.06,14.06,0,0,0,0,2.07c-4.4-2.9-4.38-2.89-3.46-6.95.34-1.52-.94-2-1.92-2.51-2.61-1.38-5.28-2.67-8.41-4.23,2.92-1.45,5.13,1.61,7.67-.12-1.82-3.29-6.92-2.24-8.3-6a3.42,3.42,0,0,1,.89-.5c7.58-1.68,8.17-1.68,8.2-8.34,0-3.75,1.45-3.86,3.93-3.61,14.12,1.44,27.56,4.4,40.44,11.32,21.09,11.34,28.59,31,35,51.75,3.95,12.82,4.09,26.25,5.74,39.43,3.06,24.44,3.34,49.1,5.31,73.63a7.51,7.51,0,0,1-.74,4.11c-4.15-8-9.19-15.76-12.27-24.18-11.35-31-19.6-62.85-26.91-95-.71-3.11-.33-7.81-4-8.31-3.54-.48-3.72,4.43-5.48,6.88A45.69,45.69,0,0,0,719,274.4Z"/><path class="cls-36" d="M472.05,434a24.49,24.49,0,0,1-13,11.14c-1.7-.48-1.72-1.88-1.67-3.22.23-6.67-.55-13.29-1.16-20.41,4.44,2.49,7.38,7.74,14.83,5.82-6-2.58-9-7.18-13.77-9.27-1.52-.66-1.47-1.59-1.59-2.64-1-8.6,0-17.12.7-26.22,3.46,2,5.57,5.73,9.95,4.79-.19-.63-.18-1.3-.46-1.47-13.88-8.13-8-21.1-7.8-32.55,0-2.85,2.23-4,4.81-1.46.92.9,1.83,2.09,3.65,1.12-.17-2.61-2.15-4.92-4.06-5.33-4.38-.93-3.57-3.67-3.4-6.52.34-5.65-.08-11.33,1-16.95.53-2.74,1.24-3.66,3.66-1.4,1.87,1.76,3.79,3.69,7.27,3.68-1.71-3.69-4.57-5.71-7.14-7.83-1.61-1.33-1.88-2.35-1.19-4.16,1.35-3.58,2.56-7.22,3.75-10.86.88-2.69,2.13-3.06,4.21-1,1.38,1.35,2.81,2.87,5.52,2.42a10,10,0,0,0-4.14-5.32c-2.86-2.05-2.61-4.06-1-6.66s3-5.55,4.69-8.25c2.62-4.25,3.78-4.31,7.29-.78,1,1,1.68,2.59,4,2-.26-2.83-2.06-4.92-3.9-6.56-2.21-2-1.88-3.45-.32-5.37.63-.77,1.05-1.7,1.63-2.52,1.62-2.29,2.34-5.44,4.88-6.82,3.23-1.75,4,2.85,6.63,3.17a15.76,15.76,0,0,0,1.73,0,12.78,12.78,0,0,0-.89-1.87c-4.64-6.4-4.74-6.48.58-12.51,1.84-2.09,3.07-4.78,5.69-6.14,3.31.11.36,2.53,1.31,3.5-.21.65.32.25.31.14-.29-2.62,1-3.38,3.39-2.67-1.1-8.24,5.36-10.75,10.77-13.81,4.57-2.58,7.56-7,12.16-9.54,2.73-1.49,4.94-3.9,8.1-4.65l-.08-.09c1.25,4.84-2.75,6.48-5.5,8.73-20.92,17.08-35.24,38.84-45.3,63.64-14.25,35.11-20.22,71.7-18.89,109.47C469.57,417.18,471.09,425.58,472.05,434Z"/><path class="cls-7" d="M592.94,413c-2.56.29-2.08-2-2.42-3.2-11.48-40.41-22.45-81-29.07-122.51-1.46-9.14-2.88-18.35-2.62-27.73.18-6.31,2.37-11.26,7.55-14.87s10.34-7.26,15.5-10.89c1-.14,1.45.28,1.26,1.31a35.15,35.15,0,0,0-6.83,9c-.39.73-1.21,1.45-.67,2.19.7,1,1.79.6,2.67.05s1.9-1.33,2.84-2c6.92-5,13.66-10.19,22.43-14.86a55.62,55.62,0,0,1-11.26,13.32c-1.23,1.12-4.09,2.16-2.56,4,1.92,2.33,3.19-.89,4.75-1.7l1.24-.7c-.66,3-4.91,5.25-3.45,7.3,2.72,3.82-.55,5.64-1.4,8.24-.42,1.28-.86,2.77-3.12,2.12-2.06-.59-2.29,1.55-2.59,2.89-.81,3.55-1.48,7.14-2.07,10.73-.32,2-.59,3.81-2.17,5.36-2.08,2-3.06,4.41-.29,6.79,1.5,1.28-.27,2.81.3,4.16L581,292c-2.12-.06-3-4.34-5.2-2.24-1.51,1.47,1.24,3.37,2,5.11.31.72.68,1.43,1.1,2.28-.55,0-.86.13-1.06,0-1.78-.88-3-4.23-5.28-2.34-2,1.63-.05,4,.8,5.9,1.71,3.79,3.51,7.53,5.25,11.3.6,1.31,1.27,2.41,3,1.65s1.93-2.22,1-3.69c-1.74-2.74-3.61-5.4-5.87-8.74,8.44,5.77,10,9.74,7.29,18.3a30.29,30.29,0,0,0,.4,19.13c7.28,21.76,9.05,44.15,8.38,66.88C592.73,408,592.89,410.51,592.94,413Z"/><path class="cls-37" d="M487.61,448.84c-3.06,1.82-4.65,7-9.76,4.23-.17-.09-1.05.5-1.08.82-.41,3.93-4.29,4.1-6.4,6.13-6.58,6.37-15.21,7.68-23.32,10.35-1.6.52-2.69,1-3.09-1.41-.36-2.15-2.43-3.09-4.2-4-3.1-1.55-3.31-3.2-1.45-6.26,3-4.93,6.85-7.6,12.63-7.64,6.76,0,12.38-3.34,17.59-7.07,5.75-4.12,8.49-10.52,10-17.13.5-2.24,4.77-5,.29-7.63-.85-3-3.77-4.43-5.09-7.05,2.43-2.82,4.93-2.45,7.34,0a25.91,25.91,0,0,1,7.68,13.67c.82,4.4,1.6,8.82,2.67,13.16S489.08,445.64,487.61,448.84Z"/><path class="cls-38" d="M620.11,171.21c4.44-2.18,8.78-4.61,14-4.19,5.75.47,9.51,4.07,10,9.74.34,4.42,1.21,8.89-1.31,13-2.84,5.77-8.28,6.56-13.79,7.22l-2.86-.16c-2.94-.28-5.82-.58-8.43-2.3-5.74-3.78-7.53-8.13-5.75-14.8.25-.94,1-1.79.07-2.73a.53.53,0,0,1,.05-.68,8,8,0,0,1,3.1-4.08C617.44,174.87,618.62,172.3,620.11,171.21Z"/><path class="cls-39" d="M621.22,205.86c3.28-2.37,6.75-4.1,11-4,4.57.1,6.78,3.28,8.5,6.69,1.5,2.95-.45,5.39-2.39,7.53-3.4,3.74-7.72,6.27-12.13,8.52-3.54,1.81-7.26-1-9.1-6.52C619.33,214.31,622.44,210.82,621.22,205.86Z"/><path class="cls-38" d="M644.85,218c.15-7.44.92-14.94,5.69-20.85,2.33-2.88,6.62-4.91,10.61-3.83s4.05,5.23,3.87,8.77c-.19,3.71,1,7.69-2,10.9C656.73,213.84,650.82,216,644.85,218Z"/><path class="cls-40" d="M615.18,172.25c-.31,1.91-.84,3.66-3.11,4.08-9.45-9.79-17.74-20.68-28.67-29.55,1.8-1,2.93-.39,4,.05,7.14,2.82,13.47,7.15,20.14,10.85C613.32,160.86,613.26,167.07,615.18,172.25Z"/><path class="cls-41" d="M659.85,230.77c-6.33-2.89-12.77-5.45-19.86-5.93-1.29-.09-3.57-.39-3.58-2,0-1.83,1.91-3.09,3.4-4,1.94-1.24,1.93,1.09,2.6,2,2.47,3.24,5.53,4.62,9.57,3.49,7-2,12.91-5.33,15.39-12.75.9-2.7,2.61-3.63,4.79-1.72,1.67,1.47,4.73,1,5.39,3.79-1.86,1.9-5.7-1.14-6,1.38-.41,3.08,3.83,1.24,5.4,2.82.23.22.37.53.25.36-1.15,4.17-9.42-1.68-8.23,6.48-1.17.36-2.43-.7-3.83-.94-.92-.16-2.19.11-1.73.82,1.89,2.91,0,2.57-1.9,2.71C659,227.34,660.91,229.66,659.85,230.77Z"/><path class="cls-42" d="M539,227c17.08-14.75,55.57-26.09,64.75-19-.86,1.56-2.37.87-3.5.83-18.17-.74-34.52,4.84-49.46,14.71A19.48,19.48,0,0,1,539,226.89Z"/><path class="cls-43" d="M586.29,277.13a164.68,164.68,0,0,1,13.57-27.44c2.92-4.81,4.45-10.41,8.41-14.65,1.79-1.92.6-3.76-1.43-5.35,6.39,2.06,6.28,2,3.67,6.62C602.75,250.06,593.75,263.09,586.29,277.13Z"/><path class="cls-44" d="M644.85,218c2-3.17,15.72-7,18.17-5-2.9,5.61-8.12,7.28-13.82,8.05A3.6,3.6,0,0,1,644.85,218Z"/><path class="cls-45" d="M583.14,235.11l-1.26-1.31a186.33,186.33,0,0,1,22.23-13.91c1.87-1,3.95-1.8,4.89-4,3.23.53,1.39,2.28.79,3.58-2.41,5.14-7.58,7.17-12.21,11,.12-2.71,2.28-3.38,2.77-5.13C593.33,226.67,588.59,231.51,583.14,235.11Z"/><path class="cls-46" d="M678.94,177.11c-2.6,2.3-5.14,4.67-7.83,6.84-1.36,1.11-2.64,2.05-2.09,4.05-3.1,3.47-6.47,5.13-10.92,1.16A64,64,0,0,1,678.94,177.11Z"/><path class="cls-47" d="M587.08,142.09h7.23a3.39,3.39,0,0,1,1.47.19c5.39,2.8,5.39,2.81,12.84,1.07-1.24,2.3-2.59,4.15-3.26,6.23s-1.71,2-3.22,1.12C597.18,147.83,592.32,144.78,587.08,142.09Z"/><path class="cls-48" d="M612,177c.93.11,1.43.4,1.19,1.55-2,9.59,1.21,14.76,10.67,17.41.77.22,1.5.58,2.25.87-1,.35-2.27-.14-3,1-5.61-1.24-10.11-3.78-12.54-9.44-1.42-3.29.84-6.18.26-9.28A2.16,2.16,0,0,0,612,177Z"/><path class="cls-49" d="M662.53,229.16c5.61,0,10.19,2.32,14.67,5.08C673.16,237.7,666.66,235.49,662.53,229.16Z"/><path class="cls-50" d="M621.22,205.86c1.85.34,2.82,1.91,2.09,3.21-1.62,2.9-3.19,5.68-3.69,9.07-.18,1.19-1.67.2-2.55-.06C616.5,213.35,616.68,208.86,621.22,205.86Z"/><path class="cls-51" d="M617.11,224.75c-.54,2-1.14,4.14-3.5,4.24a3,3,0,0,1-3.33-3.5c.28-2.2.49-5.49,2.83-5.79C615.73,219.37,616,222.78,617.11,224.75Z"/><path class="cls-52" d="M696.1,250.07c2.25,1.09-.83,6.84,4.68,5,.53-.18,1.62,2.16,1.12,3.41a6.29,6.29,0,0,1-4.64,4c-1.9.27-1.06-2-1.11-3.07C696,256.33,696.1,253.23,696.1,250.07Z"/><path class="cls-53" d="M507,132l19.48-5.34.42,1.22c-6.43,2.62-12.91,5.1-20,6Z"/><path class="cls-54" d="M621.87,151.14c-1.2,2.71-2.35,5.43-3.6,8.1-.47,1-.74,2.45-2.12,2.42s-1.44-1.66-2.21-2.47c-1.22-1.28-.16-1.91.77-2.71,2.23-1.94,4.36-4,6.53-6Z"/><path class="cls-48" d="M629,197c5.12-1.41,10.28-2.73,13.79-7.22l1.14,1.13c-2.69,3.8-6.95,4.86-11.23,6.48L635,199C633,198.4,630,200.69,629,197Z"/><path class="cls-55" d="M473.69,412.2c3.09,1.34,5.58,3.12,5.09,7.05-1.84-.81-3.12-2.91-5.53-2.38A4.44,4.44,0,0,1,473.69,412.2Z"/><path class="cls-56" d="M607.49,152.54a13.27,13.27,0,0,1,5.35-3.12c-.07,2.31-.27,4.72-2.17,5.75C609.54,155.78,608.22,154,607.49,152.54Z"/><path class="cls-57" d="M615.12,205.7c-2,3.16-4.1,3.77-6.61,2.65a3.09,3.09,0,0,1-.91-2C609.79,204.88,612.08,205.76,615.12,205.7Z"/><path class="cls-7" d="M581,292c4.09-.37,4.86,2.09,4.89,6.09-2.15-2.19-4.28-3.51-4.82-6.16Z"/><path class="cls-58" d="M517.72,143.86c-3.33,1.81-5.52,1.12-7.72-.35A10.26,10.26,0,0,1,517.72,143.86Z"/><path class="cls-59" d="M508,255c-2.53-.26-2.71,2.58-4.32,3.47-1.9-1.34,1-3.19-.69-4.44C505,252.59,506.47,254,508,255Z"/><path class="cls-60" d="M390.09,435c10.79,4.81,22,7.74,33.91,7l11.27,2.68c-1,2.65-3.95,4.31-3,7.22.55,1.75,2.32,2.22,4.54,2.11-1.85,3.16-4.4,5.44-4.42,9.05,0,4.29,3.68,4.95,6.88,6.9-3.66,1.76-7,3.32-10.05,3.76-4.23.63-4.22,2.71-4.91,5.85-2,9.1-3.77,18.16-2.68,27.53.36,3.13.94,6.25,1.34,9.38.42,3.31,1.35,6.39-3.17,8.43-3.25,1.47-2.67,5.78-3,9.06-.26,2.38-.36,3.31-3.89,3.65-4.11.4-8,3.34-12.3.51-3,3.86-5.83,4.62-9.21.15-.8-1-2.62.78-3.63,1.87-2.63,2.85-4.17,6.41-6.25,9.62-.69,1.06-1.86,3.29-2.53,2.64-4.51-4.4-9.52,2.43-14.31-1-2.15-1.55-4.47,1.69-5.83,3.62-1.85,2.62-3.37,3.35-5.32.37-1.62-2.46-2.79-2.54-4.05.34-2.48,5.68-6.49,10.27-10.85,14.6A6,6,0,0,1,332.6,572c-2.31-.55-2.72-2.56-3.17-4.59-3-13.47-6.32-26.87-9.07-40.38-1.28-6.26-2.75-12.64-1.28-19.16.3-1.29.49-2.83-1.08-3.46-1.84-.74-2.87.69-3.5,2-3.33,7-10.42,11.09-13.92,18.61-1.58-6.66-2.25-6.69-9.7-1.28-6.87.72-.25-3.37-1.64-4.61,2.55-4.43,2.55-4.43-5.93-5.38.16-2.32,3.05-4.66.61-6.89s-4.79,1.32-8.22.9c2.74-2.29,4.74-5,7.38-6,4.31-1.59,5.76-5.08,7.74-8.48,5.76-9.9,11.06-20.1,17.7-29.44,6-8.45,15-12.05,24.72-14.13a19.38,19.38,0,0,0,8.15-3.48c6.36-5.26,14.4-7.55,20.9-12.51,3.74-2.87,8.37-1.69,12.58-1.29C380,432.94,385,434.09,390.09,435Z"/><path class="cls-61" d="M330.86,400.9c.57,3.81-2.21,8.39,2.5,11.23.16.1-.2,1.23-.46,1.82-1.7,3.9,0,5.09,5.2,4.34-3,1.52-4.75,2.4-6.48,3.25-4.64,2.29-8.84-.57-8.49-5.78.25-3.8-1.23-4.73-4.81-3.11-1.44.66-2.51,2.12-4.71,2a41.62,41.62,0,0,1,7.47-12.79c.4-.48.58-1.41,1.8-.84C327,403,327,402.89,330.86,400.9Z"/><path class="cls-62" d="M335.78,435.8c3.63-4.09,7.24-7.95,10.61-12,2.39-2.87,4.92-.55,7.38-.57s1.64,2.24,2.38,3.44c2.78,4.46-.31,5.29-3.42,6.52a32.92,32.92,0,0,0-5.71,3C343.19,438.69,339.57,438.34,335.78,435.8Z"/><path class="cls-63" d="M359.32,395c-.3,8.62-10.94,23-17.17,22.76C347.18,409.53,350.18,400.22,359.32,395Z"/><path class="cls-64" d="M361.24,364.21c-3.25,4.57-6.88,5.28-10.32,6.33-2.22.67-4.46,1.28-6.68,2-1.26.39-2.79.7-2.71,2.41s1.5,1.93,2.9,2c.61,0,1.22.19,1.92.3-1.45,3.77-4.29,4-6.92,2.44-3.11-1.82-.29-3.93.41-5.91C343.45,363.6,352.79,366.79,361.24,364.21Z"/><path class="cls-65" d="M378.26,399.11c1.31.26,1.07,1.59,1.71,2.28,3.84,4.17,2.18,9.24-3.59,10.7-3.46.87-4.67,2.39-1.69,5.94-3.74-.69-6,1.6-8.93,2.91C372.87,415.26,372.3,405.57,378.26,399.11Z"/><path class="cls-66" d="M302.29,406.59c0-6.45,2.58-11,5.8-15.19.78-1,2.7-2.78,3.41-1.07.91,2.18,5.48,3.11,2.92,6.34C311.27,400.63,307.18,403.64,302.29,406.59Z"/><path class="cls-67" d="M335.06,406.75c-1.19-9.9,3.66-16.74,11.34-22.09C343.76,392.57,340.32,400.08,335.06,406.75Z"/><path class="cls-68" d="M365.25,387.76c2.18-2.81,5-3.28,7.68-3.89.83-.18,1.77-.2,2.19.68,1.19,2.48,3.23,5.06,3.1,7.5-.11,2-2.67,4-4.51,5.65-1.41,1.24-3.39.34-4.62-.62s.43-2,.86-2.9a13.74,13.74,0,0,1,1.16-1.62c1-1.5,2.69-3.06,1.51-4.9s-3-.19-4.5.08A18.84,18.84,0,0,1,365.25,387.76Z"/><path class="cls-69" d="M376.06,379.88c.57-3.21-1.7-4.13-4.49-4.61,4.81-4,11.22-4,15-.35,1.52,1.46.64,2.23-.55,3.07C382.9,379.74,379.92,382.15,376.06,379.88Z"/><path class="cls-70" d="M366.33,355.07c1.3,3.25.72,5.3-2.53,5.81-5.06.79-10.15,1.39-15.81,2.14C353.24,357.24,360.92,359.08,366.33,355.07Z"/><path class="cls-71" d="M351.69,419.12c3.05.73,3.93-1.65,5.1-3.51,3.12-5,3.1-5,8.53-2.82C360.77,420,358.73,421,351.69,419.12Z"/><path class="cls-72" d="M361.25,375.44c-.14,3.75-2.89,5.78-5.31,8a2.38,2.38,0,0,1-3.18.32c-1.05-.72-.37-1.72-.25-2.69C353.15,376,356.24,374.57,361.25,375.44Z"/><path class="cls-73" d="M339.62,363.36c-.69,4.45-3,6.94-5.09,9.5-1.11,1.4-2.91,2.51-4.59.43s-1.26-3.53,1-4.79C333.72,367,336.4,365.28,339.62,363.36Z"/><path class="cls-74" d="M343.67,401.07l7.61-15.86C353.07,393.24,351.93,395.63,343.67,401.07Z"/><path class="cls-75" d="M325.09,444a43.86,43.86,0,0,1,3-3.62c4.1-4,4.13-3.94,8.94.07-3.2,4.07-7.67,3.6-12.06,3.45Z"/><path class="cls-76" d="M376.06,379.88c3.57.73,6.5-1.91,9.94-1.89a25.44,25.44,0,0,1-2.54,2.92C378.77,384.92,378.75,384.89,376.06,379.88Z"/><path class="cls-77" d="M333.71,384.84c.84,5.77-1,9.41-5.73,12.43C329,392.54,331.11,389,333.71,384.84Z"/><path class="cls-78" d="M372.78,401.77c-1.55,3.07-1.3,7.85-7.21,7.34C367.27,405.52,370.35,403.88,372.78,401.77Z"/><path class="cls-79" d="M325.49,366.2c-1.19,3-3.16,5-6.78,5.44C318.12,366.18,322.75,367.34,325.49,366.2Z"/><path class="cls-80" d="M331.34,351.37c.08,2.36,5.66,4.87-.13,7-2.21.81-2.71,0-1.82-2.07C330.09,354.69,330.69,353,331.34,351.37Z"/><path class="cls-81" d="M309.89,413.91c-2.18-1.25-5.15-1.54-5.72-4.72l4-2.3C307.06,410.17,309.06,411.83,309.89,413.91Z"/><path class="cls-82" d="M328.74,384.53c0,5.41-4.23,5.5-6.76,7.28Z"/><path class="cls-83" d="M368.34,425.49a10.65,10.65,0,0,1-7.46-.14C363.58,423.4,365.73,423.35,368.34,425.49Z"/><path class="cls-84" d="M337.7,427.31c.85-3.28,1.36-5.7,5.25-6.15A11.82,11.82,0,0,1,337.7,427.31Z"/><path class="cls-85" d="M359.06,349.56c-1.53,3.52-3.44,4.62-6.57,3.85C354,351.3,356,350.51,359.06,349.56Z"/><path class="cls-83" d="M329.69,426.33c1-1.73,2.75-2.09,4.4-2.69C333.68,427.19,333.68,427.19,329.69,426.33Z"/><path class="cls-86" d="M362.6,406.06c1.17-2,1.14-5.15,5.15-5.28C366.59,403.52,364.55,404.76,362.6,406.06Z"/><path class="cls-87" d="M337.39,387.44c.38-2.63-.4-4.46,1.86-5.06a1.47,1.47,0,0,1,1.29.51C341.21,385,339.36,385.5,337.39,387.44Z"/><path class="cls-88" d="M318.44,389.41c.74-2.71,2.95-4.1,5-5.67A9.27,9.27,0,0,1,318.44,389.41Z"/><path class="cls-89" d="M345,348.42c-.13,2.68-.43,5.3-3.82,6Z"/><path class="cls-90" d="M368,380.29c-1.64,2-3.16,2.83-5.71,2.64C363.43,380.33,365.07,379.77,368,380.29Z"/><path class="cls-91" d="M291.9,376.42c.27-.13.39-.25.53-.26,1.85-.08,3.8-1.25,5.51.34a1.4,1.4,0,0,1-.25,1.26C295.49,378.68,293.71,377.69,291.9,376.42Z"/><path class="cls-36" d="M478.1,464c1.54,12.76,6.08,24.87,8.07,37.53,1,6.41,1.77,12.87,3,19.23.64,3.25,0,4.52-3.44,4.33-2.63-.14-5.31.41-7.79-.93-4.69-3.45-8.14-8.61-14.21-10.15-2.51-4.65-2.43-9.89-3-14.89q-1.34-11.25-2.78-22.5a8.46,8.46,0,0,1,1.32-6.51c5-2.59,10.23-4.76,14.82-7.89C477.33,460,477.5,461.76,478.1,464Z"/><path class="cls-92" d="M459.26,470.1c1.09,14.75,2.49,29.46,5.54,44,1.78,3.87,1.31,8.28,2.95,12.2a18.09,18.09,0,0,1,.7,3.41c2.54,13,2.54,13,15.43,16.35.65.17-.13-.11.48.13,1.86.73,5.2.29,4.77,3.16s-3.62,2.91-6.14,2.83c-2.79-.09-6.4-1.35-10.36-3.49.4,2.67,1.4,5.18,1.36,7.8,0,1.73.58,4.43-2.89,3.52-8-27.69-11.83-56.11-14.85-84.67-.24-2.23-.37-3.95-3.25-3.26C454.49,469.5,457.75,472.59,459.26,470.1Z"/><path class="cls-93" d="M414.37,577.78c-4.32-3.36-4.31-8-5.14-12.91,4.06,1.66,6.1-.42,7.64-3.74a4.21,4.21,0,0,1,4.66-2.18c1.65.34,1.27,2.46,1.51,3.88.31,1.8.53,3.61.86,5.4.42,2.24-.8,5.09-2.14,5C417.9,573,416.62,576.42,414.37,577.78Z"/><path class="cls-94" d="M412.93,591.66l-.93-1.57c2.71-1.23,1.53-2.72-.27-4.53,4.35,1.77,6.92-.83,9.56-2.69,2.28-1.62,3.69-1.3,4.86,1.09C422.53,587.88,417.42,589.24,412.93,591.66Z"/><path class="cls-95" d="M374.62,598.2c-.91,2-2.66,2.74-4.66,3.1-1.17-.9-2.11.53-3.74.24l3.64-5.18c.76-1.07,1.88-2.21.81-3.52s-2.13,1.07-3.52.43c.76-1.67,1.41-4.06,3.34-3.49,1,.3,2.47,2.45,2.65,4.46C373.26,595.64,371.86,597.76,374.62,598.2Z"/><path class="cls-96" d="M363.87,590.35c.44-4,2.72-6.15,7-6.94C369.68,587.2,365.24,587.26,363.87,590.35Z"/><path class="cls-97" d="M355.09,596.16c.29.31.88.72.82.92-.76,2.35,4.77,1.35,2.36,4.47-.25.32-.89.78-1,.69C355.17,600.9,355,598.67,355.09,596.16Z"/><path class="cls-98" d="M405.2,565.08c-1,2.73-1.86,4.39-3.9,5.73C400.61,567.38,402.11,566.22,405.2,565.08Z"/><path class="cls-99" d="M418.5,581.72c2.08-3.09,3.08-5.28,5.73-5.5.19,0,.71.85.61,1.12C424,579.64,421.53,579.77,418.5,581.72Z"/><path class="cls-100" d="M769.57,176.19c-4.27-2.3-5.35.36-6.82,3a49.94,49.94,0,0,1-7-25.86C760.11,160.53,764.43,167.69,769.57,176.19Z"/><path class="cls-101" d="M751.93,169.32c4.18,3.89,5,9,8.28,12.61,1.3,1.44.22,2.34-1.13,2.09-2.77-.51-6-3.06-5.51-4.84C754.59,175.61,752.47,173.17,751.93,169.32Z"/><path class="cls-100" d="M779.82,192.48l-8-11.57C780.09,181.05,778.76,187.74,779.82,192.48Z"/><path class="cls-102" d="M697.81,186.58c2.19-3.68,2.59-7.56,6.51-9.62C704.82,181.93,702.31,184.43,697.81,186.58Z"/><path class="cls-103" d="M533.06,584.82c8.82,2.42,17.61,4.95,26.47,7.23,3.33.86,5.43,3.11,7.55,5.44,12,13.18,25.45,24.9,38.75,36.76q34,30.35,68,60.83a132.18,132.18,0,0,1,18,20c9.21,12.55,13.12,26.72,12.73,42.16-.1,4.2-2.16,6.7-6.57,6.84-9.75,5-20.33,7.06-30.94,9.19-5,1-9.85,3-14.74,4.66-1.1.36-2.86.81-3,1.53-1.47,6.22-6.69,4.08-10.47,4.75-11.31,2-22.66,3.81-34,5.54-19.41,3-38.94,1.8-58.36.68a214,214,0,0,0-48.71,3.15c-5.25.9-10.52,1.71-15.79,2.49a75.63,75.63,0,0,1-36.93-3.4A49.4,49.4,0,0,0,424.94,790c-12.67.82-25.29-.61-37.77-3-1.27-.23-2.66-.27-3.78-1.68,1.59-1.82,3.35-3.57,4.8-5.54,2.86-3.89,2-7.3-2.42-9.28A33.48,33.48,0,0,0,371.6,768c-10.32.08-20.64.57-31,.75-24.08.43-47.74-4.18-71.61-6.27-6.3-.56-12.61-1.09-18.9-1.76-3.6-.39-5.31-1.63-3.21-5.77,10.39-20.53,21.07-40.83,36-58.54,13.79-16.32,30-30.1,45.66-44.53a277.19,277.19,0,0,1,58.32-41.08,179.16,179.16,0,0,1,79.45-28.25c9.73-1,19.51-2.66,29.24-1.78C508.12,581.92,521,580.15,533.06,584.82Z"/><path class="cls-104" d="M491,572.82c6,2.54,12.59,2.54,18.76,4.34,3.66,1.07,7.36,2,11,3-.51,2.8-2.79,1.67-4.34,1.82-8,.78-15.86-1-23.81-1-30,.23-58.78,6.07-86,18.86-1.64.77-3.7,3.58-5.64.15,26.38-15,55.27-22.27,84.76-27.73C487.53,571.94,489.37,571.62,491,572.82Z"/><path class="cls-105" d="M474.15,566.07c6.78-1.51,13.6-2.89,20.34-4.56,14.51-3.61,26.65,2.72,38.72,9.16a31,31,0,0,1,9,6.49l-14.88-3.35c-2.61-4.33-7-4.47-11.33-4.86-20.47-1.85-40.36,1.5-60.07,6.56-2.37.61-4.7,1.69-7.77,1.25C456.7,572.08,465.38,569,474.15,566.07Z"/><path class="cls-106" d="M401,600c1.08,2,2.25.41,3.19,0,31.68-15.19,65.05-21.4,100.09-19.34,5.48.32,11.1,1.58,16.55-.49,4.49.5,8.31,2.74,12.24,4.69-11.68-1.7-23.47-2.11-35.24-2.5-38-1.25-73.39,7.92-106.44,26.54-1.39.78-2.58,2.17-4.44,1.95C390.8,606.12,395.26,602.23,401,600Z"/><path class="cls-107" d="M471.1,560c3.06,0,1.82-2.25,1.64-3.58-.43-3.26-1.17-6.49-1.88-10.25,6,3.27,11.38,6.7,17.84,2.57-6.5.24-11.29-5.53-17.94-4.82-1.17.13-1-1.5-1.17-2.32-2-9.11-4.29-18.15-4.79-27.51a6.89,6.89,0,0,1,5.82,2.09c2.59,2.52,5.46,4.8,7.33,8-2.84-.58-5.57-1.68-6.88-4.32-.87-1.77-1.59-3.26-3.49-2-2.08,1.43-.89,3.19.36,4.67a17.43,17.43,0,0,0,20.82,4.13,5.86,5.86,0,0,1,1.08-.22c3.63,10.3,7.54,20.51,12,30.49-10.09.82-19.94,3.16-29.9,4.81C471.67,561.16,471.38,560.57,471.1,560Z"/><path class="cls-108" d="M555.46,586.23a109.28,109.28,0,0,1-23.17-6.81C540.44,580.26,548.46,581.53,555.46,586.23Z"/><path class="cls-109" d="M771.16,498.51l-3.94.85c1.27,2.61,3.74,3.5,5.92,4.48,8.43,3.77,14.06,10.5,19,17.84,4.27,6.29,3.63,14.19-1.19,20.48-9.28,12.09-28,15.75-41.56,8.74-22-11.38-19.72-29.83-8.35-46,5.69-8.1,15.39-8.35,24.63-7.47C767.19,497.57,768.65,498,771.16,498.51Z"/><path class="cls-3" d="M284.93,523a2.68,2.68,0,0,1,2.62,3c0,1.32-1.48.85-2.36,1C283.87,525.72,284.15,524.37,284.93,523Z"/><path class="cls-110" d="M634.67,173c-.17,1.35-1.33,1.78-2.27,2.4-3.42,2.26-7.23,4-9.58,7.63a2,2,0,0,1-2.61.75c-1.14-.47-1.17-1.48-1-2.5.36-2.65,11.38-10.51,14-10A1.64,1.64,0,0,1,634.67,173Z"/><path class="cls-111" d="M341.42,542.06a4.19,4.19,0,0,1,0,.5c-.12,2.53,3.91,6,.21,7.21-2.89,1-2.61-3.78-3.53-6-1.44-3.52-2.43-7.24-3.63-10.87-.5-1.48-.92-3,.86-3.89s2.79.36,3.73,1.6,2.13,2.8,3.61,4.74c.75-4.7-.6-8.49-.79-12.34-.1-2-.2-4.29,2.27-4.94,2.65-.69,3.45,1.57,4.06,3.43,2.05,6.14,4,12.33,5.88,18.52.44,1.4,1.06,3.23-.94,3.79s-2.31-1.45-2.89-2.75c-1-2.21-1-4.82-2.76-6.91C347,542.42,347,542.42,341.42,542.06Z"/><path class="cls-112" d="M390.93,446.89c-2.09.28-4.18-.28-6.29.81-1.94,1-3.13-.63-3.46-2.37s.91-2.33,2.43-2.37c3.31-.09,6.61-.13,9.92-.22,2.07-.05,3.37,1.25,4.57,2.64,5,5.89,7,13,7.63,20.48.21,2.42-1.09,3.34-3.45,2.55a8,8,0,0,1-2.33-.84c-5.29-4.23-12.47-6.53-14.34-14.29-.35-1.47-2.42-2.86-.19-4.14s3.05,1.21,4.39,2.22c1.75,1.43,1.81,4.27,4.42,5.05,2.33.7,3.53,2.85,5,4.68C399.46,455.67,395.81,449.52,390.93,446.89Z"/><path class="cls-111" d="M331.11,486.91c.05,1.85.78,4-1.48,4.39-2.5.48-2.72-1.75-3.17-3.55a40.83,40.83,0,0,1-.37-19.59c.49-2.13,1.19-4.43,3.67-4.85s4.16,1.31,5.05,3.32c2.55,5.79,3.71,12,5.25,18.12.29,1.15,0,2.54-1.41,2.77s-1.86-1-2.43-2.09.12-3.9-2.44-3.09C331.77,483,329.82,484.36,331.11,486.91Z"/><path class="cls-113" d="M330.13,502.64c1.85-4.68,8.59-9.5,13-9.4,2.49.05,9,6,9.13,8.34.15,3.73-5.23,8.75-9.34,9-2.77.17-3.16-1.95-4.09-3.62a17.59,17.59,0,0,1-1.74-3.57c-.95-3.32-2.34-4.14-4.77-1.17C331.85,502.75,331.27,503.05,330.13,502.64Z"/><path class="cls-114" d="M405.42,520.24c-1.83-.48-2.08-1.85-2.65-3-2-4.11-1.59-9.22-5.5-12.53-.81-.68-.34-1.91.17-2.79,1.9-3.32,3.71-6.71,6.44-9.47.93-1,2.05-2.08,3.42-1s.46,2.36-.34,3.46c-1.37,1.88-2.72,3.78-4.06,5.68a3.06,3.06,0,0,0,.18,3.73c1.14,1.62,2.31.44,3.44-.17a19.71,19.71,0,0,1,1.76-.93c1.13-.49,2.41-.73,3.16.43a1.89,1.89,0,0,1-1.13,2.85c-5.63,2-5.88,5.66-3.52,10.42C407.47,518.25,407.18,519.82,405.42,520.24Z"/><path class="cls-115" d="M381.32,519.23c1.51.32,2.93-2,4.16-.32s-.44,3-1.58,4.15c-.87.86-1.88,1.62-.89,2.88,1.24,1.59,1.94-.25,2.83-.64s1.92-.92,2.74-.09c1,1.06.46,2.19-.38,3.08-1.59,1.68-3.17,3.65-5.81,3.26-2.4-.36-3.05-2.61-3.37-4.5-.88-5.08-5-10.37.58-15.22,1.22-1.05,2.47-2.86,4.12-1.3,1.4,1.31.08,2.73-1,3.83C381.55,515.62,380.63,517,381.32,519.23Z"/><path class="cls-116" d="M353.59,457.89c2,.5,2.28,2.22,2.39,3.85.23,3.3.21,6.61.39,9.92.13,2.5,1.05,3.82,3.62,2a1.82,1.82,0,0,1,.43-.24c2.44-.74,5.33-4.66,7.14-1.44,1.44,2.56-3,3.57-5.12,4.85-7.11,4.34-9.51,5.83-9.95-5.24-.14-3.63-.57-7.25-.83-10.88C351.56,459.3,351.61,458,353.59,457.89Z"/><path class="cls-114" d="M359.59,526.36c.94-3.64,1.67-6.52,2.44-9.39.28-1,.86-1.84,2.08-1.64s1,1.2.95,2a20.92,20.92,0,0,1-.49,4.25c-1.07,4.4-2.14,8.94.28,13.42.71,1.32,1.26,3.62-.73,4.35-2.29.83-2.73-1.59-2.94-3-.66-4.44-4.29-6.46-7-9.27-1.2-1.25-3.56-2.39-1.89-4.35s3.16.13,4.48,1.25C357.53,524.54,358.25,525.19,359.59,526.36Z"/><path class="cls-114" d="M350.85,480.05a8.52,8.52,0,0,1-5.81,4.68c-2.82.52-2.76-2.16-2.81-4.14a66.22,66.22,0,0,0-2.17-15.2c-.33-1.27-.56-2.84,1.2-3.26s2.39.95,2.68,2.29c.72,3.22,1.24,6.49,1.94,9.73.43,2-.73,5.46,3.67,3.94C350.23,477.85,350.93,478.82,350.85,480.05Z"/><path class="cls-117" d="M390.93,446.89c1.71-1,3.5-.74,4.29.9,2.07,4.3,6.14,7.73,5.87,13.08,0,.91.75,2.18-.44,2.6a2.19,2.19,0,0,1-2.74-1.56c-.78-3.25-3.17-4.39-6-5.15-3.12-.84-1.35-3.62-2.11-5.4C390.18,449.87,390.55,448.38,390.93,446.89Z"/><path class="cls-114" d="M390.08,503.66c1.64.35,2,1.42,2.15,2.63a80.24,80.24,0,0,0,1.28,8.38c.67,2.62-.12,7,5.24,5.32,1.21-.37,2.29.88,1.53,2.26-1,1.92-3.18,2.32-5.09,2.78-1.7.41-2.85-.59-3.52-2.11-2.37-5.44-2.51-11.33-3.45-17A1.84,1.84,0,0,1,390.08,503.66Z"/><path class="cls-118" d="M372.19,518.08c-2.18,3.29-.24,5,2.9,6.89,2.27,1.35,2.52,4.17,2,6.75-.42,2.06-2.08,2.88-3.93,3.31-1.14.26-2.39.32-3-1-.49-1.09.08-1.89,1-2.47,3-1.83,2.13-3.1-.5-4.41-4.13-2-4.86-9-1.33-11.87a1.84,1.84,0,0,1,2.28-.32C372.57,515.6,372.41,516.68,372.19,518.08Z"/><path class="cls-113" d="M358.58,488.8c4.1,2.76,5.87.2,7.13-3.57.36-1.08.93-2.42,2.4-1.89s1.24,2,.68,3c-2.41,3.93-1.85,7.81-.26,11.79.57,1.42,1.05,3.17-.95,3.7-1.59.43-2.45-1.14-2.6-2.4-.5-4.28-3-6.17-7-6.88-1.23-.22-2.73-.91-2.46-2.6S357.2,488.78,358.58,488.8Z"/><path class="cls-119" d="M481.5,497.64c-4.41,2.59-8.27,1.4-12.09-.24-1.22-.52-1.92-1.41-1.43-2.72a1.82,1.82,0,0,1,2.5-.91C474.17,495,477.83,496.35,481.5,497.64Z"/><path class="cls-120" d="M494.55,765.36c2.7-3.89,7-4.88,11.1-5.9,10.71-2.63,21.86-2.25,32.64-4.58,7.51-1.63,15.05-3,20.68-9,3.16-3.38,6.44-6.61,4.12-11.76s-6.82-6.66-11.87-6.77c-4.18-.09-8.21,1.2-12.22,2.32-8.83,2.48-17.66,5-27,4.86-3.34-.06-7.12-.08-8.74-3.61-1.7-3.69-.25-7.51,2.38-10.15,6.68-6.71,14.95-11,23.84-14.12,1.29-.46,2.93-.54,3.17,1.24.21,1.51-1.42,1.62-2.49,1.84-7.91,1.66-14.2,6.32-20.41,11.08a9.77,9.77,0,0,0-2.52,3c-2.58,4.66-1.38,6.86,3.87,7.1,8.82.4,17.13-2.14,25.45-4.57a59.22,59.22,0,0,1,14.66-2.87c6.39-.21,12.86,3.5,15.17,8.7,2.61,5.89,1.35,10.35-4.39,16a30.79,30.79,0,0,1-15,8.54,146.67,146.67,0,0,1-23.15,3.8c-9.19.59-18.25,1.59-26.87,5.11A2.16,2.16,0,0,1,494.55,765.36Z"/><path class="cls-121" d="M629,738.71c-1.88.67-2.77-.52-3.69-1.35q-21.16-19-42.29-38.12c-4.75-4.29-7.66-10.06-12-14.7-.85-.91-1.46-2-.25-3a2.13,2.13,0,0,1,3.12.3,15.86,15.86,0,0,1,2.24,2.67c5,7.86,11.76,13.9,18.71,20,10.54,9.18,20.6,18.92,30.81,28.48C627.28,734.48,628.86,736.2,629,738.71Z"/><path class="cls-122" d="M638.33,703.25c5.47-5.28,9.91-4.83,14,.48,4.31,5.65,8.2,11.21,6.05,19.07-1.61,5.91-5.51,9.43-10.71,11.62-3.57,1.51-6.65-.46-8.55-3.42a25.71,25.71,0,0,1-3.67-18.66c.27-1.59.84-3.68,3.07-3,2,.6,1,2.13.58,3.65-1.41,5.43,0,10.58,2.54,15.37,1.57,2.94,4,3.63,7.09,1.64,7.13-4.58,8.55-12.67,4-19.9C649.3,704.59,645.41,701.18,638.33,703.25Z"/><path class="cls-123" d="M683.59,739a8.24,8.24,0,0,1,.6-1.72c5.73-7.81,4.82-11.87-3.86-16.21a46.83,46.83,0,0,0-7-2.51,22.28,22.28,0,0,1-9.43-5.4c-2.52-2.55-4.12-5.42-2-8.92,2.22-3.74,5.91-4.58,9.93-4.32,1.21.07,2.35.7,2.13,2.2s-1.35,1.17-2.33,1.06a8.28,8.28,0,0,0-4.82,1c-2.61,1.39-3.11,3.35-1.12,5.67,2.71,3.18,6.41,4.67,10.31,5.72,5.44,1.46,10.32,3.86,13.74,8.48,2.32,3.15,3,6.8,1.1,10.36C689.39,737.09,687.26,739.13,683.59,739Z"/><path class="cls-124" d="M605.69,749c-3.72-.2-6.08-2.09-8.2-4-7.08-6.43-13.1-14.13-22.21-18.06a1.42,1.42,0,0,1-1-1.95,1.57,1.57,0,0,1,2.05-.93c2.3.89,4.77,1.64,6.75,3.05,7.87,5.56,14.09,13,21.35,19.29C605,746.84,605.12,747.74,605.69,749Z"/><path class="cls-125" d="M557.4,708.16c-1.29.06-2.56.13-2.6-1.55a1.7,1.7,0,0,1,1.86-1.85,2.49,2.49,0,0,1,2.77,2.29C559.63,708.78,558.1,707.92,557.4,708.16Z"/><path class="cls-126" d="M330.25,479.69c-.71-4-1.18-7.57,0-11.2C334.5,472.59,334.67,476.76,330.25,479.69Z"/><path class="cls-127" d="M349,501.28c-.73,3.35-2.53,5.46-5.58,5.88-1.38.19-2.51-2.2-2.12-2.88C343,501.5,345.77,501,349,501.28Z"/><path class="cls-128" d="M344.38,497.15c-.65,1.84-2.3,2.3-3.76,2.88-1.24.49-2-.45-2-1.47,0-2.12,1.94-1.85,3.22-2.27A1.94,1.94,0,0,1,344.38,497.15Z"/></svg>