<svg xmlns="http://www.w3.org/2000/svg" viewBox="0 0 819.82 819.82"><defs><style>.cls-1{isolation:isolate;}.cls-2{fill:#f7ac63;}.cls-2,.cls-4,.cls-7{stroke:#000;stroke-miterlimit:10;}.cls-2,.cls-7{stroke-width:3px;}.cls-3{opacity:0.25;mix-blend-mode:multiply;}.cls-4{fill:none;stroke-width:7px;}.cls-5{fill:#f9d023;}.cls-6{font-size:52px;}.cls-6,.cls-8{font-family:Boogaloo-Regular, Boogaloo;}.cls-7{fill:#fff;}.cls-8{font-size:36px;}.cls-9{fill:#010101;}.cls-10{fill:#e5d3a0;}.cls-11{fill:#b0d9fc;}.cls-12{fill:#020202;}.cls-13{fill:#6677a2;}.cls-14{fill:#e4d2a0;}.cls-15{fill:#030303;}.cls-16{fill:#e3b9b2;}.cls-17{fill:#e3d19f;}.cls-18{fill:#e2b8b1;}.cls-19{fill:#040403;}.cls-20{fill:#040404;}.cls-21{fill:#6676a0;}.cls-22{fill:#add4f6;}.cls-23{fill:#ddb4ae;}.cls-24{fill:#0c0809;}.cls-25{fill:#e45d60;}.cls-26{fill:#c9bb94;}.cls-27{fill:#0b0b0b;}.cls-28{fill:#0e0e0e;}.cls-29{fill:#121212;}.cls-30{fill:#101214;}.cls-31{fill:#d1b5b0;}.cls-32{fill:#181414;}.cls-33{fill:#101315;}.cls-34{fill:#232323;}.cls-35{fill:#c9c9c9;}.cls-36{fill:#686a6e;}.cls-37{fill:#c6c6c6;}.cls-38{fill:#1f1f1f;}.cls-39{fill:#c7bb97;}.cls-40{fill:#455067;}.cls-41{fill:#6777a2;}.cls-42{fill:#6778a1;}.cls-43{fill:#444f67;}.cls-44{fill:#b0d9fb;}.cls-45{fill:#fbfbfb;}.cls-46{fill:#e2d19f;}.cls-47{fill:#444f66;}.cls-48{fill:#b0d7f9;}.cls-49{fill:#64759e;}.cls-50{fill:#444e66;}.cls-51{fill:#ee6165;}.cls-52{fill:#65769f;}.cls-53{fill:#eeeeef;}.cls-54{fill:#dfb6b0;}.cls-55{fill:#e0cfa0;}.cls-56{fill:#f4f5f5;}.cls-57{fill:#67779e;}.cls-58{fill:#f4f4f4;}.cls-59{fill:#434e65;}.cls-60{fill:#ee6064;}.cls-61{fill:#ea5e62;}.cls-62{fill:#5b698f;}.cls-63{fill:#0e0f12;}.cls-64{fill:#e95e61;}.cls-65{fill:#404a60;}.cls-66{fill:#d7c699;}.cls-67{fill:#decc9b;}.cls-68{fill:#070708;}.cls-69{fill:#eceded;}.cls-70{fill:#e55f63;}.cls-71{fill:#5e6e94;}.cls-72{fill:#9d4144;}.cls-73{fill:#3c465b;}.cls-74{fill:#9d9170;}.cls-75{fill:#f3f4f5;}.cls-76{fill:#3e485d;}.cls-77{fill:#f2f2f3;}.cls-78{fill:#d5c598;}.cls-79{fill:#f3f3f4;}.cls-80{fill:#d3d3d4;}.cls-81{fill:#aed1f1;}.cls-82{fill:#eeeff1;}.cls-83{fill:#dcdbe1;}.cls-84{fill:#f2f5f7;}.cls-85{fill:#ebebe9;}.cls-86{fill:#c1c5cf;}.cls-87{fill:#e6e6e3;}.cls-88{fill:#607097;}.cls-89{fill:#444d60;}.cls-90{fill:#c3c3c4;}.cls-91{fill:#424c62;}.cls-92{fill:#909191;}.cls-93{fill:#262b36;}.cls-94{fill:#e1e1df;}.cls-95{fill:#e2e0dc;}.cls-96{fill:#384155;}.cls-97{fill:#6474a0;}.cls-98{fill:#a7caea;}.cls-99{fill:#2a303e;}.cls-100{fill:#e5eaee;}.cls-101{fill:#5c616f;}.cls-102{fill:#d5d6d9;}.cls-103{fill:#bdc4ca;}.cls-104{fill:#f2f6f9;}.cls-105{fill:#c7c8cb;}.cls-106{fill:#a8a8a8;}.cls-107{fill:#b79893;}.cls-108{fill:#bfbfbf;}.cls-109{fill:#d5d9dc;}.cls-110{fill:#e5d6d7;}.cls-111{fill:#6777a0;}.cls-112{fill:#eeebe4;}.cls-113{fill:#3d3d3d;}.cls-114{fill:#707070;}.cls-115{fill:#394151;}.cls-116{fill:#b2474b;}.cls-117{fill:#404a61;}.cls-118{fill:#b3b5b9;}.cls-119{fill:#f4f2ec;}.cls-120{fill:#596f80;}.cls-121{fill:#43464e;}.cls-122{fill:#c5b99a;}.cls-123{fill:#abc8db;}.cls-124{fill:#f1f0ef;}.cls-125{fill:#f8f6f0;}.cls-126{fill:#fcfcfb;}.cls-127{fill:#f4eddd;}.cls-128{fill:#080909;}.cls-129{fill:#f3f9fc;}.cls-130{fill:#e5e3dd;}.cls-131{fill:#96a3ae;}.cls-132{fill:#ddd9cf;}.cls-133{fill:#b1a88b;}.cls-134{fill:#decd9c;}.cls-135{fill:#faf8f5;}.cls-136{fill:#dfa094;}.cls-137{fill:#ef6064;}.cls-138{fill:#ee6366;}.cls-139{fill:#a84649;}.cls-140{fill:#913b3d;}.cls-141{fill:#fceeef;}.cls-142{fill:#ddcd9f;}.cls-143{fill:#c9b98d;}.cls-144{fill:#e5e7e8;}.cls-145{fill:#887e62;}.cls-146{fill:#9c906e;}.cls-147{fill:#100d0d;}.cls-148{fill:#161111;}.cls-149{fill:#292120;}.cls-150{fill:#b98b8d;}.cls-151{fill:#020203;}.cls-152{fill:#afd7f9;}.cls-153{fill:#040405;}.cls-154{fill:#050506;}.cls-155{fill:#030405;}.cls-156{fill:#050607;}.cls-157{fill:#e1e2e4;}.cls-158{fill:#d5d6d8;}.cls-159{fill:#f0f4f7;}.cls-160{fill:#d6d6d6;}.cls-161{fill:#c3c4c7;}.cls-162{fill:#a8b6c2;}.cls-163{fill:#b6b9c1;}.cls-164{fill:#c6c7ca;}.cls-165{fill:#020304;}.cls-166{fill:#f1f3f6;}.cls-167{fill:#525e7f;}.cls-168{fill:#060708;}.cls-169{fill:#f3f5f7;}.cls-170{fill:#090a0d;}.cls-171{fill:#f1f6f9;}.cls-172{fill:#070707;}.cls-173{fill:#080809;}.cls-174{fill:#ecedef;}.cls-175{fill:#0f0606;}.cls-176{fill:#100606;}.cls-177{fill:#3d465b;}.cls-178{fill:#e4e4e4;}</style></defs><title>graphic-put-out-fires</title><g class="cls-1"><g id="Layer_1" data-name="Layer 1"><rect class="cls-2" x="-0.68" y="1.32" width="820" height="821"/><g class="cls-3"><rect x="-13.18" y="18.82" width="578.5" height="92.5"/><rect class="cls-4" x="-13.18" y="18.82" width="578.5" height="92.5"/></g><rect class="cls-5" x="-0.18" y="1.82" width="578.5" height="92.5"/><rect class="cls-4" x="-0.18" y="1.82" width="578.5" height="92.5"/><text class="cls-6" transform="translate(32.82 67.07)">PUTTING OUT CSS FIRES?</text><path class="cls-7" d="M573.68,200.79c-73.51,0-133.1,26.11-133.1,58.31,0,17.12,16.84,32.51,43.68,43.18q6.57,2.61,13.91,4.84c1.75,18.89-7.05,29.95-14.08,33.9,23.89-8.51,33.95-18.09,37.66-27.6q.11-.3.18-.6a286,286,0,0,0,51.79,4.59c73.51,0,133.1-26.1,133.1-58.31S647.19,200.79,573.68,200.79Z"/><text class="cls-8" transform="translate(487.85 249.65)">They broke the <tspan x="6.82" y="43.2">build AGAIN!</tspan></text><path class="cls-9" d="M41.29,691.56c13-26.06,21.17-54.19,33.68-80.63-.35-.11-1.57-.48-2.8-.83-10.84-3.1-11.26-3.64-8.43-14.93A64.22,64.22,0,0,1,70,578.88c9.07-15.88,16.21-32.49,18.7-50.75.79-5.83,6.47-8.25,8.29-13.49,3.23-9.28,11.59-16.34,10.94-27.57-.19-3.3,3.85-6.85,5.94-10.29,3-1.54,4.93-.36,5.58,2.55.89,4,3.89,5.74,6.89,7.78,13.66,9.34,28.45,17.06,40.06,29.33,6,6.38,20.54,2.11,23-6.89,2.44-8.68,7.68-16.84,5.54-26.63-.71-3.25,1.52-6.49,1.86-9.85.41-4.19,2.84-6.32,6.84-5.16,4.48,1.28,3.73,4.53,2.1,7.66.88-.33,1.34-1.45,2.23-2.08,1.75-1.22,3.66-2.13,5.56-.67,2.16,1.67,1.66,4,.77,6.14a31.79,31.79,0,0,1-3.59,5.68c-4.47,6.48-8.63,13.14-10.95,20.75-1.58,5.2-1.26,9.7.72,15.31,2.54,7.16,4.79,15.32,2.56,23.52s-4.9,16.4-4.9,25c0,9.21,2.23,11.23,10.78,8.32,9.3-3.17,18.58-6.49,27.8-9.86,12.09-4.41,24.52-4.86,37-6.13,6.43-.65,12.9-1,19.29-2,3.49-.27,6.37-4.78,10.37-1.49,1.62,5-1.82,6.87-5.43,8.36-2.77,1.15-5.55,2-5.35,5.79-.31,9.57,2.33,18.79,3.3,28.2,1.14,6,.47,12.09.63,18.15.08,2.92-.36,6,.86,8.66,3.11,6.82.81,12.34-4,17.09-3.78,3.76-4.76,7.86-3.28,12.87,2,6.76,3.34,13.54.06,20.38-1,2.12-.35,3.94,2.08,4.83,2.72,1,4.7.32,6.27-2.21a166.47,166.47,0,0,0,10.29-18.16c1-2.21,1.65-4.72,3.85-6.22,3.39-1.32,5.48.94,7.6,2.91,3.6,3.35,6.8,7.13,10.57,10.29,5.74,4.81,10.37,4.26,14.69-1.86,3.75-5.31,7.31-10.8,6-17.87a10.5,10.5,0,0,1,.36-1.84c1-2.72.37-4.22-2.83-4.2-4.41,0-8.84-.26-13.18.91-2.6.09-5.21.2-5.43-3.45a6.66,6.66,0,0,1,3.38-4.17c3-1.53,6.34-2.54,9.65-2,8.16,1.42,15.86-.28,23.5-2.73,2.2-.71,3.89-.41,5.26,1.47,1.58,4-.78,7-2.79,9.87a133.83,133.83,0,0,0-13.25,24.16c-2.74,6.55-1.87,7.49,5.18,7.47,18.4-.07,36.8,0,55.21,0,8.33,0,8.77-.5,6.89-8.32a72,72,0,0,1-2-24c.62-6.62-.84-12.94-6.19-17.76a39.3,39.3,0,0,1-4.66-5.75c-4.52-6-4.46-12.76.87-20.93a12.78,12.78,0,0,1-8.59,3.08c-9.19,0-14,4-15.84,13.15-1.23,6.28-2.9,12.22-8.43,16.23-8.83,2.18-16.85-1-24.33-4.76-7-3.49-13.87-6.89-21.63-8.29a11.58,11.58,0,0,1-5.84-3c-2.65-2.68-2.13-5.68-.79-8.71a73.82,73.82,0,0,1,4.14-7.69c2.48-4.21,3.1-7.42-2.05-10.54-4.27-2.58-6.54-7.6-4.7-12.33,4-10.19,8.42-20.25,14.62-29.38a7.72,7.72,0,0,1,2.59-2.1c3.07-.93,5.05-2.4,2.93-5.92a19.21,19.21,0,0,1,1.12-5.26c1.34-4.55-.55-7.73-4.7-9-10.48-3.31-21.15-6-30.92-11.31-2.44-1.32-4.32-.47-4.59,2.72-.41,4.9-1.42,9.7-.57,14.74,1.18,7-1.13,14.21,1.38,21.27.95,2.67-1.77,4.31-4.2,5.28-2.85.94-5.39,2.59-8.23,3.57-1.32.29-2.65.71-3.86-.31-1.51-2.68-.37-4.89,1.56-6.59,2.92-2.57,2.95-5.17,1-8.3-2-3.35-2.62-6.63.94-9.59,1.9-1.58,1.76-4,1.82-6.25.18-6.93-.5-13.9.83-20.8.57-3-.89-5.22-3.15-7a69.18,69.18,0,0,1-8.48-7.65c-1.79-1.93-3.43-3.22-6.36-1.8a6.45,6.45,0,0,1-7.48-1.57c-11.92-11.94-27.27-15.74-43.12-18.44-2.38-.75-4.85-.51-7.27-.69-6.8-.5-7.87-2.52-4.81-8.91,2.28-3.53,3-7.71,5.06-11.44,3-5.5.25-9.29-6-9.29-4.19,0-8.41-.43-12.57.54a17.84,17.84,0,0,1-3.27.3c-1.08,0-2.38-.05-2.65,1.31s.88,1.89,1.9,2.3c3,1.24,6.24,2.11,9.28,3.41,4,1.3,8.07,2.46,9.81,6.94a6.73,6.73,0,0,1-.86,4.3c-5.75,6-14.31,6.07-21,10.05-10.53,6.24-21.5,5.85-33.13,3.23-13-2.93-26.42-.81-39.65-1.17-3.81-.1-7.62.31-11.41-.38-8.55-8.64-18.76-9.25-30.17-7.4-16.6,2.7-33.19,5.36-49.61,9a68.18,68.18,0,0,0-20.63,8c-2.26,1.37-4.4,2.59-6.21-.56-1.53-4.42,2.24-5.36,4.75-6.8,9.08-5.25,19.14-7.84,29.33-9.62,18.34-3.21,36.55-7.46,55.27-8.12,2.19-.08,4.34-.29,3.71-3.28-.7-3.3-2.13-6.13-6.33-5.27-4.84,1-9.6,2.42-14.57,2.66C46.42,451.92,19,459.84-7,472.85c-3,1.49-6,3.26-9.5,1.44-1.7-3.63,1.18-4.78,3.44-6.11C-2.41,461.86,9,457.4,20.83,453.63c20.8-6.65,41.86-11.71,63.8-12.47,7-.24,12.78-2,13.51-10.65.32-3.78,2.49-7.16,4.67-10.34,3.18-4.65,6-9.56,7.36-15,2.48-10.13,9.2-16.71,17.54-22,11.2-7.11,22.13-14.54,30.78-24.8,1.08-2.21,2.25-4.6,5.28-3.09s1.61,4.05,1,6.32c-8.8,10.32-18.61,19.45-30.65,26-8.63,4.67-15.1,11.05-17.6,21a51.65,51.65,0,0,1-7.8,16.37c-7.6,11.13-5.43,22.63-1.71,34.19,1.29,4,5.11,3.92,8.48,3.95,11.24.11,22.47,0,33.71,0,4,0,8.12-.19,12.05,1,4.29,1.26,6.36-.47,7-4.67a27.73,27.73,0,0,0,.1-6c-.34-4.41-2.18-6.32-6.94-5.7-5.54.73-11.08,2-16.74,1.42-2.95-.33-6.12-.5-5.74-4.84a3.59,3.59,0,0,1,3.42-2.78c9,0,17.68-3.14,26.7-2.14a29.77,29.77,0,0,0,13.74-1.88c.85-.3-.37-1.47,0-.68.05.1,0,.17-.27.29a20.92,20.92,0,0,1-11.7,2.17c-9.71-.81-19.1,2.06-28.72,2.18a6.1,6.1,0,0,0-3.64,1.59c-2.39,2.24-5.19,4.53-8.12,1.58-2.51-2.55-.74-5.84,1.14-7.92,7.57-8.42,9.67-20.3,18.05-28.16,1.67-1.57,1.27-3.75.93-5.74-.74-4.34,1-7.86,3.44-11.24,1.55-2.16,3.24-4,6.1-2.46a4.52,4.52,0,0,1,2.16,6.33c-2.3,4.18-2.5,8.41-2.17,12.95a7,7,0,0,1-3,6.48c-6.7,4.18-7.8,11.54-11.83,18.94,12.14-2.57,23.28-2.8,34.37-3.61,2.7-.19,5.52-1,7.89.5,4.57,2.88,5.81.56,6.49-3.52,1-5.83,1.29-11.61-.93-17.24-2.06-5.22-3.71-10.57-5.5-15.88-4-11.8-12-20.88-20.67-29.4-3.22-2.76,1.08-7-2-9.81,0-3.84,2-7.52.85-11.44a16,16,0,0,1,5.31-8.8c-2.6,2.46-6.12,6-5.29,11.69-.16,2.93-.56,5.77-3,7.82-4.5,1.78-9.09,1-13.67.48-11.8-2.1-14.21-7.66-7.73-17.7,2-3.07,4.27-6.15,7.55-7.47,7.59-3.06,9.89-9.78,12.75-16.36,3.3-7.59,6.88-15.06,10.37-22.57a31.2,31.2,0,0,1,6.56-9.29c4.3-4.19,8.37-6,15.33-3.86,16,4.84,26.21,14.89,31.94,30,1,2.74,2.3,2.72,4.37,2.41,3.55-.53,7.09-1.12,10.65-1.51,1.8-.2,3.87-.1,4.1,2.31.22,2.16-1.29,3.19-3.31,3.41-.89.1-1.79.05-2.69.1-9.19.44-10.11,1.07-10.52,10.26-.32,7-1.29,13.83.57,20.75a3.74,3.74,0,0,1-1.67,4.1c-1.92.94-4,.43-6,.45-2.59,0-5.14-.63-6-3.35-.77-2.41,1.29-3.58,3.1-4.54a3.45,3.45,0,0,0,1.92-3.9,41.73,41.73,0,0,1,.82-14.69c.59-2.75-.24-4.37-3.48-4-9.1,1.16-18.28,1.8-27.27,3.81-6,1.34-5.11,7.42-6.63,11.18-2.7,6.66-2.44,14.29-7.49,20.43-2.67,3.25.32,6.85,2.66,9.58,6,7,11.4,14.4,15.05,22.95.52,2.11,1.47,4.11,1.9,6.26a111.52,111.52,0,0,0-3.47-13c-1.45-3.32.73-5.58,2.47-7.83,2-2.64,2.11-4.73-.88-6.67a7.29,7.29,0,0,1-3.55-4.7c-.56-3,1.48-5.92,3.77-4.55,5.82,3.5,12.43,2.34,18.37,4.42,1.24,2.71.86,4.33-2.12,6.06-8.63,5-8.52,6-1.88,13.51,5.69,6.45,13,10.95,19.92,17.2,5.6-26.85,23.81-45,40.54-64.15,1.61-2.64,3.29-4.94,6.29-1.42,1.41,3.89-.95,6.43-3.34,8.83-9.52,9.59-17.15,20.71-25.23,31.42-9.08,12-11.58,26.58-13.51,41.07-1.18,8.86-1.18,17.87-4.65,26.35-1.63,4-1.47,6.57,4.24,7.55,10.38,1.77,19.16,7.68,27.24,14.07,11.05,8.74,22.36,17.23,32.16,27.44,3,4.23,4.38,1.71,5.55-1.42,2-4.25,4.39-8.33,4.9-13.15a7.38,7.38,0,0,1,2.36-4.71c1.4-1.29,3-2.08,4.89-1.36,2.08.79,2.2,2.66,2,4.51a39.61,39.61,0,0,1-4.27,14.39,14.35,14.35,0,0,0,5.86-7.15c1.57-3.58,4.21-5.09,8.1-4.16,4.18,2.3,2.73,5.51,1.34,8.66-1,2.22-3.21,3.69-4.23,6.82,8.93,2.11,18.06,2.56,26.37,7.88-1.57-6.91-4.57-12.69-4.83-19.12.35-2.92.64-5.9,4.87-5,3,2.06,3.88,5.37,4.84,8.6.64,2.15.91,4.39,1.65,6.53a51.72,51.72,0,0,0,6.1,11.23c3.06,4.64,7.44.46,11.19,1.21,8.65,1.72,16.35-1.27,23.59-5.78.57-.36,1.17-.67,1.77-1,2.37-1.15,4.88-1.83,6.74.58,2.28,3,.15,4.92-2.61,7.19a62.49,62.49,0,0,0,7.41-1.28c4.52-.82,7.12-3,7.53-8,.62-7.63,7.47-9.49,12.79-12.5,1.92-1.09,3.81.71,5.34,2,5.58,4.87,10.3,10.2,9.66,18.43.84-6.66,4-13,2.15-19.9-1.08-5.47-.81-11.1-2.24-16.58-1.24-4.77,2.12-5.36,5.65-4.4,4.23,1.14,8.3,1.85,12.47-.11,2.85-1.34,5.08-3.18,4.82-6.57-.36-4.63-1.9-9.08-6.06-11.41-2.94-1.65-5.45,1.11-7.69,2.89a12.78,12.78,0,0,0-4.68,7.25c-1.35,6.28-5.22,10.23-10.8,12.86-4.44,6.8-11.23,8.63-18.79,10-12.69,2.35-25.08,2-38,.93-10.23-.83-20.77-2.79-31.23-1.17-1.79-1.27-3.76-2.37-4.71-4.52-.37-.81-.18.27-.3-.59-1.92-13.53-7.81-25.62-13.28-37.93-2.35-5.27-3.62-11-6.39-16.21a27.83,27.83,0,0,1-3.53-14.19c.28-8.29-2.06-15.9-5.73-23.24-2.69-5.38-5.72-10.7-5.55-17,4.63-5.47,4.8.49,6.5,2.53,6.22,12.67,12.7,25.23,12.06,40-.23,5.37,2.67,9.69,6.21,14.84.22-3.82.49-6.6.52-9.38.17-20.68,11.81-33.41,29.25-42,3.4-1.67,5.48-4.55,8.13-6.91,1.83-1.63,1.62-3.48.19-5.36-1.84-2.41-3.2-.4-4.43.55-3.55,2.73-7,5.6-10.42,8.5-1.62,1.37-3,4.43-5.36,2.54-2.2-1.76-5-3.93-3.8-7.8,1.49-4.64,3.76-8.89,7.86-11.45,4.5-2.8,5.57-6.51,5.17-11.37-1-12.25,3.31-22.44,12.34-30.68,11.72-10.69,25.24-11.18,37.51-1.3,8.29,6.67,15.69,14.9,27.84,14.33a4.51,4.51,0,0,1,4.82,4.66c-.06,2.85-2.57,3.36-4.62,4.2a8.23,8.23,0,0,1-1.3.32c-3.58.83-9.23-.09-10.06,3.44-1,4.52,1,9.67,3.92,13.89.25.37.57.69.84,1.05,5.06,6.75,4.67,7.8-3.66,9.93a6,6,0,0,1-3.89.7c-1.94-.21-4.44.35-5.32-2s1.17-3.59,2.93-4.59c5.25-3-.58-5.69-.2-8.53-1.46-6.69-1.47-6.7-7.38-3.89-1.19.57-2.35,1.2-3.52,1.81-1.78.93-2.25,2.51-2.66,4.37-1.44,6.37-4.1,7.86-9.94,5.87-2.15-.73-4.39-3.29-6.52-.35s.56,4.89,2.15,6.94a13.6,13.6,0,0,1,1.19,1.63c1.13,2,2.26,4.19,0,6s-4.6.85-6.61-.92c-1.63-1.43-4.07-5.2-5.34-8.1-7.56,7.11-4,12.12,3.5,17.31,4.63,3.19,6.75,9.32,11.59,13.8,3.2-8.8,11.16-11.44,18.29-15.51-2.93-3.82-10.91-4.7-6.89-11.77,1.65-2.89,4.72-6.06,8.14-4,2.69,1.61,10,.61,6.61,7.76-.88,1.43-3.91.83-.6,4.74,8.64,10.2,20.93,18.28,23,33.15.37,2.65,1.19,5.23,0,7.86-4.9,2.57-6-1.13-6.55-4.42a41.64,41.64,0,0,0-8.07-17.52c-2.73-3.67-6.6-5.31-10.65-6.63-2.84-.91-5.45.46-7.32,2.38s0,3.8.93,5.49c3.4,6.44,5.9,13.09,5.41,20.53-.18,2.75-.55,5.91-3.92,6.16-3.94.31-4.46-3.07-4.69-6-.46-6-.88-11.92-5.17-16.63-4.54,8.48,1.93,14.65,4.43,21.63,1.61,2.4,3.79,2.81,6.37,1.84a31.93,31.93,0,0,1,5.05-1.53c2.84-.58,6.11-1.52,7.37,2.1,1.16,3.34-1.92,4.41-4.24,5.62-2.84,1.78-6.15,2.11-9.25,3.09-1.45.47-3.08.59-4.16,1.84a3.48,3.48,0,0,0-.63,3.71,2.64,2.64,0,0,0,3.23,1.61,24.87,24.87,0,0,0,8.17-2.47c2.34-2.24-.1-6.75,3.87-8.22,2.75-1.59,4.23-3.17,2.56-6.88-1.86-4.15.44-6.86,5.05-6.47,3.92.33,8,.79,11.06,3.75l6.89,3.82c-.35-5,2.16-6.65,6.61-6,4.16.6,7.6-1.73,11.36-2.88,56.15-17.14,111-38.56,168.18-52.09,12.93-3.07,26.29-5,39.14-8.94a57.84,57.84,0,0,1,21.7-5.34c16-3.71,30.83-10.51,45.72-17.18a130.9,130.9,0,0,1,34-9.75c2.21-.34,5.75-1.73,6.31,1.52.66,3.85-3.37,3.2-5.75,3.83-2.14.57-4.34.95-6.51,1.42-30.78,11-60.54,24.49-92.45,32.87-32.11,8.44-65.22,12.54-96.68,23.75-23.46,8.36-46.87,17-70.92,23.69-11.46,3.2-22.8,6.87-34,10.77-3.41,1.19-6.28,2.55-6.4,6.71a4.12,4.12,0,0,1-2.68,3.21c-4.95.52-6.45,4.41-8,8.21-5.34.54-7.58-4.68-11.79-6.39-3-1.21-5.14-4.12-8.78-4.9,1.52,3.78,7.72,4.6,6,9.68-1.15,3.36-4.63,2.7-7.83,2.39,6.46,7.68,7.1,7.78,14.45,2.79,2-1.37,4-3.28,6.52-.93,3.71,5.82,9.11,10.56,11.07,17.53,2.81,10,.39,14.69-9.23,18.24-4.05,1.49-9.87.5-11.77,4.89-1.66,3.85,2.4,8.06,2.78,12,1,10.73,4.08,22-4,31.72a5.32,5.32,0,0,0-.49,6.29c5.67,10.67,8.38,22.14,9.53,34.09a21,21,0,0,0,2.63,9c1.24,2,2.2,4.78.48,6.29-4.94,4.33-1.28,8,1,10.91,3.59,4.56,5.39,9.54,5,14.94-1.55,21.09,1.83,41.63,6.12,62.1,1.08,5.17-.81,11,3.23,15.51A28.39,28.39,0,0,0,478,678.3c1.45,3.78.71,8.24,3.64,11.57a9.66,9.66,0,0,1,.63,1.88c1.63,6.17-2.26,11.47-2.66,17.32a16.7,16.7,0,0,0,.5,11.63c3.54,7.33,4.84,8,12.37,5.39,2.7-.92,5.26-.63,7.94-.18,23.26,3.9,46.71,5.75,70.27,6.69q66.22,2.63,132.5,2.67a42.52,42.52,0,0,1,9.34,1.05c3.29.88,6.74,0,10,.86,2.07.5,4,1.48,4.14,3.82.19,2.78-1.9,3.82-4.19,4.46a6.43,6.43,0,0,1-2.67.31c-12.47-2-25.13-.21-37.6-1.94-4.54-.63-9.21-1.15-13,1.66-17,12.41-37,16.89-56.68,22.24a4,4,0,0,0-2.12,1.12c11.48,2.15,22.92,1.85,34.24,2.8,13.63,1.14,27.26,2.36,40.83,4.05,2,.25,4.07.37,5.53,2.07,2,1.19,4.39,2.15,2.66,5.23-6,3-12.25,1.32-18.35.69-17.32-1.77-34.62-3.62-52-4-4.66-.1-9.19-1.91-13.94-1.38a37.53,37.53,0,0,1-7.48-.55,13.45,13.45,0,0,0-6.65-.61,112.32,112.32,0,0,1-44-2c-3.3-.79-6.7-.58-10.07-.67-10.74-.27-21.39.2-32.15-2.1-10.53-2.26-21.48.48-32.19,1.28-30.22,2.26-60.31,5.51-90.74,5.16a438.59,438.59,0,0,0-63.84,3.4c-4.69.64-9.43.27-14.15.37-17.05.37-34.1-.38-51.18,1.08-16.57,1.42-33.16-1.16-49.75-1.85-14.8-.61-29.61-3-44.38-1.65-9.11.84-18.11,3.38-27.36,2.21a313.27,313.27,0,0,0-59.17-2.22c-12,.76-23.35.76-34.61-4.26C35.87,773.28,29.27,774.3,23,775c-5.09.6-10.25,1.49-15.23-.74-1.31-5.35-.24-7,5.23-7.77,4.36-.63,8.86.41,13.15-1.12,6.23-1.08,12.2,1.27,18.34,1.38,9.69,3.87,19.4,4.89,30.07,3.9a215.48,215.48,0,0,1,41.7.66c13.42,1.39,26.91-.67,40.36-.93,25.38-.48,50.64,2.41,75.95,4a58.12,58.12,0,0,0,6.73,0c20.55.24,41.1-1.81,61.66.05a27.31,27.31,0,0,0,11.32-.84c19.16-1.51,38.25-3.53,57.56-3.47,23.24.08,46.51-.6,69.7-2.46,7.61-.61,8.83-2.31,9.6-10.06,1-10.14-1.89-19-8-27a51.61,51.61,0,0,1-3.71-9.61c-.27-2.46-1.86-3-4.1-3.5-23.67-5.12-47.66-8.8-71-15.48-2.6-.74-5.37-.45-8-1-1.83-.41-3.5-1.1-3.66-3.32-.19-2.65,1.8-3.46,3.78-3.93,3.79-.9,7.57.14,11.35.39,4.37.09,8.33,2,12.56,2.74,17.18,4.74,34.92,6.82,52.21,11.06,4.18,1,5.34-.6,4.32-4.52a31.71,31.71,0,0,0-1.33-4.46c-2.13-5.94-7.77-3.8-11.9-5.15a236.2,236.2,0,0,0-40.07.53,54.62,54.62,0,0,1-8.18.41c-8.35-.29-16.82-3.45-24.95,1.18A20.53,20.53,0,0,0,346,697c-2.64,2-4.42,4.88-3.82,8.08.56,2.94,3.9,2.75,6.18,2.88,20.16,1.17,39.67,6.66,59.66,9a129.45,129.45,0,0,1,19.05,3.88c2.05.74,4.29.82,6.26,1.67,3.63,1.56,5.35,3.81,1.91,7.31-2.85,1.51-5.67.46-8.52-.06-25.37-4.64-50.66-9.71-76.34-12.36-1.79-.18-3.55-.55-5.31-.88-10.08-1.89-12.93-.92-16.29,8.94-3.55,10.38-8.61,20.61-10.18,31.2-1.4,9.44-4,14.54-13.51,15.46a12.26,12.26,0,0,0-2.44,1.07c-5.39-1.12-7.25-5.95-2.68-8.28,11.61-5.93,11.76-17.78,15.3-27.45,4.42-12.08,8.77-23.92,16.84-34.09a5.91,5.91,0,0,0,1.35-3.91,86.27,86.27,0,0,0-10.9,10.9,29.13,29.13,0,0,1-4,4.5c-1.68,1.31-3.51,2.3-5.47.73-2.2-1.76-1.68-3.79-.4-6,2.51-4.27,6.73-7.21,8.92-11.7a34.09,34.09,0,0,0,1.72-3.61c.49-1.54.87-3.31-1-4s-2.67,1.06-3.15,2.53c-1,3-1.93,5.92-3,8.85-1.3,3.32-1.12,9.12-6.2,7.85-5.55-1.4-2.56-6.64-1.95-10.32a66.17,66.17,0,0,1,2.75-9.71c2.59-8,9.37-10.73,17.05-7,2.22,1.08,4.09,2.78,6.39,3.71,1.54.62,3.17.87,4-1,.78-1.73.14-3.43-1.65-3.71-6.46-1-10.43-5.82-15.14-9.53-3.51-2.75-6.29-2.71-8.54,1.78s-5.1,8.95-7.06,13.75c-1.73,4.26-2.71,8.44-1.66,13.08a14.53,14.53,0,0,1-3.57,13.76c-4.39,4.7-4.53,11.13-7.07,16.56-1.5,3.22-3.16,6.5-7.34,2.72-1.39-8.41,1.7-15.9,5.72-22.76a20.36,20.36,0,0,0,2.55-14.67c-.81-4.74-3-6.25-7.4-3.78-4.91,6.57.76,10,4.2,14a3.77,3.77,0,0,1-1.8,3.29c-5,.84-8.18,3.27-7.91,8.83-.75,9.38,1.1,18.72.32,28.09a94.16,94.16,0,0,1-1.95,11.93c-.5,2.09-1.87,3.76-4.25,3.52s-3.38-2.06-3.72-4.19c-.6-3.83.88-7.56.68-11.38-1.33-25.81,2.48-50.93,10.14-75.53,1-3.12,1-5.69-2.71-7.05a10.56,10.56,0,0,1-4.2-3.28c-3.44-6.66-.77-14.17,7.51-20.74,2.06-1.64,4.6-2.76,5.35-5.62a29.87,29.87,0,0,0,.08-3.9,30.72,30.72,0,0,1-1.13-10c1.19-15.61-2.64-30.76-4-46.13-.45-4.93-3.45-4.46-6.69-3.68a283.86,283.86,0,0,0-38.44,12.23c-7.46,3-14.94,4.43-23,3.42C205.62,585,201.65,589.47,204,599c1,3.91.74,7.41-1.56,10.9-4.94,7.49-6.7,16.47-10.62,24.51,1.6.55,3.5-.27,5.36-.68,3.07-.68,6.81.42,9.16-1.48,3.09-2.49-.73-5.69-.5-8.7.31-4.22,1.28-7.64,6.54-7.38a4.75,4.75,0,0,1,1.78.86c1.51,4-.47,9.15,3.75,12.39,2.37,5.2-.68,8-4.7,10.17s-8.59,2.19-13,2.63c-6.47.64-8.34,3.08-4.8,8.08,6.38,9,6.91,16.23-2.4,23.47-2.41,1.87-2.46,6.1-3.79,9.17-1.12,5.26-4.57,9.44-6.57,14.29-3.25,6.83-5.74,13.9-6.47,18.16.35-3.49,3.86-9.37,5.63-15.79,1.51-5,5.13-9,6.59-14,2-7.44,7.3-12.84,12.05-18.43,3.06-3.6,5.12-6.26,0-9.52a8.28,8.28,0,0,1-2.53-3.11c-2.71-4.89-1.48-8.61,3.76-10.77,4.59-1.89,9.5-2.72,14.26-4,7.73-2.12,9-5.27,5-12.27-2.38-4.12-4.8-8.16-4.59-13.15,0-3,.6-6.07,3.09-7.88,5.06-3.65,7.39-8.78,9.18-14.47.86-2.75,2.22-6.11,6-4.77,3.19,1.14,2.62,4.43,2,7-1.25,5.26-2.76,10.53-6.82,14.42-4.39,4.2-5.49,8.56-1.54,13.62a12.06,12.06,0,0,1,1.29,2.37c5.43,11.66,1.62,20.15-10.73,23.79-3.16.94-6.54,1.18-9.65,2.71,1,3.1,4.1,3.95,5.08,6.55,1.54,4.13.31,7.62-2.56,10.47-14.65,14.57-22.81,32.47-27,52.37-1.12,5.33-4.66,8.55-8.73,11.42-2.05,1.44-4.25,1.13-6.28-.33-3-2.15-4.48-4.9-3.74-8.69,2.07-10.61,4.36-21.19,10.11-30.51,3.6-5.83,5.81-12.12,7.7-18.58a18.8,18.8,0,0,1,2.23-5.59c5-7.29,5-7.3-1.42-14.39-7.35,14.55-16.26,28.57-19.13,44.82-2,11.57-3,23.51-.59,35.28,1.16,5.75,1.47,11.58,2.07,17.37.44,4.29-1.46,7-6.49,5.65-5.35-3.59-2.84-9.19-3.6-14-.6-9.24-2.3-18.25-1.9-27.77.63-15.28,3.66-29.5,10.1-43.16a7.51,7.51,0,0,1,1.2-3.12c11.27-12.94,3.41-25-1.53-37.3-1.6-4-5.17-5.28-8.8-6.66-17.64-6.74-17.29-6.46-29.89,7.44a82.93,82.93,0,0,0-17,28c-2.17,6-1.67,13-5.79,18.43-3.65,6.93-7.22,13.85-14.07,18.42-2.93,2-3.61,5.51-4.24,8.86a77.07,77.07,0,0,1-8.33,24c-4.18,7.39-3.86,16.05-6.93,23.73a15.42,15.42,0,0,1-1.15,2.43c-1.16,2-2.52,4-5.25,3s-2.79-3.39-2.14-5.7c3-10.75,4.56-22,9.84-32a36.67,36.67,0,0,0,3.68-10.65c-4,6.24-5.16,13.6-7.61,20.45-.91,2.55-1.17,5.83-4.77,5.38-4.1-.51-3.87-4.16-3.27-6.89,2.4-11,4.55-22.12,14-29.88,4.26-3.53,6.83-8.15,8.61-13.42,4-11.88,12.4-21.3,18.46-32,6-10.56,11.75-21.21,17.23-32,2.16-4.25,1.39-5.8-3.38-6.59-8.72-1.44-17.52-.17-26.22-1.28a3.76,3.76,0,0,0-2.49.84c-6.32,4.1-11.3,17-9.3,24.42.54,2,1.26,4.1.43,6-3.1,7-1.07,13.65.75,20.39.23.87,0-.23.15.66.54,3.66,2.51,8.64-2.51,9.7-4.46.94-4.84-4.25-6-7.54a3.67,3.67,0,0,0-.89-1.78c-3.91,1.44-3.2,11.49-10.91,5.85,2-9,7.15-16.66,9.66-25.41C63.6,656.89,58,665.08,56,674.7c-6.56,15.93-12.27,32.17-17.48,48.61-1.62,5.13-2.42,9.91.29,14.88A13.29,13.29,0,0,1,40.14,746a6.1,6.1,0,0,1-1.8,4.22c-2.91,2.52-4.65.35-6.41-1.68-.12,2.45,0,5.16-3.3,5.58-2.19.27-3.16-1.36-3.59-3.24-.61-2.65-.33-5.35-.45-8,.34-5.13.73-10.19-1-15.27-3.33-9.72.31-18.06,7.46-24.13A51.9,51.9,0,0,0,41.29,691.56Z"/><path class="cls-10" d="M609.11,776.59c25.12,1.52,50.26,2.81,75.23,6.15a33.87,33.87,0,0,0,9.32.25c-1.78,2-5.26,2.38-4.14,6.84.86,3.43-2.35,5.37-5.92,5.47-2.85.07-5.69,0-9.48,0,4.24,2.43,8.45-.3,11.55,2.58-2.29,2.42-5.35,2.3-8.19,2-8.48-.77-17-1.44-25.49-1.4a7.18,7.18,0,0,1-5-1.65c-.59-2.71,1.5-3,3.09-2.74,2.52.34,5.11.18,6.55.56-3.06.79-7.55-2.76-11.24,1.64-8.45,1.83-17,1.31-25.44.49a130.3,130.3,0,0,0-27.5,0c-9,1-17.52.37-26.17-3.76-9.18-4.39-19.88-2.37-29.85-3.79-3.07-.44-6.31.24-9.16-1.5-1.81-5.57,3.71-1.69,4.08-3.91-4-1.62-6.8,2.71-10.65,3.52-27.9,1.08-55.51,6-83.47,5.9a53.45,53.45,0,0,1-10-.55,144.07,144.07,0,0,0-44,1c-4.42.76-9,.12-13.26,1.68-10.54-1-21,.47-31.54.5-28.29.06-56.56,1.24-84.83,1.85-19,.42-38.16,1.63-57.15,1.66-18.8,0-37.69-.27-56.54-.74-5.61-.14-11.19-.44-16.8-.91-8.46-.71-16.82-.88-25.22,2.25C91,802.6,83.65,800,76.8,798c-5-1.51-9.85-3-15.07-2.94-1.43-1.16-2.15-2.91-4.95-2.24-4.51,1.07-9.34-.25-14,.94C31,791.66,19.24,789.6,9.93,781.09c.42-2.1,2.76-2.1,3.84-3.5-1.18-2.55-6.31.75-6-4a75.32,75.32,0,0,0,16.76-.82,42.24,42.24,0,0,1,23.13,2.61c6.25,2.55,12.05,4,19.49,3.13a207.85,207.85,0,0,1,47,0c11.63,1.32,23.7,3.58,34.85,1.67,33.48-5.72,66.48,2.91,99.69,1.27,30.47-1.51,61,.33,91.47-3,18-1.95,36.35-2,54.5-1.55,32.46.77,64.41-5.16,96.7-6.25,8.64-.29,17.13-1.71,25.84,1.49,4.53,1.67,10.21.15,15.37.2,9.32.08,18.33.62,27.69,3,9.87,2.51,20.91.44,31.43.28,3.56-.05,7.14-1,10.6.59-.77,1.35-2.45.55-3.63,1.55,5.14-2,9.74,1.14,14.47.76C612,777.73,609.3,779.84,609.11,776.59Z"/><path class="cls-11" d="M41.29,691.56c-1,4.62-1.45,8.7-7.2,11.19-7.56,3.29-11.75,15.44-9,24.09a30.51,30.51,0,0,1,1,15.62c-.53,4.12-2,8.11-1.83,12.33.1,3.2-1.91,4.14-4.59,4.4-6.26.14-12.26-2.13-18.44-2.27-4.52-.11-10.32-1.62-11.55,5.59a4.78,4.78,0,0,1-.81,1.83c-6.6-1.28-12.58-4.19-18.58-7.05s-9.76-9.55-17.31-9.88c-1.61-.07-2.07-2-2.13-3.68l2.17-5c-1.33-1.35-2.82.08-4.22,0-2.49-.22-5.14,0-5.91-3.15-.71-3,.16-5.31,3.06-6.68a1.63,1.63,0,0,0,.56-.36c1.57-2,6.3-2.17,5-5.29-1.67-4-5-.45-7.5.06-2.93.58-6,1.54-7.57-2-1.34-3,.78-5.08,3.14-6.65,5.18-3.44,10.37-6.85,14.81-11.35-1.28-1.08-2.06-.49-2.82-.08-3.45,1.85-7.09,2.86-9.38-1.24-2.41-4.32,1.07-6.41,4.17-8.45,3.47-2.28,7.86-3.9,2.59-9.28-2.71-2.77.55-5.73,3-7.82,5.46-4.71,12-7.79,18.12-11.42,2-1.16,4.48-2,1.53-4.74-1.62-1.5-2.56-3.37-.91-5.31s4.65-2.26,6.15-.89c12.48,11.44,25.71,1.55,38.54,1.61,2.66,0,5.32-.71,8-.72,7.16,0,8.19,1.68,5.48,8.63,4.53,2.11,8.53,2,12.45-1.7,2-1.88,5.1-2.69,7.18,0s.5,5-1.57,7.08c-1.4,1.42-2.2,3.53-3.75,4.68C36,679.05,33.68,684.72,41.29,691.56Z"/><path class="cls-12" d="M-28.45,756.34c5.51,2.89,12,3.53,17.11,7.27,9,3.37,15.42,10,21.57,17,9.74,6.68,21.21,8.77,32.2,12.14,6,.15,11.77,2.89,17.86,1.12,5.19-1.44,10.1-.66,15,1.43,6.7,2.83,15.12,5.79,20.8,3.23,8.31-3.74,16.13-3,24.18-2.88,25.6.35,51.2,2,76.78,1.64,42.43-.54,84.85-2.26,127.27-3.37,15.48-.41,31-.52,46.45-.76,16.8.19,33.45-2.78,50.27-2.23,2,.06,4-.69,5.92.23,19.7.58,39.28-1,58.84-3.14a334.21,334.21,0,0,1,36.75-2.22c1.39-.82,2.74-1.16,3.94.32l36,3.4c2.84.27,5.45.21,7.42,3.4,1.79,2.9,5.77,2,8.73,1.87,22.64-.85,45.25.22,67.88.64h0c13,1.65,26,2.11,39.09,2.49,1.89.85,5.06.77,4.23,4-.66,2.53-3.31,1.71-5.19,1.62-9.56-.48-19.12-1.06-28.68-1.61-6.44-.79-12.88-1.18-19.28.4a17,17,0,0,1-6,.33c-19.25-2.39-38.57-.84-57.86-1.21A35.73,35.73,0,0,1,558,798c-6.49-3-13.59-4.79-20.69-1.21-1.57,1.14-3.79.88-5.53,2.53,1.79,2.34,4.41,3.41,6.82,4.77,4.57,2.4,8.38,5.93,12.89,8.44,8.85,4.94,18,8.67,28.28,9.76,3.46.37,8.62.39,7.66,6.61-9.93,1.35-19.27-1-28.37-4.62-12.19-4.82-22.09-13.57-33.47-19.78-5.65-3.5-6.28-5.78-3.27-11.7-4,.45-8.05.08-12.08.27-6.94.33-9.37,3.16-10.2,9.91-1,7.9,2.75,13.7,7.3,19.34,1.05,4.91-1.93,5.78-4.57,3.07-6-6.15-13-4.26-20-4.16-10.07.14-20.14-.32-30.21-.53-12-.52-24-1.16-36,1-9.23,1.62-18.67,1.44-28,1.4-17.84-.08-35.68-.13-53.45,1.78l-12.15,1.6c-14.73.66-29.49,1.53-44.19-.26-8.45-1-16.92-1.94-25.32-3.39-4.33-.76-8.7-1.21-13.05-1.89-11.57-1.27-23.06-2.49-34.81-2.19A976,976,0,0,1,100,816c-12.63-1-24.51-5.4-36.58-8.83-8-3.25-16.41-5.1-24.56-7.84a100.91,100.91,0,0,0-14-4.59c-11.08-2.45-20-8.66-28.43-15.76-3.22-3.4-7.06-6.05-10.74-8.89-5.66-3.77-12.33-4.91-18.56-7.18-1.87-.68-3.9-1-5.59-2.09-2.35-1.53-4.47-3.56-3-6.54s4-1.91,6.3-.72S-30.62,755.26-28.45,756.34Z"/><path class="cls-10" d="M-28.45,756.34a51.9,51.9,0,0,1-7.08-1.74c-1.84-.72-3.79-2.62-5,0-1.4,3,.95,4.64,3.38,5.43,4.86,1.58,9.87,2.71,14.73,4.28,3.55,1.14,7.34,2,9.85,5.16-1.23,8,5.42,6.58,9.66,8,11.76,11.25,27,15.21,41.84,20.16,5.58,3.47,16.86,6.94,24,7.38,23.83,8.23,48.45,10.14,73.53,10.95s49.81,1,74.74.21c10.08-.33,20.08,1.11,30,3,.09,3.89,3,3.79,5.65,3.91,4.4.2,8.82-.19,13.2.49,6.59,2.34,13.92,2.46,19.79,6.83-1.66,2.46.08,7.31-4.07,7.69-5.9.55-12.41,2-17.51-2.2-3.41-2.83-6.65-2.54-10.56-2.38-13.88.57-27.77.65-41.66.88-.65,0-1.72-.08-1.89-.45-3.66-8-10.26-4-15.52-3.36-6.26.83-12.77-.21-18.69,1.3-17.8,4.55-36,1-53.86,3.57-2.52.36-3.34,3-5.74,2.88-1.79-3.52-5.26-4-8.56-4.47-19.11-2.79-37.09-10.46-56.29-13-6.27-.82-11.86-4.22-17.34-7.18-20.49-11.07-41.64-21-60.14-35.51C-40,772-48.24,766.07-59,765.52a2.87,2.87,0,0,1-2.14-1.46c5.54-1.15,9.3-6.16,15.32-6.65-1-4.81-7.64-8-3.31-13.67.93.91,2,2.71,2.77,2.59C-37.69,745-34.73,753.64-28.45,756.34Z"/><path class="cls-11" d="M469.83,419.66c-1.43-5.27.6-7.41,5.92-9.1,36.13-11.48,72.26-23,108.24-34.95,20.1-6.69,40.9-11.21,61.79-15.6,34.33-7.2,68.61-15.88,100.56-31.41a79.36,79.36,0,0,1,25.56-7.82c-3,1.76-2.55,5.69-5,7.82-2.14-.58-4.32-1.07-6.45-.06-1.33.63-3.27,1.23-2.68,3.1.42,1.31,2.5.19,3.53,1.16l1.33,2.49c-1.66,4.19.47,5.23,4.15,5,3.93-.25,7.68-2.51,11.75-1-1,4.45-5.08,4.51-8.32,5.48-6.26,1.87-12.6,3.42-19.2,5.19,1.63,2.41,3.43,1.17,4.75,1.84-.15,3.15-2.92,3-4.85,3.68-21.62,7.71-44.12,12.4-66.45,17C670.61,375.38,656.05,376,642,379c-53.58,11.41-107.28,22.35-159.72,38.55C478.29,418.74,474.25,420.52,469.83,419.66Z"/><path class="cls-13" d="M216.4,462.17c-.78,1.87-4,2.88-2.2,5.62,1.34,2.09,3.58,1.22,5.51,1.25,2.66,0,5.38-.4,7.79,1.2-1.25,1.63-3.12,1.65-4.88,1.78-2.55.2-3.59,1.51-3.3,4,.53,4.61-1.74,8.23-4.21,11.75a91.34,91.34,0,0,0-10.22,18.88c-1.27,3.19-1.77,5.81.74,8.64,2.94,3.31,4,7,.93,10.94-1.43,1.82-.65,3.33.58,4.81,3,3.67,3.1,7.69,1.66,12-1.57,4.77-2.18,9.41.53,14.26,1.77,3.19.8,7,.22,10.59s1,4.8,4.11,3c7.43-4.47,15.91-6,23.91-8.84,6.09-2.16,12.3-4.6,18.86-1.26a4.42,4.42,0,0,0,4.51-.51c9.29-6.24,18.85-5.57,28.57-1.21l3.94.26-.11-.12c-4.14,4.67-10.1,2.25-15.08,3.74a33.52,33.52,0,0,1-11.32.93c-15-.84-28.35,6.07-42.46,9.31-6.49,1.49-11.89,5.87-18.7,7.1-6.27,1.13-8.17.55-9-6.18-1.3-10.32,1.53-20.17,4.56-29.72,2.54-8-2.71-15.18-.72-22.81-6.58-3.34-4.48-8.83-3.3-13.93a51.64,51.64,0,0,1,6.54-15.45c2.83-4.57,5.93-9,8.89-13.48,1-1.53,2.12-3.35.49-4.87-2.27-2.11-3.41.62-5,1.57-2.26,1.34-2.07,5.13-5.55,5.41a8.37,8.37,0,0,1,2.37-6.54,3.51,3.51,0,0,0,.22-4.39c-1.23-1.81-3.21-1.26-5-.86-2,.44-1.74,1.81-1.83,3.57A150.88,150.88,0,0,1,191,512.15c-1.19,3.59-4.35,4.57-7,5.75-12.3,5.53-12.12,7.37-21.92-2.88-11.18-11.7-25.66-18.74-38.84-27.61-2.81-1.9-5.92-3-5.31-7.45.37-2.66-1.86-3.2-4.09-3.18,2.4-4.52-2.43-3.33-3.83-4.85a193.65,193.65,0,0,1,65.84,2c1.49.29,3.36.54,4.61-.07,11.25-5.55,23.58-8.57,34.55-14.74C216.26,459.81,215.57,461.33,216.4,462.17Z"/><path class="cls-11" d="M562.07,680.54c8.83-7.81,20.13-6.26,30.52-7.73,14.85-2.11,30-3.46,44.52,1.29a271.56,271.56,0,0,0,26.94,7.07,48.37,48.37,0,0,0,19.29.05c5.14-1,10.38-2.25,12,5.38.7,3.24,5.42,2.77,6.91,5.76,2.68,5.37,4.29-.27,6.43-.64a95.7,95.7,0,0,1,9.91-1.53c13.38-.94,26.83-.26,40.23-.69,6.16-.2,13.07,3.07,20.12,2.31,1.87-.2,3.55,1.9,3.73,4.15a4.28,4.28,0,0,1-2.86,4.21c-3.19,1.38-7.12,1.85-5.78,7,.13.5-.93,1.77-1.64,2-7.91,2.15-14.4,8.35-23.21,8-3.51-.13-6.64-.74-9.27-3.18-1.13-1-2.12-2.44-4-2a1.34,1.34,0,0,0-1,2c.72,1.74.6,4.19,3.5,4.18,1.3,0,2.75-.15,3.65,1.19-1.51,2.22-3.83,2.25-6,2-15.83-2.08-31.77-2.19-47.69-2.53-5.76-1.18-10.17-4-12.19-9.87-2.86-9.13-9.72-13.8-18.05-17.7-22.59-10.55-46.27-11-70.41-9.23C579.2,682.61,570.41,684.55,562.07,680.54Z"/><path class="cls-14" d="M712.73,737.83c-51.86-1.64-103.79-.78-155.61-3.69-19.68-1.11-39.42-2.75-58.86-6.56-1.69-.33-3.24-1.25-5.13-.09-8.59,5.32-13.15,2.93-14.89-7.66.89-1.53-.55-4.76,3.12-4.25a22.38,22.38,0,0,1,1.92,1.23A140,140,0,0,0,506,719q38.7,0,77.4,0c3.77,0,7.66-.54,11.22,1.3,2.2,2.9-1,2.68-2,3.58,2-.16,3.06-2,4.81-2.82,6-1.32,12.11-1.07,18.09-.53,18.31,1.66,36.62,1.65,55,1.2,9.63-.24,19.16-1.6,28.84-1.53a349.61,349.61,0,0,1,36.19,2.07c3.35.37,6.71.85,9.78-1.13,2.54,6.08,1.62,11.86-1.56,17.43C733.4,738.18,723.13,735.39,712.73,737.83Z"/><path class="cls-11" d="M712.73,737.83c10.47-5,20.76-3.3,31,.79.44,4-2,7.23-5,7.8-11.48,2.15-17.28,13.93-28.55,16.56,2.16,0,4.31,0,6.46,0,3.7,0,8.1,0,8,4.79s-4.59,4.56-8.24,4.55-7.6-.06-11.38.14c-5.19.26-10.17,1.23-13.93,5.31q-41.6-3.43-83.18-6.91c-1.19-.1-3,.46-3-1.6,0-1.59,1.43-2,2.8-2.41,6.51-1.71,13-3.75,19.52-5.16a102.72,102.72,0,0,0,38.12-16.35,19.09,19.09,0,0,1,12.63-3.51c13,.68,26,1.17,39.05,1.73,1.34.06,2.69.22,4,.24,2,0,4.54.25,4.77-2.44.24-2.84-2.3-2.78-4.31-2.93Z"/><path class="cls-12" d="M313.8,365.08c-2.12-.22-2.1-6.23-5.8-2.13-3.78-1.08-5.47-3.64-5.28-7.51a6.54,6.54,0,0,1,4.6-1.7c4,3,8,2.63,12.53.94,8-3,10.28-4.64,12.93-12.45,1.84-5.43,4.76-9.08,11.74-8.28-2.52-4.46-4.75-7.78-5.7-12.51-1.63,3.6.26,8.43-5.25,8.15-4.56-.23-7.27-3.7-7.24-9.28-5.59.37-11.12,1.16-16.66,1.92-2.53.34-5,.59-6,3.43-.93,2.62.95,4.12,2.34,5.88,2.07,2.6,6.76,5.18,2.93,8.82s-6.71-.83-9.79-2.84c-4.61-3-4.41-9-8.14-12.49-7.62.93-14.48,4.46-21.85,6.19-4.24.26-6.4,3.63-9.08,6.16-1.77,1.66-3.49,2.62-6,1.49s-2.65-3.32-2.54-5.62c.32-7.31,3.3-12.94,10.2-16,3.06-1.38,6.16-2.68,9.31-3.85,3.54-1.31,5-3.39,5-7.48.05-12.29,13.38-29.32,25.24-33,1.46-.45,2.64-.31,3.13,1.4,1.15,4.19,5.37,1.45,7.56,3.34a56.35,56.35,0,0,1,12.46,7.89c5.56,4.38,8.94,10,8.39,17.42-.23,3.12-1,6-5.29,4.92-1.62-1-2.07-2.67-2.66-4.28-.75-8.31-6.13-12.59-13.25-15.67-.89,2.47.17,4.3.56,6.21a16.61,16.61,0,0,1,.48,2.89,55.51,55.51,0,0,1-.22,10.07c-.33,2.08-1.16,4.12-3.64,4.11-2.13,0-2.87-1.93-3.37-3.69-2-6.86-1.84-14.15-4.12-21.42-4.21,6.93-9.81,12.57-11.66,20.52-1.07,4.56,0,6.21,4.84,5.64,10.78-1.25,21.57-2.36,32.35-3.65,4.54-.48,9.25.17,13.54-2,3.45-.87,15.16,3.79,16.8,6.82a2.8,2.8,0,0,1,.05,2.43c-1.05,1.42-2.77,1-4.31,1.13-2.28.24-4.83-3.49-6.45-.45s-1,6.53,1.23,9.51a51.56,51.56,0,0,1,3.65,5.63c2.42,4.35.85,8.15-3.55,8.82-7.32,1.13-7.59,6.47-8,11.51-.64,7.34-2,8.52-9.69,8A24.48,24.48,0,0,0,313.8,365.08Z"/><path class="cls-15" d="M595.63,722.32c-2.43-1.7-5.22-1-7.84-1-26.92-.11-53.84,0-80.76-.24-7.61-.05-15.22-.81-22.83-1.09-3-.11-4-1.43-3.5-4.24,1.4-3,4.13-3.27,6.85-3.08,29.06,2,58.15.3,87.23.94,12.28.28,24.54,1.5,36.82,1.78,12.1,2.5,24.34.72,36.52,1,4,.07,4.8-2.52,3.61-5.93-.66-1.9-1.42-3.75-3.16-5-7.21-5.39-16-5.71-24.29-7.38-7.53-2.4-15.73-.84-23.11-4.1.8.49-.46-.26-.32-.19,6.62,3.32,7.21,6.16-.57,8.43a6,6,0,0,1-2.67-.19c-35.69-6.43-71.79-7.76-107.92-8.6-3.33-.08-6.9.27-8.9-3.39l.1.18c-1.78-4.21,1.46-5.8,4.12-5.44,7.7,1,15.31-1.6,22.94-.07,12.37,2.25,24.86,2.39,37.37,2.23a84.22,84.22,0,0,0,19,1.32c8.21,1,16.24,2.14,24.23-2.15,3.34-1.79,8-.61,12-.31,11.22,1.72,22.63,2,33.7,4.82a118.46,118.46,0,0,1,11.57,3.32c8.09,3,13.86,8.17,15.65,16.85.88,4.31,3.13,5.9,7.42,5.81,6-.13,12-.32,18,.8,18.51-1.28,36.89.74,55.29,2l3.15,1.81c.61,4.14-2,4.48-5,4-24.79-4-49.69-2.9-74.53-1.21-23.48,1.59-46.78-1.85-70.19-1.66Z"/><path class="cls-11" d="M534.55,797c2.18-4.22,5.75-5,10-4.07,6,1.27,12.69-.42,17.84,5.13,2.12,2.29,6.4,1.54,9.76,1.52,25.11-.17,50.21,0,75.3,1.28,2.87.15,5.84-.37,8.58,1-4.47.06-8.93.13-13.4.17-3,0-5.28.68-2.87,4.21,3.11,4.55.08,5.94-3.31,8-12.9,7.9-28.91,6.44-41.88,14.18-1.81,1.08-4.73.31-7.13.4-.38-5.77-5.49-4.89-8.61-5.15a61.51,61.51,0,0,1-26.42-8.65c-5.16-3-9.94-6.73-14.89-10.12-1.7-1.46-3.62-2.72-5-4.5C530.68,798,532.7,797.47,534.55,797Z"/><path class="cls-16" d="M212.58,361c-6.05.14-12.41,2.15-17.53-3.2-.78-.82-2.14-.33-3,.62a2.61,2.61,0,0,0,.05,3.65,21,21,0,0,0,7.63,5.62c-1,5-7.74,6.37-6.09,12.24.37,2.76,2.57,5.79-1.17,8C189,379,183.08,371.75,177,364.54c-5.14-6.07-5-9.26.28-14.78,3.77-3.92,3.59-9.48,3.72-13.65a7.94,7.94,0,0,1,2.52-6.17c.74-.79,1.89-2.21,1.63-2.74-3.81-7.84,3.68-5.63,6.13-6.13,9.18-1.86,18.56-2.71,27.82-4.23,4.34-.71,4.46,1.77,3.93,4.62-1.19,6.36-2.43,12.68-.59,19.13.65,2.28-.5,2.72-2.51,2.4-1.85-.29-3.88-.32-3.88,2.29,0,2.42,2.17,2.55,3.89,2.84,2.42.42,4.87.66,7.31,1-4.1,1.27-8.45,2.13-10.6,6.55-2-1-2.13-4-5.18-4.62-.27,3.53,2.63,6.71,1.07,10.14Z"/><path class="cls-15" d="M469.83,419.66c13.48-4.07,26.87-8.49,40.46-12.16,53-14.34,106.55-26.74,160.76-35.44,28.9-4.63,56.93-11.76,84.76-20.29l32.58-5c1.78-.27,3.54-.64,5.33-.8,1.52-.14,3.4-.47,4,1.52.68,2.44-1.24,3.16-3,3.47-7.3,1.27-14.59,2.56-21.92,3.57a198,198,0,0,0-33.14,7.7c-4.21,5.42-10.54,4.57-16.28,5.47-13.35,1.82-26.75,4-39,9.54-7.69,3.44-15,.1-22.39,1.55C599.27,391.09,536.77,404,475.82,423.3c-3,.95-5.07.57-7.11-1.52Z"/><path class="cls-17" d="M-16.52,474.29c2.91.56,5.2-1,7.55-2.25C16.78,458.6,44,450.27,73.1,449a74.12,74.12,0,0,0,18.41-3.59c2.07-.63,4.11-1,4.93,1.68,1.14,3.79,3.53,7.32,2.55,11.54,0,.25-1.16.49-1.69.36-12.75-3.15-24.85,1.63-37.08,3.48-16.1,2.42-32.53,4.16-47.5,11.43-3.52,1.71-7.77,2.66-9.3,7.07C-4.28,481.89-11.42,481.17-16.52,474.29Z"/><path class="cls-18" d="M422.93,363.7c1.45-5.62-3.28-6.22-6.49-7-3.57-.86-6.88,2-8.05,4.77-2,4.79,3.47,5.24,5.89,7.42,1.26,1.14,4.23-.18,4.38,2.21.16,2.65-2.83,2.43-4.46,3.23-12.17,6-12.19,6-17.11,17.34-2.94-4.07-5.57-7.8-8.29-11.46-1.47-2-3.08-3.85-4.63-5.76-2.35-2.89-6.19-3.73-8.78-6-4.32-3.8,1.27-6,2.66-8.46,1.76-3.16.36-7.25,3.9-10.33-1,6.36,3.13,9.77,6.25,13.64,1.31,1.63,3.22,3,5.16,1.11s-.34-3.05-1.08-4.56c-1.66-3.39-7.21-5.1-3.86-10.8,1.4-2.39,1.85-2.81,4.05-1.63,1.37.72,3,.91,4.42,1.55,6.52,2.95,9.23,1.55,8.32-5.19-.52-3.91,1.33-4,3.83-4.48,1.32-.53,2.55-.63,3.49.7.92,1.79-.32,4,1.19,5.92,3.25.18,3-4.43,6-4.4a2.28,2.28,0,0,1,1.67.71c1.54,2.93,3.07,5.87,4.6,8.79-2.39,2-8.28,0-7.39,4.71.78,4.08,5.47.08,8.16,1.4C423.66,358.23,425.11,362,422.93,363.7Z"/><path class="cls-19" d="M562.07,680.54c13,.72,25.92-1.08,38.88-1.42s26.41-.45,38.69,3.2c10.17,3,21,6.07,29.8,12.88a23.67,23.67,0,0,1,8.64,14,7.44,7.44,0,0,1,.09,4c-.46,1.88-1.55,3.24-3.65,3.3a3.26,3.26,0,0,1-3.52-3.31c-.72-11.37-9.32-15.37-18.07-18.15-9.5-3-19-6.51-29-7.88-14,0-28-3-41.94.56-3.67.94-7.58.37-11.38.36-4.64-.19-9.28-.59-13.89.4a25.57,25.57,0,0,1-4.63.2c-2.3-.28-4.57-.87-6.92-.65a250.8,250.8,0,0,1-29.37-2c-9-2.09-18.3-.57-27.38-1.85-2.49-.36-5.5-.59-5.26-3.85s3.28-3.16,5.78-3c4.9.26,9.85-.67,14.71.58C523.08,680.22,542.41,684,562.07,680.54Z"/><path class="cls-10" d="M507.36,822.27c-8-4.92-11.81-16.16-8.33-24.84a8.83,8.83,0,0,1,8.76-6c5.77,0,11.54,0,18.69,0-7.15,4.8-4.18,8.92-.87,13-1.65,4.57,2.51,6,4.71,8.34,1.17,1.26,3.17,1.7,4.51,2.84,2.86,2.46,8.24,4.18,5.8,9.1-2.35,4.72-7.32,6.65-12.66,5.25a73.84,73.84,0,0,1-16.79-6.63A17.53,17.53,0,0,0,507.36,822.27Z"/><path class="cls-20" d="M-61.1,764.06c11.61-1.31,20.12,5.31,28.53,11.61,22.77,17.07,47.79,30.14,73.52,42,4.72,2.17,9.84,3,15,3.62,17.85,2.21,34.24,10.9,52.42,11.82,3.59.18,3.65,2.66,1.89,5.29-9-.42-17.92-1.59-26.27-4.59-16.6-6-34.48-6.52-51-12.72-3.67-1.64-7.6-2.77-10.65-5.59L-27.18,787c-3.41-1.38-6.64-3-8.43-6.47-7.75-5.66-14.86-12.82-25.88-10.65-1.54.31-3.33-.09-3.73-1.94C-65.94,764.55-63.13,764.64-61.1,764.06Z"/><path class="cls-21" d="M444.2,412.39c-3.48-.7-7-1.36-10.44-2.12-5-1.09-6.72,1.12-4.61,5.37,2.36,4.78-.39,6-3.83,7.36-.52-.4-1.28-.57-1.34-1.41,1.31-1.56,4.86-1.91,3.56-4.8s-3.92-.85-5.93-.41a48.53,48.53,0,0,0-7.07,2.08c-3.52,1.36-5.54.17-6.49-3.31-.18-8.73-4.07-16.92-3.74-25.72,1.37-2.18,2-.39,2.5.57,3.23,6,5.61,12.21,5.19,19.23-.13,2.12-.52,5.17,2.63,5.21s2.61-3,2.71-5.15c.35-7.66-2.23-14.5-5.67-21.2-.92-1.79-4.92-4.06-1.51-5.94,3.07-1.7,6.09-4.43,10.76-2.93,12.47,4,16.85,13.73,19.31,25.09.65,3,.79,6,5.12,5.14Z"/><path class="cls-22" d="M335.09,824.78c10.26-2.29,20.66-4.09,31.13-3.87,24.86.53,49.66-.89,74.49-1.31,4-.07,8.05-.63,11.88,1-24.78-1-48.93,4.48-73.36,7C364.36,829.2,349.92,824.06,335.09,824.78Z"/><path class="cls-23" d="M459.23,432.63a7.88,7.88,0,0,0-5.42,2c-6.85,6.22-14.45,4.71-18.54-3.41a2.6,2.6,0,0,1,.32-3.07c1-1.21,2-.07,2.89.4,2.18,1.17,4.72,3,6.46.23s-1.38-4.15-3.19-5.62-4.12-2.72-4.72-6.2c4.13-.85,7,1.31,10,3.42,4.53,3.23,9.09,6.41,13.64,9.61Z"/><path class="cls-24" d="M310.78,278.87c-2.38-1.19-6.4-.1-6.38-4.61,15.48-8.1,39.71,8.45,35.35,30.8-4.73,4-5.55.06-6.18-3.28-1.08-5.67-1.83-11.41-5.78-16-2.3-3.13-5.62-4.52-9.25-5.37C315.9,280.11,313.72,277.59,310.78,278.87Z"/><path class="cls-25" d="M310.78,278.87c2.84-3.33,5.49-.27,8.21.27,3,1.84,6.12,3.32,9.11,5.1,5.67,4.36,6.07,10.89,6.84,17.15.4,3.22,1.13,5.17,4.82,3.66.2.5.41,1,.62,1.5.58,2.35-.45,3.16-2.72,3.15-3.51,0-7,.15-10.52.23a2.07,2.07,0,0,1,.06-2.95c3.34,1.12,4.51-.29,4.39-3.56-.23-6.33-2-12-7.33-15.83C319.9,284.49,315.28,281.76,310.78,278.87Z"/><path class="cls-26" d="M503.68,677.9c-4.65,0-9.3-.15-13.95-.08-2.09,0-5.22-.71-5.42,2.29-.23,3.32,2.93,2.34,5,2.51l26.53,2.2c-2.16,3.8-5.41,1.31-8.21,1.43-7.16.07-14.32.31-21.48.12-3.06-.08-4.66.94-5.24,3.82-4.16-3.19-4.2-7.38-2.89-11.89,6.86-1.21,13.7-2.57,20.72-1.61C500.42,676.92,502.3,676.37,503.68,677.9Z"/><path class="cls-27" d="M752.46,384.91a2.49,2.49,0,0,1-2.68-1.76c-.59-1.93.67-2.92,2.33-3.38,7.12-1.94,14.24-3.86,21.6-4.71,1.7-.19,3.24.13,3.68,2a2.38,2.38,0,0,1-2.07,2.94C767.9,381.66,760.46,383.21,752.46,384.91Z"/><path class="cls-28" d="M744.06,364c2.2.46,5.75-1.75,6.37,1.53.69,3.7-3.26,3.32-5.65,4.1-4,1.31-8,2.72-12.07,4-3.52,1.08-5.93.57-4.85-4C732.22,364.67,738.31,364.81,744.06,364Z"/><path class="cls-29" d="M679.27,343.27c-.63-3.27,1.84-4.21,4-5.3a72.44,72.44,0,0,1,7.91-3.66c2.5-.88,5.88-4.08,7.65-.53,2,3.88-3.26,3.72-5,5.6C689.44,342.44,685.21,346.07,679.27,343.27Z"/><path class="cls-30" d="M778.57,339.26a33.28,33.28,0,0,1-15,2.8c-2.12-.08-4-1.1-4.26-3.49s1.38-3,3.31-3.28c3.4,2.62,6.84.4,10.27.13C775.76,335.2,779.23,334.28,778.57,339.26Z"/><path class="cls-31" d="M269.16,331.22c6.77-4.9,14.66-6.66,22.67-8.12,1.85,2.56,1.84,3.73-.08,5.86-2.08,2.3-4.82,2.82-7.74,2.83a17.45,17.45,0,0,0-5.57.45c-1.12.37-2.22.91-3.44.47-2.49-2.85-4.08,0-6,.94Z"/><path class="cls-32" d="M212.53,361.17c-2.93-2.48-.95-7-4-9.55-.77-.63-.35-2.12.56-3,1.17-1.11,2.4-.83,3.66-.14a7.15,7.15,0,0,1,3.91,7.16C215.85,357.92,214.88,360.06,212.53,361.17Z"/><path class="cls-33" d="M761.34,332.8c-2.23.08-4.23,3.87-6.46,1-1.82-2.35.27-4.36,2.33-5.27,3.13-1.37,6.58-6.13,9.73.09Z"/><path class="cls-34" d="M673.73,398.35c-1.65,2.93-5,3.7-8,4.73a2.16,2.16,0,0,1-2.93-2.52c.84-4.08,4.54-4.42,7.72-5.07C672.15,395.15,673.57,395.92,673.73,398.35Z"/><path class="cls-35" d="M744.06,364l-16.2,5.58c-.92-2.08-3-1.26-4.56-1.89l16.28-5.47C740.56,364.07,742.56,363.38,744.06,364Z"/><path class="cls-36" d="M149,354.54c4.44-.8,9.23,1.1,13.4-1.73a4.86,4.86,0,0,1,3.12,1.52c4.36,2.5-.49,6.4,1.41,9.27-2.52.85-2.67-1-3-2.66,0-1.72,1.87-3.83-.73-5.06s-3,1.85-4.66,2.45C156.83,353.26,151.43,357.59,149,354.54Z"/><path class="cls-37" d="M679.27,343.27c5.87,2.52,9.36-3.87,14.55-3.89.91,1.92,2.88.94,4.26,1.56a97.68,97.68,0,0,1-21.7,5.34Z"/><path class="cls-38" d="M737.28,314.8c-.62,2.5-2.79,3.08-5,3.37-1.65.22-3.38-.38-3.11-2.37.35-2.61,2.64-3.31,4.91-3.55C735.77,312.08,737.16,312.62,737.28,314.8Z"/><path class="cls-39" d="M22.37,815.48c3.8,1.39,7.8,2.38,10.65,5.59C28.29,821.45,24.47,820.11,22.37,815.48Z"/><path class="cls-40" d="M161.16,756.32c3.81.43,4.8-1.55,4.07-4.86-1.56-7-.6-14.38-3.36-21.19a6.26,6.26,0,0,1-.44-2.63c1.15-16.15.77-32.27,7.77-47.8,4.66-10.34,12.47-19.24,14.25-32.25,3.18,5.08,5,9.6,9.06,12.45a2.39,2.39,0,0,1-.37,4.38c-7.31,3.5-6.89,11-9,17.13-.95,2.77-1.66,5.65-3.39,8-7.62,10.26-9.66,22.49-12.64,34.44-1.1,4.41,2.36,5.55,4.53,7.28,2.42,1.93,3.71-1,5.42-2.32,8.49-6.41,6.7-17,10.22-25.4,5.58-13.36,12-25.87,22.52-36,5.28-5,4.73-9.55-1.78-13.3-1.34-.77-3.39-1.15-3.26-3,.18-2.33,2.72-2,4.26-2.51,5-1.78,10.45-1.48,15.17-4.79,6.9-4.85,8.15-12.36,2.6-20.86-5.32-8.14-5.37-8.65,1.38-15.11,4.89-4.69,5.61-11,7.33-17a2.47,2.47,0,0,0-1.16-2.92,1.88,1.88,0,0,0-2.82.92c-2.18,8.9-7.4,15.9-13.47,22.47-.6.65-.28,2.15-.39,3.26-1.4.61-2.26,2-3.77,2.5-6.61.6-8.7,3.89-5.2,10.46,3.41,6.37.67,7.21-4.7,7.32-5.53.13-11.09.27-16.53,2.63,7.7-9.21,7.17-22.18,15.16-31.26,2.18-2.47,0-6-.93-9-2.42-7.77,4.31-15.7,12.06-13.47,8.35,2.42,15.84.26,23.35-2.6a340.47,340.47,0,0,1,43.55-13.6c3.69-.86,4.48.37,4.81,3.92,1,10.45,2.38,20.85,3.7,31.26a61,61,0,0,1,.27,16,22.12,22.12,0,0,0,1.28,11.85c-5.47,1.94-11.12,3.36-16.09,6.62-3.46,2.27-6.39,1-8.63-2.25-.86-1.25-1-3-2.7-3.75-1.78,1.3-.06,2.83-.24,4.21-1.33,5.7,3.58,6.93,6.77,9.41,5,6,5,11.83,0,19.62-4.17,2.87-9.2.58-13.64,2.77a48.94,48.94,0,0,0,13,.44c7.54-.65,7.78-.44,8.06,7.24,2.63-4.4,2.63-4.4-2.52-11.07-.35-1.86-.28-3.61,1.25-5,2.43.85,3.56,3.36,6.75,3.78,4.31.57,3.11,5.19,2.17,7.64-5.06,13.28-5.94,27.45-9.35,41.06-1.95,7.78-.81,15.56-1,23.35-.16,6.9.9,13.83-1,20.69-.56,2-.83,5.17,2,5.58,3.21.47,2.73-2.66,3-4.8.47-3.3,1.06-6.58,1.61-9.86,1.68-4.68,2.73-9.68,6.61-13.27,3.27,2.29,4.37,0,5.17-2.55,2.33-7.4,3.74-15.15,9.73-20.92a6.33,6.33,0,0,0,1.17-6.41c-3.71-10.25,2.11-18.12,6.22-26.44.4-.79,1-1.49,1.44-2.27,5.43-9.34,6.49-9.54,14.31-2.1,3.77,3.58,7.34,6.88,13.15,7.15,4.69.22,2.26,4.53,2.4,7,.18,3.06-2.17,2.28-4.29,2.14-3-.21-4.78-2.09-7-3.62-8.09-5.69-15-3-17.24,6.54-.89,3.69-2.14,7.3-3,11-.5,2.19-2.07,5.41,1.68,5.92,3,.4,3.17-2.47,3.07-4.83a3.06,3.06,0,0,1,1.13-3c3.31.81,4.94-3.73,8.35-2.64-1.27,4.88-6.09,6.93-8.57,10.82-1.14,1.78-3.32,3.91-.69,5.8,2.24,1.61,3.67-.79,4.84-2.28a157.21,157.21,0,0,1,15.05-16.23c.41-.39,1.19-.39,2.17-.67a10,10,0,0,1-2.66,9.24C319.69,720,317.44,740.08,310.21,758c-1.13,2.81-.9,5.27-5.09,5.12-3.07-.11-5.06,2.67-6.13,5.48-.78,2.06.28,3.44,2.49,3.8,3.23,2.45,7.87-.56,10.87,2.79-1.94,1.61-4.3,1.19-6.45,1.09-22.24-1.06-44.47.23-66.7-.06-7.74-1.95-9.45-5.45-7.11-14.51,1.36-1.71,3.68-1.48,5.46-2.64-6.5-7.21-3.8-15.74-3.12-23.84.26-3,2.92-3,5.09-1.2,2.43,2,4.79,4.12,7.95,4.88s5.09.65,4.43-3.82c-1.34-9.11-1.08-9.14,7.27-13.07a26.71,26.71,0,0,0,7.8-5.21c2.4-2.44,3.39-5.33,2-8.6a8,8,0,0,0-8-5.1,17.74,17.74,0,0,1-2,.19c-8.52-1-15.54-.31-15.47,11.07a5.79,5.79,0,0,1-5.32,5.38c-3.49.16-3.42-3.5-4.52-5.78a4.29,4.29,0,0,1-.56-1.93c1-17-3.34-34.28,3.91-50.91,4.82-11.05,4.77-23.33,7.37-35.19-11.72,13.83-18.07,30.67-27.77,45.42,4.53.79,9.64-4.19,13.31-.76,3.17,3,.53,8.52,1.37,13,1.62,8.49-.6,16.92-1.73,25.34-2.85,3.91-.44,7.79.19,11.61.55,3.3,2.21,6.34,2.86,9.65-.62,6.24-.23,12.56-1.47,18.75a63.4,63.4,0,0,0-4.85,8.67c-7.26,3.56-14.78,2-22.27,1.15-2.7-2.32-5.39-4.65-2.71-8.66a5.83,5.83,0,0,1,5.15,0c1,3.44,2.85,5.57,6.83,4,1.67-.35,3.38.1,5-.25-.19-6.31-.42-12.58-4.28-18-1.78-3.68-2.87-7.48-2-11.61,5.31-1.51,4.77,4.93,8.77,6.22-2.86-6.42-4.45-12.47-8.87-18.25-6.42-8.37-12.76-18.58-4.73-30.07.61-.87,1.13-1.95.21-4.86-2.48,8.16-8.28,12.83-9.29,20.78-1,7.66-4.06,15.22-7.34,22.28-4.73,10.21-2.82,19,3.12,27.71a6.88,6.88,0,0,1,1.54,3.67c-1.08,3.24-4.86,4.65-5.57,8.18-12.36.92-24.65,3.08-37.07,1.47a2.44,2.44,0,0,1-1.35-1.53c2.16-3.7,5.61-2.73,8.69-2C162.38,758.21,161,756.86,161.16,756.32Z"/><path class="cls-41" d="M275,332.71l1.95-1.17c6.63,3.28,12.54,7.73,18.59,11.89a17,17,0,0,1,7.38,12.25L308,363c2.27,6.33,4.46,12.65,7.64,18.64a35.78,35.78,0,0,1,4.51,18.1,34.44,34.44,0,0,0,5.14,19.9,26.45,26.45,0,0,1,3.28,8.05c1.93,8.07,4.32,16,10.62,22a5.11,5.11,0,0,1,1.49,4.93c-1.19,6,.67,11.54,2.75,17,.64,5.48-3,3.24-5.48,3-2.95-1-5.79-2.85-9-2.48-8.09.93-13.44-3.41-17.27-9.5-5.36-8.53-11.54-16.58-15.53-25.94a25.87,25.87,0,0,0-4.89-8c-9.55-9.83-13.55-22.54-18.37-34.83-.41-1-.67-2.14-1.09-3.18-5.82-14.66-5.5-16.81,4.23-29-8.12,4.63-12.75,14.79-9.27,22.55,4.13,9.22,6.9,19,11.54,28A157.16,157.16,0,0,0,290,430.85c6,8.54,10.61,18.12,16.41,26.91,4.92,7.44,9.1,15.75,20.14,15.19,1.56-.08,3.85.27,3.28,3.06-2.48,2.19-5.34.72-8,.83-4.09.17-7,.74-7.51,6.26-.36,4-5,5.72-9.95,7.82,2.73-6.25,5-11.3,5.79-16.82.27-1.89,2.19-4.22-.72-5s-4.72,1.84-4.9,4.34c-.37,5.13-2.47,9.51-4.74,13.91-.31.59-.72,1.14-1.08,1.71-1.91,1.76-4.27,1.81-6.67,1.74-12.89-11.42-25.52-23.15-39.89-32.8-6.82-4.57-14.08-8.26-22-9.64-4.38-.75-5-3-3.93-5.72,6.32-16.57,4.22-34.68,9.67-51.4,2.16-6.66,4.32-13.33,8.77-18.81,9.19-11.3,16.64-24,27.57-33.9A7.88,7.88,0,0,0,275,332.71Z"/><path class="cls-41" d="M176.05,540.47c-1.14,1.68-1.48,4-1.58,6.49a312.31,312.31,0,0,0,2.79,53.72c.33,2.47.37,4.4-2.46,5.32-6.58,2.11-12.4,7.53-20.29,3.3-2.89-1.54-7,0-10.18.39-22.63,2.71-44.47-3.54-66.71-4.87-3.57-.22-5.23-1.9-3.38-5.21,5.91-10.58,5.19-23.44,12.06-33.79,3.34-5,4.06-11.34,4.73-17.37,1.93-17.52,10.93-32.1,19.4-46.88,2.21-3.86,4.86-.92,6.83.24,12.56,7.46,24.52,15.6,35.22,25.81C158.89,533.74,167.6,537.18,176.05,540.47Z"/><path class="cls-42" d="M289.51,559.06c-1,1.6-3.1,2.27-4,1.19-4.58-5.58-11.2-3.24-15.3-1.81-7.79,2.72-15.34,2.35-23.09,3.22a90.57,90.57,0,0,0-32.82,10.85c-1.81,1-3.92,3.34-6,1.6s-1-4.48-.47-6.92c.93-4.37,1.22-8.39-1.66-12.73-2.11-3.18-.37-7.67.8-11.51.69-2.29,2.36-4.61,1.1-7.1-2.24-4.41-7.34-8.1-1.25-13.75,1.82-1.68-1.3-5.24-3.28-6.64-3.31-2.34-2.46-4.33-1.26-7.34a107.34,107.34,0,0,1,13.21-24c1.48-2,3.19-4.41,2.3-6.78-3-8,2.17-7.23,7-7,.9,0,1.8,0,2.69-.05,15.87,1.74,30.63,6.16,42.49,17.59,2.76,2.65,5.66,4.8,8.75.53.87-1.2,1.38-.6,2-.11s1.17,1.46,1.93,1.85c19.14,10,12.63,27.85,13.3,43.48,0,.64-.16,1.75-.5,1.86-8.74,2.73-2.84,7.17-.91,10.49,1.8,3.11,2.5,5-1.34,6.77C290.79,553.86,288.63,555.71,289.51,559.06Z"/><path class="cls-11" d="M151.83,759.17a2,2,0,0,0-.14.81c-6.43,4.29-14.05,1.37-20.88,3.4a16.71,16.71,0,0,1-6,.2c-17-.16-34-.34-51,.12a6.07,6.07,0,0,1-2.4-.07c-4.2-2.41-4.17-6.16-3.19-10.2,2-18.74,13.73-34.5,16.37-53.07A5.74,5.74,0,0,1,87,696.55c7.65-4,10.63-11.7,15-18.34,7.79-4.53,16.36-3.68,24.73-3.13,4.6.31,8.24-.34,11.35-3.89,2.86-3.25,6.19-5,10.58-2.34,2.51,1.53,5.2.2,7.82-.19,3.81-.57,7.62-1,10.3,2.73C165,679.26,160,686,158.85,694c-2,14-4.38,28-.87,42.18a41,41,0,0,1,.55,6.59c-.51,5.24-1.15,10.28-8.38,10a3.33,3.33,0,0,0-3.48,3.38c.09,2.14,2.58.77,3.74,1.65A4.31,4.31,0,0,1,151.83,759.17Z"/><path class="cls-41" d="M332.61,582.32c2.39-3.06,5.82-5.64,1.58-9.28-.53-.45-.43-2.27,0-3.13,3.93-7.64,5.32-16.56,12.93-22.32S356,533.12,356,524.28c0-2.73.2-3.6,3.17-3.07a74.38,74.38,0,0,0,10,.73,9.41,9.41,0,0,0,4-.37,47.69,47.69,0,0,1,35.15-1.23c7.53,2.56,16,1.74,23.07,6.31.89.57,2.64.09,3.9-.25,6.86-1.85,7.1-1.82,5,5.36-5.09,17.37-9.54,34.89-12.09,52.83-.84,5.89-4.53,8.22-9.69,8.15-15.68-.21-31.34-1.13-46.5-5.63-9.2-2.73-18.4-4.86-28.11-3.47C340.41,584.13,336.79,584.61,332.61,582.32Z"/><path class="cls-11" d="M312.35,775.14c-3,0-6.08-.22-9.11-.09-2.41.11-2.5-.93-1.76-2.7,3-3.09,5.93-5.62,11.09-3.91,3.14,1,5.43-1,2.92-4.62a4.9,4.9,0,0,1-.23-5.11c5.89-13.09,8.39-27.43,14.87-40.32,2.35-4.67,4.92-5.56,10.54-4.78,21.78,3,43.37,7.08,65.11,10.27,9.75,1.44,19.4,3.54,29.1,5.34a22.45,22.45,0,0,1,7,0c9.5,9.27,9.86,20.9,8.92,33.06-.42,5.37-2.9,6.75-7.9,7.34-19.25,2.25-38.6,2.18-57.89,2.16C360.7,771.72,336.54,773.5,312.35,775.14Z"/><path class="cls-41" d="M163.88,360.94l3,2.66c6.37,1.22,8.55,7.21,11.49,11.46,11.18,16.16,19.93,33.42,17,54.14-.88,6.17-2.51,6.9-7.14,3.4-1.76-1.32-3.83-1.18-5.83-1-11.58,1.13-23.3.78-34.73,3.45-1.69.4-3.54.06-6.66.06,4.69-4.76,5.12-11.43,8.86-15.17,6-6,10.31-11.41,8-20.36-.33-1.27,2.35-3.11,3.08-4.92a3.83,3.83,0,0,0-2-5.14c-2.32-1-2.58,1-3.59,2.56-2.73,4.34-4.72,8.49-2.55,13.73.72,1.75.05,3.49-2.1,4.28-2.77,1-4.25,3.51-5.16,5.95-3.08,8.33-8.31,15.3-13.31,22.46-1.22,1.74-3.4,3.86-.81,5.79s3.88-.77,5.3-2.4c1.39.39,1.9,1.53,2.35,2.73,3.36,5.29,8.45,2.71,12.82,2.58a89.28,89.28,0,0,0,13.28-1.83c3-.56,4.8-.08,4.7,3.49-.06,2,.36,4,.46,6,.48,10.4-1.39,11.34-11.45,10.69-14.75-1-29.58-.89-44.37-.66-6,.1-9.54-1.2-9.88-7.73a16.36,16.36,0,0,0-1.41-6.54c-5.06-9.84-.37-18.22,3.9-26.53,3.07-6,7.07-11.57,8.51-18.22a25,25,0,0,1,13.13-17.09C142.23,381.63,153.26,371.61,163.88,360.94Z"/><path class="cls-40" d="M68.13,753.43a20.66,20.66,0,0,0,3,9.18c-1.32,2.1-3.66,2.21-5.71,2.9a43.08,43.08,0,0,1-15.15-.12,15.61,15.61,0,0,0-9.1.6,2.35,2.35,0,0,1-2-.58c-3.1-4.33-7.84-4.32-12.46-4.8-2.59-.26-6,1-7.07-3,.95-.79,3.63.75,3-2.13-1.06-5,1.95-8.81,3.45-13.07,0,2.68,0,5.36.1,8,0,1.41.39,2.85,2.13,2.83s2.11-1.33,2.27-2.79c.29-2.73-.69-5.71,1.21-8.48.59.66,1,.91,1.09,1.24.88,2.4-1.35,7.35,3,6.68s3.55-6.39,2.12-8.45c-6.5-9.3-1.23-17.47,1.26-26.07a338.46,338.46,0,0,1,15.43-41.51c.71-.7,1-2.2,2.55-1.25,3.28,2.81,4.49.24,6-2.16,1.63-2.61,1.63-6.09,4.52-8.38,2.5,3.3,2.31,7.27,3.46,10.79.5,1.54,1.41,3.16,3.21,2.88s2.12-2.24,1.84-3.8c-.56-3.07-1.32-6.12-2.1-9.15-1.46-5.66-3.23-11.24.23-16.93.7-1.15.56-3.13.18-4.56-2.44-9.07,2.15-23.67,9.24-28.58a4.3,4.3,0,0,1,2.55-.53c10.5.68,21,1.53,31.49,2.09,4.52.25,3.83,2.17,2.4,5.15a407.81,407.81,0,0,1-27.95,49.85c-4.5,6.76-8.61,13.71-10.75,21.6-1.07,4-3.74,6.68-6.74,9-10.18,7.82-11.8,19.65-14.69,30.86-.45,1.76-.89,4.55,2,4.79,2.53.2,2.85-2.16,3.39-4.21,2.13-8.18,3.06-16.84,8.8-23.67a34.06,34.06,0,0,1,3.74-3c-1.37,4.88-1.79,8.54-3.38,11.6A125.78,125.78,0,0,0,63.3,751.24c-.44,2.37-3.35,5.58.45,7C67.21,759.48,66.15,754.64,68.13,753.43Z"/><path class="cls-41" d="M405.37,421.09c-8.25,1.82-16.18,3.17-23.69,6.11-1.38.54-3.55,1.87-4.47-.91-.8-2.4.65-2.85,2.64-3.47,2.58-.79,2.33-3.13,1.34-5-2.9-5.56-5.75-11.17-9.1-16.46-1.5-2.37-4.14-5.07-6.24,0a1.84,1.84,0,0,1-.86.94c-2.05.8-5.81-1-5.8,2.77s4.05,3.63,6.46,5c4,2.26,5.55,4.64,5.32,10.05-.31,7,1.18,14.12-.87,21.2-.71,2.43,1.31,3.17,3.48,3.9,7.64,2.58,15.57,2.57,23.33,2.14,12.81-.7,21.29,4.59,26.95,15.84,1.48,2.93,1.25,3.88-1.56,4.62-13.44,3.55-27,5.11-40.73,2a13.93,13.93,0,0,0-5.92-.23,32,32,0,0,1-16.59-.81,13.72,13.72,0,0,0-4.57-.91c-7,.12-8.91-1.54-8.57-8.77.24-5.18.55-9.78-3.5-14.34-2.75-3.08-.18-8.53-1.84-12.83-4.47-11.65-2.77-23.32.15-35.05,1.69-6.77,5.19-11.67,11.32-15a137.85,137.85,0,0,0,14.14-9.06c1.95-1.42,3-1.3,5.23-.34,11.6,5.11,16.68,16,22.69,25.77C398.39,405.1,401.41,412.87,405.37,421.09Z"/><path class="cls-11" d="M480.79,690a15.8,15.8,0,0,0,8.47,1.76c31.28-.53,62.35,2.66,93.44,5.44,5.33.48,10.59,1.93,15.87,3,2.13.42,4.95,1.92,5.86-1,1.13-3.56-2.39-3.45-4.6-4.2-1.23-.42-2.41-1-4.51-1.94,10.7.3,20.37.95,29.85,3.38,4.64,3.36,10.14,4.3,15.56,5.48,4,.87,7.31,2.42,6.8,7.44-3.7,5.46-9.79,4.3-15,5.47-5.71-.74-10.92,1.78-16.39,2.56a3.7,3.7,0,0,1-3-.12c-37.68-2-75.4-1.17-113.1-1.49-6.41,0-12.85-2.87-19.27,0v-.18c-1.63-1.89-.66-4.76-2.46-6.59C476.92,702.36,483.15,696.76,480.79,690Z"/><path class="cls-43" d="M457.85,680.54c-.31-2,.77-5.19-2.57-5.25-3.83-.06-2.78,3.32-2.92,5.58-.43,6.79.21,13.44,2.94,19.78.67,1.55,2.14,3.25-.14,4.67-1.48.93-3.05,2.32-4.89,1.55-2.06-.87-1.39-3-1.63-4.76-1.53-11.15-3.84-21.94-13.7-29.19-1.47-1.08-1.11-2.81-1.33-4.33-1.42-9.51-3.05-19-4.28-28.53s-6.39-16.74-12-23.87c-1.45-1.85-4.12-3.39-2.53-6.27a6.68,6.68,0,0,1,6.09-3.54c3.42,0,3.82,2.51,4.61,4.82.51,1.48,1.77,3.19,1.39,4.4-2.73,8.71,3.33,7.14,8.1,7.19a82.09,82.09,0,0,1,8.74.17c9.05,1,9.25,1.46,6.05,10.49a1.35,1.35,0,0,1-1.58.22c-2.13-.76-2.91.57-3.12,2.25-1.2,9.77,1.88,18.77,5.18,27.71.44,1.2,1.65,1.29,2.68.33.75-.9,1.37-1.93,2.55-2.33,6.26,2.22,4-2.08,3-4.32-3.24-7.21-3.32-14.76-3.08-22.39.05-1.56-.08-3.28.54-4.61.8-1.68,1.45-4.47,3.58-4.26,2.3.24,2,3,2.43,4.93,3.78,18.76,4.3,38.15,10.86,56.38a13.65,13.65,0,0,1,.25,9.85c-3.6,9.2-1.65,18.27.67,27.33.33,1.28.94,2.83-.19,3.82-1.39,1.21-2.33-.3-3.35-1.07-1.45-1.08-3.72-1.3-3.69.56.09,4.59-3.47,9.08-.39,13.69,1.24.83,1.95,3.34,3.48,2.57,2.64-1.33.38-4.59,1.74-6.65,6.86-1.1,8,2,5.73,7.71-1.07,2.75,1.4,3.69,2.87,5.35,4,4.51,7.88,9.14,10.7,14.6-10.4,1.52-20.89,1.58-31.33,2.29-3.4.24-3.94-1.31-3.66-3.89.42-4,1-7.95,1.54-12,3-.58,4,2.44,6.19,3.31,1.44.58,2.85,1.68,4.3.23,1.64-1.63.9-3.21-.27-4.78a100.25,100.25,0,0,0-12.79-14.67,42.59,42.59,0,0,1-3.77-3.83c-9.67-11.33-8.33-15,6.12-18.91,3.41-.92,11.29.22,6.56-8a2.5,2.5,0,0,1,1.86-1.82c2.2-.35,2.25-1.71,1.63-3.43a42.57,42.57,0,0,1-2.65-15c0-2.34-.66-4.16-3.55-2.3A2.35,2.35,0,0,1,457.85,680.54Z"/><path class="cls-13" d="M444.64,482.4c3.41,8.78-2.35,16.26-2.91,24.51-1.36-1.81-2.72-3.31-2.4-5.42,1.31-8.64-5.39-12.68-10.25-17.77a3.1,3.1,0,0,0-1.78-.87c-2.76-.27-12.75,8.25-12.26,11.23,1.33,8.18-4.06,9.27-9.79,10.27-3.51.61-7,1-10.74,1.56.13-2.93,2.42-2.82,3.65-3.84,1.55-1.27,3.83-2.33,2.39-4.76s-3.39-1.26-5.18,0c-1.29.88-2.7,1.59-4,2.45-7.25,4.77-15.61,3.94-23.62,5.34-10.07,1.77-13.49-4.1-16.39-10.84-2.51-5.84-3.55-12.32-5.23-18.52l-.08.1c5.25-2.21,10.48-1.49,16.09-1.18,19.53,1.1,39.24,4.91,58.64-.94,3.93-1.18,9.82-.43,9.84-7.46,0-1.27,2.56-1.37,4.12-1.46,4.51-.26,6.59,2.19,7.7,6.3C443.45,474.8,443.11,478.78,444.64,482.4Z"/><path class="cls-44" d="M498.51,735.91c8-3.91,15.9-.13,23.71.61,29.72,2.83,59.49,4.37,89.32,4.82,1,0,2,.13,4.42.28-4,2.78-7,4.25-10.48,5.1-16.36,4-33,6.61-49.58,9.09-10.37,1.55-20.55,3.67-29.83,9.33-2.59,1.59-7,.28-10.56.21-6.47-.14-15.38,2.15-18.79-1.17-4.08-4-7.28-10.26-11.15-15.35-.12-.16-.08-.44-.12-.66,2.66-4.61-1.72-8.16-1.88-12.35a20.07,20.07,0,0,1,10.87-.12c-.32,1.3-2.83,1.65-1.35,4C495.22,739,496.47,736.78,498.51,735.91Z"/><path class="cls-45" d="M40,766c1.52-2.8,3.64-3.67,6.93-3.19,6.07.87,12.23,1.16,18.35,1.7,5.08,1.59,10.25.33,15.37.41,39.72.61,79.28-2.2,118.84-5.19,8.95-.67,17.94-.15,26.92-.16,2.23,0,4.52.17,6.11,2.16.37,5.67-.82,12.06,6.68,14.42-25.75-1.26-51.55-4-77.26-3.37-29.41.76-58.73-.9-88.08-.47-1.12,0-2.43-.36-3.34.08-9.81,4.8-17.95-1.2-26.59-4C43.25,766.62,40,768.93,40,766Z"/><path class="cls-46" d="M635.82,753.58c-10.36,2.81-21,4.88-31,8.62s-21,2.66-30.76,5.35c-12.67,3.5-23.95-2.65-35.93-1.09,9.28-5,19.51-5.94,29.6-7.16,16.09-1.93,31.75-5.92,47.52-9.38,1.09-.25,2.58-.19,3.2-.88,11.48-12.77,26.32-5.26,39.87-7.6-.45,2.84-2,3.17-3.43,3.61C647.66,746,640.52,747.06,635.82,753.58Z"/><path class="cls-46" d="M366.2,695.29c-4,0-7.77-2.73-11.83-.93-1.39.62-3,1.48-2.84,3.36.16,1.63,1.6,2,3,2,14.6,0,27.87,6.47,42,8.7,12.85,2,25.49,5.29,38.31,7.53,3.63.63,4.56,2,3.94,5.16-3.91,1.38-8.15-.58-12,1.23-26.6-4-52.83-10.35-79.74-12.56-2.66-.21-7.57,1-8.05-3.65-.52-5.1,4.9-11.82,9.07-12.22a172,172,0,0,1,24.86-1C372.11,697.52,368.16,693.65,366.2,695.29Z"/><path class="cls-40" d="M313.8,656.46c-1.54-5.7-2.95-11.37,3.92-14.86,2.26,1.57,4.59.93,6.92.21,4.05-.43,7.67,3.8,11.93,1.08,5.27-2.48,11-1.62,16.18-.8,4.57.72,1.24,4,0,6.16-5.36-2-5.59,3.07-8.51,5.75,5,.25,4.53-5.79,8.49-5.69,3.19,10.73-3.93,17.83-9.84,24.59-2.8,3.22-8.48,1.62-12.09-1.77s-7.34-7.18-11-10.84C318.11,658.54,316.5,656.66,313.8,656.46Z"/><path class="cls-47" d="M371.56,607.94c2.15,0,5.19-.76,3.12,3.3-1,2-2.71,4.2.52,5.56,2,.85,4.23,1.32,2.42,4-1.42,2.08-2.68,5.05-6.25,3.73-5.25-1.94-10.77-3.38-15.64-6-6-3.24-11.79-6.35-18.66-7.1-4.27-.47-5.28-2.47-2.64-6.19a46.29,46.29,0,0,0,3.41-6.56c5-10.27,10.56-12.33,22.17-7.85-4.44-1.53-8.07.52-11.7,2.36-1.83.93-3.72,2.25-2.8,4.65.74,1.92,2.76,2.15,4.62,1.88,3.49-.51,7.51-3.23,8.83,3.11.31,1.49,2.83,1.11,4.24.39,4.92-2.51,7.71-1.82,7.18,4.42a8.52,8.52,0,0,1-6.55,3.84c-1.53.16-3.5.18-2.58,2.53.65,1.67,2.27,1.94,3.9,1.16A12.54,12.54,0,0,0,371.56,607.94Z"/><path class="cls-48" d="M435.16,698.18c1.42,4,4.23,9,1.82,11.88-2.23,2.64-7.38-.5-11.15-1.35-15.88-3.58-32.08-5.63-47.74-10.19-.1-2.61,1.4-4.34,3.21-5.92a183.81,183.81,0,0,1,41.61,0c-6.55,3.84-13.39-.89-19.29.9C413.77,694.08,425,692.84,435.16,698.18Z"/><path class="cls-43" d="M428.46,600c-1-2.87,1.44-4,2.94-5.43,3.61-3.48,8.17-5.47,12.73-7.3,2.13-.85,4.73-3.34,6.7-1.51,3.85,3.57,11.83,3.57,10.18,12.31-1.05,5.59-.5,11.51-.39,17.28.07,3.53-1.31,5-4.76,4.5-6.18-.86-12.38-1.59-18.53-2.6-3.91-.65-1.63-3-.67-4.32,2.73-3.81,5.87-7.33,8.59-11.14,1.94-2.72,2.75-5.49-2.11-6-2.2-3.12-3.83.09-5.59.62C434.43,597.26,432.26,600.63,428.46,600Z"/><path class="cls-49" d="M180.52,544.7c4.44,0,8.2,4.54,12.84.83,0,2,.49,3.79-.07,5.11-4.93,11.61-1.66,24-3.35,35.84a5.94,5.94,0,0,0,3,6.26c2,1.33,3.23,5.09,2.29,5.74-2.79,1.91-6.45,2.46-10,2.52a3.15,3.15,0,0,1-3.38-3.42C181.65,580,176.66,562.48,180.52,544.7Z"/><path class="cls-50" d="M378.2,629.35c-1.64,2.24-6,0-6.57,4.08-1-.37-2.41-1.38-3-1-7.57,4.67-15.73,4.84-24.23,4-3.45-.33-7,.67-10.56,1.06-4.24-6.66-9.36-13-7-21.81l.48-2.49c2.51,1.43,5,2.9,8,3.1,8.81.58,15.55,6.39,23.39,9.46C365,628.21,371.32,630.31,378.2,629.35Z"/><path class="cls-51" d="M219.69,306.47c.56,1.66,1.93,3.38-.29,4.87-4,.14-8.55,2.63-11.51-2.37a96.36,96.36,0,0,0-9.47-15.1c-2.44-3-5-6.39-9.73-5.48a10.8,10.8,0,0,0-3,2.21c-2.15,7.68-.16,15.56-1.24,23.28a9.07,9.07,0,0,1-1.51,3l-18.82,3.93,5-12.47c2.7-.81,1.71,2.14,2.9,2.86.81,1.21,2,2.13,3.36,1.48,3.17-1.47,4.59-14.15,1.87-16.37-.57-.46-1.55-.12-1.54-1.5,0-3.79,7.77-12.09,11.91-12.09,11.28,0,20.05,4.79,26.18,14.3C215.76,300.19,214.8,305.14,219.69,306.47Z"/><path class="cls-52" d="M224.63,425.8a14.18,14.18,0,0,1-1.17,7.84c-.53,1.21-1,2.77-2.74,2.18-6.93-2.37-14-1.21-21.62-.83,2.47-7.72,2.89-15.16,2.75-23.09,7.19.68,14.16,2.92,21.06.13,3.35-.11,2.09,2.48,2.39,4.12C225.89,419.42,224.28,422.54,224.63,425.8Z"/><path class="cls-52" d="M444.64,482.4c-2.63-1.62-1.67-4.54-2.07-6.76-.91-5.06-3.18-8.72-7.84-10.88,4.78-2.08,8-5.13,8.82-10.77,1-7.24,7.12-10.38,12.49-14,1.31-.89,2.07-.35,2.81.53,3.79,4.52,7.19,9.24,7.06,15.53-.11,5.26-8.21,9.76-15.14,8.33-2-.4-3.8-1.41-5.76-1.82s-4.39.77-3.14,2.71C445.39,470.71,443.17,476.8,444.64,482.4Z"/><path class="cls-47" d="M177.22,644.92c-1.61-8-5.27-15.07-8.51-22.33-.66-1.48-1.44-3.45.32-4.2,5.84-2.49,9.53-8.35,15.75-10,2.67-.71,5.95-1.62,8.06,1.27,1.93,2.65-1.23,4.41-1.61,6.58C189.6,625.53,182.94,632.4,180,641,179.48,642.37,179.5,644.08,177.22,644.92Z"/><path class="cls-53" d="M213.91,617.26c.91-1.35.1-5.32,3.77-2.5-.12,4.25,1.82,7.73,4,11.18,6.09,9.49,4.16,13.7-7.13,16a79.87,79.87,0,0,0-9.78,2.44c-2.82,1-6.92,1-7.23,4.9a8.76,8.76,0,0,0,5.42,8.64c6.68,2.78,3.84,4.72.46,8.23-5.62,5.84-10.74,12.23-14,19.85-2.6.11-1.83-1.45-1.41-2.84,1.28-5.77,1.9-11.59,8.09-15.09,4.49-2.53,4.44-7,1.3-11a26.43,26.43,0,0,1-4.53-7.26c-2.86-7.67-2.43-8.86,6.12-9.23,5.22-.22,10.32-.49,14.8-3.34,2.79-1.78,5.71-3.89,2.75-7.85-3.32-3.53-1.59-8.17-2.71-12.18Z"/><path class="cls-54" d="M184.45,444.16c2.93,11.17,15.84,5.9,21.65,13.63-9.19,3.52-18.19,7.17-27.35,10.38-3.31,1.16-5.88.41-4.43-4.31a16.6,16.6,0,0,0,.74-7.28C173.79,448.88,177.58,445.38,184.45,444.16Z"/><path class="cls-55" d="M432.29,686.2c-1,2.48-3.14,1.22-4.63,1.09-22.38-1.81-44.74-.36-67.11.29-1.55,0-4.37,1.63-4.64-1.62-.21-2.53,1.14-3.9,4.09-3.92,22.38-.16,44.76-.46,67.14-.68.39,0,.78.38,1.17.58-1.61,2-1.43,2.4,1.12,2.85A4.7,4.7,0,0,1,432.29,686.2Z"/><path class="cls-54" d="M440,447c-.92,2.73-1.58,5.86-3,8.61-2.68,5.22-7.41,5.22-11,.6-3.07-4-5.29-8.91-10.46-10.95-1.26-.5-2.49-1.16-2.08-2.89s2-1.32,3.24-1.62c3.46-.85,7-1.58,9.91-3.82.18-.13.33-.34.52-.42C430.33,435.35,440.44,443.42,440,447Z"/><path class="cls-56" d="M286.77,733.22a31,31,0,0,1-6.61,13.27c.73-9.86-2.35-19.69-.22-29.55,2.7-3.18,6.65-4.94,9.27-8.21.48-.79,1-1.58,1.45-2.38-.71-1.57-.13-3.06.28-4.55.85-3.06.45-5.4-3.34-5.7-3.35-.27-3.32-2.24-2.45-4.69,2.71-4.07,6.3-1.87,9.49-1.13s.83,3.37,1.31,5.07c1.94,6.95-.13,12.58-4,18.74C288.54,719.51,287,726.42,286.77,733.22Z"/><path class="cls-57" d="M335.29,502.6l15.92,6.72c-1.63,1.84-1.73,3.71-.07,5.6-.07,3.38-1.75,4.31-4.8,3.17-11.38-4.28-23.74-5.89-34.17-12.7-1.08-4.64,1.91-5.31,5.34-5.36A67.38,67.38,0,0,1,335.29,502.6Z"/><path class="cls-58" d="M10.23,780.58l-21.56-17,0,.06c3.33-5.57,8.74-5.54,14.16-5,8.23.77,16.18,3.1,24.27,4.72,2.1,1.6.63,2.61-.61,3.66-4.65,1.67-9.53,1.26-14.33,1.65-2.92.24-6.24.28-4.32,4.88,1.33,2.22,3.55,1.18,5.41,1.51,1.38.24,3.5-1,4,1.05s-1.35,3.08-3.09,3.65A33.4,33.4,0,0,1,10.23,780.58Z"/><path class="cls-59" d="M225,451.93c15.36,4.41,28.33,11.89,39.1,23.37-4.57-1.74-9.2-3.33-13.68-5.26-7.73-3.34-15.9-4.65-24.16-5-5.52-.2-6.28-1.81-3.32-6.12C224.39,456.91,224.77,454.45,225,451.93Z"/><path class="cls-60" d="M370.22,331.94c.56-7.34,1.3-14.22,8.18-18.38,2.08-1.25,1.39-2.74.63-4.59-.88-2.13,1.25-2.61,2.66-2.9,2.19-.45,2,1.43,1.78,2.6a38.07,38.07,0,0,0,3.35,22.25c.67,1.47.64,2.63-1,3.19-4.45,1.51-8.89,4-13.4,4.15S371.49,333.79,370.22,331.94Z"/><path class="cls-61" d="M183,316.87c0-1-.07-2-.1-3,3.23-1.35,3.56-4.16,3.6-7.12.08-6.14.21-12.28-1.26-18.31l3.09-1.53c6.24,5.35,11.71,11.33,15.19,18.88,1.22,2.63,2.51,4.22,5.09,1.34,2,5.56,6.87,3.7,10.83,4.2Z"/><path class="cls-62" d="M224.63,425.8c-2.75-2.16.14-4.37,0-6.55-.21-2.48,1-5.3-1.67-7.22,2.1-2.51,2-4.79-.61-6.92-2.09-1.69-4.12-3.44-6.15-5.2-1.59-1.38-2.23-4.49-5-3.72s-.68,3.48-1.25,5.16c-1.15,3.4-4.78,3.56-8.09,5.39,5.52-9.05-1.14-17-1.6-27.67,7.36,9.77,15.63,15.66,23.58,21.95a7.6,7.6,0,0,1,2.79,8.92C225,415.08,226.91,420.7,224.63,425.8Z"/><path class="cls-63" d="M326.88,615.68c-.06,7.8,5.89,13.78,6.49,21.38,0,.16.33.29.5.43l-2.61,2.73c-2.2,1.11-4.77,1.25-6.84,2.68-2.63,1.6-5.55,4.76-6.7-1.3,2.76-5.8,4.8-11.68,4.36-18.34C321.87,620.05,321.35,615.69,326.88,615.68Z"/><path class="cls-64" d="M392.11,309.75a56.53,56.53,0,0,1,13.46,13.75c2.07,2.95,1.7,4.35-2.28,5.28-11.71,2.76-12.06,2.73-14.63-9.22-.71-3.28-1.23-6.57.35-9.77A2.36,2.36,0,0,1,392.11,309.75Z"/><path class="cls-65" d="M162.3,524.31c-.68,2.8-2.29,2.51-3.9,1.09-3-2.66-5.9-5.47-8.83-8.23a116.65,116.65,0,0,0-21.68-15.7c-3.47-2-6.76-4.34-10-6.68-1.14-.82-3.12-1.81-1.69-3.64,1-1.31,2.44-.19,3.58.47,1.35.79,2.75,1.52,4,2.42,12,8.46,25.77,14.57,35.59,26C160.51,521.4,162.26,522.31,162.3,524.31Z"/><path class="cls-66" d="M205.72,450.3l-8.85-3c-2.27-.78-5.1-1.06-4.34-4.64s3.09-2.83,5.55-2a6.89,6.89,0,0,0,2.63-.22c4.79-.89,9.63-.32,14.44-.37,7.06-.07,7.77,1.43,4.1,8.12C215.34,452.61,210.45,451,205.72,450.3Z"/><path class="cls-67" d="M380.61,440.46c-1.86.45-3.06-.11-3.26-1.7a3.65,3.65,0,0,1,1.92-4C386,431.85,392.9,429,400.2,428c4.42-.61,1.5,4.13,3.06,6,1.32,1.6.92,3.33-1.74,3.67C394.45,438.59,387.39,439.56,380.61,440.46Z"/><path class="cls-68" d="M262.24,636.33c-.62-1.17-1.31-2.31-1.84-3.52a2.91,2.91,0,0,1,1.84-4.3c2-.72,3.18.37,4,2.35,3.28,7.69,3.35,7.67,10.65,3.44,4.27-2.48,8.56-4.89,13.81-3.5,0,1.29,0,2.58,0,3.87-6.13,2.79-11.3,7.42-17.88,9.38C265.67,644,263.65,642.53,262.24,636.33Z"/><path class="cls-69" d="M273.14,642.77c6-2.34,10.32-8.52,17.63-8.1-2.45,6.36-9.63,8.31-13,14.17-2,3.55-3.73,6.32-1.88,10.21l0,5.3c-2.21,1.85-4.39,2.15-6.53-.12,1.35-6.38,6.6-13.08-1.49-18.71C268.12,641.71,272.05,645,273.14,642.77Z"/><path class="cls-70" d="M392.11,309.75l-3.1,0c-.42-6.8,3-8.91,9.58-5.31,4.07,2.22,7.7,5.33,11.36,8.25,4.64,3.71,8.44,8.47,14.58,10.8-8.3,4.11-10.29,3.69-14.71-3-3.48-5.29-8.07-9.53-12.62-13.82-1.23-1.16-2.4-3.2-4.45-1.83C390.94,306,391.67,308,392.11,309.75Z"/><path class="cls-71" d="M434.68,583.2c2.65-13,6.92-25.12,9.37-38.71,5.33,9.29,2.44,16.94-1.25,24.69-1.32,2.78-5.12,4.92-1.66,9.5C442.44,580.4,436.81,581.22,434.68,583.2Z"/><path class="cls-72" d="M408,333.3c-19.06,8.15-40.21,11.58-56.47,29,1.76-9.63,8.44-12,13.72-14.75C378.64,340.45,393.49,337.22,408,333.3Z"/><path class="cls-73" d="M183.92,532.1c-.81-3.86-2.26-5.58-5.47-1.68-1.57,1.92-3.11,4.07-6.11,2.65-1.81-.86-4.08-1.69-4.07-4,0-2.74,2.6-1.67,4.15-2,6-1.41,12.2-2.35,18.37-7.37v14.06C189.18,530.31,186.13,533,183.92,532.1Z"/><path class="cls-74" d="M139.05,444.63c-1.58-.23-2.09-1.37-2.34-2.73C144.54,439,152.87,439,161,438a177.46,177.46,0,0,1,23.33-.87c-3.88,2.71-7.11,5.1-12.91,3.73a34.93,34.93,0,0,0-19.85,1.46C147.41,443.91,142.43,439.88,139.05,444.63Z"/><path class="cls-75" d="M151.83,759.17c-3.31-.74-9,1.3-6.67-5.94.49-1.48,1.19-2.69,2.69-2.36,6.85,1.52,9.51-2.26,10.68-8.11,1,4.49-2.17,9.8,2.63,13.56.1,1.11,1.61,1.22,1.7,1.6.38,1.71-1.22.77-1.74.81C158,759,154.93,759.05,151.83,759.17Z"/><path class="cls-76" d="M335.29,502.6c-5.65-.45-11.29-1-17-1.31-2.95-.18-5.89.06-6.17,4.1a19.65,19.65,0,0,0-7.06-1.65c-1.86-.19-4.53-.34-4.53-2.91,0-2.88,2.84-3.35,4.94-3.29A80.77,80.77,0,0,1,320,498.9C325.13,500,330.75,499.17,335.29,502.6Z"/><path class="cls-77" d="M428.46,600c4.36-2.51,8.7-5,13.08-7.52,1.45-.82,3.18-1.23,3.9.65.62,1.62-1.91,1.37-2.3,2.61-3.33,2.44-5.16,6.08-7.47,9.34-1.12,1.58-2.15,4.36-4.18,3.52a5,5,0,0,1-3.19-5.93A14.74,14.74,0,0,0,428.46,600Z"/><path class="cls-78" d="M423,431.37c-2.27.84-4.5,1.85-6.83,2.46-2.95.77-6.66,3.44-7.93-2.11-1.18-5.19,1.18-7.57,6.32-7.55C418.87,424.79,421.17,427.78,423,431.37Z"/><path class="cls-79" d="M323.12,698.19c-1.75,1.52-3.4,3.15-5.25,4.53-2.36,1.76-2.81,0-3.1-1.89,1-2.94,1.94-5.88,2.93-8.81.84-2.49.53-6.37,5.24-4,3.61,1.8,4.36,4.1,1.93,7.39C324.22,696.27,323.7,697.25,323.12,698.19Z"/><path class="cls-80" d="M183.06,699.86q-3.85,12.23-7.73,24.44l-2.25-.77c1.57-9.26,3.2-18.5,8.32-26.76C184.13,696.63,183.44,698.33,183.06,699.86Z"/><path class="cls-81" d="M285.15,691.41c.59,1-.35,2.82,1.49,3.24,8.15,1.86,8.34,2.23,4.92,9.93-.26.6-.6,1.18-.9,1.77-.29-.33-.54-.89-.89-1C280.06,703.41,283.32,697.18,285.15,691.41Z"/><path class="cls-82" d="M371.56,607.94c.93,4-5.16,11.19-8.8,10-2.63-.83-4.87-3-4.63-5.91s3-3.37,5.17-2.42c3.18,1.4,4.29-3,7.08-2A2.87,2.87,0,0,0,371.56,607.94Z"/><path class="cls-83" d="M404.31,389.43c2.31,8.42,6.81,16.52,3.74,25.71-2.16-4.82-4.79-9.51-6.33-14.53C400.55,396.78,403.44,393.18,404.31,389.43Z"/><path class="cls-84" d="M435.16,698.18c-11.27-.81-22.11-4.85-33.55-5.58h21.31C427.78,692.74,433.76,690.45,435.16,698.18Z"/><path class="cls-85" d="M635.82,753.58c-.72-.81-4.36-.38-2.38-1.64,6.39-4.08,12.49-10.34,21.42-6.89A45.88,45.88,0,0,1,635.82,753.58Z"/><path class="cls-86" d="M423.45,509.65c4.12.85,7.75,2.08,8.3,6.69.2,1.72-1.38,3.39-3,2.56-3.39-1.74-9.17-.42-9.38-6.56C419.27,509.21,421.85,510,423.45,509.65Z"/><path class="cls-87" d="M426.84,722.32c3.55-4.85,7.85-2.33,12-1.23l3,8.1c-2.32,2-4.65,2-7,0,2.25-2.59,1.78-4.41-1.58-5.32C431.16,723.32,429,722.84,426.84,722.32Z"/><path class="cls-88" d="M183.92,532.1c2.66-1,5.55-3,6.87,1.63.09,2.82,1.94,5.43,1.11,8.39C181.91,539.91,181,538.72,183.92,532.1Z"/><path class="cls-89" d="M290.91,571.25c3.72,9.64,7.31,19.3,3.84,29.87A114.08,114.08,0,0,1,290.91,571.25Z"/><path class="cls-90" d="M464.72,703.61l-1.27,1.22c-4.9-7.4-7.57-15.31-5.6-24.29l2.58,1.65C464,688.91,464.61,696.2,464.72,703.61Z"/><path class="cls-42" d="M218.05,447.37c1.29-1.45,3.12-2.68,2.35-5.05-.88-2.74-3.32-1.74-5.08-1.82-4.87-.21-9.75-.09-14.61-.11,6-2.46,12.33-.82,18.49-.88,2.48,0,4.21,9.82,1.9,12.49a22.12,22.12,0,0,0-4.7,10.17c-.46-1-.91-2-1.36-3,0-1.18,0-2.35,0-3.53C214.16,452.18,218.09,450.49,218.05,447.37Z"/><path class="cls-91" d="M426.75,492.08c5.4-.6,8.23,3.88,7.16,7.09-1.26,3.78-6.19,2.95-9.8,1.05C423.86,497.14,424.1,494.22,426.75,492.08Z"/><path class="cls-92" d="M448.78,633.6a2,2,0,0,0,1-.15c.86,9.6.84,19.39,5.71,28.18,0,1.16-.14,2.23-1.4,2.74C447,658.21,444.19,641.92,448.78,633.6Z"/><path class="cls-93" d="M57.33,672.69l-2.55,1.25q5.49-13.74,11-27.46C65.92,656.29,59.76,663.84,57.33,672.69Z"/><path class="cls-94" d="M423,431.37c-3.51-1.58-5.41-5-8.44-7.2l9.45-2.58,1.34,1.41C421.75,425,427.13,429.53,423,431.37Z"/><path class="cls-95" d="M381.3,692.6c-.57,2.25-1.13,4.5-3.21,5.92a43.86,43.86,0,0,1-11.89-3.23c1.72-2.28,5.06-.13,6.78-2.45A21.57,21.57,0,0,1,381.3,692.6Z"/><path class="cls-96" d="M413.23,516.54,399,511.43C404.93,510.22,410.67,507.14,413.23,516.54Z"/><path class="cls-97" d="M192.49,387.91c2.57-2.33.47-5.35,1.17-8,2.81,5.6,3.78,11.6,4.57,19.07C193.7,395.51,193.81,391.35,192.49,387.91Z"/><path class="cls-98" d="M289.21,708.73c-1,5.15-4.8,7-9.27,8.21C279.11,709.77,283.68,708.71,289.21,708.73Z"/><path class="cls-99" d="M89.18,687.66c.71-7,5.54-11.63,9.23-16.95C97,677.26,93.19,682.52,89.18,687.66Z"/><path class="cls-100" d="M483.57,735.82c1.54,2.71,3.14,5.39,4.61,8.14,1.58,2.95.22,4.13-2.73,4.21C482.55,744.4,482.86,740.14,483.57,735.82Z"/><path class="cls-101" d="M218.05,447.37c3.3,4.29-2.44,5.33-3,8.25-2.12-3.54-6.46-3.17-9.36-5.32C210.1,450.46,214.62,451.22,218.05,447.37Z"/><path class="cls-102" d="M471.26,737.46a22.59,22.59,0,0,1,1.17,3c.65,2.65,1,5.92-2.14,6.62-4.05.92-4.23-2.55-4.25-5.51C469.52,742.4,469.42,738.68,471.26,737.46Z"/><path class="cls-103" d="M29.78,726c-1.18-7.53.9-12.17,5.58-16.8A52,52,0,0,1,29.78,726Z"/><path class="cls-104" d="M498.51,735.91c-.75,1.08-1.49,2.16-2.25,3.23-1,1.39-.39,4.74-3.22,3.65-1.4-.54-2.62-3.11-2.83-4.89-.4-3.46,3.12-.79,4.23-2.2Z"/><path class="cls-105" d="M426.75,492.08a19,19,0,0,1-2.64,8.14c-2.57-1.3-4.52-3.32-3.63-6.23C421.43,490.86,424.47,492.19,426.75,492.08Z"/><path class="cls-106" d="M183.06,699.86c-.35-1.13-.12-2.59-1.66-3.09q3.33-6.81,6.68-13.62c.47,1,.1,2.31,1.41,2.84Q186.28,692.92,183.06,699.86Z"/><path class="cls-107" d="M421.44,342.23l-.56.08-.57-.05c-2.34-2.82-5.29-1.05-8-1.06-.62-1.43-2-1.6-3.26-1.9a32.94,32.94,0,0,1,3.26-2.17C420.44,333,420.56,333,421.44,342.23Z"/><path class="cls-108" d="M26.45,767l1.33-2.75c4.33-3,8.25-1.12,12.16,1A1,1,0,0,0,40,766c1.09,1.16,3.2.68,3.93,2.42Z"/><path class="cls-109" d="M478.23,709c5.43.48,2.12,4.22,2.46,6.59l-2.45,4.27C476.67,716.21,476.17,712.59,478.23,709Z"/><path class="cls-110" d="M219.69,306.47c-.6.84.15,4.08-2.17,1.88A11.72,11.72,0,0,1,213.85,297C216.31,299.85,218.57,302.81,219.69,306.47Z"/><path class="cls-111" d="M446.41,576.61c2-2.38.53-7,4.65-7.63,1-.16,3.19.62,2.94,2C453.32,574.85,449.43,575.19,446.41,576.61Z"/><path class="cls-112" d="M609.11,776.59c1.74,2.25,4.82,0,6.94,2.19-6.77,1.4-13-2.24-19.51-.85,1.57-2.28,4-.91,5.82-1.76Z"/><path class="cls-50" d="M324.42,642.9c1.76-2.2,3.28-5,6.84-2.68.32,3.77,3.19,2.48,5.31,2.67C332.52,646.87,328.47,643.44,324.42,642.9Z"/><path class="cls-113" d="M365.73,324c1.57,6.13-1.1,11.38-1.51,16.83C363.53,335.29,362.61,329.74,365.73,324Z"/><path class="cls-108" d="M165.49,354.33c-1.4.24-2.58,0-3.12-1.52,2.4-2.24.35-5.41,1.66-7.87.67-.69.95-2.13,2.41-1.21C168.76,347.5,167.33,350.93,165.49,354.33Z"/><path class="cls-114" d="M166.44,343.73,164,344.94c1.26-6.21,4.41-11.11,10.71-15C172.89,335.75,166.8,338.11,166.44,343.73Z"/><path class="cls-115" d="M341.84,481.31c-1.06-1.33-1.76-3.13-3.93-3a5.7,5.7,0,0,1,0-5.24c1.81-.66,4.85,3.41,5.54-1.47L346,475.8l.08-.1C341.21,474.92,342.25,478.67,341.84,481.31Z"/><path class="cls-40" d="M213.9,617.24c2.16,3.78,1.77,8.12,2.71,12.18C211.15,626.37,213.51,621.59,213.9,617.24Z"/><path class="cls-116" d="M172.07,311.19l-2.9-2.86a18.11,18.11,0,0,1,3.87-7.5C174,304.75,172.08,307.91,172.07,311.19Z"/><path class="cls-117" d="M292,490.84c1.65-2.77,4.42-1.28,6.67-1.74C297.25,492.63,296,496.87,292,490.84Z"/><path class="cls-118" d="M300,555c.66,1.29,2.8,1.17,2.87,3-3.47-2.06-5.89,4.24-9.49,1.19l.11.12A11.3,11.3,0,0,1,300,555Z"/><path class="cls-119" d="M432.29,686.2h-6.66c-.72-2.81,1.53-3.15,2.68-4.26C430.07,683,431.76,684,432.29,686.2Z"/><path class="cls-120" d="M447.61,506.77c-.71-2.66-.05-4.51,1.51-5.84.62-.52,1.66.29,1.83,1.26C451.38,504.56,450.17,505.91,447.61,506.77Z"/><path class="cls-121" d="M341.86,544.4c.57-2,1.09-4,2.67-5.48.81.6,2.41,1.53,2.32,1.75C345.94,542.81,344.45,544.41,341.86,544.4Z"/><path class="cls-122" d="M351.14,514.92c-2.81,1.18-2.63-1.38-3-2.68-.75-2.6,1.56-2.45,3.09-2.92C352.15,511.2,351.75,513.06,351.14,514.92Z"/><path class="cls-123" d="M427,791.13c-18.71,1.44-37.4,3.34-56.19,2,16.55-2,33.07-4.34,49.81-3.21C422.79,790.07,425.13,789.35,427,791.13Z"/><path class="cls-124" d="M60.29,793.84c-6.36,6.09-12,.46-17.86-1.12,6-3.17,12.4-1.24,18.61-1.28C62.28,791.43,60.29,792.91,60.29,793.84Z"/><path class="cls-125" d="M526.53,786.09l-3.94-.32c5.78-5.3,8.93-5.54,14.4-.39Z"/><path class="cls-126" d="M116,792.43c-4,2.29-8,1.36-12,.53C107.88,790.3,112,791.06,116,792.43Z"/><path class="cls-127" d="M646.59,795.4c.32-2.22,1.69-3,3.77-2.65A35.13,35.13,0,0,1,660,795.4H646.59Z"/><path class="cls-128" d="M39.94,765.27c-4.22,1.65-8-2.19-12.16-1-6.75,1.14-12.93-1.81-19.33-2.91-7-1.19-13.53-1.22-19.82,2.31-2.84-5.49-.59-7.33,5-8.17,9-1.35,17.38,1.51,26.07,2.16,4.92,2.72,10.57.1,15.7,2.26C38.12,761.07,40.42,761.75,39.94,765.27Z"/><path class="cls-129" d="M22.77,670.71a3.84,3.84,0,0,1-.18-2.11c.29-1.37,1.08-2.53,2.67-2.18,1.36.3,1.24,1.65,1.09,2.69S25.52,671.13,22.77,670.71Z"/><path class="cls-11" d="M95.36,804.55c2.9.29,5.81.54,8.71.89,1.36.16,3.51.49,3.66-.69.83-6.6,5.72-4.09,9-3.92,59.52,3.26,119,.61,178.52-.71,34.12-.76,68.25-1,102.35-2.06,29.36-.93,58.83-1,88.05-5,2.81-.38,5.77-.93,8.86.17a33.66,33.66,0,0,0-1,17.92c.87,3.82-1,3.74-3.85,4.18-11.22,1.75-22.47,1-33.58-.13-20.7-2.07-41.31,1.35-61.9.26-27.37-1.46-54.12,3.23-81.07,6.26-8.31.94-16.68,0-24.84-1.23-20-3.06-40-5.7-60-8.31a142.92,142.92,0,0,0-31.6-.67c-18.46,1.72-36.81.31-55.18-.49-17.48-.77-35-1.07-52.35-3.61a9.57,9.57,0,0,1-2.3-1C88.84,801.71,92.44,804.74,95.36,804.55Z"/><path class="cls-130" d="M252.94,820.93c1.8,2.13,5.22,1.46,6.81,4-5.49,0-11,0-16.46.07-1.9,0-3.28-.36-4-2.52s0-2.84,1.82-3.22C245.09,819.64,249.14,819.38,252.94,820.93Z"/><path class="cls-131" d="M95.36,804.55c-2.71,1.18-6.21-1.32-8.51,1.79-8-1.73-15.89-3.68-23.26-7.69C74.37,799.72,84.67,803.27,95.36,804.55Z"/><path class="cls-132" d="M62.86,805.08c-9.52,1.54-17.53-2.79-25.68-6.56l1.7-.82Z"/><path class="cls-133" d="M534.55,797c-4,4.52,3,4.9,3,7.92a37.76,37.76,0,0,1-4.66-2.5c-1.68-1.19-5.1-1.65-4.29-4.21C529.34,795.85,532.37,796.76,534.55,797Z"/><path class="cls-134" d="M625.53,685.88c13.18,3.16,26.66,5.48,38.68,12.17a16.14,16.14,0,0,1,8.07,11.08c.47,2.18-1.51,5.86,2,6.17s3.05-3.66,3.81-6c.63,5.19,5.83,5.44,8.77,8.12-7.51,1.45-15.13.52-22.68,1-2.44.17-3.49-.66-3.73-3.34-1-11.53-7.89-17.93-18.76-20.73-13.44-3.47-27.13-5.34-40.9-6.76-.25-1.91,1-2.21,2.43-2.16C610.65,685.65,618.11,684.8,625.53,685.88Z"/><path class="cls-135" d="M595.6,722.31c-1.87,5.16-5.55,2.54-9.76,2.41,3.37-3.53,6.95-1.38,9.79-2.4Z"/><path class="cls-136" d="M282.67,330.08c4.76-.08,10,.47,9.16-7,3-1.84,2.66.33,2.78,2.19.43,6.76,4.82,10.8,10,14.26,1.37.92,3.08,1.32,4.25-.19s.1-2.88-1.13-4a53.24,53.24,0,0,1-5.81-5.51c-2-2.5-.05-8.49,2.95-8.9,8.4-1.15,16.85-2,25.14-2.89,1.76,3.26-7.78,5-.9,8.15,2.89,1.32,10,6.71,6.91-4-.27-.94-.2-3.92,2.41-4.06,2.41-.13,2.19,1.85,2.11,3.34-.31,5.56,5.5,8.49,6.11,13.73-11.42.81-13.64,3.93-12,16.4.28,2.07-.26,4-2.74,3.18-5.05-1.76-9.35.31-13.46,2.42-5,2.56-8.64,1.75-11.44-3.05a7,7,0,0,1-3.64-3.74c-3.36-6.65-9-10.84-15.19-14.52C285.89,334.52,282.65,333.76,282.67,330.08Z"/><path class="cls-137" d="M327.2,307l-.06,2.95-37.2,4.68c-4.06.52-3-2.49-2.83-4.41.8-7.35,4-13.66,8.77-19.25,2.48-2.9,4.91-5.86,5.23-10.1,3.37,6.83,4.08,14.25,5,21.62.23,1.78.39,3.56.61,5.34.19,1.47,1,2.71,2.49,2.62s2.08-1.55,2.08-3c0-3.8-.1-7.61-.16-11.41a1.85,1.85,0,0,1,1.76.59c.9,1.35,1,2.92,1.14,4.47.3,2.5-.67,5.74,2.94,6.63,3.42.84,6.14-.25,7.63-3.68a3,3,0,0,1,1.38-1.4C326.39,304.1,326.8,305.54,327.2,307Z"/><path class="cls-138" d="M326,302.66c-.7,6.33-6.46,9.62-11.93,6.9-1.79-.88-1.7-2.39-1.73-3.89-.05-3.08,0-6.16,0-9.24,1.4-1.67,3.31.06,5.13-.84-1.59-3.44-4.31-1.67-6.59-1.58-1.48-3-1.72-6.15-2.22-11C316,289.48,326.27,291.17,326,302.66Z"/><path class="cls-9" d="M282.67,330.08c2.9,2,5.64,4.29,8.74,5.91,7.65,4,12.39,10.39,15.6,18.15-.92,1.71-2.54,1.52-4.09,1.54-4.28-8.89-12.14-13.9-20.09-18.92-2.17-1.37-4.91-2.39-5.88-5.22C278.33,329,280.56,329.76,282.67,330.08Z"/><path class="cls-139" d="M279.09,317.36a54.16,54.16,0,0,0-21,13.8C258,323.8,268.82,316.85,279.09,317.36Z"/><path class="cls-140" d="M294,284.15c-5.59,7.84-11,15.61-12,25.56C279.08,297.89,286.68,291,294,284.15Z"/><path class="cls-141" d="M310.84,294c1.67-3.27,4-3.9,6.89-1.6,1.76,1.41,3.6,3.41,2.31,5.6-1.76,3-3.62.51-5.36-.65a11,11,0,0,0-2.38-.93,1.59,1.59,0,0,0-1.16-.38Z"/><path class="cls-142" d="M631.82,713.12c5-1,10.53-.37,14.87-4,1.76-1.28.82-3.93,2.65-5.18,1.83.71,2.62,2.35,3.47,3.91,4.73,8.67,3.47,11-6.37,10.71-11.13-.3-22.32.75-33.38-1.3l3.15-.54C621.48,715.8,626.84,715.3,631.82,713.12Z"/><path class="cls-143" d="M625.53,685.88c-6.2.06-12.41.07-18.62.2-2.12,0-4.51-.71-6.13,1.51l-8.73.07c-1.34,0-3.24-.48-3.95.21-7.37,7.18-15.69,2.43-23.64,2.12-2.93-1.23-6-.26-9-.61-1.3-.15-3.32.67-3.13-2l3.65-.28c4.57-1.16,9.32.44,13.87-1,16.36-.84,32.7-2.58,49.11-1.29C621.18,685.06,623.49,684.58,625.53,685.88Z"/><path class="cls-144" d="M649.34,704c-.16,2.1.83,4.78-2.65,5.18-.5-4-3.11-5-6.83-5.65-5.43-.93-11.62-.92-14.69-7C633.51,698,642.27,698.27,649.34,704Z"/><path class="cls-145" d="M507.61,686.25c2.61-1.18,5.8.92,8.21-1.43l29.75,2.58c.44.27.59.54.45.82s-.28.42-.43.42C532.88,688.68,520.13,689.32,507.61,686.25Z"/><path class="cls-146" d="M545.59,688.64c0-.41,0-.83,0-1.24l6.77,0c3.58,3,8.49-.23,12.12,2.56A69.52,69.52,0,0,1,545.59,688.64Z"/><path class="cls-147" d="M214.07,325.2c2.21.32,4.61.73,5.11,3.41.45,2.37-1.21,3-3.32,3-.82,0-2.74-.76-1.71,1.34.91,1.85,1.57,3.5-1,4.21-3.25.91-4.54-2.39-6.57-3.81s-.11-3.24,1.2-4.4C209.62,327.36,211.29,325.4,214.07,325.2Z"/><path class="cls-148" d="M412.3,341.2c2.83-.86,6.54-8.33,8,1.06-.77.76-2,1.4-2.23,2.3-.75,2.61-.73,5.46-4.92,3.31C409.23,345.85,410.11,343.74,412.3,341.2Z"/><path class="cls-149" d="M396.12,353.19c0,1.51-.66,2.59-2.27,2.73a2.36,2.36,0,0,1-2.78-2.22c-.13-1.71.73-3.09,2.66-3.11C395.34,350.57,396,351.69,396.12,353.19Z"/><path class="cls-146" d="M569.86,686.18c-4.5,2.1-9.22,1-13.87,1C560.52,685.41,565.2,685.94,569.86,686.18Z"/><path class="cls-150" d="M328.1,284.24a11.36,11.36,0,0,1-9.11-5.1C322.61,279.8,326.07,280.75,328.1,284.24Z"/><path class="cls-151" d="M232.52,761.75c-17.76-.38-35.43,1.35-53.13,1.93-27.61.9-55.08,4.74-82.77,3.61-8.3-.33-16.62-.55-24.9.47-3,.36-5.4.06-6.44-3.23,1.43-2.24,3.87-1.4,5.87-1.92a5.66,5.66,0,0,1,1,.09c15.16-1,30.33-.15,45.49-.47,2.42-.05,4.91.58,7.25-.59,8.93-.45,17.8-2.11,26.79-1.66,13.19.63,26.24-1.31,39.34-2.22,2.11-2.54,5-2,7.79-2a7.35,7.35,0,0,1,4.37,1.77c7.57-.82,15.29,1,22.79-1.21,2.38-1.56,2.86-4.22,3.84-6.6.09-6.84-.08-13.7,1.58-20.41-.46-6.84-4-13.27-2.68-20.34.67-12.62,1.55-25.23.09-38.16-3.6,1.41-8.15,1.11-12,3.53-1.64,1-3.05.39-3.89-1.26a2.49,2.49,0,0,1,.92-3.54c7.3-3,6.76-11.09,10.78-16.32,5-6.49,8-14.45,12-21.73a39.66,39.66,0,0,1,3.63-5.65c1.51-1.93,3.34-4.3,6.1-2.55,2.31,1.48,1.22,4,.6,6.15-4.11,14.13-5.71,28.94-11.59,42.61-1.63,3.81-1.38,7.85-.44,11.9a29,29,0,0,1,.12,12c-1.82,9.83-1.52,13,2.53,23.27,5-3.24,6.1-8.11,5.85-13.38s1.64-7.08,6.73-4.75c3,1.37,6,.88,9.21.24,5.19-1,9.3.88,11.52,5.9s.39,8.84-3.55,11.81a45.08,45.08,0,0,1-8.65,5.12c-6.31,2.82-7.76,5.92-4.31,12.08,2.59,4.63,1.09,5.17-3.4,5.16-6.22,0-10.31-3.43-14.54-8.54-1.65,7.39-1.06,13.78-.77,20.16.08,1.89.8,2.9,2.78,3,1.55.08,3.48.15,3.39,2.31s-2.2,2.58-4,2.89S234.3,761.57,232.52,761.75Z"/><path class="cls-151" d="M203.19,757.48l-4.6-.15c-1.73-1.31-4.14-2.09-3.86-5-4-4.4-5.22-10.28-8.36-15.15-1.72-2.67-1-5.59-.05-8.43,3-8.92,6-17.86,9-26.78.89-2.65,3.09-5.14.54-8.1-.39-.45-.19-2.26.14-2.38,6.21-2.36,6.13-8.89,9-13.42,1.16-1.83,2.26-3.77,4.65-2.55,2.7,1.38,1,3.4.18,5.17-.09.2-.21.39-.3.6-6.12,12.95-3.79,22.25,6.82,32.72,4.61,4.56,3.69,12.14,6.95,17.73.22.39-.49,1.75-1.1,2.12-1.15.71-2.24-.15-2.89-1-2.28-3-4.42-6.1-6.62-9.17-1.9-.32-2.63-1.84-3.39-3.33a58.48,58.48,0,0,1-7-16.15c-3.17,8.24-6,15.95-8.5,23.8-1.34,4.29-1.1,8,3.3,10.34,3.47,1.87,4.45,5.38,5.8,8.67a4.44,4.44,0,0,1-1.16,3.79C202.22,753.05,202.7,755.26,203.19,757.48Z"/><path class="cls-152" d="M201.75,746.68c-2.78-2.16-2.85-6.67-7.7-7.54-1.65-.29-4.12-5-2.73-8.86,3.37-9.46,6.52-19,10.26-29.95l9.12,19.41c-1.9,6.36,1.87,11.1,4.61,16.13,1.25.82,3.58,1.09,3.4,2.74-.61,5.72,1.38,11,2.4,16.37,0,.13-.21.45-.24.44-.58-.19-1.14-.42-1.7-.64C214.3,750.06,207.9,748.63,201.75,746.68Z"/><path class="cls-153" d="M300.73,743.22c-1.57,3.93,1.24,5,3.94,6.36,2.32,1.16,5.38,2.07,4.73,5.58s-3.13,5.19-6.37,6.1a17.23,17.23,0,0,1-17.79-6.11,5.53,5.53,0,0,1-.92-5c1.42-5.44,5.73-8.73,9.53-12.3,1.32-1.23,3.44-.66,5,.31C300.84,739.31,301.67,741,300.73,743.22Z"/><path class="cls-154" d="M269.17,614.58c.81,1.43,3.45,2,2.37,4.26s-3.12,1.52-4.7.92c-3.55-1.33-6.93-.64-10.49,0-12.92,2.16-16.2-6.5-17-16-.13-1.58,0-3.4,2-3.71,2.17-.33,3.19,1.13,3.46,3.16.48,3.72.47,7.62,4,10.15,3-.63,6-1.35,9.1-1.79C261.9,611.58,266.2,610.65,269.17,614.58Z"/><path class="cls-155" d="M270.34,610.68c6.1-9.13,5.06-14.29-4-20-2.85-1.79-5.88-3.42-7.46-6.59-.83-1.69-1.06-3.68.65-4.92,2.11-1.53,3.23.23,4.14,1.84,1.5,2.67,3.91,4.21,6.5,5.67,8.67,4.88,11.46,14.43,7.31,23.73-1.53,3.41-3.64,4.93-7.32,4.07A2.91,2.91,0,0,1,270.34,610.68Z"/><path class="cls-12" d="M269.36,664.23l6.53.12c6,2.74,7.09,6.24,3.74,12.56-.82,1.57-1.67,3.58-3.94,2.62-1.78-.75-1.67-2.73-1-4.13,3.12-6.88-.24-6.78-5.61-5.87-4.38.75-8.95.48-13.44.55-1.75,0-3.9.18-3.94-2.43,0-2.25,1.64-3.13,3.59-3.19C260,664.3,264.66,664.3,269.36,664.23Z"/><path class="cls-156" d="M266.51,653.39c0,1.75.48,3.85-2,4.17-2.34.29-3.24-1.49-3.12-3.38.28-4.5-3.56-5.73-6-8.09-1.63-1.57-3.71-3.58-2.09-5.67,2.24-2.88,3.73.44,5.26,1.58C264.79,646.66,266.35,649,266.51,653.39Z"/><path class="cls-151" d="M201.75,746.68c7.33-.59,14.42-.65,17.42,8.1-1.72,1.61-3.44.06-5.16,0a17.85,17.85,0,0,1-6.71-3.74l-5.57-.22C201.73,749.45,201.74,748.06,201.75,746.68Z"/><path class="cls-157" d="M270.34,610.68c-.07,1.28-.15,2.56-.22,3.84l-.49-.24-.46.3c-3.9-1.76-8.13-.56-12.15-1.34-2.28-1.32-2.76-3.07-1.31-5.31Z"/><path class="cls-158" d="M228.72,708.92c1.65,6.68,4.76,13.16,2.68,20.33-3.9-5.34-3.94-11.84-5.35-17.92C225.56,709.21,226.85,708.65,228.72,708.92Z"/><path class="cls-159" d="M215.31,735.87c-5.3-2.58-5.16-8.51-7.67-12.8-1.16-2,1.24-2.89,3.06-3.33.66,1.33,1.33,2.65,2,4Z"/><path class="cls-160" d="M207.3,751.05c3.41-.86,4.89,1.75,6.71,3.74-1.5,2-3.7,1.16-5.59,1.21-1.41,0-3.32.81-4-1.27C203.45,752.09,206.22,752.2,207.3,751.05Z"/><path class="cls-161" d="M273.14,642.77c-1,2.3-4.16.6-5.27,2.75-2.11-2.92-9.76-2.45-5.63-9.19C264.56,640.7,267.68,643.71,273.14,642.77Z"/><path class="cls-162" d="M194.73,752.37l3.86,5-7.56.43C189.33,756.08,190.55,754.31,194.73,752.37Z"/><path class="cls-163" d="M255.71,607.93c-.46,2,.38,3.66,1.31,5.31-2.74.66-5.46,2.8-8.24.08C248.85,608.65,254.28,610.85,255.71,607.93Z"/><path class="cls-164" d="M229.82,749.67c.54,3.26,3.44,7.89-3.84,6.6C225.46,753,226.49,750.69,229.82,749.67Z"/><path class="cls-165" d="M337.89,473c1.52,1.74,1.61,3.49,0,5.24-3.54,1.43-5.09-2.75-8.08-2.87-.56-.33-1.17-1-1.67-.94C315,476.4,310.5,466.58,304.32,458c-7.57-10.49-12-22.76-20.78-32.72-5.68-6.46-8.28-15.74-11.86-23.92-2.42-5.52-4-11.33-6.85-16.76-3.73-7.15,2.71-22.53,10.09-25.51,1.71-.7,3.65-1.31,4.75.73s-.75,3-2.22,4.11c-8.36,6.4-9.84,13.77-5.17,23.4,3.13,6.45,4.57,13.53,7.79,20,9,18.21,21.73,34.17,31.44,52,3.43,6.3,8.45,12.31,17.58,10.74C332.3,469.53,335,471.79,337.89,473Z"/><path class="cls-166" d="M289.7,354.85a3.3,3.3,0,0,1,2.4,5.09,137.81,137.81,0,0,1-8.56,12.71,2.25,2.25,0,0,1-3.05.45,2.15,2.15,0,0,1-1-2.87c2.87-5,5.9-9.92,8.92-14.83C288.58,355.1,289.18,355.06,289.7,354.85Z"/><path class="cls-167" d="M272.06,494c-4.26-.86-6.5-3.35-9.14-5.07-.89-.59-1.66-1.58-.63-2.74a1.91,1.91,0,0,1,2.92-.15C267.54,488.2,270.15,490.15,272.06,494Z"/><path class="cls-168" d="M127.72,747.57c-2-1.57-6.49.79-6.89-3.22-.51-5.17,6.07-3.71,7.71-7.34-1.71-2.53-4.82-3-7.08-4.66-1.47-1.1-3.07-2.2-2.72-4.25s2.07-2.86,4-3.06c5.34-.57,10.7-1.1,16-1.53,1.88-.15,3.77.25,3.85,2.66s-1.72,3-3.62,3c-2.87.1-5.74,0-10.25,0,4.47,4,9.2,6.92,4.46,12.17a1.11,1.11,0,0,0,.11,1.08c9,8.4-2.14,8.65-5.05,12-1.16,1.35-3.59,2.76-5.14.26s.78-3.54,2.38-4.73C126.34,749.4,127.62,749.18,127.72,747.57Z"/><path class="cls-40" d="M124.9,761.64C118.42,764,111.66,763,105,763.06c-11,.1-21.91-.22-32.87-.36a57,57,0,0,1,20-1.3C103.07,762.35,114,761.27,124.9,761.64Z"/><path class="cls-153" d="M381.59,751.47c13.22,6.58,28.08,2.15,41.88,5.63.86.22,1.79.11,2.68.25,1.94.29,3.65,1.11,3.23,3.39-.35,1.87-2.05,2.16-3.74,2-19.71-2.39-39.71-2.42-59.07-7.53-2.22-.59-4.87-.93-4.74-3.78.15-3.29,3.08-3.21,5.57-3.5,2.88-.33,5.74-.87,9.14-1.4-2.4-2.75-5.56-2.18-8.05-3.2-2.27-.93-5-1.16-5.58-4.15-.64-3.37,3.2-3,4.69-5.19-5.32-.71-10.48-.05-15.39-1.61-2.26-.71-4.71-1.42-3.79-4.39,1-3.26,3.23-1.58,5.43-1,10,2.67,20.56,1.14,30.69,3.32,2.73.58,6.74-.22,7,3.57s-3.93,3.52-6.49,4.47c-1.26.46-2.73.43-3.39,2.37,1.41,2.58,6.8.91,7,4.91C388.83,750.21,383.4,748.93,381.59,751.47Z"/><path class="cls-169" d="M139.68,396.57c-.3.39-.68,1.44-1.34,1.67-3.85,1.33-6,4.35-8.18,7.5a2.12,2.12,0,0,1-2.88.88,3.29,3.29,0,0,1-1.32-2.07c-.7-4.14,7.47-12.07,11.44-11.2C138.88,393.68,139.73,394.52,139.68,396.57Z"/><path class="cls-170" d="M186,426.11c-3.55.1-6.11-.9-6-4.7.09-3.52,2.25-6.36,5.57-6.25,5.16.17.68,6.41,4.43,8.63C191,424.41,187.61,425.92,186,426.11Z"/><path class="cls-166" d="M350.55,394.93c-1.56-.07-2.62-.32-3-1.61a2.53,2.53,0,0,1,1.11-2.91,31.3,31.3,0,0,1,13.58-5.19,2.35,2.35,0,0,1,1.57,4.36C359.31,391.49,354.75,393.25,350.55,394.93Z"/><path class="cls-171" d="M631.82,713.12c-4.3,5.1-10,4-15.61,3.61A26,26,0,0,1,631.82,713.12Z"/><path class="cls-172" d="M448.78,633.6c-2.66,11,.92,20.95,5.27,30.77-.18,1.47.35,3.37-1.69,3.89s-2.76-1.24-3.28-2.62c-3.7-9.8-7.07-19.68-5.84-30.44.24-2.12.55-3.94,3.23-4.24C448.69,630.71,449.13,631.74,448.78,633.6Z"/><path class="cls-173" d="M464.72,703.61c-3.59-6.71-3.24-14.21-4.29-21.42.28-1.69-.06-3.94,2.5-4,2.19,0,3.1,1.63,3.1,3.6,0,6.94.34,13.79,3.72,20.11a2.43,2.43,0,0,1-.5,3.08C467.13,706.78,466.31,703.85,464.72,703.61Z"/><path class="cls-174" d="M352.72,648.31c-1.46,3-3,5.94-5.75,8-1.11.83-2.41,1.3-3.64.2a2.55,2.55,0,0,1-.19-3.63c1.84-2.49,3.57-5.2,5.9-7.18,3.47-3,3.95-.45,3.7,2.57Z"/><path class="cls-175" d="M208.57,307.14c0,1.9,1.13,4.49-1.46,5.26s-3.24-1.91-4-3.62c-3.09-6.56-6.6-12.78-12.61-17.16-1.63-1.19-2-2.88-2.17-4.7,2.89-2.42,4.75-.22,6.84,1.43C201.45,293.31,204.65,300.48,208.57,307.14Z"/><path class="cls-176" d="M185.2,288.45c3.25,1.62,3,4.73,3.08,7.59.13,4.91.19,9.84,0,14.75-.13,3.69-1.56,5.73-5.45,3.09-.11-6.7-.18-13.4-.33-20.1C182.48,291.48,182.25,289.2,185.2,288.45Z"/><path class="cls-58" d="M266.12,710.53c-2.23,4.46-5.61,7.65-10.36,8.9s-9.09,2.58-8.61,9c.11,1.38-.84,3.42-3,2.39-2.39-1.16-3.81-3-2.55-6,1.58-3.73,4.94-6.38,6-10.4.69-2.5.14-6.46,2.58-7.11,4-1.07,8.41-.71,12.63-.55C264.79,706.8,265.78,708.56,266.12,710.53Z"/><path class="cls-177" d="M230.71,666.6c-4-2.48-5.21-4.61-2.37-8.76,3.46-5.06,5.79-10.89,8.86-16.88C238.2,648.38,236.57,654.63,230.71,666.6Z"/><path class="cls-178" d="M293.25,743.12c2.09,6,2.09,6,8.94,12-5.1,2.31-6.84,2-10.13-1.2C287.53,749.51,293,746.73,293.25,743.12Z"/></g></g></svg>