<svg id="firemen_Image" data-name="firemen Image" xmlns="http://www.w3.org/2000/svg" viewBox="0 0 600 393.65"><defs><style>.cls-1{fill:#010101;}.cls-2{fill:#e7d3a7;}.cls-3{fill:#afdbfa;}.cls-4{fill:#020202;}.cls-5{fill:#65789f;}.cls-6{fill:#e6d2a7;}.cls-7{fill:#030303;}.cls-8{fill:#e6bab4;}.cls-9{fill:#e5d1a6;}.cls-10{fill:#e5b9b3;}.cls-11{fill:#040403;}.cls-12{fill:#040404;}.cls-13{fill:#65779e;}.cls-14{fill:#acd6f4;}.cls-15{fill:#e0b5b0;}.cls-16{fill:#0c0809;}.cls-17{fill:#a6cee9;}.cls-18{fill:#e95b62;}.cls-19{fill:#cbbb99;}.cls-20{fill:#0b0b0b;}.cls-21{fill:#0e0e0e;}.cls-22{fill:#121212;}.cls-23{fill:#101214;}.cls-24{fill:#d3b6b2;}.cls-25{fill:#181414;}.cls-26{fill:#101315;}.cls-27{fill:#232323;}.cls-28{fill:#cacaca;}.cls-29{fill:#686a6e;}.cls-30{fill:#c7c7c7;}.cls-31{fill:#1f1f1f;}.cls-32{fill:#d4c5a4;}.cls-33{fill:#c9bb9c;}.cls-34{fill:#455065;}.cls-35{fill:#66789f;}.cls-36{fill:#66799f;}.cls-37{fill:#fefefe;}.cls-38{fill:#444f65;}.cls-39{fill:#afdbf9;}.cls-40{fill:#fcfcfc;}.cls-41{fill:#e4d1a6;}.cls-42{fill:#444f64;}.cls-43{fill:#afd9f7;}.cls-44{fill:#63769c;}.cls-45{fill:#444e64;}.cls-46{fill:#f45f67;}.cls-47{fill:#64779d;}.cls-48{fill:#efeff0;}.cls-49{fill:#fafbfb;}.cls-50{fill:#e2b7b2;}.cls-51{fill:#e2cfa6;}.cls-52{fill:#f5f6f6;}.cls-53{fill:#66789c;}.cls-54{fill:#f5f5f5;}.cls-55{fill:#434e63;}.cls-56{fill:#f45e66;}.cls-57{fill:#f05c64;}.cls-58{fill:#5a6a8d;}.cls-59{fill:#0e0f12;}.cls-60{fill:#ee5c63;}.cls-61{fill:#404a5e;}.cls-62{fill:#d9c69f;}.cls-63{fill:#e0cca2;}.cls-64{fill:#070708;}.cls-65{fill:#edeeee;}.cls-66{fill:#ea5e65;}.cls-67{fill:#5d6f92;}.cls-68{fill:#a14045;}.cls-69{fill:#3c4659;}.cls-70{fill:#9f9274;}.cls-71{fill:#f4f5f6;}.cls-72{fill:#3e485b;}.cls-73{fill:#f3f3f4;}.cls-74{fill:#d7c59e;}.cls-75{fill:#f4f4f5;}.cls-76{fill:#d4d4d5;}.cls-77{fill:#add3ef;}.cls-78{fill:#eff0f2;}.cls-79{fill:#dddce1;}.cls-80{fill:#f3f6f8;}.cls-81{fill:#ececea;}.cls-82{fill:#c2c6cf;}.cls-83{fill:#e7e7e4;}.cls-84{fill:#5f7195;}.cls-85{fill:#444d5e;}.cls-86{fill:#c4c4c5;}.cls-87{fill:#424c60;}.cls-88{fill:#919292;}.cls-89{fill:#262b35;}.cls-90{fill:#e2e2e0;}.cls-91{fill:#e3e1dd;}.cls-92{fill:#384153;}.cls-93{fill:#63759d;}.cls-94{fill:#a6cce8;}.cls-95{fill:#2a303d;}.cls-96{fill:#e6ebef;}.cls-97{fill:#5c616e;}.cls-98{fill:#d6d7da;}.cls-99{fill:#bec5ca;}.cls-100{fill:#f3f7fa;}.cls-101{fill:#c8c9cc;}.cls-102{fill:#a9a9a9;}.cls-103{fill:#b99995;}.cls-104{fill:silver;}.cls-105{fill:#d6dadd;}.cls-106{fill:#e7d7d8;}.cls-107{fill:#66789e;}.cls-108{fill:#efece6;}.cls-109{fill:#3d3d3d;}.cls-110{fill:#707070;}.cls-111{fill:#394150;}.cls-112{fill:#b6464c;}.cls-113{fill:#404a5f;}.cls-114{fill:#b4b6ba;}.cls-115{fill:#f5f3ee;}.cls-116{fill:#586f7e;}.cls-117{fill:#43464d;}.cls-118{fill:#c7ba9e;}.cls-119{fill:#aac9da;}.cls-120{fill:#f2f1f0;}.cls-121{fill:#f9f7f2;}.cls-122{fill:#fdfdfc;}.cls-123{fill:#f5eee0;}.cls-124{fill:#080909;}.cls-125{fill:#f4fafd;}.cls-126{fill:#e6e4df;}.cls-127{fill:#96a4ae;}.cls-128{fill:#dedad1;}.cls-129{fill:#f2f0ed;}.cls-130{fill:#b2a98f;}.cls-131{fill:#e0cda3;}.cls-132{fill:#fbf9f6;}.cls-133{fill:#e3a097;}.cls-134{fill:#f55e66;}.cls-135{fill:#f46168;}.cls-136{fill:#ac454a;}.cls-137{fill:#953a3e;}.cls-138{fill:#feeff0;}.cls-139{fill:#dfcda5;}.cls-140{fill:#cbb993;}.cls-141{fill:#e6e8e9;}.cls-142{fill:#897e65;}.cls-143{fill:#9e9072;}.cls-144{fill:#100d0d;}.cls-145{fill:#161111;}.cls-146{fill:#292120;}.cls-147{fill:#bc8c8e;}.cls-148{fill:#020203;}.cls-149{fill:#aed9f7;}.cls-150{fill:#040405;}.cls-151{fill:#050506;}.cls-152{fill:#030405;}.cls-153{fill:#050607;}.cls-154{fill:#e2e3e5;}.cls-155{fill:#d6d7d9;}.cls-156{fill:#f1f5f8;}.cls-157{fill:#d7d7d7;}.cls-158{fill:#c4c5c8;}.cls-159{fill:#a8b7c2;}.cls-160{fill:#b7bac1;}.cls-161{fill:#c7c8cb;}.cls-162{fill:#020304;}.cls-163{fill:#f2f4f7;}.cls-164{fill:#515f7c;}.cls-165{fill:#060708;}.cls-166{fill:#f4f6f8;}.cls-167{fill:#090a0d;}.cls-168{fill:#f2f7fa;}.cls-169{fill:#070707;}.cls-170{fill:#080809;}.cls-171{fill:#edeef0;}.cls-172{fill:#0f0606;}.cls-173{fill:#100606;}.cls-174{fill:#3d4659;}.cls-175{fill:#e5e5e5;}</style></defs><title>graphic-firemen</title><path class="cls-1" d="M83.19,287.12c8-16,13-33.3,20.7-49.55-.21-.07-1-.3-1.71-.51-6.67-1.9-6.92-2.24-5.18-9.18a39.39,39.39,0,0,1,3.84-10c5.58-9.75,10-20,11.49-31.19.49-3.58,4-5.07,5.1-8.29,2-5.7,7.12-10,6.72-16.94-.11-2,2.37-4.21,3.66-6.33,1.81-.94,3-.22,3.42,1.57.55,2.45,2.39,3.53,4.24,4.78,8.39,5.74,17.48,10.49,24.62,18,3.71,3.92,12.62,1.29,14.17-4.23,1.49-5.34,4.71-10.36,3.4-16.37-.44-2,.93-4,1.14-6.06.26-2.57,1.74-3.88,4.21-3.17,2.75.79,2.29,2.79,1.29,4.71.53-.2.82-.89,1.37-1.28,1.07-.75,2.25-1.31,3.41-.41,1.33,1,1,2.45.48,3.77a19.22,19.22,0,0,1-2.21,3.49c-2.75,4-5.3,8.08-6.73,12.76a14,14,0,0,0,.45,9.41c1.55,4.4,2.94,9.41,1.57,14.45s-3,10.08-3,15.38c0,5.66,1.36,6.91,6.62,5.12,5.72-1.95,11.42-4,17.09-6.06,7.43-2.71,15.07-3,22.71-3.77,3.95-.4,7.93-.6,11.86-1.23,2.14-.16,3.91-2.93,6.37-.91,1,3.07-1.12,4.22-3.33,5.14-1.71.7-3.42,1.23-3.3,3.55-.19,5.88,1.44,11.55,2,17.33.7,3.7.29,7.44.39,11.16.05,1.79-.22,3.68.53,5.32,1.91,4.19.5,7.58-2.45,10.5a7.31,7.31,0,0,0-2,7.91c1.22,4.16,2.05,8.32,0,12.53a2,2,0,0,0,1.27,3,2.88,2.88,0,0,0,3.86-1.36A102.91,102.91,0,0,0,247.63,269c.63-1.36,1-2.9,2.36-3.82,2.09-.81,3.37.57,4.68,1.78,2.21,2.06,4.18,4.39,6.5,6.33,3.52,3,6.37,2.61,9-1.14,2.31-3.27,4.49-6.64,3.69-11a7.28,7.28,0,0,1,.22-1.13c.62-1.67.23-2.59-1.74-2.58-2.71,0-5.43-.16-8.1.56-1.6.06-3.2.12-3.34-2.12a4.11,4.11,0,0,1,2.08-2.57,9.73,9.73,0,0,1,5.93-1.2c5,.87,9.75-.17,14.44-1.68a2.57,2.57,0,0,1,3.24.91c1,2.45-.48,4.28-1.72,6.07a82,82,0,0,0-8.14,14.84c-1.69,4-1.15,4.61,3.18,4.59,11.31,0,22.62,0,33.93,0,5.13,0,5.4-.31,4.24-5.11A44.33,44.33,0,0,1,316.85,257c.38-4.07-.52-8-3.8-10.92a24.57,24.57,0,0,1-2.87-3.53c-2.77-3.7-2.74-7.84.54-12.87a7.88,7.88,0,0,1-5.28,1.9c-5.65,0-8.63,2.48-9.73,8.07-.76,3.86-1.79,7.52-5.19,10-5.43,1.34-10.36-.63-14.95-2.92-4.31-2.15-8.53-4.24-13.29-5.1a7.12,7.12,0,0,1-3.6-1.87c-1.62-1.64-1.3-3.49-.48-5.35a44.87,44.87,0,0,1,2.55-4.73c1.52-2.59,1.9-4.55-1.26-6.47a6.25,6.25,0,0,1-2.89-7.58,89.46,89.46,0,0,1,9-18.06,4.82,4.82,0,0,1,1.6-1.29c1.88-.57,3.1-1.47,1.79-3.64a11.44,11.44,0,0,1,.7-3.23c.82-2.8-.34-4.75-2.89-5.56-6.45-2-13-3.7-19-6.95-1.5-.81-2.65-.29-2.82,1.68-.25,3-.87,6-.35,9,.73,4.3-.69,8.73.85,13.08.58,1.64-1.09,2.64-2.58,3.24-1.75.58-3.32,1.6-5.06,2.19-.81.18-1.63.44-2.38-.19-.92-1.64-.22-3,1-4,1.8-1.58,1.82-3.18.65-5.1s-1.61-4.07.57-5.89c1.17-1,1.09-2.45,1.12-3.84.11-4.26-.31-8.54.51-12.79a4.23,4.23,0,0,0-1.93-4.28,43.12,43.12,0,0,1-5.22-4.7c-1.1-1.19-2.1-2-3.91-1.11a3.94,3.94,0,0,1-4.59-1c-7.33-7.34-16.77-9.68-26.51-11.34a19.66,19.66,0,0,0-4.46-.42c-4.18-.31-4.84-1.55-3-5.47,1.4-2.17,1.85-4.75,3.11-7,1.86-3.37.16-5.7-3.66-5.71-2.58,0-5.18-.26-7.73.34a10.44,10.44,0,0,1-2,.18c-.66,0-1.46,0-1.63.8s.54,1.17,1.17,1.42c1.87.76,3.83,1.29,5.7,2.1,2.45.79,5,1.51,6,4.26a4.13,4.13,0,0,1-.53,2.64c-3.53,3.68-8.79,3.73-12.92,6.18-6.47,3.84-13.21,3.6-20.36,2-8-1.81-16.24-.5-24.37-.72a45.6,45.6,0,0,1-7-.24c-5.26-5.31-11.53-5.68-18.54-4.55-10.2,1.66-20.4,3.3-30.49,5.53A41.91,41.91,0,0,0,63.74,158c-1.39.83-2.71,1.59-3.82-.35-.94-2.72,1.38-3.29,2.92-4.18,5.58-3.23,11.76-4.82,18-5.91,11.28-2,22.47-4.59,34-5,1.34,0,2.67-.18,2.27-2-.43-2-1.3-3.77-3.88-3.24a59.55,59.55,0,0,1-9,1.64,126.21,126.21,0,0,0-50.76,13.73c-1.84.91-3.68,2-5.84.88-1.05-2.23.72-2.93,2.11-3.75a100.31,100.31,0,0,1,20.84-9c12.79-4.08,25.73-7.19,39.21-7.66,4.28-.15,7.86-1.22,8.3-6.55.2-2.32,1.53-4.39,2.87-6.35a28.82,28.82,0,0,0,4.53-9.24c1.52-6.22,5.66-10.27,10.78-13.52,6.89-4.38,13.6-8.94,18.92-15.25.66-1.36,1.38-2.83,3.24-1.9s1,2.5.6,3.89c-5.41,6.34-11.44,12-18.84,16-5.3,2.87-9.28,6.79-10.82,12.92a31.81,31.81,0,0,1-4.79,10.06c-4.67,6.84-3.34,13.91-1.05,21,.79,2.48,3.14,2.41,5.21,2.43,6.91.07,13.81,0,20.72,0a25.89,25.89,0,0,1,7.4.59c2.64.78,3.92-.28,4.28-2.87a16.44,16.44,0,0,0,.06-3.71c-.2-2.71-1.34-3.89-4.26-3.5-3.41.44-6.81,1.26-10.29.87-1.82-.2-3.76-.31-3.53-3a2.22,2.22,0,0,1,2.11-1.72c5.51,0,10.86-1.92,16.4-1.31a18.15,18.15,0,0,0,8.45-1.16c.52-.18-.23-.9,0-.41,0,.06,0,.1-.17.17a12.83,12.83,0,0,1-7.18,1.34c-6-.5-11.74,1.26-17.65,1.34a3.73,3.73,0,0,0-2.24,1c-1.47,1.37-3.2,2.78-5,1-1.55-1.56-.46-3.58.69-4.86,4.66-5.18,6-12.47,11.1-17.31,1-1,.78-2.3.57-3.52-.45-2.68.63-4.84,2.12-6.91,1-1.33,2-2.44,3.75-1.52a2.79,2.79,0,0,1,1.32,3.9,13.66,13.66,0,0,0-1.33,8,4.32,4.32,0,0,1-1.87,4c-4.12,2.56-4.79,7.09-7.27,11.64,7.46-1.58,14.31-1.72,21.12-2.22,1.66-.12,3.4-.62,4.85.3,2.81,1.78,3.58.35,4-2.16.6-3.58.8-7.14-.57-10.59-1.27-3.21-2.28-6.5-3.38-9.76-2.45-7.25-7.35-12.83-12.71-18.07-2-1.7.67-4.32-1.21-6,0-2.36,1.24-4.62.52-7a9.88,9.88,0,0,1,3.26-5.41c-1.59,1.51-3.75,3.67-3.25,7.19-.09,1.8-.34,3.54-1.83,4.8-2.77,1.1-5.59.61-8.4.29-7.26-1.29-8.74-4.7-4.76-10.87,1.22-1.89,2.63-3.79,4.65-4.6,4.66-1.88,6.07-6,7.83-10,2-4.66,4.23-9.25,6.37-13.87a19.32,19.32,0,0,1,4-5.71c2.65-2.57,5.15-3.67,9.43-2.37,9.85,3,16.11,9.15,19.63,18.42.64,1.69,1.41,1.67,2.69,1.48,2.17-.32,4.35-.68,6.54-.93,1.11-.12,2.37-.06,2.52,1.42s-.79,2-2,2.1c-.54.06-1.1,0-1.65.06-5.65.27-6.21.66-6.47,6.31-.19,4.32-.79,8.5.36,12.75a2.31,2.31,0,0,1-1,2.52c-1.18.58-2.44.27-3.66.28-1.59,0-3.15-.39-3.69-2.06-.47-1.48.8-2.2,1.91-2.79a2.12,2.12,0,0,0,1.18-2.4,25.42,25.42,0,0,1,.51-9c.36-1.69-.15-2.68-2.14-2.43-5.6.71-11.24,1.11-16.76,2.34-3.69.83-3.15,4.56-4.08,6.87-1.66,4.1-1.5,8.78-4.6,12.56-1.65,2,.2,4.21,1.63,5.89A54.92,54.92,0,0,1,177,100c.32,1.3.91,2.53,1.17,3.85a66.94,66.94,0,0,0-2.14-8c-.88-2,.46-3.42,1.52-4.81,1.26-1.62,1.3-2.9-.54-4.09a4.57,4.57,0,0,1-2.18-2.9c-.34-1.86.91-3.64,2.32-2.79,3.58,2.15,7.64,1.43,11.29,2.72.76,1.66.53,2.66-1.31,3.72-5.29,3.06-5.23,3.68-1.15,8.3,3.5,4,8,6.73,12.25,10.57,3.43-16.5,14.63-27.67,24.91-39.42,1-1.63,2-3,3.87-.88.86,2.39-.59,4-2.06,5.43-5.85,5.89-10.54,12.73-15.5,19.31-5.59,7.4-7.12,16.34-8.31,25.24-.72,5.45-.72,11-2.85,16.19-1,2.46-.91,4,2.6,4.64,6.38,1.09,11.78,4.72,16.75,8.66,6.78,5.37,13.73,10.58,19.76,16.86,1.87,2.6,2.69,1,3.41-.87,1.22-2.62,2.7-5.12,3-8.08a4.5,4.5,0,0,1,1.45-2.9,2.81,2.81,0,0,1,3-.84c1.27.49,1.35,1.64,1.22,2.77a24.46,24.46,0,0,1-2.62,8.85,8.88,8.88,0,0,0,3.6-4.39c1-2.21,2.58-3.13,5-2.56,2.58,1.41,1.68,3.39.83,5.32-.6,1.36-2,2.27-2.6,4.19,5.49,1.3,11.1,1.57,16.21,4.85-1-4.25-2.81-7.8-3-11.76.22-1.79.4-3.62,3-3.08,1.86,1.26,2.39,3.3,3,5.28.39,1.32.56,2.71,1,4a31.57,31.57,0,0,0,3.75,6.9c1.88,2.85,4.57.28,6.88.74,5.31,1.06,10.05-.78,14.49-3.55a11.46,11.46,0,0,1,1.09-.59c1.46-.71,3-1.13,4.14.35,1.41,1.82.09,3-1.6,4.42a37.25,37.25,0,0,0,4.56-.79c2.77-.5,4.37-1.85,4.62-4.89.38-4.69,4.59-5.83,7.86-7.69,1.18-.67,2.34.44,3.29,1.26,3.43,3,6.33,6.27,5.93,11.33.52-4.09,2.47-8,1.33-12.23-.67-3.37-.51-6.82-1.38-10.19-.77-2.93,1.3-3.29,3.47-2.7,2.6.7,5.1,1.13,7.66-.07,1.76-.83,3.13-2,3-4-.22-2.84-1.17-5.58-3.73-7-1.8-1-3.35.69-4.73,1.79a7.85,7.85,0,0,0-2.87,4.45c-.83,3.86-3.21,6.29-6.64,7.9-2.73,4.18-6.9,5.31-11.55,6.17-7.8,1.44-15.41,1.21-23.32.57-6.29-.51-12.77-1.71-19.2-.72-1.1-.78-2.31-1.46-2.89-2.78-.23-.5-.11.17-.18-.36-1.18-8.32-4.8-15.75-8.17-23.31-1.44-3.24-2.22-6.78-3.92-10a17,17,0,0,1-2.17-8.73,29.34,29.34,0,0,0-3.53-14.28c-1.65-3.3-3.51-6.58-3.41-10.47,2.85-3.37,2.95.3,4,1.55,3.82,7.79,7.8,15.51,7.41,24.59-.14,3.3,1.64,6,3.82,9.12.13-2.34.3-4.05.32-5.76.1-12.71,7.25-20.53,18-25.79,2.09-1,3.37-2.79,5-4.24,1.13-1,1-2.14.12-3.3-1.13-1.48-2-.25-2.73.34-2.18,1.68-4.3,3.44-6.4,5.22-1,.84-1.83,2.72-3.29,1.56s-3.1-2.41-2.34-4.79c.91-2.85,2.31-5.47,4.83-7,2.77-1.72,3.43-4,3.18-7-.63-7.54,2-13.8,7.58-18.86,7.21-6.57,15.51-6.87,23.06-.8,5.09,4.1,9.64,9.15,17.11,8.81a2.77,2.77,0,0,1,3,2.86c0,1.75-1.58,2.06-2.84,2.58a5.2,5.2,0,0,1-.8.2c-2.2.51-5.67-.06-6.18,2.11-.65,2.78.64,6,2.41,8.54.15.23.35.42.51.64,3.11,4.16,2.87,4.8-2.25,6.11a3.77,3.77,0,0,1-2.39.43c-1.19-.13-2.72.21-3.27-1.22s.73-2.22,1.8-2.83c3.23-1.84-.35-3.49-.12-5.24-.9-4.11-.9-4.11-4.54-2.39-.73.35-1.44.74-2.16,1.11a3.43,3.43,0,0,0-1.63,2.69c-.88,3.92-2.52,4.83-6.11,3.61-1.32-.45-2.7-2-4-.22s.34,3,1.32,4.27a7.11,7.11,0,0,1,.73,1c.7,1.24,1.4,2.57,0,3.71s-2.83.53-4.07-.56a17.91,17.91,0,0,1-3.28-5c-4.64,4.37-2.48,7.45,2.15,10.64,2.85,2,4.15,5.73,7.13,8.48,2-5.41,6.86-7,11.24-9.53-1.8-2.35-6.7-2.89-4.23-7.23,1-1.78,2.89-3.73,5-2.47,1.65,1,6.15.37,4.06,4.77-.54.87-2.4.5-.37,2.91,5.31,6.27,12.86,11.23,14.15,20.37.23,1.63.73,3.22,0,4.83-3,1.58-3.66-.69-4-2.71a25.42,25.42,0,0,0-5-10.77C320.87,98,318.48,97,316,96.19a4.37,4.37,0,0,0-4.5,1.45c-1.1,1.13,0,2.34.57,3.38,2.09,4,3.62,8,3.32,12.62-.11,1.69-.33,3.63-2.4,3.79-2.42.18-2.75-1.89-2.89-3.72-.28-3.67-.53-7.33-3.17-10.22-2.79,5.21,1.18,9,2.72,13.29a3,3,0,0,0,3.91,1.13,21.39,21.39,0,0,1,3.11-.94c1.74-.35,3.75-.93,4.53,1.3.71,2-1.18,2.7-2.61,3.45-1.74,1.09-3.78,1.3-5.68,1.9a5,5,0,0,0-2.56,1.13A2.14,2.14,0,0,0,310,127a1.63,1.63,0,0,0,2,1,15.45,15.45,0,0,0,5-1.52c1.44-1.38-.06-4.15,2.38-5,1.69-1,2.6-2,1.57-4.23-1.14-2.55.27-4.22,3.11-4,2.41.21,4.89.49,6.79,2.31l4.24,2.35c-.22-3.1,1.32-4.09,4.06-3.7,2.56.36,4.67-1.07,7-1.77,34.51-10.53,68.23-23.7,103.36-32,8-1.88,16.16-3.07,24.06-5.49a35.43,35.43,0,0,1,13.34-3.28c9.83-2.29,18.95-6.47,28.09-10.56a80.48,80.48,0,0,1,20.93-6c1.35-.2,3.53-1.06,3.87.94.41,2.36-2.07,2-3.53,2.35s-2.67.59-4,.87C513.3,66,495,74.3,475.4,79.45S435.32,87.16,416,94c-14.42,5.14-28.81,10.44-43.59,14.57-7,2-14,4.22-20.92,6.62-2.1.72-3.86,1.56-3.94,4.12a2.51,2.51,0,0,1-1.64,2c-3.05.32-4,2.71-4.95,5.05-3.28.33-4.66-2.88-7.24-3.93-1.83-.74-3.16-2.53-5.4-3,.94,2.32,4.75,2.82,3.68,5.95-.7,2.06-2.84,1.65-4.81,1.46,4,4.73,4.37,4.79,8.88,1.72,1.24-.84,2.44-2,4-.57,2.28,3.58,5.6,6.49,6.8,10.77,1.73,6.15.25,9-5.67,11.21-2.49.92-6.07.31-7.23,3-1,2.36,1.47,5,1.7,7.36.63,6.59,2.51,13.53-2.44,19.49a3.26,3.26,0,0,0-.3,3.87,55.36,55.36,0,0,1,5.86,21,12.84,12.84,0,0,0,1.61,5.53c.76,1.25,1.35,2.94.3,3.86-3,2.67-.79,4.94.6,6.71a13,13,0,0,1,3.06,9.18c-.94,13,1.13,25.59,3.77,38.17.66,3.18-.5,6.74,2,9.53a17.58,17.58,0,0,0,1.5,1.35c.89,2.32.44,5.06,2.24,7.11a6.49,6.49,0,0,1,.39,1.15c1,3.79-1.39,7.05-1.64,10.65a10.27,10.27,0,0,0,.31,7.14c2.18,4.51,3,4.9,7.6,3.32a9.62,9.62,0,0,1,4.88-.12,341.57,341.57,0,0,0,43.19,4.12Q449.27,314,490,314a27,27,0,0,1,5.74.64c2,.55,4.14,0,6.17.53,1.27.31,2.44.91,2.54,2.35.12,1.71-1.17,2.35-2.58,2.74a4,4,0,0,1-1.63.2c-7.67-1.23-15.45-.14-23.12-1.2-2.79-.39-5.65-.71-8,1-10.43,7.63-22.73,10.38-34.84,13.67a2.44,2.44,0,0,0-1.3.69c7,1.32,14.09,1.13,21,1.72,8.38.7,16.75,1.45,25.1,2.49,1.22.15,2.5.22,3.39,1.27,1.22.73,2.7,1.32,1.64,3.21-3.69,1.88-7.53.81-11.28.43-10.64-1.09-21.28-2.22-32-2.47-2.87-.07-5.64-1.18-8.56-.85a22.83,22.83,0,0,1-4.6-.34,8.26,8.26,0,0,0-4.09-.37,69.35,69.35,0,0,1-27-1.25,29,29,0,0,0-6.18-.41c-6.6-.17-13.15.12-19.76-1.3s-13.2.3-19.79.79c-18.57,1.39-37.07,3.39-55.77,3.17a269.72,269.72,0,0,0-39.23,2.1,76.41,76.41,0,0,1-8.69.22c-10.49.23-21-.23-31.46.67-10.18.87-20.38-.72-30.58-1.14-9.1-.37-18.2-1.86-27.27-1-5.6.52-11.13,2.08-16.82,1.36a192.45,192.45,0,0,0-36.37-1.36c-7.39.47-14.35.46-21.26-2.62-3.55-1.58-7.6-1-11.48-.5-3.12.37-6.3.91-9.36-.46-.81-3.28-.15-4.29,3.21-4.78,2.68-.38,5.45.26,8.09-.68,3.82-.67,7.49.78,11.27.84a38.49,38.49,0,0,0,18.48,2.4,132.39,132.39,0,0,1,25.63.41c8.24.85,16.53-.42,24.8-.57,15.6-.3,31.13,1.48,46.68,2.43a35.74,35.74,0,0,0,4.14,0c12.63.15,25.26-1.11,37.89,0a16.75,16.75,0,0,0,7-.52c11.77-.92,23.51-2.17,35.38-2.13,14.28.05,28.58-.37,42.83-1.51,4.68-.38,5.43-1.42,5.9-6.19a22.69,22.69,0,0,0-4.91-16.58,30.63,30.63,0,0,1-2.28-5.9c-.17-1.51-1.14-1.86-2.52-2.15-14.55-3.15-29.29-5.41-43.63-9.52-1.6-.45-3.3-.27-4.92-.63-1.12-.25-2.15-.68-2.25-2-.12-1.63,1.1-2.13,2.33-2.42,2.32-.55,4.65.09,7,.24,2.68.06,5.12,1.26,7.72,1.69,10.56,2.91,21.46,4.19,32.09,6.79,2.56.63,3.28-.36,2.65-2.77a20.17,20.17,0,0,0-.81-2.75c-1.32-3.65-4.78-2.33-7.32-3.16a145.62,145.62,0,0,0-24.62.33,35.46,35.46,0,0,1-5,.25c-5.12-.18-10.33-2.12-15.33.73a11.77,11.77,0,0,0-1.5.66c-1.62,1.25-2.71,3-2.34,5s2.39,1.69,3.79,1.77c12.4.72,24.38,4.1,36.67,5.5a81,81,0,0,1,11.71,2.39c1.26.45,2.63.51,3.85,1,2.23.95,3.28,2.34,1.17,4.49-1.75.93-3.49.28-5.24,0-15.59-2.85-31.13-6-46.92-7.6-1.1-.11-2.18-.33-3.26-.54-6.19-1.16-7.94-.56-10,5.5-2.18,6.38-5.29,12.66-6.26,19.17-.86,5.8-2.48,8.94-8.3,9.51a8,8,0,0,0-1.5.65c-3.31-.69-4.46-3.65-1.65-5.09,7.14-3.64,7.23-10.92,9.4-16.86,2.72-7.43,5.4-14.71,10.36-21a3.65,3.65,0,0,0,.83-2.4,51.68,51.68,0,0,0-6.7,6.7,18,18,0,0,1-2.47,2.76c-1,.81-2.15,1.42-3.36.45s-1-2.32-.24-3.66c1.54-2.63,4.13-4.43,5.48-7.19a23.63,23.63,0,0,0,1-2.22c.3-.95.54-2-.63-2.46s-1.65.65-1.94,1.55c-.59,1.82-1.19,3.64-1.86,5.44-.81,2-.69,5.61-3.81,4.82-3.42-.86-1.58-4.07-1.2-6.34a40,40,0,0,1,1.69-6c1.59-4.92,5.76-6.6,10.47-4.31,1.37.66,2.52,1.7,3.93,2.27.95.39,1.95.54,2.48-.62s.09-2.11-1-2.28c-4-.63-6.41-3.58-9.31-5.86-2.15-1.69-3.86-1.66-5.25,1.1s-3.13,5.49-4.33,8.45a13,13,0,0,0-1,8,8.93,8.93,0,0,1-2.19,8.46c-2.7,2.89-2.78,6.84-4.34,10.18-.93,2-1.95,4-4.51,1.67-.86-5.17,1-9.77,3.51-14a12.52,12.52,0,0,0,1.57-9c-.5-2.91-1.88-3.84-4.56-2.33-3,4,.47,6.13,2.59,8.63a2.32,2.32,0,0,1-1.11,2c-3.05.51-5,2-4.86,5.42-.46,5.77.68,11.51.2,17.27a58.62,58.62,0,0,1-1.2,7.33,2.44,2.44,0,0,1-2.61,2.17c-1.43-.15-2.08-1.27-2.29-2.58-.37-2.36.54-4.65.42-7a132.07,132.07,0,0,1,6.23-46.42c.6-1.93.6-3.5-1.67-4.34a6.45,6.45,0,0,1-2.57-2c-2.12-4.09-.48-8.71,4.61-12.75,1.27-1,2.83-1.7,3.29-3.45a19.23,19.23,0,0,0,.05-2.4,18.81,18.81,0,0,1-.7-6.14c.74-9.59-1.62-18.91-2.48-28.35-.28-3-2.12-2.74-4.11-2.26a173,173,0,0,0-23.63,7.51,28,28,0,0,1-14.12,2.11c-6.05-.76-8.49,2-7.07,7.82a7.92,7.92,0,0,1-1,6.7c-3,4.6-4.11,10.12-6.53,15.06,1,.34,2.16-.16,3.3-.42,1.89-.41,4.18.26,5.63-.91,1.9-1.53-.45-3.49-.31-5.35.2-2.59.79-4.69,4-4.53a3,3,0,0,1,1.1.53c.93,2.49-.29,5.62,2.3,7.61,1.46,3.2-.42,4.91-2.89,6.26s-5.28,1.34-8,1.61c-4,.39-5.13,1.9-2.95,5,3.92,5.53,4.25,10-1.47,14.42-1.48,1.15-1.52,3.75-2.33,5.64-.69,3.23-2.81,5.8-4,8.78a49.73,49.73,0,0,0-4,11.16c.22-2.15,2.37-5.76,3.46-9.71.93-3.06,3.16-5.52,4.05-8.6,1.25-4.57,4.49-7.89,7.41-11.33,1.88-2.21,3.14-3.85,0-5.84a5.29,5.29,0,0,1-1.56-1.92c-1.66-3-.91-5.29,2.32-6.62a73.44,73.44,0,0,1,8.76-2.47c4.75-1.31,5.53-3.24,3-7.54-1.46-2.54-2.95-5-2.82-8.09,0-1.87.36-3.73,1.9-4.84,3.11-2.24,4.54-5.4,5.64-8.89.53-1.69,1.36-3.76,3.69-2.93,2,.69,1.61,2.72,1.23,4.32-.77,3.24-1.7,6.47-4.2,8.86-2.69,2.59-3.37,5.27-.94,8.38a7.52,7.52,0,0,1,.79,1.45c3.34,7.17,1,12.39-6.59,14.63-2,.57-4,.72-5.93,1.66.63,1.9,2.52,2.43,3.12,4a5.71,5.71,0,0,1-1.57,6.43c-9,8.95-14,19.95-16.61,32.19-.69,3.27-2.86,5.25-5.37,7a3.14,3.14,0,0,1-3.86-.21,5,5,0,0,1-2.3-5.34c1.28-6.52,2.68-13,6.22-18.75a45.71,45.71,0,0,0,4.73-11.42,11.63,11.63,0,0,1,1.37-3.44c3.06-4.47,3.05-4.48-.87-8.84-4.52,8.94-10,17.56-11.76,27.55-1.25,7.11-1.82,14.44-.36,21.68.71,3.53.9,7.12,1.27,10.67.27,2.64-.9,4.33-4,3.48-3.28-2.21-1.74-5.65-2.21-8.58-.37-5.68-1.41-11.22-1.17-17.07a67.55,67.55,0,0,1,6.21-26.53,4.57,4.57,0,0,1,.74-1.91c6.93-8,2.09-15.4-.94-22.93-1-2.45-3.18-3.24-5.41-4.09-10.84-4.14-10.63-4-18.37,4.57A50.92,50.92,0,0,0,124.73,268c-1.34,3.71-1,8-3.56,11.33-2.25,4.26-4.44,8.51-8.65,11.32-1.8,1.21-2.22,3.39-2.61,5.44a47.35,47.35,0,0,1-5.12,14.73c-2.56,4.55-2.37,9.86-4.25,14.59a12,12,0,0,1-.71,1.49c-.71,1.25-1.55,2.48-3.23,1.82s-1.71-2.08-1.32-3.5c1.86-6.6,2.81-13.49,6-19.66a22.33,22.33,0,0,0,2.26-6.55c-2.48,3.84-3.17,8.36-4.67,12.57-.56,1.56-.72,3.58-2.94,3.3-2.51-.31-2.37-2.55-2-4.23,1.48-6.74,2.8-13.59,8.58-18.37a17.43,17.43,0,0,0,5.29-8.24c2.46-7.3,7.62-13.09,11.35-19.69s7.22-13,10.59-19.69c1.32-2.62.85-3.57-2.08-4.06-5.36-.88-10.77-.1-16.12-.78a2.23,2.23,0,0,0-1.53.52c-3.88,2.52-6.94,10.46-5.71,15,.33,1.22.77,2.52.26,3.66-1.9,4.28-.65,8.39.46,12.53.14.53,0-.14.09.4.34,2.25,1.55,5.32-1.54,6-2.74.58-3-2.62-3.67-4.64a2.31,2.31,0,0,0-.55-1.09c-2.4.89-2,7.06-6.71,3.6,1.2-5.52,4.4-10.24,5.94-15.62-1.71,5.71-5.15,10.74-6.36,16.65-4,9.8-7.54,19.78-10.74,29.88-1,3.15-1.49,6.09.18,9.14a8.16,8.16,0,0,1,.79,4.83,3.74,3.74,0,0,1-1.11,2.59c-1.79,1.55-2.86.22-3.93-1-.08,1.5,0,3.17-2,3.43-1.35.16-1.94-.84-2.21-2a28.13,28.13,0,0,1-.28-4.94c.21-3.16.45-6.27-.62-9.39-2-6,.19-11.1,4.58-14.83A31.46,31.46,0,0,0,83.19,287.12Z"/><path class="cls-2" d="M432.18,339.38c15.44.94,30.89,1.73,46.23,3.78a20.77,20.77,0,0,0,5.73.16c-1.1,1.22-3.23,1.46-2.54,4.2.52,2.11-1.45,3.3-3.65,3.36-1.74.05-3.49,0-5.82,0,2.6,1.49,5.19-.18,7.1,1.59-1.41,1.49-3.29,1.41-5,1.25-5.22-.48-10.43-.88-15.67-.86a4.43,4.43,0,0,1-3.07-1c-.36-1.66.92-1.81,1.9-1.68,1.55.21,3.14.11,4,.35-1.89.48-4.64-1.7-6.91,1-5.19,1.12-10.45.8-15.64.29a80.23,80.23,0,0,0-16.9,0,28.48,28.48,0,0,1-16.08-2.31c-5.64-2.7-12.22-1.46-18.35-2.33-1.89-.27-3.88.14-5.63-.92-1.11-3.43,2.28-1,2.51-2.4-2.44-1-4.18,1.66-6.54,2.16-17.15.66-34.12,3.68-51.31,3.63a33.41,33.41,0,0,1-6.16-.34,88.46,88.46,0,0,0-27,.61c-2.71.46-5.51.07-8.15,1-6.47-.65-12.92.29-19.38.3-17.38,0-34.76.76-52.13,1.14-11.69.26-23.46,1-35.13,1s-23.16-.17-34.75-.45c-3.44-.09-6.88-.27-10.32-.56-5.2-.44-10.34-.54-15.5,1.38-4.24,1.58-8.76,0-13-1.27a30.74,30.74,0,0,0-9.26-1.81c-.88-.71-1.32-1.79-3.05-1.38-2.77.66-5.73-.15-8.57.58-7.25-1.26-14.5-2.53-20.22-7.76.26-1.29,1.7-1.29,2.36-2.15-.72-1.57-3.88.46-3.67-2.48a46.18,46.18,0,0,0,10.3-.5,26,26,0,0,1,14.22,1.6,22.92,22.92,0,0,0,12,1.93,127.62,127.62,0,0,1,28.91,0c7.15.81,14.57,2.2,21.42,1,20.57-3.52,40.86,1.79,61.27.78,18.72-.93,37.48.2,56.21-1.83a254.67,254.67,0,0,1,33.5-.95c19.95.47,39.58-3.17,59.43-3.84,5.31-.18,10.53-1,15.88.91,2.78,1,6.27.1,9.45.12a70.67,70.67,0,0,1,17,1.85c6.06,1.54,12.85.27,19.31.17,2.19,0,4.39-.59,6.51.37-.46.82-1.5.34-2.22.95,3.15-1.25,6,.7,8.89.47C433.92,340.09,432.29,341.38,432.18,339.38Z"/><path class="cls-3" d="M83.19,287.12c-.59,2.85-.89,5.35-4.42,6.89-4.65,2-7.22,9.48-5.53,14.8a18.62,18.62,0,0,1,.65,9.6c-.32,2.53-1.21,5-1.12,7.58.06,2-1.18,2.54-2.83,2.7-3.84.09-7.53-1.31-11.33-1.4-2.78-.06-6.34-1-7.1,3.44a2.89,2.89,0,0,1-.49,1.12c-4.06-.78-7.74-2.57-11.43-4.32s-6-5.88-10.63-6.08c-1,0-1.28-1.26-1.31-2.26L29,316.13c-.81-.83-1.73.05-2.59,0-1.53-.14-3.16,0-3.63-1.94a3.25,3.25,0,0,1,1.87-4.1.86.86,0,0,0,.35-.23c1-1.21,3.87-1.33,3.08-3.24-1-2.49-3-.28-4.61,0-1.8.36-3.71.95-4.65-1.2-.82-1.87.48-3.12,1.93-4.09a55.61,55.61,0,0,0,9.1-7,1.24,1.24,0,0,0-1.73-.05c-2.12,1.13-4.36,1.76-5.77-.77s.66-3.94,2.57-5.19c2.13-1.4,4.83-2.4,1.59-5.7-1.67-1.7.33-3.53,1.82-4.81,3.35-2.89,7.35-4.78,11.13-7,1.21-.71,2.76-1.23.94-2.91-1-.93-1.57-2.07-.55-3.26a2.76,2.76,0,0,1,3.77-.55c7.68,7,15.8.95,23.69,1,1.64,0,3.27-.44,4.91-.44,4.39,0,5,1,3.36,5.3,2.79,1.3,5.24,1.25,7.65-1,1.22-1.16,3.14-1.66,4.42,0s.3,3.06-1,4.35c-.86.88-1.35,2.17-2.3,2.88C80,279.44,78.52,282.92,83.19,287.12Z"/><path class="cls-4" d="M40.34,326.94c3.38,1.77,7.35,2.17,10.51,4.47,5.53,2.07,9.47,6.15,13.26,10.43,6,4.1,13,5.39,19.79,7.46,3.66.09,7.23,1.77,11,.69a13.64,13.64,0,0,1,9.25.87c4.12,1.74,9.29,3.56,12.78,2,5.11-2.3,9.91-1.84,14.86-1.77,15.73.22,31.47,1.21,47.19,1,26.08-.33,52.15-1.39,78.22-2.07,9.51-.25,19-.32,28.55-.47,10.32.12,20.55-1.71,30.89-1.37,1.21,0,2.44-.43,3.64.14a263.23,263.23,0,0,0,36.16-1.93A208,208,0,0,1,379,345c.85-.5,1.68-.71,2.42.2l22.14,2.09c1.75.17,3.36.13,4.57,2.09,1.1,1.78,3.54,1.22,5.36,1.15,13.92-.52,27.81.14,41.72.39h0c8,1,16,1.29,24,1.53,1.16.52,3.11.47,2.6,2.43-.41,1.56-2,1.06-3.19,1-5.88-.29-11.75-.65-17.63-1a32.78,32.78,0,0,0-11.85.24,10.32,10.32,0,0,1-3.71.21c-11.82-1.47-23.7-.52-35.55-.74a22.14,22.14,0,0,1-9.13-2.12c-4-1.85-8.35-2.94-12.71-.74-1,.7-2.33.54-3.4,1.55,1.1,1.44,2.71,2.1,4.19,2.94,2.81,1.47,5.16,3.64,7.92,5.18a45.22,45.22,0,0,0,17.39,6c2.12.23,5.29.24,4.7,4.06-6.1.83-11.84-.62-17.43-2.83-7.49-3-13.58-8.35-20.57-12.17-3.48-2.14-3.86-3.54-2-7.18-2.46.27-5,0-7.43.16-4.26.2-5.76,1.94-6.26,6.09-.6,4.86,1.68,8.42,4.48,11.89.64,3-1.19,3.55-2.81,1.89-3.68-3.79-8-2.62-12.28-2.56-6.19.08-12.38-.2-18.57-.33-7.39-.32-14.76-.71-22.13.59-5.68,1-11.48.88-17.24.86-11-.05-21.92-.08-32.84,1.09l-7.47,1c-9.06.41-18.13.95-27.16-.15-5.2-.63-10.4-1.2-15.57-2.09-2.66-.47-5.34-.74-8-1.16a157.37,157.37,0,0,0-21.4-1.34,602.71,602.71,0,0,1-64.87-1.65c-7.77-.64-15.07-3.31-22.49-5.42-4.9-2-10.08-3.14-15.09-4.82a61.31,61.31,0,0,0-8.6-2.82c-6.82-1.51-12.28-5.33-17.48-9.69a54.66,54.66,0,0,0-6.6-5.46c-3.48-2.32-7.58-3-11.41-4.41a15.92,15.92,0,0,1-3.43-1.29c-1.45-.94-2.75-2.19-1.85-4s2.47-1.17,3.87-.44S39,326.27,40.34,326.94Z"/><path class="cls-2" d="M40.34,326.94A31.54,31.54,0,0,1,36,325.87c-1.13-.44-2.32-1.61-3.1,0-.86,1.81.59,2.85,2.08,3.34,3,1,6.06,1.66,9,2.62,2.18.71,4.51,1.23,6.06,3.18-.76,4.93,3.33,4,5.93,4.94,7.23,6.91,16.62,9.35,25.71,12.39a38.79,38.79,0,0,0,14.74,4.53c14.65,5.06,29.78,6.23,45.19,6.73s30.62.63,45.94.13A84.29,84.29,0,0,1,206,365.59c0,2.39,1.85,2.33,3.47,2.4a73.2,73.2,0,0,1,8.11.3c4.05,1.44,8.56,1.51,12.17,4.2-1,1.51,0,4.49-2.51,4.72-3.62.34-7.62,1.25-10.76-1.35-2.09-1.74-4.09-1.56-6.49-1.46-8.53.35-17.07.39-25.6.54-.4,0-1.06-.05-1.17-.28-2.24-4.92-6.3-2.49-9.53-2.06-3.85.51-7.85-.13-11.49.8-10.94,2.79-22.13.59-33.1,2.19-1.55.22-2.05,1.83-3.53,1.77-1.1-2.16-3.23-2.45-5.26-2.75-11.75-1.71-22.8-6.43-34.59-8-3.86-.5-7.3-2.6-10.66-4.41-12.6-6.81-25.59-12.94-37-21.83-4.9-3.83-9.94-7.47-16.53-7.81a1.76,1.76,0,0,1-1.31-.9c3.4-.7,5.71-3.78,9.42-4.08-.65-3-4.7-4.93-2-8.41.57.56,1.22,1.67,1.7,1.6C34.66,320,36.48,325.28,40.34,326.94Z"/><path class="cls-3" d="M346.58,120c-.89-3.24.36-4.56,3.63-5.6,22.21-7,44.41-14.11,66.53-21.47,12.35-4.12,25.13-6.9,38-9.59,21.1-4.43,42.17-9.76,61.8-19.31a49.07,49.07,0,0,1,15.71-4.81c-1.84,1.09-1.56,3.5-3,4.81a5.6,5.6,0,0,0-4,0c-.82.39-2,.76-1.64,1.91.25.81,1.53.12,2.16.72l.82,1.52c-1,2.58.29,3.22,2.55,3.08,2.42-.15,4.72-1.54,7.23-.64-.64,2.74-3.13,2.77-5.12,3.37-3.84,1.15-7.75,2.11-11.8,3.19,1,1.48,2.11.72,2.92,1.13-.09,1.94-1.79,1.84-3,2.27C506.06,85.3,492.23,88.17,478.51,91,470,92.8,461,93.17,452.4,95c-32.94,7-65.94,13.74-98.17,23.69C351.77,119.45,349.29,120.54,346.58,120Z"/><path class="cls-5" d="M190.81,146.14c-.47,1.15-2.43,1.77-1.35,3.46.83,1.28,2.21.75,3.39.77,1.63,0,3.31-.25,4.79.74-.77,1-1.92,1-3,1.09a1.93,1.93,0,0,0-2,2.45c.33,2.83-1.06,5.06-2.59,7.22a56.53,56.53,0,0,0-6.28,11.6c-.78,2-1.08,3.58.46,5.32,1.8,2,2.47,4.31.57,6.72-.88,1.12-.4,2.05.36,3,1.87,2.26,1.9,4.73,1,7.4-1,2.93-1.34,5.79.32,8.77,1.09,2,.49,4.32.13,6.5s.65,3,2.53,1.83c4.57-2.75,9.78-3.69,14.7-5.43,3.74-1.34,7.56-2.83,11.59-.78a2.73,2.73,0,0,0,2.77-.31c5.71-3.84,11.59-3.43,17.56-.75l2.42.16-.07-.07c-2.54,2.87-6.2,1.38-9.27,2.3a21,21,0,0,1-7,.57c-9.25-.52-17.42,3.73-26.1,5.72-4,.91-7.3,3.61-11.49,4.36-3.85.7-5,.34-5.54-3.8-.8-6.34.94-12.39,2.8-18.26,1.56-4.91-1.66-9.33-.44-14-4.05-2.05-2.76-5.43-2-8.56a31.57,31.57,0,0,1,4-9.49c1.74-2.82,3.64-5.53,5.46-8.29.62-.94,1.31-2.06.3-3-1.39-1.29-2.09.39-3.06,1-1.39.83-1.28,3.15-3.41,3.33a5.14,5.14,0,0,1,1.45-4,2.14,2.14,0,0,0,.13-2.7c-.75-1.12-2-.78-3-.53s-1.08,1.11-1.13,2.19a93.36,93.36,0,0,1-4.59,24.31c-.74,2.21-2.68,2.81-4.3,3.54-7.56,3.39-7.45,4.53-13.47-1.78-6.87-7.19-15.77-11.52-23.87-17-1.73-1.16-3.64-1.85-3.26-4.57.23-1.64-1.15-2-2.51-2,1.47-2.77-1.5-2-2.36-3a119,119,0,0,1,40.46,1.25,4.88,4.88,0,0,0,2.84,0c6.91-3.41,14.49-5.26,21.23-9.05C190.73,144.69,190.31,145.63,190.81,146.14Z"/><path class="cls-3" d="M403.26,280.35c5.43-4.79,12.38-3.84,18.76-4.75,9.13-1.29,18.41-2.12,27.36.79a165.33,165.33,0,0,0,16.56,4.35,29.74,29.74,0,0,0,11.85,0c3.16-.6,6.39-1.38,7.39,3.31.43,2,3.33,1.7,4.25,3.54,1.65,3.3,2.64-.17,3.95-.4,2-.35,4.05-.79,6.09-.94,8.23-.57,16.49-.16,24.73-.42,3.78-.12,8,1.89,12.36,1.42,1.15-.13,2.18,1.17,2.3,2.55a2.62,2.62,0,0,1-1.76,2.58c-2,.86-4.38,1.14-3.56,4.31.08.31-.57,1.08-1,1.2-4.86,1.33-8.85,5.14-14.27,4.93a8.27,8.27,0,0,1-5.7-2c-.69-.64-1.3-1.5-2.44-1.24a.83.83,0,0,0-.6,1.26c.44,1.07.37,2.58,2.16,2.57.8,0,1.68-.09,2.24.73-.93,1.37-2.36,1.38-3.72,1.21-9.73-1.28-19.52-1.35-29.31-1.55-3.54-.73-6.25-2.5-7.49-6.07-1.76-5.62-6-8.48-11.1-10.88-13.88-6.49-28.43-6.73-43.27-5.68C413.79,281.63,408.39,282.82,403.26,280.35Z"/><path class="cls-6" d="M495.86,315.56c-31.87-1-63.79-.48-95.64-2.27a263.51,263.51,0,0,1-36.17-4c-1-.2-2-.77-3.16-.05-5.27,3.27-8.08,1.8-9.15-4.71.55-.94-.34-2.92,1.92-2.61a13.08,13.08,0,0,1,1.18.75,86.32,86.32,0,0,0,14,1.37q23.78,0,47.57,0c2.31,0,4.7-.33,6.89.8,1.36,1.78-.61,1.65-1.25,2.2,1.2-.1,1.88-1.24,3-1.73A36.44,36.44,0,0,1,436.1,305a295.33,295.33,0,0,0,33.79.74c5.91-.15,11.77-1,17.72-.94A217.52,217.52,0,0,1,509.86,306c2.05.23,4.12.52,6-.7,1.56,3.74,1,7.29-1,10.72C508.56,315.78,502.25,314.07,495.86,315.56Z"/><path class="cls-3" d="M495.86,315.56c6.43-3.08,12.76-2,19,.49a4.21,4.21,0,0,1-3.1,4.79c-7.06,1.32-10.62,8.56-17.55,10.18h4c2.28,0,5,0,4.9,3s-2.83,2.79-5.07,2.79-4.67,0-7,.08c-3.18.17-6.24.76-8.55,3.27q-25.58-2.12-51.13-4.25c-.73-.06-1.85.29-1.84-1,0-1,.87-1.26,1.72-1.48,4-1,8-2.31,12-3.17a63.13,63.13,0,0,0,23.42-10.05,11.74,11.74,0,0,1,7.77-2.16c8,.42,16,.72,24,1.07.83,0,1.66.13,2.49.14,1.23,0,2.78.15,2.92-1.5s-1.41-1.71-2.64-1.8Z"/><path class="cls-4" d="M250.68,86.47c-1.3-.13-1.29-3.82-3.57-1.31a4.1,4.1,0,0,1-3.24-4.61,4,4,0,0,1,2.82-1c2.45,1.86,4.94,1.62,7.71.58,4.93-1.86,6.31-2.85,7.94-7.65,1.14-3.34,2.93-5.58,7.22-5.09-1.55-2.74-2.92-4.78-3.5-7.69-1,2.21.15,5.18-3.23,5-2.8-.14-4.47-2.27-4.45-5.7-3.44.23-6.83.71-10.24,1.18-1.55.21-3.07.36-3.69,2.11s.59,2.53,1.44,3.61c1.27,1.6,4.15,3.18,1.8,5.42s-4.12-.51-6-1.74c-2.84-1.86-2.71-5.55-5-7.68-4.68.57-8.9,2.74-13.43,3.81-2.6.15-3.93,2.22-5.58,3.78-1.09,1-2.14,1.61-3.68.91s-1.63-2-1.57-3.45c.2-4.49,2-8,6.27-9.85,1.88-.85,3.79-1.65,5.72-2.37,2.18-.8,3.06-2.08,3.07-4.6,0-7.55,8.22-18,15.51-20.29.89-.28,1.62-.19,1.92.86.71,2.57,3.3.89,4.65,2.05a34.34,34.34,0,0,1,7.66,4.85c3.41,2.69,5.49,6.17,5.15,10.7-.14,1.92-.62,3.68-3.25,3a4.49,4.49,0,0,1-1.64-2.63c-.46-5.11-3.76-7.74-8.14-9.63-.55,1.51.11,2.64.34,3.81a9,9,0,0,1,.3,1.78,34.57,34.57,0,0,1-.13,6.19c-.21,1.28-.72,2.53-2.24,2.52-1.31,0-1.76-1.18-2.07-2.26-1.22-4.22-1.13-8.7-2.53-13.17-2.59,4.26-6,7.72-7.17,12.61-.66,2.81,0,3.82,3,3.47,6.63-.77,13.26-1.45,19.89-2.25,2.79-.29,5.68.11,8.32-1.22,2.12-.54,9.32,2.33,10.32,4.19a1.7,1.7,0,0,1,0,1.49c-.64.87-1.7.6-2.65.7-1.39.14-3-2.15-4-.28a5.47,5.47,0,0,0,.76,5.85,31.32,31.32,0,0,1,2.24,3.45c1.49,2.68.52,5-2.18,5.43-4.5.69-4.67,4-4.94,7.07-.4,4.51-1.21,5.23-6,4.93A15.08,15.08,0,0,0,250.68,86.47Z"/><path class="cls-7" d="M423.89,306c-1.5-1-3.21-.61-4.82-.62-16.54-.07-33.09,0-49.63-.15-4.68,0-9.36-.5-14-.67-1.84-.07-2.48-.88-2.15-2.61.85-1.83,2.53-2,4.2-1.89,17.86,1.25,35.75.19,53.61.58,7.56.17,15.09.92,22.63,1.1,7.44,1.53,15,.44,22.45.58,2.46,0,3-1.55,2.22-3.65a5.77,5.77,0,0,0-1.95-3.05c-4.42-3.31-9.8-3.51-14.92-4.53-4.63-1.48-9.67-.52-14.2-2.53.49.31-.29-.16-.2-.11,4.07,2,4.43,3.78-.35,5.18a3.74,3.74,0,0,1-1.65-.12c-21.93-4-44.11-4.77-66.32-5.29-2,0-4.24.17-5.47-2.08l.06.11c-1.09-2.59.9-3.56,2.54-3.34,4.73.64,9.4-1,14.09,0,7.6,1.38,15.28,1.47,23,1.37a52.29,52.29,0,0,0,11.65.81c5.05.62,10,1.31,14.89-1.32,2.06-1.1,4.89-.37,7.37-.19,6.89,1.05,13.91,1.22,20.71,3a73,73,0,0,1,7.11,2c5,1.82,8.52,5,9.62,10.35.54,2.65,1.92,3.63,4.56,3.58A53.29,53.29,0,0,1,480,303c11.37-.79,22.67.45,34,1.23l1.93,1.11c.38,2.55-1.22,2.76-3.05,2.46C497.58,305.3,482.28,306,467,307c-14.43,1-28.75-1.13-43.14-1Z"/><path class="cls-3" d="M386.35,351.93c1.34-2.59,3.54-3.05,6.15-2.5,3.71.78,7.8-.26,11,3.16,1.3,1.4,3.93.94,6,.93,15.43-.1,30.86,0,46.27.78,1.77.1,3.6-.22,5.28.62l-8.24.11c-1.85,0-3.24.41-1.76,2.58,1.91,2.8.05,3.65-2,4.93-7.93,4.86-17.77,4-25.74,8.71-1.12.67-2.91.2-4.39.26-.23-3.55-3.37-3-5.29-3.17A37.72,37.72,0,0,1,397.33,363c-3.17-1.87-6.11-4.13-9.15-6.22a19.56,19.56,0,0,1-3.05-2.76C384,352.52,385.21,352.21,386.35,351.93Z"/><path class="cls-8" d="M188.47,84c-3.72.08-7.63,1.31-10.77-2-.48-.5-1.32-.21-1.83.38a1.59,1.59,0,0,0,0,2.24,13,13,0,0,0,4.68,3.46c-.61,3.05-4.75,3.91-3.74,7.52.23,1.69,1.58,3.56-.72,4.88-2.14-5.47-5.78-9.93-9.53-14.36-3.15-3.73-3.07-5.69.18-9.08,2.31-2.41,2.2-5.83,2.29-8.39a4.82,4.82,0,0,1,1.55-3.79c.45-.49,1.16-1.36,1-1.69-2.34-4.82,2.26-3.46,3.76-3.76,5.65-1.15,11.41-1.67,17.1-2.6,2.67-.44,2.74,1.08,2.41,2.83-.73,3.92-1.49,7.8-.36,11.76.4,1.4-.31,1.67-1.54,1.48s-2.39-.2-2.38,1.41,1.33,1.56,2.39,1.74c1.49.25,3,.41,4.49.6-2.52.78-5.19,1.31-6.51,4-1.23-.64-1.31-2.46-3.19-2.84-.17,2.17,1.61,4.12.66,6.23Z"/><path class="cls-7" d="M346.58,120c8.28-2.51,16.51-5.22,24.86-7.48,32.59-8.81,65.49-16.43,98.81-21.77a385.12,385.12,0,0,0,52.08-12.48l20-3.1c1.09-.17,2.18-.39,3.27-.49s2.09-.29,2.44.93c.42,1.5-.77,1.94-1.87,2.14-4.48.77-9,1.57-13.47,2.19a121.62,121.62,0,0,0-20.37,4.73c-2.59,3.33-6.48,2.81-10,3.36-8.2,1.12-16.43,2.49-24,5.86-4.72,2.12-9.24.07-13.76,1-38.49,7.59-76.89,15.52-114.35,27.39a3.79,3.79,0,0,1-4.37-.94Z"/><path class="cls-9" d="M47.67,153.59c1.78.35,3.19-.63,4.64-1.38C68.13,144,84.83,138.83,102.75,138a45.86,45.86,0,0,0,11.31-2.2c1.27-.39,2.53-.63,3,1,.7,2.33,2.17,4.5,1.57,7.09,0,.15-.72.3-1,.22-7.84-1.93-15.27,1-22.79,2.14-9.9,1.49-20,2.56-29.19,7-2.17,1-4.78,1.64-5.72,4.35C55.19,158.26,50.8,157.82,47.67,153.59Z"/><path class="cls-10" d="M317.75,85.63c.89-3.46-2-3.83-4-4.3-2.19-.53-4.23,1.23-4.95,2.93-1.24,2.94,2.14,3.22,3.62,4.56.78.7,2.61-.11,2.69,1.36.1,1.63-1.73,1.49-2.74,2-7.47,3.68-7.49,3.65-10.51,10.65-1.81-2.5-3.43-4.79-5.1-7-.9-1.22-1.89-2.37-2.84-3.54-1.45-1.78-3.81-2.29-5.4-3.69-2.65-2.34.78-3.68,1.64-5.21,1.08-1.93.22-4.45,2.39-6.35-.62,3.91,1.93,6,3.85,8.39.8,1,2,1.83,3.16.68s-.2-1.87-.66-2.8c-1-2.09-4.43-3.14-2.37-6.64.86-1.47,1.14-1.72,2.49-1,.84.44,1.85.56,2.72.95,4,1.82,5.67,1,5.11-3.19-.32-2.4.82-2.49,2.35-2.75a1.59,1.59,0,0,1,2.15.43c.56,1.1-.2,2.48.73,3.64,2,.11,1.87-2.73,3.72-2.71a1.41,1.41,0,0,1,1,.44c.95,1.8,1.89,3.61,2.83,5.4-1.47,1.21-5.09,0-4.54,2.89.48,2.51,3.36,0,5,.87C318.2,82.26,319.09,84.6,317.75,85.63Z"/><path class="cls-11" d="M403.26,280.35c8,.45,15.93-.66,23.9-.87s16.23-.28,23.78,2c6.25,1.86,12.93,3.73,18.32,7.91a14.59,14.59,0,0,1,5.31,8.64,4.6,4.6,0,0,1,.05,2.44,2.3,2.3,0,0,1-2.25,2,2,2,0,0,1-2.16-2c-.44-7-5.73-9.44-11.1-11.16-5.84-1.86-11.66-4-17.81-4.84-8.59,0-17.19-1.85-25.78.35-2.25.57-4.65.23-7,.22a33.83,33.83,0,0,0-8.53.24,16,16,0,0,1-2.85.13,19.59,19.59,0,0,0-4.26-.4,155.75,155.75,0,0,1-18.05-1.23c-5.54-1.29-11.24-.35-16.82-1.14-1.53-.22-3.38-.36-3.23-2.36s2-1.94,3.55-1.86c3,.15,6.05-.42,9,.35C379.3,280.16,391.18,282.45,403.26,280.35Z"/><path class="cls-2" d="M369.64,367.46a13.07,13.07,0,0,1-5.12-15.27,5.44,5.44,0,0,1,5.38-3.69h11.49c-4.4,2.95-2.57,5.48-.53,8-1,2.8,1.54,3.68,2.89,5.13.72.77,1.95,1,2.77,1.74,1.76,1.51,5.07,2.57,3.57,5.59s-4.5,4.09-7.78,3.23A45.56,45.56,0,0,1,372,368.12,10.6,10.6,0,0,0,369.64,367.46Z"/><path class="cls-12" d="M20.27,331.68c7.13-.8,12.37,3.27,17.53,7.14,14,10.49,29.37,18.52,45.18,25.8a31.34,31.34,0,0,0,9.22,2.23c11,1.35,21,6.69,32.22,7.26,2.21.11,2.25,1.63,1.17,3.25a55.54,55.54,0,0,1-16.15-2.82c-10.21-3.67-21.19-4-31.33-7.82-2.25-1-4.67-1.7-6.54-3.43L41.12,345.75c-2.1-.84-4.08-1.84-5.19-4-4.76-3.48-9.13-7.88-15.9-6.54a1.77,1.77,0,0,1-2.3-1.19C17.29,332,19,332,20.27,331.68Z"/><path class="cls-13" d="M330.82,115.55c-2.14-.43-4.28-.84-6.41-1.3-3.05-.67-4.13.68-2.84,3.3,1.45,2.93-.24,3.71-2.35,4.52-.32-.25-.79-.35-.83-.87.81-1,3-1.17,2.19-2.94s-2.41-.53-3.64-.26a29.61,29.61,0,0,0-4.34,1.28c-2.17.84-3.41.11-4-2-.11-5.36-2.49-10.39-2.29-15.8.84-1.34,1.21-.24,1.53.35,2,3.68,3.45,7.5,3.19,11.82-.08,1.3-.31,3.18,1.62,3.2s1.6-1.85,1.66-3.17c.22-4.71-1.37-8.91-3.48-13-.57-1.11-3-2.5-.93-3.66,1.89-1,3.74-2.72,6.62-1.8,7.66,2.45,10.35,8.44,11.86,15.42.4,1.84.49,3.7,3.15,3.16C331.29,114.34,331.06,115,330.82,115.55Z"/><path class="cls-14" d="M263.77,369a81,81,0,0,1,19.13-2.38c15.27.33,30.52-.54,45.78-.8,2.43-.05,4.94-.39,7.3.64-15.23-.63-30.07,2.75-45.09,4.31C281.75,371.72,272.88,368.56,263.77,369Z"/><path class="cls-15" d="M340.06,128a4.81,4.81,0,0,0-3.33,1.23c-4.21,3.82-8.88,2.9-11.39-2.1a1.6,1.6,0,0,1,.19-1.89c.64-.74,1.24,0,1.78.25,1.33.72,2.9,1.87,4,.14s-.85-2.55-2-3.45-2.54-1.68-2.91-3.81c2.54-.52,4.33.8,6.15,2.1,2.78,2,5.59,3.94,8.38,5.91Z"/><path class="cls-16" d="M248.82,33.49c-1.46-.73-3.93-.06-3.92-2.83,9.52-5,24.41,5.19,21.73,18.92-2.91,2.46-3.41,0-3.8-2-.67-3.49-1.13-7-3.55-9.85a9.21,9.21,0,0,0-5.69-3.29C252,34.25,250.63,32.7,248.82,33.49Z"/><path class="cls-17" d="M229.77,372.49a53.08,53.08,0,0,1-12.31-3.42c-1.15-1.23-3.87.23-4.19-2.43q10.6,1.42,21.22,2.87c7.25,1,14.54.38,21.81.47-3.53,1.53-7.34,1.18-10.87.74C240,370,235.06,372.71,229.77,372.49Z"/><path class="cls-18" d="M248.82,33.49c1.75-2.05,3.37-.17,5.05.16,1.82,1.13,3.76,2.05,5.6,3.14,3.48,2.68,3.73,6.69,4.2,10.54.25,2,.7,3.18,3,2.25.13.31.26.61.38.92.36,1.45-.27,2-1.67,1.94-2.15,0-4.31.09-6.46.14a1.27,1.27,0,0,1,0-1.82c2,.69,2.77-.17,2.69-2.18-.14-3.89-1.2-7.38-4.5-9.73C254.43,36.94,251.59,35.27,248.82,33.49Z"/><path class="cls-19" d="M367.38,278.73c-2.86,0-5.72-.09-8.58-.05-1.28,0-3.2-.44-3.33,1.41-.14,2,1.8,1.44,3.06,1.54L374.84,283c-1.33,2.34-3.33.81-5,.88-4.41.05-8.81.19-13.21.08-1.88-.05-2.86.57-3.22,2.34-2.55-2-2.58-4.53-1.77-7.3,4.21-.75,8.41-1.58,12.73-1C365.37,278.13,366.53,277.79,367.38,278.73Z"/><path class="cls-20" d="M520.28,98.66a1.52,1.52,0,0,1-1.65-1.08c-.36-1.19.41-1.8,1.43-2.08a90.08,90.08,0,0,1,13.28-2.89c1-.12,2,.08,2.26,1.24a1.47,1.47,0,0,1-1.27,1.81C529.77,96.66,525.19,97.61,520.28,98.66Z"/><path class="cls-21" d="M515.11,85.78c1.36.29,3.54-1.07,3.92,1,.43,2.27-2,2-3.47,2.51-2.48.81-4.93,1.68-7.42,2.44-2.17.67-3.64.35-3-2.47C507.84,86.22,511.58,86.31,515.11,85.78Z"/><path class="cls-22" d="M475.29,73.07c-.38-2,1.13-2.59,2.49-3.26a44.49,44.49,0,0,1,4.86-2.25c1.54-.54,3.61-2.51,4.7-.33,1.2,2.39-2,2.29-3.1,3.45C481.54,72.56,479,74.79,475.29,73.07Z"/><path class="cls-23" d="M536.33,70.6a20.37,20.37,0,0,1-9.19,1.72,2.43,2.43,0,0,1-2.62-2.14c-.19-1.46.85-1.86,2-2,2.09,1.61,4.2.25,6.32.09C534.6,68.11,536.73,67.54,536.33,70.6Z"/><path class="cls-24" d="M223.24,65.67c4.16-3,9-4.1,13.93-5,1.14,1.56,1.14,2.28,0,3.59A6,6,0,0,1,232.37,66a11,11,0,0,0-3.42.28,3.13,3.13,0,0,1-2.12.29c-1.53-1.75-2.51,0-3.66.58C223.19,66.66,223.22,66.16,223.24,65.67Z"/><path class="cls-25" d="M188.44,84.07c-1.8-1.53-.59-4.31-2.47-5.87-.48-.39-.22-1.3.34-1.84a1.74,1.74,0,0,1,2.25-.09A4.42,4.42,0,0,1,191,80.68,5.25,5.25,0,0,1,188.44,84.07Z"/><path class="cls-26" d="M525.73,66.64c-1.37,0-2.6,2.37-4,.6-1.11-1.45.17-2.69,1.43-3.24,1.93-.84,4-3.77,6,0Z"/><path class="cls-27" d="M471.89,106.92c-1,1.8-3.08,2.27-4.92,2.91a1.32,1.32,0,0,1-1.8-1.55c.51-2.51,2.79-2.72,4.74-3.12C470.92,105,471.79,105.43,471.89,106.92Z"/><path class="cls-28" d="M515.11,85.78l-9.95,3.43c-.57-1.28-1.87-.77-2.81-1.16l10-3.36C513,85.85,514.19,85.43,515.11,85.78Z"/><path class="cls-29" d="M149.38,80c2.73-.49,5.67.68,8.23-1.06a3,3,0,0,1,1.92.94c2.68,1.53-.3,3.93.87,5.69-1.56.52-1.65-.62-1.86-1.63,0-1.06,1.15-2.36-.45-3.11s-1.83,1.13-2.86,1.5C154.21,79.21,150.89,81.87,149.38,80Z"/><path class="cls-30" d="M475.29,73.07c3.61,1.55,5.75-2.38,8.95-2.39.55,1.17,1.76.57,2.62,1a60.65,60.65,0,0,1-13.34,3.28Z"/><path class="cls-31" d="M511,55.57c-.38,1.54-1.71,1.89-3.06,2.07-1,.14-2.08-.23-1.92-1.46.22-1.6,1.63-2,3-2.18C510,53.9,510.87,54.23,511,55.57Z"/><path class="cls-32" d="M35.93,341.77a22.12,22.12,0,0,1,5.19,4C38.35,345.78,36,345.31,35.93,341.77Z"/><path class="cls-33" d="M71.57,363.29c2.33.85,4.79,1.46,6.54,3.43C75.21,367,72.86,366.13,71.57,363.29Z"/><path class="cls-34" d="M156.87,326.93c2.34.26,2.95-1,2.5-3-1-4.3-.37-8.84-2.06-13a3.63,3.63,0,0,1-.28-1.62c.71-9.92.48-19.83,4.78-29.38,2.86-6.35,7.66-11.82,8.76-19.82,2,3.12,3.07,5.9,5.56,7.65a1.47,1.47,0,0,1-.22,2.7c-4.49,2.15-4.24,6.77-5.52,10.52a17.53,17.53,0,0,1-2.08,4.9c-4.69,6.31-5.94,13.82-7.78,21.17-.67,2.71,1.46,3.41,2.79,4.47,1.49,1.19,2.28-.63,3.33-1.42,5.22-3.94,4.12-10.44,6.28-15.61,3.43-8.21,7.36-15.91,13.85-22.11,3.24-3.1,2.9-5.87-1.1-8.17-.82-.47-2.08-.7-2-1.81.11-1.44,1.67-1.21,2.61-1.54,3.06-1.1,6.43-.91,9.33-3,4.24-3,5-7.6,1.59-12.82-3.26-5-3.3-5.32.85-9.29,3-2.88,3.45-6.78,4.51-10.45a1.53,1.53,0,0,0-.71-1.79,1.16,1.16,0,0,0-1.74.56c-1.34,5.47-4.54,9.78-8.27,13.81-.37.4-.18,1.32-.24,2-.86.38-1.39,1.26-2.32,1.54-4.07.37-5.35,2.39-3.2,6.43s.41,4.43-2.89,4.5-6.81.17-10.15,1.61c4.73-5.65,4.4-13.63,9.31-19.21,1.34-1.52,0-3.7-.57-5.52-1.49-4.78,2.65-9.65,7.41-8.28,5.14,1.49,9.74.16,14.35-1.6A210.61,210.61,0,0,1,230.32,211c2.26-.53,2.75.23,3,2.41.59,6.42,1.47,12.82,2.28,19.22a37.27,37.27,0,0,1,.16,9.84,13.63,13.63,0,0,0,.79,7.28c-3.36,1.19-6.84,2.07-9.89,4.07-2.13,1.39-3.92.62-5.3-1.38-.53-.77-.61-1.86-1.66-2.31-1.1.8,0,1.74-.15,2.59-.82,3.5,2.2,4.26,4.16,5.78,3.07,3.68,3.06,7.28,0,12.06-2.57,1.77-5.66.36-8.39,1.71a30,30,0,0,0,8,.26c4.63-.4,4.78-.27,5,4.46,1.62-2.71,1.62-2.71-1.55-6.81a3,3,0,0,1,.77-3.06c1.49.52,2.18,2.06,4.14,2.32,2.66.35,1.92,3.19,1.34,4.69-3.11,8.17-3.65,16.88-5.75,25.24-1.2,4.78-.49,9.56-.61,14.35-.09,4.24.56,8.5-.6,12.71-.34,1.27-.5,3.18,1.23,3.44,2,.28,1.68-1.64,1.86-3,.29-2,.66-4,1-6.06,1-2.87,1.68-5.95,4.07-8.15,2,1.41,2.68,0,3.17-1.57,1.43-4.54,2.31-9.31,6-12.86a3.85,3.85,0,0,0,.72-3.93c-2.28-6.31,1.3-11.14,3.83-16.25.24-.49.6-.92.88-1.4,3.34-5.74,4-5.86,8.8-1.29,2.31,2.2,4.5,4.23,8.08,4.39,2.88.14,1.39,2.79,1.47,4.28.11,1.88-1.33,1.4-2.64,1.31-1.84-.13-2.93-1.28-4.27-2.23-5-3.49-9.19-1.84-10.6,4-.54,2.27-1.31,4.49-1.83,6.77-.31,1.35-1.27,3.33,1,3.64,1.83.24,1.95-1.52,1.89-3a1.91,1.91,0,0,1,.69-1.82c2,.5,3-2.29,5.13-1.62-.77,3-3.74,4.26-5.26,6.65-.7,1.09-2,2.41-.43,3.56,1.38,1,2.26-.48,3-1.4a98,98,0,0,1,9.25-10c.25-.24.73-.24,1.33-.42a6.17,6.17,0,0,1-1.63,5.69c-8.34,9.31-9.72,21.63-14.17,32.62-.69,1.72-.55,3.24-3.12,3.15-1.89-.07-3.12,1.64-3.77,3.36-.48,1.27.17,2.11,1.53,2.34,2,1.51,4.83-.35,6.68,1.71-1.19,1-2.64.73-4,.67-13.66-.65-27.32.15-41,0-4.76-1.2-5.81-3.35-4.37-8.92.84-1,2.26-.91,3.36-1.62-4-4.44-2.34-9.68-1.92-14.66.16-1.87,1.79-1.83,3.12-.73,1.5,1.23,2.95,2.53,4.89,3s3.13.39,2.73-2.35c-.82-5.6-.67-5.62,4.46-8a16.32,16.32,0,0,0,4.8-3.2,4.55,4.55,0,0,0,1.22-5.28,4.91,4.91,0,0,0-4.9-3.14,8.82,8.82,0,0,1-1.23.12c-5.24-.62-9.55-.19-9.5,6.8a3.57,3.57,0,0,1-3.27,3.31c-2.15.1-2.11-2.15-2.78-3.55a2.5,2.5,0,0,1-.34-1.19c.59-10.44-2.06-21.07,2.4-31.29,3-6.79,2.93-14.33,4.53-21.62-7.21,8.49-11.11,18.84-17.07,27.91,2.79.49,5.92-2.57,8.18-.47,1.94,1.82.32,5.24.84,8,1,5.22-.37,10.4-1.06,15.58-1.75,2.4-.27,4.78.12,7.13.33,2,1.35,3.9,1.75,5.93-.38,3.84-.14,7.72-.9,11.52a39.2,39.2,0,0,0-3,5.33c-4.46,2.19-9.09,1.23-13.69.71-1.66-1.43-3.31-2.86-1.66-5.32a3.55,3.55,0,0,1,3.16,0c.64,2.11,1.75,3.42,4.2,2.48,1-.22,2.08.05,3.09-.16-.12-3.88-.26-7.73-2.63-11a11.06,11.06,0,0,1-1.25-7.13c3.27-.93,2.93,3,5.39,3.82-1.75-4-2.73-7.67-5.45-11.22-3.95-5.14-7.84-11.42-2.91-18.48.38-.53.7-1.2.14-3-1.53,5-5.1,7.89-5.72,12.78-.6,4.7-2.49,9.35-4.51,13.69-2.91,6.27-1.73,11.69,1.92,17a4.15,4.15,0,0,1,.94,2.25c-.66,2-3,2.86-3.42,5-7.59.57-15.15,1.9-22.78.9a1.47,1.47,0,0,1-.83-.94c1.33-2.27,3.45-1.67,5.34-1.25C157.61,328.09,156.75,327.26,156.87,326.93Z"/><path class="cls-35" d="M226.83,66.58l1.2-.72c4.07,2,7.71,4.75,11.42,7.3A10.47,10.47,0,0,1,244,80.7l3.12,4.46a87,87,0,0,0,4.7,11.46,22,22,0,0,1,2.77,11.12A21.21,21.21,0,0,0,257.74,120a16.54,16.54,0,0,1,2,5c1.19,5,2.65,9.83,6.52,13.51a3.13,3.13,0,0,1,.92,3c-.73,3.71.41,7.09,1.69,10.46.39,3.37-1.83,2-3.37,1.87-1.81-.64-3.56-1.75-5.53-1.53-5,.57-8.27-2.09-10.62-5.84-3.29-5.23-7.09-10.19-9.54-15.93a16.06,16.06,0,0,0-3-4.94c-5.87-6-8.33-13.85-11.29-21.4-.25-.64-.41-1.32-.67-2-3.58-9-3.38-10.33,2.6-17.81-5,2.85-7.84,9.09-5.7,13.86,2.54,5.66,4.24,11.65,7.09,17.21a96.92,96.92,0,0,0,7.21,11.44c3.69,5.25,6.52,11.14,10.09,16.54,3,4.57,5.59,9.69,12.38,9.34,1-.05,2.36.17,2,1.88-1.52,1.34-3.28.44-4.94.51-2.51.1-4.31.45-4.61,3.85-.23,2.46-3.05,3.51-6.12,4.8,1.68-3.84,3.07-6.94,3.56-10.34.17-1.15,1.34-2.59-.44-3s-2.9,1.13-3,2.67c-.23,3.15-1.52,5.84-2.92,8.54-.19.37-.44.7-.66,1.05-1.18,1.09-2.63,1.12-4.1,1.07-7.92-7-15.68-14.22-24.52-20.15a35.44,35.44,0,0,0-13.55-5.93c-2.69-.46-3.06-1.84-2.42-3.51,3.89-10.19,2.6-21.32,5.95-31.59,1.33-4.1,2.65-8.2,5.39-11.57,5.65-6.94,10.22-14.76,16.94-20.83A4.82,4.82,0,0,0,226.83,66.58Z"/><path class="cls-35" d="M166,194.26a7.72,7.72,0,0,0-1,4,191.77,191.77,0,0,0,1.71,33c.21,1.52.23,2.71-1.51,3.27-4,1.3-7.62,4.63-12.47,2-1.77-.95-4.31,0-6.26.24-13.91,1.66-27.33-2.18-41-3-2.2-.13-3.22-1.16-2.08-3.2,3.63-6.5,3.19-14.4,7.41-20.76,2-3.09,2.5-7,2.91-10.68,1.18-10.76,6.71-19.72,11.92-28.81,1.36-2.37,3-.57,4.2.15a117.71,117.71,0,0,1,21.64,15.86C155.47,190.13,160.82,192.24,166,194.26Z"/><path class="cls-36" d="M235.75,205.69c-.61,1-1.91,1.4-2.46.73-2.82-3.42-6.88-2-9.4-1.11-4.79,1.67-9.43,1.44-14.19,2A55.74,55.74,0,0,0,189.53,214c-1.11.6-2.41,2-3.7,1s-.61-2.75-.29-4.25c.57-2.69.75-5.16-1-7.82-1.3-2-.23-4.72.49-7.08.42-1.41,1.45-2.83.67-4.36-1.37-2.71-4.51-5-.76-8.45,1.11-1-.8-3.22-2-4.08-2-1.44-1.51-2.66-.77-4.52a65.83,65.83,0,0,1,8.12-14.75c.9-1.24,2-2.71,1.41-4.17-1.87-4.93,1.33-4.44,4.33-4.32.55,0,1.1,0,1.65,0,9.75,1.07,18.82,3.78,26.11,10.8,1.7,1.64,3.48,3,5.38.33.54-.74.85-.37,1.24-.07s.72.9,1.19,1.14c11.76,6.15,7.75,17.11,8.16,26.72,0,.39-.09,1.08-.3,1.14-5.37,1.68-1.75,4.41-.56,6.45s1.53,3-.82,4.17C236.54,202.5,235.21,203.63,235.75,205.69Z"/><path class="cls-3" d="M151.13,328.68a1.2,1.2,0,0,0-.08.5c-4,2.63-8.64.84-12.83,2.09a10.71,10.71,0,0,1-3.71.12c-10.47-.1-20.93-.21-31.38.07a3.69,3.69,0,0,1-1.48,0c-2.58-1.48-2.56-3.79-2-6.27,1.25-11.52,8.44-21.2,10.07-32.62a3.5,3.5,0,0,1,1.5-2.34c4.7-2.46,6.53-7.19,9.19-11.27,4.79-2.78,10-2.26,15.2-1.92,2.82.19,5.06-.21,7-2.39,1.76-2,3.8-3.08,6.5-1.44,1.54.94,3.2.12,4.81-.12,2.34-.35,4.68-.62,6.33,1.68-1,4.84-4.11,9-4.81,13.89-1.23,8.61-2.7,17.22-.54,25.92a24.69,24.69,0,0,1,.34,4c-.31,3.23-.71,6.32-5.15,6.18a2,2,0,0,0-2.14,2.08c.06,1.31,1.59.47,2.3,1A2.53,2.53,0,0,1,151.13,328.68Z"/><path class="cls-35" d="M262.24,220c1.47-1.88,3.58-3.47,1-5.7-.33-.28-.26-1.4,0-1.93,2.42-4.7,3.27-10.18,7.95-13.72s5.47-8.89,5.44-14.32c0-1.68.12-2.22,1.95-1.89a46.92,46.92,0,0,0,6.17.45,5.82,5.82,0,0,0,2.44-.23,29.36,29.36,0,0,1,21.61-.76c4.62,1.58,9.83,1.07,14.17,3.88.55.36,1.63.06,2.4-.15,4.22-1.14,4.37-1.12,3.07,3.29A232,232,0,0,0,321,221.38c-.52,3.63-2.78,5.06-6,5-9.64-.13-19.26-.69-28.58-3.46-5.65-1.68-11.3-3-17.27-2.13C267,221.1,264.81,221.4,262.24,220Z"/><path class="cls-3" d="M249.79,338.49c-1.87,0-3.74-.13-5.6-.05-1.48.07-1.54-.58-1.08-1.66,1.87-1.9,3.64-3.45,6.81-2.4,1.93.63,3.34-.61,1.8-2.84a3,3,0,0,1-.14-3.14c3.62-8,5.15-16.86,9.13-24.78,1.45-2.88,3-3.42,6.48-2.94,13.39,1.84,26.66,4.35,40,6.31,6,.88,11.92,2.18,17.88,3.28a14.09,14.09,0,0,1,4.3,0c5.84,5.7,6.06,12.85,5.48,20.32-.25,3.3-1.78,4.15-4.85,4.51-11.84,1.38-23.73,1.34-35.58,1.33C279.5,336.39,264.66,337.48,249.79,338.49Z"/><path class="cls-35" d="M158.54,83.93l1.86,1.64c3.91.74,5.25,4.42,7.06,7,6.87,9.93,12.25,20.53,10.42,33.27-.55,3.79-1.55,4.24-4.4,2.09a4.84,4.84,0,0,0-3.58-.61c-7.11.7-14.32.48-21.34,2.12a21.16,21.16,0,0,1-4.1,0c2.89-2.93,3.15-7,5.45-9.32,3.67-3.67,6.34-7,4.9-12.51-.2-.79,1.45-1.92,1.9-3a2.36,2.36,0,0,0-1.22-3.16c-1.43-.64-1.58.59-2.2,1.57-1.68,2.67-2.91,5.22-1.58,8.44a1.88,1.88,0,0,1-1.28,2.63,5.7,5.7,0,0,0-3.17,3.66c-1.9,5.12-5.11,9.4-8.18,13.8-.75,1.07-2.09,2.37-.51,3.56s2.39-.47,3.27-1.47c.85.24,1.16.94,1.44,1.68,2.06,3.24,5.19,1.66,7.88,1.58a55.19,55.19,0,0,0,8.16-1.12c1.87-.35,3-.06,2.89,2.14,0,1.23.22,2.47.28,3.71.3,6.39-.85,7-7,6.57-9.06-.58-18.18-.55-27.27-.4-3.68.06-5.86-.74-6.07-4.75a10.24,10.24,0,0,0-.86-4c-3.11-6.05-.23-11.2,2.39-16.31,1.89-3.68,4.35-7.11,5.23-11.2a15.33,15.33,0,0,1,8.07-10.5C145.23,96.65,152,90.49,158.54,83.93Z"/><path class="cls-37" d="M242.17,203.19c2.29-.88,3.92-2,1.92-4.69a5.36,5.36,0,0,1-.8-3.54c.12-5.91.39-11.82.29-17.72,0-2.26.65-2.64,2.55-2.05.39.12.86,0,1.2.23,6.29,3.52,13.19,5.29,20,7.38,4,1.22,4.67,3.52,3.27,7.44-.37,1-.7,2-1.05,3.07-.29,1.25-.33,2.62-1.64,3.37-5.48,5.37-7.2,12.83-10.46,19.39-1.36,2.74.57,6.15,3.83,7.17s2.86,2.48,1.58,4.68-2.38,4.32-3.59,6.48c-.83,1.48-1.55,3-.27,4.56a2,2,0,0,1,.07,1.88,7.13,7.13,0,0,0-2.46,5.73,16.59,16.59,0,0,1-2.74,10c-3.26,2.22-2.36,5.91-3.2,9-2.9,5.27-6,10.45-8.63,15.86-2,4-4.44.92-6.52.75-2.8-.23-1.1-2.41-.61-3.43a13.81,13.81,0,0,0,.29-11.59c-1.34-3.48-1.36-6.92,2-9.64a24,24,0,0,0,2.61-3.2c.76-.89,1.59-2.13,1-3-4.05-6.32-.51-13.28-1.86-19.79.42-6.27-1.39-12.26-2.36-18.36-.33-2.19.68-3,2.8-3.53,2.27-.53,5.13-1,4.53-4.6C243.51,204.28,241.66,204.86,242.17,203.19Z"/><path class="cls-34" d="M99.69,325.15a12.72,12.72,0,0,0,1.85,5.64c-.81,1.3-2.25,1.36-3.51,1.78a26.47,26.47,0,0,1-9.31-.07,9.53,9.53,0,0,0-5.59.37,1.42,1.42,0,0,1-1.2-.36c-1.91-2.66-4.82-2.65-7.67-2.94-1.59-.17-3.65.59-4.34-1.82.58-.49,2.23.46,1.85-1.31-.65-3.05,1.2-5.41,2.12-8,0,1.64,0,3.29.06,4.94,0,.86.24,1.74,1.31,1.73s1.3-.82,1.4-1.71c.18-1.68-.43-3.51.74-5.21.37.4.59.55.67.76.54,1.47-.83,4.51,1.86,4.1s2.18-3.92,1.3-5.19c-4-5.72-.75-10.73.77-16a208.44,208.44,0,0,1,9.49-25.52c.43-.43.63-1.35,1.56-.76,2,1.73,2.76.15,3.69-1.33s1-3.74,2.78-5.15c1.53,2,1.41,4.47,2.12,6.63.31.95.87,1.94,2,1.77s1.31-1.37,1.13-2.33c-.34-1.89-.81-3.76-1.29-5.63-.9-3.48-2-6.91.14-10.4a4,4,0,0,0,.11-2.8c-1.5-5.58,1.33-14.55,5.68-17.57a2.61,2.61,0,0,1,1.57-.32c6.45.41,12.9.93,19.36,1.28,2.77.15,2.35,1.33,1.47,3.16a250.59,250.59,0,0,1-17.18,30.64c-2.77,4.16-5.29,8.42-6.6,13.27a10.49,10.49,0,0,1-4.15,5.53c-6.26,4.81-7.25,12.08-9,19-.28,1.08-.55,2.8,1.24,2.94,1.55.13,1.75-1.33,2.08-2.59,1.32-5,1.89-10.34,5.41-14.54a21.29,21.29,0,0,1,2.3-1.84c-.84,3-1.1,5.25-2.07,7.13a77.22,77.22,0,0,0-7.07,21.45c-.27,1.46-2.06,3.43.28,4.29C99.13,328.87,98.48,325.9,99.69,325.15Z"/><path class="cls-35" d="M307,120.89c-5.08,1.13-9.95,2-14.56,3.76-.85.33-2.18,1.15-2.75-.56-.49-1.48.4-1.75,1.62-2.13,1.59-.49,1.44-1.92.83-3.09-1.78-3.42-3.54-6.87-5.59-10.12-.93-1.46-2.55-3.11-3.84,0a1.12,1.12,0,0,1-.53.58c-1.26.49-3.57-.61-3.57,1.7s2.5,2.23,4,3.07c2.44,1.39,3.42,2.86,3.27,6.18-.19,4.32.73,8.68-.53,13-.43,1.5.81,2,2.14,2.4,4.69,1.59,9.57,1.58,14.34,1.32,7.87-.43,13.08,2.81,16.56,9.73.91,1.8.77,2.38-1,2.84-8.26,2.18-16.59,3.14-25,1.2a8.77,8.77,0,0,0-3.64-.14,19.75,19.75,0,0,1-10.2-.49,8.26,8.26,0,0,0-2.8-.56c-4.33.07-5.48-1-5.27-5.4.15-3.18.34-6-2.15-8.81-1.69-1.89-.11-5.24-1.13-7.88-2.75-7.16-1.7-14.34.09-21.55a13.64,13.64,0,0,1,7-9.24,84.27,84.27,0,0,0,8.69-5.57c1.2-.87,1.86-.8,3.21-.2,7.13,3.14,10.25,9.8,14,15.83C302.67,111.07,304.52,115.84,307,120.89Z"/><path class="cls-37" d="M290.26,248.89a22.56,22.56,0,0,0,4.39-9.89c1.19-5.71,3.64-8.84,10.42-8.69,1,0,1.93.2,2.89.18,1.16,0,2.32-.2,3.48-.31-3.52.57,1,2.85-1,4.4-2.77,2.07-1.7,5.17.51,7.19,5.89,5.42,8.17,11.87,7,19.79-.64,4.3.93,8.46,2,12.56.77,2.88,0,3.36-2.79,3.51-14.05.76-28.1-.48-42.47.59.18-7.52,4.27-13.28,7.84-19.27,1.44-2.4,4.11-4.23,3.71-7.55C286.06,248.14,289.2,250.18,290.26,248.89Z"/><path class="cls-3" d="M353.31,286.17a9.73,9.73,0,0,0,5.21,1.08c19.22-.32,38.32,1.64,57.42,3.35a94.06,94.06,0,0,1,9.76,1.82c1.31.26,3,1.18,3.6-.59.7-2.19-1.47-2.13-2.83-2.59-.76-.25-1.48-.62-2.77-1.18,6.57.18,12.52.57,18.34,2.07,2.86,2.07,6.24,2.64,9.57,3.37,2.46.53,4.49,1.48,4.18,4.57-2.27,3.36-6,2.65-9.26,3.36-3.5-.45-6.7,1.09-10.07,1.58a2.29,2.29,0,0,1-1.85-.08c-23.16-1.2-46.34-.72-69.51-.91-3.94,0-7.9-1.77-11.84,0v-.1c-1-1.17-.41-2.93-1.51-4.06C350.93,293.76,354.76,290.32,353.31,286.17Z"/><path class="cls-38" d="M339.21,280.35c-.19-1.26.47-3.19-1.58-3.22-2.35,0-1.71,2-1.79,3.43a26,26,0,0,0,1.8,12.15c.42,1,1.32,2-.08,2.87-.91.57-1.88,1.43-3,.95s-.85-1.86-1-2.92c-.94-6.85-2.36-13.48-8.42-17.94-.9-.66-.68-1.73-.82-2.66-.87-5.85-1.87-11.68-2.63-17.54s-3.93-10.28-7.39-14.67c-.9-1.13-2.54-2.08-1.56-3.85a4.08,4.08,0,0,1,3.74-2.17c2.1,0,2.35,1.54,2.84,3,.31.9,1.08,2,.85,2.7-1.68,5.36,2,4.39,5,4.42a50.55,50.55,0,0,1,5.37.1c5.56.62,5.69.9,3.71,6.45a.82.82,0,0,1-1,.14c-1.31-.47-1.79.35-1.92,1.38-.74,6,1.15,11.54,3.18,17,.27.74,1,.79,1.65.2a3.84,3.84,0,0,1,1.56-1.43c3.86,1.36,2.45-1.28,1.83-2.66-2-4.43-2.05-9.07-1.9-13.76a7.52,7.52,0,0,1,.34-2.83c.48-1,.88-2.75,2.19-2.62s1.26,1.86,1.5,3c2.32,11.53,2.64,23.45,6.67,34.66a8.36,8.36,0,0,1,.15,6.05c-2.21,5.65-1,11.23.42,16.8.2.78.57,1.73-.12,2.34-.85.74-1.43-.18-2.06-.65-.89-.67-2.29-.8-2.26.34.05,2.82-2.14,5.58-.25,8.41.77.51,1.2,2.06,2.14,1.58,1.62-.82.24-2.82,1.08-4.09,4.21-.67,4.89,1.21,3.52,4.74-.66,1.69.86,2.27,1.76,3.29a45.23,45.23,0,0,1,6.58,9c-6.4.94-12.84,1-19.26,1.41-2.09.15-2.42-.8-2.25-2.39.26-2.45.62-4.89.94-7.39,1.82-.36,2.47,1.5,3.81,2,.89.36,1.75,1,2.65.14s.55-2-.17-2.93a61.92,61.92,0,0,0-7.86-9,24.6,24.6,0,0,1-2.32-2.36c-5.94-7-5.12-9.22,3.76-11.62,2.1-.56,6.94.14,4-4.92a1.54,1.54,0,0,1,1.15-1.12c1.35-.21,1.38-1.05,1-2.1a26.14,26.14,0,0,1-1.63-9.23c0-1.43-.4-2.55-2.18-1.41A1.44,1.44,0,0,1,339.21,280.35Z"/><path class="cls-37" d="M160.26,274.73a10.88,10.88,0,0,0-7.63-.3c-1.47.47-3.25,1.54-4.74-.65-1-1.51-2.6-.68-3.46.51-2.61,3.6-5.91,4.3-10.27,3.81s-8.8-1.24-12.74,1.72c-.58.44-.79-.42-1-.9,1.48-2.68,2-5.59,2.62-8.57,1.51-7.11,5.12-13.31,9.86-18.8,2.34-2.71,4.9-5.23,7.16-8,1.12-1.38,2.09-1.83,3.84-1.31,3.83,1.14,7.67,2.17,11.44,3.52a8.05,8.05,0,0,1,5,4.92c1.65,4,2.51,8.36,4.74,12.27,1.16,2-.57,4.81-2.1,6.77A23.5,23.5,0,0,0,160.26,274.73Z"/><path class="cls-5" d="M331.09,158.58c2.1,5.39-1.44,10-1.79,15.06-.83-1.11-1.67-2-1.47-3.33.8-5.31-3.32-7.8-6.3-10.92a1.85,1.85,0,0,0-1.09-.53c-1.7-.17-7.84,5.06-7.54,6.89.82,5-2.5,5.71-6,6.32-2.15.37-4.32.63-6.6,1,.08-1.8,1.49-1.74,2.25-2.36,1-.79,2.35-1.44,1.46-2.93s-2.08-.77-3.18,0c-.79.54-1.66,1-2.47,1.5-4.45,2.93-9.59,2.42-14.51,3.28-6.19,1.09-8.29-2.52-10.07-6.66-1.55-3.59-2.18-7.57-3.22-11.38l-.05.06c3.23-1.36,6.44-.92,9.89-.72,12,.67,24.12,3,36-.58,2.42-.73,6-.26,6.05-4.59,0-.78,1.57-.84,2.53-.89,2.77-.17,4.05,1.34,4.74,3.87C330.36,153.91,330.15,156.35,331.09,158.58Z"/><path class="cls-39" d="M364.2,314.39c4.91-2.41,9.77-.09,14.58.37,18.26,1.74,36.55,2.68,54.89,3,.62,0,1.24.08,2.72.17a18.5,18.5,0,0,1-6.45,3.14c-10.05,2.45-20.25,4.06-30.47,5.58-6.37.95-12.63,2.26-18.33,5.74-1.59,1-4.3.17-6.49.12-4-.08-9.45,1.33-11.55-.71-2.51-2.45-4.48-6.31-6.85-9.44-.08-.09-.05-.26-.08-.4,1.64-2.84-1.05-5-1.15-7.59a12.32,12.32,0,0,1,6.68-.08c-.2.8-1.74,1-.83,2.46C362.18,316.25,362.94,314.92,364.2,314.39Z"/><path class="cls-40" d="M82.4,332.89c.94-1.72,2.24-2.26,4.26-2,3.73.53,7.52.71,11.28,1,3.12,1,6.3.2,9.45.25,24.41.38,48.72-1.35,73-3.18,5.49-.42,11-.1,16.54-.1,1.37,0,2.78.1,3.75,1.32.23,3.49-.5,7.42,4.11,8.87-15.83-.78-31.68-2.48-47.49-2.07-18.07.46-36.09-.56-54.13-.29a5.37,5.37,0,0,0-2,.05c-6,2.94-11-.74-16.34-2.44C84.4,333.25,82.41,334.68,82.4,332.89Z"/><path class="cls-41" d="M448.59,325.24c-6.37,1.73-12.91,3-19.06,5.3s-12.91,1.64-18.91,3.29c-7.79,2.15-14.72-1.63-22.08-.67,5.7-3,12-3.65,18.19-4.4,9.89-1.19,19.51-3.64,29.2-5.77.68-.15,1.59-.11,2-.54,7.06-7.85,16.18-3.23,24.51-4.67A2.37,2.37,0,0,1,460.3,320C455.87,320.57,451.48,321.23,448.59,325.24Z"/><path class="cls-41" d="M282.88,289.42c-2.44,0-4.77-1.68-7.27-.57-.85.37-1.86.91-1.74,2.06s1,1.22,1.86,1.22c9,0,17.13,4,25.84,5.35,7.89,1.24,15.67,3.24,23.54,4.62,2.23.39,2.81,1.2,2.42,3.18-2.4.84-5-.36-7.38.75-16.35-2.48-32.47-6.36-49-7.72-1.64-.13-4.66.6-4.95-2.24-.32-3.14,3-7.26,5.57-7.51a105.41,105.41,0,0,1,15.28-.65C286.52,290.79,284.09,288.41,282.88,289.42Z"/><path class="cls-34" d="M250.68,265.56c-1-3.51-1.81-7,2.41-9.14,1.39,1,2.82.57,4.25.13,2.49-.27,4.72,2.33,7.33.66,3.24-1.52,6.76-1,9.95-.49,2.81.44.76,2.47,0,3.79-3.29-1.21-3.43,1.88-5.23,3.53,3.1.16,2.78-3.55,5.22-3.5,2,6.6-2.42,11-6.05,15.12-1.72,2-5.21,1-7.43-1.09s-4.51-4.42-6.73-6.66C253.33,266.83,252.34,265.68,250.68,265.56Z"/><path class="cls-42" d="M286.18,235.73c1.32,0,3.19-.47,1.92,2-.62,1.21-1.67,2.58.31,3.42,1.25.52,2.61.81,1.49,2.45-.87,1.28-1.65,3.1-3.84,2.29-3.22-1.19-6.62-2.08-9.61-3.7-3.67-2-7.25-3.9-11.47-4.37-2.62-.29-3.24-1.51-1.62-3.8a29,29,0,0,0,2.09-4c3.1-6.31,6.49-7.58,13.63-4.83-2.73-.94-5,.32-7.19,1.45-1.13.57-2.29,1.38-1.72,2.86.45,1.18,1.69,1.32,2.84,1.15,2.14-.31,4.61-2,5.42,1.92.19.91,1.74.68,2.61.24,3-1.55,4.74-1.12,4.42,2.71a5.25,5.25,0,0,1-4,2.36c-.95.1-2.15.11-1.59,1.56.4,1,1.4,1.19,2.4.71A7.7,7.7,0,0,0,286.18,235.73Z"/><path class="cls-43" d="M325.26,291.2c.88,2.42,2.61,5.54,1.12,7.3s-4.53-.31-6.85-.83c-9.76-2.21-19.71-3.46-29.34-6.27a4.51,4.51,0,0,1,2-3.63,113.37,113.37,0,0,1,25.58,0c-4,2.37-8.23-.54-11.86.56C312.12,288.67,319,287.91,325.26,291.2Z"/><path class="cls-38" d="M321.15,230.82c-.62-1.76.88-2.44,1.81-3.33a23.39,23.39,0,0,1,7.82-4.49c1.31-.52,2.91-2.06,4.12-.93,2.37,2.2,7.27,2.19,6.25,7.56-.64,3.44-.3,7.08-.24,10.63,0,2.16-.8,3.05-2.92,2.76-3.8-.52-7.61-1-11.39-1.6-2.4-.39-1-1.83-.41-2.65,1.67-2.34,3.6-4.5,5.28-6.85,1.19-1.67,1.69-3.37-1.3-3.72-1.35-1.91-2.35.06-3.44.39C324.82,229.17,323.48,231.24,321.15,230.82Z"/><path class="cls-44" d="M168.77,196.87c2.72,0,5,2.79,7.89.51,0,1.24.3,2.32,0,3.13-3,7.14-1,14.73-2.06,22a3.65,3.65,0,0,0,1.83,3.84c1.25.82,2,3.13,1.41,3.53a11.27,11.27,0,0,1-6.13,1.55,1.93,1.93,0,0,1-2.07-2.1C169.46,218.55,166.39,207.8,168.77,196.87Z"/><path class="cls-45" d="M290.26,248.89c-1,1.38-3.72,0-4,2.51-.62-.23-1.48-.85-1.83-.64-4.65,2.88-9.66,3-14.89,2.48-2.12-.2-4.32.41-6.48.66-2.61-4.1-5.76-8-4.3-13.41.1-.51.19-1,.29-1.53a11.6,11.6,0,0,0,4.92,1.91c5.42.35,9.56,3.92,14.37,5.81C282.16,248.19,286,249.48,290.26,248.89Z"/><path class="cls-46" d="M192.84,50.45c.34,1,1.19,2.08-.18,3-2.48.08-5.25,1.61-7.07-1.46a59,59,0,0,0-5.82-9.28c-1.5-1.86-3.05-3.93-6-3.37A6.61,6.61,0,0,0,172,40.7c-1.33,4.72-.1,9.56-.77,14.31a5.46,5.46,0,0,1-.93,1.83L158.7,59.26l3.09-7.66c1.66-.5,1.05,1.31,1.78,1.75.5.74,1.21,1.31,2.07.91,1.94-.9,2.82-8.7,1.15-10.06-.35-.28-1-.07-.95-.92,0-2.33,4.77-7.43,7.32-7.43a18.08,18.08,0,0,1,16.09,8.79C190.42,46.59,189.83,49.63,192.84,50.45Z"/><path class="cls-47" d="M195.88,123.79a8.77,8.77,0,0,1-.72,4.82c-.33.74-.62,1.7-1.69,1.34-4.26-1.46-8.63-.74-13.28-.51a42.73,42.73,0,0,0,1.68-14.19c4.43.42,8.71,1.8,12.95.08,2.06-.07,1.28,1.52,1.47,2.53C196.65,119.87,195.66,121.79,195.88,123.79Z"/><path class="cls-47" d="M331.09,158.58c-1.61-1-1-2.8-1.27-4.16-.56-3.11-1.95-5.35-4.82-6.68,2.94-1.28,4.94-3.16,5.42-6.62.62-4.45,4.38-6.38,7.68-8.62.8-.54,1.27-.21,1.73.33,2.32,2.78,4.42,5.68,4.34,9.54-.07,3.24-5.05,6-9.31,5.13-1.2-.25-2.33-.87-3.54-1.12s-2.7.47-1.93,1.66C331.55,151.39,330.19,155.14,331.09,158.58Z"/><path class="cls-42" d="M166.74,258.46c-1-4.9-3.24-9.26-5.23-13.73-.41-.9-.89-2.11.2-2.57,3.58-1.54,5.85-5.14,9.67-6.15,1.65-.43,3.66-1,5,.79,1.19,1.62-.76,2.71-1,4-1,5.7-5.1,9.93-6.93,15.2C168.13,256.89,168.14,258,166.74,258.46Z"/><path class="cls-48" d="M189.29,241.46c.56-.83.06-3.27,2.32-1.54-.08,2.62,1.11,4.76,2.47,6.88,3.74,5.83,2.55,8.42-4.38,9.82a51.25,51.25,0,0,0-6,1.5c-1.74.59-4.26.61-4.44,3a5.38,5.38,0,0,0,3.32,5.32c4.11,1.7,2.37,2.9.29,5.05a40.88,40.88,0,0,0-8.58,12.2c-1.6.07-1.13-.89-.87-1.74.79-3.55,1.17-7.13,5-9.28,2.75-1.55,2.72-4.31.8-6.73a16.13,16.13,0,0,1-2.79-4.46c-1.76-4.72-1.49-5.45,3.76-5.68,3.21-.13,6.34-.3,9.1-2.05,1.71-1.1,3.51-2.39,1.68-4.83-2-2.16-1-5-1.66-7.48Z"/><path class="cls-49" d="M255.6,155.16c1.47-1.28,3.32-.44,4.93-.88,2-.9,3.41.87,5.19.93,1.55.23,1.76,1.56,2.19,2.7,1.24,4.28,1.72,8.81,4.16,13-6.21-4.45-13.44-4.79-20.66-6C253.07,161.56,258,159.84,255.6,155.16Z"/><path class="cls-50" d="M171.18,135.07c1.8,6.87,9.73,3.63,13.31,8.38-5.65,2.17-11.18,4.41-16.81,6.38-2,.71-3.62.25-2.72-2.65a10.32,10.32,0,0,0,.45-4.47C164.63,138,167,135.83,171.18,135.07Z"/><path class="cls-51" d="M323.5,283.83c-.62,1.52-1.93.75-2.84.67-13.76-1.11-27.5-.22-41.25.18-1,0-2.69,1-2.85-1-.13-1.55.7-2.4,2.51-2.41,13.76-.09,27.51-.28,41.27-.41.23,0,.48.23.72.35-1,1.25-.88,1.48.69,1.75A2.9,2.9,0,0,1,323.5,283.83Z"/><path class="cls-50" d="M328.24,136.81a39.16,39.16,0,0,1-1.84,5.29c-1.65,3.21-4.56,3.21-6.74.37-1.88-2.46-3.25-5.47-6.43-6.73-.77-.31-1.53-.71-1.28-1.78s1.25-.81,2-1c2.13-.53,4.3-1,6.1-2.35.11-.08.2-.21.32-.26C322.3,129.66,328.51,134.62,328.24,136.81Z"/><path class="cls-52" d="M234.07,312.73a19,19,0,0,1-4.07,8.15c.45-6.05-1.44-12.09-.13-18.16,1.66-2,4.09-3,5.7-5,.29-.49.59-1,.89-1.46a3.92,3.92,0,0,1,.17-2.8c.52-1.88.28-3.32-2-3.5-2.06-.17-2.05-1.38-1.51-2.89,1.67-2.5,3.87-1.15,5.83-.69s.51,2.07.81,3.12c1.19,4.27-.08,7.73-2.46,11.51A23.79,23.79,0,0,0,234.07,312.73Z"/><path class="cls-53" d="M263.88,171l9.79,4.13a2.33,2.33,0,0,0,0,3.44c-.05,2.08-1.08,2.65-2.95,1.95-7-2.63-14.59-3.62-21-7.8-.67-2.85,1.17-3.26,3.28-3.3A41.18,41.18,0,0,1,263.88,171Z"/><path class="cls-54" d="M64.11,341.84,50.85,331.41l0,0c2.05-3.42,5.37-3.4,8.7-3.09,5.06.48,10,1.91,14.92,2.9,1.29,1,.39,1.61-.37,2.25-2.86,1-5.86.77-8.81,1-1.79.14-3.84.17-2.66,3,.82,1.36,2.19.72,3.33.92.85.15,2.15-.6,2.45.65s-.83,1.89-1.9,2.24A19.39,19.39,0,0,1,64.11,341.84Z"/><path class="cls-55" d="M196.13,139.85a51.47,51.47,0,0,1,24,14.36c-2.81-1.07-5.66-2-8.41-3.23a40.7,40.7,0,0,0-14.85-3c-3.39-.13-3.86-1.11-2-3.77A9.11,9.11,0,0,0,196.13,139.85Z"/><path class="cls-56" d="M285.36,66.11c.34-4.52.79-8.75,5-11.3,1.28-.77.86-1.68.39-2.82-.54-1.31.77-1.6,1.63-1.78,1.35-.28,1.21.88,1.1,1.59a23.44,23.44,0,0,0,2.06,13.68c.41.9.39,1.61-.64,2-2.74.93-5.47,2.45-8.24,2.55S286.14,67.24,285.36,66.11Z"/><path class="cls-57" d="M170.26,56.84,170.2,55c2-.82,2.19-2.55,2.22-4.37a44.68,44.68,0,0,0-.78-11.25l1.9-.94A34.37,34.37,0,0,1,182.88,50c.75,1.61,1.54,2.59,3.13.82,1.22,3.42,4.22,2.28,6.65,2.59Z"/><path class="cls-58" d="M195.88,123.79c-1.7-1.33.08-2.68,0-4-.14-1.52.6-3.25-1-4.43,1.29-1.54,1.24-3-.38-4.25-1.28-1-2.53-2.12-3.77-3.2-1-.85-1.37-2.76-3.08-2.29s-.42,2.14-.77,3.17c-.7,2.09-2.94,2.19-5,3.32,3.4-5.56-.7-10.44-1-17,4.52,6,9.6,9.63,14.49,13.49a4.65,4.65,0,0,1,1.71,5.48C196.12,117.2,197.28,120.66,195.88,123.79Z"/><path class="cls-59" d="M258.72,240.49c0,4.79,3.62,8.47,4,13.14,0,.1.2.18.31.27-.54.55-1.08,1.11-1.61,1.67-1.35.68-2.93.77-4.21,1.65-1.61,1-3.41,2.93-4.11-.8,1.69-3.56,3-7.18,2.68-11.27C255.64,243.18,255.32,240.5,258.72,240.49Z"/><path class="cls-60" d="M298.81,52.46a35,35,0,0,1,8.27,8.46c1.27,1.81,1,2.67-1.4,3.25-7.2,1.69-7.41,1.67-9-5.68-.44-2-.76-4,.21-6A1.47,1.47,0,0,1,298.81,52.46Z"/><path class="cls-61" d="M157.57,184.34c-.42,1.72-1.41,1.54-2.4.67-1.85-1.64-3.63-3.37-5.43-5.06a71,71,0,0,0-13.32-9.65c-2.13-1.24-4.15-2.67-6.16-4.11-.7-.5-1.92-1.11-1-2.23.64-.81,1.5-.12,2.2.29s1.69.93,2.48,1.48c7.39,5.2,15.84,9,21.87,16C156.47,182.54,157.54,183.1,157.57,184.34Z"/><path class="cls-62" d="M184.25,138.85,178.82,137c-1.4-.48-3.14-.66-2.68-2.86s1.9-1.74,3.42-1.24a4.37,4.37,0,0,0,1.62-.13c2.94-.55,5.91-.2,8.87-.23,4.34,0,4.78.88,2.52,5C190.17,140.27,187.16,139.26,184.25,138.85Z"/><path class="cls-63" d="M291.74,132.8c-1.14.28-1.88-.07-2-1a2.24,2.24,0,0,1,1.18-2.45c4.15-1.8,8.37-3.56,12.86-4.17,2.72-.37.92,2.54,1.88,3.71.81,1,.57,2.05-1.07,2.25C300.25,131.65,295.91,132.25,291.74,132.8Z"/><path class="cls-64" d="M219,253.18c-.38-.72-.8-1.42-1.13-2.16a1.79,1.79,0,0,1,1.13-2.64c1.25-.45,2,.22,2.48,1.44,2,4.73,2.06,4.71,6.54,2.11,2.63-1.52,5.26-3,8.49-2.15l0,2.38c-3.77,1.71-6.95,4.56-11,5.77C221.1,257.89,219.86,257,219,253.18Z"/><path class="cls-65" d="M225.69,257.14c3.71-1.44,6.34-5.24,10.84-5-1.51,3.91-5.92,5.11-8,8.71-1.24,2.18-2.29,3.88-1.15,6.28,0,1.08,0,2.17,0,3.25-1.36,1.14-2.7,1.32-4-.07.82-3.92,4-8-.92-11.5C222.6,256.49,225,258.49,225.69,257.14Z"/><path class="cls-66" d="M298.81,52.46l-1.91,0c-.25-4.18,1.84-5.48,5.89-3.26a50.23,50.23,0,0,1,7,5.07c2.85,2.28,5.19,5.2,9,6.63-5.1,2.53-6.32,2.27-9-1.87a49.59,49.59,0,0,0-7.75-8.49c-.76-.71-1.48-2-2.74-1.13S298.54,51.4,298.81,52.46Z"/><path class="cls-67" d="M325,220.53c1.63-8,4.25-15.44,5.76-23.79,3.27,5.71,1.5,10.41-.77,15.17-.81,1.71-3.14,3-1,5.84C329.74,218.81,326.28,219.31,325,220.53Z"/><path class="cls-68" d="M308.57,66.94c-11.71,5-24.71,7.12-34.7,17.82,1.08-5.92,5.18-7.35,8.43-9.07C290.53,71.33,299.66,69.35,308.57,66.94Z"/><path class="cls-69" d="M170.86,189.12c-.5-2.37-1.39-3.42-3.37-1-1,1.18-1.91,2.5-3.75,1.63-1.12-.53-2.51-1-2.5-2.46,0-1.68,1.59-1,2.55-1.25,3.7-.86,7.5-1.44,11.29-4.52v8.63C174.09,188,172.22,189.66,170.86,189.12Z"/><path class="cls-70" d="M143.28,135.37c-1-.15-1.28-.85-1.44-1.68,4.82-1.78,9.93-1.79,14.93-2.39a110.31,110.31,0,0,1,14.34-.53c-2.38,1.67-4.37,3.14-7.93,2.29a21.55,21.55,0,0,0-12.2.9C148.42,134.92,145.36,132.45,143.28,135.37Z"/><path class="cls-71" d="M151.13,328.68c-2-.46-5.56.8-4.1-3.65.3-.91.74-1.66,1.65-1.45,4.22.93,5.85-1.39,6.57-5,.63,2.76-1.33,6,1.62,8.34.06.68,1,.75,1,1,.24,1-.75.47-1.07.5C155,328.58,153,328.6,151.13,328.68Z"/><path class="cls-72" d="M263.88,171c-3.47-.28-6.93-.6-10.41-.81-1.82-.1-3.62,0-3.79,2.53a12.19,12.19,0,0,0-4.34-1c-1.15-.12-2.79-.21-2.78-1.78,0-1.78,1.74-2.07,3-2a49.19,49.19,0,0,1,8.92.84C257.64,169.4,261.1,168.89,263.88,171Z"/><path class="cls-73" d="M321.15,230.82c2.68-1.54,5.35-3.1,8-4.62.89-.51,1.95-.75,2.39.4.38,1-1.17.84-1.41,1.6-2.05,1.5-3.17,3.74-4.59,5.74-.69,1-1.32,2.69-2.57,2.17a3.11,3.11,0,0,1-2-3.64A9,9,0,0,0,321.15,230.82Z"/><path class="cls-74" d="M317.78,127.22c-1.4.51-2.77,1.13-4.2,1.51-1.82.47-4.09,2.11-4.87-1.3-.73-3.19.72-4.66,3.88-4.64C315.25,123.17,316.67,125,317.78,127.22Z"/><path class="cls-75" d="M256.4,291.2c-1.07.93-2.09,1.94-3.22,2.78-1.45,1.08-1.73,0-1.91-1.16.6-1.8,1.2-3.61,1.81-5.41.51-1.53.32-3.92,3.22-2.48,2.21,1.11,2.68,2.52,1.18,4.54C257.08,290,256.76,290.62,256.4,291.2Z"/><path class="cls-76" d="M170.33,292.23q-2.37,7.51-4.75,15l-1.38-.48c1-5.69,2-11.36,5.1-16.44C171,290.24,170.56,291.29,170.33,292.23Z"/><path class="cls-77" d="M233.07,287c.37.64-.21,1.74.92,2,5,1.14,5.13,1.37,3,6.1-.16.37-.37.72-.55,1.09-.18-.21-.33-.55-.55-.59C229.94,294.41,232,290.58,233.07,287Z"/><path class="cls-78" d="M286.18,235.73c.57,2.47-3.18,6.88-5.41,6.18a3.69,3.69,0,0,1-2.85-3.64c.15-1.76,1.84-2.07,3.18-1.48,2,.85,2.64-1.85,4.36-1.27A1.63,1.63,0,0,0,286.18,235.73Z"/><path class="cls-79" d="M306.31,101.44c1.42,5.17,4.18,10.15,2.29,15.8a80.61,80.61,0,0,1-3.88-8.93C304,106,305.77,103.74,306.31,101.44Z"/><path class="cls-80" d="M325.26,291.2c-6.92-.51-13.58-3-20.61-3.44h13.09C320.73,287.85,324.4,286.44,325.26,291.2Z"/><path class="cls-81" d="M448.59,325.24c-.44-.5-2.68-.23-1.46-1,3.92-2.5,7.68-6.35,13.17-4.23A28.22,28.22,0,0,1,448.59,325.24Z"/><path class="cls-82" d="M318.07,175.33c2.53.52,4.76,1.27,5.1,4.11.12,1.05-.85,2.08-1.84,1.57-2.08-1.07-5.63-.26-5.76-4C315.5,175.05,317.09,175.51,318.07,175.33Z"/><path class="cls-83" d="M320.15,306c2.18-3,4.83-1.43,7.38-.75l1.86,5a3,3,0,0,1-4.3,0c1.38-1.59,1.1-2.71-1-3.27C322.81,306.65,321.48,306.35,320.15,306Z"/><path class="cls-84" d="M170.86,189.12c1.63-.62,3.41-1.85,4.22,1,0,1.74,1.19,3.34.68,5.16C169.62,193.92,169,193.19,170.86,189.12Z"/><path class="cls-85" d="M236.61,213.18c2.29,5.93,4.5,11.87,2.36,18.36A70.23,70.23,0,0,1,236.61,213.18Z"/><path class="cls-86" d="M343.43,294.53l-.78.75c-3-4.55-4.65-9.41-3.44-14.93l1.59,1C343,285.49,343.37,290,343.43,294.53Z"/><path class="cls-36" d="M191.83,137.05c.79-.89,1.92-1.65,1.45-3.11-.54-1.68-2.05-1.07-3.13-1.11-3-.13-6-.06-9-.07,3.72-1.51,7.58-.51,11.37-.54,1.52,0,2.59,6,1.17,7.67a13.75,13.75,0,0,0-2.9,6.25c-.27-.62-.55-1.23-.83-1.85l0-2.17C189.44,140,191.86,139,191.83,137.05Z"/><path class="cls-87" d="M320.1,164.52c3.32-.36,5.06,2.39,4.4,4.36-.78,2.33-3.81,1.81-6,.65C318.32,167.63,318.47,165.84,320.1,164.52Z"/><path class="cls-88" d="M333.64,251.5a1.15,1.15,0,0,0,.58-.09c.53,5.9.52,11.92,3.51,17.32,0,.71-.08,1.37-.85,1.68C332.53,266.63,330.82,256.61,333.64,251.5Z"/><path class="cls-89" d="M93.05,275.53l-1.56.76q3.36-8.43,6.74-16.87C98.33,265.45,94.54,270.09,93.05,275.53Z"/><path class="cls-90" d="M317.78,127.22c-2.16-1-3.33-3.11-5.19-4.43l5.81-1.59.82.87C317,123.3,320.33,126.08,317.78,127.22Z"/><path class="cls-91" d="M292.16,287.77c-.34,1.38-.69,2.76-2,3.63a27,27,0,0,1-7.31-2c1.06-1.41,3.11-.08,4.17-1.51A13.13,13.13,0,0,1,292.16,287.77Z"/><path class="cls-92" d="M311.79,179.56l-8.74-3.14C306.69,175.67,310.21,173.78,311.79,179.56Z"/><path class="cls-93" d="M176.12,100.5c1.58-1.43.29-3.28.72-4.88,1.73,3.44,2.33,7.12,2.81,11.72C176.86,105.17,176.93,102.62,176.12,100.5Z"/><path class="cls-94" d="M235.57,297.68c-.59,3.16-3,4.32-5.7,5C229.36,298.32,232.17,297.66,235.57,297.68Z"/><path class="cls-95" d="M112.63,284.73c.43-4.29,3.4-7.15,5.67-10.42C117.44,278.34,115.1,281.57,112.63,284.73Z"/><path class="cls-96" d="M355,314.33c1,1.66,1.93,3.31,2.83,5s.14,2.54-1.68,2.59C354.39,319.6,354.58,317,355,314.33Z"/><path class="cls-97" d="M191.83,137.05c2,2.64-1.5,3.28-1.82,5.07-1.31-2.18-4-2-5.76-3.27C186.94,139,189.72,139.41,191.83,137.05Z"/><path class="cls-98" d="M347.46,315.33a14.11,14.11,0,0,1,.71,1.83c.4,1.63.6,3.64-1.32,4.07-2.48.56-2.6-1.57-2.6-3.39C346.38,318.37,346.32,316.09,347.46,315.33Z"/><path class="cls-99" d="M76.12,308.27A10.64,10.64,0,0,1,79.55,298,31.89,31.89,0,0,1,76.12,308.27Z"/><path class="cls-100" d="M364.2,314.39l-1.38,2c-.6.85-.24,2.91-2,2.24-.86-.33-1.61-1.91-1.74-3-.25-2.12,1.92-.48,2.6-1.35Z"/><path class="cls-101" d="M320.1,164.52a11.7,11.7,0,0,1-1.62,5c-1.58-.8-2.78-2-2.24-3.83S318.7,164.59,320.1,164.52Z"/><path class="cls-102" d="M170.33,292.23c-.22-.7-.07-1.6-1-1.9l4.11-8.37c.29.58.06,1.42.87,1.74Q172.3,288,170.33,292.23Z"/><path class="cls-103" d="M316.83,72.43l-.34,0-.35,0c-1.44-1.74-3.25-.65-4.92-.65-.39-.88-1.22-1-2-1.17a20,20,0,0,1,2-1.33C316.22,66.74,316.29,66.78,316.83,72.43Z"/><path class="cls-104" d="M74.08,333.5l.81-1.69c2.66-1.87,5.07-.69,7.47.62a.67.67,0,0,0,0,.46c.67.71,2,.42,2.42,1.49Z"/><path class="cls-105" d="M351.74,297.82c3.34.3,1.3,2.6,1.51,4.06-.51.87-1,1.75-1.51,2.62C350.78,302.28,350.47,300.05,351.74,297.82Z"/><path class="cls-106" d="M192.84,50.45c-.37.52.09,2.51-1.34,1.16a7.19,7.19,0,0,1-2.25-7A16.28,16.28,0,0,1,192.84,50.45Z"/><path class="cls-107" d="M332.18,216.48c1.25-1.47.33-4.31,2.86-4.69.63-.1,2,.38,1.81,1.23C336.43,215.39,334,215.6,332.18,216.48Z"/><path class="cls-108" d="M432.18,339.38c1.06,1.38,3,0,4.26,1.35-4.16.86-8-1.38-12-.52,1-1.4,2.46-.56,3.57-1.08Z"/><path class="cls-45" d="M257.2,257.22c1.09-1.36,2-3.1,4.21-1.65.2,2.32,2,1.53,3.26,1.64C262.18,259.66,259.69,257.55,257.2,257.22Z"/><path class="cls-109" d="M282.59,61.23c1,3.76-.67,7-.92,10.34C281.24,68.17,280.68,64.75,282.59,61.23Z"/><path class="cls-104" d="M159.53,79.87c-.86.14-1.59,0-1.92-.94,1.48-1.37.22-3.32,1-4.84.41-.42.58-1.3,1.48-.74C161.54,75.67,160.66,77.78,159.53,79.87Z"/><path class="cls-110" d="M160.11,73.35l-1.48.74a13.48,13.48,0,0,1,6.58-9.24C164.07,68.45,160.33,69.9,160.11,73.35Z"/><path class="cls-111" d="M267.91,157.91c-.65-.82-1.08-1.93-2.41-1.87a3.46,3.46,0,0,1,0-3.22c1.1-.4,3,2.1,3.4-.9l1.6,2.6.05-.06C267.53,154,268.16,156.28,267.91,157.91Z"/><path class="cls-34" d="M189.28,241.45c1.33,2.32,1.09,5,1.66,7.48C187.59,247.06,189,244.12,189.28,241.45Z"/><path class="cls-112" d="M163.57,53.35l-1.78-1.75A11,11,0,0,1,164.17,47C164.78,49.4,163.58,51.34,163.57,53.35Z"/><path class="cls-113" d="M237.3,163.76c1-1.7,2.71-.78,4.1-1.07C240.51,164.87,239.73,167.47,237.3,163.76Z"/><path class="cls-114" d="M242.17,203.19c.41.79,1.72.72,1.77,1.86-2.14-1.27-3.63,2.6-5.84.73l.07.07A7,7,0,0,1,242.17,203.19Z"/><path class="cls-115" d="M323.5,283.83h-4.09c-.44-1.73.94-1.94,1.65-2.62A4.33,4.33,0,0,1,323.5,283.83Z"/><path class="cls-116" d="M332.92,173.55a3.19,3.19,0,0,1,.93-3.58c.38-.33,1,.18,1.12.77C335.23,172.19,334.49,173,332.92,173.55Z"/><path class="cls-117" d="M267.92,196.68a7,7,0,0,1,1.64-3.37c.5.37,1.49.95,1.43,1.08A3.21,3.21,0,0,1,267.92,196.68Z"/><path class="cls-118" d="M273.63,178.56c-1.73.73-1.62-.85-1.85-1.64-.46-1.6,1-1.51,1.89-1.8A4.29,4.29,0,0,1,273.63,178.56Z"/><path class="cls-119" d="M320.25,348.32c-11.5.89-23,2.05-34.54,1.23,10.18-1.22,20.33-2.67,30.62-2C317.66,347.67,319.1,347.23,320.25,348.32Z"/><path class="cls-120" d="M94.87,350c-3.91,3.74-7.36.28-11-.69,3.68-1.95,7.62-.76,11.44-.79C96.09,348.5,94.87,349.41,94.87,350Z"/><path class="cls-121" d="M381.42,345.22,379,345c3.56-3.25,5.49-3.4,8.85-.23Z"/><path class="cls-122" d="M129.13,349.12c-2.43,1.4-4.9.84-7.38.33C124.12,347.81,126.62,348.28,129.13,349.12Z"/><path class="cls-123" d="M455.21,350.94a1.75,1.75,0,0,1,2.32-1.62,21.51,21.51,0,0,1,5.93,1.62h-8.25Z"/><path class="cls-124" d="M82.36,332.43c-2.59,1-4.9-1.35-7.47-.62C70.75,332.52,67,330.7,63,330c-4.29-.74-8.31-.76-12.18,1.41-1.74-3.37-.36-4.5,3.07-5,5.5-.83,10.68.93,16,1.33,3,1.67,6.5.06,9.65,1.39C81.25,329.85,82.66,330.26,82.36,332.43Z"/><path class="cls-125" d="M71.81,274.31a2.37,2.37,0,0,1-.11-1.3c.18-.84.67-1.55,1.64-1.34s.77,1,.67,1.66S73.51,274.57,71.81,274.31Z"/><path class="cls-3" d="M116.43,356.57c1.78.18,3.57.33,5.35.54.84.11,2.16.31,2.25-.42.51-4.05,3.51-2.51,5.52-2.41,36.58,2,73.15.38,109.72-.44,21-.46,41.94-.6,62.9-1.26,18.05-.57,36.16-.64,54.11-3.1a11.21,11.21,0,0,1,5.45.1,20.79,20.79,0,0,0-.62,11c.54,2.35-.63,2.3-2.36,2.57-6.9,1.07-13.81.6-20.64-.08-12.72-1.27-25.39.83-38,.16-16.82-.9-33.26,2-49.83,3.85a58.28,58.28,0,0,1-15.27-.76c-12.26-1.88-24.56-3.5-36.86-5.1a87.72,87.72,0,0,0-19.42-.42c-11.34,1.06-22.62.19-33.91-.3-10.74-.47-21.51-.66-32.18-2.22a5.5,5.5,0,0,1-1.41-.63C112.42,354.82,114.63,356.69,116.43,356.57Z"/><path class="cls-126" d="M213.27,366.64c1.11,1.3,3.22.9,4.19,2.43-3.37,0-6.74,0-10.11,0-1.18,0-2-.22-2.45-1.55s0-1.74,1.12-2C208.45,365.84,210.94,365.68,213.27,366.64Z"/><path class="cls-127" d="M116.43,356.57c-1.67.72-3.82-.82-5.24,1.1-4.9-1.06-9.76-2.26-14.29-4.73C103.53,353.6,109.86,355.78,116.43,356.57Z"/><path class="cls-128" d="M96.45,356.89c-5.85.95-10.77-1.71-15.78-4l1-.5Z"/><path class="cls-129" d="M56,340c-3.39,2-5.62-.63-7.67-2.39-1.08-.93.86-1.84,1.74-2.55A29.83,29.83,0,0,1,56,340Z"/><path class="cls-130" d="M386.35,351.93c-2.47,2.78,1.84,3,1.83,4.87a23.68,23.68,0,0,1-2.86-1.53c-1-.74-3.14-1-2.64-2.59S385,351.78,386.35,351.93Z"/><path class="cls-131" d="M442.27,283.63c8.1,1.95,16.38,3.37,23.77,7.48a10,10,0,0,1,5,6.81c.29,1.34-.93,3.6,1.22,3.8s1.87-2.25,2.35-3.73c.38,3.2,3.58,3.35,5.38,5-4.61.89-9.29.32-13.93.64-1.5.11-2.15-.4-2.3-2.05-.63-7.09-4.85-11-11.53-12.74a171,171,0,0,0-25.14-4.16c-.15-1.17.63-1.35,1.5-1.32C433.12,283.5,437.71,283,442.27,283.63Z"/><path class="cls-132" d="M423.87,306c-1.15,3.17-3.41,1.56-6,1.48,2.08-2.17,4.27-.85,6-1.48Z"/><path class="cls-133" d="M231.55,65c2.92,0,6.15.29,5.62-4.28,1.82-1.13,1.64.2,1.71,1.34.27,4.16,3,6.64,6.13,8.77.85.56,1.9.81,2.62-.12s.06-1.77-.7-2.46a32.77,32.77,0,0,1-3.57-3.39c-1.24-1.53,0-5.21,1.81-5.46,5.17-.71,10.36-1.21,15.45-1.78,1.09,2-4.78,3.06-.55,5,1.77.81,6.17,4.12,4.25-2.48-.17-.58-.12-2.41,1.48-2.5s1.35,1.14,1.3,2c-.19,3.42,3.38,5.22,3.75,8.44-7,.5-8.38,2.42-7.36,10.08.17,1.27-.15,2.49-1.68,2-3.11-1.08-5.75.19-8.28,1.48-3.08,1.58-5.3,1.08-7-1.87a4.36,4.36,0,0,1-2.23-2.3c-2.07-4.09-5.52-6.66-9.33-8.93C233.52,67.69,231.53,67.22,231.55,65Z"/><path class="cls-134" d="M258.92,50.76c0,.61,0,1.21,0,1.82Q247.45,54,236,55.46c-2.49.31-1.86-1.54-1.73-2.72a21.63,21.63,0,0,1,5.38-11.83c1.53-1.78,3-3.6,3.22-6.2C245,38.9,245.39,43.47,246,48c.14,1.09.24,2.18.38,3.27.11.91.58,1.67,1.52,1.61s1.28-1,1.28-1.82c0-2.34-.06-4.68-.1-7a1.15,1.15,0,0,1,1.09.36,6.06,6.06,0,0,1,.7,2.74c.18,1.55-.41,3.53,1.81,4.08A3.66,3.66,0,0,0,257.32,49a1.86,1.86,0,0,1,.85-.86Z"/><path class="cls-135" d="M258.17,48.11c-.43,3.89-4,5.91-7.33,4.24-1.1-.54-1-1.47-1.06-2.39,0-1.89,0-3.79,0-5.68.86-1,2,0,3.15-.51-1-2.12-2.65-1-4-1C248,41,247.8,39,247.5,36,252.05,40,258.34,41.05,258.17,48.11Z"/><path class="cls-1" d="M231.55,65a53.32,53.32,0,0,0,5.37,3.64c4.7,2.47,7.61,6.38,9.58,11.15-.56,1-1.56.93-2.51,1-2.63-5.47-7.46-8.55-12.35-11.63-1.33-.84-3-1.47-3.61-3.21C228.88,64.3,230.25,64.77,231.55,65Z"/><path class="cls-136" d="M229.35,57.14a33.25,33.25,0,0,0-12.94,8.48C216.38,61.1,223,56.83,229.35,57.14Z"/><path class="cls-137" d="M238.5,36.73c-3.43,4.82-6.77,9.6-7.39,15.72C229.34,45.18,234,41,238.5,36.73Z"/><path class="cls-138" d="M248.86,42.79c1-2,2.47-2.39,4.24-1,1.08.87,2.21,2.1,1.41,3.44-1.08,1.83-2.22.32-3.29-.4a6.92,6.92,0,0,0-1.46-.57,1,1,0,0,0-.71-.23C249,43.63,248.92,43.21,248.86,42.79Z"/><path class="cls-139" d="M446.13,300.38c3.11-.61,6.47-.23,9.14-2.46,1.08-.78.51-2.41,1.63-3.18a4.42,4.42,0,0,1,2.13,2.41c2.91,5.32,2.13,6.74-3.91,6.57-6.84-.18-13.72.47-20.51-.79l1.93-.34C439.78,302,443.07,301.71,446.13,300.38Z"/><path class="cls-140" d="M442.27,283.63c-3.82,0-7.63.05-11.44.13-1.31,0-2.78-.44-3.78.92l-5.36.05c-.83,0-2-.3-2.43.13-4.53,4.41-9.64,1.49-14.53,1.3-1.8-.75-3.69-.16-5.52-.37-.8-.1-2,.41-1.93-1.2l2.25-.17c2.8-.72,5.73.27,8.52-.6,10.06-.52,20.1-1.59,30.19-.79C439.59,283.13,441,282.84,442.27,283.63Z"/><path class="cls-141" d="M456.9,294.74c-.1,1.29.51,2.94-1.63,3.18-.31-2.49-1.91-3.08-4.2-3.47-3.33-.57-7.14-.57-9-4.32C447.17,291.11,452.55,291.25,456.9,294.74Z"/><path class="cls-142" d="M369.8,283.86c1.6-.73,3.56.57,5-.88l18.29,1.59c.27.16.36.33.27.5s-.17.26-.26.26C385.32,285.36,377.49,285.75,369.8,283.86Z"/><path class="cls-143" d="M393.14,285.33c0-.25,0-.51,0-.76l4.15,0c2.21,1.85,5.22-.15,7.45,1.57A42.57,42.57,0,0,1,393.14,285.33Z"/><path class="cls-144" d="M189.38,62c1.36.2,2.84.45,3.15,2.1.27,1.46-.75,1.86-2.05,1.85-.5,0-1.68-.47-1,.82.56,1.14,1,2.15-.6,2.59-2,.56-2.79-1.47-4-2.34s-.07-2,.74-2.7C186.65,63.29,187.68,62.09,189.38,62Z"/><path class="cls-145" d="M311.22,71.8c1.74-.53,4-5.12,4.92.65-.47.46-1.21.86-1.37,1.41-.46,1.6-.45,3.36-3,2S309.87,73.36,311.22,71.8Z"/><path class="cls-146" d="M301.27,79.17c0,.93-.4,1.59-1.4,1.67a1.44,1.44,0,0,1-1.7-1.36,1.59,1.59,0,0,1,1.63-1.91C300.79,77.55,301.2,78.24,301.27,79.17Z"/><path class="cls-143" d="M408.05,283.82c-2.76,1.29-5.66.6-8.52.6C402.31,283.34,405.19,283.67,408.05,283.82Z"/><path class="cls-147" d="M259.47,36.79a7,7,0,0,1-5.6-3.14C256.09,34.06,258.22,34.64,259.47,36.79Z"/><path class="cls-148" d="M200.72,330.26c-10.91-.23-21.77.83-32.65,1.19-17,.56-33.85,2.91-50.87,2.22a93.08,93.08,0,0,0-15.3.29c-1.82.22-3.32,0-4-2,.88-1.37,2.38-.86,3.6-1.18a4.46,4.46,0,0,1,.63,0c9.31-.6,18.64-.08,28-.28,1.48,0,3,.36,4.45-.37,5.49-.27,10.94-1.29,16.47-1,8.1.38,16.12-.81,24.18-1.37,1.29-1.56,3.09-1.2,4.78-1.26a4.53,4.53,0,0,1,2.69,1.09c4.65-.51,9.4.62,14-.74,1.46-1,1.76-2.6,2.35-4.06.06-4.2,0-8.42,1-12.55-.29-4.2-2.47-8.15-1.65-12.5.41-7.75,1-15.5.05-23.45-2.21.87-5,.68-7.39,2.17a1.74,1.74,0,0,1-1.83-2.95c4.49-1.82,4.16-6.82,6.63-10,3.06-4,4.94-8.88,7.38-13.36a24.37,24.37,0,0,1,2.23-3.47c.93-1.18,2-2.64,3.75-1.56,1.42.9.75,2.46.36,3.77-2.52,8.69-3.51,17.79-7.12,26.19a11.58,11.58,0,0,0-.27,7.32,18,18,0,0,1,.08,7.39c-1.12,6-.94,8,1.55,14.29,3.1-2,3.75-5,3.59-8.22s1-4.35,4.14-2.91c1.84.84,3.71.53,5.66.14a5.86,5.86,0,0,1,7.08,3.63c1.33,3,.24,5.43-2.18,7.26a27.58,27.58,0,0,1-5.31,3.14c-3.89,1.73-4.78,3.64-2.65,7.43,1.59,2.85.67,3.17-2.09,3.17-3.83,0-6.34-2.11-8.94-5.25-1,4.54-.65,8.47-.48,12.39.06,1.16.5,1.78,1.71,1.84,1,0,2.15.09,2.09,1.42s-1.36,1.58-2.43,1.77S201.82,330.15,200.72,330.26Z"/><path class="cls-148" d="M182.7,327.64l-2.83-.09c-1.06-.81-2.54-1.29-2.37-3.05-2.43-2.71-3.21-6.32-5.14-9.31-1.06-1.64-.63-3.44,0-5.18,1.86-5.49,3.68-11,5.54-16.46.54-1.63,1.9-3.16.33-5-.24-.28-.12-1.39.09-1.46,3.81-1.45,3.76-5.47,5.53-8.25.71-1.12,1.39-2.32,2.86-1.57,1.66.85.59,2.09.11,3.18-.06.12-.13.24-.19.37-3.76,8-2.33,13.67,4.19,20.11,2.84,2.8,2.27,7.46,4.27,10.9.14.24-.3,1.07-.67,1.3-.71.43-1.38-.1-1.78-.63-1.4-1.84-2.72-3.75-4.06-5.63-1.17-.2-1.63-1.13-2.09-2.05a36.06,36.06,0,0,1-4.31-9.93c-2,5.07-3.71,9.8-5.23,14.63-.82,2.64-.67,4.89,2,6.35,2.13,1.16,2.74,3.31,3.57,5.33a2.72,2.72,0,0,1-.72,2.33Z"/><path class="cls-149" d="M181.81,321c-1.71-1.33-1.75-4.1-4.73-4.63-1-.18-2.53-3.06-1.68-5.45,2.07-5.81,4-11.67,6.31-18.4,2.11,4.5,3.86,8.21,5.6,11.93-1.16,3.9,1.16,6.82,2.84,9.91.76.5,2.2.67,2.09,1.68-.38,3.52.85,6.74,1.48,10.06,0,.09-.13.28-.16.27-.35-.11-.69-.25-1-.39C189.53,323.08,185.6,322.2,181.81,321Z"/><path class="cls-150" d="M242.65,318.88c-1,2.41.76,3.08,2.42,3.91,1.43.71,3.3,1.27,2.91,3.42s-1.93,3.19-3.92,3.75a10.59,10.59,0,0,1-10.93-3.75,3.4,3.4,0,0,1-.57-3.09c.88-3.35,3.52-5.37,5.86-7.56.81-.76,2.11-.41,3.1.19A2.3,2.3,0,0,1,242.65,318.88Z"/><path class="cls-151" d="M223.25,239.81c.5.88,2.12,1.24,1.46,2.63s-1.92.92-2.89.56c-2.18-.82-4.26-.4-6.45,0-7.94,1.33-10-4-10.43-9.83-.08-1,0-2.09,1.21-2.28s2,.69,2.13,1.94c.29,2.29.29,4.69,2.44,6.24,1.86-.39,3.7-.83,5.59-1.1C218.78,238,221.42,237.4,223.25,239.81Z"/><path class="cls-152" d="M224,237.42c3.75-5.61,3.11-8.78-2.48-12.27-1.76-1.1-3.62-2.1-4.59-4.05-.51-1-.65-2.26.4-3,1.3-.94,2,.13,2.55,1.13a9.55,9.55,0,0,0,4,3.48c5.33,3,7,8.87,4.49,14.58-.94,2.1-2.23,3-4.49,2.51A1.79,1.79,0,0,1,224,237.42Z"/><path class="cls-4" d="M223.37,270.33l4,.07c3.71,1.68,4.36,3.83,2.3,7.72-.51,1-1,2.2-2.42,1.61-1.1-.46-1-1.68-.64-2.54,1.92-4.22-.14-4.16-3.44-3.6a55.36,55.36,0,0,1-8.26.33c-1.08,0-2.4.12-2.43-1.49,0-1.38,1-1.92,2.21-2C217.59,270.37,220.48,270.37,223.37,270.33Z"/><path class="cls-153" d="M221.62,263.67c0,1.07.29,2.36-1.25,2.56s-2-.92-1.92-2.08c.17-2.77-2.19-3.52-3.69-5-1-1-2.28-2.2-1.29-3.48,1.38-1.77,2.29.27,3.23,1C220.56,259.53,221.52,261,221.62,263.67Z"/><path class="cls-148" d="M181.81,321c4.51-.36,8.87-.4,10.71,5-1.06,1-2.12,0-3.17,0a11.15,11.15,0,0,1-4.13-2.3l-3.42-.14C181.8,322.7,181.81,321.85,181.81,321Z"/><path class="cls-154" d="M224,237.42c-.05.79-.09,1.57-.13,2.36l-.31-.15-.28.18c-2.4-1.08-5-.34-7.47-.82a2,2,0,0,1-.8-3.26Z"/><path class="cls-155" d="M198.39,297.79c1,4.11,2.92,8.1,1.65,12.5-2.4-3.28-2.43-7.28-3.29-11C196.45,298,197.24,297.63,198.39,297.79Z"/><path class="cls-156" d="M190.15,314.36c-3.26-1.59-3.18-5.23-4.72-7.87-.71-1.21.77-1.77,1.88-2l1.24,2.44Q189.35,310.63,190.15,314.36Z"/><path class="cls-157" d="M185.22,323.69c2.1-.53,3,1.07,4.13,2.3-.93,1.24-2.27.71-3.44.74-.86,0-2,.5-2.48-.78C182.86,324.33,184.56,324.39,185.22,323.69Z"/><path class="cls-158" d="M225.69,257.14c-.64,1.42-2.56.37-3.24,1.69-1.3-1.8-6-1.51-3.46-5.65C220.41,255.87,222.33,257.72,225.69,257.14Z"/><path class="cls-159" d="M177.5,324.5l2.37,3.05-4.64.26C174.18,326.78,174.93,325.69,177.5,324.5Z"/><path class="cls-160" d="M215,235.73a4.45,4.45,0,0,0,.8,3.26c-1.68.4-3.35,1.72-5.06,0C210.76,236.17,214.1,237.52,215,235.73Z"/><path class="cls-161" d="M199.06,322.84c.34,2,2.12,4.85-2.35,4.06C196.39,324.9,197,323.46,199.06,322.84Z"/><path class="cls-162" d="M265.49,152.82a2.18,2.18,0,0,1,0,3.22c-2.18.89-3.13-1.68-5-1.76-.34-.2-.72-.62-1-.58-8.07,1.19-10.85-4.84-14.65-10.11-4.65-6.45-7.38-14-12.77-20.1-3.49-4-5.09-9.68-7.29-14.71-1.49-3.39-2.47-7-4.21-10.3-2.29-4.39,1.67-13.85,6.2-15.68,1.06-.42,2.25-.8,2.92.46s-.46,1.83-1.36,2.52c-5.14,3.93-6.05,8.46-3.18,14.38,1.92,4,2.81,8.32,4.79,12.3,5.56,11.19,13.36,21,19.32,32,2.11,3.86,5.2,7.56,10.8,6.6C262.05,150.67,263.73,152.06,265.49,152.82Z"/><path class="cls-163" d="M235.87,80.19a2,2,0,0,1,1.47,3.12,86.18,86.18,0,0,1-5.26,7.82,1.38,1.38,0,0,1-1.87.27,1.32,1.32,0,0,1-.62-1.76c1.76-3.08,3.62-6.1,5.48-9.12C235.18,80.34,235.55,80.31,235.87,80.19Z"/><path class="cls-164" d="M225,165.71c-2.62-.53-4-2.06-5.62-3.12-.55-.36-1-1-.39-1.68a1.17,1.17,0,0,1,1.79-.1A16,16,0,0,1,225,165.71Z"/><path class="cls-165" d="M136.31,321.55c-1.24-1-4,.48-4.23-2-.31-3.18,3.73-2.28,4.74-4.51-1-1.55-3-1.83-4.35-2.87-.91-.67-1.89-1.35-1.67-2.61a2.42,2.42,0,0,1,2.43-1.88c3.28-.35,6.57-.67,9.87-.94,1.15-.09,2.31.15,2.36,1.63s-1.06,1.83-2.23,1.87c-1.76.06-3.52,0-6.29,0,2.74,2.45,5.65,4.25,2.73,7.48a.71.71,0,0,0,.07.66c5.52,5.16-1.31,5.32-3.1,7.4-.71.83-2.21,1.7-3.16.16s.48-2.17,1.47-2.9C135.47,322.68,136.25,322.54,136.31,321.55Z"/><path class="cls-34" d="M134.58,330.19c-4,1.46-8.13.84-12.21.88-6.73.06-13.47-.14-20.2-.23a35,35,0,0,1,12.27-.79C121.16,330.63,127.87,330,134.58,330.19Z"/><path class="cls-150" d="M292.34,324c8.13,4,17.26,1.32,25.74,3.46.53.13,1.1.06,1.65.15,1.19.18,2.24.68,2,2.08-.21,1.15-1.26,1.33-2.3,1.2-12.11-1.46-24.4-1.49-36.3-4.63-1.37-.36-3-.57-2.91-2.32.09-2,1.89-2,3.42-2.15,1.77-.21,3.53-.54,5.62-.86-1.48-1.69-3.42-1.34-4.95-2s-3.07-.71-3.43-2.55c-.39-2.07,2-1.85,2.89-3.19-3.28-.43-6.45,0-9.47-1-1.39-.44-2.89-.87-2.32-2.69.62-2,2-1,3.34-.62,6.16,1.65,12.63.71,18.85,2,1.69.36,4.15-.13,4.33,2.2s-2.42,2.16-4,2.75c-.77.28-1.67.26-2.08,1.45.87,1.59,4.18.57,4.28,3C296.79,323.17,293.46,322.39,292.34,324Z"/><path class="cls-166" d="M143.66,105.83c-.18.23-.41.88-.82,1-2.36.82-3.71,2.68-5,4.61A1.3,1.3,0,0,1,136,112a2,2,0,0,1-.81-1.27c-.42-2.54,4.6-7.42,7-6.88C143.18,104.05,143.7,104.57,143.66,105.83Z"/><path class="cls-167" d="M172.12,124c-2.18.06-3.75-.55-3.69-2.89,0-2.16,1.38-3.91,3.42-3.84,3.17.11.42,3.94,2.72,5.3C175.22,122.94,173.12,123.86,172.12,124Z"/><path class="cls-163" d="M273.27,104.82c-1,0-1.62-.2-1.86-1a1.57,1.57,0,0,1,.69-1.79,19.34,19.34,0,0,1,8.34-3.19,1.37,1.37,0,0,1,1.63.93,1.35,1.35,0,0,1-.66,1.75C278.65,102.7,275.85,103.78,273.27,104.82Z"/><path class="cls-168" d="M446.13,300.38c-2.64,3.13-6.17,2.47-9.59,2.22A15.89,15.89,0,0,1,446.13,300.38Z"/><path class="cls-169" d="M333.64,251.5c-1.64,6.77.56,12.88,3.24,18.91-.11.91.21,2.08-1.05,2.4s-1.69-.76-2-1.62c-2.27-6-4.35-12.09-3.59-18.7.15-1.31.34-2.43,2-2.61C333.58,249.73,333.85,250.36,333.64,251.5Z"/><path class="cls-170" d="M343.43,294.53c-2.2-4.12-2-8.73-2.63-13.17.17-1,0-2.41,1.53-2.44,1.35,0,1.91,1,1.91,2.22,0,4.27.21,8.47,2.28,12.36a1.49,1.49,0,0,1-.3,1.89C344.92,296.48,344.41,294.68,343.43,294.53Z"/><path class="cls-171" d="M274.6,260.54a12.55,12.55,0,0,1-3.54,4.91,1.62,1.62,0,0,1-2.23.12,1.57,1.57,0,0,1-.12-2.23,25.08,25.08,0,0,1,3.63-4.41c2.13-1.82,2.42-.28,2.27,1.58Z"/><path class="cls-172" d="M186,50.86c0,1.17.69,2.76-.9,3.23s-2-1.17-2.49-2.22c-1.89-4-4.05-7.85-7.75-10.55a3.65,3.65,0,0,1-1.33-2.88c1.78-1.49,2.92-.14,4.2.87C181.63,42.36,183.59,46.77,186,50.86Z"/><path class="cls-173" d="M171.64,39.38c2,1,1.85,2.91,1.89,4.66.09,3,.12,6.05,0,9.07-.07,2.26-1,3.52-3.35,1.89-.06-4.11-.1-8.23-.2-12.35C170,41.24,169.83,39.84,171.64,39.38Z"/><path class="cls-54" d="M221.38,298.78a9.86,9.86,0,0,1-6.37,5.48c-3,.78-5.59,1.58-5.29,5.5.06.85-.52,2.1-1.83,1.47-1.48-.72-2.35-1.86-1.57-3.69,1-2.29,3-3.92,3.72-6.39.42-1.53.08-4,1.58-4.37,2.45-.66,5.17-.44,7.76-.34C220.56,296.49,221.16,297.58,221.38,298.78Z"/><path class="cls-174" d="M199.61,271.78c-2.48-1.52-3.2-2.83-1.46-5.38,2.13-3.11,3.56-6.69,5.45-10.37C204.22,260.59,203.21,264.43,199.61,271.78Z"/><path class="cls-175" d="M238.05,318.81c1.29,3.7,1.29,3.7,5.49,7.37-3.13,1.42-4.2,1.22-6.22-.73C234.53,322.74,237.89,321,238.05,318.81Z"/></svg>