<svg id="graphic-data-analyst_Image" data-name="graphic-data-analyst Image" xmlns="http://www.w3.org/2000/svg" viewBox="0 0 781 425"><defs><style>.cls-1{fill:#4f7585;}.cls-2{fill:#525742;}.cls-3{fill:#773412;}.cls-4{fill:#b47b6e;}.cls-5{fill:#070101;}.cls-6{fill:#661010;}.cls-7{fill:#090909;}.cls-8{fill:#120a05;}.cls-9{fill:#0e0804;}.cls-10{fill:#651010;}.cls-11{fill:#050607;}.cls-12{fill:#1b1414;}.cls-13{fill:#110f0d;}.cls-14{fill:#0b0a07;}.cls-15{fill:#1a1a1a;}.cls-16{fill:#fcfcfc;}.cls-17{fill:#4e7283;}.cls-18{fill:#0c1012;}.cls-19{fill:#12120f;}.cls-20{fill:#080c0e;}.cls-21{fill:#1f1f1f;}.cls-22{fill:#181818;}.cls-23{fill:#af796c;}.cls-24{fill:#1b1b1b;}.cls-25{fill:#353535;}.cls-26{fill:#130d0a;}.cls-27{fill:#262621;}.cls-28{fill:#0d0d0d;}.cls-29{fill:#2d2d2d;}.cls-30{fill:#0e0c08;}.cls-31{fill:#262626;}.cls-32{fill:#661919;}.cls-33{fill:#212121;}.cls-34{fill:#1f1814;}.cls-35{fill:#202020;}.cls-36{fill:#201d17;}.cls-37{fill:#7a3b1c;}.cls-38{fill:#222;}.cls-39{fill:#3a3a3a;}.cls-40{fill:#232a2e;}.cls-41{fill:#681919;}.cls-42{fill:#333;}.cls-43{fill:#282121;}.cls-44{fill:#282828;}.cls-45{fill:#4e4e4e;}.cls-46{fill:#2c1f1c;}.cls-47{fill:#4a4a4a;}.cls-48{fill:#0c1214;}.cls-49{fill:#324a55;}.cls-50{fill:#14110c;}.cls-51{fill:#3a3d2e;}.cls-52{fill:#0e0c09;}.cls-53{fill:#0d0b07;}.cls-54{fill:#3b3f30;}.cls-55{fill:#13100b;}.cls-56{fill:#1b0c04;}.cls-57{fill:#1f0e06;}.cls-58{fill:#220f05;}.cls-59{fill:#281106;}.cls-60{fill:#060605;}.cls-61{fill:#2c2c21;}.cls-62{fill:#959594;}.cls-63{fill:#a3a3a2;}.cls-64{fill:#cd8e7f;}.cls-65{fill:#130d0c;}.cls-66{fill:#692f12;}.cls-67{fill:#682d10;}.cls-68{fill:#6d4e44;}.cls-69{fill:#fefefe;}.cls-70{fill:#221717;}.cls-71{fill:#5e0f0f;}.cls-72{fill:#f5f4f4;}.cls-73{fill:#cfc8c8;}.cls-74{fill:#344c57;}.cls-75{fill:#713111;}.cls-76{fill:#dfdfdf;}.cls-77{fill:#622a0f;}.cls-78{fill:#cf8f80;}.cls-79{fill:#b27a6c;}.cls-80{fill:#aa7467;}.cls-81{fill:#c08577;}.cls-82{fill:#5e2f19;}.cls-83{fill:#6f4e45;}.cls-84{fill:#525641;}.cls-85{fill:#080303;}.cls-86{fill:#220505;}.cls-87{fill:#272727;}.cls-88{fill:#8a8a8a;}.cls-89{fill:#979797;}.cls-90{fill:#ce8f80;}.cls-91{fill:#1d1412;}.cls-92{fill:#747474;}.cls-93{fill:#645644;}.cls-94{fill:#606060;}.cls-95{fill:#a16f62;}.cls-96{fill:#424241;}.cls-97{fill:#dcdcdc;}.cls-98{fill:#373b2c;}.cls-99{fill:#fdfdfd;}.cls-100{fill:#545454;}.cls-101{fill:#d4d4d3;}.cls-102{fill:#f4f4f4;}.cls-103{fill:#e8e8e8;}.cls-104{fill:#4d4d4d;}.cls-105{fill:#515641;}.cls-106{fill:#a47164;}.cls-107{fill:#6b4941;}.cls-108{fill:#4c342e;}.cls-109{fill:#6e4e45;}.cls-110{fill:#6d4b42;}.cls-111{fill:#703111;}.cls-112{fill:#e4e1e1;}.cls-113{fill:#515151;}.cls-114{fill:#8d8d8d;}.cls-115{fill:#515540;}.cls-116{fill:#444432;}.cls-117{fill:#1d1d1d;}.cls-118{fill:#363636;}.cls-119{fill:#464646;}.cls-120{fill:#2e2e2e;}.cls-121{fill:#484848;}.cls-122{fill:#444;}.cls-123{fill:#404040;}.cls-124{fill:#3d3d3d;}.cls-125{fill:#e7e7e7;}.cls-126{fill:#7d5c5c;}.cls-127{fill:#c98b7d;}.cls-128{fill:#402c27;}.cls-129{fill:#4b332d;}.cls-130{fill:#252525;}.cls-131{fill:#6c6c6c;}.cls-132{fill:#6d6d6d;}.cls-133{fill:#a26f63;}.cls-134{fill:#737373;}.cls-135{fill:#686868;}.cls-136{fill:#878787;}.cls-137{fill:#090805;}.cls-138{fill:#393939;}.cls-139{fill:#5b5b5b;}.cls-140{fill:silver;}.cls-141{fill:#cdcdcd;}.cls-142{fill:#fff;stroke:#000;stroke-miterlimit:10;stroke-width:3px;}.cls-143{font-size:26.64px;font-family:Boogaloo-Regular, Boogaloo;}.cls-144{letter-spacing:-0.04em;}</style></defs><title>graphic-data-analyst</title><path class="cls-1" d="M740.21,303.89c2.49.94,1.23,3.85,2.77,5.29-.16,2.08-2,2-3.3,2.38-18.42,4.81-35.07,14.17-52.92,20.43a28.13,28.13,0,0,0-12,8.64c-9.47,11.18-20.35,21-30.62,31.36-1.09,1.1-3,1.81-2.41,3.95-2.44,1.25-4.83,2.58-7.33,3.71-1.27.57-2.52,1.91-3.86-.65-1.23-2.34-3.86-1.07-5.83-.36-3.75,1.36-7.37,3.09-11.16,4.27-2.47.76-5.42,3-7.27-1.5-.62-1.52-3.11-.6-4.57.14-6.58,3.3-13.93,1-20.74,2.84-1.33.36-3.16-1.14-4.76-1.78.08-.14.12-.32.23-.41a1.71,1.71,0,0,1,.46-.19c6.34-6.36,10.27-14.25,13.65-22.37a175.39,175.39,0,0,1,10.65-22,49.29,49.29,0,0,0,5.14-13.39A102.63,102.63,0,0,1,626,284.84a27.47,27.47,0,0,1,11.68-8.77c-8.25,3.26-13.68,9.64-18.1,16.95-6.73,11.15-12.89,22.57-14.64,35.77a11.14,11.14,0,0,1-1.83,4.62c-7.39,11.18-11.87,23.8-17.76,35.72-1.7,3.44-3.79,6.64-5.73,9.93-.55.92-1,2.21-2.54,1.95-.46-3.85-3-3.27-5.55-2.57-8.45,2.37-16.88,4.83-25.34,7.2-4.35,1.22-8.48.25-12.3-1.89a6.79,6.79,0,0,0-5.28-.4c-8.21,2-16.69,3.2-24.46,6.56-5.95,2.58-12.1-.71-17.87,1.61-.46-2.52-6.29-2.24-3.39-6.5,2.1-.57,2.24-2.73,3.35-4.11,1-1.22,1.7-3.72,3.52-2.65s-.11,2.84-.61,4.28c5.86-14.39,12.41-28.53,16.38-43.63a34.66,34.66,0,0,1,6.38-12.84c6.05-7.68,8.81-17.09,13.62-25.42,1.71-3,.7-6.58,1.92-9.72,1-1.58,2.7-2,4.24-2.78,12.39-4.56,23-12.13,33.66-19.73-6.49,1.63-12.39,4.77-18.77,6.49-2.42.65-6,3.22-7.15.71-1.25-2.78,3-4.13,5.16-5.66a89,89,0,0,1,12.2-6.77,13.82,13.82,0,0,0,4.76-3.12c0-.63-.23-1-.53-.9-12.16,4.49-24.66,8.44-32.1,20.38-1.05,1.69-2.43,3.73-4.73,2.59a5.47,5.47,0,0,1-3-5.9c1.31-5.42,2.24-11.18,7.24-14.87a5.13,5.13,0,0,1,1.65-1.1c9.28-2,14.5-8.9,19.41-16.13.89-1.31,2.89-1.83,2.79-4.38-7.3.35-13,3.54-17.49,9-2.89,3.44-5.24,7.3-8,10.86a9.81,9.81,0,0,1-3.59,3.39c-2.3,1-4,.6-4.18-2.22-.17-2.48-.42-5,1-7.27,1.49-4.93,2.8-9.89,4.74-14.68,3.24-8,8.58-13.71,16.88-16.46,8.78-3,16.68-1.12,23.83,4.42a28.21,28.21,0,0,0,6.22,4.12c15.28,6.18,23.58,18.86,30.82,32.59,1.07,2,2.07,4.1,3.29,6.7-3.53-11-10.1-19.6-16.52-28.2-3-4-7.78-6.15-12.21-8.46a95.84,95.84,0,0,1-12.36-7.45c-7.5-5.44-15.65-6.94-24.41-3.14-1.17.24-2.29,1.17-3.55.27-.7-5.5,3.38-8.66,6.72-11.37a190.81,190.81,0,0,1,19-13.73,37.49,37.49,0,0,1,11.27-5.15,24.61,24.61,0,0,0,7.68-7.05c8.42-11.45,20.88-17.23,32.79-23.8.57-.32,1.3-.39,1.83-.76,8.14-5.76,16.31-3.8,25.14-1.28a139.24,139.24,0,0,1,48.31,24.13,56.74,56.74,0,0,1,17,21.78c9.53,21.06,18.11,42.52,26.21,64.17,3,8,3.77,16.49,4.4,24.94.22,2.84.77,5.6,1.26,8.37C738.73,304.73,739.45,304.45,740.21,303.89Z"/><path class="cls-2" d="M125.91,140c.26,1.41.43,3.22,2.15.89,1-1.38,1.77-.82,2.63.06l.51.49c-2,6.8.81,13.12,2.23,19.5a37.66,37.66,0,0,0,6.85,14.34c2,2.63,2.67,5.93,4.61,8.61.14-3.81-1.66-6.87-3.68-9.85A29.53,29.53,0,0,1,139,170.7a2.09,2.09,0,0,1-.09-2.35c.65-.82,1.58-.46,2.24,0,4.22,3,9,5.12,12.89,8.54,2.73,2.37,3,5.07,0,7-4,2.65-6.64,7.11-11.66,8.25-1,.23-2,1.08-1.88,2.07.68,4.22-2.41,5.74-5,7.79s-5.3,4.5-5.51,8.49a5,5,0,0,1-3.91,4.67,16.12,16.12,0,0,0-4.38,2.35c-3.38,2.29-7.06.63-6-3.11,2.44-8.84-3.22-13.67-6.82-18.06a38,38,0,0,1,5.84,7.95c2,3.76,1.35,5.14-2.74,5.78-2,.31-3.94.39-5.46,2.05a11.28,11.28,0,0,1,2.3-.08c1.84.47,4.7-1.6,5.4.66.85,2.74,2,5.82-.44,8.93-5.51,7-8.71,15.21-11.37,23.64a67,67,0,0,1,13.31-21.22c4.69-5.21,4.73-5.17,9.28-.05,1.27-1.31.45-2.83.43-4.24,0-2,.9-3.27,2.4-4.62,4.79-4.31,10.56-7.8,12.89-14.34.11-.29.72-.57.68-.68-3.45-9.57,6.59-9.37,10.21-13.71,2.18-2.61,4.84-4.68,6.7-7.8,4.92-8.25,9.11-8.83,15.18-3.84,7.15,5.88,16,9.66,21.38,17.75,3.35,5,3.92,5.84-.06,10.4-12.83,14.71-23.31,31.19-35.34,46.49-5.24,6.68-11.39,12.58-16.93,19-2.5,2.91-6.35,3.52-9.52,5.3-2.44,1.13-5.12,1.36-7.69,2-3.18.85-5.85-.71-8.59-1.84C102.4,268.07,91,258.54,81,247c-7.49-8.69-13.93-18.1-19.9-26.71,2.38,4.49,6.54,8.93,9.71,14,.81,1.31,2.59,2.73,1.28,4.44s-3,.11-4.47-.37c-5.18-1.67-10-4.11-15-6.25,6.61,3,13.36,5.61,20,8.49,7.16,3.1,12.13,8.83,15,16.24-4.3,4.77-10.14,7.4-15.29,11-.92.64-2.22,1.26-3.09,0-.65-1,.21-1.88.8-2.66,2.64-3.49,6.3-5.89,9.4-8.95-2.29,1.2-4.4,2.71-6.6,4.06-1.56.95-3.13,2-5.11,1.22C66,260,67.3,259,68.3,258.27a23,23,0,0,1,6-3.61c-3.3,1-6.29,1.84-9.45,1.47-1.32-.15-2.78-.3-3.17-1.89s.59-2.57,1.67-3.36a31.8,31.8,0,0,1,8.53-4.19c-4.1-.62-8.26-.46-12.68-1.43.91.6,1.59.33,2.18.52,1.52.49,3.84-.4,4.5,1.38.86,2.3-1.7,3-3.05,3.9-2.12,1.47-2.5,3.3-2.06,5.57-1.48,5.33-6.86,7.46-9.66,11.88,1.87.35,4.2-2.85,5.65.88.44,1.15,1.67-.19,2.42-.62,2.73-1.57,5.11-3.68,7.83-5.28a2.42,2.42,0,0,1,2,.27c-.1,4.76-4.92,6.12-6.89,9.65,0,.19.18.17.62,0,1.56-.7,3.49-2.94,4.74-1.34,1.87,2.4-2,3.53-2.41,5.72A14,14,0,0,0,69.22,279a93.26,93.26,0,0,0,20.07-15.89c1.63-1.72,3-3.33,5.32-1.34,2.5,2.11,1.44,3.8-.51,5.73-3.15,3.11-2.92,3.61,1.55,4.74a7.12,7.12,0,0,1,3.21,1.19c2.32,2,1.94,4.77-1,5.61a38.9,38.9,0,0,1-8.78,1.58c-1.31.06.69.86-.1,1.23-12.22.72-24.28,2.75-36.38,4.38-3.84.52-6.36-.55-7.63-4.26-4.79-15.1-5.21-30.69-4.33-46.26a85.67,85.67,0,0,1,7.38-31.2c3.51-2.17,3.13,3,5.81,2.95a38.43,38.43,0,0,1,1.79-24.59c1.42-4.7,3.73-8.74,7.8-11.74,3.51-2.59,5.06-6.93,8.23-9.87,4.42-6.06,10.57-8.56,17.86-9.38,4.68-.52,9.32-1.48,13.31-4.7a41.91,41.91,0,0,1,13-7.21c1.26-.42,2.71-1.12,3.78-.07s.11,2.51-.46,3.64a13.53,13.53,0,0,0-1.88,7.11c-2.47,11.64,3.77,20,10.69,28,2.36,2.74,5.38,4.93,6.82,8.39-1.12-4-4.3-6.47-7.15-9.05-6-5.45-7.32-13.19-10.31-20.12a5.62,5.62,0,0,1,.57-4.84C120.42,148.61,120.81,142.85,125.91,140Z"/><path class="cls-3" d="M521.19,69.85c6.88-1.63,13.82-1.26,20.77-.64,4.36,1.64,8.89.48,13.33.73a14.8,14.8,0,0,0,2-.27c13.44-1,18,2.13,21.87,15,.47,1.58.41,3.35,1.77,4.57l.12,5.83c-1.15,4.16,2,7.06,3.19,10.49,1.49,4.13,4.68,7.64,4.47,12.39-1.94,2.52-3.63,1.59-5.8,0s-4.3-4.64-7.67-1.76a1.55,1.55,0,0,1-2.26-.3c-1.63-3.33-4.87-6-4.34-10.26a3,3,0,0,1,1.72-2.76c2.93-1.35,4.41-3.94,5.57-6.66-.72,1.13-1.19,2.52-2,3.68-2.42,3.23-4.52,3.52-7.23.42-1.87-2.14-3.25-2.42-5.31-.53-1.35,1.25-2.91,2.21-5.08-.49,1.2,3.59,2.42,3.28,4.36,2,4.57-3.08,7-1.66,7.68,4,.34,2.91.56,5.74,2.52,8.41,1.82,2.49,2.48,4.36,6.22,2.25,2.63-1.48,3.34,1.59,2.59,3.53-1.64,4.27-.11,5.89,4,5.55,2-.16,2.16,1.14,2.41,2.41.35,1.74.05,3.58.68,5.31-.19-3.3.83-6.51.52-9.79a1.82,1.82,0,0,1,1.57-2.18,12.15,12.15,0,0,1,5.37,9.5,14.51,14.51,0,0,0,2.28,6.95c1.26,2.05,1,4.11.62,6.25a7.59,7.59,0,0,1,5.48,2.92,2.58,2.58,0,0,1,.92,1.66c-3,3.85-7.27,4.21-11.55,4.31-3.74.09-7.06-.06-9,4.34-1.14,2.61-4,3.32-6.8,1.43.69-3.15-.11-6.16-.93-9.16-1.44-5.31-1-10.29,1.62-13.7-3.49,6.55-5.5,15.21-9.77,22.88-.28.18-.66.45-.9.33-6.93-3.4-14.2-6.2-20.37-11a5.43,5.43,0,0,1,1.61-3c2.78-3.27,3.5-3.33,5.56.44,1.48,2.69,2.51,2.74,4.1.24.85-1.34,1.62-3.57,3.51-2.9s.53,2.92.74,4.45c.09.63-.1,1.33.67,1.94,3.4-4.47,4.63-9.89,6.55-15,1.13-3-.77-3.59-3.22-2.68s-4.27,2.56-6.2,4.15c-2.1,1.74-4.2,3.33-7.19,1.84-2.19-1.08-3.33.84-4.66,2-2.4,2.08-4.66,2.51-6.81-.32-.69-1.39-2-2.17-3.08-3.22-1.47-1.48-2.49-3,.2-4.75-2.43-.25-3.65,1-5,1.91-1.75,1.16-3.37,1.59-4.5-.77-1.33-2.78-2.81-1.6-4.16-.1-1.52,1.69-2.81,2.85-5.52,1.86s-3.29,2.1-4.56,3.67c-1,1.24-1.74,3.41-3.64,2.61s-1.22-2.86-1-4.49c.22-1.78.89-3.56,0-5.22-2-.48-2.49,3-4.35,1.45-1.51-1.28-1.07-3.38-.87-5.2.3-2.72,2-7-.92-7.6-3.33-.73-3.5,4-4.65,6.57s-1.07,5.52-1.26,8.34c-.09,1.36.14,3.41-2,3.3-1.53-.07-2.13-1.62-2.08-3,.24-5.76-1.28-11.7.57-15.09a31.41,31.41,0,0,0-.57,16.53c.29,1.26,1.19,2.67-.21,3.67s-3.07.13-4.05-.88c-6.2-6.34-10.49-12.45-4.13-20.33,1.83-2.27,3.13-4.29-.48-6.24-1.47-.79-1.8-2.35-.71-3.87,1.37-1.9,3.09-3,5.55-2.44,4.46,1,6.68-.33,7.51-4.8a8.43,8.43,0,0,1,2.85-4.55c2.11-2.06,4.91-3.39,6.08-6.4A2.26,2.26,0,0,1,508,88.41c2.74.48,4.43-.8,5.68-3,.33-.58.73-1.46,1.28-1.47,5.57-.16,7.27-4.9,10-8.49-1.33,0-1.7,1.09-2.23,2-.33.58-.64,1.17-1,1.74-.72,1.13-1.51,2.62-2.91,2.47-5.63-.62-7.24,9.89-14.27,5.07a1.88,1.88,0,0,1-.86-1.06c4.92-8.19,11.82-13.47,21.37-14.85a4.32,4.32,0,0,1-1.8.16A2.36,2.36,0,0,1,521.19,69.85Z"/><path class="cls-2" d="M276.24,240.22c-2.68,1.51-6.57.93-8,4.63-5.08-1.32-10.48-.85-15.39-3.37-4.36-2.23-7.62-6.95-13.1-6.73,1.61-1.05,3.1.23,4.63,1.2,3.91,2.46,7.5,5.39,12,7,3.27,1.17,1.72,2.84-.05,4.25a4.47,4.47,0,0,1-1.34.38c-3.37,1.19-7.16.15-10.41,2a2.77,2.77,0,0,1-2.68-.33c-.75-4.62-4.36-6.25-8.09-7.84-5.79-2.47-11.71-4.73-16.17-9.51-2-2.2-4.14-4.25-5.16-7.21s-3.65-4.19-5.85-5.94c-1.4-1.12-3.32-1.63-4.19-3.4.47-2.95,0-5.16-3.61-5.65-1.13-.16-2.12-1.41-3.16-2.18-2.17-1.64-2.15-3.31-.55-5.5,3.58-4.85,3.5-5.5-.5-10.09a71.14,71.14,0,0,0-6.89-7.21c-3-2.6-2.65-5,0-7.59s5.32-5.51,8.17-8.07c5-4.51,10.75-2.49,12.14,4.19.37,1.78.06,3.63.32,5.5,2.77.72,3.79-1.68,5.47-2.76,1.43-.66,2.77-.16,4.1.33a47.81,47.81,0,0,1,6.18,6.06c3.43,6.21,9.44,9.8,15.73,9.72a14.65,14.65,0,0,0,14.1-10.77c1-3.28,2.68-3.29,5.1,0,4.7,6.43,8.06,13.73,12.93,20.07a87.21,87.21,0,0,1,6.31,10.14c5,8.87,4.13,17.47-.91,26C276.8,238.38,276,239.09,276.24,240.22Z"/><path class="cls-4" d="M575.9,157.22c3.28,1.49,6.31.82,6.82-2.78s2.61-3.66,5.14-3.52A29.67,29.67,0,0,0,601,149.14c1.2-.5,2.14-.79,2-2.28a.66.66,0,0,1,.23-1l4.73,2.15c.38,2.42-1.72,2.59-3.09,3.15-15.54,6.36-25.64,18-32.46,33-.56,1.21-1.41,2.46-1.34,3.74.32,5.3-3.24,7.35-7.16,9.51-6.13,3.37-11.46,7.94-17.12,12-2.42,1.74-4.76,2-6.84.2a174.66,174.66,0,0,1-17.43-17c-2.71-6.24-6.82-11.72-9.64-17.91-1.11-2.43-2.07-4.53-.14-6.89.77-1,1.29-2.07.48-3.2-2.95-4.08,0-4.67,3-5.28,4.33.29,9,2.06,11,5,2.75,4,5.22,7.95,9.34,10.73.83.56.51,2.24,1.87,3.19,3.37-2.51,2.11-6,2.05-10.21-.81,2.21,0,4.43-1.87,4.83-1.69.36-2.47-1.46-3.23-2.64-3.79-5.87-10.07-7.9-15.93-10.58-1.51-.69-3.19-1-4.59-1.94-3.89-1.63-2.64-6.82-6.08-8.78,4.48-6.67,10.27-11.66,18.63-11.8,3.26-.06,6.57-3.37,9.84-.15,4.1,4.32,3.54,6.46-3.13,11.94,1.64.11,2.69-1.18,4.07-1.64a6.34,6.34,0,0,1,2.87-.25,70.56,70.56,0,0,1,21.83,10.57c2.77,1.93,5.52,3.85,9.16,2.49,1.8-.31,1.82-2.46,3.24-3.17Z"/><path class="cls-5" d="M282.63,327.12c-24.43-2.38-48-8.71-71.47-15.55-3-.89-6.07-1.69-9.11-2.53a176.81,176.81,0,0,0-29.42-6.9l-.32.05-.24-.23c-2.59-3.33.92-3.21,2.2-3.15,5.45.29,10.95-.2,16.33,1.22,12.87,3.38,25.31,8.12,38.14,11.7,15.5,4.33,31.26,6.4,47,8.92,15.6,2.49,31.5,2.23,47,5.77,9.59,2.19,19.13,4.55,28.65,7-24.85-7-50.57-10.28-75.44-17q-26.06-7-52.38-12.6c-19.62-4.12-39.5-5.42-59.43-6.34-5.14-.24-10.31,0-15.34-1.37-7.73-1.3-15.8,0-23.29-3-.89-.36-1.75-.79-2.63-1.19.41-2.06,2.13-2,3.53-1.84,20.3,2.76,40.85.12,61.2,3,9.17,1.28,18.56,1.1,27.76,2.61,1.51.25,3-.28,4.43-.51,1.62,0,3.23,0,3.41,2.18,7.5,2.76,15.44,3.45,23.17,5.06a161.5,161.5,0,0,1,20.66,5.35c12.1,4.26,24.9,5.69,37.21,9.14a47,47,0,0,0,6.12,1.58c-3.35-.93-6.7-1.81-10.08-2.6-2.11-.49-4.27-1.06-4.77-3.7.18-1.38,1.14-1.76,2.33-1.86,6.82.68,13.46,2.31,20.14,3.75a124.34,124.34,0,0,0,19.3,3.73c14.75,4.88,30.39,4.49,45.44,7.62,3.41.71,6.8,1.47,10.12,2.49,6.05,1.66,12.23.37,18.33.78.07,0,.93.28.24-.5-2-2.25.08-2.78,1.66-3.24,1.41-.42,3-.27,4.33-1,8.22-2.62,16.19-6.15,24.92-7,1.81.17,3.44.8,3.26,2.92-.3,3.49-3.7,3.2-5.43,4.11,22.18-7.07,45.48-10.29,69.15-11.31,2.25.65,5.9-1.18,6,3.35-4,3.49-9.19,2.74-13.82,3-23.49,1.47-46.25,7.13-69.22,11.6C419.9,333,407.58,336,394.8,333.87c-2.75-.46-3.41,1.09-3.41,3.51,0,3.28.73,6.67-1.08,9.76,0,8.91-.81,17.81-.22,26.73.17,2.62-.23,5.26-2.17,7.34-2.53-.66-2.43-3-2.79-4.81a47.16,47.16,0,0,1-.24-15.41c1-7.14.67-14.29.51-21.43-.12-5.66-2-7.05-7.53-6.33-2.31.31-4.6.74-6.89,1.2-2.1.42-4.2.86-7.09,1.29,4.31,1.29,5.75,2.58,3.47,7-2.18,4.26-1.77,9.71-1.9,14.71-.27,10.46.87,21-.91,31.39-.35,2.08-.37,4.42-3.37,5.23-2.24-6.77-2-13.67-1.24-20.54,1.08-9.47.33-18.95.54-28.42.07-3.38-1.94-4.53-4.85-5.22-4.5-1.07-9.3-1.06-13.46-3.46-7.29-2.18-14.94-2.26-22.34-3.93C307.58,329.76,295,329.2,282.63,327.12Z"/><path class="cls-6" d="M342.1,335.83c4.88,1,9.72,2.4,14.64,2.78s5.3,2.79,5.37,6.84c.25,14.15-1.07,28.24-1.1,42.37,0,1.76,0,3.53,0,5.3l1.38.15c.53-3.76,1.38-7.5,1.53-11.27.48-12.45-.31-24.94.94-37.38.25-2.51-.08-5,3.87-5-2.54-2.44-5.47-2.26-8.43-4.17a88.54,88.54,0,0,1,21.86-4.12c4.11-.19,4.72,3.91,4.89,7.4.52,10.66-.89,21.25-1,31.88a23.87,23.87,0,0,0,1.85,10.62c-5.14,4.54-9.19,10.16-14.73,14.34-2.92,2.19-6.07,2.12-9.25,2.39-2.08.18-4.07-1.25-3.76-3.1.81-4.76-3.13-5.6-5.5-5.72-5.63-.31-7.43-4.07-9.4-8.09-2-11.34-1.79-22.9-3.52-34.27,1-3.17-.36-6.38.16-9.56A.8.8,0,0,1,342.1,335.83Z"/><path class="cls-7" d="M515,315.76c-1.24-3.26-4.1-1.09-6.1-1.81.29-2.46,2.35-2.14,3.84-2.14,3.22,0,4.74-1.69,5.77-4.49,1.47-4,3.49-7.8,3.51-12.2,2.1-5.23.85-10.06-1.67-14.8-4.73-8.89-3.87-18.08-1.23-27.32.59-.62.26-2.41,1.61-1.88s.87,1.84.27,2.88c-.07.15-.13.31-.21.45-1.41,2.68-1.8,6.68.11,7.74,2.52,1.41,4.29-2.29,5.75-4.33,4.46-6.21,8.3-12.93,15.44-16.67a27.9,27.9,0,0,1,10-3,2.49,2.49,0,0,1,2.61,1.1c.61,1,.09,1.81-.61,2.64-5,6-10,12-16.39,16.63-1.75,1.28-2.64,5.4-6.8,2.57-.82-.55-5.65,3.85-6.23,7.52s-4,6.83-1.4,11c1.46,2.32,2.59,3.18,4.06.34,7-13.5,20.81-16.8,33.19-22.22,1.15-.5,2.64-1.32,3.46.43.73,1.57-.43,2.53-1.62,3.2-5.36,3-10.8,5.91-16.13,9a37.8,37.8,0,0,0-6.72,5.08,128.35,128.35,0,0,0,21.6-7.42c1.52-.67,3-1.37,4.62-1.89a1.46,1.46,0,0,1,2,.92,2.37,2.37,0,0,1-.3,1.83,9.38,9.38,0,0,1-2.28,1.91c-10.67,6.75-20.91,14.3-33.09,18.33-1.44.35-3,.92-3.61-1.18-.43-1.56.67-2.38,1.75-3.22,1.83-1.43,4-2.24,5.83-3.63-3.4,2.69-9.56,3.07-7.93,9.88,0,12.52-6.79,22.62-13.1,32.28-5.8,8.88-9.06,18.33-12,28.14-3.71,12.24-9.85,23.39-15.25,36.3-.84-4.32,2-6.13,2-9.3-2.37,1.92-2.94,4.56-4.36,6.6-.75,1.07-1.64,2.56-2.4,0l3.66-8c-25.81,5.75-52.31,5.93-77.4,14.07-.45.21-1,.31-1.18-.23-.38-.95.35-1.42,1-1.88,15.09-6,31-8.18,47-9.92,10.26-1.12,20.4-3,30.52-5a5.08,5.08,0,0,0,3.79-2.77c4.82-8.57,9.57-17.14,10.8-27.15.77-6.29,4.45-11.34,8.18-17.11a261.38,261.38,0,0,0-49.47,8.68c-18.52,5.12-37.45,7.47-56.47,9.4a4.43,4.43,0,0,1-3.39.11c-.77-.28-1.71-.53-1.81-1.47-.14-1.32,1.05-1.56,2-1.77,2.77-.65,5.66,0,8.43-.56,15.32-2.85,31-4,46-8.7a204.3,204.3,0,0,1,49.32-9.28C509.56,323.07,513.14,321.07,515,315.76Z"/><path class="cls-8" d="M522.93,192q8.46,8,16.92,16.08c1.86,1.76,3.6,2.37,6.07.52,7.17-5.36,14.2-10.95,22.16-15.17a2.64,2.64,0,0,0,1.77-2.12c1.75-14.39,10.29-24.58,20.92-33.4,5.15-4.28,11.42-6.67,17.15-10,6.83-3.47,8.59,3,12,6.15,1,1.66.24,2.17-1.3,1.78-1.33-.34-2.08-1.56-2.91-2.6-1-1.2-2.08-2.56-3.71-1.75-4.22,2.11-9.19,3.05-12.15,7.26a9.45,9.45,0,0,1-3.64,3.3c-12.37,5.8-18.14,16.89-23,28.68-.47,1.31.37,2.25.94,3.27-9.62,2.4-16.49,9.36-24.38,14.65-5.59,3.76-10.54,8-13,14.49-2.45,3.75-3.33,4-4.9,1.54,1.76-3.56,4.33-6.54,6.74-9.64.85-1.11,2.4-2.27.33-3.64-5.21-3.45-8.7-8.63-13-13-4-4.11-9.84-6.24-12.66-11.65-.56-1.07-1.41-.79-2.5-.67-8.26.85-11.79-3.34-9.3-10.94.47-1.44,1.23-2.81-.11-4.13-5.25-5.18-5.9-12-6.75-18.76-.3-2.43-.09-5-1.7-7.15-2.63-4.51-7.75-6.48-10.59-11-3.7-6-4.64-11.24.06-16.86,1.09-1.29,2.31-2.62.37-4.2-3.29-3.11-2-6.26,1.14-7.69,3.53-1.62,3-3.32,2-6-1.48-4-1.43-7.91,2.54-10.7a5.72,5.72,0,0,1,2.68-1.1c1.59-.13,2.62,3.14,3.41,2,2.74-3.87,8.21-4.15,10.43-8.15,3.63-6.54,10.25-8.52,16.21-11.58h8.27c.2.57.4,1.14.59,1.71-12.11-.84-19.35,6.34-26,14.45-3.88,2.87-6.32,8.24-12.56,7-1.52-.29-1.93,1.1-1.8,2.33.24,2.3.69,4.57,2.68,6,.54,0,1-.24.87-.48-2.74-5.76,2.15-7.41,5.46-9.33A13.22,13.22,0,0,0,504,86c1.33,0,2.82-.3,3.94.2,3,1.32,4-.36,4.67-2.63.76-2.63,1.76-4.23,4.92-2.84,2.28,1,2.68-1.21,3.46-2.58.95-1.67,1.22-4,3.77-4.16,1.33-.1,3.11-.2,3.47,1.24.46,1.8-1.23,1.37-2.33,1.41-1.55.07-1.53,1.46-2,2.47-1.45,2.89-2.35,6.57-7,5.09-1-.31-1.42.48-1.76,1.32-1.34,3.3-3.36,5.35-7.29,3.92-.36-.13-1.24.13-1.28.32-1,5.9-10.1,6.66-8.9,14a2,2,0,0,1-1.84,2.07c-2.88-.17-3.57,1.36-2.82,4.54-2.65-2.49-4-6.21-7.67-3.14-1.64,1.37-2.77,2.85.09,4,4.14,1.61,3.61,3.27,1.09,6.4-6.4,7.9-3.72,16.74,6.54,21.29a30.44,30.44,0,0,1-.93-18.75,35.18,35.18,0,0,1,1.44-4.75c.4-1,.69-2.6,2.26-2.11,1.83.58.68,2.09.27,2.89-2.9,5.6-1.33,11.67-1.93,17.5a2.5,2.5,0,0,0,1.41,2.65c1.09-3.34-.15-6.74,1.21-9.81.73-1.66,1-3.53,1.79-5.17,1-2.19,2.23-5.47,4.93-4.77,2.95.77,2.71,4.29,2.36,6.91s-.95,4.89-.64,7.45c1.42.18,1.3-1.16,1.74-1.84.65-1,1.25-2.21,2.64-1.67,1.2.47,1.45,1.77,1.37,3a40.58,40.58,0,0,0,0,9c1.12-1.74,2.15-3.55,3.37-5.22,1.46-2,2.46-5.41,5.76-1.4,1.33,1.62,1.8-.95,2.55-1.68,1.41-1.36,2.34-3.47,4.76-3.1s1.15,3.16,2.47,4.5c2.15-.18,3-2.56,4.82-3.13,2.09-.64,5-1.38,5.74,1,.9,2.86-3,.41-3.77,2.34a5.4,5.4,0,0,0,3.93,3.27c1.37.28,1.56,1.06.48,2-1.29,1.05-2.56.74-3.83-.06-1.13-.23-1.71-1.67-3.07-1.41-9.54,1.85-18.65,4.58-25.32,12.34-2.86,2.52-5.91,1-9.31.32a39.23,39.23,0,0,0,5.3,18.38c.35.57.68,1.31,1.27,1.5,6.25,2,8,7.47,9.94,12.79C517.45,185.79,521.16,188.27,522.93,192Z"/><path class="cls-9" d="M129.09,135c-4.1-6.16-3-13.82-5.86-20.33,4.51-7.65.64-17.24,6.24-24.88A95.42,95.42,0,0,1,145.19,72.5c4.39-3.65,8.7-3.46,13.25-1.38a7.08,7.08,0,0,0,5.26.58c6.51-2.11,12.37.37,18.58,1.69,4.12.88,7.74,1,9.45,5.49a2.3,2.3,0,0,0,1.66.93c9.38,1.2,10.5,9.2,12.35,15.93,1.12,4.08.35,8.47,2.88,12.58,1.59,2.6,1.13,6.46,1.59,9.76.71,2.74-.1,5.58.52,8.34.27,1.22,0,2.46-1.35,2.81s-2-.79-2.5-1.88c-1.27-2.92-1.25-6.11-1.76-9.19-1.52-9-.76-7.26-8.34-6.9A17.78,17.78,0,0,1,185.63,104a13.66,13.66,0,0,1-1.31-1.74c-1.14-1.69,0-2.59,1.36-3.5-2.25-.62-3.1,1.34-4.52,2.12-2.23.92-4.62,2.14-4.21-2.14,1.36-3.38,3.28-6.22,7.23-6.82,1.58-.24,2.13-.91,2.34-2.56.44-3.44,2.55-3.43,5-1.87a8.76,8.76,0,0,0,3.15,1.44c3.56.61,6.16,2.24,7,6.08s-1,6.71-3.86,9.06c-.44.36-1.3.39-1.19,1.37a4.32,4.32,0,0,0,4.87-3.91c.7-4,1.37-8.06-2.54-11-3.61-2.67-6.08-6.56-9.87-9a1.79,1.79,0,0,1-.6-1c1,2.32.9,5-2.62,6.49A8.54,8.54,0,0,0,182,90c-.85,1.22-2,1.91-3.37.92a2.79,2.79,0,0,1-.91-3.56,6.93,6.93,0,0,1,2-2.8c3.66-3.33,3-6.18-1.86-7.65-1.41-.43-2.94-.41-4.29-1.19s-3.19-2-4.5-.3.33,3.13,1,4.56c1,2.11,2.75,3.76,3.8,5.85.53,1.07,1,2.29-.08,3.19a2.1,2.1,0,0,1-3.11-.56c-2.73-4.62-8.36-2.58-11.87-5.34a1.71,1.71,0,0,0-2.27.44c-2.91,3-6.62,3.61-10.53,3.73-2.51.08-4.34,1.48-6.07,3.11-.87.82-1.94,1.54-3,.43a2.55,2.55,0,0,1-.17-3.24c1.71-3.05,4.64-4.17,7.86-4.67,4-.62,7.5-1.34,10.28-5.1s5,.79,7.44,1.73c-4.72-6.53-11.18-7.4-17.28-2.22-6.76,5.74-11.38,13-14.69,21.11a13.07,13.07,0,0,0-.84,7.34c.27,1.48.75,3.13-.07,4.41-2.59,4-1,7.93.07,12,9.84-9.75,14.61-9.41,17.84,1.37.21-1.41-.14-2.65.42-4,1.05-2.52.23-4.79-2.4-5.73-3.89-1.4-3.59-3.74-1.27-6s4-6.87,8.6-2.3c1.21,1.2,3.47-1.23,4.53-3,1.91-3.14,3.82-6.28,6.69-8.65,1.41-1.18,3.18-2.65,4.77-.88,1.23,1.37-.49,2.7-1.39,3.81-1.14,1.42-2.29,2.82-3.42,4.35,2.76-.36,4.09,1,4.34,3.57.94,3.85,1.79,7.51,5.51,10.12,3.14,2.2,3.32,6.52,3.72,9.93.35,3-2.43,5.06-5.76,4.7-3.06-.32-5.94.33-9.52.84,3.68,2.61,7.28,4.43,10.65,6.58,1.8,1.16,3.89,2,4.69,4.25a2.08,2.08,0,0,1-2.07,2.53c-4.19-.92-7.17-4-10.8-6-2.48-2.38-5.17-4.39-8.67-5-1-.27-1.92-.92-2.84-.73-5.86,1.22-8.33-2.52-10.33-6.92-2.69-5.9-2.66-5.91-7.94-1.54a15,15,0,0,0-3.09,5.19c-.62,1.44.13,2.89,0,4.31S131.25,136.13,129.09,135Z"/><path class="cls-10" d="M221,296c-2.26,1.47-4.55,1.48-7.28,1.15-16.9-2.05-33.82-4.12-50.89-4.07-12.43,0-24.83-.07-37.16-1.88a2.83,2.83,0,0,0-2.75.73c-4.55-1.14-9.2-1.85-13-5.06-1.39-1.16-3.63-1.54-5.55-1.79-2.34-.3-4.59.46-6-2.76-.81-1.81-4,.16-6-.51,1.45-3.24,4.44-1.87,6.76-2.09,8.77-.81,17.68-.76,25.86-4.76,2.58-1.33,5.46-1.47,8.24-2a5.73,5.73,0,0,1,3.19-.89c1.77-.12,3.46,0,4.7,1.51,2.49,2.7,5.84,3,9.16,2.95,10.94-.19,21.9.73,32.82-.82,5.31-.75,10.62.37,15.83,1.25a55.54,55.54,0,0,0,14.38.42c3.61-.34,6.24-.35,7,3.93.21,1.19,1.4,1.8,2.41,2.37,1.94,1.86,6.08-.17,6.8,3.65C229.83,289.47,224.51,294.7,221,296Z"/><path class="cls-10" d="M515,315.76c1.9,3-1.17,4.36-2.11,6.38-1.09,2.35-2.48,2.54-5.51,2.34-6.34-.41-12.82,1.06-19.21,2-13.33,2-26.18,5.91-39.21,9.18A279.06,279.06,0,0,1,399,343.45c.9,1.84,2.89,1,4.3,1.64-4.16,1.84-8.82.44-13,2.05-.24-4.3-.29-8.63-.81-12.91-.33-2.73,1.41-2.21,2.73-2.13,3.31.2,6.59.77,9.9.92,14.64.66,28.57-3.67,42.63-6.61,21-4.37,42-8,63.38-9.46A65.19,65.19,0,0,0,515,315.76Z"/><path class="cls-10" d="M148.82,296.11c16.49-.89,32.88.66,49.23,2.45,26.63,2.9,52.52,9.18,78.29,16.45,16.57,4.68,33.72,7.24,50.54,11.08,8.85,2,17.53,4.74,26.2,7.51-6.37-.08-12.26-2.47-18.4-3.62-15.66-2.92-31.45-4.63-47.29-6.42-20.19-2.28-40.43-4.82-60.18-10.7-12.87-3.83-25.38-8.88-38.49-11.79-5.18-1.15-10.71-.77-16.09-.93-1.42-.05-.67,1.11-.56,1.82C164.59,299,156.17,299.64,148.82,296.11Z"/><path class="cls-10" d="M522,295.12a5.64,5.64,0,0,1,.3,6.27,19.67,19.67,0,0,0-1.62,4.1c-1.49,5-3.62,9.12-10.07,7.68-.5-.11-1.15.5-1.73.78a297.21,297.21,0,0,0-58.3,8.31,68.39,68.39,0,0,1-13.66,2.17c1.91-.77,3.83-1.53,5.74-2.31,1.11-.45,2.22-1,2.16-2.41-.08-2-1.87-1.38-3-1.73-.17-2,1-3,2.73-3.55,2.19.4,3.8-.78,5.46-1.91a144.59,144.59,0,0,0,13.24-9.71c4.05-3.46,9.2-2.79,13.82-2.64,8.27.27,16.54,1,24.8,1.69,2.16.17,4.31.13,6.47.09,4.34-.06,8.3-.72,9.72-5.76a1.35,1.35,0,0,1,1.91-1Z"/><path class="cls-11" d="M574.17,194.08c-2.53.09-3.53-.8-2.1-3.26,11.63-14.67,25.87-25.88,43.33-32.91,2.79-1.13,5.67-1.33,8.54-1.84,4.13-4.93,8.39-1.27,12.33.11,12.63,4.41,25.79,7.3,37.47,14.4,17.46,10.6,31.32,23.49,38.9,43.5,6.44,17,13.28,33.95,20.29,50.77,4,9.55,5.3,19.53,5.94,29.67a68.42,68.42,0,0,0,1.34,9.37c-.45,1.24,1,2.53-.24,4.07-3.67-2.62-3.64-6.84-3.72-10.23-.59-24.21-11.9-45.1-20.3-66.87-3.47-9-7.49-17.77-11.49-26.54-6.9-15.14-20.56-23.15-33.86-31.39-12.64-7.84-27.34-10.21-41.17-14.88a5.07,5.07,0,0,0-3.89.36c-15.91,7.52-32.37,14.16-43.52,28.92C580,190,577.57,192.75,574.17,194.08Z"/><path class="cls-12" d="M520,295.19c-2.11,6.93-7,8.34-13.72,8-8.92-.49-17.8-1.43-26.7-1.85-6.4-.31-13.05-.75-18.45,4.76-3.41,3.49-8.15,5.65-12.08,8.68a4.29,4.29,0,0,1-5,.43,88.42,88.42,0,0,0-19.42,3.52,58.26,58.26,0,0,0-11.57,4.8c1.73.61,3.72-.07,5,1.5-.92,1.29-2.32,1-3.59,1.08-1.78.16-1.88.2-1.37,2.17.33,1.23-.5,1.59-1.18,1.56-6.29-.23-12.67,1.55-18.86-.8,3.95-1.74,6.23-1.83,11-.35-1.29-2.64-1.09-4.95,1.33-6.73,6.5-4.77,13.39-8.59,19.66-9-6.31-.68-14.75-.88-22.77-3.82a31.77,31.77,0,0,0-6.92-3.08,72.57,72.57,0,0,0-10.58-2.79c-1.11-.2-2.5-.29-2.75-1.7s.82-2.14,1.82-2.71c8.2-4.66,15.79-10.35,24.55-14.29.52-.11-.36-1.08-.1-.47.11.26.05.4-.18.43-4.51.66-8.73-1.19-13.13-1.59-4.12-.37-7.88-.47-11.48,1.82-1.56,1-3.6,1.89-4.78-.28s.62-3.36,2.13-4.47a11.29,11.29,0,0,1,6.47-2.28c8.15.05,16.19.94,22.16,2.64-3.19-.32-8.1-2.15-13.31-2.32-2.18-.08-4.41.27-6.45-.86-1.26-.8-3-.89-3.92-2.11-1.4-1.76-1.72-3.35,1.19-3.87,9.74,1.71,19.61,2.82,29.17,5.35,4.65,1.23,8.35.75,11.69-2.73,1.12-1.17,2.4-2.3,4.24-2.25.87.27,1.42.76,1.15,1.77-4.09,7-10.94,10-18,12.91a149.7,149.7,0,0,0-24.49,13.32c10.08,6.73,21.65,7.86,33.11,9.45,7.05,1,14.28,1,21,3.75,2.11.85,3.46-.41,4.91-1.52l18.93-14.42c1.15-.24,1.56.27,1.37,1.37.29.34.6,1,.87,1,13.08-.54,26,1.89,39.17,1.35,4.93-.2,5.7-3.53,7.7-6.28.53-.73.79-2.08,2.07-1.26C520.71,293.46,520.36,294.42,520,295.19Z"/><path class="cls-13" d="M218.06,177,214,176l-.66-.2c-.44-.5-.12.29-.39-.29-2.46-5.41-5.32-10.38-11.77-11.86-.54-.12-.67-1.07-.66-1.76a2.17,2.17,0,0,1,1.3-1.56c4.55-.68,8.1,1.52,11.22,4.32,2.58,2.32,4.4,2.07,6.63-.42a41.92,41.92,0,0,1,9-8.05c-4.65-5.61-9.24-11.09-11.64-18a17.55,17.55,0,0,0-3.32-7.31c-.8,2.51,1,4.42.69,6.57a1.28,1.28,0,0,1-1,1c-5.32-3.19-5.68-6.31-1.4-12.22,2.68-1.28,4,.29,5.06,2.41,4.73,9.49,9.65,18.74,17,26.72,2,2.2,3.82,5.83,5.58,8.86,1.13,1.93,2.72,4.56,5.94,2.53,1.61-1,1.82.92,2.59,1.49,11.31,8.36,16.82,21.17,24.62,32.24,4.72,6.68,9.65,13.3,10.43,21.72.65,7-1,13.41-7,18-1.33-.37-2-.73-.87-2.3,6.33-8.7,6.75-17.8,1.11-26.93-6.2-10-12.66-19.9-19-29.86a4.9,4.9,0,0,0-1.63-2.08c-.77,9.59-7.92,12-14.5,14.53-5.09,1.94-17-6-18.37-11.52,2.21-.84,3,1.36,4.45,2.08a12.41,12.41,0,0,0,2.33,1.1c3.34,1.49,5.76,5,10,4.41a13,13,0,0,0,7.11-3.25c2.64-2.31,3.83-4.9,1.61-8.16.33-1.41.85-3-.62-3.94-1.31-.81-1.23,2.29-2.89,1.42-4.37-1.25-5.78-5.63-8.7-8.41-2.5-2.38-4.22-3.58-6.27.2a13.07,13.07,0,0,1-4.22,4.08c-1.59,1.2-2.42,3.16-4.14,4.23C220.55,176.45,219.57,177.56,218.06,177Z"/><path class="cls-14" d="M124.9,274.91a11.61,11.61,0,0,1-7.74,4.23c-7,.82-14,2-21.13,1.84-1.27,0-2.68-.32-3.75.78l-3.25.11-2.75-1.55c3.94-.81,7.36-1.53,10.79-2.2,1.06-.2,2.34.28,2.37-1.65,0-1.5-1.08-2.07-1.88-2.66s-2,0-2.81-.45c-1.52-.78-4.06.61-4.65-1.9-.55-2.3,1.41-3.5,2.76-4.93.81-.86,3.06-.58,2.4-2.47a4,4,0,0,0-2.46-2.25c-1.79-.37-2.4,1.18-2.92,2.64a3.93,3.93,0,0,1-1.27,2c-7,4.2-12.31,10.56-19.48,14.46-2.46-2.36-1.14-4.12,1-5.69,5.07-3.8,10-7.77,15.06-11.56,2.57-1.91,3.71-3.77,1.8-6.68-4-6.6-8.26-12.93-16-15.93-7.5-2.92-15.19-5.56-21.27-11.26,6.83,4,14.43,6,22.65,9.4-4.49-8.68-11.12-14.92-13.6-23.61,5.37,7.39,10.37,15.1,16.2,22.12,9.09,10.95,17.78,22.69,30.85,29.2C111.9,270,117.49,274.78,124.9,274.91Z"/><path class="cls-15" d="M403.91,244c5.85,2.09,12.21,1.23,18.1,3.1,3.35,1.19,3.23,2.78.55,4.68-7.81,1.78-15.9.91-23.75,2.51-4.72,1-9.61,1.24-14.22,2.61-14.72,4.37-29.27,2.81-43.83-.67a131.08,131.08,0,0,0-14-1.86c-1.79-.1-4.06.38-4.78-2.23h7.62c-.32-2-3.33-.55-3.31-3.07,1.66-1.34,3.59.65,5.35,0,10.26,1.77,20.51,3.56,30.83,4.9a32,32,0,0,0,10.86-.52c10.2-2.15,20.31-4.83,30.3-5.55.24,0-.08.1-.42,0-17.36-5.49-34.23-.57-51.13,2.61a42,42,0,0,1-13.84-.08,2.76,2.76,0,0,1-2.6-2c-.34-1.42.59-2.11,1.88-2.4,4.12,2.24,8.37,1.2,12.59.43,10.92-2,21.79-4.32,32.78-5.81,5.36-.73,10.8,1,16.09,2.3C400.43,244.37,402.53,242.44,403.91,244Z"/><path class="cls-7" d="M322,252.16c4.51,1.66,9.34.81,14,1.75,1.74.36,3.59.21,5.21,1.15.28,3.91-2.78,5-5.47,6.13a90.14,90.14,0,0,1-12.8,4.14,45.52,45.52,0,0,0-7,2.09c-2,.73-4.51,1.54-5.83-.6-1.51-2.43,1.08-3.65,2.55-5.06,4.77-2.38,10.31-2.1,14.7-4.28-8.87,0-18-1.85-27.25-2.41-3.64-.22-7.27-.67-10.93-.61a450.54,450.54,0,0,1-48.74-1.84,19.63,19.63,0,0,0-8.3,1.29c-3.75,1.29-7.37,3.08-11.46,3.22-1.81-.34-3.49-.78-2.27-3.24,5.74-3.59,12.43-4.87,18.54-7.57,2.38-.37,4,.85,5.24,2.66l3-.1c3.25-.86,6.73-.59,9.84-2.09l0,.45c1,.62,2.17.37,3.27.5a40.65,40.65,0,0,1,7.9,1.34c3.38,1.79,6.69-.92,10-.15,2.67,2.08,5.7.68,8.55.81,4.1.19,8.2.18,12.3.26,2.05.24,4.12.13,5.23.44a7.16,7.16,0,0,1-4.37-1.36c-2,.17-3.36-1.1-4.93-1.93-.24-.81-2.68-1.9.3-2.3,3.31,2.05,7,2.14,10.69,1.84,1.28.39,1.85,1.63,2.83,2.37Z"/><path class="cls-16" d="M337.54,246.09c-3.54,2.92-.94,3.84,1.58,4.14a27.24,27.24,0,0,0,7.43-.27c10.81-1.78,21.64-3.5,32.39-5.67,9.88-2,18.77,1.56,27.95,3.85-12.18,2.05-24,5.54-36.06,7.15-9.9,1.32-20.07-.71-29.72-3.68-3.14-1-6.61-.56-9.45-2.5C334.34,249.51,334.83,245.63,337.54,246.09Z"/><path class="cls-17" d="M623.94,156.07c-11.56,3.72-21.93,9.84-32.16,16.19-4.27,2.65-7.52,6.47-10.54,10.42a26.25,26.25,0,0,1-9.17,8.14c4.52-12.26,10.84-23,22.88-29.57,5-2.74,8.45-7.72,14.11-10,3.7-1.46,6-2,8.15,1.81.38.68.93,3.14,2.73,1C621.36,154.61,622.19,156.29,623.94,156.07Z"/><path class="cls-18" d="M641.71,375.94c-.47-.66-3.77,1.5-1.67-1.63a19.2,19.2,0,0,1,2.81-2.82c10.58-10.36,21.23-20.64,31.09-31.69a33.66,33.66,0,0,1,13.89-9.38c17.17-6.22,33.26-15.23,51.06-19.88,1.34-.35,3.07,0,4.1-1.36l17.88-5.12c-.64,3.61-3.06,4.21-5.21,4.88-8.55,2.69-17.1,5.4-25.74,7.82-10.93,3.05-20.88,8.87-31.61,12-12.94,3.78-22.15,11.5-30.16,21.47C660.38,359.9,651.05,367.91,641.71,375.94Z"/><path class="cls-19" d="M72.1,162.08c-3.24,4.54-6.13,9.27-10.84,12.69-2.45,1.78-3.41,5.15-4.32,8.16-3.43,4.54-4.44,9.95-5.5,15.33-.41,2.11-.39,4.36-2.36,5.82C42.38,222,41,240.54,42.14,259.36c.37,6.06,1.94,12.05,3.1,18.05.31,1.6,1.36,3.11-.22,4.58-2.15-1.22-2.46-3.47-2.9-5.54a137.09,137.09,0,0,1-.5-56.94c2.53-12.41,5.55-24.57,10.67-36.23,1.5-3.43,3.15-7,5.71-9.13,4.81-4,8.4-8.92,12.65-13.33C71.81,160.46,72.19,161,72.1,162.08Z"/><path class="cls-20" d="M577.1,381a150,150,0,0,0,12.64-24.28,120.59,120.59,0,0,1,10.62-20.88,32.62,32.62,0,0,0,4.13-11,91.84,91.84,0,0,1,22.65-43.24,22.89,22.89,0,0,1,14.21-7.37c-.07.95,0,1.46-.13,1.5-17.33,6.58-22.92,22.65-30,37.4-2.3,4.77-4.14,9.83-4.3,15.28a3.06,3.06,0,0,1-.32,1.45c-9.71,15.54-14.4,33.67-25.17,48.67-1.17,1.62-2.2,3.4-4.54,3.49Z"/><path class="cls-21" d="M436.76,286.42c4.62-.05,8.5.8,11.83,3.26s3.48,5.48.14,7.75c-7.14,4.84-15,6.29-23.32,3.62-3.92-1.25-5.31-5.39-2.5-7.77C427,289.81,431,285.6,436.76,286.42Z"/><path class="cls-22" d="M478.34,244.88c10.9.94,21.89,1.19,32.54,4.12,1.51.42,4,.34,3.73,2.42s-2.57,1.74-4.15,1.67a20.51,20.51,0,0,0-16.58,6.74,1.38,1.38,0,0,1-.91.37c-5.81,0-11.65.2-17.45-2.2,9.94,3.12,16.78-5.24,25.51-6.23-2.92-2.16-3.4-2.27-9.65-2.63-5.6-.32-11.31-.1-16.41-3.07C475.25,243.31,477.05,244.8,478.34,244.88Z"/><path class="cls-23" d="M212,126.23c-3,5.8-2.7,7.68,1.89,11.5-.17,3.48-4.39,3.61-5.33,6.46a7,7,0,0,1-2.79,2.08,5.5,5.5,0,0,1-3.37-4.94c.55-2.5,2.27-4.17,4.06-5.81.67,0,0-.53-.07-.48a2.6,2.6,0,0,1-3.45-.28c-3-3.76-3.06-8.37-3.17-12.73s-.27-8.66-3.76-12a26.46,26.46,0,0,0,3.46-.27c5.81-1.14,6-1,6.78,5.27.39,3.29.71,6.59,1.26,9.86.22,1.32-.41,3.71,1.51,3.66,2.32-.06.86-2.34,1-3.59.26-2.29.15-4.62.2-6.93C212.14,120.5,209.74,123.87,212,126.23Z"/><path class="cls-24" d="M436.83,280c26.24,1.44,51.74,2.42,75.25,13.3-3.64,1.54-12.37.78-17.85-2.69-4.76-3-9.81-3.73-15.15-4.23-12.76-1.18-25.5-2.56-38.25-3.86C439.58,282.35,438.15,282.65,436.83,280Z"/><path class="cls-25" d="M458.72,257c16.79,5.46,34.3,6.46,51.69,8.75-2.72,1.3-5.58,1-8.38.83-5.3-.41-10.6-.89-15.88-1.57-2.33-.31-3.81.41-3.48,2.66.4,2.69.74,5.1-1,7.49-1,1.29.67,1.49,1.4,1.9a23.4,23.4,0,0,0,7.59,2.28c.83.15,1.74.39,1.62,1.45s-1.05,1.25-1.9,1.17a37.87,37.87,0,0,1-14.47-4.62c-1.83-1-.28-2.56.95-2.85,5.84-1.4,1.16-6.18,2.86-9.14.83-1.44-3-1.71-4.79-2.14C469.3,261.82,463.76,260.32,458.72,257Z"/><path class="cls-26" d="M603.19,145.84c-.08.34-.15.68-.23,1a19.48,19.48,0,0,0-9.83-2.9c4.6-1.16,3.91-3.42,2.3-6.07s-2.77-5.36-2.51-8.46c.3-3.6-3.36-5.24-3.95-8.36-1.14-.77-.33-2.14-.94-3.07-1.47-6.84-5.84-12.45-8-19-.49-1.47-2.43-3.47,1-4,4.57,9.7,9.16,19.4,13.69,29.12a9.38,9.38,0,0,1,1.18,3.75c-.06,4.64,2.11,8.27,4.85,11.7C602.19,141.45,603.77,143.22,603.19,145.84Z"/><path class="cls-27" d="M72.1,162.08l-1.45-1.26c3.69-6,9.3-8.86,16-9.64,6.55-.75,12.53-2.47,17.81-6.81,4.65-3.84,10.41-5.78,16.15-7.61,2.13-.68,3.79-.68,5.12,1.27-2.82,3.08-3.63,7.27-5.91,10.64C119,150,118.53,152.33,116,151c-.63-3.94,1.38-7,3.63-10.55-6.27.71-11.2,3.94-15.41,7.35a22.35,22.35,0,0,1-12.61,4.94A27.9,27.9,0,0,0,72.1,162.08Z"/><path class="cls-28" d="M479.62,241A173.5,173.5,0,0,1,438.93,234c-1.17-.34-3.22-.38-2.83-2.1.49-2.15,2.49-1,3.71-.7,14.65,3.18,29.39,5.69,44.39,6.42,1.38.07,3.66-.3,3.74,1.48.1,2.27-2.33,1.74-3.83,1.92A39.53,39.53,0,0,1,479.62,241Z"/><path class="cls-29" d="M423,251c1.4-1.73.34-2.82-1-3.84,2.9.79,3.93-4.47,7.27-2.26-1.38.68.69,1.9-.41,2.63-.68,2.44,3,9.56,5.09,9.86a1.24,1.24,0,0,0,1.29-.49c1.14-1.68,2.61-2.12,4.12-.7a4.64,4.64,0,0,1,1.17,5.44c-.83,2-2.56,2.41-4.52,2.11-3.23-.49-6.22-.39-8.16,2.83-1.27.41-2.4.31-3.15-1-1.08-.92,1.83-3.4-1.07-3.3-1.53.05-3.46.61-3.43,3.33.06,3.65-4.22,5.62-7.21,3.6a2.09,2.09,0,0,1-.94-2.52c1.93-7.81,7.5-10.77,13.08-10.53C425.72,253.89,423.34,252.8,423,251Z"/><path class="cls-30" d="M116,151c3.28-1.25,3.79-4.5,5.24-7.12,1.19-2.16,1.31-5.25,4.56-5.83,0,.65.09,1.3.13,1.95-1.44,2.58-2.72,5.27-4.34,7.73-3.88,5.89-2.88,11.23-.27,17.62C124,172,128.1,176.9,133,181.56a13.84,13.84,0,0,1,3.44,6.49c.28.92.84,2.12-.5,2.48s-1.67-.88-1.88-1.83c-.7-3.12-3-5.06-5.06-7.24-2.58-2.77-5.27-5.39-7.3-8.72C117.59,166,113.88,159.3,116,151Z"/><path class="cls-31" d="M332.08,227.05c-.06,2.27,1.41,4,2.13,6,.82,2.28,1.61,5.21,4.82,1.79a2.11,2.11,0,0,1,3.68.68c.8,2.2-1.38,1-2.17,1.4-5,2.29-5,2.27-9.92-3.26-.6,2.63-1,5-1.66,7.23s-.39,5.08-2.81,6c-2.94,1.16-3.24-2.69-5.19-3.6-1.23.34-1.2,1.53-1.66,2.31-2.77,4.7-4,4.75-7.51.55-.93-1.11-1.18-4-3.9-2.23-.87.07-1.43-.12-1-1.16,3.36-5,4.71-.31,6.39,1.47,1.47,1.55,2.21,3.44,4,.19,3.09-5.61,3.24-5.53,8.39-.32.82-5.31,3.35-9.92,2.32-15.2C328.55,226.54,330.18,226.51,332.08,227.05Z"/><path class="cls-32" d="M342.1,335.83l-.18,1.37c-2.37-1.74-5.11-.9-7.7-1.06-17.54-1-34.51-5.34-51.59-9A255.52,255.52,0,0,1,342.1,335.83Z"/><path class="cls-33" d="M429,247.07c-.16-.77-2.63-1.86.3-2.21,9.21,2.78,19,2.72,28.15,5.77,3.09,1,4.74-1.83,6.9-3.1,4.41-2.59,8.53-6,14-2.65-1.18.25-2.57-.11-3.37,1.19-1.53-.39-2.76-.62-4.41.51-5,3.42-10,6.9-15.5,9.46-1.08.76-1.9.32-2.63-.55-1.57-2.7-4.41-2.65-6.94-3A87.81,87.81,0,0,1,432.92,250C431.33,249.56,429.16,249.55,429,247.07Z"/><path class="cls-34" d="M580.9,89.23c-4.6-1-3.94-5.77-4.62-8.42-1.83-7.12-7-10.15-13.95-9.85-5.45.23-10.93.08-16.39,0-1.51,0-3.5.71-4-1.76,6.76-.31,13.51-.68,20.27-.9C573.9,67.93,582.14,77.37,580.9,89.23Z"/><path class="cls-35" d="M332.08,227.05,328,228.93l-39.17,12.88a1.23,1.23,0,0,1-.48.13c-1.83-.11-4.66,1.58-5.21-.64-.42-1.69,2.48-2,4.39-2.41,8.6-1.79,16.66-5.36,25-7.95,5.38-1.66,10.74-3.37,16.11-5.06,1.33-.16,3.05-1.46,3.39,1.19Z"/><path class="cls-36" d="M257.25,248.88a1.81,1.81,0,0,1-2.32-1.64c2.28-1.56,3.91-3-.29-4.21-4.36-1.3-7.62-4.54-11.4-6.87-2.55-1.58-3.74-1.26-2,3.33-2.45-2.6-2.88-4.37-1.61-5.82s2.81,0,4,.7c2.55,1.52,4.83,3.5,7.44,4.91,4,2.15,7.88,5,12.95,2.89,2.25-.91,2.58,2.2,4.29,2.68,2.5,1.62,5.69,1.91,7.9,4.08-3.23,1.76-6.47,3.38-10.16,1.19a2.12,2.12,0,0,1,2.54-.84C264.89,245.86,261.08,247,257.25,248.88Z"/><path class="cls-35" d="M338.35,224.88c10.74,1.9,21.19,5.23,32,6.66,1.15.15,3,.31,2.58,2.22-.35,1.6-1.81,1-2.91.81a223.5,223.5,0,0,1-35.19-8.29C335,223.33,337,224.75,338.35,224.88Z"/><path class="cls-37" d="M482.8,113.06c2,.54,3.19.9,1.38,3.5-6.16,8.86-4.08,17.37,5.38,23.23,2.08,1.29,3.92,2.53,3.4,5.38a27.31,27.31,0,0,1-14.37-14.38c-2.1-4.83-1.65-8.93,2-12.79C481.85,116.71,484.08,115.58,482.8,113.06Z"/><path class="cls-38" d="M468.61,272.64c-3.85-2-6.31-3.39-5.24-7.56.55-2.13,1.58-2.56,2.91-2.29,1.87.38,3.69,2.6,2.54,3.84-3.17,3.41.52,2.94,1.76,3.82s4,1,3.46,3.52c-.47,2.18-2.84,1.73-4.22,1.53-2.66-.4-3.24,3.39-6,2.49-1.39-.45-3.3-.19-3.65-2-.43-2.21,1.64-2.08,3-2.41S466.09,273.08,468.61,272.64Z"/><path class="cls-39" d="M403.91,244c-1.71,0-3.54.6-4.91-1,6.73-6,15.72-6.34,23.6-9.47,3.56-1.41,7.38-2.62,11.76-2.12-1,2.12-2.82,2.05-4.24,2.51-7.73,2.52-15.49,4.95-23.24,7.39C405.45,241.77,403.94,242.06,403.91,244Z"/><path class="cls-40" d="M531.89,224.76c2.72,3,2.82-2.47,4.9-1.54l3.29-1.1c.56.44,1.46.1,1.87.85-11.29,4.81-16.41,14.2-19.08,25.49-.44,1.87-.4,4-1.87,5.54l-.44-2.12L519.12,253A67.64,67.64,0,0,1,531.89,224.76Z"/><path class="cls-41" d="M172.63,302.14c10.59-1.06,20.22,2,29.42,6.9A56.1,56.1,0,0,1,172.63,302.14Z"/><path class="cls-42" d="M508.59,270c-2.52,1.36-6.11,0-4.7,4.22.31.94-3.85,2.61-.43,5.26,1.13.87-.33,3.92,1,5.81.13.18-.53,1.18-1,1.44-1.1.59-1.47-.32-1.56-1.16-.38-3.89-5.62-6.68-2.5-11.39.9-1.35-.63-1-1.18-1.23-1.12-.38-2.43-.66-2.1-2.19.28-1.32,1.59-1.53,2.73-1.68A19.28,19.28,0,0,1,508.59,270Z"/><path class="cls-43" d="M341.76,346.76c3.28,4.09,2.29,9.19,2.69,13.76.59,6.78,2,13.62.83,20.51C341,369.92,341.28,358.35,341.76,346.76Z"/><path class="cls-44" d="M438.63,238.68c9.05,2.15,17,2.56,24.85,3.18.94.08,2.17.06,2.42,1.28.21,1-.76,1.49-1.53,1.49-8.12,0-16.25,0-23.92-3.28C440,241.14,439.75,240.35,438.63,238.68Z"/><path class="cls-29" d="M443.16,306.1A59.12,59.12,0,0,1,460,291.4c.87-.52,2.08-.93,2.73,0,.78,1.09-.39,1.73-1.17,2.28-5.39,3.74-10.75,7.52-15.15,12.48C445.55,307.1,444.48,307.35,443.16,306.1Z"/><path class="cls-45" d="M452.87,254.78c.39,1,1.35,1,2.19,1.26a108,108,0,0,0-21.83,17.26l-1.09-1.23c5.28-7.56,11.18-14.39,20.29-17.48C452.54,254.55,452.72,254.71,452.87,254.78Z"/><path class="cls-46" d="M129.09,135c1.64-.23,2.15-1.15,1.54-2.66s-1.15-3,.29-4.34c1.23-.19,2.15-4.82,3.7-.25a13.92,13.92,0,0,0,1.74,8.95c.76,1.42,1.74,2.81,1.23,4.58-2.12,2.61-4.1,1.19-6.08-.2l-.4-.16-.42,0C135.15,137.6,131,136.6,129.09,135Z"/><path class="cls-42" d="M409,389c-.24.73-.85,1.48.17,2.11l-18.72,5.28-.42-1.26C395.82,391.68,402.47,390.5,409,389Z"/><path class="cls-47" d="M470.1,298.16l-1.37-1.37c2.95-3.41,6.82-5.23,10.84-6.78l.84,1.19Z"/><path class="cls-25" d="M306.9,242.79l1,1.16c-.06,1.77-3.09,2.89-1.14,5.11-1.74.17-2.34-1-2.83-2.37Z"/><path class="cls-31" d="M338.35,224.88c-1.27.21-2.72,0-3.48,1.4l-2.81.79c-.82-1.28-2.19-1-3.39-1.19C331.82,224.78,334.9,223.08,338.35,224.88Z"/><path class="cls-25" d="M293.23,244.85c-1.14.63-.24,1.53-.3,2.3a3.47,3.47,0,0,1-.94-.32c-1.14-.82-3.6-1.45-2.71-2.91C290.45,242,291.94,244.17,293.23,244.85Z"/><path class="cls-25" d="M297.86,249.08c1.95-.65,3.46.5,5.07,1.54-2,.34-4,1.13-5.93-.62Z"/><path class="cls-48" d="M542,223l-1.87-.85c8.81-3.75,17.16-2.86,24.95,2.66a82.76,82.76,0,0,0,12.37,7.46c17.28,8.2,24.19,24.08,31.33,41.52-3.62-2.52-3.73-2.47-4.76-4.8-3.39-7.65-8.06-14.53-12.7-21.43a33.72,33.72,0,0,0-11.52-10.82c-5.21-2.93-10.62-5.53-15.29-9.38C557.78,221.84,550.17,220.7,542,223Z"/><path class="cls-49" d="M528.09,291c-2.67-3.29-1.7-5.64,1.87-7.38a43.38,43.38,0,0,1,9.47-3.79c-2.88,1.9-5.78,3.78-8.65,5.7-.81.55-1.82,1.09-1.58,2.3.33,1.66,1.83,1,2.85,1.32Z"/><path class="cls-50" d="M131.51,141.05c1.82-.94,3.69,1.84,5.5-.08a7.89,7.89,0,0,1,8.19-5.24,8,8,0,0,0,5.94-2.09,6.08,6.08,0,0,1,4.52-1.73c4.11-.1,7.12,1.81,9.35,5.13,3.83,4.34,8.71,7.49,12.89,11.45,4.36,4.12,6.37,8.65,4.73,14.58a12.45,12.45,0,0,0,0,5.4,6.38,6.38,0,0,1,0,1.45c-.14,1-.51,1.92-.72,2.89-.24,1.14-2.36,2-.65,3.4s3.08.14,4.32-1a63.83,63.83,0,0,1,5.12-4.75c3.32-2.09,5.74-5.4,9.43-7,5,2,10,4,10.29,10.67.1,2.06,2.67.74,3.63,1.91L214,176c-.51,4.07-4.31,3.9-7.05,5.92,0-3,.09-5.39,0-7.77a7.15,7.15,0,0,0-4.73-6.47c-2.78-1.19-4.33,1-5.93,2.52-3.32,3.25-8.39,6.22-9.26,10.09-1,4.34,5.26,6.77,8.1,10.24,4.76,5.79,5.14,6.27.49,12.21-1.61,2-.05,2.91.39,4.3l-.57.45c-3.78.92-5.37,4.27-7.62,6.87-1.53,1.76-2.63,3.95-4.25,5.53-11.2,11-9.29,24.52-7.74,38,.25,2.14.84,4.29-.57,6.27a2.18,2.18,0,0,1-2,.25c-4.63-.78-4.55-.8-5.72-5.82-1.22-5.21-.56-10.5-.76-15.76-6.43,9.81-14.63,18.06-22.16,26.86-2.33,2.71-5.51,2.63-8.53,3.21l-2.92,0c20.21-12.79,31.52-33.5,45.54-51.72,5.27-6.84,10.55-13.68,16.22-20.17,2.29-2.62,1.5-4.05,0-6.3-6.59-9.9-17.14-15-26.42-21.51-3.83-2.68-7.23,1.91-8.47,4.73-3.44,7.84-10.29,11.3-17,15-2.36,1.31-1.34,3.28-1.53,4.76-.33,2.51,2.17-.35,3,1.29-4.21,1.41-2.9,6.94-6.57,8.84-3.95,2-4.95,7.31-9.76,8.48-1.91.46-1.82,2.33-1.53,4.16.35,2.16,1.44,5.37-1.52,5.93-2.53.48-2.61-2.83-3.38-4.75-.16-.41-.6-.72-1.11-1.3-7.1,7.47-13.41,15.24-16.67,25.11-.42,1.25-.53,3.54-2.57,2.93s-.84-2.57-.39-3.81c3.12-8.6,6.24-17.27,12.29-24.33,2.38-2.78-2.3-5.07.46-7.67-3.35,2.19-6.73-.71-10.74,1.72,2.86-3.72,5-6,9-5.46,3,.41,3.44-1,1.93-3.53A72.48,72.48,0,0,0,107,195.6c-.89-1.09-2.42-1.93-1.55-4.49,4.47,5.21,9.26,9.57,11.93,15.7.7,1.61.16,2.9-.23,4.32-.69,2.56-1.16,5.09,1.6,7.2,2.32-1.67,4.38-4.24,7.73-4.57a2.61,2.61,0,0,0,2.26-2.89c-.29-5.86,4-8.39,7.92-11.13,1.88-1.3,3.57-2.44,2.75-5.15a2.37,2.37,0,0,1,1.91-3.05c5.42-.79,7.55-6.13,12-8.33,2.78-1.39,2.65-3.56.07-5.33-4.52-3.08-9.07-6.12-14.35-9.67,2.07,4.29,5.17,7.11,6.45,10.92a35,35,0,0,1,1.34,4.78,2.06,2.06,0,0,1-1.66,2.64c-1.2.18-1.81-.79-2-1.78-2.08-8.54-9.17-14.72-11-23.38-1.08-5.17-2.12-10.35-3.19-15.53C128.47,143.54,129.53,142.05,131.51,141.05Z"/><path class="cls-51" d="M86.94,257c3.47,1.56,5.55,2.87.86,6-5.87,4-11.18,8.77-16.88,13-1.89,1.39-2.83,2.65-1.79,4.89-2-1.28-4-2.78-7.11-.51,1-4.19,4.22-5.15,5.76-8.71-2.29,1.44-3.87,2.42-5.43,3.43-.84.55-1.8,1.27-2.65.37s.16-1.79.79-2.47c2.81-3,5.66-6,8.5-9,.27-1.19-1.83-1.67-.91-3.06,5.38-1,8.58-6.34,15.07-7.61-3.77,6.29-10.16,8.6-14.24,15.11Z"/><path class="cls-52" d="M68.08,261c-.59,1.29,5,.73.91,3.06H67a5.51,5.51,0,0,1-5.37-2.69,3.37,3.37,0,0,1-.28-1.93c.48-1.25-.75-1.72-1.2-2.54-4.08-6.2,3.49-6,5.11-9.32-3.07-1.6-7.3,1-10.46-3.19,7.35-.4,14,1.59,21.57.4-2.32,3.78-5.66,3.38-8,4.73-2.19,1.24-6.34,1.8-5.58,4.5.57,2.07,4.64,1.14,7.14.47,2.17-.59,4.66.22,6.62-1.66A19.61,19.61,0,0,1,70,258.5C69.18,259,67.14,258.89,68.08,261Z"/><path class="cls-53" d="M122.43,185.34c-9.79-11.94-20.11-23.36-34.12-30.69C104.1,159.89,115.17,170.45,122.43,185.34Z"/><path class="cls-51" d="M62,261l5,3c-3,4.06-7.56,5.65-11.28,8.24-2.08-1.52,1-2.57-.49-3.76-1.33-.53-1.86,1-2.89,1.33-1.2.4-2.52,1.9-3.6.65-1.25-1.46.68-2.27,1.47-3.13,3.26-3.55,6.62-7,9.94-10.49,1,.43,2.38-.51,3,.82.1.21-.75.86-1.17,1.31-1.5,1.29-2.52,3-4.19,4.15A8.66,8.66,0,0,1,62,261Z"/><path class="cls-54" d="M49.08,204.08c1-5.14,1.39-10.42,3.59-15.27,1-2.24,1.94-4.58,4.27-5.88-3.23,8.37-4.31,16.83-1.24,25.51.26.75.5,1.76-.56,2.06-.48.14-1.21-.28-1.71-.62C51.31,208.46,50.36,206.14,49.08,204.08Z"/><path class="cls-30" d="M187.94,201.2c-.15.87-.28,1.76-1.08,1.5-1.69-.54-3.34-1.4-3.74-3.32-.2-.9.65-1.45,1.59-1.25C186.49,198.5,187.28,199.9,187.94,201.2Z"/><path class="cls-55" d="M185.91,206.35c-.06,1-.6,1.55-1.24,1.28a4.92,4.92,0,0,1-3.19-3.48c-.17-.86.7-1.16,1.32-1A4,4,0,0,1,185.91,206.35Z"/><path class="cls-56" d="M588,118c1.17.76,1,1.95.94,3.07-.18,4.6-1.71,9.15-.12,14.47-6.52-1.5-2.27-6.78-4.44-9.72-1.38-.52-2.53,3.93-3.75,1.37-1-2.11-7.54-2.92-2.37-7.15a2.34,2.34,0,0,0,.29-3.21c-1.21-1.39-2,.16-2.8.82-2.28,1.94-3.39,1.41-4.84-1.25-2.16-4-4.55-7.63-3.6-12.52.3-1.56-1.4-2.6-2.6-3.39-1.59-1-2.5.55-3.18,1.52-3.07,4.36-4.67,1.77-6.62-1.08a2.15,2.15,0,0,1,.36-3.06c1.22-1.28,2-.28,2.55.92,1.53,3.53,2.6.19,3.21-.45,2.18-2.29,3.77-2.88,5.79.26,2.55,4,4.19,3.91,6.76,0,1.2-1.85,2-3.95,3.48-5.7,0,4.15-1.4,7.86-5.13,10-4.19,2.38-2.64,6.08-.82,7.65s1.45,3.46,2.6,5.11c4.12-2.47,7.71-2.64,10.47,2.14C584.87,118.93,586.7,118.63,588,118Z"/><path class="cls-57" d="M537.16,137.94,541,138c2.53,3.16,4.33,1.42,6.31-.76,1.5-1.66,2.81-4.59,5.72-1.18,1.44,1.69,3-.2,4.29-1.08,2.44-1.68,4.74-3.58,7.2-5.25a4.39,4.39,0,0,1,5.54.49c1.65,1.35.08,2.86-.37,4-1.87,5-4,9.8-6.12,14.64-.43,1-.91,2.61-2.21,2.35-1.64-.34-1.32-2.09-1.28-3.37,0-1.62.27-3.24.42-4.88-.2,0-.61-.11-.7,0-5.26,7.69-5.26,7.69-9.16-.32-1.71,1.28-2.44,3.61-4.67,4.29-.13-.19-.27-.37-.4-.55-.71-.38,1.16-2.43-1.38-1.83a12.79,12.79,0,0,0-6,3.62c-4.52,3.22-4.52,3.22-7-.4C537.74,146.62,540.39,142.21,537.16,137.94Z"/><path class="cls-57" d="M567,158c2.08-9.72,6.59-18.34,11.92-26.74-4.37,7.87-4.24,15.6-.49,23.56.72,1.52-1.33,1.92-2.55,2.36v-.05c-2.26-1.32-2-3.57-2.06-5.85-1.77,2.66-2.93,5.71-6.13,6.9Z"/><path class="cls-57" d="M573,160.72c-3.72,2.7-7.11.84-9.91-1.34A64.37,64.37,0,0,0,541,148c1.13-3.19,3.09-2,5-.94l-.06,0L567,158l0,0c1.53.47,2.85.39,3.75-1.23.62-1.12,1.23-2.69,2.91-1.91,1.52.7.83,2.3.85,3.57A2.06,2.06,0,0,1,573,160.72Z"/><path class="cls-58" d="M550.18,87.2c1.16-2.73,1.78-5.79,6-4.77,1.14.28,2.87-.55,2.88,1.61,0,1.61.49,3.57-1.31,4.47s-2-.93-2.75-1.92C553.07,84.24,552.53,88.49,550.18,87.2Z"/><path class="cls-59" d="M544.79,85.92c-1.95,1.82-3.69,4-5.91,5.39-3.11,2-4.62-3-7.67-2.39a3.05,3.05,0,0,1,.63-2.14c.8-.76,2.19-1.24,2.65-.47,3.33,5.56,5.3.62,7.73-.85a6.25,6.25,0,0,1,1.39-.43Z"/><path class="cls-60" d="M173.05,264l2.06-.07c3.55-2.94,8.07-2.86,12.23-3.8,3.58-.81,5.11-2.45,5.68-6.28,1.19-8.07,2.24-16,1.66-24.26-.2-3,2.59-5.61,4.51-8,1.22-1.52,2.64-.26,2.69,1.24.12,4.32,3.49,5.06,6.51,6.31-3.77-2.21-5.16-6.31-7.61-9.55-1.15-1.52-2.51-3.42,0-5.11a2,2,0,0,1,2,.57c4.83,3,9.63,5.65,12.08,11.67,1.66,4.09,5.65,7.29,10,9.31,4.83,2.21,9.55,4.64,14.37,6.85,2.78,1.28,4.08,3.06,2.79,6.11l-5.1-2c-6.23-1-11.13-5-16.67-7.5-4.77-2.18-9.74-3.12-14.75-4.19-2.81-.61-4.11.61-4.18,3.33a138.71,138.71,0,0,1-1.66,14.8c-.33,2.37.26,3.5,2.75,3.36a6,6,0,0,1,2.44.39,2.65,2.65,0,0,1,2,2c.18,1.28-.93,1.63-1.82,2a18.79,18.79,0,0,1-4.8,1.21c-5.61.94-10.85,3.17-16.31,4.6-4,1.24-8.17,2-12.26,3-6,.32-11.66,2.37-17.54,3.25-1.29-.18-3-.13-3.1-1.79-.07-1.46,1.52-2,2.73-2.53C160,266.37,166.56,265.3,173.05,264Z"/><path class="cls-30" d="M241.77,215.13c-1.71-1.61-6.22-2.06-5.06-4.28s4.17.88,6.34,1.7a35.21,35.21,0,0,0,5.15,1.93c-6.07-4.59-11.85-9.46-17.91-14.52,5.13-1.37,8.93.33,12.54,3.2,5.77,4.59,12.47,7.58,19,10.84a12.81,12.81,0,0,1,4.09,2.73c1.85,2.14,1.64,4.49-.1,6.8s-3.39,1.09-5.26.3-3.32-2.8-6.58-2.56c4.43,4.06,9.21,6.72,12.65,10.84.93,1.11,2.76,1.89,2.18,3.62-.72,2.19-2.8,1.12-4.33,1.28-3.86.41-7.65-.34-11.35-1.18-6.67-1.51-11.79-5.17-14.57-11.68-1.42-3.35-2.95-6.64-4.45-10,1.93-.58,2.13,1,2.87,1.88a6.32,6.32,0,0,1,3.41,4.39,17.32,17.32,0,0,0,4.32,6.89c4.76,4.84,10.87,5.47,18.06,5.95-6.31-5.35-11.31-10.8-17.79-14.48A9.89,9.89,0,0,1,241.77,215.13Z"/><path class="cls-61" d="M243.94,228c-4.3-2.86-4.21-8.26-6.95-12,1.58-.34,3.41.62,4.78-.89,1.59.33,2.43,1.57,3.3,2.77a2.52,2.52,0,0,1-3.63.48c1.06,1.06,2.39,2,3.65,3.09s3.7,1.64,3.18,3.9C247.81,227.38,245.78,227.77,243.94,228Z"/><path class="cls-62" d="M218.06,177l3-1.85c1.06.58,2.39.72,3.13,1.84,3.68,2.79,4.54,5.34,2.76,8.15l-4-3.12C220.15,181.57,219.31,179.1,218.06,177Z"/><path class="cls-50" d="M202.82,215l-1.91-.08c-.66-3.25-5.24-4.11-4.9-8l0,0c3-.37,4.6,6,8.74,1.74C204.09,210.85,203.45,212.94,202.82,215Z"/><path class="cls-30" d="M227.87,197a11.86,11.86,0,0,1-5.09-10.07Q225.33,191.94,227.87,197Z"/><path class="cls-63" d="M254.91,246.79c-2.82,2.83-6.43,2-9.84,2.09-.48-.66-1.35-2.34-.22-1.87C248.4,248.48,251.58,245.58,254.91,246.79Z"/><path class="cls-64" d="M522.93,192a27.66,27.66,0,0,1-9.88-14c-1.08-3.33-1.73-7.33-6.87-6.83-.89.09-1.54-1-2.08-1.93-4.16-7-5.82-14.7-6.29-23.7,3.36,4,7.22,3.36,11,3.26,2.17.29,5.06-.38,3.65,3.74-.67,1.95,2.14,2.76,2.65,4.53.74.73,1.46,1.47,1,2.65-.61,1.54-2.4.81-3.6,1.94,2.52,2.34,4.67,4.77.47,7.63-1.25.85-.53,2.24.26,3.52,3.5,5.61,5.45,12.13,10.09,17.08C524,190.71,523.75,191.47,522.93,192Z"/><path class="cls-65" d="M516.1,159.79c-.59-.79-1.63-1.4-1-2.65,9.07,2.87,18.08,5.82,23.64,16.08,0-2.16.09-3.16,0-4.13-.14-1.23-1.47-3.05.1-3.49,2-.56,2.59,1.62,2.89,3.24.65,3.43,1.28,6.89-1,10-.71,1-1.42,2-2.78,1.64-1.17-.26-1.19-1.38-1.54-2.3-.82-2.18.23-6.08-4.82-4.27-1.67.59-3.51-3.14-3.29-4.76.53-4-2.14-4.57-4.55-5.75S518.62,161,516.1,159.79Z"/><path class="cls-66" d="M573,160.72c1-1.72,1.51-3.44-.27-6.16-.75,4.28-1.83,7.47-5.8,3.43,3.38-2.27,4.87-6,7.54-10.16.84,3.66-.07,6.74,1.38,9.33C574.45,158,575.93,161.09,573,160.72Z"/><path class="cls-67" d="M546,147c-1.66.36-3.6-.75-5,.94l-2.78.26c.31-5.89,6.91-3.11,9.4-6.44Q546.83,144.41,546,147Z"/><path class="cls-68" d="M535,160.93l-8.05-4.23C531.84,155.8,533.24,158.67,535,160.93Z"/><path class="cls-69" d="M386.87,278.8a15.8,15.8,0,0,0-7.11,3.38,1.68,1.68,0,0,0-.51,2.21,1.48,1.48,0,0,0,2.21.29c7-6,14.74-2.89,22.28-1.65,2.06.34,4.09.89,7.39,1.63-10,4.36-17.8,10.2-26.26,15-.79.45-2.33.24-2.11,1.6.29,1.76,1.75.81,2.79.83,3.73,0,7.1,1.42,10.41,2.95,1.78,1.5,3.39,3.38,6.11,2.88,8.25,2.67,17,2.65,25.78,4.54-1.34,1.47-3.16,1.46-4.67,1.94a54.83,54.83,0,0,0-16,7.73c-1.53,1.13-4.13,2.16-2.25,5.05,1.36,2.1-.7,1.59-1.56,1.84-3.44,1-6.89-.58-10.35,0-11.15-2.38-22.28-4.7-33.75-5.19-7.61-.32-14.87-3-22.21-4.9-.13-1.14.65-1.49,1.51-1.76,19-.2,37.78,1.88,55.43,4.32a42.85,42.85,0,0,0-11.05-1.87c-4.17-.15-8.25-1-12.4-1.14-11.13-.38-22.2-1.75-33.37-1.58-3.92.06-7.89-1.09-11.68-2.38-2.84-1.68-6.16-2.17-9.11-3.57-1.15-.59-2.31-1.16-3.46-1.83.26.4.71.48,1.06.71a6,6,0,0,0,.88.43c2.15,1.94,6,1.05,7.33,4.37-1.29,1.49-2.82.89-4.33.5L297.73,311c-2.79-2.8-.55-4.51,1.51-5.89,4.16-2.77,8.9-4.26,13.71-5.5,5.9-1.53,11.86-2.83,17.61-4.9,4.78-.84,8.76-3.6,13.14-5.4,2.87-1.17,5.67-2.66,8.89-2.68a20.35,20.35,0,0,1,5.35.2c2.73.71,4.38,2.17,3,5.27-2.94,1.68-6.15.63-9.24.82-4.62.29-8.69.94-10.78,6.1-1.55,3.82-5.19,5.34-9.29,5.56,4.9.37,8.21-3.64,12.65-4.52a1,1,0,0,0,.61-1.59c-2.79-4.6,1.72-5.18,3.72-5.15,4.23.07,9.34-2.82,12.6,2.48-2.07,6-6.57,9-12.47,10.47-.73.18-.94.86-.53,2,5-2,10.3-3.32,12.21-9.35,3-3.9,3-3.9,8.25-4.1-2.6.19-4.94-.18-5.58-3.08-.59-2.62-.29-4.93,2.81-5.9.6-.19-.15.2.29-.29.09-.1-.37-.47-.76-.53a331.76,331.76,0,0,1-41.94-10.95,45.16,45.16,0,0,0-12.61-2.74c-2-.18-4-.24-5.27-2.23a2.7,2.7,0,0,1,0-1.71c.39-.56,1-1.24,1.57-1,5.4,2.34,10.61.12,15.87-.57a18.23,18.23,0,0,1,8.26.95c6.87,3,14.29,3.06,21.51,3.61,12.55,1,25,1.94,37.13,5.72l5.84,1c-.47,2.66-2.5,1-3.78,1.28C390.39,278.79,388.58,278.2,386.87,278.8Z"/><path class="cls-70" d="M331,296l-23.84,7a34.55,34.55,0,0,0-8.5,4.1c-1.79,1.12-2.22,2.31-.91,4L296,312a2.14,2.14,0,0,1-2.1-.52c-3-2.08-6.35-.87-9.56-1.07a41.25,41.25,0,0,1-14.28-2A351.76,351.76,0,0,0,222,298c.52-1.13.68-2.07-1-2.07,3.35-2.26,5.29-5.72,7.8-8.76-1.56-2.3-4.4-.22-5.87-2.08,2.89-2.21,5.81-1.85,8.74-.08a2.44,2.44,0,0,1,.28,3c-.67,1.32-1.44,2.59-2.13,3.9-1.75,2.84.53,2.94,2.28,3.27,5.8,1.1,11.66,1.87,17.51,2.68,13,3.67,26.09,6.55,39.57,7.59a12.53,12.53,0,0,0,7.51-2.07c9.17-5.3,19.33-8,29.33-11.16a5,5,0,0,1,2.48,0A4.31,4.31,0,0,1,330,293l.59.61A2.33,2.33,0,0,1,331,296Z"/><path class="cls-71" d="M294.88,311l1.11,1c2.26,3.33,6.26,2.54,9.34,3.92,2.19,1,4.53,1.64,6.71,2.73-5.24.27-10.14-1.38-15.16-2.24-15.53-2.66-30.37-8.06-45.64-11.74-9.63-2.32-19.43-3.92-29.15-5.86a.49.49,0,0,1-.27-.36c0-.14.14-.29.21-.44,10.77,0,21.19,2.07,31.57,4.9S274.13,309.19,285,309C288.22,310.14,291.84,309.12,294.88,311Z"/><path class="cls-71" d="M373.21,329.32q-7.81,1.79-15.61,3.55a1.32,1.32,0,0,1-1-.15c-11.27-7.84-25.18-7.48-37.64-12.38,18.53.28,35.59,9,54.17,7.61Z"/><path class="cls-72" d="M418,325h-9.13a19.58,19.58,0,0,1,7.91-4.83c8.76-3.26,17.46-7.13,27.22-5L441.82,318C433.65,319.51,425.88,322.43,418,325Z"/><path class="cls-73" d="M317.85,315.11c1.28-.7,2.89.31,4.08-.83a1.48,1.48,0,0,1,1.37-.7,78.32,78.32,0,0,0,11.85,2.63c1.05.12,2.83-.31,3,1.69l-1.09,1A70.66,70.66,0,0,1,317.85,315.11Z"/><path class="cls-74" d="M537.12,250c1.93-4.42,5.62-6.56,10.38-7.21Z"/><path class="cls-3" d="M504,86c-.57,2.75.11,6.09-4.59,6.23-1.82,0-2,4.44-5.61,3.3-.83-.27.24,2.16.58,3.32.49,1.69,1.8,3.84-.38,4.79-2,.86-3.29-1.06-4-2.82-.89-2.13-2.36-4.29-1.73-6.62.49-1.79.75-5.56,4.28-2.28,1.54,1.43,2.85.66,3.81-.61,2-2.65,4.85-4,7.72-5.27Z"/><path class="cls-75" d="M501,144c-3.51-1.61-2.93-4.76-2.95-7.73a30.38,30.38,0,0,1,4.83-17.37c.67,9.27-2.52,17.08-1.9,25.14Z"/><path class="cls-76" d="M507.7,174.68c2.59.95,2.38,4.14,3.15,6.6.38,1.23-1,1.69-2,1.19-2-1-5.31-.73-5-4.27C504,176.43,504.37,174.45,507.7,174.68Z"/><path class="cls-77" d="M501,144c3.89.61,4.15-2.86,5.52-5.46,1,6.78.21,7.49-5.5,5.42Z"/><path class="cls-3" d="M167.17,105.07c.19-3.69-2.24-3.36-4.86-2.63,1.12-3.91,4.2-5.94,6.9-9.91-6,2.11-8.4,6.21-10.51,10.26a8.2,8.2,0,0,1-6.52,4.68c-.62.09-1.39.52-1.51-.43-.16-1.19,1.15-4-1.62-2.32-2.36,1.43-5.84,3.37-5.52,6.51s3.57.53,5.84,1.25c-2.24,2.78-2.25,4.86,3,4.78-3.85,2.58-7,4.78-.95,7.85-3.11,1.17-4.49.82-5.37-1.65-3.33-9.35-6.47-10-13.29-2.74a55.84,55.84,0,0,1-4.33,4.53c1-5.17-4.89-10.19.17-15.46a2,2,0,0,0,.26-1.44c-2.12-15.36,7.44-24.7,17.66-33.42,4.82-4.11,9.68-3.16,15.7,2,1.36,1.18,4.35,2.76,3,4.37-1.85,2.14-3.79-.53-5.24-2-2.05-2.06-3.62-3.77-5.08.62-1.4,4.24-5.67,3.38-8.92,4-4,.7-7.68,1.48-8.38,6.85,3.13-5.39,8.32-4.81,13.09-5.12,3.53-.23,5.18-5,7.48-4.43,2.77.64,5,3.67,8.57,2.46,1.73-.59,2.3.91,3.05,1.93.95,1.28,1.49,3,4,2.94-1.15-4.19-5.21-6.57-6-10.68-.23-1.2-2.5-2.1-1.2-3.33s3.76-2.28,5-1.28c3.29,2.58,8.12,1.46,10.91,5.06,2,2.56,4.41,4.76-.76,6.34a4.73,4.73,0,0,0-2.87,2.64c-.53,1.11-1,2.29.35,3s1.36-.76,1.84-1.5a7.14,7.14,0,0,1,2-2.15c5.37-3.35,5.39-3.32,3.44-10.67,3.47,6.28,8.79,8.62,12.38,13A16.77,16.77,0,0,1,203,101.79c-.28,3.22-2.28,5.07-5.57,5.27-1.51.08-3.42.08-3.85-1.6-.57-2.29,1.8-1.16,2.74-1.77,3.19-2,5.33-4.79,4.63-8.68-.59-3.36-3-5.09-6.49-4.63a2.55,2.55,0,0,1-2.21-.69c-1.17-1-2.06-3.15-4.05-2-2.49,1.46,1,3.14-.07,5.22-5.08-1-8.31,1.62-10.35,6.16C173.77,100.23,171,103.55,167.17,105.07Z"/><path class="cls-78" d="M196,110.07c5,.49,5.24,3.89,5.07,7.9-.26,5.91.16,11.8,3,17.21-.27,2.6-3,2.87-4.27,4.47-.6.64-1.09,1.38-1.68,2-1.21,1.16-2.83,1.62-4.2,2.51a25.62,25.62,0,0,1-10.76,2.66c-2.37-.84-5.39-1.94-4.9-4.68.46-2.55,3.69-2.94,6.19-3.32,1.75-.27,3.56.18,5.41-.36a9.69,9.69,0,0,0-2.45-.7c-2.1-.66-4.31-.24-6.42-.65-2.38-.47-4.81-2.21-3.55-4.3,3.62-6-.88-10.8-1.49-16.13a7,7,0,0,0-.8-2.35c-2-3.87-3.49-8,.2-11.44,3.2-2.93,7.16-1.36,10.77,0C188.85,106.07,192,108.73,196,110.07Z"/><path class="cls-79" d="M186.13,102.89c-1.65,0-3.41.38-4.92-.06-2.27-.66-4.33-1.12-5.6,1.3s-2.23,4.8-.34,7.4c3.24,4.48,2.26,10.52,5.56,15.07.91,1.26-.24,3-1.3,4.47-2.34,3.15-1.56,4.6,2.29,5,2.08.19,4.31-.74,6.21.8-3.48,2-7.57,2.4-11,4.38l-18.15-11.68c5.36-.3,9.21-2.22,13.42-1,2,.55,3-1,4.09-2.28,1.29-1.53-.49-2.65-.57-3.74-.31-4.79-3.07-7.07-6.68-9.61-1.15-.81-2.36-4.88-1.93-7.79,2.88-3.18,5.5-6.81,10.63-6-.08.6-.44,1.56-.21,1.73,1.37,1,2.32-.36,3.43-.82,1.9-.55,2.5,1.68,4,1.89Z"/><path class="cls-80" d="M182,169c-1.58-2.11-.94-4.5-.42-6.62,1.24-5.09-.21-9-4.12-12.34-3.26-2.77-6.37-5.74-9.49-8.67-1.3-1.22-2.9-2.28-3-4.36l10,6c2.94.73,5.21,2.59,7.44,4.49,1.42,2.47,1.23,5.54,2.94,7.91-.92,1.32,1.49,1.5.95,2.71,1.46,3.94,2.24,4.12,6.66,1.56a2.69,2.69,0,0,1,1.38.07c1.74,1.35,4.24.6,5.9,2.16a1.64,1.64,0,0,1-.29,2,28.56,28.56,0,0,1-9,7.06c-.2-.11-.4-.22-.61-.32C188,168.25,184.75,169.78,182,169Z"/><path class="cls-81" d="M155.66,131.91c-4,2.81-7.54,6.44-13.33,5.2-2.36-.51-3.16,3-5.32,3.86-1.1-2.33-2.26-4.63-3.26-7s-1.4-4.69.43-6.87c2-1.53-.23-2.78-.28-4.17,1.06-1,2.11-2,3.18-3,3.17-3,4.87-1.31,6,2,.43,1.23.46,2.8,1.27,3.68,2,2.17,2.09,7.55,7.5,4.69C152.68,129.85,154.74,130.51,155.66,131.91Z"/><path class="cls-50" d="M181.67,148.19,175,143c1.18,0,1.94-.54,2-1.81,2.62-4.13,6.79-4.35,11-4.38,1.88,1,5.95-.39,5.61,2.26s-3.9.76-6,.71a13.67,13.67,0,0,0-9,2.6l4.35,3.85C183.56,147.58,183.44,148.44,181.67,148.19Z"/><path class="cls-82" d="M185.07,101.89c-1.91.56-3-.55-4-1.89,2.12-3.36,4.46-4.2,7.18-1C188,101.17,183.88,98.25,185.07,101.89Z"/><path class="cls-83" d="M133.9,122.93c1.22,2.11,3.42-1.33,4.8,1.14l-4.52,3c-1.72-2.06-1.69,2.36-3.26.87A10.17,10.17,0,0,1,133.9,122.93Z"/><path class="cls-84" d="M173.05,264c-3.47,2.95-8,2.65-12,4-3.12,1-6.32,1.78-9.64,3.53l2.67.54c-1.92,4-5.1,3.21-8.24,2-2.12-.79,0,1.48-1.06,1.33-2,1-3.32-.33-4.75-1.31-.95-1.59-2.56-1-3.94-1.2,9.16-2.4,13-10.87,18.82-16.92,4.89-5,8.91-11,13.81-17.11a56.14,56.14,0,0,0,.55,22.05c.24,1,.35,2.62,1.82,2.63s.7-1.82,1.62-2.77C172.83,262.06,172.94,263,173.05,264Z"/><path class="cls-85" d="M140,274.1c1.74-.1,3.19,1.44,5,.88,9.5-1.27,18.93-3.36,28.62-2.39,2.42,0,4.84-.12,7.26-.08,3.52.26,7,0,10.55,0a26.49,26.49,0,0,1,7.33,1.34c5.79,1.61,11.72.4,17.56.81,2,.13,2.33-2.28,4.11-2.27a7.28,7.28,0,0,1,4.58,2.22c.82,1.59-1.22,3-.26,4.59,1.68,2,4,1.22,6.07,1.39,2.45.2,5-.4,7.28,1.12a2.84,2.84,0,0,1,.52,2.34c-1.61,2.61-3.73,3.51-6.57,1.95s-6.07-.86-9.14-.92c-2.41-.06-4.93-1.18-4.7-3.46.43-4.37-1.5-3.35-4.24-3a56.05,56.05,0,0,1-17.33-.63c-12.73-2.26-25.47.82-38.21,0-4.95-.32-10,.48-14.83-1.1C142.07,276.43,140.26,276.25,140,274.1Z"/><path class="cls-86" d="M154.67,280.59c17.54.44,35.08,1.42,52.61-.44C200.24,285,169.57,284.44,154.67,280.59Z"/><path class="cls-69" d="M452.87,254.78c-8.26,4.14-14.39,10.84-20.73,17.29-6.21,7.52-13.79,7.07-22.24,4.5-7.33-2.23-15.25-2-22.53-4.73-1.34-.46-3.34-.21-3.43-2.2-.07-1.52,1.52-2,2.68-2.63,5.61-2.89,11.32-5.59,16.87-8.59a3.63,3.63,0,0,1,1.34-.38c-.37-.32-.65.07-.95.14a6.34,6.34,0,0,0-1.7.82c-7.63,4.62-16.51,7-23.23,13.25a3.76,3.76,0,0,1-3.34.6c-13-2.6-26.41-1.91-39.44-4.41a44.69,44.69,0,0,1-6.23-1.66c-1.3-.84-2.78-.72-4.23-.83-1.23-.1-2.75.05-2.68-1.93,3.73-1.15,7.49-2.2,11.18-3.46,2.93-1,5.75-2.27,7-5.5,5.92.86,11.79,2,17.72,2.82a50.58,50.58,0,0,0,17.79-.89c15.27-3.27,30.61-6,46.32-6,2.8,1.9,3.26,2.54,5.26,7.78-5.46-3.65-8.71.95-12.82,2.15-1.7.5-1.84,1.66-1.14,3.12.28.61,1.69,1.08.61,1.87s-3.87.47-1.74,2.47c1,.93,3.93.61,5.55-.12,2.09-.93.39-2.44-.38-3.64a17.05,17.05,0,0,1-.81-1.65c3.36.68,5.22-4.3,8.56-1.75,1,.77,0,2.77-1,3.92-1.34,2.28.33,5.72-2.82,7.37,1.27-1.2,3.5-1.58,2.73-4.21s2.22-1.1,2.81-2.32c1.39-4.06,4.47-4.38,8-3.57,1.47.34,3,.93,3.93-.84s-.06-3.3-1-4.64-2.39-1.25-2.26.47c.37,4.82-2.77,1.74-3.42,1.3-3.41-2.34-4.62-6.57-7.69-9.46-1.45-1.36,2-1.89,3.61-2.14,6.8,3.57,14.54,3.19,21.7,5.21C451.53,252.52,455,251.53,452.87,254.78Z"/><path class="cls-87" d="M403.94,258.89c-6,4.46-13.28,6.64-19.56,10.61.26,1.81,2.33,1.16,3,2.34-2.36.42-2,1.56-.63,2.74.92.77,2.58.14,3.27,1.52-17.25-2.63-34.64-4.07-52-6-2.43-.27-4.93-.66-7-2.17-.63-.52-1.61-.87-1-2,5.76,1.34,11.57,2.64,17.47,2.77a242.09,242.09,0,0,1,26.76,2.59c2.28.3,4.61,1.59,5.78-2.05.37-1.16,2.71-1.72,4.18-2.48A169.22,169.22,0,0,1,403,258C404.06,257.53,404.14,258.06,403.94,258.89Z"/><path class="cls-88" d="M386.87,278.8c2.68-2.25,6.26.38,9-1.65,5.89.41,11.53,2.06,17.22,3.77C404.33,280.11,395.69,278.21,386.87,278.8Z"/><path class="cls-89" d="M402.07,307.93c-2.57-.68-1.46,2.39-2.92,3-2.09-1.47-1.63-4.24-3.19-5.88A14.08,14.08,0,0,1,402.07,307.93Z"/><path class="cls-90" d="M208,143.48c.67-3.23,4-3.75,5.86-5.75a1,1,0,0,1,0-.72c1.8-1.44,3.06-.6,4.15,1,2.87,7,7.51,12.81,12.59,18.48-4.42,2.51-7.49,6.25-10.83,9.67-2.05,2.09-3.57,3.45-6.32.4a17.81,17.81,0,0,0-11.36-5.6c-2.62-3.31,2.21-4.88,1.77-7.67a7.87,7.87,0,0,1,4-5.35C210.63,146.48,209.82,145,208,143.48Z"/><path class="cls-16" d="M248.9,178.15c2.81,1.85,3.54,3.8,1.08,6.74a15.77,15.77,0,0,1-9.85,6c-2-1.22-4.9-1.69-4.69-5,0-.52.07-1-.76-.59-4,2.11-3.5-.43-2.62-2.72,1.34-3.51-3.35.18-2.65-2.34-.55-.85,1.34-3.14-1.74-2.67-.65.09-1.29-2.15-2.12-3.2A3.34,3.34,0,0,1,225,171a31.57,31.57,0,0,0,7.26-8.6c5,3.55,8.09,8.84,12.77,12.55C246.27,176.1,248.53,176,248.9,178.15Z"/><path class="cls-91" d="M204.91,153c0,1.71.86,3.59-1.77,4.46-1.42.47-1.33,2.12-1,3.49l-1.21,1.26a.65.65,0,0,1-1,0c-1.77-.92-4.64,1.27-5.59-2,3.63-3.52,2.58-7.58,1.56-12-2.26,2.08-3.21,4.69-5.24,6.37-1.55,1.28-3,3.34-5.39,1.28-2.67-1.85-3.1-4.74-3.56-7.62a2,2,0,0,0,1.31-1.95c3.57-1.53,7.78-1,11.07-3.42,1.27-.94,3.79.83,4.21-1.95,0-.71-.16-1.49.76-1.82,1.67,0,3.33,0,4,2-.18,2.27,2.76,2.66,2.86,4.75,1.54,4.1-2.76,2-3.66,3.44-2.29,1.09-.86,2.83-.62,4.28,0,.21.9-.56,1.42-.83A1.61,1.61,0,0,1,204.91,153Z"/><path class="cls-92" d="M230,180c2,.91,2-2.47,4.37-1.62,1,2.42-2.17,4.31-1.73,6.84,1.32-.16,1.72-1.42,2.59-2.07s2.55-.3,2,.66c-2.41,4,2.18,4.64,2.95,7-4.9,1.11-7.69-2.6-11.11-4.87C229.27,184,226.7,181.51,230,180Z"/><path class="cls-93" d="M199.89,162.17l1,0c.9,1.44,2.51,1.4,3.85,2,3.18,1.37,7.79,1.4,6.66,7.19-.26,1.33,1.68,3.09,2.62,4.66l-5,2c1.93-8.11-3.26-11.36-9.11-14.11C199.94,163.33,199.92,162.75,199.89,162.17Z"/><path class="cls-94" d="M230,180c-2.57,1.63,1.24,4.29-1,6-.8.06-1.61.13-2-.79.21-1.47-2-5.08-3.13-5.48-2.84-1,.31-1.81.1-2.75-.42-1.83.1-3.07,2.12-3.36,2.07.15,2.27,1.51,1.91,3.47,1.59-.4,1.74-2.63,3.67-2.27C232.22,176.8,230.24,178.17,230,180Z"/><path class="cls-95" d="M218.05,138a6.52,6.52,0,0,0-4.15-1c-1.54-2.73-2.92-5.47-.57-8.89C215.5,131.37,217.83,134.15,218.05,138Z"/><path class="cls-96" d="M248.9,178.15A9.69,9.69,0,0,1,245,175c3.19-1.64-2.1-2,.27-3.59C246.45,173.44,252.75,172.44,248.9,178.15Z"/><path class="cls-97" d="M226.08,173.59c-.7,1.12-1.41,2.24-2.12,3.36-1.46.23-2.66.05-2.86-1.76,1.52-1.18,1.83-3.51,3.91-4.16C225.37,171.88,225.73,172.73,226.08,173.59Z"/><path class="cls-98" d="M112.34,275.66c-3.15,2.32-6.69,2.53-10.68,2.23C104.8,273.52,109.14,277.79,112.34,275.66Z"/><path class="cls-99" d="M180.86,273.84l-6.84.05a1.72,1.72,0,0,1-.22-2.13c6.14-3.18,12.79-5,19.27-7.32,2.46-.86,5.17-1.23,7-3.38l6.38-1.29c-1.05-2-2.76-1.87-4.1-1.56-4.78,1.11-4.54-1.48-4.06-4.84.86-5.92,1.38-11.89,2.15-17.83.14-1.08-.31-2.85,2-2.52,12.68,1.81,23.9,7.15,34.53,14-5.64,3.27-12,4.74-18,7.1a25.59,25.59,0,0,1-5.19,2.5c1.34-.67,3.95,0,6.47-.47a5.09,5.09,0,0,0,2-.13c13.32-6.88,27.33-4.38,41.26-3.1a70,70,0,0,0,9.48.47c16.87-.85,33.61.46,50.32,2.63,3.13.41,6.32.35,10.44.55-7.06,3.66-14.23,4.13-20.87,6.26-7.58,5-16.64,5.41-24.92,8.22-10.64,3.64-21.65,6-32.39,9.27C249.94,282,243.93,282,238,281.91c-3.8.06-7.6.08-11.39.18-2,.06-3.67-.26-3.49-2.85.62-4.11,3.33-1.88,5.56-1.67a8.2,8.2,0,0,1-3.73-2.49,9,9,0,0,1-4.14-2.05c-5.15-2.09-10.35-4.09-15.16-6.95a49.58,49.58,0,0,0,10,5.23c1.23.52,2.47,1.53,2.28,3-.27,2-2.11,1.19-3.23,1.15-5.26-.15-10.53.6-15.76-.41l-6.9-1.1c-.24-2.93,2.08-3,3.93-3.31s3.89,0,5.35-.68C194.63,270.36,187.86,272.69,180.86,273.84Z"/><path class="cls-100" d="M287.87,269.93l25-7.12c-.06,1.62-3.76,1.59-2,3.7,1.13,1.36,3.11.47,4.67-.21,2.41-1,4.71-2.47,7.5-2.28,2,1.92,5.1-.35,7,1.93l1,2a16.42,16.42,0,0,0-9.06-.61c-4.64.79-9.34,1.58-14-.22a1.38,1.38,0,0,0-2,.86,40,40,0,0,1-14.63,3.86A5.35,5.35,0,0,1,287.87,269.93Z"/><path class="cls-101" d="M257.25,248.88c4.86-4.45,6.15-4.4,13.67.91l-4.93.33Z"/><path class="cls-38" d="M220.28,256.13c-3.33.88-6.65,1.76-10,2.6-.25.06-.59-.22-1.66-.66,3.2-2.86,6.81-3.37,10.37-4C218.17,255.57,219.09,255.93,220.28,256.13Z"/><path class="cls-102" d="M435.63,299.12c1.19-2.93,2.38-5.41,3.16-8,.48-1.57,1.22-1.71,2.5-1.37,2.39.64,5,1.06,6.32,3.4.85,1.55-1,2.19-2.05,2.8A24.26,24.26,0,0,1,435.63,299.12Z"/><path class="cls-103" d="M428,294.76a2,2,0,0,1,.49.06c1.72.67,4.26-.75,5.14,1.62.3.78,0,3-1.88,2.88-2.6-.13-5.44.24-7.43-2.06a1.77,1.77,0,0,1-.06-2.32C425.41,293.65,426.78,294.73,428,294.76Z"/><path class="cls-13" d="M202,149c.34-1.28,0-3.25,2.51-1.61,1.34.88,1.27-.7,1.36-1.58,0-1.44,1.16-1.76,2.13-2.28,1.32.28,3.2-1.33,3.91.7s-1.17,4.06-2.38,4.27c-2.89.51-3.48,2.66-4.64,4.54H203C201.1,152,200.74,150.7,202,149Z"/><path class="cls-13" d="M203,141l-4-2,5.06-3.87,4.92-3C208.87,137,204.06,137.7,203,141Z"/><path class="cls-104" d="M427.76,266c-.38.28-1.12.65-1.07.84,1,4.12-2.95,5.71-4.7,9.31-.38-2.53-4.81-4.7.83-5.87,1.65-.35,1-1.21.61-2.13-.81-1.7-.62-2.91,1.61-3C425.71,266.14,426.82,265.76,427.76,266Z"/><path class="cls-105" d="M196,207a14.23,14.23,0,0,0,4.73,4.78c1.68,1.15.9,2.1.17,3.2-1.76,2.4.75,3.37,1.6,4.93,2.21,4.09,6,6.86,9.53,10.79-3.88.27-6.45-2.16-8.65-2.44-6-.76.53-5.71-3.54-6.21-3.59,4.23-3.91,9.88-3.67,15.45.3,6.91-2.27,13.43-2.18,20.26,0,2.15-1.53,2.39-2.91,2.71-5.31,1.23-10.65,2.34-16,3.49-1.86-8.61-.08-17.55-2.41-26.16-.66-2.41.18-4.87,2-7.23,4.9-6.24,9.12-13,13.93-19.34C190.37,209,191.87,205.4,196,207Z"/><path class="cls-78" d="M137,161.09c-1.7-1.12-2.11-2.86-2.21-4.72,0-.66.12-1.33.1-2-.09-4.39,3.59-12.23,6.82-14.47.13-.1.25-.35.34-.34,5.27.81,9.54-1.13,13.59-4.38.95-.76,2.73,1,3.78,2,6,5.72,12.12,11.4,17.89,17.38,3.6,3.73.52,8.28.68,12.44-3-1.6-3.3-5.28-5.59-7.43a3,3,0,0,1,.06-1.45c-.29.05-.28.35-.38.54a20.27,20.27,0,0,1-2.79,3.41c-2,1.93-3.25,4.56-5.47,6.31-3.49,2.74-5.89,1.9-7.22-2.36-.64-2.07-.12-4.75-2.73-5.93a5.33,5.33,0,0,1-1.16-.83c-1.48-2.08-1.71-4.51-2-6.94-.35-3.15-1.62-4.86-4.68-2.38-1.23,1-3-.18-3.9,1.35.15,1.69-1.86,2.29-2,4.44-.4,1.7,5.46-2.29,2.78,2.13C140.86,158.85,138.37,159,137,161.09Z"/><path class="cls-79" d="M153.76,159.17c3.51-.74,2.66,2.13,3.55,3.9s-.68,5.32,2.59,5.74c2.86.38,4.18-2.38,5.7-4.24,1-1.29,1.81-2.78,3.34-3.6,2.05,3.8-1,5.7-3,8-3.31.91-4,4.73-6.89,6.14-2.37,1.19-3.12-.63-4-2.16L151,173C150.6,168.14,152.1,163.64,153.76,159.17Z"/><path class="cls-106" d="M142.13,151.27c1.18-2,3.44-3.05,5.1-4.11,2.57-1.64,4,1.44,4.61,3.65A67.86,67.86,0,0,1,153,159c-.09.81-.31,1.59-.46,2.38-.32,1.68-.17,4.54-2,4.38-2.49-.21-1.55-3-1.57-4.83.09-2.8-.13-5.61.1-7.81-.29,5.18.18,11-1.65,16.67A.9.9,0,0,1,146,170c-1.71-.7-1.78-1.85-1.42-3.56.65-3.2.91-6.47,1.34-9.71C146.34,153.7,145.25,151.78,142.13,151.27Z"/><path class="cls-79" d="M173,158.94c2.83,2,4.23,4.82,5,8,.65,2.51-.35,4.76-1.15,7-.41,1.16-1.23.56-1.88.07-3.65-2.29-3-6.84-5.12-10C169,162.77,169.9,159.45,173,158.94Z"/><path class="cls-107" d="M173,158.94a17,17,0,0,0-1.71,3c-.12.32-3.41,3.41.91,1.69.15-.06.69.36.67.43-1.38,3.79,1.5,6.67,2.12,10-3.23-1.27-4.87-5.34-9-5.08,0-3,3.62-4.73,3-8C171.58,157.49,171.58,157.49,173,158.94Z"/><path class="cls-80" d="M191,171c-.93,2.66-3.43,3.94-5.17,5.88-1.33,1.48-2.63,3.1-4.9,1.11-2-1.74-2.55-3.2-.1-5.06.6-.45.05-2,1.1-2.57a18.16,18.16,0,0,1,9.13.7Z"/><path class="cls-108" d="M149.83,161c.1,1.29.2,2.58.4,5.24,1.15-3.19.17-6,2.76-7.18a5,5,0,0,0,.77.15A28.62,28.62,0,0,1,151,173c-2.14-.23-3.5-1.73-5-3.06a.65.65,0,0,1,.66,0c1.85-1.08,1.08-2.93,1.34-4.49S147.3,161.7,149.83,161Z"/><path class="cls-65" d="M191,171a10.51,10.51,0,0,1-9.13-.7c0-.43.06-.87.1-1.3C187.58,167,190.15,167.59,191,171Z"/><path class="cls-84" d="M171.7,257.88c-.7-4.87-3.14-9.75,0-15.36Z"/><path class="cls-2" d="M129.75,209.07c2.93-1.34,1.66-5.62,5.79-5.69C135.42,206.81,134.59,209.32,129.75,209.07Z"/><path class="cls-109" d="M137,161.09c.13-4.38,2.67-4.42,5.88-3.25l-1.72,4.26c-1.39-.41-3,.07-4.21-1.08Z"/><path class="cls-110" d="M155.07,173c1.46.5,2.3,2.15,4,2.16-1.06,1.07-.78,4-3.4,2.86S154.94,174.69,155.07,173Z"/><path class="cls-78" d="M136.93,161c1.35.59,3.47-1.89,4.21,1.08-.11,1.1-.21,2.2-.34,3.51C138.67,164.55,137,163.5,136.93,161Z"/><path class="cls-2" d="M62,261c-1.74,2.51-4.42,3.55-7.13,4.61,2.1-2.54,3.27-6,7.11-6.61C62,259.66,62,260.32,62,261Z"/><path class="cls-111" d="M568.8,132c-2.19,5.18-4.08,9.7-6,14.21L562,146c0-1.41.08-2.82,0-4.23-.08-1.21.76-3.05-1.06-3.36-1.43-.25-2.08,1.39-2.82,2.49-1.17,1.74-1.54,4-3.45,5.4-2.07-3.67-1.87-6.32,2.44-8C561,136.72,563.06,131.91,568.8,132Z"/><path class="cls-112" d="M174,272.18v1.71L145,275c-1.38-1.46-.71-2.77.86-2,3.19,1.66,5.59.34,8.18-1,5.89-1.39,11.7-3.23,17.86-3.14,1.25-.43,2.53-1,3.31.73-2,2-4.71,1.92-6.79,2.79C170.09,272.84,172,270.2,174,272.18Z"/><path class="cls-113" d="M174,272.18c-2.08-.39-4,1.73-6.32.36,1.93-2.11,4.5-2.36,7-2.74,2.53-2.51,6.55-1.6,9.16-4a91.43,91.43,0,0,1,16.19-4.78c.43,3-2.15,3.09-3.83,3.68C188.88,267.33,181.45,269.72,174,272.18Z"/><path class="cls-114" d="M183.89,265.84c-2.29,3.09-5.93,3.07-9.16,4-.7-1.07-1.86-.67-2.82-.89Z"/><path class="cls-115" d="M243.94,228c.58-1.74,2.52-1.84,4.18-3-2.77-2.31-6.23-3.29-7.59-6.88l4.54-.3c7.76,3.12,12.7,9.86,19,14.86,1.41,1.12.41,2.28-1.09,2C256.25,233.65,248.93,234.08,243.94,228Z"/><path class="cls-116" d="M264.42,220.08a15.88,15.88,0,0,1-9.48-6.47C258.39,214.62,261.63,216,264.42,220.08Z"/><path class="cls-99" d="M291,270.94c5.13-.37,9.75-3.28,15-2.95,0,.3,0,.6,0,.9,1.66,1.84,3.21,3.68-.62,4.83-.82.39-1.61.85-2.46,1.19-4.23-.2-8.8-2-12,2.51-.72,1-1.89,1.29-2.86,1.89A17.79,17.79,0,0,1,276.16,282a6.19,6.19,0,0,0,3.1,3.7c-1.82-1.68-2.14-3.58.79-3.54,5.15.07,8.54-2.32,12-5.79,3.11-3.1,7.32-2.06,11.16-.68a3.51,3.51,0,0,1,.25,4.95c-1.21,1.5-2.9,1.46-4.56.92-1.27-.41-2.75-1.19-3.59.23S296.26,284,297,285c2.58,3.43,2.07,4.61-3.23,5.91a38.33,38.33,0,0,0,7.41-.53c2.66-2,5.76-1,8.66-1.25,2.59-.21,3.86-.85,3.51-3.93-.88-7.69-.27-8.09,7.29-5.78a18.14,18.14,0,0,1,4.42,1.91c-2-1.24-3.43-2-4.81-2.08-2.31-.2-4.54-2-6.75-1-3.22,1.36-.51,4.1-.84,6.19-.51,3.21-2,4.87-5.2,4.68-1.82-.11-3.65.06-5.46-.18a5.3,5.3,0,0,1-2.88-1.79c-1.17-1.48-3.77-2.61-3-4.67.87-2.28,3.19-.35,4.84-.37,2.59,0,5.15-.31,4.17-3.58-1.1-3.64,1-4.68,3.43-5.86,4.34-3.18,8.46.07,12.68.42,12.2,3.6,23.89,8.88,36.54,11,1.76.3,3.65.57,4.82,2.26a8.67,8.67,0,0,1,.08,5.35c-.48,1.49-1.56,2.93-2.8.32,1.8-2.66,0-3.62-2.13-4a44,44,0,0,0-6-.17c.14-.57-.05-1-.36-.9s-1,.56-1.41.43c-8.08-2.43-14.31,2.57-21.11,5.24-9.25,2.75-19.19,4.51-27.09,9.78S286.05,307,278,305.74a186.87,186.87,0,0,1-29-6.81,1,1,0,0,1,.29-1.39c6.31-1.53,12.3,1.06,18.46,1.52.67-.07.12-1.11.25-.46,0,.19-.11.21-.43.26-1.36.18-3.17.27-3.4-1.15-.27-1.71,1.62-1.66,2.9-1.84,9.09,1.88,18.43,2.1,27.49,4.17-15.42-4.19-31.77-3-47-8.12-3.69-1-7.45-.29-11.16-.52-2.36-.15-5.11.06-5.52-3.39.4-.66.8-1.32,1.21-2a11.73,11.73,0,0,0,6-2c2.33-2.36,5.39-2.46,8.35-2.38A33.7,33.7,0,0,0,259,279.46c8.87-3.21,18.22-4.84,27.07-8.13A12.11,12.11,0,0,1,291,270.94Z"/><path class="cls-117" d="M338.13,317.9c-5-1.43-10.38-1.59-15.24-3.74-.11-1.91.91-1.79,2.18-1.2,5.88,1.58,11.74,3.13,17.92,3.05a295.74,295.74,0,0,1,50.7,3.82c3.82.61,3.79.81,6.08,4.3C379.15,320.14,358.63,319.12,338.13,317.9Z"/><path class="cls-118" d="M359.9,292c1.33,1,2.14.7,2.13-1s-.18-3.27-.29-4.9c1.19-2.11,3.92-.32,5.25-2.06,1.27-.05,2.61.33,2.58,1.67,0,1.77-1.74,1.21-2.72,1.12-4.77-.46-2.25,3.06-2.35,4.68-.14,2.52,1.43,3,3.45,1.53,1.8-1.28,2.39,1,3.67,1.3.21.05.49,1,.32,1.29a2.3,2.3,0,0,1-3.07.87c-3.59-2-5.57.65-7.87,2.47a3.41,3.41,0,0,1-.06-3.18c-5.53-3.25-10.94-2.24-17,.29a31.12,31.12,0,0,1,2.92,2c1.67,1.47,2.27,2.8-.81,2.91-4.37.16-7.31,4.54-11.93,4-.29,0-.95.51-.94.75.08.92,1.36,2.64-.88,2-1.61-.45-3.58-1.78-3.77-3.59-.2-2,1.92-1.38,3.05-1.33,5,.25,8.41-1.33,8.85-6.85.12-1.53,1.38-1.6,2.4-2.1C348.31,291.18,354.09,291.47,359.9,292Z"/><path class="cls-22" d="M367,284.08c-.54,3.76-3.63,1-5.25,2.06-14.3-1.64-27.31-7.58-40.72-12.17.33-2.44,1.88-1.26,3.1-1,11.58,2.93,22.68,7.67,34.65,9.19A76.64,76.64,0,0,1,367,284.08Z"/><path class="cls-119" d="M328.91,292.68c3.64-4.56,14.14-8,18.93-6.05,2.26.93,4.1-1.13,6.43-.37l-2.48,1.65c-5.67,1.1-10.46,4.4-15.77,6.4-1.65.62-3.15,1.74-5,1.64L330,294c3.14-1.36,6.19-3,9.39-4.17-3.21,1.2-6.3,2.7-9.41,4.16Z"/><path class="cls-21" d="M360.94,295.83A2.86,2.86,0,0,1,361,299c1,5.6-4.54,6.19-7.13,8.94-1,1-4.18-.66-4.5,2.67-.05.51-1.57.28-2.1-.41-1-1.33-1.85-2.81-1.38-4.57.31-1.13,1.33-1.26,2.38-1.33,4.72-.31,9.06-1.11,9.87-7C358.33,295.85,359.77,295.86,360.94,295.83Z"/><path class="cls-120" d="M381,290.23c1.75,1.26,3.54,2.46,5.21,3.8.82.66,1.29,1.73.25,2.53s-1.77-.22-2.46-.91a1.44,1.44,0,0,1-.24-.42c-1.54-3.34-7.35-5.54-6.2-8.14,1.27-2.91,6.79-1.07,10.42-1.78,2.31-.45,6.71-2.37,6.95.18.29,3-4.37,1.84-6.85,2.48a36,36,0,0,1-5.82.6Z"/><path class="cls-121" d="M374.8,312.7c-3.07-.34-5.11-2.3-7-4.45a1.74,1.74,0,0,1-.13-2.27c.61-.93,9.94-4.44,11-4a1.75,1.75,0,0,1,1,.87c.26.75-.31,1.28-.9,1.55-1.66.74-3.42,1.28-5,2.12-.95.5-2.62.14-2.78,1.59s1.29,1.73,2.21,2.36C373.86,310.92,375.3,310.74,374.8,312.7Z"/><path class="cls-122" d="M324.12,272.93c-1,.43-2.36-.19-3.1,1-2.75-.52-5.61-.74-8.22-1.66-2.1-.75-2.71.71-3.83,1.59-1.43-.41-3.22.67-4.32-1.08l2.47-1.25c-.75-1.09-2.74.26-2.89-1.53-.1-1.11,1.13-.83,1.77-1.15,5.13,1,10.26,2,15.39,3.06A18.56,18.56,0,0,1,324.12,272.93Z"/><path class="cls-123" d="M325.07,313l-2.18,1.2a2.23,2.23,0,0,0-1,.12l-7.86-3.38c0-1.72,1-1.45,2.06-1Z"/><path class="cls-92" d="M316.13,309.9c-.74.24-1.65.1-2.06,1-2-.68-4.09-1.29-5.21-3.85C312,306.84,313.91,308.72,316.13,309.9Z"/><path class="cls-124" d="M230.85,288c1.48,2.51,4.05,1.69,6.22,2,3.71.48,7.56-.69,11.2.84-2.76,1.27-5.58.56-8.5.44,2.76,1,5.95-1,8.42,1.25-1.92,2.94-4.65.69-7,1.1,4.78-.1,9.48,1.57,14.3.54a29.79,29.79,0,0,0,7.76.9c1.46,0,3.48-.59,3.73,1.94l-1,.21c-.9.18-1.28.49,0,.61,1.41.15,2.3.95,4.23,2.29l-21.23-2c-7.18-.8-14.56-1-19.93-7C229.67,290.11,230.26,289.06,230.85,288Z"/><path class="cls-125" d="M229.09,291.16c6.34,3.17,12.84,5.92,19.93,7,0,.27,0,.54,0,.81a230.73,230.73,0,0,1-23.08-3.56C226.46,293.14,228.23,292.52,229.09,291.16Z"/><path class="cls-126" d="M294.88,311c-3.49.39-6.7-.61-9.85-2C288.33,309.61,292.2,307.27,294.88,311Z"/><path class="cls-127" d="M198.26,140.87c1.35.19,1.61.86.91,2-.48.78-1.21,1.41-1.93.69-1-1-2.06-.82-3.19-.74Z"/><path class="cls-127" d="M185.23,155.81c3.79.1,5.16-3,7.1-5.37,1.42-1.71,1.91-4.24,4.82-5.14.3,3.75.38,7.35.93,10.89.5,3.26-1,4.08-3.78,4l-1.53,0c-2.87,1.32-5.61,2.17-6.84-2C186.22,157.2,183.73,157.11,185.23,155.81Z"/><path class="cls-128" d="M185.93,158.13c1.6,3,4.51,1.53,6.84,2-.34,2.72-2.4,3-4.32,2.52a4.82,4.82,0,0,1-4-3.79C184.29,158.17,185.28,158.14,185.93,158.13Z"/><path class="cls-129" d="M136.14,128c.52-1.77,1.78-2.56,3.38-1.83s3.46,2,3.21,4c-.18,1.41-.16,3.41-2.14,4.16-1,.39-1.91.61-2.71-.3a1.92,1.92,0,0,1-.28-2.65C139.52,128.66,139.49,128.64,136.14,128Z"/><path class="cls-42" d="M291,270.94c-17.46,5.16-34.39,12.44-53,13.11v-2.14A226.44,226.44,0,0,0,273.1,274c4.88-1.5,9.84-2.75,14.77-4.11C288.91,270.25,290.24,269.69,291,270.94Z"/><path class="cls-130" d="M199,275h19.57c-3.88-3.75-8.22-3.79-11.19-6.23-1.94-1.6-6.19-2.88-4.83-5.19,1.24-2.08,4.12,1.39,5.91,2.62,3.93,2.71,9.39,2.54,12.38,6.81-.9,2.66-2.66,3.33-5.43,3C210,275.37,204.36,277.26,199,275Z"/><path class="cls-131" d="M180.86,273.84c6.92-3.91,14.63-3.81,22.47-4.62-1.78,2.07-4,1.53-6,1.89s-4.45.09-5.25,2.81Z"/><path class="cls-130" d="M225,275.08c2.91-.18,4.55,1.83,6.76,3.26-3.05,2.6-6.13-3.13-8.59.9C222.4,277.26,223.79,276.21,225,275.08Z"/><path class="cls-132" d="M403.94,258.89,403,258a6,6,0,0,1,6.23-1.34A6.24,6.24,0,0,1,403.94,258.89Z"/><path class="cls-80" d="M190.85,147.09c-1.57,2.27-1.95,5.1-5.16,4.68-.83-.11-2-1.21-1.57-2.17C185.34,146.85,187.93,147.2,190.85,147.09Z"/><path class="cls-133" d="M202,149c.25,1.37,0,2.85,1,4.05-.05,1.48.08,3.6-1.75,3.5-2.08-.1-1-2.36-1.21-3.65a9.87,9.87,0,0,1-.16-3.93C200.5,146.15,201.29,149.05,202,149Z"/><path class="cls-25" d="M256.11,262.19c3.35-1,6.85-.69,10-3.36,2.28-1.92,6.53-.72,9.22,1.08,1.06.7,2.43.41,3.72,1.88-3.73.79-7,1.49-10.3,2.16-5.45,1.12-11.46,1.16-16.22,3.62s-10.66.89-14.62,5.27c-1,1.07-.59,1.58-.42,2.45.36,1.74-.58,2.68-2.13,2.52-3-.31-.14-1.76-.39-2.52-1.67-5-.22-8,5.93-8.6l-7.74-4.87c2.22-1.66,3.38.07,4.73.49,1,.12,1.63.93,2.38,1.49,1.69.26,2.78,2.72,4.92,1.36C248.57,263.1,253.26,266,256.11,262.19Z"/><path class="cls-45" d="M306,260.52l-38,9.16C272.69,265.55,300,258.76,306,260.52Z"/><path class="cls-134" d="M240.31,263.8a2.51,2.51,0,0,1-2.38-1.49c5.56-1.47,11.11-3,16.68-4.39.4-.1.91.23,2.2.59C251.3,261.81,245.35,261.51,240.31,263.8Z"/><path class="cls-135" d="M235.45,259.31a28.18,28.18,0,0,1,14-2.83C245.09,259,240.21,259,235.45,259.31Z"/><path class="cls-136" d="M256.11,262.19c.27,4.08-2.67,3.81-5.16,3.48-1.91-.25-3.76-.83-5.72-.51C248.35,262.29,252.38,262.78,256.11,262.19Z"/><path class="cls-137" d="M190.3,223a5,5,0,0,1,2.39-5.69c.18-.11,1.08.37,1.09.61C193.91,220.28,192.5,221.63,190.3,223Z"/><path class="cls-50" d="M149.83,161c-1.34,1.68-.7,3.7-.91,5.56-.17,1.55.21,3.4-2.24,3.46q1-9.55,2-19.1C150.45,154.27,149.89,157.62,149.83,161Z"/><path class="cls-117" d="M267,297c-3.85-2.12-8.32-.23-12.25-1.87-2.56.2-5.06.19-6.71-2.29-2.75-2-6.12-.12-10.42-2h10.65c16.46,5.43,34.41,3.29,50.8,9-.11.75-.23,1.51-.34,2.26Z"/><path class="cls-138" d="M304.65,272.82c1.42.45,3.14-.34,4.32,1.08-2.18,1.05-4.44,1.58-2.36,5.13,1.5,2.55-1,4.92-4.14,4.41-1.78-.3-3.55-.69-5.87-1.14,1.78,2.35,3.11,4.46,5.4,5.71,1,1.32.7,2.64,0,3.95l-9.72-.16c-1,0-2.14-.19-1.91-1.57s1.4-1.22,2.38-1.07c1.54.23,3.27,1.55,4.46-.46s-1.17-2.69-2-3.94-3.06-2.42-1.7-4.14c1.24-1.55,3.52-.81,5.17-.27,4.42,1.45,5.55-.05,4.22-4.2a2,2,0,0,1,0-2.31C303.17,273,303.85,272.78,304.65,272.82Z"/><path class="cls-100" d="M302,292c0-1.31,0-2.63,0-3.95a9.25,9.25,0,0,1,1.48-.13c8,.34,8.06.33,7.37-7.55-.26-2.91,1.12-3.48,3.52-3.3,5.15.39,9.68,2.63,14.33,4.74-5.47,1.19-10-3.5-15.6-2.3a31,31,0,0,0,1.54,6c1.87,4.69-1.22,3.94-3.83,4.85C307.88,291.35,304.2,287.81,302,292Z"/><path class="cls-139" d="M302.91,273.84v2.31c-6-1.66-10.47-.13-14.06,5.24-2.29,3.43-6.57.73-9.94,2,.09,2.34,3.54,2.7,3.56,6.36l-9.64-8c1.64-1.7,3.18-.89,4.5-.75,5.34.55,9.19-2.26,13.3-5.08,2.85-2,6.13-4.8,10.08-1.79C301.61,274.78,302.23,274.3,302.91,273.84Z"/><path class="cls-140" d="M330,294c3.12-3.19,7.19-4.14,11.37-4.82-3.53,2.21-7.13,4.26-11.35,4.83Z"/><path class="cls-141" d="M248,292.84l6.71,2.29c-5.2,2-9.82-.9-14.72-1.56C242.64,292,245.39,293.12,248,292.84Z"/><path class="cls-142" d="M331.51,68.83C287.62,68.83,252,88.16,252,112c0,12.67,10.06,24.06,26.08,32q3.93,1.94,8.31,3.58c1,14-4.21,22.17-8.41,25.09,14.26-6.3,20.27-13.39,22.49-20.42a3.63,3.63,0,0,0,.1-.45,138.72,138.72,0,0,0,30.92,3.4c43.89,0,79.47-19.32,79.47-43.16S375.4,68.83,331.51,68.83Z"/><text class="cls-143" transform="translate(281.5 107.89)"><tspan class="cls-144">W</tspan><tspan x="16.71" y="0">ell that’s </tspan><tspan x="-10.76" y="25.16">interesting...</tspan></text></svg>