<svg id="therapy_Image" data-name="therapy Image" xmlns="http://www.w3.org/2000/svg" viewBox="0 0 816.84 899">
  <defs>
    <style>
      .cls-1 {
        fill: #fff;
      }

      .cls-2 {
        fill: #d4e788;
      }

      .cls-3 {
        fill: #010101;
      }

      .cls-4 {
        fill: #b57e4a;
      }

      .cls-5 {
        fill: #020201;
      }

      .cls-6 {
        fill: #414141;
      }

      .cls-7 {
        fill: #040302;
      }

      .cls-8 {
        fill: #030302;
      }

      .cls-9 {
        fill: #040404;
      }

      .cls-10 {
        fill: #020302;
      }

      .cls-11 {
        fill: #3f3f3f;
      }

      .cls-12 {
        fill: #d1e389;
      }

      .cls-13 {
        fill: #cfe187;
      }

      .cls-14 {
        fill: #cddd90;
      }

      .cls-15 {
        fill: #2b2b2b;
      }

      .cls-16 {
        fill: #cdcdcd;
      }

      .cls-17 {
        fill: #c4d485;
      }

      .cls-18 {
        fill: #494949;
      }

      .cls-19 {
        fill: #b7c778;
      }

      .cls-20 {
        fill: #bdcc81;
      }

      .cls-21 {
        fill: #bece84;
      }

      .cls-22 {
        fill: #ccc6c6;
      }

      .cls-23 {
        fill: #bcc891;
      }

      .cls-24 {
        fill: #1e2013;
      }

      .cls-25 {
        fill: #ececec;
      }

      .cls-26 {
        fill: #333725;
      }

      .cls-27 {
        fill: #ecf1e8;
      }

      .cls-28 {
        fill: #e4ecdf;
      }

      .cls-29 {
        fill: #404040;
      }

      .cls-30 {
        fill: #d2e487;
      }

      .cls-31 {
        fill: #8c9e46;
      }

      .cls-32 {
        fill: #3e3e3e;
      }

      .cls-33 {
        fill: #403f3f;
      }

      .cls-34 {
        fill: #3f3e3e;
      }

      .cls-35 {
        fill: #3d3d3d;
      }

      .cls-36 {
        fill: #3b3b3b;
      }

      .cls-37 {
        fill: #393939;
      }

      .cls-38 {
        fill: #90663c;
      }

      .cls-39 {
        fill: #202020;
      }

      .cls-40 {
        fill: #a77544;
      }

      .cls-41 {
        fill: #ac7847;
      }

      .cls-42 {
        fill: #45413d;
      }

      .cls-43 {
        fill: #3c3c3c;
      }

      .cls-44 {
        fill: #525b2e;
      }

      .cls-45 {
        fill: #363636;
      }

      .cls-46 {
        fill: #343434;
      }

      .cls-47 {
        fill: #353535;
      }

      .cls-48 {
        fill: #383838;
      }

      .cls-49 {
        fill: #a07144;
      }

      .cls-50 {
        fill: #303030;
      }

      .cls-51 {
        fill: #333;
      }

      .cls-52 {
        fill: #a17142;
      }

      .cls-53 {
        fill: #050302;
      }

      .cls-54 {
        fill: #050402;
      }

      .cls-55 {
        fill: #070503;
      }

      .cls-56 {
        fill: #080503;
      }

      .cls-57 {
        fill: #0c0805;
      }

      .cls-58 {
        fill: #150e08;
      }

      .cls-59 {
        fill: #9e6f40;
      }

      .cls-60 {
        fill: #171009;
      }

      .cls-61 {
        fill: #120d07;
      }

      .cls-62 {
        fill: #2d1f12;
      }

      .cls-63 {
        fill: #9b6c3f;
      }

      .cls-64 {
        fill: #120c07;
      }

      .cls-65 {
        fill: #160f09;
      }

      .cls-66 {
        fill: #251a0f;
      }

      .cls-67 {
        fill: #1b130b;
      }

      .cls-68 {
        fill: #795532;
      }

      .cls-69 {
        fill: #eeefee;
      }

      .cls-70 {
        fill: #e2e4db;
      }

      .cls-71 {
        fill: #f3f5f2;
      }

      .cls-72 {
        fill: #e2e3e2;
      }

      .cls-152, .cls-73 {
        fill: #fefefe;
      }

      .cls-74 {
        fill: #a37243;
      }

      .cls-75 {
        fill: #a87645;
      }

      .cls-76 {
        fill: #302113;
      }

      .cls-77 {
        fill: #a97645;
      }

      .cls-78 {
        fill: #302114;
      }

      .cls-79 {
        fill: #1b120b;
      }

      .cls-80 {
        fill: #c3d57e;
      }

      .cls-81 {
        fill: #18100a;
      }

      .cls-82 {
        fill: #1d140c;
      }

      .cls-83 {
        fill: #91653b;
      }

      .cls-84 {
        fill: #92663b;
      }

      .cls-85 {
        fill: #96693d;
      }

      .cls-86 {
        fill: #90653d;
      }

      .cls-87 {
        fill: #a57343;
      }

      .cls-88 {
        fill: #845c36;
      }

      .cls-89 {
        fill: #aaba6e;
      }

      .cls-90 {
        fill: #1c130b;
      }

      .cls-91 {
        fill: #312214;
      }

      .cls-92 {
        fill: #67482a;
      }

      .cls-93 {
        fill: #7b5632;
      }

      .cls-94 {
        fill: #5c4025;
      }

      .cls-95 {
        fill: #72502f;
      }

      .cls-96 {
        fill: #8a6138;
      }

      .cls-97 {
        fill: #889457;
      }

      .cls-98 {
        fill: #885f37;
      }

      .cls-99 {
        fill: #f7f7f6;
      }

      .cls-100 {
        fill: #8f643b;
      }

      .cls-101 {
        fill: #95683d;
      }

      .cls-102 {
        fill: #5f4227;
      }

      .cls-103 {
        fill: #563c23;
      }

      .cls-104 {
        fill: #0a0704;
      }

      .cls-105 {
        fill: #d6d6d6;
      }

      .cls-106 {
        fill: #e2e2e2;
      }

      .cls-107 {
        fill: #89623d;
      }

      .cls-108 {
        fill: #9d6e40;
      }

      .cls-109 {
        fill: #875f37;
      }

      .cls-110 {
        fill: #8a6038;
      }

      .cls-111 {
        fill: #624428;
      }

      .cls-112 {
        fill: #d3e688;
      }

      .cls-113 {
        fill: #8d9e47;
      }

      .cls-114 {
        fill: #060302;
      }

      .cls-115 {
        fill: #d97750;
      }

      .cls-116 {
        fill: #030201;
      }

      .cls-117 {
        fill: #d97751;
      }

      .cls-118 {
        fill: #8e9f46;
      }

      .cls-119 {
        fill: #8d9c45;
      }

      .cls-120 {
        fill: #060402;
      }

      .cls-121 {
        fill: #f3efec;
      }

      .cls-122 {
        fill: #2f2113;
      }

      .cls-123 {
        fill: #3b2d19;
      }

      .cls-124 {
        fill: #fbfafa;
      }

      .cls-125 {
        fill: #94693d;
      }

      .cls-126 {
        fill: #0f0a06;
      }

      .cls-127 {
        fill: #0b0804;
      }

      .cls-128 {
        fill: #140e08;
      }

      .cls-129 {
        fill: #150f09;
      }

      .cls-130 {
        fill: #1f150d;
      }

      .cls-131 {
        fill: #3e2b19;
      }

      .cls-132 {
        fill: #281c10;
      }

      .cls-133 {
        fill: #0c0905;
      }

      .cls-134 {
        fill: #73502f;
      }

      .cls-135 {
        fill: #3d2a19;
      }

      .cls-136 {
        fill: #23180e;
      }

      .cls-137 {
        fill: #604327;
      }

      .cls-138 {
        fill: #2e2013;
      }

      .cls-139 {
        fill: #3c2e19;
      }

      .cls-140 {
        fill: #22180e;
      }

      .cls-141 {
        fill: #2a1d11;
      }

      .cls-142 {
        fill: #74512f;
      }

      .cls-143 {
        fill: #442f1c;
      }

      .cls-144 {
        fill: #4e361f;
      }

      .cls-145 {
        fill: #4c351f;
      }

      .cls-146 {
        fill: #5d4026;
      }

      .cls-147 {
        fill: #dedede;
      }

      .cls-148 {
        fill: #969860;
      }

      .cls-149 {
        fill: #f8f8f6;
      }

      .cls-150 {
        fill: #fbf3f0;
      }

      .cls-151 {
        fill: #282c14;
      }

      .cls-152 {
        stroke: #000;
        stroke-miterlimit: 10;
        stroke-width: 8.65px;
      }
    </style>
  </defs>
  <title>graphic-why-s1</title>
  <path class="cls-1" d="M396.22,526.11c36.08,8.48,42.33.88,46.21,10.31s18.39,7.5,13.69,34.67S392.39,867,392.39,867s-45.26,20.55-71.87,15.82-73.65-12.51-97.26-5.1S100.78,889,89.78,870s23.71-209.66,31.48-220.51S139.59,634.82,150.6,628s.25-29,22.44-41.84S396.22,526.11,396.22,526.11Z"/>
  <g id="thinkahead">
    <g>
      <path class="cls-2" d="M623.71,792.58c-7.1,4.69-14,9.61-21.68,13.46-3.68,1.85-4.45,5.29-3.81,9.14.28,1.71,1.75,3.43-.58,5-2.68,1.85-14.33,1.4-16.62-1.12-.85-.93-1.51-1.13-2.17-.36-5,5.78-12.58,4.3-18.71,6.88a10.32,10.32,0,0,0-4.63,4.13A114.71,114.71,0,0,1,538,849.31c-2.3,2.1-4.31,3.84-7.76.7-4.06-3.69-8.88-2.14-13.11.6-9.95,6.42-19.74,13.11-29.84,19.28-5.45,3.34-11.14,6.26-17.12-.07-2.81-3-7.11-2-10.75-.58s-7.4,3.07-11.06,4.61c-.37-.66-.84-1.12-.75-1.41.94-3.06,1.75-7.61-1.48-8s-8.05-2.74-10.95,1-7.93,4.22-10.84,7.76a2.14,2.14,0,0,1-1.28.55c-11.29,1.56-11.32,1.5-21.18,8-2.35,1.55-3.82,2.93-6.3-.39-2.88-3.87-4.42,1.38-6.73,2-2.66.76-3.44,6.7-7.08,4-3.89-2.89.62-5.66,1.83-8.41a7.55,7.55,0,0,0,0-2c-5.39,1.81-9.55,5.26-14.16,7.85-2.27,1.28-4.86,4-6.85-.42-1.19-2.68-2.81-.74-4.11-.27-3.12,1.12-6.07,2.79-9.25,3.63s-7.38,1.87-6-4.06c.68-2.88-1-3-2.56-2.51-4.61,1.36-10.08.24-13.65,4.74-1.18,1.49-2.78,2.82-4.93,1.72s-1.17-3.18-1.59-4.88c-1.36-5.48,1.22-8.88,4.85-12.3,4.65-4.41,9.33-8.72,14.86-12,11.18-1.5,21.16-5.49,28.88-14.07,1.07-.75,2.9-1.08,2.77-2.66-.16-2.09-2.45-1.51-3.74-2.25a3.8,3.8,0,0,1-1.5-1.25C366,832.73,372.1,834,374,831c-1.31-1.36-3-.72-4.58-.84-4.59-.38-7-1.78-3.53-6.48.81-1.1,2.22-2.49.94-3.7-5.39-5.13-.34-6.37,2.94-8.29,1.21-.71,2.52-1.27,3.69-2.06,2.36-1.57,5-3.14,5.54-6.08.76-3.87-3.52-2.95-5.12-4.68a5.48,5.48,0,0,1-1.73-3c.3-2.86,3.28-3.18,4.7-4.93,1.85-2.29,6-4.13,2.1-8a1.44,1.44,0,0,1-.19-1.94c4.76-4.13,5.6-8.74,2.55-14.37-.74-1.38,1.28-2.85,2.23-4.18,4.84-6.79,3.84-10.74-3.6-14.68-3.45-1.82-8-2.31-9.15-7.06,1.37-4.8-3.71-7.45-3.95-11.72,2.9-3.61,3.26-6.7-.33-10.52-5.56-5.92-5.25-6.47,2.34-8.87,4.14-1.32,5.61-3.52,4.5-8-1.91-7.73,1.68-14.9,3.13-22.27.22-1.07,1.82-2,1.78-3-.29-9.33,6-16.51,8-25.1.26-1.18.43-2.5,1.45-3.14,6-3.74,5.22-8.77,3.16-14.34-1.86-5-.55-8.93,5.08-10.45,3.74-1,5.71-3.13,5.33-7.16-.46-5,1.6-8.74,5.67-11.5,3.45-2.33,4.5-5.4,4.54-9.68.09-8.78,3-17.12,7.24-24.7,2.36-4.19,4.2-7.84,2.25-12.57-1.74-4.25.47-6.5,4.09-8.42,15.27-8.14,29.65-6.38,43.34,3.59a53.82,53.82,0,0,0,9.22,5.37c5.58,2.56,10,6.24,12.67,11.91s7.36,9.24,12.8,11.91c16.84,8.26,33.63,15.95,53,17.36,12.59.92,22.88,9,31.19,18.5,5.8,6.63,11.62,13.14,18.59,18.57,2.87,2.23,5.53,5,5.38,8.82-.39,9.58,4.36,17.6,8.57,25.29,9.15,16.73,10.34,34.57,8.15,52.51-2.46,20-5.2,39.91-2.32,60.12C626.07,786.37,626.61,789.94,623.71,792.58Z"/>
      <path class="cls-3" d="M47.5,169.12c.19-1.49-.54-3.25,1.26-4.27,3.45-7.46,6.22-15.24,10.86-22.12,1.49-2.22,1.55-4.9,1.83-7.52,1.26-11.75,4-22.88,14.21-30.49,1.39-1,2.7-2.55,2-4.23-4-8.89,2-13.74,7.5-18.7,3-2.72,7.4-4,2.13-9.34-3.31-3.36,0-7.55,3.43-10.18,4.61-3.55,10.14-5.13,15.64-6.64,2.86-.78,4.41-1.59,3.7-5.32-2.48-13,4.59-22.15,17.8-23.65,6.75-.76,13.22.8,20.13,2.41-2.09-3.68-1.09-6.26,2.41-7.9a19.67,19.67,0,0,1,11.85-1.33c10,1.64,19.36,4.68,27.66,10.68,1.81,1.31,3.43,3.34,6.11,3,2.87-13.36-2.4-19.13-15.75-17a69.17,69.17,0,0,1-16.32.61c-2.18-.18-4.54-.79-5-3.26-.51-2.94,1.95-4.09,4.16-5,5-2,10.55-1.95,15.68-3.52,7.54-2.17,15.19-1.62,22.85-1,7-.91,10.45,5.59,15.87,8.06,4,1.82,5.44,1.3,8-1.79,5.59-6.71,15.12-7.6,20.68-1.49,4,4.35,6.08,4,8.75-.59.48-.82,1.51-1.11,2.37-1.5.86-.77,1.7-1.54,2.56-2.3,2-1.81,3.37-6.67,6.72-3.87,3.13,2.63-.92,5.15-2.53,7.46-2.17,7.17-6.81,12.92-11,18.87-2.59,3.64-5.62,7-6.71,11.89,4-4.48,10.42-5.8,13.93-10.75,1.65-2.33,3.16-4.57,6-3.87a104.77,104.77,0,0,0,37,2.23c1.12.81,2.07,1.63,3.7,1.66,20.85.38,35.66,12.78,50.34,25.4,8.13,17.7,24.16,28.87,36.14,43.38,13.55,16.43,20.87,35.76,27,55.75,3.95,12.86,3.36,26.06,3.55,39.22.54,4.92,1.13,9.84,1.61,14.76.29,3-.23,6.28-2.63,7.74-7.37,4.5-6.36,11.35-5.61,18,.44,3.9.36,7-2.14,10.55-2.59,3.68-3.12,8.32,3.06,10,2.67.72,2.91,2.76,3.27,4.87,1.26,7.56.38,15-1.22,22.41-.31,1.44-.6,2.68.34,3.88.49,0,1.11.19,1.35,0,2.11-1.94,2-7.44,5.6-6.08,5.06,1.92,3.24,7.67,3.8,12,2.35,5.13.64,9.91-1.25,14.68-5.51,9.4-6.88,20-7.23,30.44-.27,8.33-3.18,15.86-6,23.12-1.66,4.24-8.59,3.82-13.64,3.38-1.32-.11-3-2.47-3.89.42-.6,1.87-1.11,3.18,1.05,5.26,11.9,11.5,11.95,38.47.53,50-6.46,6.54-11.64,6.92-18.43.75-4.36-4-11.11-6.1-11.28-13.58-.51-2.26-1.57-4.46-1.27-6.83.26-2.13.91-4.49,3.28-4.88,2.68-.45,3.4,1.92,4,4,.46,1.57.28,3.27,1,4.78,1,2.12,1.9,4.27,3.78,5.81.75.62,1.49,1.25,2.25,1.87,7.5,5.25,10.75,4.24,14.67-3.85,3.15-6.54.86-13,.62-19.55,0-5.6-3.47-10.12-4.84-15.38-2.81,3.07-4.92,7-9.67,7.57-5.13-3.35-8.55-7.87-9.59-14-.39-4.15,1-8,2.47-11.72,6.9-17.55,4.9-34.25-4.21-50.5-1.37-2.46-2.72-2.78-5.07-2.21-3.17.77-6.22,2.65-9.66,1.2-2.66-3.84.48-5.12,3.06-6a74.16,74.16,0,0,1,7.31-1.89c-.86-.24-1.69.33-2.59.55-1.67.42-3.52.79-4.2-1.28-.77-2.35,1.19-3.29,2.85-4.22,2.48-1.39,5.75-.43,7.92-2.7,4.45-4.47,3.71-10.11,3-15.41A28.14,28.14,0,0,1,380,251.67c3.7-3.7,6.54-8.09,9.76-12.19,1.65-2.09,4-4,6.7-2.22s.48,4.13-.44,6.18c-1.71,3.83.55,11.63,4,13.79,2.57,1.62,2.44,3.73,1.33,6.16-.82,1.8-2.35,3.2-.71,5.76,8.72,13.61,8.49,14.56-4,26,2.64-1.58,4.74-2.95,7.36-3.38,6.77-1.12,10.08-8.46,5.39-13.18-3.29-3.3-3.35-6.27-2.85-10.15a53.25,53.25,0,0,0,.65-10.63c-.1-1.59-.11-4.4-1.58-4.33-7.93.38-4-5.22-4.88-8.59-1.58-6-2.28-11.29,2.48-16.5,2.24-2.45-.86-4.95-2.87-6.29-2.88-1.92-2.7,1.21-3.39,2.71-3.52,7.66-10.54,6.76-17.11,7-2.37-.71-4-2.39-5.73-4.06-1.3-1.29-1.83-4.34-4.89-1.58-.85.76-2.54-1.71-3.19-3.22-3.08-7.15-6.9-14-7.77-22-.74-6.79-3.44-9.23-10.24-9.08-4.07.09-6.57-1.48-9.09-4.34-4.54-5.16-9-10.22-12.26-16.43-2.48-4.74-5.84-9.13-12-10.2-2.76-.48-5.45-2-5.7-5.48,1.11-7.62,7-11.9,11.77-17,1.48-1.61,4.58-3.26,2.82-5.69-1.93-2.68-5.16-1.33-7.76-.2-2.82,1.24-3.88,3.89-4.91,6.58-2,5.24-2.95,10.9-6.11,15.71-6.19,4.48-7.61,4.31-11.7-1.34-.67-2.52-.12-5.19-.94-7.7-.15-.48-.43-.84-1.32-1.42-3.18,1.64-4.32,5.8-7.62,7.53-6.77,2.5-13.19,4.16-20.37,0a13,13,0,0,0-13.38.09c-5.22,3-11.12.68-15.68-3.12-3.25-2.71-5.6-3.37-10-1.44-6.89,3-14.26,2-20.79-2.62-1,2.3-1.37,5.67-5.17,5.47-3.16-.17-4.34-2.51-4.86-5.29a26.56,26.56,0,0,1-.18-5c.28-7.14,1.78-9.15,8.71-9.28,5-.09,6.93-2,6.93-6.72,0-2.85,1-5.64,1-8.44,0-3.29,3.16-8.12-.42-9.57-4.41-1.79-9.82-6-15-.36a8.88,8.88,0,0,1-5.81,2.43c-3,.29-6-.17-7.07-3.4-1.3-3.89,1.67-4.89,4.61-5.55A6.81,6.81,0,0,0,191.09,94c1.18-4.17,4.71-6.44,7.45-9.32,2-2.13,4.41-2.7,6.83-.42-2.82-4.19-5.11-8.77-9-12.25-2.71-2.41-5.74-3.87-9.07-2.14-8.38,4.35-17.79,4.78-26.69,6.86-10.91,2.55-17.17,8.8-19.92,18.88a104.49,104.49,0,0,0-4.13,26.59c-.07,7,11.34,18.74,16.66,16,7.05-3.58,16.27-2.12,21.56-9.44a12.48,12.48,0,0,1,4.36-3.6c1.59-.83,4.1-1.18,4.31.53.68,5.27,5.85,8.71,5.44,14.29-2.84,8.58-9.8,11.56-17.86,12.5a42.22,42.22,0,0,1-24.54-4.59,37.83,37.83,0,0,0-6.78-3.85c-9.9-3.77-14.29-11-14.1-21.46.21-11.2,2.66-22,5.28-34.07a231.73,231.73,0,0,0-38.53,26.77c.89,1.5,2.23,1.26,3.26,1.69,2.3,1,4.53,2.12,4.1,5s-3.15,3.22-5.51,3.42c-10.23.85-15.64,7.12-18.12,16.33-1.23,4.6-3,8.18-7.7,10.29s-5.74,7.3-8,11.42c-.76,1.42-.73,2.67,1.16,3.36,6.23,2.3,4.79,6.71,2.86,11.07-1.79,4.07-4.28,8-2,13.19,5.3-2.38,10.64-4.59,16.34-1.57,2.31,1.23,5.14,2.22,4.91,5.37-.22,3-3,2.39-5,2.65-1.27.16-2.36.61-2.38,2.09,0,2.84.56,5.7.17,8.51-.58,4.29,3.16,4,5.31,5.4a8.69,8.69,0,0,1,3,2.94c6.23,11.71,16.64,11.62,27.65,9.85,4.17-2.31,3.16-5.84,2.18-9.33a31.62,31.62,0,0,0-3.57-7.69c-4.37-9.47-6.36-19.56-7-29.82-.34-5.84,10.77-14.55,17.08-14.09,1.61.12,3.24.3,4.86.4.94.09-.39-1.29-.06-.4.1.25-.1.31-.56.34-3,.21-5.86-1.09-9.08.06-11.06,4-14.55,10.17-11.79,22,.75,3.22,2.22,6.25,2.41,9.62.13,2.36-.58,4.24-2.85,5.17s-4.21,0-5.72-1.67c-2.25-2.57-3.24-5.8-4.09-9-7.5-28.28,13.35-50,42-48.55A14.38,14.38,0,0,1,146.68,149c1.57,5.29-1.59,7.87-5.68,9.93-1.88.29-4.92.47-4.67-1.56.9-7.28-4.26-4.24-7.25-4.61-1.86-.24-3.74.48-5.55,1a34.4,34.4,0,0,0-9.21,4.13c7.18-.33,14.29-1.42,21.1,1.52,3.06,1.92,6.64,3.94,5.21,8.19-1.3,3.84-5.22,4.44-8.87,4.8-.47,0-1,0-1.42.08-2.84.49-7.22-1.22-7.92,2.61s3.2,5.91,6.38,7.63c6.91,3.73,9.85,7.95,8.52,13.08-1.62,6.2-6.51,8.64-12.35,8.84-5.67.19-5.7,2.49-3.67,6.7,3.51,7.28,6.37,14.63-1.34,21.33-1.69,1.47-1.13,3.49-.24,5.27,7.9,15.86,6.39,32.2,2.4,48.62a24.93,24.93,0,0,0-.36,12c.27,1.15,0,2.95.95,3.31,8.37,3.19,2.34,6.78.39,10.24-2,3.61-2.42,7.54-2.85,11.6-.89,8.26-4.32,15.27-11.86,19.68-2.59-1.51-4.11-4.67-8.47-2.73S93.44,339,93,335a44,44,0,0,1,.7-16.26c1.31-5,.7-8.87-4.58-10.93C78.55,303.68,77.4,295,78.8,285.59c2-13.7.4-27.42,1.24-41.36-5.89,3.14-6.15,3.36-6.2,9.73-.1,14.93,0,29.87-.07,44.8,0,4.89.64,11.31-6,11.78-6,.42-6.86-5.7-7.68-10.29a79,79,0,0,1-.87-25.43c1.21-8.15.51-15.57-5-22.69.94,8.51,1.85,16.56,3.43,24.53A65.47,65.47,0,0,1,59,290.77c-.18,9.11-2.31,10.6-11.06,7.42,3.83,6.28,8.68,11.29,15.68,14,1.9.73,4.66,1.27,4.21,4-.5,3-3.46,2.78-5.76,3a22.69,22.69,0,0,1-14.32-3.28c-3.64-2.2-5-.85-5.35,3.08C41.29,330.93,44,335,56,339c8.86,2.92,12.06,7.38,10.45,14.6A5.56,5.56,0,0,1,65,355.05a9.8,9.8,0,0,1-7.64.23c-3.93-1.33-5.73-.21-6.11,4-.36,4,.77,4.87,4.79,4,3.53-.75,6.1,2.07,6.59,5.23.93,6,4.4,10.31,8.3,14.52,1.38,1.49,3.66,3.41,2,5.45-1.93,2.33-4.33.36-7-1,.37,2.95,0,5.58.16,8.23,1,1.86,2,3.69,2.86,5.6.64,1.43,3.76,2.64,1.15,4.45-2,1.37-4.13-.05-5.52-1.72-3.4-4.07-4.5-9.11-5.71-14.11a31.69,31.69,0,0,0-1.46-3.9c-1.11-6.7-8.36-8-11.44-13-3.81-6-3.36-12.68-2.6-19.25a13.92,13.92,0,0,0-2.79-10.37c-6.85-9.91-9.75-20.87-6-32.86.22-.68.13-1.71.57-2,8.28-5.58,2.69-12,1.13-18.12-4.83-18.86-4.83-37.88-2.37-57,.3-2.33.34-4.7.5-7C36.35,212.39,36.78,198,47.56,187c2.93-3,5-6.28.11-10C45.09,175.05,46.6,171.81,47.5,169.12Z"/>
      <path class="cls-4" d="M231.17,872.58c-7.66,6.45-17.07,8.76-26.42,11.34a54.4,54.4,0,0,1-30.79-.33,1.89,1.89,0,0,0-1.39,0c-8.7,6.21-18.63,2.32-27.94,3.39-3.49-.66-6.77.51-10.12,1.11-7.83.84-15.67.6-23.37,3.56-6.25,2.4-3.18-4.24-4.65-6.59.4-3,2.21-1.6,3.42-.91,4.32,2.45,7.63.6,9.67-2.92,2.81-4.82,8.14-9.08,4.4-16-1-1.8.39-4.16,1.23-6.12,5.84-13.78,12.06-27.46,21.67-39,22.52-27.12,36.79-58.53,47.35-91.62,3.79-11.86,1.57-24.91.67-37.43-.54-7.55-2.26-15-2.11-22.6.06-3.15.39-6.57,4.26-7.25s5.17,2.42,6.39,6.09c4.93-5.73,8-12.24,12.68-17.51a47.65,47.65,0,0,1,3.75-4.28c2.62-2.33,5.23-1.87,7.65.26s1.36,4.27-.16,6.29c-6.15,8.13-12.89,15.83-18.39,24.42-1.55,2.42-5,5.08-1.27,8.48a4.34,4.34,0,0,1,2,2.15c.64,2.24-.53,4-1.51,5.87-1.12,2.12-2.11,4.25.2,6.27a5.17,5.17,0,0,1,1.48,2.5c.6,2.7-1.55,4.9-.74,8,8.8-17.85,23.11-31.37,36.24-46.68-8.39,4.1-12,12.7-19.69,16.44a2.54,2.54,0,0,1-1.94-2.1c.88-6.23,6-10,8.91-15,1.06-1.82,2.71-3.27,3.93-5,4.79-6.8,2.12-12.9-6.3-14.35-4.53-.78-6.86-4-8.38-7.85-1.06-2.67-1.8-4.4-5.55-3.16-3.93,1.31-6.76-3.26-10.86-3.41-2.53-.1-5.11-1.39-7.67-.53-6.06,2-9.35-1.1-10.49-6.27-2.18-9.79-8.22-17.55-12.78-26.07a14.56,14.56,0,0,1-1.46-9.6A97.82,97.82,0,0,0,172.7,553c.57-10.54,3.82-20.32,8.5-29.7,3.43-6.89,8.13-13.49,5.35-21.93a4.2,4.2,0,0,1,.43-2.77c4.9-11.74,5.27-24.4,7.42-36.7,3.25-13.38,10.26-17.95,21.45-14.22,4.3,1.43,6.86,4.25,7.36,8.6.65,5.61,1.23,11.3-1.34,16.68-.94,1.39-2.18,3.06-3.91,2.26-2.39-1.1-.88-3.12-.48-4.89.79-3.43,3.19-7.39-2.5-9.32,4.74,3.84,4.44,6.15.16,12.21-2.81,4-7.6,6.07-10.4,11,5.17-.83,7.79-7,13.22-4.05,1,3.48-.75,6.49-1.82,9.54-4.24,12.06-4.71,24.89-7.62,37.25-2,8.26,3.95,15.8,9.47,22,7,7.85,7.24,7.62-.8,14.76a23.87,23.87,0,0,0-5.45,5.31c-1.4,1.93-3.56,2.94-5.79,4.35a20.54,20.54,0,0,0,7.72-6.06C226,555.55,236.54,542,251.9,533.56c18.55-10.16,37.81-17.38,59.34-16.89a15.32,15.32,0,0,1,6.72,2.11c9.26,4.75,17.69,11.2,28.15,13.47,3.07.67,4.13,3,3.83,6-.35,3.5-2.42,5.46-5.83,6.26-9,2.13-18.11,3.89-27.41,3.86a32,32,0,0,0-13.83,2.77c-4.13,1.91-8.43,3.28-13.06,3-5.28-.33-9.05,2-12,6.22-4.4,6.24-9.12,12.16-16.32,15.52-1.73.81-3.71,2.13-3,4.28,1.2,3.58-1,5.53-2.91,8.06,12.95-9.16,27.24-15.57,41-23,2.51-1.37,5-2.78,7.88-3.11,7-.8,10.88,2.07,11.66,9.11.55,5,1.54,9.84,2.13,14.78.39,3.28-.46,6-4,6.28-21,1.87-31.17,19-44.64,31.4,7-4.88,12.33-11.62,18.71-17.21,7-6.09,13.87-12.22,24.21-12s14.41,2.63,18.19,12.45c1.94,5,1.53,10.28.79,15.46a5.78,5.78,0,0,1-6,5.19c-11.49-.42-16.32,8.48-22.26,15.56-3.95,4.7-6.65,10.37-10,15.57-2.82,4.42-3.11,8.84.08,13.26,6.32,8.74,7.51,18.56,4.39,28.49-5.27,16.81-5.78,34.56-10.87,51.41a60.47,60.47,0,0,1-7.36,16C264,791.51,249.93,815.89,243.85,844c-1.5,7-3.53,13.81-7.92,19.65-2.44,3.23-4.92,6.42-9,7.73C228.43,871.38,230,871.12,231.17,872.58Z"/>
      <path class="cls-2" d="M104.53,886.8c-1,6.19-6,8.05-10.87,8-7.11-.05-15.12-1.09-18.08-8.68-1.81-4.63-4.32-4.25-7.15-3.36-3.27,1-7.05.21-9.88,3.16-2.07,2.14-4.17.19-6.32-.93-7.1-3.72-7.75-3-10.77,4a17.67,17.67,0,0,1-8,8.54c-3.42,1.55-5.31-2.92-7.44-5.31-3.9-4.38-9.35-7.21-12.39-12.42a5,5,0,0,1-2.13-4.28c-.46-14.31-3.39-28.52-.22-43a205.34,205.34,0,0,0,4.33-43.65,57.53,57.53,0,0,1,2.76-16.74c.45-1.45.86-3.55,3.05-3.26,1.62.22,1.84,2,2.17,3.29.4,1.6.27,3.3.84,4.86,3.23,17.37,9.41,33.77,17.25,49.5,3.85,7.72,6.16,15.88,8.93,23.94a8.38,8.38,0,0,1,.44,4.19c-1.54,9.2,1.12,11.93,10.8,11.1a65.13,65.13,0,0,0-11.58-29.3c-11.1-16.08-17.33-34.26-22-52.89-2.81-11.17-2.23-22.59,4.63-32.82,3.24-4.85,5.42-10.3,4-16.15-3.78-15,3.33-26.14,12.55-36.59,8.94-10.11,20.17-17.3,31.88-23.59a119.14,119.14,0,0,0,28.44-21.16c9.6-9.68,19.92-18.27,31.85-24.87,5.83-3.23,10.46-8.13,16.2-11.48,3-.14,3.75,1.72,3.83,4.2-1,6.62-4.08,11.15-9.22,16.27a44.75,44.75,0,0,1-15.11,10.35c-2.71,1.12-3.32,3.85-2.17,6.69a11.31,11.31,0,0,0,3.61,5.22c6.35,4.46,10.31,9.15,3.38,16.37a3.65,3.65,0,0,0,.17,4.7c4.1,4.59,1.84,7.23-2.28,10.15-5.6,4-5.38,4.56,1.14,7.19,2.18.88,5.11,1.5,4.86,4.38s-3.18,3.09-5.45,3.71c-12.12,3.28-15.86,6.79-16.45,15.44a33.86,33.86,0,0,0-.12,10,9.76,9.76,0,0,1-1.68,4.61c-2.36,3.94-.8,6.68,2.59,8.91,3.15,2.08,6.55,3.78,9.58,6s3.12,4.58-.76,6.13c-2.41,1-5,1.4-7.33,2.62-2.78,1.47-6.52,3.8-5.59,6.57,2.11,6.29-1.36,7.67-5.75,10-3.8,2-2.87,6.15-1.3,9.5a49.27,49.27,0,0,0,13.94,17.61c2.13,1.72,5,3.11,4.39,6.65-2.31,3.29-5.66,2.92-8.85,2.16-3.51-.83-6.42-.23-8.93,2.32-3.13,1.73-3.7,4.82-4.19,8-.89,2.83-.12,5,2.54,6.44,1.51.85,3.77,1,3.7,3.55-9,3.94-9.54,6.78-2.53,14.62a22.56,22.56,0,0,0,4.73,4.21,5,5,0,0,1,1.27,1.54c1.26,6-1.41,11.11-4.24,15.92-3,5-5.94,10.17-10.23,14.31C104.34,884.24,103.15,885.26,104.53,886.8Z"/>
      <path class="cls-5" d="M220.18,473.86c1.37-3.59,1.41-7.34,1.41-11.13,0-11.71-1.19-13.25-11.58-14.33-7.32-.76-11,2.7-13.1,12.25a8,8,0,0,1-.95,1.89c-3.39.44-3.92-2-4.52-4.43.72-9.47,6.44-15.29,15.65-15.95,12.77-.92,19.58,3.21,21.47,13.46,1.39,7.55,1.26,15.09-1.88,22.34-1.51,3.48-2.62,7.1-3.81,10.7-1.56,4.68-.26,7.86,4.48,9.49a19.36,19.36,0,0,0,9.53,2.46c3.2,0,6.13.87,7.82,4,.42,1.82,0,3.12-2.7,3.52,3.41-.07,5.69-2.08,8.47-2.25,2.48-.15,5.25-1.2,6.08,2.52-2.66,6.42-9.23,4.5-13.94,6.54-3.52,1.25-7.07,2.36-10.87,2.32,2.3.51,4.6-.21,6.91,0a2.34,2.34,0,0,1,1.95,2c-.78,3.23-3.79,4.31-5.61,6.1a202.83,202.83,0,0,1,18.65-12.83A50.18,50.18,0,0,1,264,506.78c1.72-.71,3.73-1.82,4.94.39,1.55,2.79-1.62,4.44-2.28,7,4.61-1.51,8.24-4.58,12.49-6.4,2.25-1,4.4-3,7.13-1.08a4,4,0,0,1,.53,2.91c-1.87,4-6.06,4.85-8.92,7.08,3.5-1.92,7-4.36,10.73-6.55,2.47-1.46,5.9-3.43,6.09,2.3.08,2.46,2,1,2.89.92,5.48-.23,10.87-2.44,16.49-.56-.56-1.38-1.34-2.6-1.25-4.08.09-4.09,2.88-6.18,5.9-8.24,2.67-1.82,5.88-3.43,5.19-7.58-1-3.94-6.45-3.76-7.38-7.79,1.7-4.33,6.12-5,9.56-6.76,13.66-7.11,21.34-18.63,25.88-33.44-4.65,1-7.76,4-11.77,4.55-1.67.24-3.55.34-4.4-1.43-.72-1.5.55-2.6,1.61-3.56a151.16,151.16,0,0,1,14.87-7.86c-1-.55-1.89.18-2.8,0a3,3,0,0,1-3-2.22,3.79,3.79,0,0,1,2-3.52c9.7-6,9.63-16.28,12.28-25.7-3.32-.49-4.39,2-6.41,2.53a2.91,2.91,0,0,1-3.53-1.39,4.32,4.32,0,0,1-.12-2c2-3.89,5.91-5.74,9.35-8,2.41-1.55,4.55-3.11,5.49-5.9.74-1.81-.64-3.37-.65-5.1.39-2.68,2.67-4.14,3.95-6.24,1-1.63-.6-1-1.27-1.12a2.65,2.65,0,0,1-2.63-2.29c1.68-6.27,7.67-8.14,12-11.71,2.14,4.89,3.11,10.57,8.73,13.16.22,4.69-2.52,7.34-6.39,9.21-8.27.75-.19,3.71-.72,5.51.54,4.23,1.54,8.49-1.4,12.31-3.34-2.69.27-7.48-3.17-10.5-3.92,3.08-2.05,7.38-2.76,11-1.06.62-1.66-6.16-2.71-.4-2.14,11.68-6.41,22.68-9.92,33.92-4,12.88-5.06,26.16-5.49,39.44-.27,8.54,3.76,16,9.59,22.33,3.52,3.83,8.34,6.28,11.28,10.73,2,3,3.55.9,4.88-.71,2.44-2.94,4.85-5.75,8.77-6.9,8.9-2.61,14.31,1.75,11.45,10.41-2.39,7.24-.17,9.13,6.49,10.73,10.69,2.56,21.48,3.66,32.36,4.37,6.26.41,11.56,1.49,11,9.49-.15,2.22,1.05,3,2.91,3.12,7.85.58,13.09,6,19.19,10,9.89,6.39,19.22,12.8,27.51,21.78,11.07,12,27.66,17.15,43.53,18.93,22.45,2.52,39.61,12.23,54.42,28.63,7.67,8.5,15.34,16.71,20.39,27.06,4.54,13.87,12.42,26.64,13.93,41.53,1.77,24.79-1.93,49.43-2.06,74.17-.07,13.39,0,26.79,0,40.18-6.87-.72-3.82-6.89-5.06-10.85-.17-19.15-2.82-38.38.66-57.42C627.14,720,627,705,625,689.88c-1.51-11.6-9.27-20.59-13.09-31.23-.79-2.2-2.48-4.21-2.17-6.62,1-7.8-2.71-12.9-8.69-17.3-6.33-4.66-11.19-10.91-16.49-16.67-9.52-10.31-20.89-17.09-35.26-17.83-19.72-1-36.05-11.09-52.91-19.71a13.81,13.81,0,0,1-7-7.82c-2.18-6.76-7.41-9.8-13.24-13-9.68-5.26-18.17-12.78-29.85-13.88-9-.86-16.38,3.7-24.13,6.92-2.29,1-.2,2.76.46,4.13,2.58,5.29,1.11,9.54-2.1,14.42-4.77,7.26-7.9,15.6-7,24.56.39,4.1-.34,7-3.88,9-5.06,2.8-7.91,6.21-6.22,12.64,1.35,5.15-2.36,7.45-6.95,7.58-5.29.15-5.9,2.6-4.33,6.84a63.31,63.31,0,0,1,2.1,6.78c.39,1.57,1.06,4.41.56,4.67-7.15,3.67-4.79,12.88-10.25,17.25-3,2.39-4.2,4.8-3,8.54.86,2.77,1,5.85-1.06,8.13-3.29,3.58-3.09,7.39-3.69,11.93-.75,5.67-3.24,10.54-.53,16.65,1,2.36-2.45,4.84-5.48,5.46-2.23.45-4.54.55-7,.83,10.1,12.65,10.1,12.65,3.4,17.87-1.81,2.34-3.58,4.6.57,6.5,1.67.76,3.37,1.73,3.8,3.83,1.56,3.42,4.91,4.06,8,5.25,10.48,4,12,10.79,4.39,18.73-.87.9-3,1.33-1.31,3.07,6.73,7.09,2,11.15-4.08,14.61,2.1,3,3.87-1.69,5.73.28-1.89,6.08-5.37,10.78-11.37,13.36-1.48,1.14-3.7,0-5,1.68-1.86,4.18.42,9.26-2.89,13.11-3,4.64-8,6-12.82,7.73,1.41,4,6.64,3.09,8.47,6.51a7.06,7.06,0,0,1,1.51,6.22c-.23,2.18,1.55,2.8,2.93,3.71,1.58.67.76,3,2.43,3.55a1.34,1.34,0,0,1,1,.15,10.47,10.47,0,0,1,1.34,7c-6,10.3-17.68,10.81-27,15.4-2.25,1.12-2.91-.24-2.7-2.31,2.95-8,11.08-9.11,17.16-13,3.57-2.26,5.25-4.26-.21-6.26-3.64-1.33-6.29-3.5-4.88-8,.94-3-1.68-2.84-3.15-3.6-3.38-1.74-7.3-3.22-7.21-7.77.08-4.4,2.62-7.46,6.93-8.85,1.72-.79,3.24-1.94,5-2.66,3.09-1.25,4.09-3.28,3.21-6.74-1.94-7.67-1.08-9.53,6-12.66,3.21-1.42,5.22-2.38,3.58-6.59-1.27-3.24,1.84-4.85,4.31-6.41,2.17-1.36,6-1.47,5-5.66-2.3-2.15-5.31-2.89-8.12-4-4.8-1.83-8.23-5-5.21-10s6.86-1.2,10.19.64c1,.56,2,1.2,3,1.81,6.3-1.32,4-4.18,1.28-7.1-2.5-1.63-5.39-1.65-8.19-2.1-2.11-.34-4.65-.81-4.53-3.54.14-3.16-2.12-3.84-4.05-5.09-7.5-4.85-7.88-10-.23-14.45,5.62-3.25,4.59-5.26.25-8.11A21,21,0,0,1,358,716.7c-3-2.59-7.28-5.06-4.88-9.76,2.08-4.07,6.15-2.14,9.58-1.43,2.23.46,4.55,1.08,7.29-1-8.3-4.15-4.81-7.45-1.76-13.92,2.87-6.1,7-13.46,6.78-20.42-.15-5.8.18-10.11,4.6-13.72,1.62-1.33,1.81-2.27.33-4-4.5-5.2-1.25-7.75,3.71-8.74,4.13-.82,5-2.36,3.49-6.23a30.85,30.85,0,0,1-1.74-11.87c.08-2.89,1-5.49,4.13-5.71,5.84-.41,7.3-4.08,7.6-8.94.15-2.47,1.45-4.45,2.71-6.46,5.65-4.61,6.35-11.22,7.17-17.78,5.15-4.61,2.33-11.92,5.8-17.1,1.56-3.67,5.42-6.8,2.75-11.48-3.05-4.78-1-8.22,3.23-10.57,3.3-1.81,7-2.87,10.43-4.47,1.76-.82,4.34-.4,4.8-3.42.94-6.13,5.53-1.52,8.39-3.27-15.39-3.53-31.7-2.86-46.21-10.31a193.94,193.94,0,0,1-16.15,45.18c-8.22,16.5-14.63,33.86-20.6,51.39-9.55,28-10.81,29.2-38.58,38.84-8,2.77-16.68,3.36-25.35,7.16,11.33,13.47,7.43,28.13,3.78,43.11-3.35,13.74-3.15,28.17-7.92,41.73-1.57,4.47-2.82,8.93-5.42,13-9.66,15.17-18.39,30.89-26.73,46.82a113.85,113.85,0,0,0-10.63,29.3c-1.07,5.07-3,10-4.57,14.92-2.12,6.87-7.52,10.92-12.88,15-2-.09-4.1,1.11-7.07-.45,13.7-8.59,16.54-22.41,19.76-36.41,4.46-19.4,15.35-36.15,24.12-53.73,3.17-6.35,7.43-12,11.65-17.78,7.15-9.73,8.11-21.79,9.88-33,1.81-11.5,4.53-22.72,7.06-34,2-8.92.95-16.94-4.81-24.15-4.17-5.22-3.73-10.48-.19-15.75,6.19-9.25,11.72-19,19.87-26.81,2.38-2.28,4.67-3.76,7.93-4.07,10.84-1,15.05-10,9.31-19.73-7.23-12.2-17.49-14.2-29.95-6.3-9.38,5.94-16.21,14.54-24.19,22-2.64,2.45-6.11,7.21-9.15,4.19-2.43-2.42,3.09-4.92,5.25-7,6.3-6.1,11.88-12.91,18.76-18.47,7.21-5.82,14.71-10.39,24.34-10.1,3.56.11,3.57-1.45,2.85-4.44a73.56,73.56,0,0,1-1.86-13.31c-.48-9-6-12.76-13.79-8.25-13.37,7.69-28,13.15-40.27,22.74a14.53,14.53,0,0,1-3,1.88c-2.3,1-5.39,2.89-6.84.08-1.16-2.25,2.3-2.95,4-4,2.15-1.28,4.9-1.78.83-4.8-2.72-2,.22-4.44,2.32-5.28,8.88-3.56,14.3-10.7,19.58-18.06,2.51-3.49,5.69-5.52,10.24-5.29,2.82.13,6.17.58,8.42-.66,11.8-6.48,24.75-5.47,37.39-6.35,4-.28,7.18-3.22,11.58-2.69,2.1.25,3.35-3,3.56-5.53.17-2-.81-3-2.84-3.26-11-1.38-19.29-8.74-28.79-13.42-1.7-.84-3.18-2.21-5.2-2-11.05,1.34-22.81,0-33.05,4.35-20.43,8.76-40.73,18.36-54.67,36.78-2.94,3.88-7.53,5.61-10.1,9.61-3.84-3.16,1.1-4,1.61-6l7.59-8.19c-7.79-2.74-10.25-9.7-13.95-15.71-4.28-6.92-2.71-13.6-1-21,3-12.79,4.21-26,8.69-38.47C216.87,477.17,219.19,475.86,220.18,473.86Z"/>
      <path class="cls-5" d="M123.13,721.44c-1.79-6.88,4.24-14,13.66-16.22,3-.72,6.63.12,9.11-3.71-3.11-.93-5.94-2-8.86-2.57-1.93-.42-3.91-.52-4.22-2.93-.27-2.17,1.2-3.49,2.81-4.59,2.72-1.84,5.47-3.62,8.26-5.47-6.1-6.4-6.54-9.32-.61-15.15,3.36-3.3,1.94-4-.89-5.82a31.18,31.18,0,0,1-6.22-5.77c-6.44-7.36-4.52-12.76,5.09-15.26,2.87-.75,8.91,1.26,6.18-5.83-.2-.52,1.26-2.38,2.09-2.49,8-1.09,8.66-7.89,10.8-13.54,3.87,1.08,1.72,3.75,1.56,5.89,6,9.64-3.63,7.78-7.5,10.15,4.19,7.36,3.5,8.4-5,9.51-4.21.55-9.6-.5-11.77,4.54-1.22,2.84,7.6,10.46,12.58,11.05,3,.37,6.17.14,9.26.26,1.88.07,3.3,1,3.24,3-.05,1.6-1.42,2.19-2.94,2.56a74.77,74.77,0,0,0-10.92,3.05c-2.63,1.1-4.92,3.45-4.37,6.66.6,3.43,3.74,3,6.32,3.07.24,0,.48,0,.71,0,2.72.22,6.62-.75,6.9,3.11s-3.48,3.76-6.3,3.93a16.37,16.37,0,0,0-8,2.64c-1.08.71-2.92,1.34-2.09,3,.39.8,1.95,1.38,3,1.42,4.51.18,9,.11,13.54.13,1.75,0,3.55.32,4,2.19.61,2.41-1.3,3.27-3.17,3.93l-22,7.76c-3.18,2.69-7.66,3.47-10.26,7-.74,5.11,4.08,3.63,6,4.15,3.77,1,8,.35,12,.42,2,0,4.94-1.11,5.39,1.74.52,3.34-3,3.29-5,3.64-4.43.75-9,.84-13.2,2.62-1.31.55-2.86.73-3.93,1.57-5.84,4.56-5.36,9.24.92,13.31,9,5.85,17.83,11.94,29.48,10,1.77-.3,3.42.4,3.62,2.47s-1.26,2.74-3,3.28a33.72,33.72,0,0,1-17.57.68c-3-.67-5.9-1.65-8.81.16-2.18,3.21-8.09,2.2-8.47,7.45a58.57,58.57,0,0,0,22.31,10.38c2.24.55,6.07.54,4.9,4.45-.93,3.08-3.75,1.77-6.09,1.44a31.3,31.3,0,0,1-11.22-4.24A20.37,20.37,0,0,0,123.52,778c-8.46.16-10.18,2.56-5.76,9.54A61.51,61.51,0,0,0,141,809c4,2.12,6.67,1.27,9.65-2.42,19.3-23.95,29.63-52.16,38.53-80.93,3.39-11,1.61-22.63.8-34-1.57-21.76-4.88-43.21-12.07-64-1.83-5.28-1.64-11.23-3-16.72-1-3.93,1.15-10.07-6.33-10.44-1.52-.07-.19-1.92-.24-2.95-.48-8.76,3.84-17.48,1.4-26a50,50,0,0,1-1-24.78c-.47-2,.81-2.42,2.27-2.44a2.49,2.49,0,0,1,2.75,2.43c.26,2.27-.32,4.59.5,6.82,2.41,7.88,2.29,16.13,1.25,24-1.23,9.19-1.85,18.73,4.69,25,6.79,6.46,5.13,15.45,10,22,1.29,1.72,3.3,4.43,4.87,2.69,2.71-3,5.19-.58,7.66-1,3.06-.55,5.32,3.35,9.21.58,2.05-1.47,1.23,2.94,1.65,4.43,1.79.86,2.58-.25,3.21-1.15,3.34-4.74,5.23-2.09,5.68,1.52s2.36,6,4.44,8.48c1.2,1.41,3.43,2.83,5.07,1.81,9-5.54,5.67,1.8,5.82,5.54,1.82,1.48,4-2.32,5.55.26s-.79,3.9-1.92,5.51c-5.68,8.12-11.44,16.17-17.18,24.25-1.18,5.63-6,9.1-8.38,14a14.67,14.67,0,0,1-1.12,1.59c-2.58,2.34-3.63,6.32-7.65,7.12-4,.45-2.92-2.38-2.27-4.11a78.91,78.91,0,0,1,4.1-8.17c3.78-9.31,11-16.31,16.55-24.42,1.53-2.24,3.37-4.26,4.85-6.24-8.47,8.8-14.19,20.07-22.89,29-3.14,2.15-5,1.82-4.15-2.45.79-3.76,3-7,5.27-10,5.72-7.57,11.57-15,17.26-22.65.92-1.23,3.7-2.61.83-4.5-2-1.3-4.11-2.36-6.09.5-4.84,7-9.83,14-14.83,20.88-1,1.38-1.43,4-4,3-1.9-.76-1.69-2.85-1-4.37,1.51-3.31-1.3-3.89-3-4.13-3.19-.45-3.87,1.93-3.62,4.6,1,10.84,2.15,21.67,3.13,32.51.31,3.54.25,7.11.42,10.67.44,9.3-.27,18.16-4.73,26.84-3.86,7.53-6.14,15.89-8.89,24-7.89,23.08-22.71,42-36.82,61.34a161.55,161.55,0,0,0-21,39.41c-.71,1.9-3.49,4.94,1.57,5.59,1.08.13,1.21,1.62.77,2.37-3.1,5.24-5.7,11-9.71,15.42-3.32,3.69-8.31,3.13-12.47-.06-1,.19-1.8.57-2,1.72-1.26.18-2.64,2.16-3.67.5s.76-3,1.89-4.12A56.16,56.16,0,0,0,118,858.78c.6-2,1.35-4.06.7-6.24,6.43-8.55,10.73-18.38,16.37-27.41.77-1.84,3.54-3.2,2.23-5.42-1-1.71-3.44-.84-5.26-.91a21.11,21.11,0,0,0-7.61.87c-2,.69-4.28.07-6.72,1.28,2.48,3,5.55,5.3,7.82,8.26,1.74,2.27,3.73,4.7,2.26,7.73-1.64,3.38-5,3.11-8.1,2.93-1.65-.09-3.21-.85-5.14-.58-.07,5,8,7.39,4.29,13.4-5.87-1.74-12.82-10.44-12.41-16,.49-6.62,6-3.22,9.23-4.31,2.62-1.84.07-2.5-.83-3.46-2-2.1-5.34-3-5.7-6.48-.84-4-1-7.57,4.24-8.5,4.57-2.6,9.63-1.48,14.47-2.07,1.16-.14,4.81,2,3.92-2.27-7-6.68-14.81-12.71-19.18-21.69-4.53-9.3-2.38-13.42,7.82-15.4-4.85-8.63-2.26-11.66,16.2-18-3.5-2.15-6.43-4-9.37-5.75-10.06-6.13-10.36-7.23-4.61-17.13a4.69,4.69,0,0,1,.53-3.33C125.22,725.27,125.24,723.85,123.13,721.44Z"/>
      <path class="cls-6" d="M64.83,354.46c2.24-6.9-1.9-12.33-10.91-14.28-11.46-2.48-13.08-4.39-13.49-15.83,0-.47,0-1,0-1.42-.2-12.5-.19-12.52,11-7.3,5.1,2.39,10.25,2.26,15.78.48C55.83,312.49,48,305.82,44.64,294c4.64.29,7.09,6.91,11.11,3.71s2.18-9,1.3-13.39c-2.28-11.36-3.94-22.77-5.12-34.27a25.73,25.73,0,0,1,.33-3.75c7.51,8.67,11.2,17.25,9.05,28.21A61.35,61.35,0,0,0,62.93,304c.82,2.78,1.64,6.15,5.24,5.53,3.3-.58,3.69-3.84,3.68-6.86-.07-14.93-.08-29.86-.11-44.79,0-10.94,0-10.94,9.54-17.76,0,14.28,0,28.34,0,42.39,0,3.3-.67,6.6-.63,9.89.11,8.9,7,15.68,16.65,16.18-1,7.66-3.24,15.19-2.66,23,.22,2.89-1.29,6.71,2.54,8.11s4.91-2.78,7.31-4.72c2.86,2,2,5.78,4.12,7.89,1.23,3.16-1.77,6.13-.38,9.29.23,1.72-.2,3.53.61,5.19,1,2.24,3,3.79,4,6,.76,3.84,3.06,7.09,4.14,10.81,1.34,5.74,1.83,11.65,3.89,17.22-1,8.95,2.44,16.93,5.52,25,1.18,3.11,4.26,5.78,2.2,9.63-5.14,2.53-8.79-.05-12.32-3.45-1.92-1.85-2.54-5.12-5.86-5.47-1.86-2.31-.38-4.54.25-6.73a62.84,62.84,0,0,0,2.07-20.43,26.54,26.54,0,0,0-3.6-12.16c-5.68-9.93-12-10.91-20.35-3.19-8.05-.13-8.43.38-7.57,10.27-1.09,3-.61,7.13-5.15,8-3.55.22-7.06.54-10,2.89-2.08-3.53-1.88-7.52-2.8-11.5,4-.27,4.84,5,9.81,3.81-2.1-2.33-3.8-4.32-5.62-6.2-3.11-3.19-6.19-6.15-5.81-11.37a6.06,6.06,0,0,0-4.25-6c-3.15-1.07-3.8,1.85-5.67,3.89a13.2,13.2,0,0,1-2.53-7.92c.26-7.33,1.35-8.12,8.61-6.68,2.31.46,4.69.51,7,.75,1.28,1.1,1,3.13,2.46,4.72C68.11,356.19,65.8,355.75,64.83,354.46Z"/>
      <path class="cls-6" d="M178.77,5.37c-4.62,3.08-10.35,2.79-15.24,5-1.56.71-4.22.92-3.58,3.52.48,1.92,2.62,1.77,4.26,1.69,5.43-.25,10.83-.13,16.28-1.07,14.29-2.46,22.33,7.1,18.13,21-1.3,4.3-3.16,1.21-4.46.21-9.35-7.21-19.59-12.36-31.43-13.95a28.2,28.2,0,0,0-5.64-.41c-3.27.23-7.26.14-8.86,3.33s3.08,4.27,4,7.48c-7.29-1.81-14.19-4-21.52-3.83C115,28.74,108.1,38.09,113.2,53c1.28,3.72-1,3.44-3,3.77a54.56,54.56,0,0,0-16.73,5.68c-3.16,1.67-6.49,3.71-5.91,8,.54,4,4,4.81,8.34,5.26-5,4.62-10.7,7.3-14.38,12.18-2.79,3.7-6.83,7.17-1.19,12,2.71,2.32-.52,4-1.85,4.91-11.47,8.17-14.83,19.89-15.11,33.1a8.73,8.73,0,0,1-.94,4.06c-4.48,7.71-9.1,15.32-13.68,23,3.16-9.95,2.76-20.18,1.76-30.29-1.87-19.15,6-32.86,22.47-42,2.3-1.27,1.29-2.54,1.21-4-.18-3.78-.34-7.55-.49-11.33-.4-9.9,3.41-17.22,12.45-22a59.48,59.48,0,0,0,20.83-19c3-4.33,7.23-7.47,11.7-10.24C137.15,14.54,156,4.18,178.77,5.37Z"/>
      <path class="cls-7" d="M128.57,426a181.88,181.88,0,0,1-9.65-26.23c-.89-3.23-.92-5.82,1.4-8.26-.76-5.75,3.39-8.82,6.82-12.21a2.83,2.83,0,0,1,3.87-.33,3.41,3.41,0,0,1,1.07,4.41c-1.36,3.27-3.58,6.09-5.08,9.27-2.27,4.83-1.1,7.18,3.83,8.23,3.65-1.45,5.77-5.36,9.87-6,5,.81,3.31,3.55,1.56,6-2.61,3.62-6.55,6.11-8.64,10.27,4-2.53,6.83-6.4,10.56-9.22,2.19-1.66,4.87-2.81,7.12-.79,2.77,2.49.12,4.59-1.35,6.63-3.34,3.28-6.49,6.8-10,9.85-4,3.4-4.32,6.85-1,11.39,3.3-1.78,5.23-5.14,8.1-7.32a22.2,22.2,0,0,1,7.1-3.2c1.65-.51,3.34-.73,4.47,1s.13,3.25-.94,4.48c-4.44,5.08-9.27,9.83-14,15.75,3.23-.77,3.77-3.17,5.34-4.46,2.56-2.09,5.23-5.32,8.37-1.56,2.94,3.52,1.25,7.18-1.66,10.12-1.93,1.94-5.56,1.84-6.59,6.12,3.08-1.8,4.92-4.08,7-5.95,2.32-2.06,4.61-5.15,7.86-3,3.57,2.38.59,5.48-.47,8.83a38.28,38.28,0,0,0,4.85-2.6c2.43-1.28,5.12-2.35,7,.33,2.17,3-.61,4.74-2.56,6.34-3.35,2.77-7.51,4.55-10.13,8.21,3-2.18,5.72-4.81,8.89-6.82,4.71-3,7.42-1.87,8.58,3.58,1.25,5.9-1.85,11.54-1,17.54.29,2.13-2.51,3.14-4.92,2.86-1.88-.21-3.46-1.5-5.93-1.75,2.48,7.95,9.49,11.71,13.66,19,3.12-6.8,5.18-12.25,5.08-18.28s2-11.65,3.2-17.43c.3-1.37.87-2.77,2.75-2.64a4.62,4.62,0,0,0,3,4.48c-2,11.8-1.48,24.18-7,35.17-2,3.92,1.6,6.57.72,10a69.29,69.29,0,0,1-6,15.07,80.16,80.16,0,0,0-9.42,30.79c-1.73-1.71-.76-4-1.23-5.91-.75-3.08-2.33-3.08-4.29-.9a7.31,7.31,0,0,1,.18-7.5c6.35-9.76,6.24-21.84,11.79-31.84,1-1.81.5-2.85-.92-4.22-3.57-3.45-6.43-7.85-10.45-10.57A22.8,22.8,0,0,1,159.72,480c-2.39-8.09-7.57-14-13.42-19.55-6.72-6.32-8.34-15.29-12.42-23C131.9,433.75,130.33,429.8,128.57,426Z"/>
      <path class="cls-8" d="M157.47,617.85c-3.8,5.39-9.15,9-14.78,12a108.11,108.11,0,0,0-28.07,21.65c-13.94,15.12-32.39,23.87-49.19,34.93a71.86,71.86,0,0,0-26,29.45c-2.5,5.22-2.42,10.52-1.2,16,1.51,6.76,1,13.18-3.22,19-7.13,9.76-8.31,20.73-5.22,31.94,5.36,19.45,11.44,38.76,23.84,55.14,6.79,9,7.26,20.19,12.32,29.78-7.54,1.47-13.95,1.15-18.24-6-1.05-1.76-2.57-4-.77-4.86,4.9-2.37,2-5,1.13-7.92-6.34-21.62-18.91-40.91-23.65-63.11-.49-2.3-.79-4.64-1.18-7-1-8.79-2.71-17.63,2-26,3.44-6.8,8-13.24,6.75-21.52-2-20.8,9.43-35.48,24.82-45.71,24.32-16.16,48.4-32.26,69.9-52.22,7.81-7.25,18.26-11.68,27.51-17.4C156,615.49,157.54,615.18,157.47,617.85Z"/>
      <path class="cls-9" d="M27.51,752.67c-4.44,8.25-4.31,17.25-4.28,26.24-1.86-2.73-.42-6-2.57-9-2.08,36.66-12,72.73-7,109.89-.59,5.32-1.15,10.64-1.76,16-.2,1.69-.66,3.43-2.84,3.21-1.73-.17-1.95-1.88-2.1-3.21-.38-3.47-.59-7-.86-10.46-1.61-12.19-3.32-24.39-1.56-36.73,2.88-20.65,5.77-41.25,6.67-62.18.67-15.66,6.33-30.55,12.1-45.13,1.21-3.07,2.15-7.16,7.05-6.73,3.61,2.19,1,4.84.5,7.3C30,745.54,26.73,748.47,27.51,752.67Z"/>
      <path class="cls-10" d="M76,392.75q2.14-4.32,4.3-8.64c-.11-5.17,2.77-8.11,7.34-9.78,4.88-9.14,12.53-10.19,19.61-2.65,8.7,9.27,7.92,20.64,6.67,31.91-.5,4.56-2.34,9-3.57,13.44-6.8,15.74-13.57,17.19-26.33,5.66C74.8,414.33,72.06,404.11,76,392.75Z"/>
      <path class="cls-6" d="M303.24,26.68c-11.18,4.4-22.35,3.16-33.59.16-3.7-1-8.57-3.34-7.79,4.27.18,1.72-1.53,1.47-2.51,1.84-3.56,1.32-7.62,1.13-8.6,6.76-.51,3-5.47.8-8.42,2.15,5.89-12.29,14.1-22.73,21.72-33.55.87,4,4.14,2.07,6.33,2.4C283,12.63,294.77,16.26,303.24,26.68Z"/>
      <path class="cls-11" d="M424,192.09c-2.33-10.8-1.57-21.89-3.94-32.79-7.45-34.18-23.28-63-51.12-84.9-6.37-5-8.21-13.49-11.63-20.66,1.09.86,2.61,1.5,3.2,2.63,8.57,16.55,24.19,27.06,35.41,41.33,5.28,6.73,10.54,13.54,13.14,21.78,4,12.53,13.41,22.27,17.27,34.79,1.25,4.06,2.65,8.1,3.59,12.23.62,2.74,1.28,6.47-1.06,8.11C422.16,179.3,425,186.14,424,192.09Z"/>
      <path class="cls-6" d="M47.5,169.12c.33,3.82-.9,8.53,5.37,8.83,1.66.08,1.63,1.42,1.13,2.63a7.38,7.38,0,0,1-1.36,2.48c-11.57,11.51-14.31,26.55-16.87,41.68-.1.57-.89,1-1.36,1.55-4.4-2.65-5.23-7.12-5.5-11.61-.75-12.36,3-23.77,8.11-34.78C39.19,175.19,46,174.62,47.5,169.12Z"/>
      <path class="cls-6" d="M257.3,7l-2.83,4.86c-2.36,4.08-3.94,6.67-7.71.4-4.87-8.12-15.16-7.4-21.12.93-2.46,3.43-3.09,4.33-8,1.51-5.55-3.21-9.25-9.36-16.06-10.39q20.57-1,41.14-2A21.07,21.07,0,0,1,257.3,7Z"/>
      <path class="cls-12" d="M375.93,770.32c2.7,1.53,4.91,3.12.35,5.1-2,.84-4.1,1.31-6,2.3-3,1.58-4.57,4.16-1.35,6.64,5.05,3.89.84,3.88-1.69,4.86a72,72,0,0,0-7.83,3.3c-2.37,1.25-3.09,3.42-2.24,6.07,3.2,10,2.61,10.84-8.34,12.45a17,17,0,0,0,2.44-8c.16-13.24,7-22.18,18.49-28A16.88,16.88,0,0,0,375.93,770.32Z"/>
      <path class="cls-13" d="M630.84,689.08a59.41,59.41,0,0,0-7.63-19.29c-4.08-6.7-5.07-14.58-6.3-22.24C630.1,658.53,633,673,630.84,689.08Z"/>
      <path class="cls-14" d="M4.52,848.58c-.83,12.3,4,24.37,1.56,36.73-.14-5.58-5.14-9-5.92-14.8C-.94,862.32,3.88,856,4.52,848.58Z"/>
      <path class="cls-15" d="M157.47,617.85c-.58-1.49-2-1.41-3.23-1.75,5.53-1.11,4.76-8.77,11.37-10.63-3.36,7.84-1.2,15.46-3.72,22.51-1-1.85.38-4.3-1.56-5.89C159.83,620.37,161,617.57,157.47,617.85Z"/>
      <path class="cls-16" d="M27.51,752.67c-2.78-4.32.88-7.74,1.71-11.53.48-2.19,2.59-4.07,1.12-6.6.55-1,1.11-2.08,1.67-3.11C36.12,739.69,31.3,746.07,27.51,752.67Z"/>
      <path class="cls-6" d="M45.94,373c3.6,2,6.45,4.9,10.8,6s-.23,4.65.64,7C52.46,382.6,48,378.85,45.94,373Z"/>
      <path class="cls-17" d="M407,586.73c-.16,1.39-.83,3-.39,4.13,2.7,7.11-1.26,10.72-6.79,13.65Q403.45,595.62,407,586.73Z"/>
      <path class="cls-18" d="M430.15,304.84c-1-5,1.64-9.72,1.25-14.68C436,295.48,435.68,300.38,430.15,304.84Z"/>
      <path class="cls-19" d="M377,751.71c3,.51,6,1.41,4.75,5.2-.85,2.58-3.09,4.2-6,1.9C378.15,756.79,376.88,754.12,377,751.71Z"/>
      <path class="cls-20" d="M415.58,558.15c5.79,5.42,1.36,8.41-2.75,11.48C412.37,565.47,415.15,562.09,415.58,558.15Z"/>
      <path class="cls-21" d="M124.53,768.48c-3.27-3.08,0-4.42,1.83-5.46s4.41-1.36,6.64-2C131.7,765.23,127.11,765.72,124.53,768.48Z"/>
      <path class="cls-22" d="M134.51,888.11c2.45-1.23,4.83-2.59,7.34-3.65s2.59.88,2.78,2.54C141.66,891.05,137.89,887.78,134.51,888.11Z"/>
      <path class="cls-23" d="M127.13,717c2.11-4.25,5.28-7,10.26-7C135.39,714.4,130.88,715.15,127.13,717Z"/>
      <path class="cls-8" d="M484.92,843.76c.75-26.31-3.65-52.23-5.69-78.32-.53-6.67-1.19-13.3.47-19.79,3.4-13.31,7-26.59,10.81-39.78,1.82-6.25,5.87-11.28,10.48-15.88,12.78-12.71,25.92-25,36.58-39.76,7.36-10.18,18.34-13.79,30.58-13.94,1.77,0,4.42-.59,4.47,2.07,0,2-2.31,1.93-4,2-12.79.86-22.25,7-29.27,17.64-9,13.56-21.08,24.38-32.51,35.74a42.38,42.38,0,0,0-11.56,20c-2.43,9.41-4.92,18.81-7.78,28.09-3.78,12.25-1.32,24.45-.34,36.7,1.46,18.18,2.94,36.36,4.26,54.56.37,5.16,3,9.94,2.11,15.32-.44,2.68.68,5.5-3.89,5.92-4.76.44-3.12-3.16-3.91-5.06C485.07,847.65,485.17,845.63,484.92,843.76Z"/>
      <path class="cls-24" d="M350,816.87c5.11-1.54,10.44-2.64,14.16-7,3.43-1.39,7.19-2.14,10.15-5.55-2.74-2.63-6.4-4.62-7.18-8.74,2-2.56,3.87-.6,5.79.1a4.64,4.64,0,0,0,3.22,2.48c2.28.38,5,.29,5.58,3.33.64,3.28-1.57,5.27-3.74,7.12-3.81,3.24-8.47,5-13.59,7.65,2.13,1.66,6.3.74,5.73,4.61-.46,3-3.61,4.08-5.19,6.25.58.52.84.92,1.19,1,3.81,1.2,10.06-2.36,11.16,2.32.77,3.24-5.84,4.08-9.28,5.8-.38.18-.31,1.26-.44,1.92l-3.48-2.82c1.16-3.8-3-2.3-4-4,1.08-2,1.29-3.91-.11-5.82-1.54-.71,3.94-2.47-.46-2.82A11.74,11.74,0,0,1,350,816.87Z"/>
      <path class="cls-25" d="M371.56,740.39l-10.21-6.07a7.84,7.84,0,0,1,5.84-4.26C370.13,732.88,375.17,734.82,371.56,740.39Z"/>
      <path class="cls-26" d="M369.91,845.36c-3.79-1.7-1.37-4.59-1.34-7,2.65-.45,6-.84,6.67,2.17C376,843.85,373.12,845.27,369.91,845.36Z"/>
      <path class="cls-27" d="M355.87,880.09c.91-4.78,2.3-7.24,5.68-7.89.47-.09,1.72,1.08,1.71,1.66C363.18,878,359.05,877.23,355.87,880.09Z"/>
      <path class="cls-28" d="M379.4,866.67c.47,3.23,1.67,5.36-.88,6.57-.42.2-1.76-.63-2.07-1.27C375.3,869.58,377.59,869,379.4,866.67Z"/>
      <path class="cls-4" d="M131.55,402.42c-1.84,0-3.68,3.54-5.36.5s-3.86-6.17-1.77-9.83c1.87-3.27,4-6.39,6-9.6.74-1.2,1.64-2.62.18-3.78-2-1.55-3.08.34-3.91,1.57-2.25,3.3-4.25,6.77-6.36,10.18-4.87-4.76-3.35-11.23-4.57-17,5.64.24,4.56-5.33,6.59-8.07,1.69-2.29-.75-4.77-2.91-6.42-10-7.63-10-7.62.51-15.58.15-.11.2-.33.27-.44-5.21,1.57-7.45,7.65-13.06,8.71-2.57-3.73-.93-6.86,1.43-9.89,4.53-4.06,6.08-10.1,9.8-14.68,2.17-2.68-1.08-4.81-.44-7.35,1.52-6,3.28-11.79,9.15-16-4.36.15-6.73,0-7.47-5.61-1.07-8,1.36-15,2.66-22.33,2.46-13.9,2.06-27.34-5.26-39.92-.88-1.52-2.79-3,0-4.53,8.46-4.68,6.68-11.47,3.66-18.41-1.32-3-2.89-5.94-4.58-9.38a11.74,11.74,0,0,1,7.65-1.88c5.54.34,11.18-1.1,12.26-7.15,1-5.58-1.88-9.65-8.43-10.77-2.36-.41-4.46-3.32-6.32-5.42-1.52-1.72-3.26-3.87-2.16-6.36s3.87-2.31,6.24-2.37c2.13-.06,4.27,0,6.4-.13,3.08-.21,6.75-.28,7.7-3.79s-2.43-4.66-4.87-6.08c.32-4.07,4.31-.68,5.62-2.75,3.18-2,6.56-3.91,5.63-8.61a2.26,2.26,0,0,1,.15-2.94c7.61,2.6,15.23,5.24,23.46,4.34,7.81-.85,14.86-3.09,18.31-11.13.72-2.11,1.71-4.22,4.4-3.48,2.5.7,1.41,3.12,1.61,4.84.15,1.39-.15,2.83.45,4.18.5,2.53,1.55,5.1,4.57,3.81,3.76-1.61,1.67-5.37,2.13-9.77,4.2,6.1,9.45,7.48,15.65,7.55,3.69,0,6.44.87,9-3.12,2.26-3.52,5.73,0,6.78,1.65,3.11,4.95,8.42,4.8,12.81,6.74a2.77,2.77,0,0,0,3.73-1.15c4.13-7.85,10.06.58,14.76-1.69,2.13,5.19,6.61,3.13,10.4,3.49,3.24.32,5.94-1.32,8.93-1.81,4.06-1.88,7.76-1,11.26,1.48,2.4,7.74,6.23,4.49,10.05,1.3,2.3-1.07,4.17-.27,5.84,1.36-.11,2.74,1.84,3.95,3.95,4.21,9.1,1.13,12.88,7.59,16.34,14.95,2.84,6,8.33,10.2,12.61,15.23,1,1.18,2.37.82,3.87.66,8.81-.91,12.7,2.47,13.13,11,.46,9.05,6.14,16.2,8.74,24.64,2.24-1,.57-3.07,2-4.47L380,230.5c6.1,6.72,3.83,14,1.52,21.36a31.81,31.81,0,0,0-3.35,19.92c.78,5.64,1.33,11.44-4,15.59-2.6,1.79-4.55.12-6.57-1.19-5-4.27-8.92-9.35-16.62-10.73-4.5-.81-7.75-7.65-12.17-11.14-5.6-5.65-12.52-8.13-20.34-8.43-1.6.63-3.58-.13-5.1,1.41,3.21,2.07,5.49-2.24,8.43-1,5.76,1.75,11.8,2.91,16.25,7.49,1.54,3.34,7.53,4.57,4.78,10-5,2.59-9.63.5-14.14-1.47-12.75-5.59-23.68-3.19-32.8,7.34-1.82,2.09-3.14,4.77-6.23,5.4a1.77,1.77,0,0,1-1.61-1.05,11.35,11.35,0,0,1,2.14-8.61c2.84-3.73,3.93-7.62,5-12.16,1.54-6.73-1.13-4.39-4.19-2.94-3.88,3.72-9.18,6.09-11,11.74-6.81,14.15-9.57,29.13-9.27,44.79.59-10.43,9-15.33,15.27-21.8,3-1.16,6-.39,9,.12,3.86.66,7.5.43,10.6-2.34,6.33-.16,12.54,2.32,18.93.9a47.78,47.78,0,0,0,21.66,1.05c3.47-.66,6.48.66,9.38,2.34,1.46.64,2,2.24,3.26,3.09,5.22.25,10.89-5.36,14.53-2.48,3.38,2.67,3.83,9.21,6.4,13.75,7.25,12.81,4.6,25.92.69,39-1.34,4.5-3.14,8.87-3.51,13.61-1.83,5.82-9,6.18-11.55,11.26-3.34,5.56-8.51,9.24-12.89,12.86,5.41-2.62,9.38-8.44,15.58-11.05,1.13-1.06,1.83-2.84,4.18-2.3.33,5.19-3.93,7.54-6.69,10.78-2.06,4.13-6.2,6.09-9.41,9-2.15,2-5.25,3.17-5.5,6.66.38,1,1.58,1.72.77,3a5.45,5.45,0,0,0-.25,1.06c-.47,3.79-4.23,4.79-6.13,7.43,2.59-2.44,5.75-4,8.76-5.75,2.19-2.45,5.16-6.09,7.8-4.91,3.17,1.41.33,5.47-.19,8.24-.63,3.41.73,7.93-4.12,9.61a1.44,1.44,0,0,0-.55.4c5.51,10.87-7,8.69-9.81,13.48-8.11.27-12.64,5.88-18.09,12.58,2.79-2.23,4.51-3.75,6.93-3.57,1.35.29,2.83.46,2.64,2.42-.66.67-2,1.49-1.85,2,.47,2,2.3,1.18,3.41.9,4.76-1.2,8.45-5.05,14.24-5.89-4,22.07-18.18,34.5-37.27,42.73-7.68,4.55-15.6,8.32-24.65,9.48-14.5,1.84-28.8,5.47-43.58,4.45a15.09,15.09,0,0,0-5.52,1.14c-5.33,1.31-10.63,1.63-15.9-.31-7.7-1.45-8.88-3-6.81-9.85,3.24-10.71,8.75-20.87,6.44-32.77-2-10.23-6.57-13.63-19.5-13.42-7.58.13-13.48,6-14.43,14.45-2.18,5.77-3.91,11.75-3.87,17.87,0,8.3-3.16,15.55-5.56,23.34-8-6.8-16.22-17.82-18.21-24.39,3.12-.76,5.34,1.14,7.82,2.36,3,1.48,6.15.64,4.65-2.81-1.61-3.68-.47-6.1.58-9.17a13,13,0,0,0,.37-6.29c-.76-4.16-2.78-6.14-6.64-2.44a90.48,90.48,0,0,0-7.55,7.49c-1.55,1.87-2.68,2.37-4.58.72-2.27-2-.84-3.35.75-4.53,3.62-2.67,7.38-5.15,11-7.82,1.5-1.11,4.9-1.55,3-4.4-1.58-2.38-3.85-.46-5.65.53-2.49,1.37-4.89,2.89-8,4.71-.06-3.21.46-5.61,2.39-7.72,1-1.11,1.62-2.54.2-3.71s-2.59-.3-3.69.76c-2.91,2.79-5.79,5.62-8.83,8.26-1,.88-1.8,3.43-3.83,1.56a3.17,3.17,0,0,1-.16-4.54c1.36-1.58,1.34-4.14,4.73-4.32,5.46-.29,5.53-4.95,4.71-8.78-.75-3.45-3-2-4.63-.25-2.68,2.94-5.25,6-8.63,9.88,0-3.7-5.2-5.47,1.16-8.94,5.74-3.13,9.5-9.9,14.81-15.82-5.3-.56-8.37,1.94-11.78,3.2-1.25.56-1.81-.18-2.27-1.16-.25-3.27,2.33-4.89,4.12-6.95,1.63-1.88,3.31-3.66,0-5.47-.77-.68-1.35-1.42-.79-2.51.82-1.55,3.63-2.81,2-4.7-1.79-2.08-4-.33-5.57,1.09-3.52,3.19-6.84,6.58-10.34,9.77-1,.94-2,3.41-3.86,1.33-1.19-1.33-.88-3.13.51-4.48,3.4-3.31,6.91-6.51,10.2-9.92,1.85-1.91,3.49-4.18-1.32-4.21-1.44,1.16-2.5.61-3.37-.75-.55-3.83,3-5.68,3.89-8.9-3.11,4.8-9.31,7.31-9.91,14A2.54,2.54,0,0,1,131.55,402.42Z"/>
      <path class="cls-6" d="M146,146.35l-.15,2.94c-6.71-6.09-14.45-4.72-22.17-2.9-24.4,5.75-35.64,28.21-25.5,50.86,1,2.3,1.82,5.62,5.27,4.53,3.84-1.22,1.72-4.42,1.11-6.63-1.42-5.12-.54-10.44-1.48-15.47-2.22-11.88,9.16-16.59,19-15.14,3.52.51,6.81-1.11,11.29-.31-3.77,3.27-7.37,2-10.54,2.15-13.28.65-21,12.91-15.18,24.68,2.86,5.83-.2,13.29,5.3,18.31.56,6.23-1.83,12.52.4,18.71-8.41,2.72-16.31.48-24.15-2.48-2.3-.87-3.06-2.75-3.76-4.81-.94-2.78-2.63-6.32-5.18-6.33-7.49,0-5.5-5-5.63-9a4.21,4.21,0,0,0,0-.71c-1.2-6.37-2.29-12.65,8.51-8.53-5.22-7.88-9.24-8.05-23.39-1.7-.46-6.13-.64-12,3.14-17.28,1.48-2.09,2.75-4.65,1.31-7.33-1.79-3.33-4.77-.13-8.29-1.41,4.38-6.84,4.39-16.05,13.85-19,2.85-.9,3.13-3.07,3.72-5.43,2.92-11.69,8.38-20.71,22.36-20.36,1.18,0,2.49,0,2.81-1.51.36-1.76-1-2.45-2.23-3.19-2.38-1.44-5.13-.63-9.21-1.5,14.52-13.14,29.65-23.44,47.5-33-4.67,12.69-6.06,24.27-7.28,35.91-1.18,11.32,3.84,18.56,13.78,23.12A47.17,47.17,0,0,1,146,146.35Z"/>
      <path class="cls-6" d="M356.31,67.33c-3.65.6-6.21-3.42-10.74-.83C367.83,76.65,369,96,368.39,117.65c-2.14-3.63-2.82-6.25-2.73-9.09.1-3.38-2-5.72-3.69-8.25C345.21,76,322.59,71.05,296.93,83c-3.08,1.43-5.41,5.83-9.93,3.42a3.47,3.47,0,0,0-1,1.41c-3.45,12.72-7.42,25.33-8.25,38.6-.18,2.93,3.24,2.27,4.58,4.42-5.2,2.44-9.1,1.52-11.35-3.8-9.12-21.61-14.55-43.73-9.68-67.42.73-3.57,2.36-4.76,5.31-6.41,7-3.91,13.57-7.47,22.19-6.91,2.13.14,4.92-5.75,6.9-9.16.86-1.5,1.18-3.08,3.22-3.06,7.69.11,15.49-1.78,22.64,3.41,7.84,5.7,16.82,9.67,24.57,15.63C351.05,56.9,354,61.63,356.31,67.33Z"/>
      <path class="cls-6" d="M194.22,145.1c-.33-1.07-1-2.16-.94-3.2.45-6.33-2.08-5.33-5.52-2.34-.38-2,0-4.81-2.53-5.39-3.52-.81-3.1-2.61-2.17-5.07a2.51,2.51,0,0,0-.84-3.17c-1.24-.71-2.27.28-3,1.15-5.18,5.83-10.67,11-19.43,9.47-.4-.07-1.2.23-1.25.47-1.08,5.29-4.15,5.31-8,3-6.16-3.64-15.21-5.44-15.55-14-.53-13.43,1-26.91,7.35-39.26a19.61,19.61,0,0,1,11.43-10.07c11.67-4,24.32-4.3,35.65-9.81,3.79-1.85,6.47,1.76,9,4.23a30,30,0,0,1,9.09,17.57c-3.16-4.69-4.9-7.55-9.09-1.5-2.41,3.47-5.24,6.52-6.68,10.66-1,3-3.79,3.21-6.53,3.12-1.46,0-3.07,0-3.25,1.91s1.18,3,2.95,3.37a10.1,10.1,0,0,0,9.7-3.19c3-3.23,5.82-5,9.29-.69.42.52,1.24,1.19,1.75,1.1,10.24-1.82,6.47,4.85,5.89,9.59-.44,3.51-1.09,7-1.22,10.53-.23,5.85-.49,10.93-8.94,8.74-4.58-1.19-7.14,1.32-6.81,6.34A52.49,52.49,0,0,1,194.22,145.1Z"/>
      <path class="cls-6" d="M84.28,95.6c4.46-8.73,12.55-13.22,21.15-17,1.29-.57,2.7-.89,4-1.43s2.52-1.53,2.13-3.23a2.74,2.74,0,0,0-3.76-2.21c-4.83,1.44-9.15-1-15.77-1.2,8.68-6.63,17.42-7.59,25.7-9.17,4-.76,8.23-2,12.63-.75,2.26.66,5.26-.22,5.31-3.2s-2.82-3.18-5.28-3.35c-3-.22-6.37.9-9-1.19s-6-4.46-5-8.71c1-4.09,3.14-7.44,7.56-8.61,9.92-2.62,19.18-.33,28.25,3.68,3.87,1.72,7.3,4.6,11.75,4.85,2.11.11,4.46.4,5.7-1.92s-.33-4-1.92-5.51c-2.6-2.37-5.29-4.64-8.54-7.47,7.86-2.52,14,1.1,19.74,3.94S189.7,40,194.77,43.87c3.33,2.55,3.78,5.34-.8,7.51s-9.24,4.28-14.81,4.26c-13.09,0-23.27,7.08-33.11,14.7C132.8,80.61,116.92,85.8,102.07,93c-1.45.7-3.42,1.62-4.28-.59-3-7.67-6-3.14-9.08-.17C87.41,93.48,86.84,95.52,84.28,95.6Z"/>
      <path class="cls-6" d="M372.88,85.85c11.93,12.23,22.07,23.63,28.24,38a205.07,205.07,0,0,1,15.35,55.77,25.41,25.41,0,0,1,.49,4.21c-.09,1.74,1,4.25-1.48,4.91-3,.81-2.45-2-2.86-3.65-.44-1.84-1.55-3-3.46-2.92-2.28.11-3.06,1.76-3.52,3.79-1,4.35-1.59,8.83-4.13,12.71-.93,1.42-1.66,3-3.62,3-2.29,0-2.2-2.09-2.81-3.54-1.42-3.38-1.16-11.12-7.16-2.79-2.86-3-8.55.45-10.55-4.85-.7-1.85-2.23-3.52.21-4.73,13-6.43,9.8-18.24,9.19-28.69-.56-9.65-2.31-19.37-10.32-26.38-.85-.75-2.06-1.73-1.37-3,.91-1.65,2.37-.77,3.71-.35,2.17.68,5,4.27,6.44.37,1.35-3.57,8.89-6.7,1.88-11.75a5.94,5.94,0,0,1-1.76-2.73c7.26-6.47-1.43-8.13-3.7-11.17C378.34,97.58,373.08,94.49,372.88,85.85Z"/>
      <path class="cls-29" d="M326.21,123.72c6-3.63,13.24-6,11.92-14-1-6.06-6.71-6.48-13.19-6,4.57-3.88,8.32-7,12-10.23,1.4-1.21,2.66-.52,3.91.14a39.56,39.56,0,0,1,16.16,14.52c2.7,4.43,3.77,9.07-.24,13.54-1.41,1.59-2.31,3.1-1.58,5.68,1.13,4,1.6,8-5.14,7.72-4.32-.18-2.06,2.51-.69,4,4.22,4.64,1.86,7.74-2.44,10.14a23.86,23.86,0,0,1-12.26,3.08,96.33,96.33,0,0,0-9.9.46c-2.37.2-5,4-6.81,1-1.42-2.34,2.44-4.09,3.78-6.21s3.42-3.9,5.23-5.77C334.62,134,334.58,131.4,326.21,123.72Z"/>
      <path class="cls-29" d="M251.54,137.9c-5.56-3.12-3.54,3-5.37,4.39-1.64-.24-2.91-1.69-4.69-1.51-1.28-1-1.08-2.51-1.46-3.85-.56-2-.89-4.73-3.66-4.4-3.11.36-1.22,3.58-2.49,5.6-2.49-1.84-4.18-4.72-6.11-6.84-2.84-3.13-7.41-7.51-1-12.82,4.23-3.52,7.15-8.68,9.73-14.3,7.61,8.06,12.84.84,19.17-2.66,2.26,6.58,4.42,13,6.67,19.39,1.49,4.23,3.09,8.36,6.19,11.84s1.71,7.37.65,11.44c-4.39-.61-1.91-10.65-9.15-6.22C257.16,139.08,254.35,138,251.54,137.9Z"/>
      <path class="cls-11" d="M381.53,251.86c-.68-7.11,1.44-14.41-1.52-21.36,3.71-.48,7.45-.75,11.09-1.52,3.26-.69,4.65-3.34,4.43-6.42-.34-5,2.68-4.08,5.33-3.11s3.35,4.25,5.23,6.29c2.67,2.88-1.49,3.94-3.1,5.68-1.78,1.93-3.67,5.09-2.31,6.93,3.38,4.56,1.82,8.92.27,14.81,5.49-4.52,7-2.53,7.75,2.44.78,5.24-.24,10.27-.79,15.35-.24,2.18-1.15,3.77,1.66,5.17,6.45,3.24,2.85,9,2.55,13.61-.26,3.94-3.3,5.1-7.33,3.56-2.17-.83-3.82,1.44-5.74,2.24-2.26,1-3.17,4.29-7,3.54,2.37-5.32,7.17-8.08,10.51-12,2.41-2.84,5.4-5.59-.32-8-1.39-.57-2-1.19-1.18-2.52,3.33-5.68-1.17-6.1-4.74-6.85-.43-2.2,1.35-3.14,1.92-4.62.83-2.15,4.66-4,1.56-6.62-2.61-2.24-3.87,1.71-6.31,2.26.09-4.39,4.64-9.15-1.47-13.08-1.16-.75,1.51-4,2.91-5.92.78-1,2.59-2.09,1.09-3.49s-3.14-.16-4.22,1.1C388.3,243.45,386.31,248.79,381.53,251.86Z"/>
      <path class="cls-29" d="M246.62,23.1c-.05,3.67-11.31,18.86-14.75,20.13-2,.74-4.28,1.15-5.87,2.41-7.27,5.76-12.15-.07-17.29-3.53-2.87-1.94-.5-5.15.29-7.08,1.63-4,3.05-7.8,2.7-12.16-.11-1.45.31-3.23,1.75-3.56,2.15-.5,2.32,1.84,3.16,3.12a4.25,4.25,0,0,1,.56,1.29c.65,2.57,1.38,5.6,4.51,5.49s3.33-3.52,4.2-5.85a21.57,21.57,0,0,1,3.78-6.74c2.63-3,5.68-5.52,9.79-3.49S245.22,19.18,246.62,23.1Z"/>
      <path class="cls-29" d="M253.13,69.67c.13,6.77-.66,13.54,1,20.3,1,4.17-4.83,10.81-9.34,11.46-2.39.35-3-1.08-3-2.83a37.16,37.16,0,0,1,.75-5.52c1-6-1.43-7.41-6.71-5l.06.06c.11-6.8.58-13.58-2.09-20.15-1.77-4.36-2.78-9.09-10.57-8.92,9.59-7,18.79-9.1,28.29-10.29,2.17-.27,3.65,1.3,4.36,3.78-2.27,4.41-8.1,3.42-11,7.06C254,62.22,254,62.22,253.13,69.67Z"/>
      <path class="cls-29" d="M346.09,170c9.42,6.22,22,2.14,25.84-7.71,1.57-4-3.19-11.5-9.39-12.55-4.4-.75-4.45-2.36-4-5.74a91.49,91.49,0,0,0,.17-9.23c0-1.4-.11-3.18,1.65-3.51,2.29-.44,2.37,1.79,3.05,3.19.21.42.57.88.53,1.3-.92,9.68,2.8,7.55,7.37,2.86,2.37-2.43,3.44-1.15,4.7,1.11a34.14,34.14,0,0,1,3.89,13.53c.5,5.17.35,10.36,1.16,15.55,1,6.65-3.51,11.05-10.18,10.58-.9-.06-1.82-.79-2.15.51-1.32,5.16-5.55,3.62-8.8,3.62C355.26,183.49,347.05,175.48,346.09,170Z"/>
      <path class="cls-29" d="M105.36,272.37c-3.16-2.68-1.79-5.69-2.08-8.32s.49-6.46-3.7-6.27c-4,.19-3.39,3.85-3.44,6.61-.08,3.9,0,7.81,0,13.3-4.35-5.54-2.29-10.44-3-14.88-1.05-6.61,3.71-14.44-4.92-19.71-2-1.23-1.72-7,0-10s4.79-.06,7.06.44c10.84,2.37,10.82,2.53,10.8,14.19,0,7.55-.08,15.11-.15,22.67A10.36,10.36,0,0,1,105.36,272.37Z"/>
      <path class="cls-30" d="M401.21,385.74c1.17,6.95,2.34,14-.64,20.71-4.59,10.31-9.47,11.12-17.72,3.39-1.92-8.62,1.63-15.25,7.6-21C394.18,388.3,396.86,384.1,401.21,385.74Z"/>
      <path class="cls-31" d="M401.21,385.74c-3.24,1.5-6,4.15-9.95,3.93a2.44,2.44,0,0,1,.08-1.39c.77-2.55-.62-.48-.81-.33a17.5,17.5,0,0,0-5.18,8.3c-1.32,4-2,8.26-4,12-3.78,1-2.5-3-4.2-4.13q.12-7.08.23-14.15c-.3-1.57-.3-3,1.41-3.88l6.87-9,9.17-10.22C397.19,374,401.62,379.05,401.21,385.74Z"/>
      <path class="cls-32" d="M398.1,319.76c.29-6.95,11.64-7.81,6.81-16.94,3.4,3.49,11.34-3.58,10.37,5.4-.58,5.31,4.06,10.45,0,15.69-2.87,3.7-7.11,5.44-10.82,7.91-1.52,1-2.54-.64-3.53-1.55s-.83-2.12,0-3.14c.44-.54,1-1,1.51-1.49,1.92-2.21,7.57-2.72,4.79-7C404.81,314.87,401.42,318.86,398.1,319.76Z"/>
      <path class="cls-33" d="M310.13,154.94l-5.84-1.36c1.9-5.79,3.63-11.63,5.73-17.34a11.21,11.21,0,0,1,13.81-6.67c4.42,1.47,3.78,4,1.2,6.87C319.7,142.31,313,147.09,310.13,154.94Z"/>
      <path class="cls-32" d="M309.21,122.13c1.54-10.47,11.8-13.06,19.52-14,2.19-.27,4.45.13,5.11,2.74s-1.22,4.08-3,5.1C324.33,119.62,317.17,121,309.21,122.13Z"/>
      <path class="cls-34" d="M140.21,157.9c-1.14,2.41-4.44.43-5.61,2.75-8.1-2.58-16.24-1.47-24.63.16,4.38-7.4,22.74-13.47,28.89-9.7,2.92,1.79.9,3.48-.74,4.9-.71.61-1.84,1.16,0,1.71A9.9,9.9,0,0,0,140.21,157.9Z"/>
      <path class="cls-11" d="M291.71,97.09c2.67,1.4,5.69,2.2,7.49,4.13,2,2.17-1,3.63-2.29,5.07-3.66,4.08-4.89,9-5.66,14.22-.29,2-.71,4.73-3.6,4.35-2.61-.34-1.76-2.9-1.92-4.65a42.06,42.06,0,0,1,3.14-19.39C289.46,99.32,290,97.74,291.71,97.09Z"/>
      <path class="cls-32" d="M331.36,84.46c-9.29,2-17.95,4.75-25.54,10.27-1.34,1-2.78,2.06-4.52,1.67-2.66-.59-6.51-.26-7.17-3.29-.5-2.24,2.87-3.33,4.94-4.41C309.34,83.34,320.34,83.2,331.36,84.46Z"/>
      <path class="cls-32" d="M65.78,227.59c-3.14-4.55-5.33-8.18-8-11.44-3-3.67.42-5.76,1.88-8,1.86-2.82,3.05-6.83,7.19-7.22,2.43-.23,2.12,2.18,2,3.69A123.66,123.66,0,0,1,65.78,227.59Z"/>
      <path class="cls-35" d="M226.36,75.26c-4.75-2.17-7.82-3.28-11.23-2.8-4.11.58-6.74-1.7-8.69-4.87-1.35-2.19-3-4.65-1.47-7.26,2.15-3.76,3.87.86,5.6.56C221.16,59,222.28,67.47,226.36,75.26Z"/>
      <path class="cls-35" d="M370.73,190.31c2.62,3.81,8.73,5,9.5,8.81,1.41,7,7.23,11,9.66,17,.72,1.79.11,4.11-.72,6.5C381,213,373,203.36,370.73,190.31Z"/>
      <path class="cls-35" d="M185.92,8.26c4.24,0,7-.1,9.65,0,3.9.17,8.58-1.26,10.94,3.1s-1.11,7.84-2.2,12.36C198,14,198,14,185.92,8.26Z"/>
      <path class="cls-36" d="M62.32,249.34c-4.91-7.77-5.63-16.41-7.9-26.59C62.45,231.21,68.05,238.42,62.32,249.34Z"/>
      <path class="cls-32" d="M222.65,93.65c2.13,7.65,7.64,13.6.85,20-.82.78-2,1.92-2.81,1.79-1.55-.24-1.82-1.9-1.91-3.36A33.13,33.13,0,0,1,222.65,93.65Z"/>
      <path class="cls-37" d="M406.75,337.35c5.64,14.63,5.64,14.63-4.41,19C403,349.72,399.81,342.51,406.75,337.35Z"/>
      <path class="cls-38" d="M368.07,284.8c2.08.73,3.39,3.27,6.08,2.57-3,3-8.55,0-11.14,4.68,3.84,2.18,7-2.63,10.81-.6-4,5-12.41,1.83-15,8.66l-3.29-1.4C354.69,288.14,357.79,284.7,368.07,284.8Z"/>
      <path class="cls-39" d="M253.13,69.67c.82-6.05-2-8-7.75-7.23-1.47.2-3.73.83-4.39-1.17-.73-2.26,1.41-3.45,3-4.16,3.88-1.72,7.93-3.06,11.91-4.55A64.15,64.15,0,0,1,253.13,69.67Z"/>
      <path class="cls-40" d="M114.76,246.66a47,47,0,0,1,2.63,19.48c-.11,1.43-.22,3.21-1.84,3.4a3,3,0,0,1-3.17-3.11C112.15,260.28,110.76,254,114.76,246.66Z"/>
      <path class="cls-41" d="M113.34,228.08c-5.07-2.25-2.92-6.76-2.81-10.28.1-2.81.54-5.93,2.41-8.43,1.51,3.42,3.34,6.75,4.44,10.3C118.54,223.41,117.66,226.7,113.34,228.08Z"/>
      <path class="cls-42" d="M294.24,152.28,283,150.8c1.14-1.45,2.19-3,3.45-4.31,1.7-1.8,1.33-6.46,5.28-5,2.86,1.06,2.68,4.53,2.66,7.33C294.36,150,294.28,151.13,294.24,152.28Z"/>
      <path class="cls-43" d="M114.05,182.54c2.83.53,3.84,2.42,5.06,4.1,1.82,2.49,3.58,5,2.3,8.31-.43,1.1-1.46.94-2.37.57a8.67,8.67,0,0,1-5.81-7.26C113,186.46,112.73,184.54,114.05,182.54Z"/>
      <path class="cls-44" d="M381.38,408.28c1.07-4.81,1.6-9.83,3.36-14.37,1.9-4.91,4.55-9.88,11.81-9.39-.59,3.45-4.81,2.39-5.29,5.15-5.86,5.46-6.68,13-8.41,20.17Z"/>
      <path class="cls-45" d="M423.74,304.82c-1.73-1.63-3.43-3.21-6.29-3.77,3.86-4.24,7.14-8.44,9.15-13.62C425.33,293.14,426.38,299.15,423.74,304.82Z"/>
      <path class="cls-46" d="M46.66,260.13q1.88,10.8,3.74,21.58C46.07,275.11,43.89,268.05,46.66,260.13Z"/>
      <path class="cls-47" d="M310.65,105.49c-.58,5.09-3.36,8.25-5.8,11.92C301.43,109.55,302.17,108,310.65,105.49Z"/>
      <path class="cls-48" d="M74.13,237.56c-1.64-4.53-1.15-8.07,1.8-11,.67-.67,1.82-.18,2.43.67C79.44,228.77,77.79,233,74.13,237.56Z"/>
      <path class="cls-37" d="M298.88,114.54c0,3.41,4.55,6.72.37,9.94-.54.42-2.27.34-2.51-.07C294.48,120.66,296.74,117.62,298.88,114.54Z"/>
      <path class="cls-49" d="M251.54,137.9c2.83-2.87,5.64-1.2,8.45.06.11,2.15.08,5.06-2,5.4C254.37,143.94,253.42,140.09,251.54,137.9Z"/>
      <path class="cls-37" d="M416.72,340.67c-2.85-1.1-4.05-3.1-5.59-4.76C416.56,333.5,416.71,333.61,416.72,340.67Z"/>
      <path class="cls-50" d="M360.31,155.93c-3.18,2.25-6.42,4-11.11,3C352.88,156.06,356.35,155,360.31,155.93Z"/>
      <path class="cls-51" d="M102.7,293.51a18.47,18.47,0,0,1-.82-2.64c.29-2.85-1.32-6,1.22-8.48a1.34,1.34,0,0,1,1.23.25C106.41,286,103.43,288.54,102.7,293.51Z"/>
      <path class="cls-52" d="M241.48,140.78c2.71-3,3.89-1.35,4.69,1.52a24.32,24.32,0,0,1-.71,3C242.82,145.05,242.53,142.58,241.48,140.78Z"/>
      <path class="cls-36" d="M281.84,137.93c1.22.13,2.53.61,2,2-.42,1.13-1.64,2.65-2.62,2.73-1.86.16-1.34-1.95-1.58-3.07C279.29,137.93,280.72,138,281.84,137.93Z"/>
      <path class="cls-29" d="M235.86,88.08c.09,2.36-.34,4.52-2.28,6.17-1.53-3.53-1.53-3.53,2.34-6.11Z"/>
      <path class="cls-53" d="M258.43,676c1.08-.86,2.05-2.1,3.28-2.47,1.5-.46,3.62-.9,4.68.58s-.32,3.11-1.4,4.34c-4.73,5.33-9.69,10.46-14.2,16-6.47,7.89-12.7,16-18.87,24.09-1.39,1.83-4.1,3.47-1.59,6.7,1.82,2.35-.86,2.37-2.28,2.89-4,1.5-7.49,3.7-9.19,7.91-3.93-1.09-1.85-3.88-1.73-6.11,3.94-10.93,12.72-18.64,18.73-28.2C241.29,691.24,249.09,682.93,258.43,676Z"/>
      <path class="cls-54" d="M234.25,698.71c-6.5,5.62-10.73,13.18-16.59,19.34-1.19,1.25-2.33,3.85-4.42,2.63-2.65-1.53-.52-3.93.25-5.61,2.8-6.08,7.45-10.9,11.55-16.1,10-12.62,23.1-22.35,32.39-35.59,1.17-1.66,3.16-3.55,5.4-1.83,2.68,2.07.75,4.22-.69,6.1-1.68,2.21-4.56,3.49-5.15,6.57a6.05,6.05,0,0,1-2.23,4.28C247.22,684.53,242.58,693.48,234.25,698.71Z"/>
      <path class="cls-55" d="M225.91,678.93c6.82-7.09,13.41-14.44,21.93-20.57,1.43,4-1.07,5.56-2.59,7.38-12.16,14.5-26.13,27.61-34.37,45.1-.63,1.33-1.35,3.54-3.44,2.73-1.91-.73-1.48-2.87-1.08-4.4.64-2.51,1.66-4.93,2.52-7.38.82-4,3.38-6.95,5.64-10.1l-.06.09C218.35,687.56,220.49,681.79,225.91,678.93Z"/>
      <path class="cls-55" d="M257.11,710.05c-.61,2.63-2.28,4.92-4,7.2-7.29,9.85-15.49,19.09-20.49,30.48-.71,1.62-1.66,3-3.72,2.14s-1.73-2.71-1.43-4.29c.69-3.52,2.67-6.5,4.31-9.64,5.34-10.26,15.26-17.29,19.8-28.12a2.77,2.77,0,0,1,3.62-1.4C256.86,707,257.21,708.3,257.11,710.05Z"/>
      <path class="cls-56" d="M242.49,761.18c-2.8-10.71,5.39-17.55,8.07-26.24a3.19,3.19,0,0,1,3.06-2.5,2.5,2.5,0,0,1,2.48,2.07C258.47,742,250.44,757.59,242.49,761.18Z"/>
      <path class="cls-57" d="M220.18,473.86a7.41,7.41,0,0,1-3.09,5.93c-3,1.86-6,3.77-9.06,5.56-1.55.91-3.53,3.07-4.93,1.48-1.57-1.79-.9-4.8,1-6.32,3.58-2.79,7.21-5.2,10-9.1,1.53-2.13,3.53-3.59,3.07-6.4-.49-3-3.22-2.11-5.13-2.66a15.38,15.38,0,0,1-2.66-1.46c8.95-2.31,11.36-.15,9.53,7.91C218.12,472.51,218.14,472.58,220.18,473.86Z"/>
      <path class="cls-58" d="M187.28,566.48c3-1.71,6-3.48,9.07-5.09,1.27-.67,2.81-1,3.63.71.68,1.4-.62,2.16-1.44,2.87-1.24,1.08-2.69,1.91-4,2.95-.69.56-1.83,1.51-1.69,2,.43,1.35,6-.19,2.35,3.4-3.49,3.4-7.84,6-12.06,8.52-1.38.82-3.26-1.17-1.83-2.12,5-3.31,2.09-9.81,6.06-13.29Z"/>
      <path class="cls-59" d="M207.48,686.12c6.78-12.67,16.23-23.33,24.79-34.65l2.69,1.91-26,34.38C208.48,687.21,208,686.66,207.48,686.12Z"/>
      <path class="cls-60" d="M220.65,618.79a17.66,17.66,0,0,1,1.7-2.06c4-3.7,8-7.4,12.06-11,1.28-1.13,2.89-2,4.37-.34,1.19,1.34.32,2.69-.58,3.81-3.25,4.07-6.5,8.14-9.87,12.12-.86,1-3.37,2.21-3.38,1.26C224.91,619.29,221.37,621,220.65,618.79Z"/>
      <path class="cls-61" d="M180.5,558.83c-.48-.39-1.4-.81-1.38-1.19a3.56,3.56,0,0,1,.87-2.45q8.4-6.5,17-12.76a2.68,2.68,0,0,1,3.84.41c.85,1.11.21,2.36-.77,3.06q-8.31,6-16.74,11.82A13.72,13.72,0,0,1,180.5,558.83Z"/>
      <path class="cls-62" d="M187.41,566.38c-1.76-.15-3.69,2.34-5.16.23s.65-3.46,2-4.69q4.89-4.59,10-8.94c1.4-1.19,3.23-2.71,4.9-.65s-.14,3.31-1.72,4.46a42.31,42.31,0,0,0-10.11,9.69Z"/>
      <path class="cls-63" d="M234.25,698.71C241,689.79,249,682,257,674.22l1.43,1.73-22.57,25.68A3.08,3.08,0,0,0,234.25,698.71Z"/>
      <path class="cls-64" d="M197.61,584.76c2.24,0,4.11.41,3.21,2.17-2.21,4.35-6.29,6.79-10.73,8.44-1.56.57-2.54-.57-2.55-2.33C187.52,588.28,192.21,584.67,197.61,584.76Z"/>
      <path class="cls-65" d="M185.27,544.91c-3.06-.84-2.52-2.62-1.42-3.85A37.73,37.73,0,0,1,197,531.51c1.81-.79,4.27.92,3,2C195.41,537.81,190.11,541.29,185.27,544.91Z"/>
      <path class="cls-66" d="M217.13,729.83c.56,2-.52,4.54,1.73,6.11-2.93,4.86-7.17,8.2-13.1,11.71C207,739,216.8,737.38,217.13,729.83Z"/>
      <path class="cls-67" d="M215.73,563.16c.41,2.24-3.82,3.23-1.61,6-3,3.91-7.41,5.93-11,9l-1.59-1.78Z"/>
      <path class="cls-68" d="M225.91,678.93c-3.65,4.43-6.54,9.54-11.45,12.85,1.68-5.9,6-10,9.83-14.45Z"/>
      <path class="cls-68" d="M214.52,691.69c-.73,4-3.43,6.92-5.64,10.1L207.14,700C209.67,697.32,210.9,693.45,214.52,691.69Z"/>
      <path class="cls-69" d="M109.13,822.46c4.09,3.11,8.64,5.75,12.13,11.56l-5.59-1.62C111.94,830.1,104.09,830.5,109.13,822.46Z"/>
      <path class="cls-70" d="M131.76,809.62a4.2,4.2,0,0,1,3.15,3c-7.38-.38-14.3,2.3-21.54,1.33,2-4,5.27-5,9.25-3.57C125.85,811.51,128.88,811.84,131.76,809.62Z"/>
      <path class="cls-71" d="M94.05,888c-5.27.42-10.09.93-12.91-4.54C85.17,885.31,91.07,881.54,94.05,888Z"/>
      <path class="cls-72" d="M123.13,721.44l7.16,3.62c-3.17,2-7.29,2.25-7.67,6.58C121.45,728.17,120.8,724.73,123.13,721.44Z"/>
      <path class="cls-73" d="M296.4,660.21c2.84-4.87,6.05-9.56,8.42-14.65,3.17-6.84,8-10.5,15.58-11.6,20.6-3,18.17-10.19,13.37-28.57-1.63-6.23-5.21-12.07-9.72-17.18-2.36-2.68-3.75-4.72,1.2-8.85,18.23-15.22,38-29.39,47.67-52.6,2.64-6.32,8.3-10.88,12.83-16,1.79-2,4.49-3.62,7-2.12,2.66,1.61.38,4.33,0,6.48-5.06,29.09-19.47,54.7-30.77,81.45-5.91,14-9.52,28.8-15.89,42.62-1.6,3.49-3.46,5.58-7.15,7-11.66,4.55-22.56,11.05-35.23,13C301.21,659.51,298.89,661,296.4,660.21Z"/>
      <path class="cls-57" d="M243,498.17c5.94-3.34,12.46-1.51,18.65-1.67,13.49-.35,26.47-3.9,39.63-6,5.06-.82,9.64-5.69,15.65-5.58,3.37,1.95,7.13,3.46,8.82,7.41a2.81,2.81,0,0,1-.55,1.26c-2.41,3-7.95,1.3-9.23,5.08-1.72,5.1-6.8,5.13-9.87,8-4.17,2.56-8.33,4.5-12.3-.33-1.66-5.44-5-1.46-7.64-1.33-3.55.23-7-.89-10.52-.83-2.69-.46-5-1.07-8.05.15-7.91,3.19-15.74.74-23.27-2.28C242.75,501.41,241.64,500.09,243,498.17Z"/>
      <path class="cls-74" d="M340.08,549.41c10.69-3.3,11.89-4.76,12.65-16.5.14-2.27.5-4.23,3-3.08,3.93,1.78,5.05-1.26,6.75-3.3,1.22-1.46,2.32-3.22,1-5.16s-3.25-1.32-5.1-.64a4.76,4.76,0,0,1-4.51-.21c1.37-3.4,2.77-6.9,4.38-10.93h-8.08c2.62-4.86,5-6.72,8.74-1.87a18.61,18.61,0,0,0,2.22,1.75c3.31,3.06,10.12,3.63,10.39,7.68.23,3.49-4.53,7.25-7,11-5.46,8.3-10.53,16.87-17.44,24.12a12.73,12.73,0,0,1-6.72.68C337.32,552.27,338.15,550.79,340.08,549.41Z"/>
      <path class="cls-75" d="M294.38,505.24c3.95,4.6,7.67,1.57,11.41-.36,3.06.51,6.14,1,8.33,3.53.46,1.72.92,3.45,1.37,5.17q-12,.84-23.86,1.71c-.6-2.48,3.29-2.62,1.62-5.36-7.33,2-12.38,9.41-21.24,8.54l14.15-8.91C287.82,506.07,290.47,504.47,294.38,505.24Z"/>
      <path class="cls-76" d="M243,498.17c4.36,4.66,18.11,8.11,23.86,4.69,3.65-2.17,6.14-1.21,9.23-.23-.84,3.3-3.77,2.83-6.1,3.21-2,.33-4.19-.3-5.52,1.86l-10,6.11c-3.56-.48-5.56,2.49-8.32,3.76-1.93.88-3.46,3.42-6.12,1.64l-1.24-1.06c-1.37-2.81,2.83-2.52,2.62-4.68,4.53-2.73,11.09-.25,14.61-5.62.17-.16.31-.41.51-.47.68-.22.84-.76.25-.92-4.07-1.09-8.35-.2-12.45-1.18a11.41,11.41,0,0,0-8.87-2.9c-3,.26-6-.21-8.17-2.73C232.57,499.26,237.93,500,243,498.17Z"/>
      <path class="cls-77" d="M264.51,507.7c2.19-5.53,8.27-2.18,11.61-5.07,3.8-1.26,7.3.73,10.95,1,.95-.3,1.78-.18,1.62,1-.21,1.59-1.55,1.89-2.88,2.07-7.82,2.57-14.37,7.8-22,11-1.65-4.19,1.95-5.19,3.53-7.25.7-.92,1.95-1.78,1-3C267.08,505.85,265.79,507.62,264.51,507.7Z"/>
      <path class="cls-52" d="M346.79,477.4c.22,7.15.47,14.33,3.85,21,1.56,3.07-2.34,2.71-3.64,4-.85.82-2.38,2.14-3.55.47a3.47,3.47,0,0,1,.34-4.55c1.46-1.6,3-3.24.95-5.41-1.52-1.58-2.9-2.27-4.83,0-1.05,1.22-2.24-1.45-2.2-1.47,5.2-3.25,1-11.4,7.27-13.95A6.27,6.27,0,0,1,346.79,477.4Z"/>
      <path class="cls-67" d="M335.55,443.88c-3.34.17-4.38,3.08-6.22,5.09a2,2,0,0,1-3.09.09c-.73-.81-.12-1.64.44-2.43a72,72,0,0,1,13.65-14c3.19-2.61,4.21,2.35,6.63,1.09a3,3,0,0,0,3,1.7C346.89,441.25,341.36,442.8,335.55,443.88Z"/>
      <path class="cls-78" d="M314.12,508.41c-3.47.47-6.47-.19-8.33-3.53,7.41-3,11-12.08,20-12.58,1.41,5-2,7.26-5.56,9.21C317.3,503.12,314.58,504.71,314.12,508.41Z"/>
      <path class="cls-79" d="M340.08,549.41c.07.84-2.26,3.21.73,2.13,2.59-.93,4.36-.75,6.35.69-3.82,6.72-10.09,8.48-17.23,8.49-1.55-1.52-1.42-3.32-.89-5.2s3-2.06,3.75-3.81A10.16,10.16,0,0,1,340.08,549.41Z"/>
      <path class="cls-80" d="M367.11,795.59c3,3,5.3,7,10.74,7.27-3.91,3.93-6.79,9.16-13.71,7,1.66-3.46,2.28-7,.69-10.67C363.86,797,365.83,796.47,367.11,795.59Z"/>
      <path class="cls-81" d="M368.1,377a52.53,52.53,0,0,1-19,14.77l-1.47-1.7,17.79-14.88A2.88,2.88,0,0,0,368.1,377Z"/>
      <path class="cls-82" d="M348.51,402.7c-2.57-2-.4-3.22.81-4.36,5-4.76,10.23-9.34,16.27-12.83.24,1.61,4.33,1.75,1.71,4.45C361.21,394.45,356.22,400.57,348.51,402.7Z"/>
      <path class="cls-83" d="M330.91,554.79a10.13,10.13,0,0,0-1,5.93c-2.89,2.28-6.61,3.56-8.55,7-1.7,1.06-2-.55-2.67-1.41,1-2.69-5.12-3.87-1.54-7.13a8.68,8.68,0,0,0,7-2.38C326,555.1,327.91,552.94,330.91,554.79Z"/>
      <path class="cls-84" d="M240.06,519.21c3.88-.59,6.25-4,9.73-5.27,1.5-.55,3.08-2.84,4.71-.13l-23.09,15.34C233,524.35,236.93,522.17,240.06,519.21Z"/>
      <path class="cls-85" d="M348.51,402.7c5.15-4,10.27-8,15.46-11.86.91-.69,1.71-2.58,3.33-.88-.06,6-5.58,6.73-9.06,9.41-2.19,1.69-4.52,3.21-6.79,4.81C350.81,403,349.65,402.87,348.51,402.7Z"/>
      <path class="cls-86" d="M335.55,443.88c5.09-2.3,10.09-4.75,14.36-8.44,1.94-.18,4.07-3.38,5.36-1.34,1.68,2.67-1.37,3.79-3.54,4.79-4.45,2.05-8.86,4.18-13.29,6.28Z"/>
      <path class="cls-87" d="M323.13,550.64c-6.61,5-12.71,4.9-19.35,4.27C309,549.07,315.47,550.71,323.13,550.64Z"/>
      <path class="cls-88" d="M244.36,505.28c5.23-3.85,10.41,1.82,16.19-.61-1,2.93-2.72,3.09-4.5,3.18-5-2.42-9.23,2.39-14.57,1.46C242.51,507.86,243.43,506.57,244.36,505.28Z"/>
      <path class="cls-89" d="M350,816.87c4.72,2,8.59,6.42,14.89,4-.93,3.31-3.18,3.69-4.88,4.73-2.33-2.21-5.42-2.82-8.29-3.88C349.08,820.77,347.14,819.71,350,816.87Z"/>
      <path class="cls-90" d="M353.83,406.92c-2.21,3.69-6,5.71-9,8.6-.73.7-1.88,1.73-3,.57s-.39-2.31.45-3.08c2.92-2.66,6-5.19,8.95-7.77A2.77,2.77,0,0,0,353.83,406.92Z"/>
      <path class="cls-91" d="M330.91,554.79c-3.48,0-5.19,2.76-7.2,4.85-2.54,2.64-4.55,2.38-6.54-.46,4.92-3.08,9.36-7.17,15.62-7.46A3.41,3.41,0,0,1,330.91,554.79Z"/>
      <path class="cls-92" d="M328.15,513.06c3.49-3.92,6.42-8.56,12.07-10.94C337.32,508.32,334.51,511,328.15,513.06Z"/>
      <path class="cls-93" d="M285.81,506.7c-.26-1.3,3.09-1.14,1.26-3.09a8.36,8.36,0,0,1,5.58-2.62c4.47-.38,3.07,2,1.73,4.25l-8.22,4.32C286,508.61,285.93,507.66,285.81,506.7Z"/>
      <path class="cls-94" d="M241.44,513.47c2.38,3.37-2.64,2.62-2.62,4.68-4.46,1.46-4.46,1.46-11.45-.89l7.22-2Z"/>
      <path class="cls-95" d="M291.87,557l-11.06,8.1C282.62,557.42,283.4,556.79,291.87,557Z"/>
      <path class="cls-96" d="M336.83,520.18c4.69-6.32,9.2-8.72,15.62-8.65C348.35,515.7,343.45,517.18,336.83,520.18Z"/>
      <path class="cls-88" d="M239.16,538.28c-2,4-5.15,5.37-7.43,7.55-1.09,1-2.56,2.77-3.81.19-.8-1.66-.61-3.55,1.67-3.67C232.91,542.17,234.82,539.28,239.16,538.28Z"/>
      <path class="cls-79" d="M318.71,566.31l2.67,1.42c4.17,2.79,6.45-2.55,10.43-2.26-1.33,5.18-5.55,5.3-9.52,5.6C318.8,571.34,319.09,568.51,318.71,566.31Z"/>
      <path class="cls-3" d="M378.82,386.12,377.41,390c-1.66-.61-3.74,2-5-.55a2.86,2.86,0,0,1,.75-2.51C374.76,385.43,376.46,383,378.82,386.12Z"/>
      <path class="cls-88" d="M325.49,502.55c3.52-4.67,6.64-6.79,12-7.44A22,22,0,0,1,325.49,502.55Z"/>
      <path class="cls-97" d="M360.1,831.43h7.09c.84,3-2.31,2.52-3.12,4C361.8,835,359.45,834.72,360.1,831.43Z"/>
      <path class="cls-98" d="M212.71,527.53c2,.75,4.28,1.23,2.85,4.17-.37.76-1.14,2-1.87,1.31A4.2,4.2,0,0,1,212.71,527.53Z"/>
      <path class="cls-99" d="M136.25,825.73c-4.35,8.24-8.8,16.43-13,24.76-1.13,2.25-2.68,2.2-4.58,2l.14.15c1.3-5.33-4.11-6.94-5.9-10.57-.8-1.62-2.81-3.18-1.49-5,1-1.35,3.12-.58,4.72-.2,3.48.83,7.82,4,10.09-.36,1.94-3.77-2.19-6.82-4.69-9.52s-5.38-5-9-8.24l12.28-.75a14.41,14.41,0,0,1,4.85-.33C136.21,817.83,136.88,818.66,136.25,825.73Z"/>
      <path class="cls-100" d="M136.25,825.73c.29-8.66-5.75-7.87-11.42-7.62,5.21-2.66,10.54-.54,16.37-.83C140.54,821.09,138.45,823.44,136.25,825.73Z"/>
      <path class="cls-101" d="M193.38,645.93c.6,1.18,4.69-2.16,2.83,2.13-1,2.32-2.24,4.53-3.8,7.66-1.49-4.57-3.54-8.09-2.1-12.31C192.9,642.34,191.78,645.79,193.38,645.93Z"/>
      <path class="cls-102" d="M208.11,653.66a37.35,37.35,0,0,1,10.2-15.18C217.46,645.23,211.44,648.56,208.11,653.66Z"/>
      <path class="cls-103" d="M193.38,645.93l-3.07-2.52c1.43-3.87,1.51-8.51,7.2-11.84C195.4,637.2,191.64,640.93,193.38,645.93Z"/>
      <path class="cls-104" d="M107.15,352.7c4.82-5.26,9.57-10.64,18.11-12.61-1.62,5.64-6,6.84-8.86,9.23-4.64,3.81-4.53,6.33,1.35,7.69,3.79.88,5.5,3.36,6.74,6.54.66,1.71,1.66,3.47-.6,5-3.65,2.42-3.74,6.31-3.64,10.25-3-.21-3.06-2.93-4.5-4.27-1.57-3.77-5.2-6.83-3.94-11.56a7,7,0,0,0-4.1-5.35C105.07,356.24,107.06,354.36,107.15,352.7Z"/>
      <path class="cls-105" d="M87.68,374.33a31.72,31.72,0,0,0-7.34,9.78c-2.08-3.73-2.11-7.67.73-10.68C82.79,371.6,86,370.34,87.68,374.33Z"/>
      <path class="cls-106" d="M64.83,354.46c3.08-.95,4.62,1.36,6.87,3.11a16.18,16.18,0,0,1-6.86,4.82v-7.93Z"/>
      <path class="cls-107" d="M107.71,357.59c1.15-.86,2.47-2,3.52-.15,1,1.66,3.17,3.39.58,5.5C109.72,361.71,107.83,360.33,107.71,357.59Z"/>
      <path class="cls-108" d="M148.68,406.72l1.92,1.89c-.79,6.52-8.17,8.32-10.25,14.66,2.13-.61,3.37-2.91,5.51-2.33l1.79,1.87c-1.25,1.38-2.26,3.24-3.81,4-2.25,1.17-2.9,7.26-6,3.75-2.45-2.77-6.62-7.54-1.38-12.27C140.62,414.56,144.61,410.6,148.68,406.72Z"/>
      <path class="cls-109" d="M176.72,459.44c-1.91,4.83-2,8.41-6,9.28-.65.15-2.27-1.07-2.22-1.21C169.7,464.3,172.37,462.45,176.72,459.44Z"/>
      <path class="cls-4" d="M181.79,521.1c.23-6,1.74-10.22,5.67-14.57C187,512.22,185.24,516.3,181.79,521.1Z"/>
      <path class="cls-110" d="M137.47,394.21c.59,1.16,1.7,1.28,2.81,1.39l-8.73,6.82-1.46-1.32C130.81,397,132.81,394.16,137.47,394.21Z"/>
      <path class="cls-111" d="M156.61,452.4c-.33,2.41.16,5.05-2.39,6.23a1.88,1.88,0,0,1-1.67-.76C151.61,454.52,154.74,453.85,156.61,452.4Z"/>
      <path class="cls-112" d="M102.92,387.08c7,11,4.12,21.54-1.1,32.14-2,4-4.59,4.75-7.73,1.87-5.16-4.73-12.87-7.79-12-16.84C86.49,395.46,91.62,387.54,102.92,387.08Z"/>
      <path class="cls-113" d="M102.92,387.08a7.07,7.07,0,0,1-5.13,3.16c-5.37.69-9.09,3.65-10.25,9.1-.65,3.11-3.32,3.64-5.46,4.91-1.14-8.23,2.38-15.1,6.7-21.57C91.93,378,98.5,380.1,102.92,387.08Z"/>
      <path class="cls-114" d="M223.09,415.68c-3.54.22-5.92,2.81-8.82,4.32-1.34.7-2.73,1.15-3.67-.52-.7-1.22-.06-2.25.81-3.15.16-.17.3-.42.5-.5,15.39-6.61,28.54-20.88,47.85-14.07a6.58,6.58,0,0,0,5.48-.15c10.5-5.36,20.26-2.63,29.79,2.67,5.38,3,10.84,5.85,16.09,9.05s5.29,7.58-.57,9.64c-4.08,1.44-6.6,6.3-11.72,5.12-20.91-3.5-42-1.26-63-2-1.87-.06-3.8,0-5.6-1.45.71,1.53,2.66,2,2.52,3.82.89,4.3-1.92,4.14-4.62,3.59-5.5-1.12-11-2.4-16.42-3.77-1-.26-2.44-1.13-2.63-1.95-.42-1.84,1.34-1.92,2.68-2.36,5.3-1.73,10.55-3.59,15.82-5.41,1.25-1.76,3.19-2,5.08-2,11.15-.15,22.36-.94,33.42.3a114.3,114.3,0,0,0,33.79-.82c-10.25-6.89-20.11-12.94-32.86-7.62a11.25,11.25,0,0,1-8.42-.07c-9-3.8-16.63-.36-24.39,3.56C230.71,413.68,227.56,416.67,223.09,415.68Z"/>
      <path class="cls-8" d="M368.07,284.8c-8.26,1-11.45,6.49-12.51,13.91-4.69-2.44-9.38-2.52-14.63-1.39-5.49,1.17-11.33,1.07-16.22-2.8-5.81-6.34-10.58-7.24-18.76-3.76-2.66,1.13,1.06,2,0,3,.51,3.91-2.1,4.09-4.83,3.86-5-.42-10.07-1-15.1-1.47-1.45.4-2.07-.48-2.51-1.63-.41-4.59,3.35-5.4,6.3-7,17.56-8.25,35.68-12.35,54.92-6.6,1.23-3.27-1.89-5.17-1.4-7.8-1-3.61-4.43-5.33-6.27-8.29-.19-2.33.79-2.62,2.59-1.48,4.09,2.34,7.12,5.78,10,9.38.59.73,1.5,2.1,1.86,2C361.09,271.49,362.63,281.35,368.07,284.8Z"/>
      <path class="cls-8" d="M180.28,303c1.9,2.53,1,4.26-1.54,5.63-9.28,5-33.2-2.06-38.33-11.29a3.65,3.65,0,0,1,3.07-2.65c10.9-.52,18.71-7.58,27.38-12.78,7.53-4.51,15.44-7.13,24.35-6.31,4.39.41,8.41,1.44,11.54,4.76a6.56,6.56,0,0,1,3.23,4.28c2.26,3.41,8.72,5.75,2.87,11.19a3.55,3.55,0,0,1-2.34,1.1c-1.51-.15-1.82-1.45-1.27-2.65.95-2.09,0-3.4-1.84-3.59-2.14-.21-1.29,2-1.81,3.14-4.39,9.38-8.32,10.86-17.94,6.69-5,.09-7-3.54-8.61-7.22-1.75-4-4.18-3.9-7.37-2.11-4.52,2.54-8.15,6.38-13,8.16C165.65,303.05,173.54,299.17,180.28,303Z"/>
      <path class="cls-115" d="M223.09,415.68c5.45-2.85,10.84-5.83,16.37-8.52,6-2.92,12.17-3.71,18.48-.73a11.29,11.29,0,0,0,10.31-.12c7.6-3.92,14.7-2.13,21.73,1.42,5,2.55,9.36,6.35,14.75,9-25.7,5-51.49.86-77.14,1.81C225.72,418.18,223.23,418.74,223.09,415.68Z"/>
      <path class="cls-116" d="M216.7,244.44c-.23,3.71-1.48,6-3.71,7.55-2.78,1.92-5.35.06-7-1.64-8.42-8.73-20.24-8.9-30.57-10.08-8.13-.93-15.56,6.77-22,12.5-6,5.37-12.28,10.4-18.59,15.39-1.77,1.4-4.18,3.66-6.1,1s1-4.25,2.86-5.49c6.54-4.43,11-10.69,16.3-16.37,9.66-10.42,21.26-17.22,37.41-14.89,8,1.15,15.93,1.81,23.71,4.37C213.3,238.22,216.75,241.31,216.7,244.44Z"/>
      <path class="cls-117" d="M232.76,428.48c-2.13-1.33-4-3.21-6.64-4.47H261c7.34,0,14.69.34,22,0,5.82-.27,11.07.79,15.86,4.07-2.68,4.93-7.45,6.88-12.3,8.91-2.32,1-4.29,2.74-6.42,4.15-2.92,3.42-6.21,4.2-10,1.4-3.57-2.71-7.7-.76-11.53-1.39C248.68,439.54,238.9,437.7,232.76,428.48Z"/>
      <path class="cls-7" d="M288.61,243.37c-1.19-4.59,1.95-7.34,4.91-9.42,8.3-5.83,17.07-10.06,27.88-6.91,10.24,3,20.82,3.38,30,11,9.74,8,16,13.17,20.16,25.08.33,1.56-.39,2.05-1.84,1.78-2.58-5.3-5.29-10.5-11.38-12.66-2.9-2.68-4.56-7.43-10-5.9-4.14-2.56-8-5.75-12.49-7.49-4.19-1.65-9-1.78-13.4-2.56-.46-1.58,6.28-4.24-.82-4.17-7.06.94-12.14,5.42-17.35,9.68-2.93.49-5.55,1.52-7.22,4.18C293.68,247,291.49,244.08,288.61,243.37Z"/>
      <path class="cls-118" d="M343.29,273.11a13.4,13.4,0,0,1,5,11.06c-20.46-8.15-39.45-3.17-58.13,4.89-1.35.62-2.7.63-3.32-.89-.71-1.74.24-2.93,1.87-3.63,3.83-1.88,5.12-6,8-8.84,8.84-8.66,21.15-10.85,32.17-5.28A25.19,25.19,0,0,0,343.29,273.11Z"/>
      <path class="cls-119" d="M207.28,282.08c-11.15-7.87-22.28-5.6-33.29.22a65.83,65.83,0,0,0-10.77,6.79c-6.71,5.43-14.74,6.81-22.81,8.25L136.2,293c8.44-9.37,20.57-13.14,30.66-20a2.52,2.52,0,0,1,3.26.08c4.94.38,9.61-1.57,14.61-1.47,6.82.13,13.52.17,19.89,3l-.06-.06c1.51,2,3,4,4.55,6C209,281.61,208.59,282.33,207.28,282.08Z"/>
      <path class="cls-5" d="M270.1,442.55c3.52.83,6.77-.23,10-1.4,2.11,0,4.22-.09,6.32,0,1.7.08,3.1,1.84,2.14,2.7-3.68,3.33-2.65,9.92-8.34,11.69-.79,1.11-1.32,2.52-3,2.65-13.91.41-13.91.41-32.78-14.79C253.48,441.8,261.87,443.4,270.1,442.55Z"/>
      <path class="cls-120" d="M233.06,374.33c.27-6.83,4-9,11.62-6.11,5.66,2.14,10.54,5.91,16.86,6.87,5.82.89,9.73-.36,11.79-6,1.37-3.77,3-6.68,7.61-3.22,1.89,1.43,4.09-.42,6.2-.17s4.53-.46,5.52,2.08c.71,1.83-.65,3.15-2,4.13-1.85,1.32-3.64,3.45-6.23,1.49-1.43-1.08-2.67-2.42-4-3.64-9.38,13.3-17.91,15-32.56,6.14-4.85-2.94-10.22,1.45-14.89-1.61Z"/>
      <path class="cls-121" d="M180.28,303c-18.2.1-18.35.08-24.48-3.38,4.66-3.13,9-6.46,13.74-9.11,4.48-2.51,10.14-7.69,11.06,3.43.26,3.16,4.36,4.68,7.05,6.58C185.82,303.2,182.73,302.14,180.28,303Z"/>
      <path class="cls-122" d="M284.14,294.27l1.84,1.84c-3.61,4.33-6.25,9.53-11.26,12.61-2.08,1.28-1.41,3.32-1.45,5.13,0,2.78.74,5.72-3.48,9.27-2.51-19.47,1-36.45,8.95-52.78,2.21-.58,2.6,1.19,3.31,2.53a6.11,6.11,0,0,0,1.67,3.86,4.16,4.16,0,0,1-.25,2.78c-5,6-8,12.66-7.24,20.64C278.53,297.74,280,294.27,284.14,294.27Z"/>
      <path class="cls-76" d="M282.9,279.18l0-3.29c-.11-1.85,1.26-1.43,2.32-1.5,3.4-.21,1.33-.56.3-1.83-1.9-2.38.31-4.75,1-7.1s4.2-3.35,3.5-6.53c2.31-1.6,5.44-3.78,7.5-2.18,2.5,1.94-1.3,5.95-.92,7.07,3.08,9.11-8.47,11.77-7.95,19.37-2.63,2.94-3.5,7.14-6.79,9.61-1.41,1.05-2.9,2.95-4.81,1.22-1.44-1.3-.49-3.07.17-4.54C278.87,285.9,282.41,283.37,282.9,279.18Z"/>
      <path class="cls-123" d="M170.12,273.08c-10.33,6.64-22.36,10.54-31.31,19.43-.52.52-1.73.35-2.61.51,1.64-4.88,5.64-7.59,9.81-9.76,13.79-7.14,26.42-16.44,41.12-21.91,2.34-.87,4.34-1.72,7.11-.06C187.11,267.48,177.65,268.4,170.12,273.08Z"/>
      <path class="cls-124" d="M305.91,293.72c-2.41-1.61-5.54-3.27-.05-4.9,2.22-.66,4.58-.86,6.76-1.59,7-2.35,12.1-1.82,12.09,7.29C318.27,298.25,312.13,295.1,305.91,293.72Z"/>
      <path class="cls-125" d="M282.9,279.18c2.61,1.55,1.65,3,.25,5-2.07,2.91-5.51,5.08-5.93,9.71,5.9-2,7-8.18,11.47-10.69q.06.68.06,1.35c-1.17,2-2,3.95,1.45,4.51-2.21,1.52-5.64,1.63-6.06,5.22l-8.66,9.05C273.24,292,275.2,285.64,282.9,279.18Z"/>
      <path class="cls-126" d="M145.86,420.94c-.53.45-1,.91-1.59,1.33-1.85,1.43-2.68,5.91-5.45,4-3-2.11.06-5.14,1.69-7.09,3.11-3.72,6.7-7.05,10.09-10.55,4.63-.36,5.2,1.39,2.34,4.68C150.67,415.91,148.23,418.4,145.86,420.94Z"/>
      <path class="cls-127" d="M292.37,377.65c1.18-2.15,3.52-1.64,5-2.72,1.89-1.34,3.2-5.59,6-2.73,2.35,2.37,1.49,6.29.55,9.5a4,4,0,0,1-3.86,2.68c-1.91.11-3-.2-2.79-2.76C297.56,378.44,292.79,381.07,292.37,377.65Z"/>
      <path class="cls-128" d="M137.47,394.21l-7.38,6.89c-2.21-.05-3.51-1.68-2.28-3.16,4.85-5.86,10.11-11.39,16.41-18.35C144.47,387.27,139.58,390,137.47,394.21Z"/>
      <path class="cls-81" d="M233,374.24c.1,4-.92,8.1-5.55,7.86-4.09-.22-6.08-4.05-6.66-8.07a3.19,3.19,0,0,1,2.25-3.87,2,2,0,0,1,2.71,1.54c.78,5.74,4.52,2.85,7.35,2.63Z"/>
      <path class="cls-129" d="M351.54,311.53c-8.51,3-15.19,5.87-22.76,3.09-1.42-.52-3.5-1.44-2.64-3.49.63-1.49,2.42-1,3.74-.48,4.22,1.76,8.34.52,12.52-.21C344.79,310,347.32,309.36,351.54,311.53Z"/>
      <path class="cls-130" d="M338.6,426.79c4.32-7.59,10.94-12.37,18.91-15.5l1.36,1.61-18.7,15.65Z"/>
      <path class="cls-131" d="M304.33,241.77c3.41-7.45,9-11,17.35-9.68C316.92,237.14,311.68,241.33,304.33,241.77Z"/>
      <path class="cls-132" d="M339.61,263.34a2.72,2.72,0,0,0-2.59,1.48c-4.35-4.23-10.35-4.88-15.6-7.18-.79-1.09-2.57-1.27-2.72-2.95C327.14,254,334,257.1,339.61,263.34Z"/>
      <path class="cls-133" d="M290.06,258.93c2.66.34,3.29,1.59,1.37,3.56A47.41,47.41,0,0,1,287.2,266c-2.06,2.27-1.92,6.28-5.72,7.17-.91-.93-1.82-1.87-2.74-2.8C280.68,264.72,285.73,262.19,290.06,258.93Z"/>
      <path class="cls-134" d="M277.25,458.19c.56-1.38,1.19-2.67,3-2.65,4.7,4,11.36,1.93,18,6.27A38.28,38.28,0,0,1,277.25,458.19Z"/>
      <path class="cls-135" d="M218.26,294.92a67.16,67.16,0,0,1,14.89-14.73C231.72,286,226.16,291.74,218.26,294.92Z"/>
      <path class="cls-136" d="M336.64,451.67c.25,1.89-.93,2.91-2,3.65-2.39,1.62-3,5.88-6.71,5.21-1.28-.23-.93-2.56-.12-3.72C329.94,453.8,331.43,449.43,336.64,451.67Z"/>
      <path class="cls-137" d="M318.7,254.69l2.72,2.95c-3.18-.51-5.19,5-9,1.68-1.16-1-3.57-1.19-3.35-3.08.26-2.23,2.43-1.55,4-1.54C315,254.72,316.82,254.7,318.7,254.69Z"/>
      <path class="cls-138" d="M233.42,272.26c-4,5.61-8.25,11-15.08,13.53C221.84,279.65,227.84,276.22,233.42,272.26Z"/>
      <path class="cls-139" d="M207.28,282.08l1.83-1.61,9.54-10.17,1.64,1.36c-1.11,5.92-7.24,8.4-10.31,13Z"/>
      <path class="cls-140" d="M335,465c-1-2.59-.11-3.72,1-4.66,2.34-2,4.78-4.21,8.15-3.59,2.4.43,1.78,1.81-2.24,4.32-.8.5-1.59,1-2.41,1.51C338,463.36,336.59,464.11,335,465Z"/>
      <path class="cls-135" d="M369.73,264.87l1.84-1.78c2.43,4.53,3.62,9.36,4,15.53C370.73,274.44,370.59,269.51,369.73,264.87Z"/>
      <path class="cls-141" d="M348.39,246.31c1.11-1.32,1.45-4.61,4.18-2.21,2.51,2.19,6,3.88,5.78,8.11C354,252,351.44,248.72,348.39,246.31Z"/>
      <path class="cls-142" d="M288.61,243.37c3.36-.86,6.39-.64,8.5,2.58-.72,1.8-2,4.1-3.75,3.4C291,248.43,287.86,247.17,288.61,243.37Z"/>
      <path class="cls-143" d="M230.79,298.9c4.68,2.93,4.24,6.66,1.31,10.71Q231.46,304.26,230.79,298.9Z"/>
      <path class="cls-138" d="M277.53,325.35c-.64-6.3,2.09-8.9,6.53-11.93C283.92,319.13,280.78,321.46,277.53,325.35Z"/>
      <path class="cls-144" d="M235.32,288c-2.25,5.14-4.85,7.23-8,8.8C227.9,292.8,230.18,290.42,235.32,288Z"/>
      <path class="cls-145" d="M280.42,333.26c.45-4.29,1.55-6.77,4.19-8.78C285.38,329.06,285.38,329.06,280.42,333.26Z"/>
      <path class="cls-66" d="M278.09,310.1c2.63-2.94,3.84-5.56,8.63-5.63C284.5,307.87,283.38,310.56,278.09,310.1Z"/>
      <path class="cls-146" d="M204.62,274.58c1.23-2.68,3.18-4.5,7.93-6.12-2.48,4.36-4.09,6.61-8,6.06Z"/>
      <path class="cls-147" d="M330.17,287.6c3.25-2.13,5.42-1.31,7.76.25C335.47,290.21,333.26,289.6,330.17,287.6Z"/>
      <path class="cls-148" d="M196,291.54c1.53.84,5.06.2,3.08,3.72-1.75,3.14-4.87,3-7.36,1.54-3.65-2.12-8.25-3.76-6.23-10,1.32-4.05,4-4.08,7-3.78,2.75.28,2.34,2.36,1.91,4.27-.74.48-2.31.44-2.28,1.06C192.22,290.61,194.63,290.51,196,291.54Z"/>
      <path class="cls-149" d="M196,291.54c-1.4-.07-2.81-.05-4.2-.23-1.81-.22-3.14-1.1-3.15-3.14a3.35,3.35,0,0,1,2.14-3.35c2.33-.91,2.52,1.48,3.61,2.47C194.92,288.71,195.45,290.12,196,291.54Z"/>
      <path class="cls-150" d="M265.92,439.9c-3.44-1.81-10.16,0-10.17-4.11,0-4.34,6.14-5.2,10.55-5.52,4-.29,9.71-.76,9.66,4.1C275.92,438.17,269.92,438.76,265.92,439.9Z"/>
      <path class="cls-151" d="M170.74,278a29.07,29.07,0,0,1-16.52,7.41C159,281.38,164.13,278.09,170.74,278Z"/>
      <path class="cls-111" d="M281.48,273.14c1.95-2.35,3-5.43,5.72-7.17,2.24,2.45-3,3.56-.68,6.28,1.8.95,2.8-3.2,5.73-.85-2.49,2.83-4.92,5.31-9.32,4.49-.77.12-1.76,1.34-2.19.29C280.42,275.4,281.19,274.17,281.48,273.14Z"/>
    </g>
  </g>
  <path class="cls-152" d="M643.46,292.72A100.94,100.94,0,0,0,655,257.15c1.06-8.14-.05-10.5-6.64-10.39-32.16.55-63.77-4-94.37-17.22-24.31-10.5-46.76-25.07-64.76-49.43-23.4-31.66-23.62-73.42-.4-105.19,19.12-26.17,43.12-41.79,69.41-51.59C621.31-.2,684,1.33,745.44,32.48c20.87,10.57,39.7,25.63,53.77,48.84,19.11,31.52,17.48,68.74-3.89,98-19.81,27.13-45,42.17-72,52.92-6,2.4-12.26,4.12-18.41,6.05-2.95.93-5.89,2-7.62,5.44-7.68,15.44-19.91,23.88-31.32,33.52C659.29,282.88,652.49,288.29,643.46,292.72Z"/>
  <g>
    <path d="M535.21,126.16q.93-17,.93-30.39t-.07-17.54a37.72,37.72,0,0,1,16.29-3.69,14.74,14.74,0,0,1,10.49,4q4.23,4,4.23,11.21,0,8.38-11.88,16.12,6.48,8.1,13.24,17.82l-6.83,5q-4.49-6.74-16.08-22-.21,10.93-.64,20.52Zm19.5-30.43c2.46-2.43,3.7-4.65,3.7-6.63a6,6,0,0,0-1.75-4.62,6.43,6.43,0,0,0-4.59-1.63,19.07,19.07,0,0,0-6.26,1.2q0,12-.07,17.83A32.22,32.22,0,0,0,554.71,95.73Z"/>
    <path d="M573.49,125.8q-.29-11.22-.29-21.23t1.14-26a158.38,158.38,0,0,1,23.76-1.85V85.4q-8,0-14.94.5-.28,7.95-.35,12.21a106.23,106.23,0,0,1,12.8-.92L597,105q-4.76.07-14.3,1.06,0,8.52.08,12.29a141.81,141.81,0,0,0,14.79-2.13l1.21,7.81a34.19,34.19,0,0,1-14.3,2.77Z"/>
    <path d="M625.06,124.81l-1.63-9.87-10.6.43-2.71,13.34-10-.85L612.9,76.39l13.16,1.13,9.32,48.14ZM618.8,85.69l-4.48,22.08,8-.29Z"/>
    <path d="M642.71,125.09q-.93-14.62-.93-26.8t.79-22.12L652,77Q651,89.24,651,100.39t.36,16.4q2.55-.36,12.59-1.42l1.42,8.23q-5.34.65-15.08,2.13Z"/>
    <path d="M670.31,125.09q-.93-14.62-.93-26.8t.79-22.12l9.46.86q-1.07,12.21-1.07,23.36t.36,16.4q2.57-.36,12.59-1.42l1.42,8.23q-5.32.65-15.08,2.13Z"/>
    <path d="M699.12,112v-5.47q-9.32-19.67-10.31-28.33l8.89.85a89.88,89.88,0,0,0,6.55,19,202,202,0,0,0,9.17-23.22l8.25.79A306.14,306.14,0,0,1,709,106.06q-.13,6.39-.14,11.22t.28,9.73l-9.39-1Q699.13,119.41,699.12,112Z"/>
    <path d="M735.9,75.82a11,11,0,0,1,8.61,3.51,12.8,12.8,0,0,1,3.13,8.84,8.74,8.74,0,0,1-.92,4.19c-.62,1.14-1.11,2-1.46,2.56a20,20,0,0,1-1.78,2.27c-.83,1-1.46,1.63-1.89,2.06-1.61,1.85-3.08,3.43-4.41,4.76q-3.2,3.4-3.2,6.1a7.69,7.69,0,0,0,.36,2.2l-6.05-.71a4.48,4.48,0,0,1-2.28-3.72,8.18,8.18,0,0,1,1.43-4.41,33.47,33.47,0,0,1,3.27-4.33q1.85-2.08,3.24-3.62c.92-1,1.61-1.78,2.06-2.31s1-1.16,1.53-1.91a6.9,6.9,0,0,0,1.56-3.66,3.37,3.37,0,0,0-.85-2.38,3.06,3.06,0,0,0-2.35-.92q-3.35,0-10.53,7l-6.54-5.68Q728.15,75.82,735.9,75.82ZM734.84,116a11.23,11.23,0,0,1,.78,5,15.42,15.42,0,0,1-1.14,6.18L726,125.52a20.74,20.74,0,0,0,.71-5.5c0-1.92,0-3.54-.14-4.87Z"/>
    <path d="M578,166l.07,8.16,10.67-.64q0-11.07.36-23.5l9.39.85q-.64,11.3-.64,24.46t.78,26.45l-9.11-.78q-.63-6.1-.78-19.6l-10.46.64q.23,10.09.64,20.52l-9.67-.85q-.78-15-.78-27.55t.57-21.72l9.39.85Q578,159.55,578,166Z"/>
    <path d="M620.62,203.93q-6.79,0-11.46-6.07T604.5,179.4q0-12.39,5.09-20.2t12-7.81q6.9,0,11.49,6.11t4.59,18.39q0,12.29-5.13,20.16T620.62,203.93Zm-4.38-38.59A36.42,36.42,0,0,0,614,179.19q0,8.34,2,12.35c1.3,2.68,2.93,4,4.87,4s3.67-1.84,5.16-5.53a37.14,37.14,0,0,0,2.24-13.88q0-8.35-1.88-12.32t-4.66-4C619.56,159.84,617.76,161.68,616.24,165.34Z"/>
    <path d="M660.42,157.07l7.11.64q.51,5.68,1.53,15T670.52,186l.36-.07q5.05-21.74,6.54-34l9.32.78A373.78,373.78,0,0,1,675.08,201l-6.83-.57q-2.43-8.37-5.41-21.94-3.06,14.64-5.84,23.36l-6.82-.57q-6.06-30.09-8.19-48.84l9.18.78q1.14,12,3.56,32.8l.35-.07Q659.21,166.94,660.42,157.07Z"/>
    <path d="M703,151.82a11,11,0,0,1,8.61,3.51,12.8,12.8,0,0,1,3.13,8.84,8.74,8.74,0,0,1-.92,4.19c-.62,1.14-1.11,2-1.46,2.56a20,20,0,0,1-1.78,2.27c-.83.95-1.46,1.63-1.89,2.06-1.61,1.85-3.08,3.43-4.41,4.76q-3.19,3.41-3.2,6.1a7.69,7.69,0,0,0,.36,2.2l-6-.71a4.48,4.48,0,0,1-2.28-3.72,8.18,8.18,0,0,1,1.43-4.41,35.39,35.39,0,0,1,3.27-4.33q1.85-2.08,3.24-3.62c.92-1,1.61-1.78,2.06-2.31s1-1.16,1.53-1.91a6.9,6.9,0,0,0,1.56-3.66,3.37,3.37,0,0,0-.85-2.38,3.06,3.06,0,0,0-2.35-.92q-3.35,0-10.53,7l-6.54-5.68Q695.21,151.82,703,151.82ZM701.9,192a11.23,11.23,0,0,1,.78,5,15.42,15.42,0,0,1-1.14,6.18l-8.47-1.63a20.74,20.74,0,0,0,.72-5.5c0-1.92,0-3.54-.15-4.87Z"/>
  </g>
</svg>
