<?xml version="1.0" encoding="utf-8"?>
<!-- Generator: Adobe Illustrator 22.1.0, SVG Export Plug-In . SVG Version: 6.00 Build 0)  -->
<svg version="1.1" id="titanic_Image" xmlns="http://www.w3.org/2000/svg" xmlns:xlink="http://www.w3.org/1999/xlink" x="0px"
	 y="0px" viewBox="0 0 410 257.3" style="enable-background:new 0 0 410 257.3;" xml:space="preserve">
<style type="text/css">
	.st0{fill:none;}
	.st1{fill:#2CABC7;}
	.st2{fill:#010101;}
	.st3{fill:#000202;}
	.st4{fill:#020303;}
	.st5{fill:#010303;}
	.st6{fill:#040505;}
	.st7{fill:#030404;}
	.st8{fill:#2DABC6;}
	.st9{fill:#2C2C2C;}
	.st10{fill:#212121;}
	.st11{fill:#2E2E2E;}
	.st12{fill:#2EAAC5;}
	.st13{fill:#5C5C5C;}
	.st14{fill:#31A9C3;}
	.st15{fill:#701010;}
	.st16{fill:#38A5BC;}
	.st17{fill:#CABEBE;}
	.st18{fill:#218095;}
	.st19{fill:#E9E9E9;}
	.st20{fill:#FEFEFE;}
	.st21{fill:#FDFDFD;}
	.st22{fill:#740707;}
	.st23{fill:#FCFCFC;}
	.st24{fill:#FDFEFE;}
	.st25{fill:#2CAAC6;}
	.st26{fill:#F9F9F9;}
	.st27{fill:#FBFCFC;}
	.st28{fill:#F8F8F8;}
	.st29{fill:#F6F6F6;}
	.st30{fill:#F8F9F9;}
	.st31{fill:#160202;}
	.st32{fill:#2DA9C4;}
	.st33{fill:#F6F8F9;}
	.st34{fill:#F7F7F7;}
	.st35{fill:#F4F4F4;}
	.st36{fill:#F5F5F5;}
	.st37{fill:#29A2BC;}
	.st38{fill:#E8E9E9;}
	.st39{fill:#F2F2F2;}
	.st40{fill:#2BA2BC;}
	.st41{fill:#35AAC4;}
	.st42{fill:#EBEBEB;}
	.st43{fill:#F1F1F1;}
	.st44{fill:#112125;}
	.st45{fill:#670A0A;}
	.st46{fill:#DBDBDB;}
	.st47{fill:#510606;}
	.st48{fill:#39A5BD;}
	.st49{fill:#2BA4BF;}
	.st50{fill:#DDDDDD;}
	.st51{fill:#5A5A5A;}
	.st52{fill:#DEDEDE;}
	.st53{fill:#2799B2;}
	.st54{fill:#1D7083;}
	.st55{fill:#BED5DA;}
	.st56{fill:#289DB7;}
	.st57{fill:#131313;}
	.st58{fill:#215864;}
	.st59{fill:#49A9BD;}
	.st60{fill:#CDCDCD;}
	.st61{fill:#144D5A;}
	.st62{fill:#22859B;}
	.st63{fill:#BEBFBF;}
	.st64{fill:#5D0808;}
	.st65{fill:#621616;}
	.st66{fill:#134C58;}
	.st67{fill:#C0ACAC;}
	.st68{fill:#196171;}
	.st69{fill:#1A6778;}
	.st70{fill:#DACCCC;}
	.st71{fill:#540505;}
	.st72{fill:#2592AA;}
	.st73{fill:#499CAE;}
	.st74{fill:#DFDCDC;}
	.st75{fill:#BCA4A4;}
	.st76{fill:#A87878;}
	.st77{fill:#9B9B9B;}
	.st78{fill:#196070;}
	.st79{fill:#2C7686;}
	.st80{fill:#298295;}
	.st81{fill:#0D343C;}
	.st82{fill:#1B6A7B;}
	.st83{fill:#5D0606;}
	.st84{fill:#1C6F81;}
	.st85{fill:#1B6778;}
	.st86{fill:#E5E9EA;}
	.st87{fill:#207D92;}
	.st88{fill:#888888;}
	.st89{fill:#C9C3C3;}
	.st90{fill:#11424D;}
	.st91{fill:#A3B4B8;}
	.st92{fill:#1B1B1B;}
	.st93{fill:#4A0505;}
	.st94{fill:#BDBCBC;}
	.st95{fill:#646464;}
	.st96{fill:#A8C6CD;}
	.st97{fill:#165462;}
	.st98{fill:#124752;}
	.st99{fill:#9E9E9E;}
	.st100{fill:#175C6B;}
	.st101{fill:#858889;}
	.st102{fill:#B7D6DD;}
	.st103{fill:#C0C0C0;}
	.st104{fill:#0E3841;}
	.st105{fill:#690C0C;}
	.st106{fill:#E2E2E2;}
	.st107{fill:#DED7D7;}
	.st108{fill:#CCBCBC;}
	.st109{fill:#760F0F;}
	.st110{fill:#E6E6E6;}
	.st111{fill:#282828;}
	.st112{fill:#1C1C1C;}
	.st113{fill:#2D2D2D;}
	.st114{fill:#313131;}
	.st115{fill:#222222;}
	.st116{fill:#464646;}
	.st117{fill:#2A2A2A;}
	.st118{fill:#121212;}
	.st119{fill:#E2CCCC;}
	.st120{fill:#3C3C3C;}
	.st121{fill:#181818;}
	.st122{fill:#141414;}
	.st123{fill:#111111;}
	.st124{fill:#191919;}
</style>
<path class="st0" d="M0.1,257.2c0-85,0-170-0.1-255.1C0,0.4,0.5,0,2.6,0c134.9,0.1,269.8,0.1,404.8,0c2.1,0,2.6,0.4,2.6,2.2
	c-0.1,84.3-0.1,168.7,0,253c0,1.8-0.5,2.2-2.6,2.2C271.6,257.2,135.8,257.2,0.1,257.2z"/>
<path d="M116.6,119.1c-0.8-3.6,2.2-7.3-0.2-11c-2.1-3.2-3-6.9-4.7-10.3c-4.8-9.4-10.4-18.5-14.8-28.1c-1.4-3.1-1-3.9,2.2-4.9
	c0.9-0.2,1.8-0.5,2.6-1.1c3.1-3.7,7.9-5.3,11.1-9c1.6-1.9,3.2-1.7,3.6,0.7c2.1,11.2,9.9,19.4,14.9,29.1c1,1.6,2.2,3.1,3.5,4.5
	c1.8,2.2,3.2,1.9,5.1,0.1c1.4-1.3,1.8-3.8,3.2-4.4c3-1.3,3.6-4.2,5.2-6.3c0.8-1.2,1.4-2.4,2-3.8c1.6-3,2.9-3.6,6.2-2.2
	c4.3,1.9,9.4,1.6,13.3,4.6c1.1,0.8,1.6-0.4,2-0.9c2-2.5,4.1-5,6-7.6c0.9-1.6,2.7-2.5,4.6-2.3c-3.2-3.3-5.9-6.6-9.5-9
	C161.8,49.7,153,40.3,145,30c-0.9-1.1-1.8-2.2-2.9-3.6c-0.7,1.9-0.4,3.6-0.6,5.2c-0.1,1-0.2,2.1-1.4,2.1c-1.4,0-1.5-1.2-1.4-2.3
	c0-2,0.1-4,0.4-6c0.4-2.5-0.4-5-2.1-6.8c-0.8-0.9-2.4-2-1.1-3.3c1.4-1.4,2.1,0.9,3.5,1.3c0.1-1.2,0.1-2.4,0.2-3.5
	c0.1-0.9,0.4-1.8,1.4-1.8c0.9,0.1,1.1,1,1.1,1.8c0.1,1.8,0.1,3.6,0.1,5.4c-0.1,2.1,0.6,4.1,2,5.7c9.3,11.6,19.1,22.8,31.7,31.1
	c4.9,3.2,8.3,8.3,13.4,11.4c1.2,0.7,2,1.6,3.3,0.3c0.6-0.6,1.5-0.6,2.1-0.1c0,0,0,0,0,0c1,1.1-1.1,1-0.8,1.9
	c1.3,1.1,2.8-0.6,4.4,0.2c2.2,1,1.4,2.5,0.9,4.9c3.9-4.4,8.1-7.3,11.6-11.1c5.2-5.6,11.7-9.8,16.9-15.5c3.7-4,6.9-8.3,9.6-13
	c2.3-4.2,5.4-7.8,9.1-10.7c1.7-1.4,4.2-1.1,5.6,0.6c0.1,0.2,0.3,0.4,0.4,0.6c0.4,0.6,0.7,1.4,0.8,2.1c0.2,3.7,2.9,6.5,3.3,10.1
	c0.2,1.9,2.6,2.5,3,4.3c1.2,5,4.2,9.3,5.7,14.2c1.4,4.7,0.5,8.9-2.2,12.9c-3.4,3.6-5.8,7.9-7.1,12.7c-1.3,4.3-2.9,8.6-4.4,12.8
	c-0.8,2.7-1.4,5.4-1.8,8.2c0.2,0.5,0.3,1.1,0.4,1.6c0,0.6,0,1.2-0.2,1.7c-0.9,5.6-0.5,11.3-0.3,17c0.1,2.1,0.4,4.1,0.4,6.2
	c0,0.7,0,1.3,0.1,2c0,1.5,0.7,2.8,2,3.6c1,0.5,1.5-0.4,2.1-1c1.1-1.1,2.2-2.1,1.5-4.1c-1.8-4.9-0.3-9.7,1.1-14.4
	c0.3-0.9,1.1-1.6,2-1.9c2.2-0.6,4.3,0.3,6.5-0.1c1.3,0.5,1.1,1.2,0.6,2.4c-0.8,1.8-1.9,3.7,1.7,3.8c2.4,0.1,2.6,4.8,0.4,7.1
	c-0.7,0.8-1.5,1.4-2.3,2.1l-2.1,1.9c0.9,1.3,2.3,1.2,3.5,1.4c2.5,0.4,3.9,1.8,3.7,4.2s-2.3,2.3-4.1,2.5c-3.8,0.4-5.7-1.4-6.1-5.6
	c-1.9,2.1-1.7,5.1-5.3,5.4l5.8,3.3c2,1.1,3.6,2.9,4.5,5c1.1,2.2,0.5,4.9-1.4,6.4c-9.4,9-19.6,17.2-27.6,27.6c-2,2.6-4.2,5.1-6.6,7.4
	c-1.8,1.6-0.6,2.9,0.1,4.5c0.8,2,2,1.1,3.2,0.8c2.4-0.7,4.7-1.4,7.1-2.2c0.6-0.1,1.2-0.4,1.6-0.9c6-9.1,14.5-14.5,25-16.8
	c1.2-0.3,2.5-0.4,3.3,0.9s0.1,2.6-0.8,3.6c-2.3,2.6-4.9,5-7.7,7.2c-1.2,0.9-2.6,1.6-3.4,3c0,0.4-0.2,0.7-0.4,1.1
	c-1.5,2-0.1,2.2,1.4,2.2c2.4-0.2,4.7-0.5,7-1.1c1.8-0.4,3.7-0.9,5.5-1.2c2.1-0.4,3.6,0.2,4.1,2.4c0.3,1.4,1.1,1.6,2.3,1.3
	c0.9-0.2,1.9-0.2,2.8-0.1c1.8,0.3,3.2,1.1,2.9,3.1c-0.3,1.8,0.5,1.8,1.9,1.6c2.5-0.4,5-0.7,7.6-0.8c1.1,0,2.3,0.1,3.4,0.4
	c4.7,1.3,5.6,4.4,2.2,7.8c-1.6,1.6-2.9,3.9-5.6,4c-2.5-0.1-5,0.6-7.7,0.2c-0.2,0,0.2,0.6,0.1,0.3c3.4-0.3,6.9-0.5,10.3-0.4
	c1.8,0.7,3.7,0.9,5.6,0.5c4.1-0.5,8.3-0.2,12.4-1.1c0.2,0,0.4,0,0.6,0c1.7,0.3,3.9,0.6,4,2.5c0.1,2.2-2.2,2.2-3.9,2.2
	c-7.4,0-14.7,0.1-22.1,0.2c-12.9,0.1-25.7,0.3-38.6,0.4c-1.2,0.1-2.4,0.1-3.6-0.2c2.9,0.9,5.6,2.1,8.1,3.7c1.6,0.9,2.7,2.2,1.4,4.2
	c-0.7,0.8-1.8,1.1-2.8,1c-6-0.3-12-0.8-18-1.7c-3.5-0.6-7.2-1.2-10.2-3.2c-4.8-3.3-10.3-3.6-15.7-3.7c-5.9,0-11.7-0.2-17.6-0.1
	c-0.9,0-1.9-0.3-2.8,0.5c1,1.2,2.3,2,2.9,3.4c1.6,3.5,2.2,3.7,7.3,2.6c2.5-0.5,5.1-0.8,7.6-0.8c1.3,0,2.6,0.3,3.8,0.9
	c0.7,0.5,1.5,0.8,2.4,0.8c4.8-0.3,9.6,0.9,14.4,0.2c4.3-0.6,8.4-0.1,11.7,3.6c1.7,1.9,4.6,2.6,6.3,4.7c0.6,0.6,1.2,1.2,1.9,1.7
	c1,0.9,1.7,1.8,1.4,3.2c-0.3,1.3-1.5,2.3-2.9,2.4c-2.4,0.4-4.9,0.7-7.3,0.8c-6.7,0.3-13.5-0.4-19.9-2.2c-5.1-1.4-10.1-1.1-15.1-0.4
	c-4.6,0.6-9.1,1.6-13.7,2.5c-2.1,0.4-3.9,0.4-5.4-1.4c-0.6-0.8-1.7-0.8-2.6-0.9c-5.1-0.7-10.2-0.8-15.3-0.3
	c-1.7,0.1-3.2,0.1-4.1-1.7c-0.6-1.2-1.7-1.4-2.9-1.6c-5.3-1-10.5,0-15.7,1c-1.4,0.4-2.8,0.7-4.2,0.8c-1.1,0.2-2.1,0.4-3.2,0.4
	c-3.1-0.7-6.2-0.4-9.3-0.5c-4.2-0.1-5.2-1.4-4.3-5.6c-2.9,0.3-5.8-1.7-8.7,0.2c-0.5,0.2-1.1,0.3-1.7,0.1c-0.4-0.8-0.5-2.1-2-1.1
	c-0.7,0.4-1.4,0.6-2.2,0.6c-1.2,0-2.6,0.2-3.2-1.2s0.6-2,1.4-2.8s1.7-1.7,1-2.9s-1.8-1.1-3-0.9c-2,0.4-4,1.3-5.6,2.6
	c-1.7,1.2-3.6,2.1-5.3,3.3c-3.9,2.6-8,3.8-12.6,2.1c-0.6-0.3-1.3-0.2-1.9,0.1c-3.2,2.3-7,2.7-10.6,3.7c-6,1.8-12,3.2-18.2,2.9
	c-2-0.1-3.4,1.2-5.1,1.6c-7.2-2-14.6-1.8-22-1.9c-3.5,0-6.3-1-8.5-3.7c-2.1-0.2-4.3-0.5-6.4-0.7c-0.6-0.1-1.6-0.1-1.9-0.5
	c-1.5-2.6-3.8-1.6-5.8-1.5c-3.6,0.2-3.6,0.2-3.4-4.2c0.8-1.5,2.5-1.1,3.8-1.7c1.2-0.1,2.3-0.4,3.4-0.8c-1.3,0.6-3.4,0.3-5.3,1.1
	c-0.7,0.2-1.5,0.1-2.1-0.4v-4.5c1-0.8,2.4-1.3,3.7-1.2c3.2-0.3,6.4-0.3,9.6,0c4.1,0.4,4.9,1.7,3.8,5.6c-0.4,1.3,0.1,2.9-1.5,4.3
	c3.9-0.7,7.7-1.7,11.5-2.9c2.9-1,5.9-1.5,8.8-2.4c1.2-0.4,2.5-0.9,3.3,0.5s0,2.5-1,3.4c-0.3,0.3-0.6,0.5-1,0.6
	c3.4-1,6.9-1.4,10.4-1.3c1.8,0.1,3.4,0.5,4,2.5c0.4,1.4,1.3,1.4,2.4,1.2c6.4-0.8,12.8-1.3,19.2-1.4c0.8,0.1,1.6,0.1,2.5,0.1
	c-0.6-0.6-1.4-0.7-2.2-0.4c-0.6,0.2-1.3,0.4-1.9,0.4c-4.2,0.2-5.3-1.6-3.4-5.6c-3.2,0.9-6.3,1.6-9.4,2.4c-1.6,0.4-3.1,0.5-3.9-1.3
	s0.5-2.6,1.7-3.5s2.5-1.5,3.5-2.9c-1.3-0.7-2.9-1-4.3-0.7c-4.3,0.4-8.6,1.5-12.6,3.3c-2.8,1.2-5.6,2.2-8.6,3
	c-0.8,0.2-1.7,0.3-2.5,0.3c-1.2,0-2.2-0.7-2.7-1.7c-0.6-1.2,0-2.2,0.8-3.1c1.4-1.7,3.1-3,5.1-4c1.4-0.6,2.4-1.9,2.6-3.4
	c-0.3-1.2-1.4-1.2-2.2-1.4c-3.2-1.1-6.6-1.3-10-0.9c-2.5,0.4-5,1.3-6,4.1c-0.6,2.4-2.2,2.8-4.3,1.9C12,210.9,8.1,209.7,4,209
	c-1.4-0.1-2.6-0.8-3.3-2v-4.8c1-1.4,2.6-1,3.9-0.9c2.1,0.1,3.9-0.4,5.1-2.2l9-1.1c2-0.3,3.1-2.1,4.8-2.9c0.3-0.1,0-0.7-0.4-0.9
	c-3.8-0.6-7.6-1.6-11.2-3.1c-1.1-0.4-2.5-0.8-2.6-2.3s1.2-2,2.3-2.6c1.5-0.7,3.1-1.3,4.8-2c-0.3-0.5-0.6-0.8-0.8-1.2
	c-0.8-1.5-2.1-3-0.7-4.7c1.2-1.5,2.9-0.9,4.5-0.6c0.5,0,0.9,0.2,1.4,0.4c5.4,4.2,12.3,5.2,18.3,8.2c3.5,1.7,7.5,1.1,11-1
	c0.6-0.4,1.2-0.9,1.7-1.4c4-3.2,6.1-2.5,7,2.7c0.3,1.6,0.6,3.2,2.7,3.4c0.8-0.1,1.7-0.1,2.5,0c1.2,0.1,2.2,0.5,2.4,1.8
	s-0.8,1.8-1.8,2.1c-0.4,0.2-0.9,0.2-1.2,0.5c1.5,0.7,2.5-0.3,3.6-0.9c3.2-1.7,6.2-3.8,8.9-6.3c1.6-1.5,2.9-3.3,3.7-5.3
	c1.1-2.5,0.1-3.7-2.7-3.4c-1.7,0.2-3.4,0.5-5,0.7c-1,0.1-2-0.2-2.2-1.3c-0.1-1,0.5-1.8,1.5-2c0,0,0.1,0,0.1,0
	c1.7-0.4,3.5-0.6,5.3-0.8c-0.6-1.6-2-0.8-2.9-1.1c-1.4-0.5-3.7-0.1-3.6-2.4c0.1-2,2.2-1.1,3.5-1.6c-0.1-1.1-0.6-2.1-1.3-3
	c-3.5-5.5-6.2-11.5-8.1-17.8c-1.1-3.8-3.9-6.7-6.1-9.9c-0.8-1.2-1.4-2.2-0.2-3.5c0.3-0.3,0.6-0.8,0.7-1.2c0.8-5.1,3.3-9,8-11.3
	c1.6-0.8,1.8-2.8,2.7-4.2c2.3-3.5,5.6-3.6,7.6,0.1c4.8,8.7,9,17.7,10.7,27.6c0.6,3.2,2.7,5.1,4.7,7c1.4,1.3,2.3-0.7,3.8-1.7
	c-3.3-0.3-5.1-1.7-5.8-4.4c-0.8-3.1,0.4-4.8,3.6-4.9c2-0.1,4.6,1,5.5-1.6s-1.9-3.4-3.2-4.8c-3.3-3.6-6-7.6-8.1-12
	c-3.2-6.9-5.8-14-9-20.8c-1.5-3.2-1.9-6.4,1.7-8.8c1.1-0.8,1.8-2,2.2-3.3c0.9-3.2,3.7-5.2,4.8-8.2c0.4-1.1,1.8-0.9,2.8-0.7
	c2,0.4,2.6,3.3,5,3.1c-1.5,1.6,0.9,2.3,0.9,3.7c-0.1,4.5,2,8.8,5.5,11.6c2.6,2.2,4.7,5,6.1,8.1c1.1,2.3,2.2,4.6,3.4,6.9
	c1.6,2.3,2.3,5.2,4.4,7.1c0.6,0.5,0.9,1.9,2.1,0.9C118.1,122.3,115.4,121.2,116.6,119.1z"/>
<path class="st1" d="M259.2,220.7c0.9-1.8,0-2.8-1.5-3.6c-3.2-1.7-6.5-3-9.9-4.8c0.9-0.1,1.9-0.1,2.8-0.1
	c10.8-0.1,21.6,0.6,32.3-0.1c3.8-0.2,7.5-1.1,11.2-0.5c6.9,1,13.8,0.1,20.6,0c1.1,0,3.1,0.6,3-1c-0.1-1.3-2.3-2.2-3.7-1.9
	c-4.5,0.9-9,0.6-13.5,1.1c-1.6,0.2-3.6,0.9-5-0.9c-0.6-0.7-2,0.5-2.2-1c2.6-1.3,4.3-3.7,6.2-5.7c1.4-1.5,0.5-3.4-1.8-4.4
	c-2.5-1.1-5.2-0.7-7.9-0.5s-5,0.6-7.5,0.9c-0.5-0.8,0.1-1.2,0.3-1.6c1-2.4,0.4-3.3-2.2-3.4c-1.8,0-3.6,0-5.6,0
	c-0.2-1,0.9-2.4-0.4-3.4s-2.8-0.4-4.1-0.1c-3.7,0.8-7.3,2-11.1,2c-1.3,0-3.4,0.6-3.8-0.9c-0.4-1.2,1.2-2.3,2.5-3
	c1.4,0,2.8,0,4.2-0.1c2.2-0.2,4.7,0.2,6-2.5c0.3-0.6,1.6-1,2.5-1.2c2.8-0.6,5.4-1.7,7.8-3.2c1.4-1,3.2-1.2,4.8-0.7
	c0,1.5-1.4,1.6-2.3,2c-2.5,1-4.9,1.9-7.4,2.9c2.5-0.6,4.9-1.5,7.2-2.5c2-0.8,3.6-0.8,4.7,1.4c1.3,2.7,3.8,2.9,6.4,2.6
	c3.3-0.4,6.5-1.2,9.8-1.8c1.9-0.4,3.8-0.1,5.5,0.8c4.7,2.5,9.6,2.9,14.8,2.4c7-0.7,14.2,0.2,21.2-0.3c7.4-0.6,14.8,0.3,21.7,2.7
	c3.5,1.2,7.3,0.9,11,0.7c1-0.1,2.1-0.5,3,0.4c2.9,2.1,6.4,2.7,9.5,4.4c1.6,0.9,3,2,1.6,4.1c-1.5,0.8-3,0.2-4.4-0.1
	c-4-1.1-8.2-1.5-12.4-1.3c-8,0.5-15.9-1.1-23.8-1.2c-5.3,0-10.6,0.3-15.9,1c-5.5,0.6-11,0.8-16.5,0.7c-1.5-0.1-3.1,0-4.6,0.4
	c8.4,1.6,16.5,0.2,24.5-0.6c8-0.7,16.1-0.6,24.1,0.3c5.1,0.6,10.2,0.2,15.3,0.4c4.8,0.1,9.6,1,14.1,2.7c-4.5,1.4-7.9,5.3-8.5,10
	c-0.3,1.4-1.2,2.1-2.2,2.8c-2.2,1.8-4.4,3.6-5.4,6.4c-1.1,1.1-2.5,0.8-3.8,0.9c-6.9,0.4-13.8-0.5-20.6-1.4c-3.8-0.5-7.6-0.5-11.3,0
	c-1.6,0.2-3.2,0.3-4.8,0.3c-10.6-0.1-21.2,0.3-31.8,1.1c-2.4,0.2-4.6,0.2-6.3-2.1c-1.2-1.6-3.3-1.3-5-1.1
	c-5.4,0.5-10.8,0.7-16.1,1.7c-3.4,0.6-6.8,1.6-10.4,1.2C262.7,221.8,260.8,222.1,259.2,220.7z"/>
<path class="st1" d="M143,232.3c5-0.9,9.9-2.6,15.1-2.3c2.1,0.1,4.1,0.3,6.2,0.5c1.2,0.1,2.4,0,2.3,2c-0.1,1.3,1.2,1.5,2.3,1.3
	c6.1-1.4,12.2-0.1,18.4,0.2c0.4,0,1.2,0.2,1.2,0.4c0.5,3.5,3,2.1,4.8,1.8c7-1.4,13.9-2.9,21-3.2c5-0.2,9.6,1.7,14.5,2.4
	c6.4,1,12.8,1.1,19.2,0.3c1.4-0.2,3.3,0.1,3.8-1.8s-1.4-2.2-2.3-3.2c-0.3-0.3-0.7-0.6-1-1c0.6-1.4,1.9-2.3,2.4-3.8
	c0.4-1,1.4-1.2,2.4-1.2c1.3-0.1,2.6-0.1,3.9,0c2.8,0.3,5.7-0.3,8.1-1.8c5.1,0.1,10.1-1.5,15.2-1.9c3.1-0.3,6.2-0.2,9.3-0.4
	c1-0.1,2,0,2.4,1c0.8,1.8,2.4,1.9,4,1.9c8.5,0.1,17-0.8,25.5-0.9c12.2-0.2,24.4-0.9,36.5,0.6c5.2,0.7,10.4,0.1,15.6,0.3
	c1.4,0.1,2.9-0.3,3.9,1c-4.6-0.1-8.6,1.5-12.7,3.4c-5.4,2.5-11.6,1.5-17.5,2.2l-3,0.3c-2.8,0.7-5.3-0.7-8-0.9
	c-3.4-0.3-6.8-0.4-10.2-0.4c-4,0-7.9-0.2-11.8-0.7c1.5,1.2,3.4,1.2,5.1,1.3c2.6,0.1,5.3-0.1,7.9,0.1c0.9,0,2.3-0.5,2.5,1.2
	c-5.4,0.1-10.8,0.3-16.2,0.1c-7-0.2-13.4,1.5-19.9,4.3c-7.1,3.1-14.6,5.1-22.5,4.9c-16.2-0.4-32.4,0.9-48.6,0.3
	c-3.6-0.1-6.9,1.9-10.7,1.4c-5.9-0.9-11.9-0.1-17.5-2.9c-1.1-0.5-2.6-0.2-3.9-0.2c-12.8,0.3-25.6,1.1-38.3,0.7
	c-0.5,0-0.9-0.1-1.4-0.1c-0.1-1.4,1.1-1.1,1.8-1.1c2.8,0,5.5-0.5,8.2-0.7c-3-0.3-6-0.8-9.1-0.2c-1.4,0.3-3.1,0.3-3-2.2
	c0-1.7-1.6-1.5-2.8-1.7S143.4,234.1,143,232.3z"/>
<path class="st2" d="M249.1,102.6c-0.7-2.8,0.4-5.4,1.2-7.9c1.9-5.4,3.5-10.9,5.6-16.3c1.5-3.8,2.6-8,6.8-9.9
	c-0.8,2.6-2.7,4.5-3.9,6.8c-3,5.6-3.7,12.1-6.5,17.8c-0.2,0.4-0.6,1.1,0.2,1.4c1.6,0.4,1.7,2.3,3,2.8c1.8-2,3.5-4.1,5.6-5.9
	c1-0.9,2.7-2.1,3.4,0.6c0.1,0.2,0.3,0.4,0.6,0.5c4.7,1.3,6.3,5.7,9.2,8.8c2.2,2.4,4,5.5,7.8,6.1c0.7,0.1,1.2,1.1,1.8,1.7
	c2.6,2.5,5.3,4.9,7.8,7.4c1.9,1.9,1.5,4.8-1.1,5.6c-1.7,0.6-3.3,1.3-5,1.8c-2.3,0.7-3.4-0.2-3.4-2.7c0-0.5,0.2-0.9,0.2-1.4
	c0-1.2,1.2-3.2-0.2-3.6c-1.7-0.5-2.6,1.8-3.9,2.8s-0.7,1.9,0.1,2.9c0.7,0.8,1.3,1.7,1.9,2.4c3.1,3.6,3.1,4.4,0.4,8.3
	c-2.2,3.1-4.7,6-7.5,8.5c-0.6,0.6-1.4,1.4-2.2,0.8c-1-0.8-0.4-1.7,0.2-2.5c2.4-2.9,4.8-5.9,7.2-8.8c1.3-1.5,1.4-2.8-0.2-4.3
	s-3.9-3.2-4.5-4.7c-1.3-3.1-3.6-5.2-5.5-7.8c-1.6-2.3-3.7-4.3-6.1-5.8c-1-0.7-2-1.3-3.1-1.9c-0.7-0.5-1.5-0.8-2.3-1.1
	c-1.4-0.7-2.6-1.8-3.4-3.2c-0.1-1.4-0.3-2.8-1.7-3.6c-0.8,0.7-0.4,1.8-0.9,2.5S250.2,102.7,249.1,102.6z"/>
<path class="st1" d="M117.2,227.1c1.8-1.1,3.4-2.1,5.8-0.7c1.2,0.8,3.3,0.1,5.5,0.1c-1.1,1.6-2.8,2.4-1.8,4.2s2.7,1.4,4.3,1.5
	c2.9,0.1,5.8-1,8.6,0.6c0,1.5-1.4,1.3-2.2,1.4c-4.2,0.9-8.2,0.2-12.3-0.8c-1.8-0.4-3.7-0.9-5.2,0.9c-10.9,0.1-21.6,2.3-32.3,3.8
	c-1.4,0.3-2.8,0.3-4.2,0c-2.5-0.6-4.2-2.9-3.9-5.5c0.3-2.3-0.6-2.5-2.5-2.2c-1.7,0.3-3.3,0.9-5,0.6c3.7-1.8,7.8-2.5,11.3-4.7
	c1.1-0.7,3.3,0.5,5,0.9c1.5,0.4,3,0.2,4.3-0.5c3.2-1.5,6.2-3.2,9.1-5.2c2-1.4,4.3-2.5,6.7-3c1.5-0.4,3,0.1,3.3,1.2s1,3-1,3.9
	c-0.8,0.4-2.2,1.2-1.8,2.1c0.4,1.3,2,0.9,3,0.7c1.7-0.4,3.3-0.9,4.9-1.6c-0.3,1.1-1.2,1.7-0.8,2.7c0.8,0.4,1.3,1.1,2.1,1.5
	c0.3,0.2,0.4-0.4,0.2,0c0,0.1-0.1,0.1-0.3,0C117.5,228.5,116.3,228.3,117.2,227.1z"/>
<path class="st1" d="M74.5,226.4c-7.2,0.4-14.3,0.9-21.5,1.8c-0.9,0.1-2,0.4-1.6-1.3c0.5-2.2-0.9-2.6-2.7-2.5c-3,0.1-6-0.2-9,0.7
	c-1.1,0.3-2.3,0.4-3.5,0.4c0.4-1.2,1.5-1.3,2.2-1.9s1.8-1.3,1.1-2.5c-0.6-1-1.6-0.9-2.5-0.6c-2.7,0.8-5.4,1.8-8.1,2.6
	c-4.8,1.6-9.7,2.7-14.7,3.4c1.3-1.8,4.3-2.7,2.2-5.4c0,0,0.1-0.1,0.2-0.2c1.6-3.2,1.2-4.1-2.6-4.5c-4.4-0.4-8.9-0.2-13.3,0.6
	c0-0.4,0-0.8,0-1.2c1.5-1.8,4.1-2.3,6.2-1.3c1.7,0.7,3.6,0.7,5.3,0.1c4.9-1.4,8.4,1.4,7.8,6.4c-0.2,1.6,0.5,1.8,1.8,1.6
	s2.4-0.6,3.6-0.8c2.1-0.4,3.4-0.9,3.1-3.8s2.3-4.7,4.7-5.8c1.7-0.8,3.2-2,4.2-3.6c0.6-0.5,1.2-0.9,2-0.3c-0.2,2.3-1.7,4.2-3.9,4.8
	c-1.7,0.8-3.3,2-4.4,3.5c-0.6,0.6-0.9,1.5-0.5,2.4c0.4,0.9,1.3,1.4,2.3,1.3c2.1-0.1,4.1-0.6,6-1.5c5.4-2.3,10.7-4.8,16.7-5.2
	c1.9-0.3,3.8-0.2,5.6,0.2c1.3,0.4,1.6,1,0.3,1.8c-1.5,1-3,2-4.4,3.1c-0.8,0.6-1.6,1.2-1.2,2.3s1.5,1.3,2.6,1l11.2-2.8
	c0.1,0.4,0.2,0.6,0.1,0.7c-0.7,1.4-2.6,2.9-1,4.5s3.7,0.8,5.6,0.2C75.5,225,75.5,225.3,74.5,226.4z"/>
<path class="st3" d="M377.8,224.4c-2,0-4-0.1-5.9-0.1c-5.2,0.2-10.4,0-15.6-0.6c-11.8-1.6-23.6-0.4-35.5-0.3
	c-8.5,0.1-17,0.6-25.5,0.9c-1.7,0.1-3.8,0.4-3.8-2.5c0-1.2-1.1-0.6-1.8-0.6c-6.6,0.1-13.2,0.8-19.7,2.2c-1.6,0.5-3.4,0.5-5-0.2
	c-0.8-0.3-1.2-0.9-0.8-1.8c0.4-0.7,1-1.6,1.7-1c1.7,1.5,3.2,0.4,4.8,0.1c7.4-1.5,15-2.4,22.5-2.5c1.9,0,3.8-0.2,4.3,2.6
	c0.2,1.3,1.6,0.6,2.4,0.6c10.1-0.3,20.2-0.8,30.4-1.1s20.2-0.6,30.3,1c4.5,0.7,9.2,0.2,13.9,0.2c1.1,0.1,2.2,0.3,3.4,0.5
	s2.4,0.2,2.3,1.5C380.2,224.9,378.7,224.1,377.8,224.4z"/>
<path class="st4" d="M379,191.3c-6.4,1.2-12.9,0.6-19-1.6c-3.9-1.3-7.9-1.8-12-1.4c-10,0.7-20-0.2-30.1,0.6
	c-3.8,0.3-7.6-0.6-10.9-2.6c-1.5-0.9-3.2-1.2-4.9-0.8c-3.8,0.6-7.6,1.8-11.5,1.9c-3,0.1-5.3-0.7-6.1-3.9c-0.4-1.4-1-1.2-2.1-0.8
	c-2.9,1.2-5.8,2.3-8.8,3.3c-0.9,0.3-2.1,0.7-2.5-0.5c-0.4-1.5,1.2-1.1,1.9-1.4c3.5-1.2,6.9-2.6,10.2-4.1c1.8-0.6,2.9,0.2,3.3,2
	c0.5,2,1.8,2.6,3.8,2.6c3.1-0.1,6.2-0.9,9.2-1.5c3.5-0.6,6.7-0.5,9.9,1.3s6.9,1.9,10.5,1.6c10.7-0.8,21.4,0.1,32.1-0.5
	c3.4-0.2,6.8,0.9,10,2c5.5,1.9,11.4,2.3,17,0.9c1.2-0.3,2.4-0.5,3.5,0.5c0.6,0.5,1.1,1.1,0.7,2c-0.3,0.6-1,0.8-1.6,0.5
	c-0.1,0-0.1-0.1-0.1-0.1C380.9,190.8,379.9,190.8,379,191.3z"/>
<path class="st1" d="M37.6,208.9c-0.5,1.9-1.4,3.3-3.7,3.7c-1.7,0.3-2.7,1.9-3.9,3.1c-1.4,1.4-1.5,2.9-0.3,4.5
	c0.6,0.8-0.4,1.4-1.1,1.6c-2.5,0.7-5.1,1.3-7.7,1.8c-1.9,0.4-2.6-0.6-1.7-2.2c1.1-2.1,0.6-3.7-1.3-5.1s-3.4-2.2-5.6-0.8
	c-1.4,0.8-3,0.8-4.4,0.1c-2.6-1.6-4.8-0.6-7.2,0.1c-0.3-2.5-0.6-5,3.2-5.7c-1.7-0.8-3.8-0.7-3.2-3c2.6,1.6,5.6,1.4,8.4,2.3
	c2.5,0.7,5,1.5,7.4,2.6c1.6,0.8,2.7,0.4,3-1.5c1.7,1.2,4,1.2,5.8,0.1c0.8-0.4,1.8-0.7,2.7-0.6c2.6,0,5.2,0.1,7.6-1.4
	C36.4,208.2,37.1,208.3,37.6,208.9z"/>
<path class="st5" d="M390.7,202.2c-10.9-2.2-22-1.3-33-2.5c-10.1-1.1-20-0.2-30,1c-5.2,0.6-10.4-0.2-15.5,0c-0.7,0-1.8,0-1.8-0.9
	s1-0.9,1.7-1.1c1-0.3,2-0.5,3-0.5c7.9,0.6,15.7-0.4,23.5-1.2c7.5-0.7,15.1-0.6,22.7,0.2c3.9,0.5,7.7,0.6,11.6,0.5
	c5.9-0.1,11.7,0.6,17.4,2.2C389.7,200.8,390.4,201.4,390.7,202.2z"/>
<path class="st6" d="M330,231c-5-0.7-10.2,0.1-15.2-1.2c-0.5-0.1-1.1-0.2-1.7-0.3s-0.9-0.4-0.9-0.9c0-0.5,0.4-0.9,0.9-1
	c0.5-0.2,1.1-0.3,1.7-0.3c7.4,1.8,14.9,0.4,22.4,1.4c2.5,0.3,5,0.9,7.4,1.7c5.8,0.8,11.7,0.2,17.6,0.7c2.5,0.2,4.9,0.4,7.4,0.6
	c0.9,0.1,2.1,0.2,1.9,1.5c-0.1,1.1-1.1,1.3-2,1.2c-8.3-1.1-16.7,0-24.9-1.2C339.7,232.5,335,230.8,330,231z"/>
<path class="st7" d="M120,234.4c-0.5-1.4,0.1-1.9,1.4-2c2,0,3.9,0.2,5.9,0.7c4.1,1,8.3,1.4,12.4-0.3l3.3-0.6c1.1,1,2.3,0.4,3.5,0.4
	c3.4,0,4.1,0.9,2.9,4.3c4.9-0.6,9.7-0.9,14.4,0.7c-4.1,1.8-8.6,0.7-12.8,1.9c-2,0.3-4.1,0.7-6.1,1c-1.2,0.2-2.6,0.4-3.2-1
	s0.6-2.2,1.7-2.8c0.6-0.3,1.2-0.8,1.6-1.3C136.5,237,128.2,236.2,120,234.4z"/>
<path class="st8" d="M18.2,230c0.3,0,0.7-0.2,0.8-0.1c2.5,3.3,6,2.7,9.4,2.8c4.6,0.1,9.2,0.5,13.8,0.7c2.4,0.1,4.6,0.5,6.4,2.1
	c-2.9,0.4-5.8,1.2-8.7,1.1c-5.4-0.3-10.7,0.1-16,0.2C20.2,236.9,18.2,234.2,18.2,230z"/>
<path class="st9" d="M99.9,42.4c-1.3,1.7-1.7,3.4-3.3,3.8c-1.4,0.4-2.9,0.1-4-0.9c-0.8-0.8-1.1-2.1-0.6-3.2c0.6-1.7,2.1-2.3,3.8-2.5
	c2.6-0.3,3.2-1.2,2.1-3.4c-0.4-0.9-0.9-1.7-2.2-1.2c-0.8,0.3-1.7,0.2-2.5-0.2c-1-0.4-1.8-1.2-1.5-2.4s1.3-1.1,2.1-0.8
	c3.2,0.9,2.2-1.2,1.8-2.6c-0.6-2.2-2.3-3.7-3.8-5.3c-1.7-1.8-2.3-4.5-1.3-6.8c0.3,0.1,0.6,0.1,0.6,0.1c-0.1,3.8,2.1,6.4,4.4,9.1
	c1.3,1.3,1.9,3.2,1.7,5c-0.1,0.6-0.2,1.4,0.1,1.7c2.7,2.4,2.2,6.1,3.4,9.1c1.2,3.3,0.7,6.9-1.4,9.7c-1.2,1.7-3.7,1.5-5.7-0.4
	c1.6-0.5,3.5,1.3,4.7-0.4C100.2,48.5,100.2,45.7,99.9,42.4z"/>
<path class="st10" d="M51.5,86.9c-2,2.1-0.9,3.7,0.1,5.4c1.7,2.9,4.1,5.7,1.1,9.2c-0.5,0.5,0.2,0.8,0.5,1c1.9,1.5,2.9,3.9,2.6,6.3
	c0,0.9,0.4,1.8,1,2.6c1.7,2.9,1.2,5.8-0.1,8.7c-0.3,0.6-0.8,1.5-1.7,0.9c-0.8-0.5-0.2-1.1,0.1-1.7c1.4-2,1.2-4.2,0.6-6.9
	c-0.7,0.9-1.1,1.5-1.5,2.1c-0.8,1.3-2.4,1.7-3.7,1c-1.7-0.9-1.9-2.5-1.7-4.2s1.3-2.1,2.7-2.4c1-0.2,2.7,1.1,2.8-1.1
	c0.1-2-0.7-3.9-2.6-4.3c-4-0.8-2.3-1.7-0.3-3s1.3-3,0.5-4.6s-1.9-3.3-2.8-4.9C47.9,88.6,48.1,88.1,51.5,86.9z"/>
<path class="st11" d="M67.4,48.1c0.4,0.4,0.6,0.6,0.6,0.7c-1.9,3.7,0.3,6.2,2.4,8.8c1.4,1.7,2,3.9,1.8,6.1c-0.2,1.5,0.7,2.6,1.2,3.9
	c1.1,2.9,1.9,5.7,4.7,7.8c1.8,1.3-0.3,6.9-2.6,7.8c-0.8,0.3-1.7,0.3-2.5-0.1c-0.4-0.2-0.7-0.7-0.6-1.2c0.1-0.3,0.5-0.5,0.9-0.4
	c0,0,0.1,0,0.1,0.1c2.7,1.2,2.9-1.2,3.5-2.7c0.7-1.7,0.4-3.4-1.5-4.3c-0.9-0.4-1.8-0.7-2.6,0.2c-0.5,0.7-1.3,1.1-2.2,1.1
	c-1.1,0-2.6,0.2-2.8-1.3s1.2-1.8,2.3-1.9c1.4-0.2,2.9,0.2,2.7-2.1c-0.2-1.8-0.5-3.1-2.7-3.2c-0.7-0.1-1.4-0.4-2.1-0.8
	c-0.5-0.3-1-0.7-0.7-1.3c0.2-0.5,0.8-0.7,1.3-0.5c0,0,0.1,0,0.1,0.1c2.2,0.9,1.9-0.6,1.8-1.8c-0.1-2.6-1-5.1-3-6.5
	c-2.8-2-2.4-4.1-1.2-6.5L67.4,48.1z"/>
<path class="st12" d="M75.8,187.4c-1.8,3.6-5.5,4.9-8.7,6.8c-1.7,0.4-3.3,1.4-5.1,0.6c-0.4-0.4-0.7-0.8,0-1s1.7-0.2,2.5-0.4
	s1.6-0.4,1.5-1.4s-0.9-1.1-1.7-1c-1,0.1-2.1,0.1-2.8-0.8c0-1.2,0-2.2,1.7-2.3C67.3,187.6,71.6,187,75.8,187.4z"/>
<path class="st13" d="M257,104.9c0.9,0,1.7,0.4,2.3,1.1c0.1,0.6,0.6,1.1,0.5,1.8c0.3,3.1,2.5,4.4,5.2,5.1c-2,2-4.2,0.4-6.3,0.6
	c0-1.1,0.8-0.8,1.4-0.6c-4.4-1.5-7.7-4.6-10.9-7.8l0.4-1.1c1.3-0.7,2,0.4,2.9,1c2.3,1.4,4,3.6,6.5,4.9
	C258.5,108,256.8,106.8,257,104.9z"/>
<path class="st14" d="M9.7,199.2c0.2,2.3-1.1,3-3.1,3s-3.9,0.1-5.9,0.1c-0.4-1.9,1-2.2,2.3-2.4C5.2,199.6,7.5,199.4,9.7,199.2z"/>
<path class="st15" d="M118.8,124.9c-0.5,1.1-1.1,1-2,0.3c-2.7-2.3-4.7-5.5-5.4-9l3.9,4.1C117.1,121.4,117.8,123.2,118.8,124.9z"/>
<path class="st16" d="M23.1,194.3c0.7,0,2.1,0.1,1.1,0.8c-1.6,1.2-2.9,3.5-5.5,2.9C19.4,195.9,21.3,195.2,23.1,194.3z"/>
<path class="st17" d="M118.8,124.9c-1.9-1-2.3-3-3.5-4.6c0.4-0.4,0.8-0.8,1.2-1.2c0,1.1,0.5,2.2,1.4,2.8
	C118.8,122.7,119.1,123.8,118.8,124.9z"/>
<path class="st18" d="M0.7,221.4l2.1-0.1c0.7,0,1.6-0.8,1.7,0.6l-3.8,1.1C0.7,222.5,0.7,222,0.7,221.4z"/>
<path class="st19" d="M259.8,107.7c-0.5-0.5-1-1-0.5-1.8c1.1,0.5,2.1,1.3,2.8,2.3L259.8,107.7z"/>
<path class="st20" d="M93.8,199.2c-1.2,1-1.8,0.4-2.2-0.8c-0.6-1.6,0.2-3,0.6-4.4c0.5-1.8,1.3-3.6-1.3-4.4c-1.1-0.4-0.3-0.9,0-1.2
	c4.7-5,7.6-11.3,11.6-16.8c5.1-6.9,10.2-13.6,15.4-20.4c4.9-6.7,10.6-12.9,16.9-18.3c9-7.4,15.6-17,22.8-26
	c7.9-9.9,16.8-18.7,25.9-27.4c1.4-1.3,3.1-2.4,4-4c1.5-2.6,4.3-2.3,6.3-3.7c0.2-0.1,0.4-0.1,0.5,0c1.2,0.9,1.2,2.7,2.6,3.6
	c0.5,0.3-0.8,1.2-1.3,1.8c-3.8,4.5-8.1,8.6-12.7,12.2c-9.2,7.1-15.6,16.7-22.2,26c-3.7,5.3-8,10.1-12.2,14.9
	c-7.1,8.3-13.5,17.3-20.7,25.5c-5.2,5.7-9.6,12.1-13.1,18.9c-3.3,6.5-8.1,12.1-12.3,18.1C99.5,194.9,96.6,197,93.8,199.2z"/>
<path class="st20" d="M108.3,189.8c10.4-15.7,20.8-31.4,33.1-46c9.9-11.6,20.3-22.9,28.4-36c3.1-5.1,7.1-9.6,11.8-13.4
	c7.9-6.1,14.3-13.8,21.4-20.7c6.1-5.9,12.2-11.9,18.7-17.4c7.5-6.1,13.7-13.7,18.3-22.1c2.2-3.9,5.2-7.2,8.8-9.7
	c0.6,0.9,1.1,1.8,1.5,2.7c1,2.6,1.3,4.7-1.8,6.5c-5.2,3.2-9.6,7.5-13.1,12.5c-0.9,1.2-1.9,2.3-3.1,3.3c-7.9,6.1-14.7,13.4-20.4,21.6
	c-5.4,7.7-12.2,14-19.2,20.2c-6.8,6-12.4,13-18.1,19.9c-2.6,3.2-5,6.4-8.1,9.1c-1.3,1.3-2.3,2.8-3,4.4c-3.8,6.9-9.4,12.6-13.8,19
	c-5.3,7.8-10.1,15.9-15.9,23.5c-4.3,5.5-9.8,10-13.6,16c-1.6,2.6-3.4,5-4.3,7.9c-0.9,1-2,0.6-3.1,0.4
	C111.3,191,109.4,191.3,108.3,189.8z"/>
<path class="st1" d="M215.1,198.2c2,3,3.7,6.1,6.5,8.4c2,1.6,4.5,1.9,7,2.1c4,0.2,7.8,1.6,10.8,4.1c1.3,1.1,3.3,1.3,5,1.9
	c1.9,0.7,3.8,1.4,5.7,2.3c-8.2-0.2-16.2-0.8-23.3-5.6c-2.8-1.9-6.1-1.9-9.3-2c-3.9-0.1-7.8,0-11.8,0c0.8-2.1,0.8-4.3,3.6-4.4
	c0.9,0,1.5-0.7,1.5-1.5c0-0.2,0-0.3-0.1-0.5c-0.3-1.2-1.4-1.2-2.4-1c-8.1,1.9-16.5,1.7-24.8,3c-4.2,0.6-8.5,0.6-12.7,0.8
	c-0.9,0.1-1.9-0.1-2.8-0.5c-5.6-3-10.8-2.6-15.9,1.6c-1.6,1.3-4.6,1.5-6.6,1.1c-7.9-1.3-15.7-1.8-23.7-0.4c-1.1,0.1-2.3,0.1-3.4,0
	c1.8-2.8,0.2-5.8,0.4-8.6c0-0.4-0.7-0.6-1.2-0.6c-2.4-0.4-4.9-0.1-7.3-0.2c-0.9,0-2-0.2-1.2-1.4c1.2-2,2.9-3.7,5-4.8
	c0.4-0.2,0.8,0,1,0.4c0.7,2.4,2.7,3.3,4.9,3.8c1,0.1,1.9,0.7,2.4,1.7c2.6,4.8,7.2,6.3,11.9,3c7.1-4.9,15.6-5.4,23.4-8.1
	c4.1-1.4,8.6,0.2,12.9,1.1c3.4,0.7,7.1,0.8,9.7,3.7c0.5,0.6,1.4,0.8,2.1,0.5c3-2.3,6.7-1.4,10.1-2.2c2.2,0.4,4.3-0.5,6.5,0
	c1.8,1.9,4.2,0.9,6.4,1.3c1.8,0.2,3.5,0.3,5.3,0.3C212.2,198.4,213.7,198,215.1,198.2z"/>
<path class="st1" d="M171.3,216.8c-0.4,0.1-0.7,0.2-1.1,0.2c-1.1,0.1-2.9-0.4-2.7,1.5c0.2,1.7,1.9,1.3,3,1.2c3.3-0.2,6.5-1.4,9.7-2
	c3.7,0,7.3-0.6,11-0.5c0.9,0.7,1.4,1.4,0.5,2.6c-1.6,2.2-1.1,3.2,1.7,3.6c4.2,0.4,8.5,0.3,12.7-0.5c1.6-0.2,3.2-0.8,4.7,0.8
	c0.5,0.6,1.8,0.5,2.7,0.6c7.2,0.5,14.4,0.7,21.6,0.4c1.7,0,3.1,0.3,4,2c0.7,1.2,1.9,1.9,3.2,2.2c1.9,0.6,3.1,2,4.5,3.8
	c-3.5,0.6-7.1,0.7-10.7,0.4c-5.6-0.5-11.2-1.5-16.7-2.9c-3.5-0.8-7.2-0.7-10.7,0.2c-7,1.5-13.9,1.3-20.9,0.5
	c-4.9-0.6-9.8-0.9-14.7-0.9c-0.5,0.1-0.9,0-1.4-0.1c-7.7-3.9-15.8-3.5-23.8-1.5c-3.1,0.8-6-0.5-9.3,0.5c0.6-1.1,1.7-2.2,0.3-3
	c-1.1-0.5-2.3-0.8-3.5-1c-0.3-0.3-0.9-0.4-0.6-1c0.4-0.1,0.8-0.1,1.1-0.1c0.7-0.1,1.4-0.2,1.5-1c0-1-0.9-1.1-1.6-1.1
	c-4.4-0.2-8.9-0.4-13.3-0.6c-0.9,0-1.9,0-3,0c0.7-1.7,2-1.2,3-1.2c3.8-0.1,7.6-0.1,11.3-0.2c1.6-0.1,3.2-0.7,1-2.5
	c-0.7-0.9-2.3,0.7-2.8-1c7.1,0.2,14.2-0.4,21.1,1.9c0.9,0.3,1.7,0.5,2.3-0.3c1-1.3-0.4-2-1-3l3.9-1.3c1.9,0.5,3.9,0.9,2.2,3.6
	c-0.4,0.6-0.2,1.4,0.4,1.8c0.1,0,0.1,0.1,0.2,0.1c0.9,0.7,2.1,0.5,2.8-0.4c0,0,0,0,0,0c1.1-1.7,3-2.3,4.6-3.2
	C170.5,213.7,171.1,214.2,171.3,216.8z"/>
<path class="st20" d="M118.8,132.8c-0.3-2.4,1.2-4.6,3.5-5.2c0.3-0.1,0.7-0.1,0.8-0.3c2.2-3.9,6.7-5.9,8.3-10.2c0.8-2,2.4-4,0.5-6.3
	c-0.4-0.4,0.1-0.9,0.4-1.2c2.4-3.5,4.4-7.3,6-11.2c0.7-1.7,2.1-2.9,3.9-3.3c5.3-1.5,8.6-6.8,7.5-12.2c-0.1-0.8,3.2-7.7,3.9-8
	c0.3-0.2,0.7-0.2,1.1-0.1c4.3,2.2,9.6,1.3,13.7,4.8c-3.3,3.2-6.1,6.8-9.2,10.2c-8.8,9.7-16.5,20.2-24.8,30.3
	c-4.3,5.2-9.1,10.1-13.7,15.1C118.8,135.3,119.2,133.7,118.8,132.8z"/>
<path class="st21" d="M264.3,221.5l0.8,1.8c-0.9,1.8-2.6,2-4.3,2.2s-3.6,0.1-5.4,0.1c-2,0-4.2-0.6-4.4,2.6c-0.1,1.1-1.4,1.5-2.5,1.6
	c-1.7-1.7-3.3-3.4-5.8-3.9c-0.4-0.1-0.7-0.3-0.9-0.6c-1.9-3.9-5.4-3.5-8.9-3.5c-4.9,0-9.8-0.1-14.8-0.2c-1.8-0.1-3.8,0.4-5.1-1.6
	c-0.5-0.7-1.6-0.4-2.4-0.3c-2.8,0.3-5.6,0.6-8.5,0.8c-2-0.1-4.6,1.3-5.2-2.2c-0.1-0.4-1.4-0.2-2-0.8c-0.8-1.5-2.1-2.7-3.7-3.3
	c-0.4-0.1-0.9-0.3-0.8-0.9s0.6-0.9,1.2-0.9c2.2-0.1,4.4-0.2,6.5-0.1c6.1,0.1,12.3,0.3,18.4,0.4c4,0.1,7.8,0.6,11.3,3.1
	c2.7,1.7,5.8,2.8,9,3.3c6.5,1.1,13.1,1.8,19.7,2.1c0.8,0,1.7-0.2,2.5-0.4C260.9,220.6,262.6,220.9,264.3,221.5z"/>
<path class="st22" d="M132,104.3c-1.9,4.2-5.4,7.2-7.4,11.3c-0.5,1-1.7,1.4-2.7,1.1c-1.1-0.3-1.1-1.6-1.1-2.4
	c0.2-6.5-3.5-11.8-6.2-17.1c-2.4-4.7-4.2-9.8-7.5-14.2c-1-1.3-0.7-2.1,0.6-3.2c1.8-1.6,4.2-2.8,5.4-5.1c0.6-1.2,1.4-0.6,2.2,0.1
	c1.5,1.3,1.2,3.3,2.3,4.8c3.1,3.8,5,8.2,7,12.6c0.5,1.2,1.2,2.3,2.2,3.2c1.3,1,1.1,2.6,0.6,4.2c-0.7,2.1-1.7,4-3.1,5.7
	c-0.4,0.6-0.8,1.2-0.1,1.7c0.5,0.4,1-0.2,1.5-0.3c4.3-0.8,4.8-4.6,5.8-7.8c0.5-1.6,1.3-2.7,2.9-3c0.4-0.1,1.1,0,1.3,0.2
	c0.3,0.5-0.1,1.1-0.6,1.4C133.8,99.5,132.7,101.8,132,104.3z"/>
<path class="st23" d="M182.7,75.9c-0.2,0.4-0.2,1-0.5,1.2c-4.7,3.6-8.1,8.5-12.7,12.2c-5.3,4.2-8.7,10.1-13.2,15.1
	c-7.2,8-13,17.3-21.1,24.4c-1.8,1.5-2.9,4-5.8,3.9c-0.9,0.3-1.8,0.8-2-0.8c2.2-2.8,4.2-5.9,7.9-7c1.5-0.5-0.2-1.6,0.6-2.3
	c1.1-1.3,2.2-2.6,3.1-4c11.1-13.7,21.7-27.7,34.1-40.2c2.4-2.5,4.6-5.3,6.5-8.2c0.7-1.3,2.2-1.9,3.6-1.5c1.8,0.5,3.5,2.2,3.4,3.4
	c-0.1,1.8-1.9,3.3-4,3.8c-0.1-0.2-0.3-0.4-0.5-0.6c-0.1,0,0,0,0.2,0.2S182.6,75.8,182.7,75.9z"/>
<path class="st22" d="M81.9,147.6c2.2,3.4,3.5,7.2,5,10.9c0.2,0.5,0.4,1,0.6,1.5c0.5,0.8,1.3,1.6,2.2,1.4c1.1-0.2,0.4-1.4,0.7-2.2
	c1.6,0.5,1.8,1.9,2,3.2l-1.9,2.1c-0.9,0.1-1.5-0.6-2.2-1.1c-0.1-0.2-0.4,0.4-0.1,0.2c1,1.2,0.6,2.3-0.4,3.3
	c-0.9-1.7-3.1-2.2-4.7-1.3c-0.1,0.1-0.3,0.2-0.4,0.3c-1,0.8-1.9,1.8-2.7,2.8c-1.5,1.9-2.7,1.6-3.7-0.5c-2.4-5.1-4.7-10.3-7-15.5
	c-1.5-3.5-3.4-6.9-5.7-10.1c-0.5-0.8-1.5-1.6-0.6-3c0.8,1.2,2.2,1.3,2.6,3.2s2,0.7,2.8-0.2c1.7-1.9,3.3-3.9,4.9-5.8
	c1.6-1.4,1.7,0.2,1.9,1.1c0.6,2.7,1.3,5.3,2.2,7.9c0.8,2.5,2,4.7,3.7,6.7C82.6,150.8,80.6,148.9,81.9,147.6z"/>
<path class="st22" d="M96.1,106.6c2.7,5.4,4.7,11.2,7.9,16.2c1,1.6,1.4,5.2,5,3c0.6-0.4,0.7,0.6,0.7,1.2c-0.1,1.3-0.7,2.6-1.6,3.5
	c-0.3,0.6-1.1-1.5-1.3,0.2c-0.2,1.3-1.4,2.4-1.1,3.9c-0.3,1-0.8,1.9-1.6,2.6c-1.2,1.1-2.3,1.2-3.6-0.1c-5.3-5.2-9.3-11.4-11.8-18.4
	c-1-2.9-2.9-5.4-3.5-9.5c1.3,2.4,2.2,2.1,3.7,1.2c2.2-1.3,3.3-3.6,5.4-4.9C95.5,105,95.6,106,96.1,106.6z"/>
<path class="st24" d="M62.9,203.6c-1.2,0.2-2.4,0.5-3.6,0.7s-2.6,0.9-2.6-1.5c0-1.2-1.3-1.3-2.5-1.2c-1.7,0.2-3.4,1.1-5.2,0.9
	s-3.8,0.6-5.2-1.1c-1.5-1-3.5-0.9-4.8-2.9c-1.8-2.5,0.1-3.2,1.3-4.1c1.6-1.2,4.1-1.3,4.1-4.1c0-0.4,0.5-0.6,0.8-0.5
	c3.7,1.4,5.5-1.3,7.8-3.2c0.7-0.6,1.3-1.4,2.5-1.4c0.4,3.3,1.5,6.4,3.3,9.2c2.3,3.8,5.3,4.6,9.7,3.2c0.5-0.1,0.9-0.3,1.3-0.5
	c2.3-1.3,4.5-2.3,5.7,1.3c0.2,0.8,1.2,0.8,2,0.6c0.5-0.1,1.2-0.4,1.5,0.3s-0.4,1-0.6,1.4c-0.6,1.2-2.1,1.9-2.1,3.5
	c-1.6,2.1-3.7,1.5-5.2,0.3C68.4,202.5,65.8,202.6,62.9,203.6z"/>
<path class="st25" d="M261,202.9c1.6-0.3,2.7-0.4,3.8-0.6c0.5-0.1,1.2-0.2,1.1-1c-0.2-0.6-0.8-0.9-1.4-0.7c-1.6,0.2-3.2,0.6-4.8,0.7
	c-2.7,0.2-5.5,1.4-8.3-0.3c-0.9-0.6-2.6,0-3.9,0.2c-4.8,0.5-9.6,0.8-14.4,0c-3.6-0.6-7.3,0.9-11-0.3c0.5-1.5,1.9-2.7,3.5-2.8
	c1.7-0.1,3.4-0.5,5-1.1c5.8-2.5,11.4-1.3,17,0.4c1.1,0.4,2.2,0.6,3.3,0.6c6.5-0.4,12.8,1.1,19.2,1.8c2,0.2,4.2,0.6,4-2.6
	c-0.1-1,0.8-0.9,1.4-0.9c1.2,0,2.4,0,3.7,0c0,0.3,0,0.6-0.1,0.9c-0.5,1.1-1.5,2.2-0.6,3.4s2.5,1,3.9,0.7c3.7-0.8,7.5-1.3,11.2-1.3
	c1,0,2.4-0.2,2.9,0.8s-1.2,1.3-1.5,2.1c-1.2,4.1-4.6,3.3-7.5,3.3c-2.3,0-4.5-0.1-6.8-0.1c-0.3,0-0.7,0.1-0.8-0.1
	c-4.2-4.2-9.4-2-14.2-2.3C264.3,203.4,262.9,203.8,261,202.9z"/>
<path class="st21" d="M249.1,105c2.8,1.1,4.6,3.4,7,5.1c1.3,0.9,2.6,1.7,3.9,2.5l-1.4,0.8c-1.3,0.8-2.1,2.2-2.2,3.8
	c-0.5,3-0.9,6-1.3,9c0,0.7,0,1.3,0.2,1.9c0.2,1.2,2.4,1.9,1.7,2.9c-1.3,1.6-2.8,3-4.1,4.7c-0.5,0.7-1,0.3-1.4-0.1
	c-1.4-1.4-2.6-2.7-2.6-5.1c0-5.1-0.5-10.2-0.8-15.3C248.1,111.8,248.4,108.3,249.1,105z"/>
<path class="st25" d="M79.1,204.9c0.8-2.3,2.6-3.4,4.7-4.2s3.9-0.3,5.7,0.4c2.4,2.2,5,1.4,8.3,0.2c-1.5,3-2.3,5.6-3.8,7.6
	s-4.5,1.3-6.9,1.6c-1.4,0.2-4.2-1.3-2.5,2.4c0.3,0.7-2,0.8-3.5,1.3c0.4-1.5,0.8-2.7-0.6-3.6c-0.6-0.4-0.8-1.1-0.4-1.7
	c0.1-0.1,0.2-0.2,0.3-0.3c1.4-1.7,0.4-2.5-1.2-3.1C78.8,205.3,78.8,205.1,79.1,204.9z"/>
<path class="st26" d="M113.7,141.1c-1.1,4-3.8,7.1-6.2,10.3c-7.1,9.6-13.6,19.5-21.3,28.6c-1.2,1.4-2.1,3.2-3.9,4
	c-0.7-1.1,0.2-1.7,0.6-2.3c4-6.3,7.4-12.9,12.6-18.4c6.8-7.2,12-15.6,17.7-23.8C114.5,139.6,114,140.4,113.7,141.1z"/>
<path class="st27" d="M171.3,216.8c-0.4-1.6-0.7-3.1-2.7-1.1c-1.2,1.3-3.3,1.3-4.2,3.4c-0.6,1.3-2.5,1.1-3.8,0.3
	c-1-0.5-1.4-1.6-0.9-2.6c0.1-0.1,0.1-0.2,0.2-0.4c1.5-1.9,1.2-2.7-1.2-2.7c-0.1,0-0.1-0.5-0.2-0.7c1.2-1.4,2.7-1.6,4.5-1.6
	c6.7,0.2,13.3,1.2,19.8,2.8C178.4,215.2,175,216.5,171.3,216.8z"/>
<path class="st27" d="M37.6,208.9c-0.2,0-0.5-0.1-0.5-0.1c-3.9,3.4-9.2,0.8-13.4,3.2c-1.5,0.8-3.5,1.1-4-1.6
	c0.4-2.1,3.1-4.4,6.1-4.8c4.7-0.7,9.2,0.5,13.6,1.7c0.7,0.2,0.7,0.8,0,1.1C38.6,208.1,38.1,208.5,37.6,208.9z"/>
<path class="st28" d="M97.6,173.9l-4,6.6c-0.1,0.2-0.3,0.3-0.3,0.5c0.5,2.8-5-0.2-3.8,4.1c0.5,1.7-2.6,3.7-4.1,5.5
	c-1.5,1.9-3.8,3.1-6.2,3c4.4-7.1,10.1-12.9,14.9-19.3C95.2,172.9,96.2,174.3,97.6,173.9z"/>
<path class="st29" d="M103.3,164.6c-0.7-0.3-1-1.1-0.8-1.8c0.1-0.2,0.2-0.4,0.4-0.5c1.6-2,3-4.1,4.5-6.2c0.4-0.6,0.9-1.2,1.8-1.1
	c0.6,0.2,1.2-0.2,1.3-0.8c0-0.1,0-0.2,0-0.3c-0.1-3.2,1.5-5.2,4.4-6.4c1.2-0.5-0.5-1.4,0.2-2.2c1.2-1.2,2-2.7,3.4-3.7
	c0.7-0.6,1.4-0.8,2.1,0c1,0,0.8,0.6,0.4,1c-6,7-10.7,14.9-16.8,21.8C104,164.8,103.6,164.9,103.3,164.6z"/>
<path class="st30" d="M246.1,189c2.1-1.8,4.2-3.2,5.8-5.6c2.4-3.6,9.3-6.3,14.2-6.8c-3.9,4.7-9.2,7.5-13.1,11.8
	C250.8,189.5,248.6,190.5,246.1,189z"/>
<path class="st31" d="M81.9,147.6c0.2,1.4,0.4,2.8,0.6,4.2c0,0.7,0.3,1.6-0.7,1.9s-1.3-0.5-1.7-1.2c-3.1-4.5-4.4-9.5-5.5-14.7
	c-0.2-0.7,0-1.6-1.2-1.1c0-0.8,0-1.5,0-2.3c0-1.1-0.3-2.3,0.6-3.4c3.1,3.2,4.5,7.3,6.1,11.2C80.7,144,82.1,145.5,81.9,147.6z"/>
<path class="st32" d="M79.1,204.9v0.7c-5.4,3.5-11.8,2.5-17.7,3.7c0.2-2.2,6.2-2.4,1.5-5.6c2.3-2.3,4.8-2.5,7.2-0.3
	c1.9,1.6,3.8,2.3,6.2,1C76.9,205.8,77.9,205.7,79.1,204.9z"/>
<path class="st28" d="M238.2,74c0.1,1,0.2,1.5,0.2,2.1c0.1,1.3-0.4,2.6-1.7,2.9c-1.6,0.5-2.1-1-2.6-2c-0.7-1.4-1.1-3-1.1-4.7
	c-0.1-1.1,0.5-2.1,1.5-2.5c1-0.5,1.5,0.1,2.2,0.6c2.7,1.8,5.6,3.6,8.3,5.4c1.3,0.9,2.4,2.2,1.6,3.8c-0.8,2-2.7,3.5-4.8,3.7
	c3.9-5,3.9-5-1.5-8.2L238.2,74z"/>
<path class="st33" d="M9.5,204.4c2.4-0.6,4.8-0.9,7-2.7c1.5-1.2,3.9-1.1,6-0.8c1.3,0.2,1.7,1.3,0.9,1.9c-2.5,1.8-5.1,3.5-7.8,5.1
	c-0.4,0.2-1.1-0.1-1.6-0.3c-1.8-0.5-3.6-1.1-5.4-1.7C7.7,204.9,8.9,204.8,9.5,204.4z"/>
<path class="st34" d="M202.5,108.6c0,2.4,0.1,4.8-2.5,4.6c-2.4-0.2-3-2.9-2.5-4.7c0.9-2.8-0.4-4-2.3-5.3c-0.5-0.3-1.4-0.7-0.7-1.5
	c0.5-0.6,1.2-0.4,1.8,0.1c3.3,2.8,7.1,4.7,10.6,7c0.5,0.3,1.4,0.5,0.8,1.4c-0.3,0.6-1.1,0.8-1.7,0.4c0,0,0,0-0.1,0L202.5,108.6z"/>
<path class="st34" d="M213.2,98c-0.1-1.6-0.2-3-0.3-4.4c0-0.6,0-1.2,0.7-1.3s0.8,0.6,0.9,1.1c0.1,0.6,0.1,1.1,0.1,1.7
	c0,1.8,1.3,4.2-0.8,5.2c-1.9,0.9-3.1-1.7-4.9-2.2c-0.4-0.1-0.6-0.7-0.9-1.1c-1-1.1-3.7-1.9-3.3-2.6c1.3-2.1,1.9-4.8,4-6.7
	c1.4,2.6-3.3,4.9,0,7.5c0.2-0.4,0.3-0.6,0.4-0.8c0.4-1,0-2.9,1.3-2.7c1.4,0.3,0.5,2,0.4,3C210.7,96.4,211.3,97.4,213.2,98z"/>
<path class="st35" d="M184.2,126.5l2-4.8c1,2.2,2.7,3.9,4.7,5.1c0.6,0.4,1.6,0.6,1.1,1.6s-1.3,0.4-2,0.1s-1.1-0.6-1.9-1.1
	c0.1,2.7-0.2,5.6-3.1,5.5s-2.9-3.2-3.1-5.6c-0.2-2-0.7-4,1.3-6.2c-0.1,2.3-0.6,4.1-0.1,5.8c0.4,0.5,0.8,1.1,1.1,1.7
	c0.2,0.5,0.5,1.1,1.2,1.1c0.3,0,0.5-0.3,0.5-0.6c0.1-0.9-0.4-1.1-1.1-1.3S183.7,127.3,184.2,126.5z"/>
<path class="st36" d="M240.1,68c0.2-1.5-0.6-3.1,0.9-3.8s2.6,0.5,3.8,1.3c0.2,0.1,0.5,0.3,0.7,0.5c0.7,1,2.9,1.8,1.9,2.8
	s-1.8-1-2.8-1.6c-0.8-0.4-1.6-1.6-2.4-0.9c-1,0.8,0,1.9,0.5,2.7c0.4,0.6,0.9,1.2,1.4,1.7c0.4,0.5,1.1,0.9,0.4,1.6
	c-0.5,0.5-1.3,0.5-1.8,0c0,0,0,0,0,0c-3.2-2.4-6.3-4.8-9.5-7.2c-0.5-0.4-1-0.8-0.6-1.4c0.6-0.8,1.3-0.5,2,0L240.1,68z"/>
<path class="st36" d="M217.7,88.7c1,1.9,1.6,3,2.2,4.2c0.3,0.7,0.7,1.4-0.2,2c-0.7,0.5-1.2,0-1.7-0.5c-1.2-1.1-2.4-2.1-3.5-3.3
	c-0.6-0.6-2.3-1-1.4-2.2s1.7,0.3,2.6,0.7c0.1-1.1-1.2-2.2,0.1-3.1c1-0.7,2,0.1,2.9,0.5c1.6,0.7,3.3,1.5,4.9,2.2
	c0.5,0.2,1.5,0.3,1,1.2c-0.4,0.6-1.1,0.8-1.8,0.5C221.4,90.4,219.9,89.7,217.7,88.7z"/>
<path class="st19" d="M257,104.9c1.1,1.9,2.5,3.7,3.2,6.2c-4.3-1.6-6.8-5.5-10.6-7.2c-0.6-0.3-0.5-0.8-0.4-1.3
	c0.9-0.2,0.4-1.4,1.1-1.7c1.6-0.9,2.5,0.3,3.5,1.1L257,104.9z"/>
<path class="st29" d="M228.1,82.8c-0.5-1.2-1.6-1.8-2.4-2.7c-0.5-0.6-0.7-1.2-0.1-1.7c0.4-0.5,1.1-0.5,1.6-0.1
	c0.1,0.1,0.2,0.3,0.3,0.4c0.5,1,1.3,1.9,2.1,2.6c0.5,0.4,1.1,1.3,1.9,0.6c0.6-0.6,0.1-1.5-0.3-2.1c-0.8-1-1.7-2-2.6-2.9
	c-0.3-0.3-0.8-0.7-0.4-1.2c0.3-0.5,0.9-0.6,1.4-0.2c0,0,0.1,0.1,0.1,0.1c2,1.6,4,3.2,6,4.7c0.4,0.3,0.6,1.1,0.3,1.2
	c-1.6,0.2-2.4,1.2-3.5,2.1C231,84.7,229.4,83.4,228.1,82.8L228.1,82.8z"/>
<path class="st37" d="M99,205.7c0.4-2,1.5-3.1,2-4.5c0.7-1.9,2-0.8,3-0.6c0.8,0.1,2.2-1.7,2.4,0.7c0.1,1,1.2,1,2,1.2
	s2.1-0.2,3.5,1.2C107.4,204.6,103.2,204.5,99,205.7z"/>
<path class="st38" d="M42,190.7c-3.3,2.7-11.7,0.9-16.6-3c3.1-1,3.2-1.1,5.7,0.5C34.3,190.3,37.9,190.5,42,190.7z"/>
<path class="st39" d="M228,82.7c0.1,0.4,0.3,0.9,0.4,1.3c0.4,1.6,0.6,3.3-1.2,4.3S224,88.4,223,87c-0.8-1.2-2.7-2-2.1-3.6
	s4.1-2,6.1-1c0.3,0.2,0.7,0.3,1,0.4L228,82.7z"/>
<path class="st36" d="M89.5,201c-1.9,0.3-3.9,0.2-5.7-0.4c-0.8-2.8,1.8-6.4,5.6-7.5C88.4,195.9,87.7,198.5,89.5,201z"/>
<path class="st40" d="M246.1,189l6.9-0.6c-1,2.3-1.6,4.6,1.6,5.9c-4.2,0.6-4.2,0.6-6.6-2.8c-0.5-0.7-1.3-1.1-2.1-1.3
	C244.9,189.7,245.4,189.3,246.1,189z"/>
<path class="st41" d="M108.3,189.8l4.8,1.1c-0.4,2.3-1.8,4-3.3,5.7c-0.8,0.9-1.6,0.8-2.3-0.2C105.5,194,106,191.8,108.3,189.8z"/>
<path class="st42" d="M120.7,141.8c-0.7-0.2-1.4-0.2-2.1,0l8.7-9.7c0.5,0.7,1.3,0.6,2,0.8c0.1,0.9-0.3,1.9-1.1,2.4
	c-1.4,1.4-2.8,2.8-4.2,4.2c-0.7,0.7-1,1.8-2.6,0.9C120.4,139.8,120.4,141,120.7,141.8z"/>
<path class="st39" d="M193.9,121c0,1.6-0.3,3.1-2.3,3.3c-1,0.1-4.8-3.3-4.4-4.3c0.6-1.5,1.8-3,3.6-3C193,117.2,194,118.8,193.9,121z
	"/>
<path class="st43" d="M26.2,191.7c-4.4-0.1-8.8-1.1-12.8-2.9c3.6-2.3,5-2.3,8.4,0.1C23.1,189.8,24.5,190.6,26.2,191.7z"/>
<path class="st35" d="M198.4,115.8c-0.1,1.2-0.6,2.6-2.5,2.8c-1.1,0.1-5-3.7-4.5-4.4c0.9-1.3,2-2.7,3.9-2.7S198.5,113.2,198.4,115.8
	z"/>
<path class="st37" d="M133.8,198.1c-2.2,1.4-4.2,1.2-6.2,1.3c-1.7,0.1-1.8-1.4-2.3-2.4c-0.3-0.4-0.2-1.1,0.2-1.4
	c0.1-0.1,0.3-0.2,0.4-0.2c1-0.4,1.7-1.9,3.1-0.4C130.3,196.2,132,196.9,133.8,198.1z"/>
<path class="st44" d="M107.5,196.4c1.2,0.9,2.1,0.4,2.7-0.8c0.8-1.7,1.7-3.3,2.9-4.7c1-0.2,1.8,1,2.9,0.3l-0.6,1.4
	c-2.7,1-3.8,3.7-6.7,5.2c3.5,1,6.5-0.1,9.2,0.8c-2.6,0-5.2,0-7.8,0.2C108.2,198.9,107.5,198.1,107.5,196.4z"/>
<path class="st45" d="M75.7,123.1c-3.3,1-3.5,1.3-2.6,4.7c-0.5,0.5-0.9,0.1-1.2-0.2c-0.7-0.8-0.8-5.9-0.2-6.8
	c0.7-1.1,1.4-1.1,2.2-0.2C74.7,121.2,75.3,122.1,75.7,123.1L75.7,123.1z"/>
<path class="st46" d="M103.3,164.6h0.9c-1.4,1.9-2.9,3.7-4.1,5.7c-0.9,1.5-1.8,1.5-3.2,0.7l2.1-3c0.9-1.2,1.5-2.9,3.6-2.4
	C103,165.8,103.2,165.1,103.3,164.6z"/>
<path class="st47" d="M108.2,120.8c2.4,2.8,5.7,4.2,7.4,7.2c0.3,0.6,1.4,1.2,0.3,1.8c-0.8,0.4-1.2-0.1-1.7-0.9
	c-0.9-2-3.3-2.8-4.4-4.8C109.3,123.1,108.3,122.5,108.2,120.8z"/>
<path class="st48" d="M93.8,199.2c2.4-2.8,4.8-5.6,8.7-6.2C100.9,196.9,97.5,198.2,93.8,199.2z"/>
<path class="st49" d="M250.8,208.9c-3.1,0.7-6.2,0.1-9.3,0.6c-0.7,0.1-1.4,0-1.5-0.9c-0.1-1.1,0.8-0.8,1.4-0.8c2.2,0,4.3,0,6.5,0.1
	C248.9,208.4,250.1,208,250.8,208.9z"/>
<path class="st50" d="M25.4,184.2c-5.1,0.4-6.2-0.1-7.9-3.7C20.7,180.7,23,182.2,25.4,184.2z"/>
<path class="st51" d="M209,81.6c-3.6,2.7-7.9,4.6-9,10C198.7,87.6,202.1,84,209,81.6z"/>
<path class="st52" d="M118.2,137.7c-0.7,0.8-1.3,1.5-2,2.3c-0.1,0.1-0.3,0.2-0.4,0.3c-0.6-5.3-0.4-6,2.5-6.9
	C119.4,134.8,119.1,136.3,118.2,137.7z"/>
<path class="st19" d="M95.8,149.3c-2,0.1-2.8-1-3-2.5s0.9-1.1,1.7-1.1c1.6,0,3.3,0,3.3,2.3C97.7,149.5,96.3,149,95.8,149.3z"/>
<path class="st53" d="M72.2,222.4c1.4-3.9,4.2-4.2,7.6-4.4C77.8,220.6,75.3,221.6,72.2,222.4z"/>
<path class="st54" d="M47.5,212.4L35,217.6C37.1,215.1,43,212.5,47.5,212.4z"/>
<path class="st55" d="M191.2,217.2c-3.6,1.6-7.3,0.9-11,0.5C183.9,217.1,187.5,215.3,191.2,217.2z"/>
<path class="st56" d="M33.9,195.6c-2.4,1.1-4.7,2.6-7.7,1.9C28.3,194.2,31.4,195.7,33.9,195.6z"/>
<path class="st57" d="M184.2,126.5c0.5,1.1,0.5,1.1,2.2,0.2c-0.2,1.6,1.8,3.9-0.7,4.3c-2.1,0.4-2.1-2.3-2.5-4L184.2,126.5z"/>
<path class="st58" d="M132,215.8c0.7,0.9,2.1,0,2.8,1c-4.8-0.2-9.6,0.1-14.3,0.8l-0.1-1L132,215.8z"/>
<path class="st59" d="M195,217.4c1.4-0.1,3.4-1.2,2.8,1.8c-0.2,1,0.8,1.1,1.6,1.1h2.8c-1.8,0.8-3.6,0.4-5.5,0.3
	C194.5,220.5,195.9,218.4,195,217.4z"/>
<path class="st60" d="M262.9,118.1c0.6,3-1.5,4.5-2,6.5c-0.1,0.4-0.5,0.2-0.7,0.1c-0.5-0.3-0.8-0.9-0.6-1.4
	C260,121.3,261.3,120,262.9,118.1z"/>
<path class="st61" d="M53.7,230.6l11.7-1.2C61.6,231.4,57.5,231.3,53.7,230.6z"/>
<path class="st62" d="M262.8,194.2l8.2-2C270.2,194.3,268.4,194.8,262.8,194.2z"/>
<path class="st63" d="M267.9,209l9.8-1.1l0.1,0.9c-3.1,1.4-6.6,0.4-9.9,0.6c-0.2-0.1-0.3-0.2-0.2-0.3
	C267.7,209.1,267.8,209,267.9,209z"/>
<path class="st64" d="M96.1,106.6l-1.7-1.2c0.4-1.3,0.8-3.1,2.3-3c1.3,0.1,1,1.9,2,3.5C97.1,105,95.9,104.5,96.1,106.6z"/>
<path class="st65" d="M115.7,62.3c0.7,2.9-1,5.1-4.5,5.5c1.1-1.7,3.4-2.3,3.3-4.5C114.9,63,114.9,62.2,115.7,62.3z"/>
<path class="st66" d="M293.5,207.8c0.5,0.9,1.8,0.1,2.2,1h-11.4C287.4,208.7,290.4,207.6,293.5,207.8z"/>
<path class="st67" d="M132,104.3c-0.6-3.1,1.3-5,3.4-6.8C134.6,99.9,133.8,102.4,132,104.3z"/>
<path class="st68" d="M134.8,223.7l0.6,1c-2.4,0.1-4.8,1-7.8,0.4C129.9,224.1,132.3,223.6,134.8,223.7z"/>
<path class="st69" d="M136.9,193.4c1.9-3.4,5.2,0.7,7.1-1.9C143,193.1,140.7,193.8,136.9,193.4z"/>
<path class="st70" d="M92.6,162.4c-1.1-0.8-1-2.3-2-3.2l-0.2-1.3c1.3,0.4,2.4,1.1,3.3,2c0.9,0.8-0.3,1.2-0.6,1.8
	C92.9,162,92.7,162.2,92.6,162.4z"/>
<path class="st71" d="M101.2,105.5c2.7,1.1,3.6,3.3,4,5.9L101.2,105.5z"/>
<path class="st72" d="M91.3,213.5l-4,2.3C86.7,211.6,89.8,213.6,91.3,213.5z"/>
<path class="st73" d="M43.9,201.5l5.2,1.1c-1,0.3-2,0.5-3,0.9C44.1,204.2,43.7,203.2,43.9,201.5z"/>
<path class="st74" d="M98.1,154.5c-0.6-3,1.2-3.6,3.7-4.3C100.8,151.8,99.6,153.2,98.1,154.5z"/>
<path class="st75" d="M87.9,166.8c0.6-1.3,0.2-2.7,0.4-4.4l2.3,2C89.7,165.2,89.3,166.5,87.9,166.8z"/>
<path class="st76" d="M105.7,134.4c-0.7-0.5-1.1-1.2-0.3-1.8c1.2-1.1,1.1-2.5,1.1-3.9c1,0.2,1.3,1,1.7,1.7
	C106.6,131.3,106.7,133.2,105.7,134.4z"/>
<path class="st77" d="M118.2,137.7c0-1.4,0-2.9,0-4.3l0.6-0.6c1.2,0.3,0.4,2.2,1.8,2.3C120.1,136.2,119.2,137.1,118.2,137.7z"/>
<path class="st78" d="M35.7,230.3c0.1-0.4,0.1-0.5,0.2-0.5c1.2-0.5,2.5-1,3.9-0.5c0.2,0.1,0.3,1,0.2,1
	C38.7,230.8,37.3,230.4,35.7,230.3z"/>
<path class="st79" d="M191.7,207.9c-1.8,0.6-3.8,0.7-5.7,0.1C187.9,207.8,189.8,206.8,191.7,207.9z"/>
<path class="st80" d="M9.5,204.4c-0.4,0.5-1.4,0.7-0.9,1.6c-1.7,0-3.4-0.4-5-1L9.5,204.4z"/>
<path class="st81" d="M117.2,227.1c0.1,1.2,1.1,1.3,2,1.6c0.5,0.2,0.9,0.5,0.7,1c-0.3,0.7-0.9,0.6-1.4,0.3c-1-0.6-2.2-1.1-2.5-2.5
	L117.2,227.1z"/>
<path class="st82" d="M104,215.2c-0.2,0.6-0.6,1-1,0.9c-1-0.2-1.7-0.9-2-1.9c0-0.1,0.8-0.8,1-0.7C102.8,213.8,103.5,214.4,104,215.2
	z"/>
<path class="st83" d="M74,131c-0.2,1.1,0.5,2.4-0.6,3.4c-0.4-0.8-1.4-0.3-1.9-0.9C72.1,132.4,72.9,131.5,74,131z"/>
<path class="st84" d="M113.2,213.7c-1.2-0.3-2.2-0.6-3.2-0.8c-0.5-0.1-0.9-0.3-0.6-0.9s0.6-1.1,1.3-0.6
	C111.5,212,112.5,212.4,113.2,213.7z"/>
<path class="st85" d="M43.3,228.1c0.6-0.3,0.9-0.5,1.1-0.5c1.1,0.1,2.2-0.8,3.2-0.1c0.1,0.2,0,0.5-0.1,0.7
	C46.2,229.1,44.9,228.7,43.3,228.1z"/>
<path class="st86" d="M199.2,196c-2.1,0.9-4.4,0.9-6.5,0c1.5-0.5,3.2,0,4.6-1C198.3,194.2,198.4,195.8,199.2,196z"/>
<path class="st87" d="M74.5,226.4c-0.2-0.5,0.7-1.1,0-1.6c1.4-1.1,1.9,1.2,3.4,0.3C76.9,227.2,75.7,226.7,74.5,226.4z"/>
<path class="st34" d="M267.3,135c-1.4,0.4-2.9,1.2-3.9-0.9C264.7,133.8,266.2,134.1,267.3,135z"/>
<path class="st88" d="M87.9,102.8c0.5-1.8,1.4-3.5,2.7-4.8C90.7,100.3,90.7,100.3,87.9,102.8z"/>
<path class="st89" d="M82.8,104.8c-0.5-1.2-2.1-1.9-0.9-3.4c0.2-0.2,0.8-0.9,1.1-0.4C83.6,102.2,83.5,103.7,82.8,104.8z"/>
<path class="st90" d="M4.6,221.9c-0.4-0.7-1.1-0.4-1.7-0.6c2-1,4.2-0.1,6.3-1C7.8,221.2,6.2,221.8,4.6,221.9z"/>
<path class="st91" d="M62,194.7l5.1-0.6C65.5,195.1,64,196.7,62,194.7z"/>
<path class="st92" d="M182.7,75.9c-1,0.8-1.8,0.4-2.1-0.6c-0.2-0.8,0.4-1.3,1.1-1.2c1.2,0.1,1.6,0.8,0.9,1.9L182.7,75.9z"/>
<path class="st93" d="M75.7,123.1c1.7,0.7,1.8,2.4,2.3,4.3C76.7,126.3,75.8,124.7,75.7,123.1L75.7,123.1z"/>
<path class="st94" d="M115.7,62.3c0,0.8-0.1,1.5-1.2,1c0-0.2-0.1-0.4-0.2-0.5c-0.8-0.9-0.7-2,0.3-2.3S115.2,61.7,115.7,62.3z"/>
<path class="st95" d="M267.9,209c0,0.1,0,0.3,0,0.4h-6.7C263.4,208.9,265.6,208.8,267.9,209z"/>
<path class="st96" d="M215.1,198.2c-1.5,0.7-3,0.9-4.3-0.6C212.3,197.5,213.8,197.1,215.1,198.2z"/>
<path class="st97" d="M129,222.7c-1,0.9-2.3,1.2-3.6,0.8C126.4,221.9,127.8,222.8,129,222.7z"/>
<path class="st98" d="M133.6,228c1-0.7,1.9-1.8,3.5-1C136.2,227.9,134.9,228.3,133.6,228z"/>
<path class="st99" d="M258.7,119.1c0.2-1.7,0.1-2.9,1.6-3.6C260.9,117.1,260,117.9,258.7,119.1z"/>
<path class="st100" d="M91.4,222.1c-1.3,1.1-2.9,1.9-4.7,2.3C88.4,222.8,89.5,222.1,91.4,222.1z"/>
<path class="st101" d="M31.8,194c-1.4,0.2-2.6,0.8-3.1-1.2C29.9,192.6,31.1,193.1,31.8,194z"/>
<path class="st102" d="M250.8,208.9c-1-0.3-2.2,0-2.8-1.1c0.9-0.1,1.9-0.2,2.8-0.1C252.1,208,251.4,208.5,250.8,208.9z"/>
<path class="st62" d="M163.9,206.8c-1.9,0.6-4,0.7-5.9,0.3C159.8,206.4,161.9,206.4,163.9,206.8z"/>
<path class="st103" d="M113.7,141.1c-0.1-0.6,0.2-1.3-0.6-1.6c0.1-0.7,0.6-1.1,1.4-1.8C114.5,139.1,114.8,140.2,113.7,141.1z"/>
<path class="st104" d="M70.7,214.8c-0.6,1-1.7,1.5-2.9,1.5C68.3,215.2,69.5,214.7,70.7,214.8z"/>
<path class="st105" d="M285.5,118.3c0.5-0.7,0-2.4,1.3-2.3c1.3,0.2,2.2,1.2,2.4,2.5c0,1.3-1.5,1.6-2.6,1.7
	C285.3,120.3,285.5,119.2,285.5,118.3z"/>
<path class="st106" d="M253.8,102l-3.5-1.1c0.4-1.3,0-2.8,1-4.1C252.6,98.3,254.2,99.7,253.8,102z"/>
<path class="st107" d="M261.4,100.9c-0.4,1.1,1,1.8,0.6,3.2c-1.8-1-3.6-1.6-4.8-3.3S257,99,258.3,99
	C259.4,99.6,260.5,100.2,261.4,100.9z"/>
<path class="st108" d="M272,112c-1.9-1-3.5-2.4-4.8-4.1C270.5,107.6,270.8,110.3,272,112z"/>
<path class="st109" d="M261.4,100.9c-1.8,0.6-2.8-0.2-3.1-1.9C260.1,98.5,261.9,97.9,261.4,100.9z"/>
<path class="st29" d="M98.3,41.3c-0.6,2.2-1.1,4-3.7,3.4c-1-0.2-1.7-0.8-1.3-1.8C94.3,40.5,96.3,41.2,98.3,41.3z"/>
<path class="st110" d="M54,111.8c-0.5,0.9-0.8,2.3-2.2,2.3s-1.3-1.1-1.3-2.1c0-1.4,1-1.4,2-1.3C53.2,110.6,54.1,110.5,54,111.8z"/>
<path class="st111" d="M188.6,78.8c1.8,0,2.9,0.4,2.6,1.5c-0.4,1.8-2.1,2.2-3.6,2.6c-0.6,0.2-1.2-0.1-1.4-0.7
	c-0.1-0.2-0.1-0.4,0-0.6C186.5,79.9,187.4,78.7,188.6,78.8z"/>
<path class="st92" d="M137.1,138.8c-0.1,1-1,1.8-2,1.9c-0.9,0.1-1.5-0.3-1.4-1.2c0.2-1.1,1.1-1.8,2.1-1.9
	C136.6,137.6,137.1,137.8,137.1,138.8z"/>
<path class="st112" d="M181,88.5c-0.8,0-1.4-0.2-1.2-1.1c0.2-1.1,1.1-1.4,2.1-1.5c0.7,0,1.3,0.3,1.2,1.2
	C183,88.3,181.9,88.3,181,88.5z"/>
<path class="st113" d="M117.2,163.8c0,0.8-0.7,1.4-1.5,1.3c0,0,0,0,0,0c-0.7,0.1-1.3-0.5-1.3-1.2c0-0.1,0-0.2,0-0.3
	c0.1-0.8,0.8-1.3,1.6-1.2c0,0,0.1,0,0.1,0c0.6,0,1.2,0.5,1.2,1.1C117.2,163.6,117.2,163.7,117.2,163.8z"/>
<path class="st114" d="M161.4,109.4c0.8,0.1,1.3,0.6,1.1,1.3c-0.1,1-1,1.7-1.9,1.6c-0.5-0.1-1-0.5-0.9-1.1c0,0,0-0.1,0-0.1
	C159.7,110.3,160.4,109.5,161.4,109.4z"/>
<path class="st115" d="M174.5,95.3c-0.6,0-1.2-0.2-0.9-1c0.2-0.9,0.9-1.5,1.7-1.6c0.9-0.1,1.1,0.6,1,1.3
	C176.2,95,175.4,95.2,174.5,95.3z"/>
<path class="st116" d="M144.8,131.1c-0.1,0.8-0.4,1.3-1.2,1.4c-0.6,0.1-1.2-0.4-1.3-1c0-0.1,0-0.2,0-0.2c0-0.6,0.4-1.1,1-1.1
	c0.6-0.2,1.2,0.2,1.4,0.8C144.8,130.9,144.8,131,144.8,131.1z"/>
<path class="st117" d="M126.8,150.8c0,0.7-0.6,1.2-1.3,1.2c-0.6,0-1.1-0.4-1.2-1c0-0.1,0-0.2,0-0.2c0-0.6,0.4-1.2,1-1.2
	c0.1,0,0.1,0,0.2,0C126.2,149.5,126.7,150.1,126.8,150.8C126.8,150.8,126.8,150.8,126.8,150.8z"/>
<path class="st112" d="M151.2,121.4c-0.6,0-1-0.4-1-1c0-0.1,0-0.2,0-0.3c0-0.7,0.5-1.2,1.2-1.2c0,0,0.1,0,0.1,0
	c0.6-0.1,1.1,0.4,1.2,1c0,0.1,0,0.2,0,0.3C152.6,121,152.1,121.4,151.2,121.4z"/>
<path class="st118" d="M167.7,103.3c-0.7,0-1.2-0.3-1.2-1.2c0-0.8,0.7-1.4,1.4-1.3c0,0,0,0,0.1,0c0.6,0,1,0.4,1.1,0.9c0,0,0,0,0,0.1
	C169.1,102.6,168.5,103.3,167.7,103.3z"/>
<path class="st57" d="M112.5,171.5c0,0.7-0.6,1.3-1.3,1.3c-0.6,0-1-0.4-1.1-0.9c0,0,0-0.1,0-0.1c0-0.7,0.5-1.2,1.1-1.2
	c0,0,0.1,0,0.1,0C112.1,170.4,112.4,170.9,112.5,171.5z"/>
<path class="st119" d="M123.7,112.9c-0.3-1.4-0.5-2.3,0.5-3.1c0.2,0,0.3,0,0.5,0.2C124.9,111,124.6,112.2,123.7,112.9z"/>
<path class="st120" d="M144.4,116.6c-0.1,0.6-0.7,0.8-1.4,0.8c-0.5,0-0.9-0.4-0.9-0.9c0.1-0.7,0.7-1.1,1.4-1c0,0,0.1,0,0.1,0
	C144.1,115.5,144.5,115.8,144.4,116.6z"/>
<path class="st83" d="M80.5,149.9c-2.8-4.2-3.8-8.9-4.6-13.8C77.2,140.8,79.4,145.2,80.5,149.9z"/>
<path class="st121" d="M234.9,71.8c1.4,1.4,2,3.5,1.6,5.4C235,75.8,234.5,73.7,234.9,71.8z"/>
<path class="st121" d="M200.6,111.7c-0.3-0.2-0.4-0.3-0.5-0.3c-1.2-1-1.5-2.6-0.9-4c0.2-0.3,0.5-0.4,0.8-0.2c0.1,0,0.1,0.1,0.1,0.1
	C201.4,108.5,201.5,110.3,200.6,111.7z"/>
<path class="st122" d="M223.7,84.2c-0.1-0.7,0.3-1.1,0.9-1.1c1.4,0.1,1.9,1,2,2.2c0.1,0.6,0,1.5-0.9,1.3
	C224.7,86.3,223.9,85.4,223.7,84.2z"/>
<path class="st123" d="M192.2,122.7c-1.6-0.9-2.6-1.7-2.3-3.4c0.1-0.6,0.6-0.7,1.1-0.4C192.7,119.6,192.2,121,192.2,122.7z"/>
<path class="st124" d="M196.8,115.4c-0.1,0.5,0.2,1.4-0.6,1.2c-1.3-0.2-1.8-1.3-2.1-2.4c-0.2-0.5,0-1,0.5-1.2c0.1,0,0.2-0.1,0.3-0.1
	C196.2,113.2,196.7,114.2,196.8,115.4z"/>
</svg>
