<svg xmlns="http://www.w3.org/2000/svg" width="409.98" height="257.27" viewBox="0 0 409.98 257.27">
  <defs>
    <style>
      .a {
        fill: none;
      }

      .b {
        fill: #2cabc7;
      }

      .c {
        fill: #010101;
      }

      .d {
        fill: #000202;
      }

      .e {
        fill: #020303;
      }

      .f {
        fill: #010303;
      }

      .g {
        fill: #040505;
      }

      .h {
        fill: #030404;
      }

      .i {
        fill: #2dabc6;
      }

      .j {
        fill: #2c2c2c;
      }

      .k {
        fill: #212121;
      }

      .l {
        fill: #2e2e2e;
      }

      .m {
        fill: #2eaac5;
      }

      .n {
        fill: #5c5c5c;
      }

      .o {
        fill: #31a9c3;
      }

      .p {
        fill: #701010;
      }

      .q {
        fill: #38a5bc;
      }

      .r {
        fill: #cabebe;
      }

      .s {
        fill: #218095;
      }

      .t {
        fill: #e9e9e9;
      }

      .u {
        fill: #fefefe;
      }

      .v {
        fill: #fdfdfd;
      }

      .w {
        fill: #740707;
      }

      .x {
        fill: #fcfcfc;
      }

      .y {
        fill: #fdfefe;
      }

      .z {
        fill: #2caac6;
      }

      .aa {
        fill: #f9f9f9;
      }

      .ab {
        fill: #fbfcfc;
      }

      .ac {
        fill: #f8f8f8;
      }

      .ad {
        fill: #f6f6f6;
      }

      .ae {
        fill: #f8f9f9;
      }

      .af {
        fill: #160202;
      }

      .ag {
        fill: #2da9c4;
      }

      .ah {
        fill: #f6f8f9;
      }

      .ai {
        fill: #f7f7f7;
      }

      .aj {
        fill: #f4f4f4;
      }

      .ak {
        fill: #f5f5f5;
      }

      .al {
        fill: #29a2bc;
      }

      .am {
        fill: #e8e9e9;
      }

      .an {
        fill: #f2f2f2;
      }

      .ao {
        fill: #2ba2bc;
      }

      .ap {
        fill: #35aac4;
      }

      .aq {
        fill: #ebebeb;
      }

      .ar {
        fill: #f1f1f1;
      }

      .as {
        fill: #112125;
      }

      .at {
        fill: #670a0a;
      }

      .au {
        fill: #dbdbdb;
      }

      .av {
        fill: #510606;
      }

      .aw {
        fill: #39a5bd;
      }

      .ax {
        fill: #2ba4bf;
      }

      .ay {
        fill: #ddd;
      }

      .az {
        fill: #5a5a5a;
      }

      .ba {
        fill: #dedede;
      }

      .bb {
        fill: #2799b2;
      }

      .bc {
        fill: #1d7083;
      }

      .bd {
        fill: #bed5da;
      }

      .be {
        fill: #289db7;
      }

      .bf {
        fill: #131313;
      }

      .bg {
        fill: #215864;
      }

      .bh {
        fill: #49a9bd;
      }

      .bi {
        fill: #cdcdcd;
      }

      .bj {
        fill: #144d5a;
      }

      .bk {
        fill: #22859b;
      }

      .bl {
        fill: #bebfbf;
      }

      .bm {
        fill: #5d0808;
      }

      .bn {
        fill: #621616;
      }

      .bo {
        fill: #134c58;
      }

      .bp {
        fill: #c0acac;
      }

      .bq {
        fill: #196171;
      }

      .br {
        fill: #1a6778;
      }

      .bs {
        fill: #dacccc;
      }

      .bt {
        fill: #540505;
      }

      .bu {
        fill: #2592aa;
      }

      .bv {
        fill: #499cae;
      }

      .bw {
        fill: #dfdcdc;
      }

      .bx {
        fill: #bca4a4;
      }

      .by {
        fill: #a87878;
      }

      .bz {
        fill: #9b9b9b;
      }

      .ca {
        fill: #196070;
      }

      .cb {
        fill: #2c7686;
      }

      .cc {
        fill: #298295;
      }

      .cd {
        fill: #0d343c;
      }

      .ce {
        fill: #1b6a7b;
      }

      .cf {
        fill: #5d0606;
      }

      .cg {
        fill: #1c6f81;
      }

      .ch {
        fill: #1b6778;
      }

      .ci {
        fill: #e5e9ea;
      }

      .cj {
        fill: #207d92;
      }

      .ck {
        fill: #888;
      }

      .cl {
        fill: #c9c3c3;
      }

      .cm {
        fill: #11424d;
      }

      .cn {
        fill: #a3b4b8;
      }

      .co {
        fill: #1b1b1b;
      }

      .cp {
        fill: #4a0505;
      }

      .cq {
        fill: #bdbcbc;
      }

      .cr {
        fill: #646464;
      }

      .cs {
        fill: #a8c6cd;
      }

      .ct {
        fill: #165462;
      }

      .cu {
        fill: #124752;
      }

      .cv {
        fill: #9e9e9e;
      }

      .cw {
        fill: #175c6b;
      }

      .cx {
        fill: #858889;
      }

      .cy {
        fill: #b7d6dd;
      }

      .cz {
        fill: silver;
      }

      .da {
        fill: #0e3841;
      }

      .db {
        fill: #690c0c;
      }

      .dc {
        fill: #e2e2e2;
      }

      .dd {
        fill: #ded7d7;
      }

      .de {
        fill: #ccbcbc;
      }

      .df {
        fill: #760f0f;
      }

      .dg {
        fill: #e6e6e6;
      }

      .dh {
        fill: #282828;
      }

      .di {
        fill: #1c1c1c;
      }

      .dj {
        fill: #2d2d2d;
      }

      .dk {
        fill: #313131;
      }

      .dl {
        fill: #222;
      }

      .dm {
        fill: #464646;
      }

      .dn {
        fill: #2a2a2a;
      }

      .do {
        fill: #121212;
      }

      .dp {
        fill: #e2cccc;
      }

      .dq {
        fill: #3c3c3c;
      }

      .dr {
        fill: #181818;
      }

      .ds {
        fill: #141414;
      }

      .dt {
        fill: #111;
      }

      .du {
        fill: #191919;
      }
    </style>
  </defs>
  <title>graphic-titanic</title>
  <g>
    <path class="a" d="M.05,257.23Q.05,129.7,0,2.16C0,.4.48,0,2.61,0Q205,.08,407.37,0C409.5,0,410,.4,410,2.16q-.09,126.48,0,253c0,1.76-.48,2.16-2.61,2.16Q203.72,257.2.05,257.23Z"/>
    <path d="M116.55,119.07c-.82-3.64,2.24-7.31-.16-11-2.09-3.18-3-6.92-4.73-10.3-4.84-9.41-10.36-18.47-14.8-28.1-1.43-3.09-1-3.87,2.21-4.94a5.77,5.77,0,0,0,2.56-1.12c3.13-3.71,7.93-5.32,11.09-9,1.64-1.91,3.18-1.67,3.61.69,2.06,11.21,9.87,19.44,14.85,29.12a25.69,25.69,0,0,0,3.49,4.46c1.77,2.15,3.23,1.89,5.12.12,1.43-1.34,1.83-3.84,3.25-4.45,3-1.3,3.59-4.17,5.21-6.33a25.32,25.32,0,0,0,2-3.75c1.62-3,2.94-3.63,6.2-2.24,4.32,1.86,9.35,1.61,13.28,4.6,1.05.8,1.55-.36,2-.91,2-2.47,4.11-5,6-7.57a4.64,4.64,0,0,1,4.58-2.29c-3.17-3.34-5.93-6.64-9.54-9.05C161.83,49.74,153,40.31,145,30c-.86-1.12-1.78-2.18-2.94-3.57-.74,1.9-.43,3.57-.59,5.16-.1,1-.22,2.12-1.42,2.12-1.39,0-1.5-1.22-1.45-2.3a45.16,45.16,0,0,1,.37-5.95,7.72,7.72,0,0,0-2.13-6.76c-.82-.93-2.41-2-1.13-3.31,1.42-1.45,2.06.92,3.49,1.29.08-1.19.11-2.35.25-3.49.11-.85.36-1.83,1.44-1.75.92.06,1.06,1,1.09,1.76a44.09,44.09,0,0,1,.06,5.39,7.69,7.69,0,0,0,2,5.68c9.31,11.64,19.08,22.76,31.67,31.1,4.87,3.23,8.27,8.31,13.36,11.4,1.22.74,2,1.6,3.3.3A1.49,1.49,0,0,1,194.5,67c1,1.12-1.1,1-.84,1.94,1.3,1.13,2.82-.59,4.4.16,2.2,1,1.37,2.54.9,4.87,3.88-4.4,8.13-7.34,11.59-11.07,5.23-5.64,11.73-9.85,16.93-15.54A74,74,0,0,0,237.1,34.4a35,35,0,0,1,9.12-10.71,4,4,0,0,1,6,1.21A5.26,5.26,0,0,1,253,27c.17,3.67,2.88,6.47,3.28,10.06.22,1.91,2.61,2.54,3.05,4.33,1.24,5,4.21,9.29,5.7,14.18,1.42,4.66.45,8.94-2.22,12.92a29.89,29.89,0,0,0-7.09,12.7c-1.26,4.34-2.93,8.55-4.38,12.83a47.9,47.9,0,0,0-1.8,8.19,11.24,11.24,0,0,1,.41,1.64,8.44,8.44,0,0,1-.16,1.73c-.92,5.64-.54,11.31-.3,17,.09,2.06.4,4.13.38,6.21a16.37,16.37,0,0,0,.06,2,4.11,4.11,0,0,0,2,3.57c1,.54,1.53-.43,2.08-1,1.07-1.14,2.22-2.05,1.48-4.12-1.75-4.88-.32-9.66,1.11-14.37a3.11,3.11,0,0,1,2-1.91c2.16-.56,4.34.27,6.5-.12,1.27.54,1.13,1.25.59,2.38-.82,1.75-1.86,3.66,1.72,3.85,2.36.12,2.62,4.85.43,7.13-.72.75-1.54,1.39-2.32,2.09l-2.14,1.92c.89,1.26,2.27,1.2,3.52,1.39,2.45.37,3.86,1.83,3.7,4.21s-2.27,2.32-4.09,2.52c-3.77.42-5.69-1.39-6.06-5.56-1.88,2.07-1.72,5.06-5.33,5.38l5.81,3.3a10.13,10.13,0,0,1,4.48,5,5.23,5.23,0,0,1-1.42,6.4c-9.44,9-19.63,17.22-27.65,27.63a58.82,58.82,0,0,1-6.61,7.4c-1.77,1.63-.62,2.9.05,4.46.83,2,2,1.15,3.23.78q3.54-1.06,7.05-2.19a2.48,2.48,0,0,0,1.64-.93c6-9.15,14.49-14.5,25-16.82,1.22-.26,2.55-.39,3.28.94s.14,2.58-.75,3.64a55.33,55.33,0,0,1-7.67,7.16c-1.16.94-2.57,1.62-3.36,3a2,2,0,0,1-.38,1.05c-1.5,2-.13,2.23,1.41,2.16a37.54,37.54,0,0,0,7-1.14c1.84-.43,3.66-.9,5.52-1.24,2.07-.37,3.61.2,4.08,2.4.3,1.39,1.09,1.57,2.27,1.34a8.61,8.61,0,0,1,2.82-.07c1.79.27,3.16,1.1,2.86,3.12-.28,1.83.48,1.78,1.87,1.6a60.39,60.39,0,0,1,7.58-.84,12.76,12.76,0,0,1,3.37.36c4.7,1.29,5.62,4.35,2.19,7.76-1.62,1.61-2.85,3.89-5.58,4-2.53-.09-5,.58-7.73.18-.23,0,.23.65.12.28a88.43,88.43,0,0,1,10.29-.41,10.42,10.42,0,0,0,5.56.54c4.13-.5,8.32-.22,12.42-1.07a1.75,1.75,0,0,1,.56,0c1.7.3,3.9.6,4,2.5.06,2.19-2.2,2.22-3.9,2.23-7.35,0-14.72.15-22.06.23-12.85.12-25.7.34-38.56.36a11,11,0,0,1-3.62-.21,32.38,32.38,0,0,1,8.09,3.72c1.61.93,2.69,2.2,1.42,4.18a3.32,3.32,0,0,1-2.83,1,170.23,170.23,0,0,1-18-1.72c-3.54-.58-7.19-1.18-10.19-3.24-4.81-3.31-10.27-3.65-15.71-3.67-5.85,0-11.7-.21-17.55-.06-.9,0-1.88-.3-2.82.49,1,1.16,2.26,2,2.9,3.42,1.55,3.46,2.21,3.69,7.26,2.63a39,39,0,0,1,7.62-.79,8,8,0,0,1,3.83.89,4.23,4.23,0,0,0,2.41.75c4.82-.33,9.59.86,14.44.22,4.32-.57,8.37-.13,11.68,3.55,1.7,1.88,4.6,2.57,6.34,4.67a12.24,12.24,0,0,0,1.92,1.67c1,.85,1.72,1.82,1.4,3.2a3.15,3.15,0,0,1-2.88,2.38,71.26,71.26,0,0,1-7.32.83,65.19,65.19,0,0,1-19.95-2.17c-5.15-1.37-10.08-1.05-15.15-.41-4.61.58-9.12,1.63-13.67,2.53-2.06.41-3.94.45-5.42-1.37-.65-.81-1.66-.79-2.6-.93a68.5,68.5,0,0,0-15.28-.29c-1.73.12-3.24.06-4.12-1.68-.6-1.19-1.72-1.35-2.85-1.56-5.33-1-10.53,0-15.74,1a31,31,0,0,1-4.16.84,18.44,18.44,0,0,1-3.23.43c-3.06-.72-6.18-.39-9.28-.48-4.2-.13-5.22-1.38-4.31-5.58-2.94.32-5.84-1.73-8.74.25a2.27,2.27,0,0,1-1.66.12c-.41-.84-.5-2.14-2-1.15a4.15,4.15,0,0,1-2.18.56c-1.23,0-2.6.18-3.23-1.18s.59-2,1.41-2.77,1.66-1.68,1-2.93-1.84-1.15-3-.92a13.81,13.81,0,0,0-5.63,2.56c-1.67,1.25-3.57,2.13-5.28,3.29-3.91,2.65-8,3.77-12.55,2.06a2,2,0,0,0-1.92.14c-3.16,2.33-7,2.72-10.59,3.67-6,1.76-12,3.18-18.24,2.88-2-.09-3.37,1.23-5.12,1.57-7.2-2-14.6-1.83-21.95-1.88-3.47,0-6.31-1-8.51-3.67-2.14-.24-4.28-.46-6.41-.73-.64-.08-1.62-.1-1.85-.49-1.48-2.6-3.76-1.59-5.85-1.46-3.61.23-3.61.23-3.4-4.22.81-1.54,2.52-1.07,3.75-1.66A19.27,19.27,0,0,0,8,220.79c-1.3.65-3.41.26-5.28,1.07a2.25,2.25,0,0,1-2.06-.42V216.9a5.65,5.65,0,0,1,3.69-1.25,55.42,55.42,0,0,1,9.64,0c4.11.35,4.9,1.68,3.78,5.55-.39,1.33.1,2.89-1.49,4.3a93.84,93.84,0,0,0,11.51-2.9c2.88-1,5.86-1.52,8.76-2.35,1.21-.35,2.47-.88,3.32.48s0,2.49-1.05,3.43a3.19,3.19,0,0,1-1,.59,33.18,33.18,0,0,1,10.35-1.26c1.83.1,3.43.49,4,2.52.37,1.39,1.34,1.37,2.44,1.22a160.39,160.39,0,0,1,19.21-1.38,20.09,20.09,0,0,0,2.46.1,1.93,1.93,0,0,0-2.16-.39,6.45,6.45,0,0,1-1.94.4c-4.16.21-5.35-1.59-3.41-5.64-3.23.87-6.31,1.6-9.38,2.37-1.57.39-3.11.5-3.88-1.28s.5-2.63,1.65-3.52,2.53-1.54,3.55-2.91a6.28,6.28,0,0,0-4.34-.66,37.88,37.88,0,0,0-12.56,3.32,56,56,0,0,1-8.56,3,7.42,7.42,0,0,1-2.52.3A3.1,3.1,0,0,1,30,219.24c-.61-1.22,0-2.19.77-3.09a16.69,16.69,0,0,1,5.08-4,4.21,4.21,0,0,0,2.57-3.45c-.31-1.17-1.4-1.16-2.25-1.42a21.85,21.85,0,0,0-10-.85c-2.52.42-5,1.3-6,4.1-.65,2.44-2.22,2.8-4.32,1.89A56.72,56.72,0,0,0,4,209,4.14,4.14,0,0,1,.72,207v-4.76c1-1.44,2.56-1,3.87-.9,2.12.08,3.88-.38,5.11-2.21l9-1.11c2-.29,3.07-2.09,4.78-2.86.29-.14-.05-.66-.39-.88a55,55,0,0,1-11.21-3.06c-1.12-.45-2.49-.81-2.57-2.33s1.22-2,2.32-2.55c1.54-.7,3.12-1.3,4.85-2-.32-.48-.59-.83-.81-1.21-.83-1.47-2.06-3-.71-4.68,1.22-1.53,2.94-.88,4.51-.62a3.14,3.14,0,0,1,1.35.41c5.41,4.2,12.27,5.18,18.26,8.17,3.47,1.73,7.48,1.06,11-1A16.93,16.93,0,0,0,51.77,184c4-3.24,6.07-2.46,7,2.69.29,1.6.61,3.16,2.65,3.38a7.37,7.37,0,0,1,2.48,0c1.16.15,2.23.49,2.41,1.84s-.77,1.76-1.76,2.15c-.43.16-.92.17-1.24.5,1.46.67,2.48-.32,3.61-.89a42,42,0,0,0,8.86-6.28,15.89,15.89,0,0,0,3.73-5.3c1.09-2.48.12-3.71-2.67-3.36-1.69.2-3.36.49-5,.68-1,.12-2-.2-2.17-1.34a1.75,1.75,0,0,1,1.59-2c1.74-.37,3.52-.56,5.32-.83-.56-1.63-2-.78-2.94-1.12-1.41-.5-3.71-.05-3.57-2.36.12-2,2.23-1.14,3.51-1.57a6,6,0,0,0-1.29-3,75.13,75.13,0,0,1-8.12-17.77c-1.14-3.82-3.9-6.67-6.06-9.87-.82-1.22-1.43-2.22-.18-3.48a2.47,2.47,0,0,0,.65-1.21c.82-5.09,3.28-9,8-11.35,1.59-.8,1.78-2.83,2.69-4.25,2.26-3.54,5.57-3.62,7.61.09,4.8,8.72,9,17.73,10.74,27.6.58,3.25,2.67,5.14,4.7,7,1.42,1.34,2.3-.68,3.75-1.68-3.26-.3-5.06-1.68-5.8-4.37-.84-3.06.43-4.81,3.57-4.9,2-.05,4.6,1,5.5-1.55s-1.86-3.35-3.15-4.82a49.52,49.52,0,0,1-8.07-12c-3.17-6.86-5.75-14-9-20.82-1.5-3.15-1.87-6.42,1.65-8.84a5.84,5.84,0,0,0,2.16-3.28c.87-3.19,3.72-5.17,4.84-8.23.41-1.13,1.83-.87,2.81-.65,2,.44,2.59,3.27,5,3.09-1.53,1.6.86,2.26.9,3.69A14.57,14.57,0,0,0,102,101.23a21.48,21.48,0,0,1,6.06,8.12c1.07,2.31,2.25,4.58,3.38,6.86,1.61,2.27,2.26,5.16,4.41,7.07.56.5.92,1.86,2.14.89C118.13,122.29,115.39,121.22,116.55,119.07Z"/>
    <path class="b" d="M259.19,220.74c.86-1.78.05-2.78-1.5-3.62-3.16-1.72-6.52-3-9.85-4.75.94-.05,1.87-.14,2.81-.15,10.78-.09,21.57.6,32.34-.07,3.75-.23,7.55-1.07,11.25-.52,6.91,1,13.75.11,20.62,0,1.09,0,3.13.6,3-1-.11-1.29-2.34-2.18-3.66-1.91-4.48.93-9,.61-13.54,1.09-1.62.17-3.6.9-5-.93-.56-.73-2,.5-2.23-1,2.57-1.34,4.27-3.67,6.18-5.7,1.41-1.49.5-3.45-1.79-4.42-2.55-1.07-5.23-.73-7.86-.47s-5,.64-7.49.95c-.54-.8.1-1.16.3-1.62,1-2.36.44-3.33-2.19-3.41-1.78,0-3.58,0-5.62,0-.16-1,.91-2.41-.38-3.44s-2.75-.35-4.07-.05c-3.69.84-7.32,2-11.15,2-1.33,0-3.35.6-3.79-.87-.36-1.23,1.25-2.33,2.53-3,1.41,0,2.83,0,4.23-.15,2.23-.23,4.71.21,6-2.53.31-.65,1.59-1,2.48-1.17a23.88,23.88,0,0,0,7.78-3.22,5.7,5.7,0,0,1,4.83-.73c0,1.51-1.39,1.59-2.32,2-2.46,1-4.94,1.92-7.39,2.92a41,41,0,0,0,7.2-2.51c2-.82,3.6-.82,4.72,1.42,1.33,2.67,3.8,2.88,6.36,2.55,3.28-.42,6.5-1.24,9.76-1.79a8.18,8.18,0,0,1,5.48.82c4.66,2.5,9.56,2.95,14.83,2.45,7.05-.67,14.19.17,21.25-.31a54.11,54.11,0,0,1,21.74,2.68c3.53,1.22,7.28.95,11,.66,1-.08,2.08-.47,2.95.42,2.88,2.1,6.44,2.71,9.49,4.41,1.65.93,3,2,1.63,4.14-1.49.84-3,.25-4.41-.13a39.23,39.23,0,0,0-12.38-1.31c-8,.46-15.86-1.06-23.81-1.17a116.68,116.68,0,0,0-15.86,1,125.55,125.55,0,0,1-16.45.72,15,15,0,0,0-4.58.42c8.39,1.56,16.45.2,24.5-.58a116.13,116.13,0,0,1,24.09.31c5.11.57,10.22.19,15.32.4a45.92,45.92,0,0,1,14.11,2.67,12.22,12.22,0,0,0-8.51,10c-.27,1.45-1.23,2.05-2.16,2.79-2.22,1.79-4.38,3.62-5.38,6.43-1.07,1.08-2.45.81-3.75.88-6.94.39-13.79-.52-20.65-1.39a44.67,44.67,0,0,0-11.32,0,33.78,33.78,0,0,1-4.82.26c-10.6-.14-21.18.26-31.75,1.07-2.37.19-4.64.23-6.32-2.15-1.16-1.65-3.29-1.29-5-1.13-5.37.49-10.76.73-16.08,1.71-3.43.63-6.81,1.62-10.36,1.22C262.69,221.77,260.76,222.11,259.19,220.74Z"/>
    <path class="b" d="M143,232.27c5-.85,9.92-2.55,15.1-2.29,2.08.1,4.15.27,6.23.46,1.19.1,2.42,0,2.31,2-.07,1.33,1.24,1.53,2.34,1.29,6.14-1.35,12.25-.11,18.37.2.43,0,1.2.22,1.23.43.53,3.54,3,2.15,4.8,1.78,7-1.37,13.9-2.9,21-3.16,5-.18,9.64,1.72,14.5,2.4a69.22,69.22,0,0,0,19.23.27c1.43-.2,3.29.11,3.79-1.8s-1.38-2.24-2.32-3.2c-.32-.33-.66-.65-1-1,.61-1.37,1.85-2.33,2.36-3.78.35-1,1.4-1.16,2.35-1.24a25.93,25.93,0,0,1,3.94,0,12.94,12.94,0,0,0,8.09-1.8c5.14.11,10.07-1.51,15.16-1.93,3.12-.26,6.23-.22,9.34-.45,1-.08,2,0,2.44,1,.82,1.83,2.39,1.89,4,1.91,8.5.07,17-.81,25.46-.94,12.18-.18,24.37-.95,36.52.63,5.18.68,10.39.15,15.58.33,1.37.05,2.89-.3,3.94,1-4.59-.09-8.57,1.53-12.74,3.45-5.4,2.49-11.64,1.54-17.51,2.19l-3.05.33c-2.79.69-5.34-.73-8.05-.92a101.57,101.57,0,0,0-10.17-.39,80.92,80.92,0,0,1-11.83-.74c1.53,1.23,3.35,1.25,5.12,1.32,2.64.1,5.29-.07,7.93.09.9,0,2.33-.51,2.52,1.21-5.39.06-10.78.33-16.17.15-7-.25-13.43,1.5-19.88,4.3-7.08,3.07-14.61,5.1-22.52,4.91-16.19-.4-32.37.89-48.56.34-3.64-.12-6.9,1.93-10.73,1.35-5.85-.9-11.92-.14-17.5-2.91-1.08-.53-2.61-.2-3.93-.17-12.78.26-25.55,1.13-38.34.66-.47,0-.93-.08-1.4-.12-.06-1.38,1.11-1.11,1.77-1.12,2.75,0,5.46-.46,8.2-.7-3-.31-6-.8-9.07-.23-1.44.26-3.1.28-3-2.16,0-1.74-1.57-1.49-2.75-1.71S143.42,234.1,143,232.27Z"/>
    <path class="c" d="M249.1,102.61c-.69-2.81.39-5.45,1.25-7.91,1.9-5.41,3.48-10.94,5.58-16.27,1.47-3.75,2.61-8,6.84-9.92-.8,2.57-2.67,4.52-3.93,6.84-3,5.62-3.68,12.11-6.52,17.79-.23.45-.65,1.14.22,1.38,1.56.41,1.66,2.29,3,2.82,1.81-2,3.54-4.08,5.55-5.9,1-.93,2.68-2.08,3.41.57a.94.94,0,0,0,.6.51c4.7,1.27,6.34,5.69,9.21,8.85,2.23,2.45,4,5.48,7.75,6.13.67.11,1.17,1.12,1.78,1.7,2.6,2.46,5.26,4.87,7.81,7.38,1.91,1.88,1.45,4.75-1.07,5.59-1.71.57-3.32,1.34-5,1.84-2.3.67-3.43-.25-3.37-2.67,0-.47.18-.93.19-1.4,0-1.25,1.2-3.18-.18-3.57-1.67-.47-2.62,1.76-3.91,2.77s-.72,1.94.08,2.9c.66.8,1.26,1.66,1.93,2.45,3.06,3.62,3.12,4.42.35,8.34a55.58,55.58,0,0,1-7.45,8.54c-.62.58-1.38,1.39-2.21.77-1-.75-.38-1.73.21-2.48,2.37-2.94,4.76-5.88,7.19-8.78,1.29-1.54,1.42-2.83-.18-4.35s-3.87-3.15-4.51-4.69c-1.3-3.12-3.63-5.22-5.47-7.77a21.57,21.57,0,0,0-6.13-5.79A22.36,22.36,0,0,0,259,106.4a10.36,10.36,0,0,0-2.33-1.1,9.05,9.05,0,0,1-3.41-3.15c-.11-1.39-.26-2.76-1.7-3.58-.8.67-.37,1.78-.92,2.51S250.19,102.68,249.1,102.61Z"/>
    <path class="b" d="M117.25,227.14c1.81-1.11,3.41-2.12,5.78-.68,1.23.75,3.29.13,5.54.13-1.11,1.56-2.75,2.45-1.82,4.18s2.68,1.45,4.26,1.51c2.88.11,5.84-1,8.64.56,0,1.51-1.35,1.27-2.18,1.45-4.17.94-8.25.18-12.3-.81-1.85-.45-3.74-.91-5.22.9-10.91.07-21.58,2.26-32.32,3.81a10.9,10.9,0,0,1-4.22,0,5,5,0,0,1-3.87-5.51c.28-2.34-.6-2.51-2.46-2.18-1.66.31-3.31.86-5,.55,3.66-1.84,7.79-2.47,11.34-4.74,1.14-.72,3.32.54,5,.88a6,6,0,0,0,4.31-.52,61.45,61.45,0,0,0,9.06-5.24,18.16,18.16,0,0,1,6.67-3c1.48-.38,3,.13,3.32,1.24s1,3-1,3.88c-.83.37-2.16,1.18-1.83,2.15.42,1.27,2,.94,3,.74a43.42,43.42,0,0,0,4.89-1.55c-.29,1.06-1.2,1.73-.75,2.74.75.4,1.32,1.07,2.08,1.46.29.24.4-.36.21,0,0,.09-.14.07-.27,0C117.51,228.51,116.33,228.27,117.25,227.14Z"/>
    <path class="b" d="M74.47,226.36c-7.17.45-14.34.92-21.48,1.83-.91.12-2,.39-1.59-1.31.49-2.18-.93-2.59-2.67-2.54-3,.1-6-.24-8.95.74a17.45,17.45,0,0,1-3.48.42c.44-1.22,1.53-1.29,2.22-1.86s1.79-1.3,1.11-2.54c-.56-1-1.57-.91-2.51-.62-2.71.84-5.4,1.75-8.11,2.59a77.6,77.6,0,0,1-14.69,3.37c1.27-1.8,4.3-2.67,2.17-5.36,0,0,.11-.13.16-.22,1.64-3.22,1.16-4.12-2.64-4.51a55.38,55.38,0,0,0-13.3.55c0-.39,0-.79,0-1.18a5.18,5.18,0,0,1,6.19-1.26,7.82,7.82,0,0,0,5.27.14C17.1,213.18,20.57,216,20,221c-.18,1.56.47,1.84,1.76,1.6s2.39-.56,3.59-.81c2.06-.45,3.39-.85,3.08-3.75s2.29-4.67,4.67-5.84a9.68,9.68,0,0,0,4.22-3.56c.61-.49,1.23-.91,2-.27a5.55,5.55,0,0,1-3.88,4.84,10.61,10.61,0,0,0-4.38,3.52,2.19,2.19,0,0,0-.55,2.35,2.26,2.26,0,0,0,2.32,1.3,14.89,14.89,0,0,0,6-1.5c5.4-2.27,10.72-4.78,16.69-5.24a15.23,15.23,0,0,1,5.63.25c1.32.4,1.57,1,.34,1.84-1.47,1-3,2-4.41,3.09-.79.57-1.6,1.21-1.16,2.32s1.53,1.27,2.62,1l11.21-2.82c.07.4.19.61.13.74-.71,1.44-2.61,2.88-1,4.51s3.67.84,5.56.18C75.46,225,75.46,225.28,74.47,226.36Z"/>
    <path class="d" d="M377.79,224.41c-2,0-4-.13-5.94-.09a96.51,96.51,0,0,1-15.57-.64c-11.79-1.63-23.63-.41-35.45-.26-8.52.11-17,.65-25.54.9-1.69.06-3.8.44-3.77-2.49,0-1.22-1.15-.63-1.78-.62a95.27,95.27,0,0,0-19.7,2.25,7,7,0,0,1-5-.24c-.82-.33-1.17-.88-.79-1.75.39-.67,1-1.6,1.71-1,1.66,1.48,3.23.43,4.78.09a117.94,117.94,0,0,1,22.55-2.46c1.88,0,3.84-.17,4.3,2.55.22,1.29,1.61.64,2.43.61,10.13-.32,20.25-.76,30.38-1.07s20.22-.63,30.33,1c4.53.72,9.25.18,13.89.22,1.12.15,2.25.28,3.37.46s2.41.2,2.33,1.54C380.22,224.9,378.67,224.1,377.79,224.41Z"/>
    <path class="e" d="M379,191.3a35.47,35.47,0,0,1-19-1.64,29.78,29.78,0,0,0-12-1.45c-10,.66-20-.25-30.08.6a17.4,17.4,0,0,1-10.87-2.64,6.73,6.73,0,0,0-4.88-.84c-3.84.56-7.56,1.79-11.46,1.95-2.95.11-5.28-.7-6.08-3.87-.35-1.38-1.05-1.18-2.08-.77q-4.35,1.74-8.76,3.29c-.86.3-2.13.7-2.47-.47-.43-1.52,1.2-1.09,1.92-1.35A104.65,104.65,0,0,0,283.49,180c1.84-.59,2.88.16,3.32,2,.48,2,1.84,2.63,3.81,2.6,3.15-.06,6.17-.92,9.23-1.49,3.45-.64,6.66-.54,9.85,1.3s6.91,1.86,10.52,1.58c10.68-.83,21.39.09,32.07-.53,3.43-.21,6.76.88,10,2a30,30,0,0,0,17.05.91c1.24-.3,2.43-.48,3.48.48.57.53,1.1,1.14.67,2a1.17,1.17,0,0,1-1.72.43A3,3,0,0,0,379,191.3Z"/>
    <path class="b" d="M37.57,208.85c-.53,1.93-1.43,3.32-3.68,3.69-1.74.29-2.74,1.94-3.92,3.14-1.39,1.4-1.48,2.85-.28,4.54.58.83-.44,1.41-1.11,1.59-2.54.67-5.1,1.28-7.68,1.78-1.88.37-2.58-.57-1.73-2.25,1.09-2.15.58-3.74-1.26-5.11s-3.35-2.25-5.61-.81a4.71,4.71,0,0,1-4.4.15c-2.59-1.56-4.81-.63-7.18.15-.32-2.49-.6-5,3.25-5.72-1.7-.83-3.81-.67-3.25-3,2.57,1.63,5.64,1.37,8.41,2.27a46.93,46.93,0,0,1,7.44,2.62c1.56.83,2.74.39,3.05-1.53a5.29,5.29,0,0,0,5.78.11,5.62,5.62,0,0,1,2.72-.63c2.61,0,5.25.15,7.63-1.35A1.5,1.5,0,0,1,37.57,208.85Z"/>
    <path class="f" d="M390.68,202.19c-10.9-2.18-22-1.29-33-2.54-10.07-1.14-20-.18-30,1-5.2.61-10.37-.16-15.55,0-.67,0-1.77,0-1.84-.93s1-.91,1.69-1.06a11.16,11.16,0,0,1,3-.53c7.89.61,15.69-.39,23.5-1.19a107.94,107.94,0,0,1,22.66.23,76.61,76.61,0,0,0,11.62.5,58.09,58.09,0,0,1,17.36,2.22C389.68,200.78,390.35,201.44,390.68,202.19Z"/>
    <path class="g" d="M330,231c-5.05-.67-10.21.09-15.22-1.16-.55-.14-1.11-.21-1.66-.34s-.92-.39-.93-.92a1,1,0,0,1,.87-1,3.81,3.81,0,0,1,1.66-.27c7.37,1.76,14.93.45,22.35,1.41a33.91,33.91,0,0,1,7.41,1.69c5.84.79,11.73.25,17.58.72,2.45.2,4.91.38,7.36.64.93.09,2.07.24,1.94,1.54-.11,1.06-1.13,1.28-2,1.16-8.3-1.12-16.74,0-24.93-1.21C339.67,232.52,335,230.84,330,231Z"/>
    <path class="h" d="M120,234.38c-.52-1.39.14-1.93,1.44-2a21.52,21.52,0,0,1,5.86.7c4.14,1,8.3,1.42,12.4-.26l3.31-.57c1.07,1,2.33.38,3.49.38,3.41,0,4.07.86,2.87,4.26,4.9-.56,9.71-.85,14.44.68-4.12,1.75-8.61.73-12.79,1.87-2,.33-4.08.7-6.13,1-1.21.16-2.65.43-3.22-1s.65-2.16,1.72-2.81a5.47,5.47,0,0,0,1.6-1.29C136.49,237,128.2,236.25,120,234.38Z"/>
    <path class="i" d="M18.22,230c.28,0,.72-.18.81-.07,2.46,3.33,6,2.68,9.44,2.77,4.6.12,9.19.54,13.79.7,2.39.08,4.6.48,6.42,2.15-2.9.39-5.82,1.24-8.69,1.08-5.37-.28-10.7.1-16,.24C20.18,236.94,18.18,234.25,18.22,230Z"/>
    <path class="j" d="M99.92,42.44c-1.26,1.65-1.65,3.39-3.28,3.77a4.19,4.19,0,0,1-4-.89,2.79,2.79,0,0,1-.59-3.16c.62-1.73,2.14-2.28,3.82-2.45,2.6-.26,3.17-1.18,2.12-3.41-.43-.92-.92-1.65-2.15-1.24a3.56,3.56,0,0,1-2.51-.16c-1-.41-1.84-1.18-1.52-2.38s1.33-1.07,2.14-.84c3.17.91,2.19-1.25,1.81-2.58-.6-2.16-2.29-3.68-3.76-5.27A6.45,6.45,0,0,1,90.67,17c.29.06.62.1.62.12-.14,3.82,2.09,6.44,4.45,9.05a6.34,6.34,0,0,1,1.69,5c-.05.56-.22,1.41.07,1.66,2.73,2.42,2.16,6.09,3.37,9.07a10.1,10.1,0,0,1-1.41,9.73c-1.21,1.69-3.69,1.47-5.66-.44,1.63-.46,3.46,1.33,4.7-.37C100.2,48.47,100.15,45.73,99.92,42.44Z"/>
    <path class="k" d="M51.48,86.9c-2,2.11-.93,3.66.08,5.38,1.67,2.86,4.13,5.73,1.13,9.24-.46.53.22.77.54,1a6.83,6.83,0,0,1,2.61,6.26,4.07,4.07,0,0,0,1,2.56c1.74,2.89,1.25,5.8-.13,8.65-.31.63-.77,1.51-1.72.87-.79-.52-.25-1.08.13-1.66,1.36-2,1.19-4.23.62-6.89-.68.93-1.1,1.52-1.53,2.1a2.74,2.74,0,0,1-3.73,1c-1.66-.88-1.88-2.49-1.71-4.18s1.26-2.08,2.71-2.36c1-.19,2.7,1.1,2.82-1.12.1-2-.7-3.87-2.6-4.27-4-.84-2.26-1.71-.31-3s1.32-3,.55-4.57S50.06,92.64,49.17,91C47.89,88.57,48.13,88.1,51.48,86.9Z"/>
    <path class="l" d="M67.44,48.06c.37.41.62.61.59.67-1.89,3.7.28,6.16,2.42,8.81a8.27,8.27,0,0,1,1.77,6.13c-.16,1.48.69,2.58,1.18,3.87,1.12,2.93,1.92,5.67,4.73,7.78,1.8,1.35-.31,6.92-2.55,7.82A2.76,2.76,0,0,1,73.11,83a1,1,0,0,1-.56-1.16.68.68,0,0,1,1-.3c2.72,1.15,2.95-1.22,3.54-2.69.69-1.71.42-3.37-1.52-4.31-.9-.44-1.77-.7-2.59.15a3,3,0,0,1-2.21,1.11c-1.13,0-2.56.19-2.75-1.3s1.19-1.79,2.31-1.93c1.37-.16,2.93.25,2.67-2.1-.2-1.78-.52-3.14-2.69-3.24a5.4,5.4,0,0,1-2.08-.78c-.49-.26-1-.67-.7-1.35a1,1,0,0,1,1.44-.47c2.16.94,1.86-.59,1.83-1.79-.07-2.59-1-5.13-3-6.52-2.85-2-2.36-4.07-1.18-6.51Z"/>
    <path class="m" d="M75.79,187.35c-1.83,3.62-5.46,4.92-8.68,6.76-1.68.43-3.29,1.44-5.12.61-.38-.35-.69-.79,0-1s1.69-.18,2.48-.42,1.61-.39,1.49-1.4-.91-1.06-1.71-1c-1.05.05-2.1.09-2.85-.84,0-1.2,0-2.18,1.71-2.26C67.35,187.58,71.55,187,75.79,187.35Z"/>
    <path class="n" d="M257,104.86a3,3,0,0,1,2.3,1.09c.06.62.65,1.09.49,1.77.33,3.13,2.5,4.37,5.2,5.07-1.95,2-4.22.39-6.33.57,0-1.13.75-.81,1.35-.63-4.37-1.54-7.69-4.58-10.9-7.77l.42-1.07c1.32-.71,2,.45,2.91,1,2.29,1.41,4,3.61,6.49,4.93C258.51,108,256.77,106.82,257,104.86Z"/>
    <path class="o" d="M9.7,199.16c.2,2.29-1.07,3-3.12,3s-3.91.09-5.86.13c-.42-1.91,1-2.23,2.29-2.41C5.23,199.55,7.47,199.38,9.7,199.16Z"/>
    <path class="p" d="M118.79,124.94c-.52,1.08-1.1,1-2,.27a16.25,16.25,0,0,1-5.41-9l3.91,4.11C117.07,121.43,117.85,123.24,118.79,124.94Z"/>
    <path class="q" d="M23.06,194.31c.68,0,2.07.08,1.1.84-1.58,1.24-2.88,3.47-5.49,2.9C19.39,195.94,21.33,195.25,23.06,194.31Z"/>
    <path class="r" d="M118.79,124.94c-1.92-1-2.34-3-3.46-4.62.41-.41.81-.83,1.22-1.25a3.5,3.5,0,0,0,1.37,2.84A2.86,2.86,0,0,1,118.79,124.94Z"/>
    <path class="s" d="M.7,221.44l2.14-.14c.65,0,1.58-.76,1.71.63L.71,223.08C.7,222.54.7,222,.7,221.44Z"/>
    <path class="t" d="M259.8,107.72c-.49-.5-1-1-.49-1.77a7.06,7.06,0,0,1,2.81,2.33Z"/>
    <path class="u" d="M93.84,199.25c-1.19,1-1.82.42-2.25-.78-.57-1.58.19-3,.62-4.4.54-1.76,1.26-3.56-1.26-4.44-1.06-.37-.32-.91,0-1.21,4.72-5,7.59-11.31,11.63-16.78,5.06-6.85,10.22-13.62,15.37-20.41a108.17,108.17,0,0,1,16.92-18.29c9-7.41,15.57-17,22.75-26,7.88-9.87,16.79-18.68,25.88-27.36,1.36-1.31,3.08-2.43,4-4,1.47-2.59,4.32-2.28,6.31-3.65a.59.59,0,0,1,.53,0c1.24.9,1.16,2.7,2.59,3.62.49.31-.76,1.25-1.27,1.83A91.78,91.78,0,0,1,183,89.62c-9.2,7.12-15.61,16.65-22.17,26-3.7,5.28-8,10.06-12.2,14.94-7.15,8.32-13.46,17.31-20.73,25.53A88.6,88.6,0,0,0,114.8,175c-3.29,6.52-8.12,12.09-12.3,18.05A91.44,91.44,0,0,0,93.84,199.25Z"/>
    <path class="u" d="M108.26,189.77c10.43-15.74,20.76-31.45,33.06-46,9.86-11.62,20.27-22.95,28.44-36a51.13,51.13,0,0,1,11.81-13.36c7.91-6.12,14.31-13.76,21.41-20.7,6.08-5.94,12.17-11.89,18.7-17.38A75.62,75.62,0,0,0,240,34.2a29.18,29.18,0,0,1,8.77-9.7,21,21,0,0,1,1.52,2.69c1,2.57,1.32,4.66-1.78,6.54A44.91,44.91,0,0,0,235.45,46.2a15.37,15.37,0,0,1-3.11,3.28,97.5,97.5,0,0,0-20.4,21.6c-5.44,7.69-12.23,14-19.19,20.22-6.77,6-12.44,13-18.1,19.94-2.56,3.16-5,6.45-8.11,9.08a14.2,14.2,0,0,0-3,4.44c-3.78,6.94-9.37,12.56-13.78,19-5.33,7.81-10.13,15.95-15.94,23.46-4.28,5.54-9.76,10-13.56,16-1.64,2.56-3.37,5-4.27,7.92-.92,1-2,.65-3.07.39C111.33,191,109.43,191.34,108.26,189.77Z"/>
    <path class="b" d="M215.09,198.22c2,3,3.73,6.13,6.53,8.44,2,1.65,4.52,1.93,7,2.12a18.17,18.17,0,0,1,10.82,4.13c1.29,1.08,3.3,1.32,5,1.94,1.92.71,3.84,1.41,5.7,2.31-8.17-.22-16.2-.83-23.29-5.56-2.78-1.85-6.13-1.86-9.34-2-3.87-.12-7.75,0-11.8,0,.84-2.05.77-4.34,3.63-4.4a1.54,1.54,0,0,0,1.46-2c-.34-1.16-1.41-1.23-2.35-1-8.14,1.93-16.54,1.72-24.77,3-4.19.65-8.48.58-12.73.81a5,5,0,0,1-2.75-.52c-5.64-3-10.78-2.62-15.9,1.57-1.55,1.27-4.59,1.46-6.58,1.14-7.91-1.27-15.74-1.84-23.67-.45a20.35,20.35,0,0,1-3.41,0c1.82-2.83.16-5.75.44-8.57,0-.43-.66-.6-1.16-.61-2.42-.45-4.87-.1-7.31-.2-.94,0-2-.2-1.19-1.38a12.83,12.83,0,0,1,5-4.79.75.75,0,0,1,1,.35c.71,2.44,2.71,3.28,4.89,3.75a3.09,3.09,0,0,1,2.4,1.67c2.56,4.77,7.18,6.28,11.88,3,7.12-4.9,15.61-5.42,23.39-8.11,4.07-1.41,8.63.2,12.85,1.07,3.39.7,7.15.77,9.74,3.74a1.65,1.65,0,0,0,2.09.46c3-2.32,6.71-1.43,10.06-2.16,2.17.45,4.34-.49,6.51,0,1.82,1.86,4.24.92,6.36,1.3a38.88,38.88,0,0,0,5.3.27C212.17,198.37,213.68,198,215.09,198.22Z"/>
    <path class="b" d="M171.27,216.78a8.67,8.67,0,0,1-1.11.21c-1.15.07-2.89-.44-2.69,1.46.16,1.66,1.86,1.29,3,1.22,3.33-.18,6.46-1.39,9.7-2,3.68,0,7.34-.55,11-.48.92.71,1.37,1.36.5,2.57-1.6,2.24-1.14,3.21,1.7,3.62a45.21,45.21,0,0,0,12.72-.47c1.65-.23,3.24-.75,4.72.76.54.55,1.78.47,2.71.56a198.87,198.87,0,0,0,21.56.44c1.74,0,3.13.26,4,2a4.67,4.67,0,0,0,3.21,2.17c1.93.57,3.09,2,4.53,3.78a45.22,45.22,0,0,1-10.73.45,109.49,109.49,0,0,1-16.73-2.92,23.42,23.42,0,0,0-10.72.23c-7,1.52-13.88,1.27-20.86.51a120.73,120.73,0,0,0-14.73-.92,3.05,3.05,0,0,1-1.39-.15c-7.71-3.91-15.8-3.47-23.78-1.52-3.09.76-6-.5-9.3.5.57-1.1,1.74-2.25.28-3a16.12,16.12,0,0,0-3.51-1c-.33-.27-.91-.4-.55-1,.38-.05.76-.08,1.13-.14.66-.11,1.45-.23,1.47-1,0-1-.86-1.11-1.63-1.15q-6.66-.3-13.33-.55c-.93,0-1.86,0-3,0,.73-1.68,2-1.21,3-1.24,3.78-.13,7.57-.05,11.34-.25,1.59-.09,3.23-.66,1-2.52-.71-.9-2.34.66-2.76-1,7.06.18,14.19-.38,21.07,1.85.85.28,1.71.5,2.33-.3,1-1.31-.35-2-1-3l3.92-1.31c1.9.48,3.85.89,2.22,3.61a1.33,1.33,0,0,0,.6,1.94,2,2,0,0,0,2.81-.45c1.14-1.69,3-2.28,4.58-3.24C170.49,213.72,171.13,214.22,171.27,216.78Z"/>
    <path class="u" d="M118.81,132.76a4.8,4.8,0,0,1,3.53-5.2c.27-.06.65-.13.75-.32,2.17-3.91,6.71-5.91,8.32-10.23.75-2,2.39-4,.53-6.34-.36-.45.14-.87.41-1.23a54.35,54.35,0,0,0,6-11.24,5.41,5.41,0,0,1,3.87-3.31,10.5,10.5,0,0,0,7.53-12.17c-.13-.77,3.17-7.7,3.86-8a1.49,1.49,0,0,1,1.09-.08c4.26,2.22,9.59,1.31,13.66,4.81-3.26,3.19-6.1,6.82-9.17,10.24-8.75,9.7-16.49,20.22-24.81,30.26-4.34,5.24-9.12,10.1-13.7,15.13C118.82,135.28,119.19,133.73,118.81,132.76Z"/>
    <path class="v" d="M264.26,221.47l.79,1.75c-.87,1.82-2.61,2-4.28,2.18s-3.59.09-5.38.09c-2,0-4.18-.63-4.36,2.61-.06,1.06-1.36,1.46-2.46,1.55-1.66-1.71-3.33-3.37-5.78-3.93a1.49,1.49,0,0,1-.92-.62c-1.9-3.88-5.41-3.48-8.85-3.47q-7.38,0-14.76-.16c-1.81-.05-3.77.36-5.13-1.57-.48-.67-1.61-.4-2.45-.32-2.83.26-5.65.55-8.48.83-2-.06-4.56,1.31-5.24-2.18-.09-.45-1.4-.2-2-.79a6.68,6.68,0,0,0-3.68-3.27c-.45-.14-.86-.32-.82-.95s.56-.9,1.16-.92c2.18-.06,4.36-.18,6.54-.14,6.15.1,12.29.28,18.44.42,4,.09,7.82.65,11.29,3.11a22.42,22.42,0,0,0,9,3.27,169.48,169.48,0,0,0,19.73,2.13,12.85,12.85,0,0,0,2.51-.35A13.45,13.45,0,0,1,264.26,221.47Z"/>
    <path class="w" d="M132,104.29c-1.86,4.17-5.42,7.21-7.45,11.28a2.24,2.24,0,0,1-2.7,1.08c-1.13-.33-1.14-1.57-1.12-2.38.17-6.49-3.52-11.78-6.17-17.07-2.36-4.72-4.23-9.85-7.47-14.17-1-1.29-.66-2.1.62-3.22,1.85-1.63,4.2-2.75,5.4-5.14.6-1.18,1.41-.62,2.25.11,1.48,1.29,1.18,3.35,2.35,4.76,3.11,3.75,5,8.22,7,12.57a8.11,8.11,0,0,0,2.21,3.21c1.32,1,1.13,2.63.64,4.18a20.61,20.61,0,0,1-3.06,5.72c-.39.56-.8,1.21-.09,1.74.52.38,1-.23,1.52-.33,4.31-.85,4.78-4.57,5.81-7.78.52-1.6,1.27-2.7,2.95-3,.42-.07,1.15,0,1.27.2.29.54-.06,1.07-.61,1.38A22.42,22.42,0,0,0,132,104.29Z"/>
    <path class="x" d="M182.69,75.94c-.17.42-.21,1-.52,1.24-4.66,3.61-8.06,8.51-12.69,12.17-5.31,4.2-8.73,10.12-13.21,15.09-7.21,8-13,17.26-21.12,24.44-1.75,1.54-2.94,4-5.83,3.93-.87.28-1.81.76-2-.76,2.24-2.79,4.21-5.88,7.89-7,1.47-.46-.23-1.56.58-2.34a45.86,45.86,0,0,0,3.14-4C150,105.05,160.62,91,173.07,78.52a54,54,0,0,0,6.5-8.21,3,3,0,0,1,3.58-1.47c1.8.49,3.47,2.25,3.4,3.42-.11,1.78-1.9,3.27-4,3.78a3.33,3.33,0,0,0-.51-.55c-.06,0,0,0,.21.15S182.56,75.83,182.69,75.94Z"/>
    <path class="w" d="M81.93,147.55c2.16,3.39,3.52,7.16,5,10.85a8.16,8.16,0,0,0,.64,1.54c.54.77,1.35,1.59,2.23,1.44,1.1-.2.4-1.44.67-2.17,1.55.5,1.78,1.85,2,3.17l-1.9,2.05c-.93.12-1.48-.58-2.23-1.11-.08-.22-.36.45-.1.17,1,1.25.63,2.33-.43,3.31a3.45,3.45,0,0,0-5.13-1A20.21,20.21,0,0,0,80,168.6c-1.48,1.87-2.72,1.65-3.71-.49-2.38-5.14-4.7-10.31-7-15.49a58.24,58.24,0,0,0-5.66-10.11c-.55-.78-1.5-1.55-.59-3,.77,1.22,2.18,1.34,2.55,3.2s2,.7,2.79-.23c1.7-1.9,3.3-3.88,4.94-5.82,1.61-1.41,1.65.24,1.87,1.06a79.06,79.06,0,0,0,2.19,7.87,19.57,19.57,0,0,0,3.69,6.7C82.59,150.81,80.61,148.88,81.93,147.55Z"/>
    <path class="w" d="M96.08,106.56c2.71,5.38,4.65,11.15,7.94,16.2,1,1.59,1.42,5.15,5,3,.63-.38.73.64.7,1.15a5.2,5.2,0,0,1-1.62,3.49c-.33.64-1.05-1.49-1.29.21-.19,1.32-1.44,2.36-1.13,3.86a5.38,5.38,0,0,1-1.62,2.6c-1.23,1.12-2.31,1.22-3.62-.11a49,49,0,0,1-11.8-18.38c-1-2.88-2.92-5.44-3.49-9.54,1.34,2.4,2.25,2.09,3.74,1.24,2.21-1.27,3.34-3.58,5.43-4.88C95.46,105,95.63,106,96.08,106.56Z"/>
    <path class="y" d="M62.87,203.62c-1.19.23-2.38.51-3.59.68s-2.58.92-2.58-1.46c0-1.23-1.34-1.32-2.45-1.17-1.74.23-3.36,1.14-5.17.94s-3.78.64-5.2-1.15c-1.52-1-3.45-.93-4.8-2.88-1.75-2.51.07-3.18,1.28-4.08,1.58-1.18,4.11-1.28,4.07-4.08,0-.45.45-.62.83-.47,3.65,1.44,5.53-1.31,7.79-3.22.69-.58,1.27-1.42,2.52-1.42a21.67,21.67,0,0,0,3.33,9.22c2.32,3.78,5.34,4.62,9.65,3.2a8.42,8.42,0,0,0,1.32-.52c2.29-1.26,4.47-2.33,5.67,1.33.25.76,1.21.8,2,.58.54-.15,1.16-.42,1.47.26s-.38,1-.63,1.45c-.64,1.2-2.1,1.91-2.11,3.49-1.61,2.12-3.67,1.54-5.21.31C68.43,202.52,65.77,202.57,62.87,203.62Z"/>
    <path class="z" d="M261,202.91c1.59-.27,2.71-.43,3.82-.65.53-.1,1.25-.19,1.07-1a1.11,1.11,0,0,0-1.37-.74c-1.59.22-3.16.63-4.75.73-2.74.16-5.46,1.38-8.27-.32-.92-.56-2.56,0-3.87.16-4.81.46-9.61.84-14.41,0-3.63-.64-7.32.9-11-.29a4.13,4.13,0,0,1,3.48-2.84,18.39,18.39,0,0,0,5-1.1c5.76-2.54,11.35-1.28,17,.38a10.43,10.43,0,0,0,3.33.59c6.49-.38,12.79,1.08,19.16,1.78,2,.22,4.23.62,4.05-2.63-.06-1,.75-.92,1.38-.93,1.22,0,2.44,0,3.72,0a3.64,3.64,0,0,1-.11.88c-.47,1.1-1.5,2.16-.58,3.4s2.5,1,3.91.74a56.05,56.05,0,0,1,11.25-1.34c1,0,2.41-.18,2.86.78s-1.23,1.31-1.48,2.14c-1.25,4.07-4.56,3.33-7.55,3.32-2.26,0-4.53-.06-6.79-.1-.28,0-.67.07-.83-.09-4.18-4.21-9.4-2-14.19-2.27C264.33,203.42,262.91,203.75,261,202.91Z"/>
    <path class="v" d="M249.12,105c2.76,1.08,4.6,3.44,7,5.05,1.29.87,2.62,1.68,3.93,2.51l-1.36.84a4.89,4.89,0,0,0-2.21,3.78c-.53,3-.9,6-1.27,9a6.47,6.47,0,0,0,.22,1.94c.22,1.21,2.44,1.9,1.7,2.86-1.26,1.61-2.81,3-4.06,4.7-.51.68-1,.31-1.37-.13-1.36-1.43-2.61-2.73-2.63-5.07,0-5.1-.52-10.2-.75-15.31A38.15,38.15,0,0,1,249.12,105Z"/>
    <path class="z" d="M79.05,204.85c.75-2.29,2.62-3.36,4.67-4.22s3.86-.27,5.74.4c2.36,2.17,5,1.44,8.27.24-1.46,3-2.28,5.55-3.82,7.57s-4.5,1.32-6.86,1.62c-1.41.18-4.21-1.34-2.5,2.43.34.73-2,.78-3.5,1.33.37-1.46.82-2.72-.61-3.63a1.24,1.24,0,0,1-.16-2c1.38-1.69.36-2.51-1.19-3.09C78.8,205.33,78.79,205.1,79.05,204.85Z"/>
    <path class="aa" d="M113.7,141.09c-1.08,4-3.84,7.07-6.22,10.29-7.09,9.56-13.63,19.54-21.35,28.63-1.2,1.4-2.06,3.16-3.91,4-.68-1.06.21-1.74.58-2.32,4-6.3,7.43-12.85,12.63-18.39,6.75-7.22,12-15.65,17.67-23.76C114.51,139.57,114,140.35,113.7,141.09Z"/>
    <path class="ab" d="M171.27,216.78c-.41-1.61-.74-3.13-2.73-1.09-1.24,1.27-3.32,1.34-4.24,3.4-.57,1.27-2.53,1.08-3.81.27a1.94,1.94,0,0,1-.7-2.94c1.53-1.9,1.19-2.66-1.2-2.67-.08,0-.15-.47-.23-.72,1.18-1.45,2.68-1.63,4.51-1.55a93.26,93.26,0,0,1,19.81,2.82C178.45,215.24,175,216.48,171.27,216.78Z"/>
    <path class="ab" d="M37.57,208.85c-.18,0-.46-.15-.54-.08-3.87,3.45-9.19.81-13.38,3.22-1.45.83-3.55,1.08-4-1.6.37-2.11,3.14-4.39,6.11-4.84,4.69-.7,9.17.51,13.63,1.7.73.19.66.78,0,1.13C38.61,208.1,38.1,208.53,37.57,208.85Z"/>
    <path class="ac" d="M97.63,173.93l-4,6.55c-.1.16-.33.33-.31.46.49,2.8-5-.25-3.75,4.11.51,1.69-2.56,3.69-4.06,5.47a7.55,7.55,0,0,1-6.2,3c4.43-7.14,10.13-12.85,14.9-19.27C95.23,172.93,96.2,174.33,97.63,173.93Z"/>
    <path class="ad" d="M103.34,164.64a1.36,1.36,0,0,1-.39-2.3c1.55-2,3-4.13,4.48-6.2.45-.62.87-1.21,1.81-1.08a1.1,1.1,0,0,0,1.38-1.07c-.11-3.23,1.46-5.2,4.36-6.35,1.21-.47-.48-1.39.25-2.17,1.15-1.23,2-2.72,3.42-3.73.69-.65,1.38-.82,2.06,0,1,0,.82.55.39,1-6,7-10.73,14.93-16.82,21.83A.71.71,0,0,1,103.34,164.64Z"/>
    <path class="ae" d="M246.14,189c2.05-1.75,4.18-3.18,5.8-5.65,2.35-3.59,9.29-6.28,14.21-6.8-3.92,4.66-9.22,7.49-13.12,11.84C250.81,189.46,248.59,190.48,246.14,189Z"/>
    <path class="af" d="M81.93,147.55c.19,1.39.45,2.77.57,4.17,0,.69.31,1.65-.69,1.91s-1.28-.53-1.72-1.16C77,148,75.65,143,74.57,137.78c-.16-.74,0-1.64-1.21-1.13,0-.77,0-1.53,0-2.29,0-1.14-.32-2.34.55-3.35,3.11,3.16,4.54,7.27,6.09,11.25C80.72,144,82.06,145.52,81.93,147.55Z"/>
    <path class="ag" d="M79.05,204.85l0,.69C73.62,209,67.3,208,61.33,209.26c.16-2.22,6.21-2.41,1.54-5.64,2.26-2.32,4.77-2.48,7.25-.33,1.88,1.62,3.83,2.28,6.15,1C76.94,205.83,77.92,205.74,79.05,204.85Z"/>
    <path class="ac" d="M238.2,74c.09,1,.16,1.54.18,2.11.06,1.34-.35,2.55-1.69,2.94-1.61.48-2.05-1-2.6-2A10.34,10.34,0,0,1,233,72.4a2.51,2.51,0,0,1,1.51-2.49c1-.53,1.54.12,2.25.59,2.74,1.83,5.55,3.57,8.27,5.44,1.31.89,2.37,2.19,1.62,3.84a5.86,5.86,0,0,1-4.84,3.7c3.86-5,3.86-5-1.54-8.25Z"/>
    <path class="ah" d="M9.5,204.45c2.44-.57,4.81-.95,7-2.68,1.49-1.2,3.92-1.12,6-.79,1.32.2,1.74,1.26.85,1.94A89.2,89.2,0,0,1,15.59,208c-.35.21-1.08-.1-1.61-.26-1.8-.54-3.59-1.12-5.38-1.69C7.72,204.88,8.88,204.82,9.5,204.45Z"/>
    <path class="ai" d="M202.47,108.6c0,2.36.12,4.85-2.5,4.63-2.41-.21-3-2.9-2.47-4.66.88-2.81-.45-4-2.34-5.34-.47-.32-1.36-.71-.66-1.52.52-.62,1.19-.41,1.75.07,3.27,2.75,7.06,4.7,10.63,7,.5.31,1.37.54.75,1.43a1.22,1.22,0,0,1-1.73.39Z"/>
    <path class="ai" d="M213.24,98c-.1-1.6-.19-3-.28-4.42,0-.6,0-1.23.7-1.34s.81.62.89,1.14a12,12,0,0,1,.13,1.69c0,1.81,1.27,4.18-.81,5.18-1.87.9-3.12-1.66-4.87-2.24-.37-.12-.57-.72-.88-1.07-1-1.11-3.67-1.95-3.27-2.61,1.3-2.14,1.92-4.81,4-6.68,1.4,2.6-3.27,4.88,0,7.46.2-.37.33-.57.42-.78.37-1,0-2.87,1.27-2.65,1.45.26.48,2,.36,3C210.69,96.38,211.31,97.36,213.24,98Z"/>
    <path class="aj" d="M184.18,126.47l2-4.75a11.52,11.52,0,0,0,4.74,5.11c.65.38,1.59.64,1.1,1.59s-1.29.44-2,.1-1.14-.64-1.89-1.06c.14,2.67-.17,5.62-3.11,5.51s-2.91-3.24-3.15-5.58c-.2-2-.72-4,1.34-6.21-.1,2.35-.55,4.1-.06,5.83a7.66,7.66,0,0,1,1.07,1.67c.25.5.51,1.06,1.19,1.07.31,0,.48-.26.51-.55.09-.85-.4-1.15-1.15-1.3S183.71,127.28,184.18,126.47Z"/>
    <path class="ak" d="M240.12,68c.2-1.48-.56-3.09.89-3.82s2.64.49,3.8,1.26a2.48,2.48,0,0,1,.66.53c.7,1,2.85,1.79,1.94,2.8s-1.79-1-2.78-1.56c-.8-.43-1.59-1.6-2.45-.9-1,.83,0,1.88.46,2.73a8.54,8.54,0,0,0,1.41,1.74c.44.48,1.12.91.41,1.62a1.26,1.26,0,0,1-1.79,0q-4.74-3.6-9.46-7.22c-.47-.36-1-.8-.56-1.39.57-.78,1.31-.52,2,0Z"/>
    <path class="ak" d="M217.7,88.69c1,1.87,1.59,3,2.18,4.21.34.68.74,1.4-.17,2-.74.47-1.2,0-1.7-.5-1.18-1.1-2.44-2.11-3.54-3.27-.6-.63-2.31-1-1.35-2.21s1.72.34,2.64.69c.08-1.08-1.2-2.21.08-3.09,1-.7,2,.07,2.9.49,1.63.73,3.26,1.46,4.86,2.25.5.25,1.52.29,1,1.25a1.33,1.33,0,0,1-1.75.53C221.36,90.38,219.86,89.67,217.7,88.69Z"/>
    <path class="t" d="M257,104.86c1.06,1.94,2.53,3.67,3.16,6.19-4.32-1.62-6.75-5.49-10.63-7.16-.57-.28-.5-.79-.44-1.28.88-.24.42-1.36,1.13-1.71,1.57-.87,2.5.29,3.54,1.11Z"/>
    <path class="ad" d="M228.05,82.78c-.51-1.16-1.62-1.77-2.43-2.66-.52-.57-.72-1.19-.1-1.7a1.11,1.11,0,0,1,1.88.31,7.83,7.83,0,0,0,2.15,2.59c.53.41,1.15,1.32,1.91.57.61-.62.13-1.5-.29-2.07a38.45,38.45,0,0,0-2.62-2.94c-.33-.35-.78-.69-.44-1.18a1,1,0,0,1,1.5-.16c2,1.55,4,3.16,6,4.74.42.33.62,1.11.26,1.15-1.55.17-2.37,1.21-3.48,2.1-1.4,1.13-3-.17-4.41-.84Z"/>
    <path class="al" d="M99,205.66c.42-2,1.48-3.13,2-4.52.71-1.92,2-.77,3-.63.79.11,2.17-1.68,2.4.72.09,1,1.22,1,2,1.18s2.06-.17,3.52,1.2C107.4,204.57,103.21,204.49,99,205.66Z"/>
    <path class="am" d="M42.05,190.68c-3.32,2.68-11.66.91-16.62-3,3.13-1,3.19-1.14,5.72.52C34.31,190.29,37.88,190.49,42.05,190.68Z"/>
    <path class="an" d="M228,82.69c.13.45.26.89.38,1.34.41,1.64.56,3.32-1.16,4.27S224,88.4,223,87c-.78-1.15-2.7-2-2.05-3.61s4.09-2,6.06-1c.33.16.67.29,1,.43Z"/>
    <path class="ak" d="M89.46,201a12.81,12.81,0,0,1-5.74-.41c-.83-2.76,1.83-6.45,5.6-7.46C88.44,195.87,87.72,198.52,89.46,201Z"/>
    <path class="ao" d="M246.14,189l6.89-.61c-1,2.34-1.64,4.59,1.62,5.9-4.22.64-4.23.64-6.57-2.81a3.9,3.9,0,0,0-2.08-1.34C244.94,189.73,245.35,189.28,246.14,189Z"/>
    <path class="ap" d="M108.26,189.77l4.8,1.12c-.37,2.32-1.81,4-3.29,5.73-.81.94-1.6.82-2.29-.19C105.52,194,106,191.75,108.26,189.77Z"/>
    <path class="aq" d="M120.71,141.77a3.16,3.16,0,0,0-2.06,0l8.69-9.69c.49.7,1.28.6,2,.76a2.47,2.47,0,0,1-1.13,2.39c-1.45,1.35-2.81,2.79-4.21,4.2-.7.7-1,1.75-2.59.92C120.41,139.78,120.45,141,120.71,141.77Z"/>
    <path class="an" d="M193.92,121c0,1.61-.33,3.07-2.29,3.31-1,.13-4.79-3.35-4.41-4.26.63-1.48,1.81-3,3.57-3C193,117.15,194,118.8,193.92,121Z"/>
    <path class="ar" d="M26.24,191.73a33.81,33.81,0,0,1-12.81-2.92c3.57-2.3,5-2.26,8.37.11C23.1,189.82,24.47,190.62,26.24,191.73Z"/>
    <path class="aj" d="M198.41,115.82c-.12,1.21-.57,2.6-2.47,2.77-1.07.09-5-3.68-4.53-4.43.86-1.35,2-2.71,3.89-2.67S198.47,113.22,198.41,115.82Z"/>
    <path class="al" d="M133.82,198.09c-2.2,1.36-4.21,1.25-6.16,1.34-1.65.08-1.79-1.41-2.34-2.45a1,1,0,0,1,.64-1.59c1-.36,1.69-1.86,3.14-.41C130.33,196.19,132,196.93,133.82,198.09Z"/>
    <path class="as" d="M107.48,196.43c1.25.91,2.09.43,2.65-.82a20.92,20.92,0,0,1,2.93-4.72c1-.18,1.85,1,2.9.26l-.6,1.41c-2.65,1-3.75,3.7-6.71,5.18,3.5,1,6.46-.11,9.21.84-2.61,0-5.24,0-7.85.17C108.15,198.9,107.53,198.07,107.48,196.43Z"/>
    <path class="at" d="M75.66,123.05c-3.29,1-3.51,1.35-2.58,4.7-.5.48-.87.1-1.16-.24-.7-.84-.79-5.93-.22-6.85.7-1.11,1.4-1.08,2.25-.19a7.69,7.69,0,0,1,1.71,2.59Z"/>
    <path class="au" d="M103.34,164.64h.94c-1.38,1.9-2.9,3.72-4.11,5.73-.91,1.52-1.85,1.51-3.25.68l2.09-3c.88-1.25,1.46-2.89,3.59-2.39C103,165.8,103.24,165.11,103.34,164.64Z"/>
    <path class="av" d="M108.25,120.77c2.44,2.81,5.66,4.2,7.41,7.18.33.56,1.39,1.17.31,1.82-.76.44-1.24-.08-1.65-.94-.95-2-3.32-2.8-4.44-4.77C109.35,123.13,108.33,122.48,108.25,120.77Z"/>
    <path class="aw" d="M93.84,199.25c2.4-2.77,4.75-5.59,8.66-6.25C100.89,196.85,97.48,198.21,93.84,199.25Z"/>
    <path class="ax" d="M250.84,208.92c-3.06.73-6.19.14-9.27.56-.69.09-1.39,0-1.46-.88-.1-1.12.83-.82,1.38-.82,2.17,0,4.34,0,6.51.06C248.87,208.4,250.1,208,250.84,208.92Z"/>
    <path class="ay" d="M25.44,184.16c-5.14.4-6.16-.08-7.91-3.72C20.68,180.7,23,182.25,25.44,184.16Z"/>
    <path class="az" d="M209,81.57c-3.58,2.69-7.94,4.55-9,10C198.7,87.58,202.09,84,209,81.57Z"/>
    <path class="ba" d="M118.24,137.73c-.67.76-1.34,1.53-2,2.28a2,2,0,0,1-.45.26c-.64-5.26-.36-6,2.5-6.88C119.45,134.84,119.13,136.28,118.24,137.73Z"/>
    <path class="t" d="M95.76,149.27c-2,.15-2.75-1-3-2.48s.9-1.13,1.68-1.12c1.61,0,3.34,0,3.31,2.31C97.73,149.49,96.35,149,95.76,149.27Z"/>
    <path class="bb" d="M72.22,222.36c1.36-3.88,4.22-4.18,7.56-4.42C77.77,220.56,75.28,221.56,72.22,222.36Z"/>
    <path class="bc" d="M47.46,212.41,35,217.6C37.06,215.09,43,212.54,47.46,212.41Z"/>
    <path class="bd" d="M191.23,217.16c-3.61,1.62-7.33.89-11,.48C183.86,217.07,187.47,215.32,191.23,217.16Z"/>
    <path class="be" d="M33.92,195.58c-2.39,1.15-4.67,2.6-7.67,1.95C28.27,194.22,31.35,195.74,33.92,195.58Z"/>
    <path class="bf" d="M184.18,126.47c.53,1.11.53,1.11,2.25.22-.24,1.57,1.8,3.9-.7,4.33-2.08.36-2.11-2.33-2.49-4Z"/>
    <path class="bg" d="M132,215.81c.73.87,2.11,0,2.76,1a82.58,82.58,0,0,0-14.31.75l-.09-1Z"/>
    <path class="bh" d="M195,217.44c1.39-.08,3.38-1.23,2.82,1.84-.19,1,.8,1.08,1.59,1.09l2.79,0c-1.79.77-3.65.42-5.48.28C194.51,220.52,195.92,218.35,195,217.44Z"/>
    <path class="bi" d="M262.92,118.08c.56,3-1.53,4.46-2,6.48-.1.41-.48.25-.68.12a1.25,1.25,0,0,1-.62-1.43C260,121.34,261.33,120,262.92,118.08Z"/>
    <path class="bj" d="M53.72,230.62l11.65-1.25C61.57,231.41,57.55,231.26,53.72,230.62Z"/>
    <path class="bk" d="M262.78,194.24l8.2-2C270.23,194.33,268.43,194.78,262.78,194.24Z"/>
    <path class="bl" d="M267.87,209l9.76-1.1.11.91c-3.13,1.45-6.58.4-9.88.59-.22-.09-.29-.18-.22-.27A.31.31,0,0,1,267.87,209Z"/>
    <path class="bm" d="M96.08,106.56l-1.74-1.19c.4-1.33.79-3.07,2.33-3,1.28.07,1,1.95,2,3.53C97.11,105,95.88,104.53,96.08,106.56Z"/>
    <path class="bn" d="M115.66,62.3c.65,2.88-1,5.09-4.5,5.54,1.1-1.67,3.4-2.31,3.31-4.55C114.86,63,114.93,62.23,115.66,62.3Z"/>
    <path class="bo" d="M293.47,207.83c.49.9,1.75.11,2.23,1H284.34C287.42,208.72,290.39,207.6,293.47,207.83Z"/>
    <path class="bp" d="M132,104.29c-.59-3.11,1.33-5,3.36-6.83C134.55,99.9,133.83,102.37,132,104.29Z"/>
    <path class="bq" d="M134.83,223.74l.55,1c-2.44.11-4.82,1-7.78.36A16.61,16.61,0,0,1,134.83,223.74Z"/>
    <path class="br" d="M136.88,193.45c1.87-3.36,5.24.69,7.13-1.91C143,193.15,140.69,193.75,136.88,193.45Z"/>
    <path class="bs" d="M92.55,162.38c-1.14-.76-1-2.33-2-3.17l-.18-1.29a7.41,7.41,0,0,1,3.31,2c.92.77-.34,1.21-.61,1.8A5.33,5.33,0,0,1,92.55,162.38Z"/>
    <path class="bt" d="M101.16,105.53c2.69,1.07,3.55,3.35,4,5.91Z"/>
    <path class="bu" d="M91.29,213.46l-4,2.33C86.73,211.6,89.77,213.59,91.29,213.46Z"/>
    <path class="bv" d="M43.88,201.46l5.2,1.15c-1,.28-2,.5-3,.85C44.09,204.19,43.67,203.2,43.88,201.46Z"/>
    <path class="bw" d="M98.13,154.47c-.57-3,1.25-3.56,3.68-4.31A18.87,18.87,0,0,1,98.13,154.47Z"/>
    <path class="bx" d="M87.89,166.8c.56-1.3.22-2.69.41-4.39l2.35,2C89.71,165.2,89.26,166.54,87.89,166.8Z"/>
    <path class="by" d="M105.7,134.44c-.67-.51-1.08-1.18-.35-1.84,1.2-1.1,1.12-2.47,1.06-3.92,1,.2,1.26,1,1.71,1.69C106.63,131.32,106.74,133.22,105.7,134.44Z"/>
    <path class="bz" d="M118.24,137.73c0-1.45,0-2.89,0-4.34l.55-.63c1.21.31.42,2.2,1.85,2.34A7.19,7.19,0,0,1,118.24,137.73Z"/>
    <path class="ca" d="M35.74,230.33c.11-.36.12-.49.17-.52,1.25-.51,2.53-1,3.89-.51.18.07.27,1,.23,1C38.66,230.77,37.28,230.41,35.74,230.33Z"/>
    <path class="cb" d="M191.68,207.92A8.87,8.87,0,0,1,186,208C187.88,207.84,189.75,206.83,191.68,207.92Z"/>
    <path class="cc" d="M9.5,204.45c-.45.46-1.35.67-.9,1.63a14,14,0,0,1-5-1Z"/>
    <path class="cd" d="M117.25,227.14c.11,1.24,1.14,1.31,2,1.63.46.17.87.48.66,1-.27.74-.9.6-1.38.31-1-.61-2.17-1.14-2.5-2.47Z"/>
    <path class="ce" d="M104,215.18c-.15.58-.57,1-1,.89a2.79,2.79,0,0,1-2-1.88c0-.1.76-.76,1-.67A3.84,3.84,0,0,1,104,215.18Z"/>
    <path class="cf" d="M74,131c-.21,1.11.52,2.38-.55,3.35-.39-.79-1.38-.28-1.93-.9A5.65,5.65,0,0,1,74,131Z"/>
    <path class="cg" d="M113.17,213.74c-1.24-.3-2.2-.55-3.17-.77-.53-.12-.88-.34-.61-.94s.62-1.09,1.26-.62C111.46,212,112.5,212.35,113.17,213.74Z"/>
    <path class="ch" d="M43.28,228.07c.63-.27.87-.47,1.1-.46,1.09.07,2.16-.79,3.24-.07a.83.83,0,0,1-.13.71C46.16,229.14,44.91,228.71,43.28,228.07Z"/>
    <path class="ci" d="M199.17,196a8.49,8.49,0,0,1-6.51,0c1.49-.47,3.16,0,4.58-1C198.3,194.25,198.44,195.84,199.17,196Z"/>
    <path class="cj" d="M74.47,226.36c-.19-.54.69-1.08,0-1.61,1.4-1.13,1.92,1.2,3.45.33C76.9,227.16,75.66,226.67,74.47,226.36Z"/>
    <path class="ai" d="M267.27,135c-1.38.37-2.85,1.16-3.92-.87A4.54,4.54,0,0,1,267.27,135Z"/>
    <path class="ck" d="M87.93,102.85A12,12,0,0,1,90.59,98C90.73,100.26,90.73,100.26,87.93,102.85Z"/>
    <path class="cl" d="M82.76,104.84c-.48-1.19-2.09-1.91-.94-3.4.18-.24.83-.88,1.08-.43A3.68,3.68,0,0,1,82.76,104.84Z"/>
    <path class="cm" d="M4.55,221.93c-.37-.74-1.13-.43-1.71-.63,2-1,4.25-.15,6.29-1A9.26,9.26,0,0,1,4.55,221.93Z"/>
    <path class="cn" d="M62,194.72l5.12-.61C65.5,195.14,64,196.74,62,194.72Z"/>
    <path class="co" d="M182.69,75.94c-1,.83-1.77.41-2.09-.64-.23-.76.43-1.26,1.14-1.17,1.21.14,1.61.81.85,1.91Z"/>
    <path class="cp" d="M75.66,123.06c1.7.74,1.83,2.36,2.35,4.26a6,6,0,0,1-2.35-4.27Z"/>
    <path class="cq" d="M115.66,62.3c0,.77-.13,1.46-1.19,1a1.61,1.61,0,0,0-.2-.52c-.76-.9-.74-2,.29-2.3S115.25,61.68,115.66,62.3Z"/>
    <path class="cr" d="M267.87,209c0,.13,0,.27,0,.4h-6.71A20.83,20.83,0,0,1,267.87,209Z"/>
    <path class="cs" d="M215.09,198.22c-1.54.67-3,.94-4.26-.61C212.29,197.52,213.8,197.1,215.09,198.22Z"/>
    <path class="ct" d="M129,222.69a3.77,3.77,0,0,1-3.56.8C126.45,221.91,127.85,222.83,129,222.69Z"/>
    <path class="cu" d="M133.65,228c1-.66,1.88-1.78,3.46-1A3.72,3.72,0,0,1,133.65,228Z"/>
    <path class="cv" d="M258.71,119.13c.16-1.74.13-2.92,1.62-3.59C260.86,117.08,260,117.88,258.71,119.13Z"/>
    <path class="cw" d="M91.45,222.05a10.54,10.54,0,0,1-4.66,2.26C88.4,222.8,89.53,222.05,91.45,222.05Z"/>
    <path class="cx" d="M31.82,194c-1.42.17-2.63.78-3.08-1.24A3.59,3.59,0,0,1,31.82,194Z"/>
    <path class="cy" d="M250.84,208.92c-1-.34-2.16,0-2.84-1.08a13.36,13.36,0,0,1,2.82-.08C252.15,208,251.41,208.51,250.84,208.92Z"/>
    <path class="bk" d="M163.85,206.84a12.42,12.42,0,0,1-5.95.26A10.52,10.52,0,0,1,163.85,206.84Z"/>
    <path class="cz" d="M113.7,141.09c-.13-.56.18-1.28-.6-1.6.09-.71.55-1.14,1.41-1.82C114.48,139.11,114.75,140.21,113.7,141.09Z"/>
    <path class="da" d="M70.69,214.82a3.3,3.3,0,0,1-2.91,1.48A2.87,2.87,0,0,1,70.69,214.82Z"/>
    <path class="db" d="M285.45,118.28c.54-.68,0-2.39,1.31-2.29a2.8,2.8,0,0,1,2.37,2.5c0,1.33-1.48,1.58-2.56,1.69C285.26,120.3,285.46,119.22,285.45,118.28Z"/>
    <path class="dc" d="M253.77,102l-3.54-1.11c.44-1.27,0-2.76,1-4.09C252.6,98.35,254.18,99.66,253.77,102Z"/>
    <path class="dd" d="M261.44,100.92c-.38,1.1,1,1.78.64,3.22-1.79-1-3.61-1.59-4.84-3.26s-.25-1.83,1.09-1.9C259.37,99.63,260.47,100.17,261.44,100.92Z"/>
    <path class="de" d="M272,112a13.57,13.57,0,0,1-4.79-4.14C270.46,107.64,270.78,110.28,272,112Z"/>
    <path class="df" d="M261.44,100.92c-1.79.56-2.78-.16-3.11-1.94C260.08,98.49,261.86,97.93,261.44,100.92Z"/>
    <path class="ad" d="M98.31,41.32c-.63,2.18-1.13,4-3.66,3.41-1-.22-1.65-.83-1.29-1.8C94.28,40.5,96.31,41.19,98.31,41.32Z"/>
    <path class="dg" d="M54,111.76c-.5.94-.75,2.27-2.17,2.26s-1.34-1.11-1.34-2.08c0-1.41,1-1.36,2-1.32C53.21,110.64,54.1,110.51,54,111.76Z"/>
    <path class="dh" d="M188.6,78.77c1.82,0,2.86.36,2.6,1.51-.4,1.75-2.12,2.19-3.61,2.62a1.07,1.07,0,0,1-1.4-1.25C186.49,79.94,187.4,78.72,188.6,78.77Z"/>
    <path class="co" d="M137.14,138.8a2.29,2.29,0,0,1-2,1.95c-.88.13-1.54-.33-1.42-1.25a2.19,2.19,0,0,1,2.14-1.86C136.6,137.55,137.14,137.84,137.14,138.8Z"/>
    <path class="di" d="M181,88.53c-.78,0-1.41-.25-1.25-1.13.21-1.12,1.12-1.43,2.12-1.46.74,0,1.34.33,1.24,1.16C183,88.31,181.87,88.3,181,88.53Z"/>
    <path class="dj" d="M117.17,163.75a1.43,1.43,0,0,1-1.54,1.34,1.25,1.25,0,0,1-1.32-1.49,1.38,1.38,0,0,1,1.67-1.16A1.17,1.17,0,0,1,117.17,163.75Z"/>
    <path class="dk" d="M161.37,109.45c.84.12,1.34.55,1.13,1.32a1.84,1.84,0,0,1-1.95,1.62,1,1,0,0,1-.89-1.19A1.78,1.78,0,0,1,161.37,109.45Z"/>
    <path class="dl" d="M174.49,95.29c-.62,0-1.18-.2-.91-1a2.07,2.07,0,0,1,1.73-1.63c.87-.08,1.14.55,1,1.28C176.19,95,175.4,95.24,174.49,95.29Z"/>
    <path class="dm" d="M144.78,131.06c-.05.79-.45,1.32-1.19,1.35a1.12,1.12,0,0,1-1.26-1.2,1.16,1.16,0,0,1,1-1.15A1.15,1.15,0,0,1,144.78,131.06Z"/>
    <path class="dn" d="M126.76,150.8a1.29,1.29,0,0,1-1.3,1.22,1.11,1.11,0,0,1-1.18-1.27,1.13,1.13,0,0,1,1.25-1.21A1.21,1.21,0,0,1,126.76,150.8Z"/>
    <path class="di" d="M151.19,121.39a1,1,0,0,1-1-1.27,1.19,1.19,0,0,1,1.32-1.18,1.07,1.07,0,0,1,1.14,1.29C152.59,121,152.1,121.38,151.19,121.39Z"/>
    <path class="do" d="M167.68,103.34c-.73,0-1.23-.35-1.16-1.16a1.38,1.38,0,0,1,1.48-1.33,1,1,0,0,1,1.06,1A1.45,1.45,0,0,1,167.68,103.34Z"/>
    <path class="bf" d="M112.5,171.51a1.29,1.29,0,0,1-1.27,1.28,1,1,0,0,1-1.07-1.07,1.19,1.19,0,0,1,1.25-1.25C112.08,170.44,112.42,170.87,112.5,171.51Z"/>
    <path class="dp" d="M123.69,112.87c-.35-1.36-.52-2.35.47-3.09a.54.54,0,0,1,.47.16A2.78,2.78,0,0,1,123.69,112.87Z"/>
    <path class="dq" d="M144.45,116.55c-.13.59-.69.83-1.4.77-.52,0-.93-.39-.85-.89a1.2,1.2,0,0,1,1.45-1C144.12,115.51,144.52,115.77,144.45,116.55Z"/>
    <path class="cf" d="M80.5,149.94c-2.83-4.17-3.83-8.95-4.61-13.8C77.15,140.83,79.43,145.18,80.5,149.94Z"/>
    <path class="dr" d="M234.87,71.76a6,6,0,0,1,1.57,5.45A6.08,6.08,0,0,1,234.87,71.76Z"/>
    <path class="dr" d="M200.57,111.72c-.31-.22-.39-.26-.46-.32a3.34,3.34,0,0,1-.87-4,.59.59,0,0,1,.95-.09A3.47,3.47,0,0,1,200.57,111.72Z"/>
    <path class="ds" d="M223.74,84.25c-.08-.7.26-1.1.93-1.06,1.37.07,1.9,1,2,2.23.06.63,0,1.51-.92,1.26A2.93,2.93,0,0,1,223.74,84.25Z"/>
    <path class="dt" d="M192.19,122.67c-1.65-.87-2.65-1.73-2.3-3.43.12-.59.59-.67,1.09-.43C192.68,119.62,192.24,121,192.19,122.67Z"/>
    <path class="du" d="M196.77,115.42c-.12.48.21,1.37-.63,1.25-1.26-.17-1.79-1.27-2.12-2.38a.9.9,0,0,1,.82-1.23C196.2,113.15,196.69,114.15,196.77,115.42Z"/>
  </g>
</svg>
