<svg id="firemen_Image" data-name="firemen Image" xmlns="http://www.w3.org/2000/svg" width="530.47" height="348.28" viewBox="0 0 530.47 348.28">
  <defs>
    <style>
      .cls-1 {
        fill: #010101;
      }

      .cls-2 {
        fill: #e7d3a7;
      }

      .cls-3 {
        fill: #afdbfa;
      }

      .cls-4 {
        fill: #020202;
      }

      .cls-5 {
        fill: #65789f;
      }

      .cls-6 {
        fill: #e6d2a7;
      }

      .cls-7 {
        fill: #030303;
      }

      .cls-8 {
        fill: #e6bab4;
      }

      .cls-9 {
        fill: #e5d1a6;
      }

      .cls-10 {
        fill: #e5b9b3;
      }

      .cls-11 {
        fill: #040403;
      }

      .cls-12 {
        fill: #040404;
      }

      .cls-13 {
        fill: #65779e;
      }

      .cls-14 {
        fill: #acd6f4;
      }

      .cls-15 {
        fill: #e0b5b0;
      }

      .cls-16 {
        fill: #0c0809;
      }

      .cls-17 {
        fill: #a6cee9;
      }

      .cls-18 {
        fill: #e95b62;
      }

      .cls-19 {
        fill: #cbbb99;
      }

      .cls-20 {
        fill: #0b0b0b;
      }

      .cls-21 {
        fill: #0e0e0e;
      }

      .cls-22 {
        fill: #121212;
      }

      .cls-23 {
        fill: #101214;
      }

      .cls-24 {
        fill: #d3b6b2;
      }

      .cls-25 {
        fill: #181414;
      }

      .cls-26 {
        fill: #101315;
      }

      .cls-27 {
        fill: #232323;
      }

      .cls-28 {
        fill: #cacaca;
      }

      .cls-29 {
        fill: #686a6e;
      }

      .cls-30 {
        fill: #c7c7c7;
      }

      .cls-31 {
        fill: #1f1f1f;
      }

      .cls-32 {
        fill: #d4c5a4;
      }

      .cls-33 {
        fill: #c9bb9c;
      }

      .cls-34 {
        fill: #455065;
      }

      .cls-35 {
        fill: #66789f;
      }

      .cls-36 {
        fill: #66799f;
      }

      .cls-37 {
        fill: #444f65;
      }

      .cls-38 {
        fill: #afdbf9;
      }

      .cls-39 {
        fill: #fcfcfc;
      }

      .cls-40 {
        fill: #e4d1a6;
      }

      .cls-41 {
        fill: #444f64;
      }

      .cls-42 {
        fill: #afd9f7;
      }

      .cls-43 {
        fill: #63769c;
      }

      .cls-44 {
        fill: #444e64;
      }

      .cls-45 {
        fill: #f45f67;
      }

      .cls-46 {
        fill: #64779d;
      }

      .cls-47 {
        fill: #efeff0;
      }

      .cls-48 {
        fill: #e2b7b2;
      }

      .cls-49 {
        fill: #e2cfa6;
      }

      .cls-50 {
        fill: #f5f6f6;
      }

      .cls-51 {
        fill: #66789c;
      }

      .cls-52 {
        fill: #f5f5f5;
      }

      .cls-53 {
        fill: #434e63;
      }

      .cls-54 {
        fill: #f45e66;
      }

      .cls-55 {
        fill: #f05c64;
      }

      .cls-56 {
        fill: #5a6a8d;
      }

      .cls-57 {
        fill: #0e0f12;
      }

      .cls-58 {
        fill: #ee5c63;
      }

      .cls-59 {
        fill: #404a5e;
      }

      .cls-60 {
        fill: #d9c69f;
      }

      .cls-61 {
        fill: #e0cca2;
      }

      .cls-62 {
        fill: #070708;
      }

      .cls-63 {
        fill: #edeeee;
      }

      .cls-64 {
        fill: #ea5e65;
      }

      .cls-65 {
        fill: #5d6f92;
      }

      .cls-66 {
        fill: #a14045;
      }

      .cls-67 {
        fill: #3c4659;
      }

      .cls-68 {
        fill: #9f9274;
      }

      .cls-69 {
        fill: #f4f5f6;
      }

      .cls-70 {
        fill: #3e485b;
      }

      .cls-71 {
        fill: #f3f3f4;
      }

      .cls-72 {
        fill: #d7c59e;
      }

      .cls-73 {
        fill: #f4f4f5;
      }

      .cls-74 {
        fill: #d4d4d5;
      }

      .cls-75 {
        fill: #add3ef;
      }

      .cls-76 {
        fill: #eff0f2;
      }

      .cls-77 {
        fill: #dddce1;
      }

      .cls-78 {
        fill: #f3f6f8;
      }

      .cls-79 {
        fill: #ececea;
      }

      .cls-80 {
        fill: #c2c6cf;
      }

      .cls-81 {
        fill: #e7e7e4;
      }

      .cls-82 {
        fill: #5f7195;
      }

      .cls-83 {
        fill: #444d5e;
      }

      .cls-84 {
        fill: #c4c4c5;
      }

      .cls-85 {
        fill: #424c60;
      }

      .cls-86 {
        fill: #919292;
      }

      .cls-87 {
        fill: #262b35;
      }

      .cls-88 {
        fill: #e2e2e0;
      }

      .cls-89 {
        fill: #e3e1dd;
      }

      .cls-90 {
        fill: #384153;
      }

      .cls-91 {
        fill: #63759d;
      }

      .cls-92 {
        fill: #a6cce8;
      }

      .cls-93 {
        fill: #2a303d;
      }

      .cls-94 {
        fill: #e6ebef;
      }

      .cls-95 {
        fill: #5c616e;
      }

      .cls-96 {
        fill: #d6d7da;
      }

      .cls-97 {
        fill: #bec5ca;
      }

      .cls-98 {
        fill: #f3f7fa;
      }

      .cls-99 {
        fill: #c8c9cc;
      }

      .cls-100 {
        fill: #a9a9a9;
      }

      .cls-101 {
        fill: #b99995;
      }

      .cls-102 {
        fill: silver;
      }

      .cls-103 {
        fill: #d6dadd;
      }

      .cls-104 {
        fill: #e7d7d8;
      }

      .cls-105 {
        fill: #66789e;
      }

      .cls-106 {
        fill: #efece6;
      }

      .cls-107 {
        fill: #3d3d3d;
      }

      .cls-108 {
        fill: #707070;
      }

      .cls-109 {
        fill: #394150;
      }

      .cls-110 {
        fill: #b6464c;
      }

      .cls-111 {
        fill: #404a5f;
      }

      .cls-112 {
        fill: #b4b6ba;
      }

      .cls-113 {
        fill: #f5f3ee;
      }

      .cls-114 {
        fill: #586f7e;
      }

      .cls-115 {
        fill: #43464d;
      }

      .cls-116 {
        fill: #c7ba9e;
      }

      .cls-117 {
        fill: #aac9da;
      }

      .cls-118 {
        fill: #f2f1f0;
      }

      .cls-119 {
        fill: #f9f7f2;
      }

      .cls-120 {
        fill: #fdfdfc;
      }

      .cls-121 {
        fill: #f5eee0;
      }

      .cls-122 {
        fill: #080909;
      }

      .cls-123 {
        fill: #f4fafd;
      }

      .cls-124 {
        fill: #e6e4df;
      }

      .cls-125 {
        fill: #96a4ae;
      }

      .cls-126 {
        fill: #dedad1;
      }

      .cls-127 {
        fill: #f2f0ed;
      }

      .cls-128 {
        fill: #b2a98f;
      }

      .cls-129 {
        fill: #e0cda3;
      }

      .cls-130 {
        fill: #fbf9f6;
      }

      .cls-131 {
        fill: #e3a097;
      }

      .cls-132 {
        fill: #f55e66;
      }

      .cls-133 {
        fill: #f46168;
      }

      .cls-134 {
        fill: #ac454a;
      }

      .cls-135 {
        fill: #953a3e;
      }

      .cls-136 {
        fill: #feeff0;
      }

      .cls-137 {
        fill: #dfcda5;
      }

      .cls-138 {
        fill: #cbb993;
      }

      .cls-139 {
        fill: #e6e8e9;
      }

      .cls-140 {
        fill: #897e65;
      }

      .cls-141 {
        fill: #9e9072;
      }

      .cls-142 {
        fill: #100d0d;
      }

      .cls-143 {
        fill: #161111;
      }

      .cls-144 {
        fill: #292120;
      }

      .cls-145 {
        fill: #bc8c8e;
      }

      .cls-146 {
        fill: #020203;
      }

      .cls-147 {
        fill: #aed9f7;
      }

      .cls-148 {
        fill: #040405;
      }

      .cls-149 {
        fill: #050506;
      }

      .cls-150 {
        fill: #030405;
      }

      .cls-151 {
        fill: #050607;
      }

      .cls-152 {
        fill: #e2e3e5;
      }

      .cls-153 {
        fill: #d6d7d9;
      }

      .cls-154 {
        fill: #f1f5f8;
      }

      .cls-155 {
        fill: #d7d7d7;
      }

      .cls-156 {
        fill: #c4c5c8;
      }

      .cls-157 {
        fill: #a8b7c2;
      }

      .cls-158 {
        fill: #b7bac1;
      }

      .cls-159 {
        fill: #c7c8cb;
      }

      .cls-160 {
        fill: #020304;
      }

      .cls-161 {
        fill: #f2f4f7;
      }

      .cls-162 {
        fill: #515f7c;
      }

      .cls-163 {
        fill: #060708;
      }

      .cls-164 {
        fill: #f4f6f8;
      }

      .cls-165 {
        fill: #090a0d;
      }

      .cls-166 {
        fill: #f2f7fa;
      }

      .cls-167 {
        fill: #070707;
      }

      .cls-168 {
        fill: #080809;
      }

      .cls-169 {
        fill: #edeef0;
      }

      .cls-170 {
        fill: #0f0606;
      }

      .cls-171 {
        fill: #100606;
      }

      .cls-172 {
        fill: #3d4659;
      }

      .cls-173 {
        fill: #e5e5e5;
      }
    </style>
  </defs>
  <title>graphic-firemen</title>
  <path class="cls-1" d="M471.25,265.17c4.39,3.73,6.58,8.83,4.58,14.83-1.07,3.12-.83,6.23-.62,9.39a29.13,29.13,0,0,1-.28,4.94c-.27,1.16-.86,2.16-2.21,2-2-.26-1.92-1.93-2-3.43-1.07,1.22-2.14,2.55-3.93,1a3.66,3.66,0,0,1-1.11-2.59,8.15,8.15,0,0,1,.79-4.83c1.67-3.05,1.18-6,.18-9.14-3.2-10.1-6.74-20.08-10.74-29.88-1.21-5.91-4.65-10.94-6.36-16.65,1.54,5.38,4.74,10.1,5.94,15.62-4.71,3.46-4.31-2.71-6.71-3.6a2.31,2.31,0,0,0-.55,1.09c-.67,2-.93,5.22-3.67,4.64-3.09-.68-1.88-3.75-1.54-6,.09-.54,0,.13.09-.4,1.11-4.14,2.36-8.25.46-12.53-.51-1.14-.07-2.44.26-3.66,1.23-4.54-1.83-12.48-5.71-15a2.26,2.26,0,0,0-1.53-.52c-5.35.68-10.76-.1-16.12.78-2.93.49-3.4,1.44-2.08,4.06C421.76,222,425.25,228.38,429,235s8.89,12.39,11.35,19.69a17.35,17.35,0,0,0,5.29,8.24c5.78,4.78,7.1,11.63,8.58,18.37.37,1.68.51,3.92-2,4.23-2.22.28-2.38-1.74-2.94-3.3-1.5-4.21-2.19-8.73-4.67-12.57a22,22,0,0,0,2.26,6.55c3.19,6.17,4.14,13.06,6,19.66.39,1.42.36,2.84-1.32,3.5s-2.52-.57-3.23-1.82a12,12,0,0,1-.71-1.49c-1.88-4.73-1.69-10-4.25-14.59a47.27,47.27,0,0,1-5.12-14.73c-.39-2.05-.81-4.23-2.61-5.44-4.21-2.81-6.4-7.06-8.65-11.32-2.56-3.33-2.22-7.62-3.56-11.33a51.07,51.07,0,0,0-10.46-17.33c-7.74-8.57-7.53-8.71-18.37-4.57-2.23.85-4.41,1.64-5.41,4.09-3,7.53-7.87,14.93-.94,22.93a4.71,4.71,0,0,1,.74,1.91,67.64,67.64,0,0,1,6.21,26.53c.24,5.85-.8,11.39-1.17,17.07-.47,2.93,1.07,6.37-2.21,8.58-3.1.85-4.27-.84-4-3.48.37-3.55.56-7.14,1.27-10.67,1.46-7.24.89-14.57-.36-21.68-1.76-10-7.24-18.61-11.76-27.55-3.92,4.36-3.93,4.37-.87,8.84a11.9,11.9,0,0,1,1.37,3.44,45.31,45.31,0,0,0,4.73,11.42c3.54,5.75,4.94,12.23,6.22,18.75a5,5,0,0,1-2.3,5.34,3.13,3.13,0,0,1-3.86.21c-2.51-1.75-4.68-3.73-5.37-7-2.61-12.24-7.61-23.24-16.61-32.19a5.71,5.71,0,0,1-1.57-6.43c.6-1.57,2.49-2.1,3.12-4-1.93-.94-3.93-1.09-5.93-1.66-7.59-2.24-9.93-7.46-6.59-14.63a7.56,7.56,0,0,1,.79-1.45c2.43-3.11,1.75-5.79-.94-8.38-2.5-2.39-3.43-5.62-4.2-8.86-.38-1.6-.77-3.63,1.23-4.32,2.33-.83,3.16,1.24,3.69,2.93,1.1,3.49,2.53,6.65,5.64,8.89,1.54,1.11,1.9,3,1.9,4.84.13,3.09-1.36,5.55-2.82,8.09-2.53,4.3-1.75,6.23,3,7.54a74.51,74.51,0,0,1,8.76,2.47c3.23,1.33,4,3.62,2.32,6.62a5.3,5.3,0,0,1-1.56,1.92c-3.14,2-1.88,3.63,0,5.84,2.92,3.44,6.16,6.76,7.41,11.33.89,3.08,3.12,5.54,4.05,8.6,1.09,3.95,3.24,7.56,3.46,9.71a50.39,50.39,0,0,0-4-11.16c-1.19-3-3.31-5.55-4-8.78-.81-1.89-.85-4.49-2.33-5.64-5.72-4.42-5.39-8.89-1.47-14.42,2.18-3.1,1.05-4.61-2.95-5-2.72-.27-5.53-.26-8-1.61s-4.35-3.06-2.89-6.26c2.59-2,1.37-5.12,2.3-7.61a3,3,0,0,1,1.1-.53c3.21-.16,3.8,1.94,4,4.53.14,1.86-2.21,3.82-.31,5.35,1.45,1.17,3.74.5,5.63.91,1.14.26,2.3.76,3.3.42-2.42-4.94-3.53-10.46-6.53-15.06a7.91,7.91,0,0,1-1-6.7c1.42-5.82-1-8.58-7.07-7.82a28,28,0,0,1-14.12-2.11A174.86,174.86,0,0,0,320,183.32c-2-.48-3.83-.74-4.11,2.26-.86,9.44-3.22,18.76-2.48,28.35a19,19,0,0,1-.7,6.14,17.49,17.49,0,0,0,.05,2.4c.46,1.75,2,2.45,3.29,3.45,5.09,4,6.73,8.66,4.61,12.75a6.44,6.44,0,0,1-2.57,2c-2.27.84-2.27,2.41-1.67,4.34a132.34,132.34,0,0,1,6.23,46.42c-.12,2.35.79,4.64.42,7-.21,1.31-.86,2.43-2.29,2.58a2.43,2.43,0,0,1-2.61-2.17,56.56,56.56,0,0,1-1.2-7.33c-.48-5.76.66-11.5.2-17.27.14-3.42-1.81-4.91-4.86-5.42a2.29,2.29,0,0,1-1.11-2c2.12-2.5,5.59-4.63,2.59-8.63-2.68-1.51-4.06-.58-4.56,2.33a12.5,12.5,0,0,0,1.57,9c2.51,4.23,4.37,8.83,3.51,14-2.56,2.33-3.58.33-4.51-1.67-1.56-3.34-1.64-7.29-4.34-10.18a8.9,8.9,0,0,1-2.19-8.46,13.05,13.05,0,0,0-1-8c-1.2-3-2.94-5.69-4.33-8.45s-3.1-2.79-5.25-1.1c-2.9,2.28-5.31,5.23-9.31,5.86-1.09.17-1.53,1.12-1,2.28s1.53,1,2.48.62c1.41-.57,2.56-1.61,3.93-2.27,4.71-2.29,8.88-.61,10.47,4.31a41.78,41.78,0,0,1,1.69,6c.38,2.27,2.22,5.48-1.2,6.34-3.12.79-3-2.82-3.81-4.82-.67-1.8-1.27-3.62-1.86-5.44-.29-.9-.77-2-1.94-1.55s-.93,1.51-.63,2.46a22.13,22.13,0,0,0,1,2.22c1.35,2.76,3.94,4.56,5.48,7.19.76,1.34,1,2.69-.24,3.66s-2.36.36-3.36-.45a17.48,17.48,0,0,1-2.47-2.76,53,53,0,0,0-6.7-6.7,3.6,3.6,0,0,0,.83,2.4c5,6.29,7.64,13.57,10.36,21,2.17,5.94,2.26,13.22,9.4,16.86,2.81,1.44,1.66,4.4-1.65,5.09a8.29,8.29,0,0,0-1.5-.65c-5.82-.57-7.44-3.71-8.3-9.51-1-6.51-4.08-12.79-6.26-19.17-2.06-6.06-3.81-6.66-10-5.5-1.08.21-2.16.43-3.26.54-15.79,1.6-31.33,4.75-46.92,7.6-1.75.28-3.49.93-5.24,0-2.11-2.15-1.06-3.54,1.17-4.49,1.22-.49,2.59-.55,3.85-1a81.85,81.85,0,0,1,11.71-2.39c12.29-1.4,24.27-4.78,36.67-5.5,1.4-.08,3.42.23,3.79-1.77s-.72-3.75-2.34-5a14.23,14.23,0,0,0-1.5-.66c-5-2.85-10.21-.91-15.33-.73a34.83,34.83,0,0,1-5-.25,146.7,146.7,0,0,0-24.62-.33c-2.54.83-6-.49-7.32,3.16a19.21,19.21,0,0,0-.81,2.75c-.63,2.41.09,3.4,2.65,2.77,10.63-2.6,21.53-3.88,32.09-6.79,2.6-.43,5-1.63,7.72-1.69,2.35-.15,4.68-.79,7-.24,1.23.29,2.45.79,2.33,2.42-.1,1.32-1.13,1.75-2.25,2-1.62.36-3.32.18-4.92.63-14.34,4.11-29.08,6.37-43.63,9.52-1.38.29-2.35.64-2.52,2.15a31,31,0,0,1-2.28,5.9,22.67,22.67,0,0,0-4.91,16.58c.47,4.77,1.22,5.81,5.9,6.19,14.25,1.14,28.55,1.56,42.83,1.51,11.87,0,23.61,1.21,35.38,2.13a16.72,16.72,0,0,0,7,.52c12.63-1.11,25.26.15,37.89,0a35.74,35.74,0,0,0,4.14,0c15.55-1,31.08-2.73,46.68-2.43,8.27.15,16.56,1.42,24.8.57a133,133,0,0,1,25.63-.41A38.46,38.46,0,0,0,463,304c3.78-.06,7.45-1.51,11.27-.84,2.64.94,5.41.3,8.09.68,3.36.49,4,1.5,3.21,4.78-3.06,1.37-6.24.83-9.36.46-3.88-.5-7.93-1.08-11.48.5-6.91,3.08-13.87,3.09-21.26,2.62a193.09,193.09,0,0,0-36.37,1.36c-5.69.72-11.22-.84-16.82-1.36-9.07-.86-18.17.63-27.27,1-10.2.42-20.4,2-30.58,1.14-10.46-.9-21-.44-31.46-.67a76.36,76.36,0,0,1-8.69-.22,270.76,270.76,0,0,0-39.23-2.1c-18.7.22-37.2-1.78-55.77-3.17-6.59-.49-13.18-2.21-19.79-.79s-13.16,1.13-19.76,1.3a29.75,29.75,0,0,0-6.18.41,69.19,69.19,0,0,1-27,1.25,8.35,8.35,0,0,0-4.09.37,22.89,22.89,0,0,1-4.6.34c-2.92-.33-5.69.78-8.56.85-10.72.25-21.36,1.38-32,2.47-3.75.38-7.59,1.45-11.28-.43-1.06-1.89.42-2.48,1.64-3.21.89-1.05,2.17-1.12,3.39-1.27,8.35-1,16.72-1.79,25.1-2.49,6.91-.59,14-.4,21-1.72a2.47,2.47,0,0,0-1.3-.69c-12.11-3.29-24.41-6-34.84-13.67-2.35-1.71-5.21-1.39-8-1-7.67,1.06-15.45,0-23.12,1.2a3.92,3.92,0,0,1-1.63-.2c-1.41-.39-2.7-1-2.58-2.74.1-1.44,1.27-2,2.54-2.35,2-.53,4.17,0,6.17-.53a27,27,0,0,1,5.74-.64q40.72,0,81.4-1.61a339.91,339.91,0,0,0,43.19-4.12,9.61,9.61,0,0,1,4.88.12c4.6,1.58,5.42,1.19,7.6-3.32a10.32,10.32,0,0,0,.31-7.14c-.25-3.6-2.64-6.86-1.64-10.65a6,6,0,0,1,.39-1.15c1.8-2,1.35-4.79,2.24-7.11a19,19,0,0,0,1.5-1.35c2.5-2.79,1.34-6.35,2-9.53,2.64-12.58,4.71-25.17,3.77-38.17a13,13,0,0,1,3.06-9.18c1.39-1.77,3.6-4,.6-6.71-1.05-.92-.46-2.61.3-3.86a13,13,0,0,0,1.61-5.53,55.24,55.24,0,0,1,5.86-21,3.27,3.27,0,0,0-.3-3.87c-5-6-3.07-12.9-2.44-19.49.23-2.36,2.7-5,1.7-7.36-1.16-2.69-4.74-2.08-7.23-3-5.92-2.21-7.4-5.06-5.67-11.21,1.2-4.28,4.52-7.19,6.8-10.77,1.56-1.43,2.76-.27,4,.57,4.51,3.07,4.88,3,8.88-1.72-2,.19-4.11.6-4.81-1.46-1.07-3.13,2.74-3.63,3.68-6-2.24.47-3.57,2.26-5.4,3-2.58,1-4,4.26-7.24,3.93-.95-2.34-1.9-4.73-4.95-5a2.49,2.49,0,0,1-1.64-2c-.08-2.56-1.84-3.4-3.94-4.12-6.92-2.4-13.92-4.62-20.92-6.62-14.78-4.13-29.17-9.43-43.59-14.57-19.32-6.84-39.8-9.4-59.4-14.55S34.83,36.63,15.86,29.9c-1.33-.28-2.54-.52-4-.87s-3.94,0-3.53-2.35c.34-2,2.52-1.14,3.87-.94a80.48,80.48,0,0,1,20.93,6C42.27,35.83,51.39,40,61.22,42.3a35.48,35.48,0,0,1,13.34,3.28c7.9,2.42,16.06,3.61,24.06,5.49,35.13,8.3,68.85,21.47,103.36,32,2.33.7,4.44,2.13,7,1.77,2.74-.39,4.28.6,4.06,3.7l4.24-2.35c1.9-1.82,4.38-2.1,6.79-2.31,2.84-.22,4.25,1.45,3.11,4-1,2.23-.12,3.23,1.57,4.23,2.44.85.94,3.62,2.38,5a15.34,15.34,0,0,0,5,1.52,1.63,1.63,0,0,0,2-1,2.15,2.15,0,0,0-.35-2.25,5.08,5.08,0,0,0-2.56-1.13c-1.9-.6-3.94-.81-5.68-1.9-1.43-.75-3.32-1.45-2.61-3.45.78-2.23,2.79-1.65,4.53-1.3a22.29,22.29,0,0,1,3.11.94,3,3,0,0,0,3.91-1.13c1.54-4.29,5.51-8.08,2.72-13.29-2.64,2.89-2.89,6.55-3.17,10.22-.14,1.83-.47,3.9-2.89,3.72-2.07-.16-2.29-2.1-2.4-3.79-.3-4.62,1.23-8.62,3.32-12.62.57-1,1.67-2.25.57-3.38a4.38,4.38,0,0,0-4.5-1.45c-2.48.81-4.87,1.81-6.61,4.06a25.36,25.36,0,0,0-5,10.77c-.34,2-1,4.29-4,2.71-.73-1.61-.23-3.2,0-4.83,1.29-9.14,8.84-14.1,14.15-20.37,2-2.41.17-2-.37-2.91-2.09-4.4,2.41-3.77,4.06-4.77,2.11-1.26,4,.69,5,2.47,2.47,4.34-2.43,4.88-4.23,7.23,4.38,2.53,9.24,4.12,11.24,9.53,3-2.75,4.28-6.48,7.13-8.48,4.63-3.19,6.79-6.27,2.15-10.64a18.11,18.11,0,0,1-3.28,5c-1.24,1.09-2.67,1.7-4.07.56s-.7-2.47,0-3.71a6.39,6.39,0,0,1,.73-1c1-1.27,2.62-2.49,1.32-4.27s-2.68-.23-4,.22c-3.59,1.22-5.23.31-6.11-3.61a3.45,3.45,0,0,0-1.63-2.69c-.72-.37-1.43-.76-2.16-1.11-3.64-1.72-3.64-1.72-4.54,2.39.23,1.75-3.35,3.4-.12,5.24,1.07.61,2.35,1.4,1.8,2.83s-2.08,1.09-3.27,1.22a3.67,3.67,0,0,1-2.39-.43c-5.12-1.31-5.36-1.95-2.25-6.11.16-.22.36-.41.51-.64,1.77-2.54,3.06-5.76,2.41-8.54-.51-2.17-4-1.6-6.18-2.11a4.26,4.26,0,0,1-.8-.2c-1.26-.52-2.84-.83-2.84-2.58,0-.11,0-.22,0-.33a2.78,2.78,0,0,1,3-2.53c7.47.34,12-4.71,17.11-8.81,7.55-6.07,15.85-5.77,23.06.8A21.85,21.85,0,0,1,269.53,40c-.25,3,.41,5.28,3.18,7,2.52,1.53,3.92,4.15,4.83,7,.76,2.38-.88,3.63-2.34,4.79s-2.29-.72-3.29-1.56c-2.1-1.78-4.22-3.54-6.4-5.22-.73-.59-1.6-1.82-2.73-.34-.88,1.16-1,2.3.12,3.3,1.63,1.45,2.91,3.24,5,4.24,10.75,5.26,17.9,13.08,18,25.79,0,1.71.19,3.42.32,5.76,2.18-3.12,4-5.82,3.82-9.12-.39-9.08,3.59-16.8,7.41-24.59,1.05-1.25,1.15-4.92,4-1.55.1,3.89-1.76,7.17-3.41,10.47a29.31,29.31,0,0,0-3.53,14.28A17.08,17.08,0,0,1,292.34,89c-1.7,3.22-2.48,6.76-3.92,10-3.37,7.56-7,15-8.17,23.31-.07.53.05-.14-.18.36-.58,1.32-1.79,2-2.89,2.78-6.43-1-12.91.21-19.2.72-7.91.64-15.52.87-23.32-.57-4.65-.86-8.82-2-11.55-6.17-3.43-1.61-5.81-4-6.64-7.9a7.92,7.92,0,0,0-2.87-4.45c-1.38-1.1-2.93-2.79-4.73-1.79-2.56,1.42-3.51,4.16-3.73,7-.13,2,1.24,3.17,3,4,2.56,1.2,5.06.77,7.66.07,2.17-.59,4.24-.23,3.47,2.7-.87,3.37-.71,6.82-1.38,10.19-1.14,4.23.81,8.14,1.33,12.23-.4-5.06,2.5-8.33,5.93-11.33.95-.82,2.11-1.93,3.29-1.26,3.27,1.86,7.48,3,7.86,7.69.25,3,1.85,4.39,4.62,4.89a36.83,36.83,0,0,0,4.56.79c-1.69-1.42-3-2.6-1.6-4.42,1.14-1.48,2.68-1.06,4.14-.35.37.18.73.38,1.09.59,4.44,2.77,9.18,4.61,14.49,3.55,2.31-.46,5,2.11,6.88-.74a31.57,31.57,0,0,0,3.75-6.9c.44-1.29.61-2.68,1-4,.61-2,1.14-4,3-5.28,2.6-.54,2.78,1.29,3,3.08-.19,4-2,7.51-3,11.76,5.11-3.28,10.72-3.55,16.21-4.85-.6-1.92-2-2.83-2.6-4.19-.85-1.93-1.75-3.91.83-5.32,2.42-.57,4,.35,5,2.56a8.82,8.82,0,0,0,3.6,4.39,24.34,24.34,0,0,1-2.62-8.85c-.13-1.13,0-2.28,1.22-2.77a2.81,2.81,0,0,1,3,.84,4.55,4.55,0,0,1,1.45,2.9c.3,3,1.78,5.46,3,8.08.72,1.87,1.54,3.47,3.41.87,6-6.28,13-11.49,19.76-16.86,5-3.94,10.37-7.57,16.75-8.66,3.51-.64,3.6-2.18,2.6-4.64-2.13-5.19-2.13-10.74-2.85-16.19C345.8,78,344.27,69,338.68,61.64c-5-6.58-9.65-13.42-15.5-19.31-1.47-1.43-2.92-3-2.06-5.43,1.87-2.12,2.87-.75,3.87.88C335.27,49.53,346.47,60.7,349.9,77.2c4.25-3.84,8.75-6.57,12.25-10.57,4.08-4.62,4.14-5.24-1.15-8.3-1.84-1.06-2.07-2.06-1.31-3.72,3.65-1.29,7.71-.57,11.29-2.72,1.41-.85,2.66.93,2.32,2.79a4.58,4.58,0,0,1-2.18,2.9c-1.84,1.19-1.8,2.47-.54,4.09,1.06,1.39,2.4,2.81,1.52,4.81a65.06,65.06,0,0,0-2.14,8c.26-1.32.85-2.55,1.17-3.85a54.65,54.65,0,0,1,9.24-14c1.43-1.68,3.28-3.89,1.63-5.89-3.1-3.78-2.94-8.46-4.6-12.56-.93-2.31-.39-6-4.08-6.87-5.52-1.23-11.16-1.63-16.76-2.34-2-.25-2.5.74-2.14,2.43a25.73,25.73,0,0,1,.51,9,2.1,2.1,0,0,0,1.18,2.4c1.11.59,2.38,1.31,1.91,2.79-.54,1.67-2.1,2.06-3.69,2.06-1.22,0-2.48.3-3.66-.28a2.29,2.29,0,0,1-1-2.52c1.15-4.25.55-8.43.36-12.75-.26-5.65-.82-6-6.47-6.31-.55-.06-1.11,0-1.65-.06-1.21-.1-2.15-.62-2-2.1s1.41-1.54,2.52-1.42c2.19.25,4.37.61,6.54.93,1.28.19,2,.21,2.69-1.48,3.52-9.27,9.78-15.42,19.63-18.42,4.28-1.3,6.78-.2,9.43,2.37a19.62,19.62,0,0,1,4,5.71c2.14,4.62,4.37,9.21,6.37,13.87,1.76,4,3.17,8.12,7.83,10,2,.81,3.43,2.71,4.65,4.6,4,6.17,2.5,9.58-4.76,10.87-2.81.32-5.63.81-8.4-.29-1.49-1.26-1.74-3-1.83-4.8.5-3.52-1.66-5.68-3.25-7.19a9.91,9.91,0,0,1,3.26,5.41c-.72,2.38.52,4.64.52,7-1.88,1.68.79,4.3-1.21,6-5.36,5.24-10.26,10.82-12.71,18.07-1.1,3.26-2.11,6.55-3.38,9.76-1.37,3.45-1.17,7-.57,10.59.42,2.51,1.19,3.94,4,2.16,1.45-.92,3.19-.42,4.85-.3,6.81.5,13.66.64,21.12,2.22-2.48-4.55-3.15-9.08-7.27-11.64a4.31,4.31,0,0,1-1.87-4,13.74,13.74,0,0,0-1.33-8,1.51,1.51,0,0,1-.11-.22,2.79,2.79,0,0,1,1.43-3.68c1.75-.92,2.75.19,3.75,1.52,1.49,2.07,2.57,4.23,2.12,6.91-.21,1.22-.43,2.52.57,3.52,5.1,4.84,6.44,12.13,11.1,17.31,1.15,1.28,2.24,3.3.69,4.86-1.8,1.78-3.53.37-5-1a3.8,3.8,0,0,0-2.24-1c-5.91-.08-11.65-1.84-17.65-1.34a12.82,12.82,0,0,1-7.18-1.34c-.17-.07-.17-.11-.17-.17.23-.49-.52.23,0,.41a18.17,18.17,0,0,0,8.45,1.16c5.54-.61,10.89,1.31,16.4,1.31a2.23,2.23,0,0,1,2.11,1.72c.23,2.69-1.71,2.8-3.53,3-3.48.39-6.88-.43-10.29-.87-2.92-.39-4.06.79-4.26,3.5A16.44,16.44,0,0,0,387,115c.36,2.59,1.64,3.65,4.28,2.87a25.89,25.89,0,0,1,7.4-.59c6.91,0,13.81.07,20.72,0,2.07,0,4.42,0,5.21-2.43,2.29-7.09,3.62-14.16-1.05-21a31.61,31.61,0,0,1-4.79-10.06c-1.54-6.13-5.52-10.05-10.82-12.92-7.4-4-13.43-9.66-18.84-16-.4-1.39-1.26-3,.6-3.89s2.58.54,3.24,1.9c5.32,6.31,12,10.87,18.92,15.25,5.12,3.25,9.26,7.3,10.78,13.52a28.52,28.52,0,0,0,4.53,9.24c1.34,2,2.67,4,2.87,6.35.44,5.33,4,6.4,8.3,6.55,13.48.47,26.42,3.58,39.21,7.66a100.41,100.41,0,0,1,20.84,9c1.39.82,3.16,1.52,2.11,3.75-2.16,1.12-4,0-5.84-.88a126.21,126.21,0,0,0-50.76-13.73,58.39,58.39,0,0,1-9-1.64c-2.58-.53-3.45,1.24-3.88,3.24-.4,1.82.93,2,2.27,2,11.53.41,22.72,3,34,5,6.24,1.09,12.42,2.68,18,5.91,1.54.89,3.86,1.46,2.92,4.18-1.11,1.94-2.43,1.18-3.82.35a42.06,42.06,0,0,0-12.7-4.81c-10.09-2.23-20.29-3.87-30.49-5.53-7-1.13-13.28-.76-18.54,4.55a45.52,45.52,0,0,1-7,.24c-8.13.22-16.37-1.09-24.37.72-7.15,1.6-13.89,1.84-20.36-2-4.13-2.45-9.39-2.5-12.92-6.18a4.05,4.05,0,0,1-.53-2.64c1-2.75,3.55-3.47,6-4.26,1.87-.81,3.83-1.34,5.7-2.1.63-.25,1.34-.62,1.17-1.42s-1-.8-1.63-.8a9.6,9.6,0,0,1-2-.18c-2.55-.6-5.15-.34-7.73-.34-3.82,0-5.52,2.34-3.66,5.71,1.26,2.25,1.71,4.83,3.11,7,1.84,3.92,1.18,5.16-3,5.47a19.61,19.61,0,0,0-4.46.42c-9.74,1.66-19.18,4-26.51,11.34a3.93,3.93,0,0,1-4.59,1c-1.81-.89-2.81-.08-3.91,1.11a43,43,0,0,1-5.22,4.7,4.24,4.24,0,0,0-1.93,4.28c.82,4.25.4,8.53.51,12.79,0,1.39-.05,2.84,1.12,3.84,2.18,1.82,1.74,4,.57,5.89s-1.15,3.52.65,5.1c1.22,1,1.92,2.36,1,4-.75.63-1.57.37-2.38.19-1.74-.59-3.31-1.61-5.06-2.19-1.49-.6-3.16-1.6-2.58-3.24,1.54-4.35.12-8.78.85-13.08.52-3-.1-6-.35-9-.17-2-1.32-2.49-2.82-1.68-6,3.25-12.55,4.95-19,6.95-2.55.81-3.71,2.76-2.89,5.56a12,12,0,0,1,.7,3.23c-1.31,2.17-.09,3.07,1.79,3.64a4.88,4.88,0,0,1,1.6,1.29,89.54,89.54,0,0,1,9,18.06,6.25,6.25,0,0,1-2.89,7.58c-3.16,1.92-2.78,3.88-1.26,6.47a47.89,47.89,0,0,1,2.55,4.73c.82,1.86,1.14,3.71-.48,5.35a7.16,7.16,0,0,1-3.6,1.87c-4.76.86-9,3-13.29,5.1-4.59,2.29-9.52,4.26-14.95,2.92-3.4-2.48-4.43-6.14-5.19-10-1.1-5.59-4.08-8.07-9.73-8.07a7.83,7.83,0,0,1-5.28-1.9c3.28,5,3.31,9.17.54,12.87a25,25,0,0,1-2.87,3.53c-3.28,2.92-4.18,6.85-3.8,10.92a44.53,44.53,0,0,1-1.23,14.73c-1.16,4.8-.89,5.11,4.24,5.11h33.93c4.33,0,4.87-.59,3.18-4.59A82.91,82.91,0,0,0,263.26,228c-1.24-1.79-2.72-3.62-1.72-6.07a2.58,2.58,0,0,1,3.24-.91c4.69,1.51,9.44,2.55,14.44,1.68a9.74,9.74,0,0,1,5.93,1.2,4.15,4.15,0,0,1,2.08,2.57c-.14,2.24-1.74,2.18-3.34,2.12a30.61,30.61,0,0,0-8.1-.56c-2,0-2.36.91-1.74,2.58a8.67,8.67,0,0,1,.22,1.13c-.8,4.36,1.38,7.73,3.69,11,2.63,3.75,5.48,4.14,9,1.14,2.32-1.94,4.29-4.27,6.5-6.33,1.31-1.21,2.59-2.59,4.68-1.78,1.36.92,1.73,2.46,2.36,3.82a101.65,101.65,0,0,0,6.37,11.16v0a2.88,2.88,0,0,0,3.85,1.33,2,2,0,0,0,1.27-3c-2.05-4.21-1.22-8.37,0-12.53a7.32,7.32,0,0,0-2-7.91c-2.95-2.92-4.36-6.31-2.45-10.5.75-1.64.48-3.53.53-5.32.1-3.72-.31-7.46.39-11.16.56-5.78,2.19-11.45,2-17.33.12-2.32-1.59-2.85-3.3-3.55-2.21-.92-4.33-2.07-3.33-5.14,2.46-2,4.23.75,6.37.91,3.93.63,7.91.83,11.86,1.23,7.64.77,15.28,1.06,22.71,3.77,5.67,2.06,11.37,4.11,17.09,6.06,5.26,1.79,6.62.54,6.62-5.12,0-5.3-1.63-10.34-3-15.38s0-10.05,1.57-14.45a14,14,0,0,0,.45-9.41c-1.43-4.68-4-8.76-6.73-12.76a19.22,19.22,0,0,1-2.21-3.49c-.52-1.32-.85-2.77.48-3.77,1.16-.9,2.34-.34,3.41.41.55.39.84,1.08,1.37,1.28-1-1.92-1.46-3.92,1.29-4.71,2.47-.71,3.95.6,4.21,3.17.21,2.06,1.58,4.06,1.14,6.06-1.31,6,1.91,11,3.4,16.37,1.55,5.52,10.46,8.15,14.17,4.23,7.14-7.51,16.23-12.26,24.62-18,1.85-1.25,3.69-2.33,4.24-4.78.42-1.79,1.61-2.51,3.42-1.57,1.29,2.12,3.77,4.33,3.66,6.33-.4,6.94,4.72,11.24,6.72,16.94,1.1,3.22,4.61,4.71,5.1,8.29,1.49,11.19,5.91,21.44,11.49,31.19a39.41,39.41,0,0,1,3.84,10c1.74,6.94,1.49,7.28-5.18,9.18l-1.71.51c7.7,16.25,12.7,33.55,20.7,49.55A31.14,31.14,0,0,0,471.25,265.17Z" transform="translate(0 0)"/>
  <path class="cls-2" d="M113.44,311.12c2.89.23,5.74-1.72,8.89-.47-.72-.61-1.76-.13-2.22-.95,2.12-1,4.32-.37,6.51-.37,6.46.1,13.25,1.37,19.31-.17a71,71,0,0,1,17-1.85c3.18,0,6.67.88,9.45-.12,5.35-1.91,10.57-1.09,15.88-.91,19.85.67,39.48,4.31,59.43,3.84a254.91,254.91,0,0,1,33.5.95c18.73,2,37.49.9,56.21,1.83,20.41,1,40.7-4.3,61.27-.78,6.85,1.2,14.27-.19,21.42-1a128.21,128.21,0,0,1,28.91,0,22.93,22.93,0,0,0,12-1.93,26,26,0,0,1,14.22-1.6,46.12,46.12,0,0,0,10.3.5c.21,2.94-2.95.91-3.67,2.48.66.86,2.1.86,2.36,2.15-5.72,5.23-13,6.5-20.22,7.76-2.84-.73-5.8.08-8.57-.58-1.73-.41-2.17.67-3.05,1.38a31.12,31.12,0,0,0-9.26,1.81c-4.24,1.27-8.76,2.85-13,1.27-5.16-1.92-10.3-1.82-15.5-1.38-3.44.29-6.88.47-10.32.56-11.59.28-23.08.45-34.75.45s-23.44-.74-35.13-1c-17.37-.38-34.75-1.14-52.13-1.14-6.46,0-12.91-1-19.38-.3-2.64-.93-5.44-.54-8.15-1a88.59,88.59,0,0,0-27-.61,32.56,32.56,0,0,1-6.16.34c-17.19.05-34.16-3-51.31-3.63-2.36-.5-4.1-3.16-6.54-2.16.23,1.4,3.62-1,2.51,2.4-1.75,1.06-3.74.65-5.63.92-6.13.87-12.71-.37-18.35,2.33a28.42,28.42,0,0,1-16.08,2.31,80.9,80.9,0,0,0-16.9,0c-5.19.51-10.45.83-15.64-.29-2.27-2.7-5-.52-6.91-1,.86-.24,2.45-.14,4-.35,1-.13,2.26,0,1.9,1.68a4.4,4.4,0,0,1-3.07,1c-5.24,0-10.45.38-15.67.86-1.71.16-3.59.24-5-1.25,1.91-1.77,4.5-.1,7.1-1.59-2.33,0-4.08.05-5.82,0-2.2-.06-4.17-1.25-3.65-3.36.69-2.74-1.44-3-2.54-4.2a20.77,20.77,0,0,0,5.73-.16C85.06,311.74,100.51,311,116,310,115.84,312,114.21,310.72,113.44,311.12Z" transform="translate(0 0)"/>
  <path class="cls-3" d="M463.78,246.81c-.95-.71-1.44-2-2.3-2.88-1.3-1.29-2.28-2.69-1-4.35s3.2-1.16,4.42,0c2.41,2.25,4.86,2.3,7.65,1-1.64-4.3-1-5.3,3.36-5.3,1.64,0,3.27.44,4.91.44,7.89-.05,16,6,23.69-1a2.76,2.76,0,0,1,3.77.55c1,1.19.45,2.33-.55,3.26-1.82,1.68-.27,2.2.94,2.91,3.78,2.22,7.78,4.11,11.13,7,1.49,1.28,3.49,3.11,1.82,4.81-3.24,3.3-.54,4.3,1.59,5.7,1.91,1.25,4,2.66,2.57,5.19s-3.65,1.9-5.77.77a1.25,1.25,0,0,0-1.73,0,55.2,55.2,0,0,0,9.1,7c1.45,1,2.75,2.22,1.93,4.09-.94,2.15-2.85,1.56-4.65,1.2-1.61-.28-3.61-2.49-4.61,0-.79,1.91,2.08,2,3.08,3.24a.7.7,0,0,0,.35.23,3.25,3.25,0,0,1,1.87,4.1c-.47,1.94-2.1,1.8-3.63,1.94-.86.05-1.78-.83-2.59,0l1.35,3.06c0,1-.31,2.26-1.31,2.26-4.63.2-6.94,4.33-10.63,6.08s-7.37,3.54-11.43,4.32a2.82,2.82,0,0,1-.49-1.12c-.76-4.44-4.32-3.5-7.1-3.44-3.8.09-7.49,1.49-11.33,1.4-1.65-.16-2.89-.7-2.83-2.7.09-2.58-.8-5.05-1.12-7.58a18.54,18.54,0,0,1,.65-9.6c1.69-5.32-.88-12.8-5.53-14.8-3.53-1.54-3.83-4-4.42-6.89C469.61,253.55,468.13,250.07,463.78,246.81Z" transform="translate(0 0)"/>
  <path class="cls-4" d="M511.92,295.85c1.4-.73,3-1.37,3.87.44s-.4,3.06-1.85,4a15.6,15.6,0,0,1-3.43,1.29c-3.83,1.41-7.93,2.09-11.41,4.41a54.82,54.82,0,0,0-6.6,5.46c-5.2,4.36-10.66,8.18-17.48,9.69a61.33,61.33,0,0,0-8.6,2.82c-5,1.68-10.19,2.82-15.09,4.82-7.42,2.11-14.72,4.78-22.49,5.42A600.14,600.14,0,0,1,364,335.85a157.77,157.77,0,0,0-21.4,1.34c-2.66.42-5.34.69-8,1.16-5.17.89-10.37,1.46-15.57,2.09-9,1.1-18.1.56-27.16.15l-7.47-1c-10.92-1.17-21.84-1.14-32.84-1.09-5.76,0-11.56.14-17.24-.86-7.37-1.3-14.74-.91-22.13-.59-6.19.13-12.38.41-18.57.33-4.28-.06-8.6-1.23-12.28,2.56-1.62,1.66-3.45,1.11-2.81-1.89,2.8-3.47,5.08-7,4.48-11.89-.5-4.15-2-5.89-6.26-6.09-2.43-.16-5,.11-7.43-.16,1.86,3.64,1.48,5-2,7.18-7,3.82-13.08,9.17-20.57,12.17-5.59,2.21-11.33,3.66-17.43,2.83-.59-3.82,2.58-3.83,4.7-4.06a45.34,45.34,0,0,0,17.39-6c2.76-1.54,5.11-3.71,7.92-5.18,1.48-.84,3.09-1.5,4.19-2.94-1.07-1-2.4-.85-3.4-1.55-4.36-2.2-8.71-1.11-12.71.74a22.2,22.2,0,0,1-9.13,2.12c-11.85.22-23.73-.73-35.55.74a10.07,10.07,0,0,1-3.71-.21,32.79,32.79,0,0,0-11.85-.24c-5.88.35-11.75.71-17.63,1-1.19.06-2.78.56-3.19-1-.51-2,1.44-1.91,2.6-2.43,8-.24,16-.53,24-1.53h0c13.91-.25,27.8-.91,41.72-.39,1.82.07,4.26.63,5.36-1.15,1.21-2,2.82-1.92,4.57-2.09l22.14-2.09c.74-.91,1.57-.7,2.42-.2A210,210,0,0,1,191.69,317,263.15,263.15,0,0,0,227.85,319c1.2-.57,2.43-.14,3.64-.14,10.34-.34,20.57,1.49,30.89,1.37,9.55.15,19,.22,28.55.47,26.07.68,52.14,1.74,78.22,2.07,15.72.21,31.46-.78,47.19-1,5-.07,9.75-.53,14.86,1.77,3.49,1.56,8.66-.26,12.78-2a13.67,13.67,0,0,1,9.25-.87c3.77,1.08,7.34-.6,11-.69,6.79-2.07,13.79-3.36,19.79-7.46,3.79-4.28,7.73-8.36,13.26-10.43,3.16-2.3,7.13-2.7,10.51-4.47C509.13,296.9,510.52,296.58,511.92,295.85Z" transform="translate(0 0)"/>
  <path class="cls-2" d="M518.79,291.4c.48.07,1.13-1,1.7-1.6,2.7,3.48-1.35,5.41-2,8.41,3.71.3,6,3.38,9.42,4.08a1.76,1.76,0,0,1-1.31.9c-6.59.34-11.63,4-16.53,7.81-11.41,8.89-24.4,15-37,21.83-3.36,1.81-6.8,3.91-10.66,4.41-11.79,1.57-22.84,6.29-34.59,8-2,.3-4.16.59-5.26,2.75-1.48.06-2-1.55-3.53-1.77-11-1.6-22.16.6-33.1-2.19-3.64-.93-7.64-.29-11.49-.8-3.23-.43-7.29-2.86-9.53,2.06-.11.23-.77.28-1.17.28-8.53-.15-17.07-.19-25.6-.54-2.4-.1-4.4-.28-6.49,1.46-3.14,2.6-7.14,1.69-10.76,1.35-2.51-.23-1.51-3.21-2.51-4.72,3.61-2.69,8.12-2.76,12.17-4.2a73.11,73.11,0,0,1,8.11-.3c1.62-.07,3.47,0,3.47-2.4a84.71,84.71,0,0,1,18.45-1.86c15.32.5,30.53.37,45.94-.13s30.54-1.67,45.19-6.73A38.88,38.88,0,0,0,466.45,323c9.09-3,18.48-5.48,25.71-12.39,2.6-.94,6.69,0,5.93-4.94,1.55-1.95,3.88-2.47,6.06-3.18,2.94-1,6-1.62,9-2.62,1.49-.49,2.94-1.53,2.08-3.34-.78-1.61-2-.44-3.1,0a30.89,30.89,0,0,1-4.34,1.07C511.65,295.91,513.47,290.63,518.79,291.4Z" transform="translate(0 0)"/>
  <path class="cls-3" d="M193.9,89.32c-32.23-9.95-65.23-16.69-98.17-23.69-8.6-1.83-17.6-2.2-26.11-4C55.9,58.8,42.07,55.93,28.76,51.21c-1.21-.43-2.91-.33-3-2.27.81-.41,1.92.35,2.92-1.13-4.05-1.08-8-2-11.8-3.19-2-.6-4.48-.63-5.12-3.37,2.51-.9,4.81.49,7.23.64,2.26.14,3.55-.5,2.55-3.08l.82-1.52c.63-.6,1.91.09,2.16-.72.36-1.15-.82-1.52-1.64-1.91a5.63,5.63,0,0,0-4,0c-1.44-1.31-1.16-3.72-3-4.81a49.22,49.22,0,0,1,15.71,4.81C51.22,44.21,72.29,49.54,93.39,54c12.87,2.69,25.65,5.47,38,9.59q33.18,11,66.53,21.47c3.27,1,4.52,2.36,3.63,5.6C198.84,91.17,196.36,90.08,193.9,89.32Z" transform="translate(0 0)"/>
  <path class="cls-5" d="M358.15,115c6.74,3.79,14.32,5.64,21.23,9a4.91,4.91,0,0,0,2.84,0,119,119,0,0,1,40.46-1.25c-.86,1-3.83.23-2.36,3-1.36,0-2.74.36-2.51,2,.38,2.72-1.53,3.41-3.26,4.57-8.1,5.48-17,9.81-23.87,17-6,6.31-5.91,5.17-13.47,1.78-1.62-.73-3.56-1.33-4.3-3.54a92.8,92.8,0,0,1-4.59-24.31c-.05-1.08-.13-1.94-1.13-2.19s-2.25-.59-3,.53a2.13,2.13,0,0,0,.13,2.7,5.19,5.19,0,0,1,1.45,4c-2.13-.18-2-2.5-3.41-3.33-1-.61-1.67-2.29-3.06-1-1,.94-.32,2.06.3,3,1.82,2.76,3.72,5.47,5.46,8.29a31.88,31.88,0,0,1,4,9.49c.76,3.13,2.05,6.51-2,8.56,1.22,4.67-2,9.09-.44,14,1.86,5.87,3.6,11.92,2.8,18.26-.54,4.14-1.69,4.5-5.54,3.8-4.19-.75-7.49-3.45-11.49-4.36-8.68-2-16.85-6.24-26.1-5.72a20.88,20.88,0,0,1-7-.57c-3.07-.92-6.73.57-9.27-2.3l-.07.07,2.42-.16c6-2.68,11.85-3.09,17.56.75a2.74,2.74,0,0,0,2.77.31c4-2.05,7.85-.56,11.59.78,4.92,1.74,10.13,2.68,14.7,5.43,1.88,1.17,2.89.35,2.53-1.83s-1-4.5.13-6.5c1.66-3,1.32-5.84.32-8.77-.9-2.67-.87-5.14,1-7.4.76-.95,1.24-1.88.36-3-1.9-2.41-1.23-4.72.57-6.72,1.54-1.74,1.24-3.32.46-5.32a56.79,56.79,0,0,0-6.28-11.6c-1.53-2.16-2.92-4.39-2.59-7.22a1.89,1.89,0,0,0,.06-.67,1.92,1.92,0,0,0-2.06-1.78c-1.08-.09-2.23-.09-3-1.09,1.48-1,3.16-.74,4.79-.74,1.18,0,2.56.51,3.39-.77,1.08-1.69-.88-2.31-1.35-3.46C357.82,116.26,357.4,115.32,358.15,115Z" transform="translate(0 0)"/>
  <path class="cls-3" d="M129.09,251.8c-14.84-1.05-29.39-.81-43.27,5.68-5.1,2.4-9.34,5.26-11.1,10.88-1.24,3.57-4,5.34-7.49,6.07-9.79.2-19.58.27-29.31,1.55-1.36.17-2.79.16-3.72-1.21.56-.82,1.44-.73,2.24-.73,1.79,0,1.72-1.5,2.16-2.57a.76.76,0,0,0,.11-.33.83.83,0,0,0-.71-.93c-1.14-.26-1.75.6-2.44,1.24a8.27,8.27,0,0,1-5.7,2c-5.42.21-9.41-3.6-14.27-4.93-.43-.12-1.08-.89-1-1.2.82-3.17-1.56-3.45-3.56-4.31a2.61,2.61,0,0,1-1.76-2.58c.12-1.38,1.15-2.68,2.3-2.55,4.36.47,8.58-1.54,12.36-1.42,8.24.26,16.5-.15,24.73.42,2,.15,4.09.59,6.09.94,1.31.23,2.3,3.7,4,.4.92-1.84,3.82-1.54,4.25-3.54,1-4.69,4.23-3.91,7.39-3.31a29.55,29.55,0,0,0,11.85,0A163.23,163.23,0,0,0,98.75,247c9-2.91,18.23-2.08,27.36-.79,6.38.91,13.33,0,18.76,4.75C139.74,253.45,134.34,252.26,129.09,251.8Z" transform="translate(0 0)"/>
  <path class="cls-6" d="M33.27,286.65c-2-3.43-2.56-7-1-10.72,1.88,1.22,3.95.93,6,.7a217.45,217.45,0,0,1,22.25-1.2c5.95-.06,11.81.79,17.72.94a295.38,295.38,0,0,0,33.79-.74,36.57,36.57,0,0,1,11,.31c1.12.49,1.8,1.63,3,1.73-.64-.55-2.61-.42-1.25-2.2,2.19-1.13,4.58-.8,6.89-.8h47.57a85.56,85.56,0,0,0,14-1.37,13.08,13.08,0,0,1,1.18-.75c2.26-.31,1.37,1.67,1.92,2.61-1.07,6.51-3.88,8-9.15,4.71-1.16-.72-2.16-.15-3.16.05a263.12,263.12,0,0,1-36.17,4c-31.85,1.79-63.77,1.27-95.64,2.27C45.88,284.7,39.57,286.41,33.27,286.65Z" transform="translate(0 0)"/>
  <path class="cls-3" d="M46.93,286.59c-1.23.09-2.78.15-2.64,1.8s1.69,1.5,2.92,1.5c.83,0,1.66-.14,2.49-.14,8-.35,16-.65,24-1.07a11.78,11.78,0,0,1,7.77,2.16,63,63,0,0,0,23.42,10.05c4,.86,8,2.17,12,3.17.85.22,1.72.48,1.72,1.48,0,1.29-1.11.94-1.84,1l-51.13,4.25c-2.31-2.51-5.37-3.1-8.55-3.27-2.33-.08-4.76-.08-7-.08s-5,.21-5.07-2.79,2.62-3,4.9-3h4C47,300,43.43,292.79,36.37,291.47a4.2,4.2,0,0,1-3.1-4.79c6.24-2.49,12.57-3.57,19-.49Z" transform="translate(0 0)"/>
  <path class="cls-4" d="M287.52,54c-4.79.3-5.6-.42-6-4.93-.27-3.07-.44-6.38-4.94-7.07-2.7-.43-3.67-2.75-2.18-5.43a31.32,31.32,0,0,1,2.24-3.45,5.48,5.48,0,0,0,.76-5.85c-1-1.87-2.61.42-4,.28-.95-.1-2,.17-2.65-.7a1.7,1.7,0,0,1,0-1.49c1-1.86,8.2-4.73,10.32-4.19,2.64,1.33,5.53.93,8.32,1.22,6.63.8,13.26,1.48,19.89,2.25,3,.35,3.66-.66,3-3.47-1.17-4.89-4.58-8.35-7.17-12.61-1.4,4.47-1.31,9-2.53,13.17-.31,1.08-.76,2.26-2.07,2.26-1.52,0-2-1.24-2.24-2.52a33.67,33.67,0,0,1-.13-6.19,9,9,0,0,1,.3-1.78c.23-1.17.89-2.3.34-3.81-4.38,1.89-7.68,4.52-8.14,9.63A4.48,4.48,0,0,1,289,21.93c-2.63.68-3.11-1.08-3.25-3-.34-4.53,1.74-8,5.15-10.7a34,34,0,0,1,7.66-4.85c1.35-1.16,3.94.52,4.65-2,.3-1,1-1.14,1.92-.86,7.29,2.29,15.51,12.74,15.51,20.29,0,2.52.89,3.8,3.07,4.6,1.93.72,3.84,1.52,5.72,2.37,4.27,1.85,6.07,5.36,6.27,9.85.06,1.45,0,2.75-1.57,3.45s-2.59.09-3.68-.91c-1.65-1.56-3-3.63-5.58-3.78-4.53-1.07-8.75-3.24-13.43-3.81-2.29,2.13-2.16,5.82-5,7.68-1.88,1.23-3.65,4-6,1.74s.53-3.82,1.8-5.42c.85-1.08,2.06-1.86,1.44-3.61S301.54,31,300,30.81c-3.41-.47-6.8-.95-10.24-1.18,0,3.43-1.65,5.56-4.45,5.7-3.38.18-2.23-2.79-3.23-5-.58,2.91-1.95,5-3.5,7.69,4.29-.49,6.08,1.75,7.22,5.09,1.63,4.8,3,5.79,7.94,7.65,2.77,1,5.26,1.28,7.71-.58a4.06,4.06,0,0,1,2.82,1A4.1,4.1,0,0,1,301,55.79c-2.28-2.51-2.27,1.18-3.57,1.31A15.14,15.14,0,0,0,287.52,54Z" transform="translate(0 0)"/>
  <path class="cls-7" d="M124.27,276.63c-14.39-.13-28.71,2-43.14,1-15.28-1-30.58-1.7-45.88.8-1.83.3-3.43.09-3-2.46l1.93-1.11c11.33-.78,22.63-2,34-1.23a53.83,53.83,0,0,1,11.06-.49c2.64.05,4-.93,4.56-3.58,1.1-5.35,4.62-8.53,9.62-10.35q3.5-1.17,7.11-2c6.8-1.78,13.82-1.95,20.71-3,2.48-.18,5.31-.91,7.37.19,4.89,2.63,9.84,1.94,14.89,1.32a51.7,51.7,0,0,0,11.65-.81c7.72.1,15.4,0,23-1.37,4.69-1,9.36.64,14.09,0,1.64-.22,3.63.75,2.54,3.34l.06-.11c-1.23,2.25-3.47,2.08-5.47,2.08-22.21.52-44.39,1.29-66.32,5.29a3.7,3.7,0,0,1-1.65.12c-4.78-1.4-4.42-3.18-.35-5.18.09-.05-.69.42-.2.11-4.53,2-9.57,1.05-14.2,2.53-5.12,1-10.5,1.22-14.92,4.53a5.73,5.73,0,0,0-2,3.05C89,271.4,89.49,273,92,273c7.45-.14,15,.95,22.45-.58,7.54-.18,15.07-.93,22.63-1.1,17.86-.39,35.75.67,53.61-.58,1.67-.11,3.35.06,4.2,1.89.33,1.73-.31,2.54-2.15,2.61-4.64.17-9.32.67-14,.67-16.54.15-33.09.08-49.63.15-1.61,0-3.32-.38-4.82.62Z" transform="translate(0 0)"/>
  <path class="cls-3" d="M163,324.65a19.46,19.46,0,0,1-3.05,2.76c-3,2.09-6,4.35-9.15,6.22A37.63,37.63,0,0,1,134.5,339c-1.92.17-5.06-.38-5.29,3.17-1.48-.06-3.27.41-4.39-.26-8-4.71-17.81-3.85-25.74-8.71-2-1.28-3.91-2.13-2-4.93,1.48-2.17.09-2.58-1.76-2.58l-8.24-.11c1.68-.84,3.51-.52,5.28-.62,15.41-.78,30.84-.88,46.27-.78,2.07,0,4.7.47,6-.93,3.2-3.42,7.29-2.38,11-3.16,2.61-.55,4.81-.09,6.15,2.5C162.92,322.84,164.13,323.15,163,324.65Z" transform="translate(0 0)"/>
  <path class="cls-8" d="M359.72,54.65c-1-2.11.83-4.06.66-6.23-1.88.38-2,2.2-3.19,2.84-1.32-2.69-4-3.22-6.51-4,1.49-.19,3-.35,4.49-.6,1.06-.18,2.38-.13,2.39-1.74s-1.15-1.6-2.38-1.41-1.94-.08-1.54-1.48c1.13-4,.37-7.84-.36-11.76-.33-1.75-.26-3.27,2.41-2.83,5.69.93,11.45,1.45,17.1,2.6,1.5.3,6.1-1.06,3.76,3.76-.16.33.55,1.2,1,1.69a4.84,4.84,0,0,1,1.55,3.79c.09,2.56,0,6,2.29,8.39,3.25,3.39,3.33,5.35.18,9.08-3.75,4.43-7.39,8.89-9.53,14.36-2.3-1.32-1-3.19-.72-4.88,1-3.61-3.13-4.47-3.74-7.52a13,13,0,0,0,4.68-3.46,1.6,1.6,0,0,0,0-2.24c-.51-.59-1.35-.88-1.83-.38-3.14,3.31-7.05,2.08-10.77,2Z" transform="translate(0 0)"/>
  <path class="cls-7" d="M202.28,92a3.79,3.79,0,0,1-4.37.94C160.45,81,122.05,73.11,83.56,65.52c-4.52-.93-9,1.12-13.76-1-7.57-3.37-15.8-4.74-24-5.86-3.52-.55-7.41,0-10-3.36a121.85,121.85,0,0,0-20.37-4.73C11,50,6.44,49.15,2,48.38c-1.1-.2-2.29-.64-1.87-2.14.35-1.22,1.35-1,2.44-.93s2.18.32,3.27.49l20,3.1A383.15,383.15,0,0,0,77.88,61.38c33.32,5.34,66.22,13,98.81,21.77,8.35,2.26,16.58,5,24.86,7.48Z" transform="translate(0 0)"/>
  <path class="cls-9" d="M488.2,128.23c-.94-2.71-3.55-3.35-5.72-4.35-9.19-4.44-19.29-5.51-29.19-7-7.52-1.14-15-4.07-22.79-2.14-.28.08-1-.07-1-.22-.6-2.59.87-4.76,1.57-7.09.47-1.63,1.73-1.39,3-1a45.4,45.4,0,0,0,11.31,2.2c17.92.83,34.62,6,50.44,14.21,1.45.75,2.86,1.73,4.64,1.38C497.33,128.45,492.94,128.89,488.2,128.23Z" transform="translate(0 0)"/>
  <path class="cls-10" d="M228,52.27c1.64-.87,4.52,1.64,5-.87.55-2.89-3.07-1.68-4.54-2.89.94-1.79,1.88-3.6,2.83-5.4a1.44,1.44,0,0,1,1-.44c1.85,0,1.72,2.82,3.72,2.71.93-1.16.17-2.54.73-3.64a1.59,1.59,0,0,1,2.15-.43c1.53.26,2.67.35,2.35,2.75-.56,4.19,1.11,5,5.11,3.19.87-.39,1.88-.51,2.72-1,1.35-.72,1.63-.47,2.49,1,2.06,3.5-1.37,4.55-2.37,6.64-.46.93-1.82,1.65-.66,2.8s2.36.32,3.16-.68c1.92-2.39,4.47-4.48,3.85-8.39,2.17,1.9,1.31,4.42,2.39,6.35.86,1.53,4.29,2.87,1.64,5.21-1.59,1.4-4,1.91-5.4,3.69-1,1.17-1.94,2.32-2.84,3.54-1.67,2.21-3.29,4.5-5.1,7-3-7-3-7-10.51-10.65-1-.51-2.84-.37-2.74-2,.08-1.47,1.91-.66,2.69-1.36,1.48-1.34,4.86-1.62,3.62-4.56-.72-1.7-2.76-3.46-5-2.93-2,.47-4.89.84-4,4.3C229,55.23,229.93,52.89,228,52.27Z" transform="translate(0 0)"/>
  <path class="cls-11" d="M180.8,249.4c2.95-.77,6-.2,9-.35,1.55-.08,3.4-.14,3.55,1.86s-1.7,2.14-3.23,2.36c-5.58.79-11.28-.15-16.82,1.14a155.75,155.75,0,0,1-18.05,1.23,19.65,19.65,0,0,0-4.26.4,15.92,15.92,0,0,1-2.85-.13,33.85,33.85,0,0,0-8.53-.24c-2.35,0-4.75.35-7-.22-8.59-2.2-17.19-.35-25.78-.35-6.15.84-12,3-17.81,4.84-5.37,1.72-10.66,4.16-11.1,11.16,0,.06,0,.11,0,.17a2,2,0,0,1-2.15,1.83,2.28,2.28,0,0,1-2.25-2,4.5,4.5,0,0,1,0-2.44A14.57,14.57,0,0,1,78.87,260c5.39-4.18,12.07-6,18.32-7.91,7.55-2.28,15.81-2.21,23.78-2s15.9,1.32,23.9.87C157,253.08,168.83,250.79,180.8,249.4Z" transform="translate(0 0)"/>
  <path class="cls-2" d="M176.13,338.75a45.55,45.55,0,0,1-10.31,4.07c-3.28.86-6.28-.21-7.78-3.23s1.81-4.08,3.57-5.59c.82-.74,2-1,2.77-1.74,1.35-1.45,3.89-2.33,2.89-5.13,2-2.52,3.87-5.05-.53-8h11.49a5.45,5.45,0,0,1,5.38,3.69,13.08,13.08,0,0,1-5.12,15.27A10.6,10.6,0,0,0,176.13,338.75Z" transform="translate(0 0)"/>
  <path class="cls-12" d="M530.4,304.65s0,.08,0,.12a1.77,1.77,0,0,1-2.26,1.07c-6.77-1.34-11.14,3.06-15.9,6.54-1.11,2.16-3.09,3.16-5.19,4l-30.45,17.54c-1.87,1.73-4.29,2.43-6.54,3.43-10.14,3.82-21.12,4.15-31.33,7.82A55.19,55.19,0,0,1,422.54,348c-1.08-1.62-1-3.14,1.17-3.25,11.22-.57,21.22-5.91,32.22-7.26a31.25,31.25,0,0,0,9.22-2.23c15.81-7.28,31.18-15.31,45.18-25.8,5.16-3.87,10.4-7.94,17.53-7.14C529.13,302.63,530.84,302.63,530.4,304.65Z" transform="translate(0 0)"/>
  <path class="cls-13" d="M216.6,84.43c2.66.54,2.75-1.32,3.15-3.16,1.51-7,4.2-13,11.86-15.42,2.88-.92,4.73.8,6.62,1.8,2.07,1.16-.36,2.55-.93,3.66-2.11,4.09-3.7,8.29-3.48,13,.06,1.32-.27,3.19,1.66,3.17s1.7-1.9,1.62-3.2c-.26-4.32,1.19-8.14,3.19-11.82.32-.59.69-1.69,1.53-.35.2,5.41-2.18,10.44-2.29,15.8-.59,2.11-1.83,2.84-4,2a31.7,31.7,0,0,0-4.34-1.28c-1.23-.27-2.83-1.51-3.64.26s1.38,1.94,2.19,2.94c0,.52-.51.62-.83.87-2.11-.81-3.8-1.59-2.35-4.52,1.29-2.62.21-4-2.84-3.3-2.13.46-4.27.87-6.41,1.3C217.07,85.63,216.84,85,216.6,84.43Z" transform="translate(0 0)"/>
  <path class="cls-14" d="M257.24,341.4c-15-1.56-29.86-4.94-45.09-4.31,2.36-1,4.87-.69,7.3-.64,15.26.26,30.51,1.13,45.78.8a81.15,81.15,0,0,1,19.13,2.38C275.25,339.19,266.38,342.35,257.24,341.4Z" transform="translate(0 0)"/>
  <path class="cls-15" d="M207.2,97c2.79-2,5.6-3.91,8.38-5.91,1.82-1.3,3.61-2.62,6.15-2.1-.37,2.13-1.76,2.91-2.91,3.81s-3.1,1.72-2,3.45,2.67.58,4-.14c.54-.25,1.14-1,1.78-.25a1.61,1.61,0,0,1,.19,1.89c-2.51,5-7.18,5.92-11.39,2.1a4.83,4.83,0,0,0-3.33-1.23Z" transform="translate(0 0)"/>
  <path class="cls-16" d="M294.54,5.07a9.18,9.18,0,0,0-5.69,3.29c-2.42,2.85-2.88,6.36-3.55,9.85-.39,2-.89,4.46-3.8,2C278.82,6.48,293.71-3.71,303.23,1.29c0,2.77-2.46,2.1-3.92,2.83C297.5,3.33,296.13,4.88,294.54,5.07Z" transform="translate(0 0)"/>
  <path class="cls-17" d="M302.7,341.35c-3.53.44-7.34.79-10.87-.74,7.27-.09,14.56.53,21.81-.47l21.22-2.87c-.32,2.66-3,1.2-4.19,2.43a53.22,53.22,0,0,1-12.31,3.42C313.07,343.34,308.13,340.63,302.7,341.35Z" transform="translate(0 0)"/>
  <path class="cls-18" d="M291,9.48c-3.3,2.35-4.36,5.84-4.5,9.73-.08,2,.69,2.87,2.69,2.18l0,0a1.26,1.26,0,0,1,0,1.79c-2.15-.05-4.31-.14-6.46-.14-1.4.06-2-.49-1.67-1.94.12-.31.25-.61.38-.92,2.3.93,2.75-.25,3-2.25.47-3.85.72-7.86,4.2-10.54,1.84-1.09,3.78-2,5.6-3.14,1.68-.33,3.3-2.21,5.05-.16C296.54,5.9,293.7,7.57,291,9.48Z" transform="translate(0 0)"/>
  <path class="cls-19" d="M183.76,248.63c4.32-.58,8.52.25,12.73,1,.81,2.77.78,5.3-1.77,7.3-.36-1.77-1.34-2.39-3.22-2.34-4.4.11-8.8,0-13.21-.08-1.67-.07-3.67,1.46-5-.88l16.31-1.37c1.26-.1,3.2.46,3.06-1.54-.13-1.85-2-1.41-3.33-1.41-2.86,0-5.72.05-8.58.05C181.6,248.42,182.76,248.76,183.76,248.63Z" transform="translate(0 0)"/>
  <path class="cls-20" d="M13.8,66.29a1.08,1.08,0,0,1-.19,0,1.47,1.47,0,0,1-1.08-1.78c.26-1.16,1.26-1.36,2.26-1.24a91.39,91.39,0,0,1,13.28,2.89c1,.28,1.79.89,1.43,2.08a1.51,1.51,0,0,1-1.65,1.08C22.94,68.24,18.36,67.29,13.8,66.29Z" transform="translate(0 0)"/>
  <path class="cls-21" d="M43,59.89c.64,2.82-.83,3.14-3,2.47-2.49-.76-4.94-1.63-7.42-2.44-1.47-.51-3.9-.24-3.47-2.51.38-2.07,2.56-.71,3.92-1C36.55,56.94,40.29,56.85,43,59.89Z" transform="translate(0 0)"/>
  <path class="cls-22" d="M63.89,41.31c-1.1-1.16-4.3-1.06-3.1-3.45,1.09-2.18,3.16-.21,4.7.33a46.44,46.44,0,0,1,4.86,2.25c1.36.67,2.87,1.26,2.49,3.26C69.13,45.42,66.59,43.19,63.89,41.31Z" transform="translate(0 0)"/>
  <path class="cls-23" d="M15.29,38.9c2.12.16,4.23,1.52,6.32-.09,1.15.14,2.19.54,2,2A2.44,2.44,0,0,1,21,43a20.27,20.27,0,0,1-9.19-1.72C11.4,38.17,13.53,38.74,15.29,38.9Z" transform="translate(0 0)"/>
  <path class="cls-24" d="M325,37.78c-1.15-.58-2.13-2.33-3.66-.58a3.12,3.12,0,0,1-2.12-.29,11.26,11.26,0,0,0-3.42-.28,6,6,0,0,1-4.8-1.74c-1.14-1.31-1.14-2,0-3.59,4.93.9,9.77,2,13.93,5C324.91,36.79,324.94,37.29,325,37.78Z" transform="translate(0 0)"/>
  <path class="cls-25" d="M357.13,51.31a4.41,4.41,0,0,1,2.44-4.41,1.75,1.75,0,0,1,2.25.09c.56.54.82,1.45.34,1.84-1.88,1.56-.67,4.34-2.47,5.87A5.21,5.21,0,0,1,357.13,51.31Z" transform="translate(0 0)"/>
  <path class="cls-26" d="M19,34.63c2-3.77,4.07-.84,6,0,1.26.55,2.54,1.79,1.43,3.24-1.4,1.77-2.63-.6-4-.6Z" transform="translate(0 0)"/>
  <path class="cls-27" d="M78.22,75.79c2,.4,4.23.61,4.74,3.12a1.34,1.34,0,0,1-.07.86,1.31,1.31,0,0,1-1.73.69c-1.84-.64-3.92-1.11-4.92-2.91C76.34,76.06,77.21,75.63,78.22,75.79Z" transform="translate(0 0)"/>
  <path class="cls-28" d="M35.78,55.32l10,3.36c-.94.39-2.24-.12-2.81,1.16L33,56.41C33.94,56.06,35.13,56.48,35.78,55.32Z" transform="translate(0 0)"/>
  <path class="cls-29" d="M392.9,53c-1-.37-1.26-2.25-2.86-1.5s-.45,2-.45,3.11c-.21,1-.3,2.15-1.86,1.63,1.17-1.76-1.81-4.16.87-5.69a3,3,0,0,1,1.92-.94c2.56,1.74,5.5.57,8.23,1.06C397.24,52.5,393.92,49.84,392.9,53Z" transform="translate(0 0)"/>
  <path class="cls-30" d="M74.61,45.59a60,60,0,0,1-13.34-3.28c.86-.43,2.07.17,2.62-1,3.2,0,5.34,3.94,9,2.39Z" transform="translate(0 0)"/>
  <path class="cls-31" d="M39.11,24.63c1.37.18,2.78.58,3,2.18.16,1.23-.92,1.6-1.92,1.46-1.35-.18-2.68-.53-3.06-2.07A1.59,1.59,0,0,1,39.11,24.63Z" transform="translate(0 0)"/>
  <path class="cls-32" d="M507,316.4a22.2,22.2,0,0,1,5.19-4C512.13,315.94,509.78,316.41,507,316.4Z" transform="translate(0 0)"/>
  <path class="cls-33" d="M470,337.35c1.75-2,4.21-2.58,6.54-3.43C475.27,336.76,472.92,337.63,470,337.35Z" transform="translate(0 0)"/>
  <path class="cls-34" d="M391.79,298.38c1.89-.42,4-1,5.34,1.25a1.49,1.49,0,0,1-.83.94c-7.63,1-15.19-.33-22.78-.9-.42-2.14-2.76-3-3.42-5a4.08,4.08,0,0,1,.94-2.25c3.65-5.31,4.83-10.73,1.92-17-2-4.34-3.91-9-4.51-13.69-.62-4.89-4.19-7.78-5.72-12.78-.56,1.8-.24,2.47.14,3,4.93,7.06,1,13.34-2.91,18.48-2.72,3.55-3.7,7.22-5.45,11.22,2.46-.82,2.12-4.75,5.39-3.82a11.12,11.12,0,0,1-1.25,7.13c-2.37,3.27-2.51,7.12-2.63,11,1,.21,2.09-.06,3.09.16,2.45.94,3.56-.37,4.2-2.48a3.58,3.58,0,0,1,3.16,0c1.65,2.46,0,3.89-1.66,5.32-4.6.52-9.23,1.48-13.69-.71a40.43,40.43,0,0,0-3-5.33c-.76-3.8-.52-7.68-.9-11.52.4-2,1.42-3.93,1.75-5.93.39-2.35,1.87-4.73.12-7.13C348.4,263.16,347,258,348,252.76c.52-2.76-1.1-6.18.84-8,2.26-2.1,5.39,1,8.18.47-6-9.07-9.86-19.42-17.07-27.91,1.6,7.29,1.53,14.83,4.53,21.62,4.46,10.22,1.81,20.85,2.4,31.29a2.6,2.6,0,0,1-.34,1.19c-.67,1.4-.63,3.65-2.78,3.55a3.56,3.56,0,0,1-3.27-3.31c.05-7-4.26-7.42-9.5-6.8a8.27,8.27,0,0,1-1.23-.12,4.91,4.91,0,0,0-4.9,3.14,4.54,4.54,0,0,0,1.22,5.28,16,16,0,0,0,4.8,3.2c5.13,2.38,5.28,2.4,4.46,8-.4,2.74.79,2.82,2.73,2.35s3.39-1.77,4.89-3c1.33-1.1,3-1.14,3.12.73.42,5,2.08,10.22-1.92,14.66,1.1.71,2.52.62,3.36,1.62,1.44,5.57.39,7.72-4.37,8.92-13.68.15-27.34-.65-41,0-1.36.06-2.81.33-4-.67,1.85-2.06,4.68-.2,6.68-1.71,1.36-.23,2-1.07,1.53-2.34-.65-1.72-1.88-3.43-3.77-3.36-2.57.09-2.43-1.43-3.12-3.15-4.45-11-5.83-23.31-14.17-32.62a6.16,6.16,0,0,1-1.63-5.69c.6.18,1.08.18,1.33.42a99.42,99.42,0,0,1,9.25,10c.74.92,1.62,2.4,3,1.4,1.57-1.15.27-2.47-.43-3.56-1.52-2.39-4.49-3.65-5.26-6.65,2.13-.67,3.13,2.12,5.13,1.62a1.92,1.92,0,0,1,.69,1.82c-.06,1.48.06,3.24,1.89,3,2.27-.31,1.31-2.29,1-3.64-.52-2.28-1.29-4.5-1.83-6.77-1.41-5.84-5.6-7.49-10.6-4-1.34.95-2.43,2.1-4.27,2.23-1.31.09-2.75.57-2.64-1.31.08-1.49-1.41-4.14,1.47-4.28,3.58-.16,5.77-2.19,8.08-4.39,4.8-4.57,5.46-4.45,8.8,1.29.28.48.64.91.88,1.4,2.53,5.11,6.11,9.94,3.83,16.25a3.82,3.82,0,0,0,.72,3.93c3.69,3.55,4.57,8.32,6,12.86.49,1.57,1.17,3,3.17,1.57,2.39,2.2,3.07,5.28,4.07,8.15.34,2.06.71,4.06,1,6.06.18,1.36-.14,3.28,1.86,3,1.73-.26,1.57-2.17,1.23-3.44-1.16-4.21-.51-8.47-.6-12.71-.12-4.79.59-9.57-.61-14.35-2.1-8.36-2.64-17.07-5.75-25.24-.58-1.5-1.32-4.34,1.34-4.69,2-.26,2.65-1.8,4.14-2.32a3,3,0,0,1,.77,3.06c-3.17,4.1-3.17,4.1-1.55,6.81.22-4.73.37-4.86,5-4.46a29.8,29.8,0,0,0,8-.26c-2.73-1.35-5.82.06-8.39-1.71-3.06-4.78-3.07-8.38,0-12.06,2-1.52,5-2.28,4.16-5.78-.15-.85.95-1.79-.15-2.59-1.05.45-1.13,1.54-1.66,2.31-1.38,2-3.17,2.77-5.3,1.38-3.05-2-6.53-2.88-9.89-4.07a13.7,13.7,0,0,0,.79-7.28,36.85,36.85,0,0,1,.16-9.84c.81-6.4,1.69-12.8,2.28-19.22.25-2.18.74-2.94,3-2.41A212.19,212.19,0,0,1,344.58,190c4.61,1.76,9.21,3.09,14.35,1.6,4.76-1.37,8.9,3.5,7.41,8.28-.57,1.82-1.91,4-.57,5.52,4.91,5.58,4.58,13.56,9.31,19.21-3.34-1.44-6.85-1.54-10.15-1.61s-5-.46-2.89-4.5.87-6.06-3.2-6.43c-.93-.28-1.46-1.16-2.32-1.54-.06-.68.13-1.6-.24-2-3.73-4-6.93-8.34-8.27-13.81a2,2,0,0,0-.13-.25,1.16,1.16,0,0,0-1.61-.31,1.53,1.53,0,0,0-.71,1.79c1.06,3.67,1.51,7.57,4.51,10.45,4.15,4,4.11,4.29.85,9.29-3.41,5.22-2.65,9.82,1.59,12.82,2.9,2.09,6.27,1.9,9.33,3,.94.33,2.5.1,2.61,1.54.08,1.11-1.18,1.34-2,1.81-4,2.3-4.34,5.07-1.1,8.17,6.49,6.2,10.42,13.9,13.85,22.11,2.16,5.17,1.06,11.67,6.28,15.61,1,.79,1.84,2.61,3.33,1.42,1.33-1.06,3.46-1.76,2.79-4.47-1.84-7.35-3.09-14.86-7.78-21.17a17.52,17.52,0,0,1-2.08-4.9c-1.28-3.75-1-8.37-5.52-10.52a1.47,1.47,0,0,1-.22-2.7c2.49-1.75,3.56-4.53,5.56-7.65,1.1,8,5.9,13.47,8.76,19.82,4.3,9.55,4.07,19.46,4.78,29.38a3.72,3.72,0,0,1-.28,1.62c-1.69,4.16-1.06,8.7-2.06,13-.45,2,.16,3.26,2.5,3C391.38,297.89,390.52,298.72,391.79,298.38Z" transform="translate(0 0)"/>
  <path class="cls-35" d="M323.05,40.86c6.72,6.07,11.29,13.89,16.94,20.83,2.74,3.37,4.06,7.47,5.39,11.57,3.35,10.27,2.06,21.4,5.95,31.59.64,1.67.27,3.05-2.42,3.51a35.34,35.34,0,0,0-13.55,5.93c-8.84,5.93-16.6,13.15-24.52,20.15-1.47.05-2.92,0-4.1-1.07-.22-.35-.47-.68-.66-1.05-1.4-2.7-2.69-5.39-2.92-8.54-.1-1.54-1.22-3.08-3-2.67s-.61,1.85-.44,3c.49,3.4,1.88,6.5,3.56,10.34-3.07-1.29-5.89-2.34-6.12-4.8-.3-3.4-2.1-3.75-4.61-3.85-1.66-.07-3.42.83-4.94-.51-.36-1.71,1-1.93,2-1.88,6.79.35,9.38-4.77,12.38-9.34,3.57-5.4,6.4-11.29,10.09-16.54a98.24,98.24,0,0,0,7.21-11.44c2.85-5.56,4.55-11.55,7.09-17.21,2.14-4.77-.7-11-5.7-13.86,6,7.48,6.18,8.81,2.6,17.81-.26.68-.42,1.36-.67,2-3,7.55-5.42,15.4-11.29,21.4a16,16,0,0,0-3,4.94c-2.45,5.74-6.25,10.7-9.54,15.93-2.35,3.75-5.62,6.41-10.62,5.84-2-.22-3.72.89-5.53,1.53-1.54.13-3.76,1.5-3.37-1.87,1.28-3.37,2.42-6.75,1.69-10.46a3.1,3.1,0,0,1,.92-3c3.87-3.68,5.33-8.51,6.52-13.51a16.53,16.53,0,0,1,2-5,21.26,21.26,0,0,0,3.15-12.26,22,22,0,0,1,2.77-11.12A88.64,88.64,0,0,0,301,55.79l3.12-4.46a10.46,10.46,0,0,1,4.55-7.54c3.71-2.55,7.35-5.3,11.42-7.3l1.2.72A4.81,4.81,0,0,0,323.05,40.86Z" transform="translate(0 0)"/>
  <path class="cls-35" d="M396.66,157A117.77,117.77,0,0,1,418.3,141.1c1.2-.72,2.84-2.52,4.2-.15,5.21,9.09,10.74,18.05,11.92,28.81.41,3.68.91,7.59,2.91,10.68,4.22,6.36,3.78,14.26,7.41,20.76,1.14,2,.12,3.07-2.08,3.2-13.67.82-27.09,4.66-41,3-2-.24-4.49-1.19-6.26-.24-4.85,2.63-8.47-.7-12.47-2-1.74-.56-1.72-1.75-1.51-3.27a192.67,192.67,0,0,0,1.71-33,7.77,7.77,0,0,0-1-4C387.31,162.87,392.66,160.76,396.66,157Z" transform="translate(0 0)"/>
  <path class="cls-36" d="M310.05,172.51c-2.35-1.17-2-2.13-.82-4.17s4.81-4.77-.56-6.45c-.21-.06-.3-.75-.3-1.14.41-9.61-3.6-20.57,8.16-26.72.47-.24.8-.84,1.19-1.14s.7-.67,1.24.07c1.9,2.67,3.68,1.31,5.38-.33,7.29-7,16.36-9.73,26.11-10.8h1.65c3-.12,6.2-.61,4.33,4.32-.59,1.46.51,2.93,1.41,4.17A66.45,66.45,0,0,1,366,145.07c.74,1.86,1.23,3.08-.77,4.52-1.2.86-3.11,3.08-2,4.08,3.75,3.45.61,5.74-.76,8.45-.78,1.53.25,2.95.67,4.36.72,2.36,1.79,5.08.49,7.08-1.75,2.66-1.57,5.13-1,7.82.32,1.5,1,3.25-.29,4.25s-2.59-.4-3.7-1a55.92,55.92,0,0,0-20.17-6.69c-4.76-.56-9.4-.33-14.19-2-2.52-.89-6.58-2.31-9.4,1.11-.55.67-1.85.27-2.46-.73C312.92,174.26,311.59,173.13,310.05,172.51Z" transform="translate(0 0)"/>
  <path class="cls-3" d="M397.88,298.47c.71-.53,2.24.31,2.3-1a1.62,1.62,0,0,0,0-.22,2,2,0,0,0-2.13-1.86c-4.44.14-4.84-2.95-5.15-6.18a23.31,23.31,0,0,1,.34-4c2.16-8.7.69-17.31-.54-25.92-.7-4.89-3.81-9.05-4.81-13.89,1.65-2.3,4-2,6.33-1.68,1.61.24,3.27,1.06,4.81.12,2.7-1.64,4.74-.56,6.5,1.44,1.94,2.18,4.18,2.58,7,2.39,5.2-.34,10.41-.86,15.2,1.92,2.66,4.08,4.49,8.81,9.19,11.27a3.53,3.53,0,0,1,1.5,2.34c1.63,11.42,8.82,21.1,10.07,32.62.56,2.48.58,4.79-2,6.27a3.69,3.69,0,0,1-1.48,0c-10.45-.28-20.91-.17-31.38-.07a10.51,10.51,0,0,1-3.71-.12c-4.19-1.25-8.83.54-12.83-2.09a1.22,1.22,0,0,0-.08-.5A2.53,2.53,0,0,1,397.88,298.47Z" transform="translate(0 0)"/>
  <path class="cls-35" d="M279,191.42c-6-.87-11.62.45-17.27,2.13-9.32,2.77-18.94,3.33-28.58,3.46-3.22.06-5.48-1.37-6-5a232.94,232.94,0,0,0-7.44-32.46c-1.3-4.41-1.15-4.43,3.07-3.29.77.21,1.85.51,2.4.15,4.34-2.81,9.55-2.3,14.17-3.88a29.4,29.4,0,0,1,21.61.76,5.75,5.75,0,0,0,2.44.23,45.62,45.62,0,0,0,6.17-.45c1.83-.33,1.95.21,1.95,1.89,0,5.43.76,10.78,5.44,14.32s5.53,9,7.95,13.72c.26.53.33,1.65,0,1.93-2.58,2.23-.47,3.82,1,5.7C283.32,192,281.13,191.73,279,191.42Z" transform="translate(0 0)"/>
  <path class="cls-3" d="M253.71,307.06c-11.85,0-23.74.05-35.58-1.33-3.07-.36-4.6-1.21-4.85-4.51-.58-7.47-.36-14.62,5.48-20.32a14.09,14.09,0,0,1,4.3,0c6-1.1,11.88-2.4,17.88-3.28,13.34-2,26.61-4.47,40-6.31,3.48-.48,5,.06,6.48,2.94,4,7.92,5.51,16.78,9.13,24.78a3,3,0,0,1-.14,3.14c-1.54,2.23-.13,3.47,1.8,2.84,3.17-1.05,4.94.5,6.81,2.4.46,1.08.4,1.73-1.08,1.66-1.86-.08-3.73.05-5.6.05C283.47,308.11,268.63,307,253.71,307.06Z" transform="translate(0 0)"/>
  <path class="cls-35" d="M411.15,71.67a15.36,15.36,0,0,1,8.07,10.5c.88,4.09,3.34,7.52,5.23,11.2,2.62,5.11,5.5,10.26,2.39,16.31a10,10,0,0,0-.86,4c-.21,4-2.39,4.81-6.07,4.75-9.09-.15-18.21-.18-27.27.4-6.15.43-7.3-.18-7-6.57.06-1.24.28-2.48.28-3.71-.11-2.2,1-2.49,2.89-2.14a54.47,54.47,0,0,0,8.16,1.12c2.69.08,5.82,1.66,7.88-1.58.28-.74.59-1.44,1.44-1.68.88,1,1.69,2.66,3.27,1.47s.24-2.49-.51-3.56c-3.07-4.4-6.28-8.68-8.18-13.8a5.73,5.73,0,0,0-3.17-3.66,1.71,1.71,0,0,1-.38-.13,1.88,1.88,0,0,1-.9-2.5c1.33-3.22.1-5.77-1.58-8.44-.62-1-.77-2.21-2.2-1.57l-.07,0a2.36,2.36,0,0,0-1.15,3.13c.45,1.08,2.1,2.21,1.9,3-1.44,5.51,1.23,8.84,4.9,12.51,2.3,2.32,2.56,6.39,5.45,9.32a21.6,21.6,0,0,1-4.1,0c-7-1.64-14.23-1.42-21.34-2.12a4.84,4.84,0,0,0-3.58.61c-2.85,2.15-3.85,1.7-4.4-2.09-1.83-12.74,3.55-23.34,10.42-33.27,1.81-2.58,3.15-6.26,7.06-7l1.86-1.64C396.13,61.12,402.9,67.28,411.15,71.67Z" transform="translate(0 0)"/>
  <path class="cls-34" d="M451.08,298.8c2.34-.86.55-2.83.28-4.29a77.67,77.67,0,0,0-7.07-21.45c-1-1.88-1.23-4.13-2.07-7.13a23.76,23.76,0,0,1,2.3,1.84c3.52,4.2,4.09,9.54,5.41,14.54.33,1.26.53,2.72,2.08,2.59,1.79-.14,1.52-1.86,1.24-2.94-1.75-6.92-2.74-14.19-9-19a10.48,10.48,0,0,1-4.15-5.53c-1.31-4.85-3.83-9.11-6.6-13.27a250,250,0,0,1-17.18-30.64c-.88-1.83-1.3-3,1.47-3.16,6.46-.35,12.91-.87,19.36-1.28a2.61,2.61,0,0,1,1.57.32c4.35,3,7.18,12,5.68,17.57a3.92,3.92,0,0,0,.11,2.8c2.14,3.49,1,6.92.14,10.4-.48,1.87-.95,3.74-1.29,5.63-.18,1,0,2.16,1.13,2.33s1.69-.82,2-1.77c.71-2.16.59-4.63,2.12-6.63,1.78,1.41,1.85,3.67,2.78,5.15s1.69,3.06,3.69,1.33c.93-.59,1.13.33,1.56.76a210.72,210.72,0,0,1,9.49,25.52c1.52,5.27,4.77,10.28.77,16-.88,1.27-1.39,4.78,1.3,5.19s1.32-2.63,1.86-4.1c.08-.21.3-.36.67-.76,1.17,1.7.56,3.53.74,5.21.1.89.33,1.7,1.4,1.71s1.31-.87,1.31-1.73c.06-1.65.06-3.3.06-4.94.92,2.59,2.77,4.95,2.12,8-.38,1.77,1.27.82,1.85,1.31-.69,2.41-2.75,1.65-4.34,1.82-2.85.29-5.76.28-7.67,2.94a1.44,1.44,0,0,1-1.2.36,9.54,9.54,0,0,0-5.59-.37,26.24,26.24,0,0,1-9.31.07c-1.26-.42-2.7-.48-3.51-1.78a12.85,12.85,0,0,0,1.85-5.64C449.65,296.53,449,299.5,451.08,298.8Z" transform="translate(0 0)"/>
  <path class="cls-35" d="M247.94,77.39c3.75-6,6.87-12.69,14-15.83,1.35-.6,2-.67,3.21.2a84.88,84.88,0,0,0,8.69,5.57,13.67,13.67,0,0,1,7,9.24c1.79,7.21,2.84,14.39.09,21.55-1,2.64.56,6-1.13,7.88-2.49,2.81-2.3,5.63-2.15,8.81.21,4.4-.94,5.47-5.27,5.4a8.12,8.12,0,0,0-2.8.56,19.63,19.63,0,0,1-10.2.49,8.76,8.76,0,0,0-3.64.14c-8.41,1.94-16.74,1-25-1.2-1.77-.46-1.91-1-1-2.84,3.48-6.92,8.69-10.16,16.56-9.73,4.77.26,9.65.27,14.34-1.32,1.33-.4,2.57-.9,2.14-2.4-1.26-4.32-.34-8.68-.53-13-.15-3.32.83-4.79,3.27-6.18,1.5-.84,4-.76,4-3.07S267.21,80.45,266,80a1.11,1.11,0,0,1-.53-.58c-1.29-3.11-2.91-1.46-3.84,0-2.05,3.25-3.81,6.7-5.59,10.12-.61,1.17-.76,2.6.83,3.09,1.22.38,2.11.65,1.62,2.13-.57,1.71-1.9.89-2.75.56-4.61-1.76-9.48-2.63-14.56-3.76C243.61,86.47,245.46,81.7,247.94,77.39Z" transform="translate(0 0)"/>
  <path class="cls-3" d="M196.38,268.49c-1.1,1.13-.51,2.89-1.51,4.06v.1c-3.94-1.77-7.9,0-11.84,0-23.17.19-46.35-.29-69.51.91a2.25,2.25,0,0,1-1.85.08c-3.37-.49-6.57-2-10.07-1.58-3.26-.71-7,0-9.26-3.36-.31-3.09,1.72-4,4.18-4.57,3.33-.73,6.71-1.3,9.57-3.37,5.82-1.5,11.77-1.89,18.34-2.07-1.29.56-2,.93-2.77,1.18-1.36.46-3.53.4-2.83,2.59.6,1.77,2.29.85,3.6.59a94.73,94.73,0,0,1,9.76-1.82c19.1-1.71,38.2-3.67,57.42-3.35a9.73,9.73,0,0,0,5.21-1.08C193.37,261,197.2,264.39,196.38,268.49Z" transform="translate(0 0)"/>
  <path class="cls-37" d="M208.91,251a1.43,1.43,0,0,1-1.73,1.06c-1.78-1.14-2.18,0-2.18,1.41a26.4,26.4,0,0,1-1.63,9.23c-.38,1.05-.35,1.89,1,2.1a1.56,1.56,0,0,1,1.15,1.12c-2.94,5.06,1.9,4.36,4,4.92,8.88,2.4,9.7,4.62,3.76,11.62a24.62,24.62,0,0,1-2.32,2.36,61.69,61.69,0,0,0-7.86,9c-.72.93-1.07,2.07-.17,2.93s1.76.22,2.65-.14c1.34-.5,2-2.36,3.81-2,.32,2.5.68,4.94.94,7.39.17,1.59-.16,2.54-2.25,2.39-6.42-.41-12.86-.47-19.26-1.41a45,45,0,0,1,6.58-9c.9-1,2.42-1.6,1.76-3.29-1.37-3.53-.69-5.41,3.52-4.74.84,1.27-.54,3.27,1.08,4.09.94.48,1.37-1.07,2.14-1.58,1.89-2.83-.3-5.59-.25-8.41,0-1.14-1.37-1-2.26-.34-.63.47-1.21,1.39-2.06.65-.69-.61-.32-1.56-.12-2.34,1.42-5.57,2.63-11.15.42-16.8a8.32,8.32,0,0,1,.15-6c4-11.21,4.35-23.13,6.67-34.66.24-1.14.19-2.87,1.5-3s1.71,1.62,2.19,2.62a7.75,7.75,0,0,1,.34,2.83c.15,4.69.1,9.33-1.9,13.76-.62,1.38-2,4,1.83,2.66A3.91,3.91,0,0,1,212,240.8c.65.59,1.38.54,1.65-.2,2-5.46,3.92-11,3.18-17-.13-1-.61-1.85-1.92-1.38a.82.82,0,0,1-1-.14c-2-5.55-1.85-5.83,3.71-6.45a50.6,50.6,0,0,1,5.37-.1c3,0,6.68.94,5-4.42-.23-.7.54-1.8.85-2.7.49-1.46.74-3,2.84-3a4.08,4.08,0,0,1,3.74,2.17c1,1.77-.66,2.72-1.56,3.85-3.46,4.39-6.63,8.81-7.39,14.67s-1.76,11.69-2.63,17.54c-.14.93.08,2-.82,2.66-6.06,4.46-7.48,11.09-8.42,17.94-.15,1.06.12,2.44-1,2.92s-2.09-.38-3-1c-1.4-.87-.5-1.87-.08-2.87a26,26,0,0,0,1.8-12.15c-.08-1.43.56-3.43-1.79-3.43-2.05,0-1.39,2-1.58,3.22Z" transform="translate(0 0)"/>
  <path class="cls-5" d="M218.41,122.3c.69-2.53,2-4,4.74-3.87,1,0,2.53.11,2.53.89,0,4.33,3.63,3.86,6,4.59,11.88,3.58,24,1.25,36,.58,3.45-.2,6.66-.64,9.89.72l-.05-.06c-1,3.81-1.67,7.79-3.22,11.38-1.78,4.14-3.88,7.75-10.07,6.66-4.92-.86-10.06-.35-14.51-3.28-.81-.5-1.68-1-2.47-1.5-1.1-.77-2.29-1.49-3.18,0s.46,2.14,1.46,2.93c.76.62,2.17.56,2.25,2.36-2.28-.37-4.45-.63-6.6-1-3.5-.61-6.82-1.32-6-6.32.3-1.83-5.84-7.06-7.54-6.89a1.85,1.85,0,0,0-1.09.53c-3,3.12-7.1,5.61-6.3,10.92.2,1.33-.64,2.22-1.47,3.33-.35-5.06-3.89-9.67-1.79-15.06C218,127,217.77,124.54,218.41,122.3Z" transform="translate(0 0)"/>
  <path class="cls-38" d="M187.26,287.38c.91-1.46-.63-1.66-.83-2.46a12.32,12.32,0,0,1,6.68.08c-.1,2.59-2.79,4.75-1.15,7.59,0,.14,0,.31-.08.4-2.37,3.13-4.34,7-6.85,9.44-2.1,2-7.55.63-11.55.71-2.19.05-4.9.88-6.49-.12-5.7-3.48-12-4.79-18.33-5.74-10.22-1.52-20.42-3.13-30.47-5.58a18.27,18.27,0,0,1-6.45-3.14c1.48-.09,2.1-.17,2.72-.17,18.34-.32,36.63-1.26,54.89-3,4.81-.46,9.67-2.78,14.58-.37C185.19,285.55,186,286.88,187.26,287.38Z" transform="translate(0 0)"/>
  <path class="cls-39" d="M463.3,304.93c-5.34,1.7-10.34,5.38-16.34,2.44a5.39,5.39,0,0,0-2-.05c-18-.27-36.06.75-54.13.29-15.81-.41-31.66,1.29-47.49,2.07,4.61-1.45,3.88-5.38,4.11-8.87,1-1.22,2.38-1.32,3.75-1.32,5.54,0,11.05-.32,16.54.1,24.28,1.83,48.59,3.56,73,3.18,3.15,0,6.33.75,9.45-.25,3.76-.29,7.55-.47,11.28-1,2-.26,3.32.28,4.26,2C465.72,305.31,463.73,303.88,463.3,304.93Z" transform="translate(0 0)"/>
  <path class="cls-40" d="M87.83,290.63a2.36,2.36,0,0,1-2.14-2.22c8.33,1.44,17.45-3.18,24.51,4.67.41.43,1.32.39,2,.54,9.69,2.13,19.31,4.58,29.2,5.77,6.19.75,12.49,1.4,18.19,4.4-7.36-1-14.29,2.82-22.08.67-6-1.65-12.76-1-18.91-3.29s-12.69-3.57-19.06-5.3C96.65,291.86,92.26,291.2,87.83,290.63Z" transform="translate(0 0)"/>
  <path class="cls-40" d="M261.08,258.54a106.85,106.85,0,0,1,15.28.65c2.57.25,5.89,4.37,5.57,7.51-.29,2.84-3.31,2.11-4.95,2.24-16.53,1.36-32.65,5.24-49,7.72-2.38-1.11-5,.09-7.38-.75-.39-2,.19-2.79,2.42-3.18,7.87-1.38,15.65-3.38,23.54-4.62,8.71-1.35,16.84-5.35,25.84-5.35.86,0,1.74-.07,1.86-1.22s-.89-1.69-1.74-2.06c-2.5-1.11-4.83.57-7.27.57C264,259,261.61,261.42,261.08,258.54Z" transform="translate(0 0)"/>
  <path class="cls-34" d="M293.73,238.54c-2.22,2.24-4.51,4.57-6.73,6.66s-5.71,3.09-7.43,1.09c-3.63-4.12-8.05-8.52-6.05-15.12,2.44,0,2.12,3.66,5.22,3.5-1.8-1.65-1.94-4.74-5.23-3.53-.76-1.32-2.81-3.35,0-3.79,3.19-.51,6.71-1,9.95.49,2.61,1.67,4.84-.93,7.33-.66,1.43.44,2.86.87,4.25-.13,4.22,2.14,3.41,5.63,2.41,9.14C295.79,236.31,294.8,237.46,293.73,238.54Z" transform="translate(0 0)"/>
  <path class="cls-41" d="M265.86,210.78a1.61,1.61,0,0,0,2.4-.71c.56-1.45-.64-1.46-1.59-1.56a5.22,5.22,0,0,1-4-2.36c-.32-3.83,1.42-4.26,4.42-2.71.87.44,2.42.67,2.61-.24.81-3.92,3.28-2.23,5.42-1.92,1.15.17,2.39,0,2.84-1.15.57-1.48-.59-2.29-1.72-2.86-2.19-1.13-4.46-2.39-7.19-1.45,7.14-2.75,10.53-1.48,13.63,4.83a28.68,28.68,0,0,0,2.09,4c1.62,2.29,1,3.51-1.62,3.8-4.22.47-7.8,2.37-11.47,4.37-3,1.62-6.39,2.51-9.61,3.7-2.19.81-3-1-3.84-2.29-1.12-1.64.24-1.93,1.49-2.45,2-.84.93-2.21.31-3.42-1.27-2.47.6-2,1.92-2A7.65,7.65,0,0,0,265.86,210.78Z" transform="translate(0 0)"/>
  <path class="cls-42" d="M242.22,259c-3.63-1.1-7.86,1.81-11.86-.56a114,114,0,0,1,25.58,0,4.54,4.54,0,0,1,2,3.63c-9.63,2.81-19.58,4.06-29.34,6.27-2.32.52-5.36,2.59-6.85.83s.24-4.88,1.12-7.3C229.13,258.54,236,259.3,242.22,259Z" transform="translate(0 0)"/>
  <path class="cls-37" d="M221.4,199.22c-1.09-.33-2.09-2.3-3.44-.39-3,.35-2.49,2-1.3,3.72,1.68,2.35,3.61,4.51,5.28,6.85.59.82,2,2.26-.41,2.65-3.78.6-7.59,1.08-11.39,1.6-2.12.29-2.92-.6-2.92-2.76.06-3.55.4-7.19-.24-10.63-1-5.37,3.88-5.36,6.25-7.56,1.21-1.13,2.81.41,4.12.93a23.49,23.49,0,0,1,7.82,4.49c.93.89,2.43,1.57,1.81,3.33C224.65,201.87,223.31,199.8,221.4,199.22Z" transform="translate(0 0)"/>
  <path class="cls-43" d="M378.49,200a1.82,1.82,0,0,1,0,.33,1.93,1.93,0,0,1-2.07,1.77,11.26,11.26,0,0,1-6.13-1.55c-.59-.4.16-2.71,1.41-3.53a3.65,3.65,0,0,0,1.83-3.84c-1.06-7.27.94-14.86-2.06-22-.3-.81,0-1.89,0-3.13,2.89,2.28,5.17-.51,7.89-.51C381.74,178.43,378.67,189.18,378.49,200Z" transform="translate(0 0)"/>
  <path class="cls-44" d="M269.79,217.31c4.81-1.89,8.95-5.46,14.37-5.81a11.62,11.62,0,0,0,4.92-1.91c.1.53.19,1,.29,1.53,1.46,5.41-1.69,9.31-4.3,13.41-2.16-.25-4.36-.86-6.48-.66-5.23.52-10.24.4-14.89-2.48-.35-.21-1.21.41-1.83.64-.28-2.51-3-1.13-4-2.51C262.13,220.11,266,218.82,269.79,217.31Z" transform="translate(0 0)"/>
  <path class="cls-45" d="M358.88,15.27A18.09,18.09,0,0,1,375,6.48c2.55,0,7.32,5.1,7.32,7.43,0,.85-.6.64-1,.92-1.67,1.36-.79,9.16,1.15,10.06.86.4,1.57-.17,2.07-.91.73-.44.12-2.25,1.78-1.75l3.09,7.66-11.6-2.42a5.2,5.2,0,0,1-.93-1.83c-.67-4.75.56-9.59-.77-14.31A6.69,6.69,0,0,0,374.36,10c-2.95-.56-4.5,1.51-6,3.37a58,58,0,0,0-5.82,9.28c-1.82,3.07-4.59,1.54-7.07,1.46-1.37-.92-.52-2-.18-3C358.3,20.26,357.71,17.22,358.88,15.27Z" transform="translate(0 0)"/>
  <path class="cls-46" d="M351.84,88.49c.19-1-.59-2.6,1.47-2.53,4.24,1.72,8.52.34,12.95-.08a42.54,42.54,0,0,0,1.68,14.19c-4.65-.23-9-.95-13.28.51-1.07.36-1.36-.6-1.69-1.34a8.77,8.77,0,0,1-.72-4.82C352.47,92.42,351.48,90.5,351.84,88.49Z" transform="translate(0 0)"/>
  <path class="cls-46" d="M218.74,118.67c.77-1.19-.72-1.91-1.93-1.66s-2.34.87-3.54,1.12C209,119,204,116.24,204,113c-.08-3.86,2-6.76,4.34-9.54.46-.54.93-.87,1.73-.33,3.3,2.24,7.06,4.17,7.68,8.62.48,3.46,2.48,5.34,5.42,6.62-2.87,1.33-4.26,3.57-4.82,6.68-.27,1.36.34,3.16-1.27,4.16C217.94,125.77,216.58,122,218.74,118.67Z" transform="translate(0 0)"/>
  <path class="cls-41" d="M379.68,226.63c-1.83-5.27-5.93-9.5-6.93-15.2-.24-1.29-2.19-2.38-1-4,1.34-1.79,3.35-1.22,5-.79,3.82,1,6.09,4.61,9.67,6.15,1.09.46.61,1.67.2,2.57-2,4.47-4.23,8.83-5.23,13.73C380,228.63,380,227.52,379.68,226.63Z" transform="translate(0 0)"/>
  <path class="cls-47" d="M358.82,212.07c-.66,2.48.34,5.32-1.66,7.48-1.83,2.44,0,3.73,1.68,4.83,2.76,1.75,5.89,1.92,9.1,2.05,5.25.23,5.52,1,3.76,5.68a16.25,16.25,0,0,1-2.79,4.46c-1.92,2.42-2,5.18.8,6.73,3.83,2.15,4.21,5.73,5,9.28.26.85.73,1.81-.87,1.74a41,41,0,0,0-8.58-12.2c-2.08-2.15-3.82-3.35.29-5.05a5.4,5.4,0,0,0,3.32-5.32c-.18-2.39-2.7-2.41-4.44-3a52.09,52.09,0,0,0-6-1.5c-6.93-1.4-8.12-4-4.38-9.82,1.36-2.12,2.55-4.26,2.47-6.88,2.26-1.73,1.76.71,2.32,1.54Z" transform="translate(0 0)"/>
  <path class="cls-48" d="M382.72,113.34a10.26,10.26,0,0,0,.45,4.47c.9,2.9-.72,3.36-2.72,2.65-5.63-2-11.16-4.21-16.81-6.38,3.58-4.75,11.51-1.51,13.31-8.38C381.13,106.46,383.5,108.63,382.72,113.34Z" transform="translate(0 0)"/>
  <path class="cls-49" d="M226.38,253.59c1.57-.27,1.69-.5.69-1.75.24-.12.49-.35.72-.35,13.76.13,27.51.32,41.27.41,1.81,0,2.64.86,2.51,2.41-.16,2-1.85,1-2.85,1-13.75-.4-27.49-1.29-41.25-.18-.91.08-2.22.85-2.84-.67A2.9,2.9,0,0,1,226.38,253.59Z" transform="translate(0 0)"/>
  <path class="cls-48" d="M227.76,101c.12,0,.21.18.32.26a16.28,16.28,0,0,0,6.1,2.35c.75.19,1.75-.07,2,1s-.51,1.47-1.28,1.78c-3.18,1.26-4.55,4.27-6.43,6.73-2.18,2.84-5.09,2.84-6.74-.37a38.06,38.06,0,0,1-1.84-5.29C219.62,105.25,225.83,100.29,227.76,101Z" transform="translate(0 0)"/>
  <path class="cls-50" d="M310.83,271.64c-2.38-3.78-3.65-7.24-2.46-11.51.3-1.05-1.15-2.66.81-3.12s4.16-1.81,5.83.69c.54,1.51.55,2.72-1.51,2.89-2.28.18-2.52,1.62-2,3.5a3.92,3.92,0,0,1,.17,2.8c.3.46.6,1,.89,1.46,1.61,2,4,3,5.7,5,1.31,6.07-.58,12.11-.13,18.16a18.85,18.85,0,0,1-4.07-8.15A23.89,23.89,0,0,0,310.83,271.64Z" transform="translate(0 0)"/>
  <path class="cls-51" d="M295.13,140.05c2.11,0,3.95.45,3.28,3.3-6.41,4.18-14,5.17-21,7.8-1.87.7-2.9.13-3-2a1,1,0,0,0,.14-.15,2.33,2.33,0,0,0-.14-3.29l9.79-4.13A41.29,41.29,0,0,1,295.13,140.05Z" transform="translate(0 0)"/>
  <path class="cls-52" d="M481.62,311.91c-1.07-.35-2.2-1-1.9-2.24s1.6-.5,2.45-.65c1.14-.2,2.51.44,3.33-.92,1.18-2.83-.87-2.86-2.66-3-2.95-.23-5.95,0-8.81-1-.76-.64-1.66-1.25-.37-2.25,4.92-1,9.86-2.42,14.92-2.9,3.33-.31,6.65-.33,8.7,3.09h0L484,312.47A17.79,17.79,0,0,1,481.62,311.91Z" transform="translate(0 0)"/>
  <path class="cls-53" d="M353.26,114.84c1.86,2.66,1.39,3.64-2,3.77a40.66,40.66,0,0,0-14.85,3c-2.75,1.23-5.6,2.16-8.41,3.23a51.43,51.43,0,0,1,24-14.36A9,9,0,0,0,353.26,114.84Z" transform="translate(0 0)"/>
  <path class="cls-54" d="M261.47,40.66c-2.77-.1-5.5-1.62-8.24-2.55-1-.39-1-1.1-.64-2a23.53,23.53,0,0,0,2.06-13.68c-.11-.71-.25-1.87,1.1-1.59.86.18,2.17.47,1.63,1.78-.47,1.14-.89,2.05.39,2.82,4.21,2.55,4.66,6.78,5,11.3C262,37.87,264.24,40.76,261.47,40.66Z" transform="translate(0 0)"/>
  <path class="cls-55" d="M355.47,24c2.43-.31,5.43.83,6.65-2.59,1.59,1.77,2.38.79,3.13-.82a34.35,34.35,0,0,1,9.34-11.56l1.9.94a44.22,44.22,0,0,0-.78,11.25c0,1.82.22,3.55,2.22,4.37l-.06,1.84Z" transform="translate(0 0)"/>
  <path class="cls-56" d="M351.05,84.71a4.65,4.65,0,0,1,1.71-5.48c4.89-3.86,10-7.49,14.49-13.49-.3,6.56-4.4,11.44-1,17-2.06-1.13-4.3-1.23-5-3.32-.35-1,.94-2.7-.77-3.17s-2.08,1.44-3.08,2.29c-1.24,1.08-2.49,2.2-3.77,3.2C352,83,352,84.45,353.25,86c-1.6,1.18-.86,2.91-1,4.43-.08,1.32,1.7,2.67,0,4C350.85,91.29,352,87.83,351.05,84.71Z" transform="translate(0 0)"/>
  <path class="cls-57" d="M292.35,215.78c-.32,4.09,1,7.71,2.68,11.27-.7,3.73-2.5,1.8-4.11.8-1.28-.88-2.86-1-4.21-1.65-.53-.56-1.07-1.12-1.61-1.67.11-.09.31-.17.31-.27.38-4.67,4-8.35,4-13.14C292.81,211.13,292.49,213.81,292.35,215.78Z" transform="translate(0 0)"/>
  <path class="cls-58" d="M251.24,23.12c1,2,.65,4,.21,6-1.59,7.35-1.8,7.37-9,5.68-2.4-.58-2.67-1.44-1.4-3.25a34.79,34.79,0,0,1,8.27-8.46A1.47,1.47,0,0,1,251.24,23.12Z" transform="translate(0 0)"/>
  <path class="cls-59" d="M392.32,152.36c6-7,14.48-10.8,21.87-16,.79-.55,1.78-1.07,2.48-1.48s1.56-1.1,2.2-.29c.92,1.12-.3,1.73-1,2.23-2,1.44-4,2.87-6.16,4.11a71,71,0,0,0-13.32,9.65c-1.8,1.69-3.58,3.42-5.43,5.06-1,.87-2,1.05-2.4-.67C390.59,153.73,391.66,153.17,392.32,152.36Z" transform="translate(0 0)"/>
  <path class="cls-60" d="M355.56,108.17c-2.26-4.12-1.82-5,2.52-5,3,0,5.93-.32,8.87.23a4.2,4.2,0,0,0,1.62.13c1.52-.5,3-1,3.42,1.24s-1.28,2.38-2.68,2.86l-5.43,1.85C361,109.89,358,110.9,355.56,108.17Z" transform="translate(0 0)"/>
  <path class="cls-61" d="M243.54,101.77c-1.64-.2-1.88-1.25-1.07-2.25,1-1.17-.84-4.08,1.88-3.71,4.49.61,8.71,2.37,12.86,4.17a2.25,2.25,0,0,1,1.18,2.45c-.12.93-.86,1.28-2,1C252.22,102.88,247.88,102.28,243.54,101.77Z" transform="translate(0 0)"/>
  <path class="cls-62" d="M322.62,228.56c-4.05-1.21-7.23-4.06-11-5.77v-2.38c3.23-.85,5.86.63,8.49,2.15,4.48,2.6,4.54,2.62,6.54-2.11.48-1.22,1.23-1.89,2.48-1.44a2,2,0,0,1,.48.19,1.81,1.81,0,0,1,.65,2.45c-.33.74-.75,1.44-1.13,2.16C328.27,227.63,327,228.52,322.62,228.56Z" transform="translate(0 0)"/>
  <path class="cls-63" d="M325.67,229.44c-4.92,3.5-1.74,7.58-.92,11.5-1.3,1.39-2.64,1.21-4,.07v-3.25c1.14-2.4.09-4.1-1.15-6.28-2.08-3.6-6.49-4.8-8-8.71,4.5-.24,7.13,3.56,10.84,5C323.13,229.12,325.53,227.12,325.67,229.44Z" transform="translate(0 0)"/>
  <path class="cls-64" d="M248.83,20c-1.26-.87-2,.42-2.74,1.13a49.15,49.15,0,0,0-7.75,8.49c-2.68,4.14-3.9,4.4-9,1.87,3.81-1.43,6.15-4.35,9-6.63a49.9,49.9,0,0,1,7-5.07c4-2.22,6.14-.92,5.89,3.26h-1.91C249.59,22,250.09,20.91,248.83,20Z" transform="translate(0 0)"/>
  <path class="cls-65" d="M219.14,188.38c2.14-2.84-.19-4.13-1-5.84-2.27-4.76-4-9.46-.77-15.17,1.51,8.35,4.13,15.79,5.76,23.79C221.85,189.94,218.39,189.44,219.14,188.38Z" transform="translate(0 0)"/>
  <path class="cls-66" d="M265.83,46.32c3.25,1.72,7.35,3.15,8.43,9.07-10-10.7-23-12.82-34.7-17.82C248.47,40,257.6,42,265.83,46.32Z" transform="translate(0 0)"/>
  <path class="cls-67" d="M373.05,160.78v-8.63c3.79,3.08,7.59,3.66,11.29,4.52,1,.25,2.55-.43,2.55,1.25,0,1.46-1.38,1.93-2.5,2.46-1.84.87-2.75-.45-3.75-1.63-2-2.42-2.87-1.37-3.37,1C375.91,160.29,374,158.63,373.05,160.78Z" transform="translate(0 0)"/>
  <path class="cls-68" d="M397.15,104.59a21.62,21.62,0,0,0-12.2-.9c-3.56.85-5.55-.62-7.93-2.29a110.83,110.83,0,0,1,14.34.53c5,.6,10.11.61,14.93,2.39-.16.83-.44,1.53-1.44,1.68C402.77,103.08,399.71,105.55,397.15,104.59Z" transform="translate(0 0)"/>
  <path class="cls-69" d="M391.33,299.05c-.32,0-1.31.5-1.07-.5,0-.25.94-.32,1-1,2.95-2.34,1-5.58,1.62-8.34.72,3.61,2.35,5.93,6.57,5,.91-.21,1.35.54,1.65,1.45,1.46,4.45-2.1,3.19-4.1,3.65C395.13,299.23,393.13,299.21,391.33,299.05Z" transform="translate(0 0)"/>
  <path class="cls-70" d="M293.65,139.41a49.36,49.36,0,0,1,8.92-.84c1.26-.07,3,.22,3,2,0,1.57-1.63,1.66-2.78,1.78a12.22,12.22,0,0,0-4.34,1c-.17-2.53-2-2.63-3.79-2.53-3.48.21-6.94.53-10.41.81C287,139.52,290.49,140,293.65,139.41Z" transform="translate(0 0)"/>
  <path class="cls-71" d="M227.16,203.1a3.11,3.11,0,0,1-2,3.64c-1.25.52-1.88-1.17-2.57-2.17-1.42-2-2.54-4.24-4.59-5.74-.24-.76-1.79-.6-1.41-1.6s1.5-.91,2.39-.4c2.65,1.52,5.32,3.08,8,4.62A9.06,9.06,0,0,0,227.16,203.1Z" transform="translate(0 0)"/>
  <path class="cls-72" d="M235.54,93.42c3.16,0,4.61,1.45,3.88,4.64-.78,3.41-3,1.77-4.87,1.3-1.43-.38-2.8-1-4.2-1.51C231.46,95.63,232.88,93.8,235.54,93.42Z" transform="translate(0 0)"/>
  <path class="cls-73" d="M290.65,260.1c-1.5-2-1-3.43,1.18-4.54,2.9-1.44,2.71.95,3.22,2.48.61,1.8,1.21,3.61,1.81,5.41-.18,1.16-.46,2.24-1.91,1.16-1.13-.84-2.15-1.85-3.22-2.78C291.37,261.25,291.05,260.63,290.65,260.1Z" transform="translate(0 0)"/>
  <path class="cls-74" d="M378.83,260.94c3.1,5.08,4.1,10.75,5.1,16.44l-1.38.48q-2.39-7.49-4.75-15C377.57,261.92,377.13,260.87,378.83,260.94Z" transform="translate(0 0)"/>
  <path class="cls-75" d="M312.24,266.23c-.22,0-.37.38-.55.59-.18-.37-.39-.72-.55-1.09-2.13-4.73-2-5,3-6.1,1.13-.26.55-1.36.92-2C316.13,261.21,318.19,265,312.24,266.23Z" transform="translate(0 0)"/>
  <path class="cls-76" d="M262.67,206.15c1.72-.58,2.36,2.12,4.36,1.27,1.34-.59,3-.28,3.18,1.48a3.7,3.7,0,0,1-2.85,3.64c-2.23.7-6-3.71-5.41-6.18A1.54,1.54,0,0,0,262.67,206.15Z" transform="translate(0 0)"/>
  <path class="cls-77" d="M243.41,78.94a82.2,82.2,0,0,1-3.88,8.93c-1.89-5.65.87-10.63,2.29-15.8C242.36,74.37,244.13,76.63,243.41,78.94Z" transform="translate(0 0)"/>
  <path class="cls-78" d="M230.39,258.39h13.09c-7,.44-13.69,2.93-20.61,3.44C223.73,257.07,227.4,258.48,230.39,258.39Z" transform="translate(0 0)"/>
  <path class="cls-79" d="M87.83,290.64c5.49-2.12,9.25,1.73,13.17,4.23,1.22.77-1,.5-1.46,1A28.15,28.15,0,0,1,87.83,290.64Z" transform="translate(0 0)"/>
  <path class="cls-80" d="M232.56,147.64c-.13,3.74-3.68,2.93-5.76,4-1,.51-2-.52-1.84-1.57.34-2.84,2.57-3.59,5.1-4.11C231,146.14,232.63,145.68,232.56,147.64Z" transform="translate(0 0)"/>
  <path class="cls-81" d="M224,277.61c-2.1.56-2.38,1.68-1,3.27l-.06.06a3,3,0,0,1-4.24-.06l1.86-5c2.55-.68,5.2-2.25,7.38.75C226.65,277,225.32,277.28,224,277.61Z" transform="translate(0 0)"/>
  <path class="cls-82" d="M372.37,165.91c-.51-1.82.68-3.42.68-5.16.81-2.85,2.59-1.62,4.22-1C379.13,163.82,378.51,164.55,372.37,165.91Z" transform="translate(0 0)"/>
  <path class="cls-83" d="M309.16,202.17c-2.14-6.49.07-12.43,2.36-18.36A70.65,70.65,0,0,1,309.16,202.17Z" transform="translate(0 0)"/>
  <path class="cls-84" d="M207.33,252l1.59-1c1.21,5.52-.44,10.38-3.44,14.93l-.78-.75C204.76,260.63,205.13,256.12,207.33,252Z" transform="translate(0 0)"/>
  <path class="cls-36" d="M358.17,112.75v2.17c-.28.62-.56,1.23-.83,1.85a13.82,13.82,0,0,0-2.9-6.25c-1.42-1.67-.35-7.67,1.17-7.67,3.79,0,7.65-1,11.37.54-3,0-6-.06-9,.07-1.08,0-2.59-.57-3.13,1.11-.47,1.46.66,2.22,1.45,3.11C356.27,109.63,358.69,110.63,358.17,112.75Z" transform="translate(0 0)"/>
  <path class="cls-85" d="M229.63,140.16c-2.19,1.16-5.22,1.68-6-.65-.66-2,1.08-4.72,4.4-4.36C229.66,136.47,229.81,138.26,229.63,140.16Z" transform="translate(0 0)"/>
  <path class="cls-86" d="M211.25,241c-.77-.31-.85-1-.85-1.68,3-5.4,3-11.42,3.51-17.32a1.15,1.15,0,0,0,.58.09C217.31,227.24,215.6,237.26,211.25,241Z" transform="translate(0 0)"/>
  <path class="cls-87" d="M449.9,230.05q3.38,8.44,6.74,16.87l-1.56-.76C453.59,240.72,449.8,236.08,449.9,230.05Z" transform="translate(0 0)"/>
  <path class="cls-88" d="M228.91,92.7l.82-.87,5.81,1.59c-1.86,1.32-3,3.43-5.19,4.43C227.8,96.71,231.13,93.93,228.91,92.7Z" transform="translate(0 0)"/>
  <path class="cls-89" d="M261.11,258.52c1.06,1.43,3.11.1,4.17,1.51a26.89,26.89,0,0,1-7.31,2c-1.31-.87-1.66-2.25-2-3.63A13.08,13.08,0,0,1,261.11,258.52Z" transform="translate(0 0)"/>
  <path class="cls-90" d="M245.08,147.05l-8.74,3.14C237.92,144.41,241.44,146.3,245.08,147.05Z" transform="translate(0 0)"/>
  <path class="cls-91" d="M368.48,78c.48-4.6,1.08-8.28,2.81-11.72.43,1.6-.86,3.45.72,4.88C371.2,73.25,371.27,75.8,368.48,78Z" transform="translate(0 0)"/>
  <path class="cls-92" d="M318.26,273.31c-2.7-.68-5.11-1.84-5.7-5C316,268.29,318.77,269,318.26,273.31Z" transform="translate(0 0)"/>
  <path class="cls-93" d="M429.83,244.94c2.27,3.27,5.24,6.13,5.67,10.42C433,252.2,430.69,249,429.83,244.94Z" transform="translate(0 0)"/>
  <path class="cls-94" d="M192,292.55c-1.82-.05-2.58-.9-1.68-2.59s1.83-3.34,2.83-5C193.55,287.63,193.74,290.23,192,292.55Z" transform="translate(0 0)"/>
  <path class="cls-95" d="M363.88,109.48c-1.76,1.27-4.45,1.09-5.76,3.27-.32-1.79-3.82-2.43-1.82-5.07C358.41,110,361.19,109.63,363.88,109.48Z" transform="translate(0 0)"/>
  <path class="cls-96" d="M203.88,288.47c0,1.82-.12,3.95-2.6,3.39-1.92-.43-1.72-2.44-1.32-4.07a13.57,13.57,0,0,1,.71-1.83C201.81,286.72,201.75,289,203.88,288.47Z" transform="translate(0 0)"/>
  <path class="cls-97" d="M468.58,268.63A10.65,10.65,0,0,1,472,278.9,31.84,31.84,0,0,1,468.58,268.63Z" transform="translate(0 0)"/>
  <path class="cls-98" d="M186.45,284.91c.68.87,2.85-.77,2.6,1.35-.13,1.09-.88,2.67-1.74,3-1.76.67-1.4-1.39-2-2.24l-1.38-2Z" transform="translate(0 0)"/>
  <path class="cls-99" d="M231.89,136.32c.54,1.83-.66,3-2.24,3.83a11.53,11.53,0,0,1-1.62-5C229.43,135.22,231.35,134.49,231.89,136.32Z" transform="translate(0 0)"/>
  <path class="cls-100" d="M373.82,254.33c.81-.32.58-1.16.87-1.74L378.8,261c-.93.3-.78,1.2-1,1.9Z" transform="translate(0 0)"/>
  <path class="cls-101" d="M236.91,39.91a20.41,20.41,0,0,1,2,1.33c-.78.17-1.61.29-2,1.17-1.67,0-3.48-1.09-4.92.65h-.69C231.84,37.41,231.91,37.37,236.91,39.91Z" transform="translate(0 0)"/>
  <path class="cls-102" d="M463.35,305c.42-1.07,1.75-.78,2.42-1.49a.72.72,0,0,0,0-.46c2.4-1.31,4.81-2.49,7.47-.62l.81,1.69Z" transform="translate(0 0)"/>
  <path class="cls-103" d="M196.39,275.13c-.51-.87-1-1.75-1.51-2.62.21-1.46-1.83-3.76,1.51-4.06C197.66,270.68,197.35,272.91,196.39,275.13Z" transform="translate(0 0)"/>
  <path class="cls-104" d="M358.88,15.24a7.2,7.2,0,0,1-2.25,7c-1.43,1.35-1-.64-1.34-1.16A16.26,16.26,0,0,1,358.88,15.24Z" transform="translate(0 0)"/>
  <path class="cls-105" d="M211.28,183.65c-.19-.85,1.18-1.33,1.81-1.23,2.53.38,1.61,3.22,2.86,4.69C214.13,186.23,211.7,186,211.28,183.65Z" transform="translate(0 0)"/>
  <path class="cls-106" d="M120.12,309.76c1.11.52,2.57-.32,3.57,1.08-4-.86-7.84,1.38-12,.52,1.26-1.35,3.2,0,4.26-1.35Z" transform="translate(0 0)"/>
  <path class="cls-44" d="M283.46,227.84c1.26-.11,3.06.68,3.26-1.64,2.21-1.45,3.12.29,4.21,1.65C288.44,228.18,286,230.29,283.46,227.84Z" transform="translate(0 0)"/>
  <path class="cls-107" d="M266.46,42.2c-.25-3.34-1.92-6.58-.92-10.34C267.45,35.38,266.89,38.8,266.46,42.2Z" transform="translate(0 0)"/>
  <path class="cls-102" d="M388,44c.9-.56,1.07.32,1.48.74.78,1.52-.48,3.47,1,4.84-.33.94-1.06,1.08-1.92.94C387.47,48.41,386.59,46.3,388,44Z" transform="translate(0 0)"/>
  <path class="cls-108" d="M382.92,35.48a13.49,13.49,0,0,1,6.58,9.24L388,44C387.8,40.53,384.06,39.08,382.92,35.48Z" transform="translate(0 0)"/>
  <path class="cls-109" d="M277.58,125.09l.05.06,1.6-2.6c.4,3,2.3.5,3.4.9a3.46,3.46,0,0,1,0,3.22c-1.33-.06-1.76,1-2.41,1.87C280,126.91,280.6,124.63,277.58,125.09Z" transform="translate(0 0)"/>
  <path class="cls-34" d="M357.19,219.56c.57-2.48.33-5.16,1.66-7.48C359.13,214.75,360.54,217.69,357.19,219.56Z" transform="translate(0 0)"/>
  <path class="cls-110" d="M384,17.63a11.14,11.14,0,0,1,2.38,4.6L384.56,24C384.55,22,383.35,20,384,17.63Z" transform="translate(0 0)"/>
  <path class="cls-111" d="M306.73,133.32c1.39.29,3.1-.63,4.1,1.07C308.4,138.1,307.62,135.5,306.73,133.32Z" transform="translate(0 0)"/>
  <path class="cls-112" d="M310,176.48l.07-.07c-2.21,1.87-3.7-2-5.84-.73.05-1.14,1.36-1.07,1.77-1.86A7,7,0,0,1,310,176.48Z" transform="translate(0 0)"/>
  <path class="cls-113" d="M227.07,251.84c.71.68,2.09.89,1.65,2.62h-4.09A4.3,4.3,0,0,1,227.07,251.84Z" transform="translate(0 0)"/>
  <path class="cls-114" d="M213.16,141.37c.12-.59.74-1.1,1.12-.77a3.2,3.2,0,0,1,.93,3.58C213.64,143.63,212.9,142.82,213.16,141.37Z" transform="translate(0 0)"/>
  <path class="cls-115" d="M277.14,165c-.06-.13.93-.71,1.43-1.08a7.06,7.06,0,0,1,1.64,3.37A3.2,3.2,0,0,1,277.14,165Z" transform="translate(0 0)"/>
  <path class="cls-116" d="M274.46,145.75c.89.29,2.35.2,1.89,1.8-.23.79-.12,2.37-1.85,1.64A4.25,4.25,0,0,1,274.46,145.75Z" transform="translate(0 0)"/>
  <path class="cls-117" d="M231.8,318.18c10.29-.67,20.44.78,30.62,2-11.54.82-23-.34-34.54-1.23C229,317.86,230.47,318.3,231.8,318.18Z" transform="translate(0 0)"/>
  <path class="cls-118" d="M452.82,319.15c3.82,0,7.76-1.16,11.44.79-3.64,1-7.09,4.43-11,.69C453.26,320,452,319.13,452.82,319.15Z" transform="translate(0 0)"/>
  <path class="cls-119" d="M160.28,315.4c3.36-3.17,5.29-3,8.85.23l-2.42.22Z" transform="translate(0 0)"/>
  <path class="cls-120" d="M426.38,320.08c-2.48.51-4.95,1.07-7.38-.33C421.51,318.91,424,318.44,426.38,320.08Z" transform="translate(0 0)"/>
  <path class="cls-121" d="M84.67,321.57A21.74,21.74,0,0,1,90.6,320a1.6,1.6,0,0,1,.53-.09,1.75,1.75,0,0,1,1.79,1.71Z" transform="translate(0 0)"/>
  <path class="cls-122" d="M468.59,299.76c3.15-1.33,6.65.28,9.65-1.39,5.32-.4,10.5-2.16,16-1.33,3.43.5,4.81,1.63,3.07,5-3.87-2.17-7.89-2.15-12.18-1.41-4,.7-7.75,2.52-11.89,1.81-2.57-.73-4.88,1.62-7.47.62C465.47,300.89,466.88,300.48,468.59,299.76Z" transform="translate(0 0)"/>
  <path class="cls-123" d="M474.12,244c-.1-.66-.3-1.45.67-1.66s1.46.5,1.64,1.34a2.49,2.49,0,0,1-.11,1.3C474.62,245.2,474.22,244.62,474.12,244Z" transform="translate(0 0)"/>
  <path class="cls-3" d="M436.9,328.28a5.39,5.39,0,0,1-1.41.63c-10.67,1.56-21.44,1.75-32.18,2.22-11.29.49-22.57,1.36-33.91.3a87.58,87.58,0,0,0-19.42.42c-12.3,1.6-24.6,3.22-36.86,5.1a58.34,58.34,0,0,1-15.27.76c-16.57-1.85-33-4.75-49.83-3.85-12.61.67-25.28-1.43-38-.16-6.83.68-13.74,1.15-20.64.08-1.73-.27-2.9-.22-2.36-2.57a20.88,20.88,0,0,0-.62-11,11.29,11.29,0,0,1,5.45-.1c18,2.46,36.06,2.53,54.11,3.1,21,.66,41.9.8,62.9,1.26,36.57.82,73.14,2.44,109.72.44,2-.1,5-1.64,5.52,2.41.09.73,1.41.53,2.25.42,1.78-.21,3.57-.36,5.35-.54C433.5,327.32,435.71,325.45,436.9,328.28Z" transform="translate(0 0)"/>
  <path class="cls-124" d="M342.11,336.15c1.12.26,1.57.67,1.12,2s-1.27,1.55-2.45,1.55H330.67c1-1.53,3.08-1.13,4.19-2.43C337.19,336.31,339.68,336.47,342.11,336.15Z" transform="translate(0 0)"/>
  <path class="cls-125" d="M451.23,323.57c-4.53,2.47-9.39,3.67-14.29,4.73-1.42-1.92-3.57-.38-5.24-1.1C438.27,326.41,444.6,324.23,451.23,323.57Z" transform="translate(0 0)"/>
  <path class="cls-126" d="M466.46,323l1,.5c-5,2.29-9.93,5-15.78,4Z" transform="translate(0 0)"/>
  <path class="cls-127" d="M498.06,305.69c.88.71,2.82,1.62,1.74,2.55-2.05,1.76-4.28,4.39-7.67,2.39A29.61,29.61,0,0,1,498.06,305.69Z" transform="translate(0 0)"/>
  <path class="cls-128" d="M165.45,323.31c.5,1.59-1.64,1.85-2.64,2.59a23.14,23.14,0,0,1-2.86,1.53c0-1.87,4.3-2.09,1.83-4.87C163.13,322.41,165,321.72,165.45,323.31Z" transform="translate(0 0)"/>
  <path class="cls-129" d="M119.54,254c.87,0,1.65.15,1.5,1.32a170.78,170.78,0,0,0-25.14,4.16c-6.68,1.74-10.9,5.65-11.53,12.74-.15,1.65-.8,2.16-2.3,2.05-4.64-.32-9.32.25-13.93-.64,1.8-1.65,5-1.8,5.38-5,.48,1.48.2,3.93,2.35,3.73s.93-2.46,1.22-3.8a10,10,0,0,1,5-6.81c7.39-4.11,15.67-5.53,23.77-7.48C110.42,253.63,115,254.13,119.54,254Z" transform="translate(0 0)"/>
  <path class="cls-130" d="M130.26,278.11c-2.59.08-4.85,1.69-6-1.48C126,277.26,128.18,275.94,130.26,278.11Z" transform="translate(0 0)"/>
  <path class="cls-131" d="M313.16,39.17c-3.81,2.27-7.26,4.84-9.33,8.93a4.4,4.4,0,0,1-2.23,2.3c-1.7,3-3.92,3.45-7,1.87-2.53-1.29-5.17-2.56-8.28-1.48-1.53.49-1.85-.73-1.68-2,1-7.66-.36-9.58-7.36-10.08.37-3.22,3.94-5,3.75-8.44,0-.86-.3-2.09,1.3-2s1.65,1.92,1.48,2.5c-1.92,6.6,2.48,3.29,4.25,2.48,4.23-1.94-1.64-3-.55-5,5.09.57,10.28,1.07,15.45,1.78,1.81.25,3.05,3.93,1.81,5.46a33.61,33.61,0,0,1-3.57,3.39c-.76.69-1.42,1.53-.7,2.46s1.77.68,2.62.12c3.13-2.13,5.86-4.61,6.13-8.77.07-1.14-.11-2.47,1.71-1.34-.53,4.57,2.7,4.28,5.62,4.28C316.6,37.85,314.61,38.32,313.16,39.17Z" transform="translate(0 0)"/>
  <path class="cls-132" d="M290,18.77a1.91,1.91,0,0,1,.85.86,3.66,3.66,0,0,0,4.64,2.24c2.22-.55,1.63-2.53,1.81-4.08a6,6,0,0,1,.7-2.74,1.16,1.16,0,0,1,1.09-.36c0,2.32-.1,4.66-.1,7,0,.82.34,1.76,1.28,1.82s1.41-.7,1.52-1.61c.14-1.09.24-2.18.38-3.27.61-4.53,1-9.1,3.13-13.29.22,2.6,1.69,4.42,3.22,6.2a21.68,21.68,0,0,1,5.38,11.83c.13,1.18.76,3-1.73,2.72q-11.46-1.45-22.92-2.88V21.39Z" transform="translate(0 0)"/>
  <path class="cls-133" d="M300.63,6.63c-.3,3-.5,5-1.43,6.77-1.35,0-3-1.12-4,1,1.15.51,2.29-.49,3.15.51v5.68c-.06.92,0,1.85-1.06,2.39-3.33,1.67-6.9-.35-7.33-4.24C289.79,11.68,296.08,10.63,300.63,6.63Z" transform="translate(0 0)"/>
  <path class="cls-1" d="M320.1,36.58c-.61,1.74-2.28,2.37-3.61,3.21-4.89,3.08-9.72,6.16-12.35,11.63-.95-.07-1.95,0-2.51-1,2-4.77,4.88-8.68,9.58-11.15a53.87,53.87,0,0,0,5.37-3.64C317.88,35.4,319.25,34.93,320.1,36.58Z" transform="translate(0 0)"/>
  <path class="cls-134" d="M331.72,36.25a33.33,33.33,0,0,0-12.94-8.48C325.13,27.46,331.75,31.73,331.72,36.25Z" transform="translate(0 0)"/>
  <path class="cls-135" d="M317,23.08c-.62-6.12-4-10.9-7.39-15.72C314.13,11.63,318.79,15.81,317,23.08Z" transform="translate(0 0)"/>
  <path class="cls-136" d="M299.08,14.66a1,1,0,0,0-.71.23,7.38,7.38,0,0,0-1.46.57c-1.07.72-2.21,2.23-3.29.4-.8-1.34.33-2.57,1.41-3.44,1.77-1.39,3.24-1,4.24,1C299.21,13.84,299.13,14.26,299.08,14.66Z" transform="translate(0 0)"/>
  <path class="cls-137" d="M111.59,273.22l1.93.34c-6.79,1.26-13.67.61-20.51.79-6,.17-6.82-1.25-3.91-6.57a4.42,4.42,0,0,1,2.13-2.41c1.12.77.55,2.4,1.63,3.18,2.67,2.23,6,1.85,9.14,2.46C105.06,272.34,108.35,272.63,111.59,273.22Z" transform="translate(0 0)"/>
  <path class="cls-138" d="M109.89,253.66c10.09-.8,20.13.27,30.19.79,2.79.87,5.72-.12,8.52.6l2.25.17c.07,1.61-1.13,1.1-1.93,1.2-1.83.21-3.72-.38-5.52.37-4.89.19-10,3.11-14.53-1.3-.43-.43-1.6-.13-2.43-.13l-5.36-.05c-1-1.36-2.47-.92-3.78-.92-3.81-.08-7.62-.13-11.44-.13C107.13,253.47,108.54,253.76,109.89,253.66Z" transform="translate(0 0)"/>
  <path class="cls-139" d="M106.06,260.76c-1.86,3.75-5.67,3.75-9,4.32-2.29.39-3.89,1-4.2,3.47-2.14-.24-1.53-1.89-1.63-3.18C95.58,261.88,101,261.74,106.06,260.76Z" transform="translate(0 0)"/>
  <path class="cls-140" d="M155,256c-.09,0-.17-.09-.26-.26s0-.34.27-.5l18.29-1.59c1.44,1.45,3.4.15,5,.88C170.64,256.38,162.81,256,155,256Z" transform="translate(0 0)"/>
  <path class="cls-141" d="M143.39,256.77c2.23-1.72,5.24.28,7.45-1.57H155V256A42.66,42.66,0,0,1,143.39,256.77Z" transform="translate(0 0)"/>
  <path class="cls-142" d="M362.51,35c.81.7,1.95,1.83.74,2.7s-2,2.9-4,2.34c-1.6-.44-1.16-1.45-.6-2.59s-.5-.82-1-.82c-1.3,0-2.32-.39-2-1.85.31-1.65,1.79-1.9,3.15-2.1C360.45,32.72,361.48,33.92,362.51,35Z" transform="translate(0 0)"/>
  <path class="cls-143" d="M236.36,46.49c-2.55,1.36-2.54-.4-3-2-.16-.55-.9-1-1.37-1.41.92-5.77,3.18-1.18,4.92-.65C238.26,44,238.91,45.13,236.36,46.49Z" transform="translate(0 0)"/>
  <path class="cls-144" d="M248.33,48.2l.39,0A1.6,1.6,0,0,1,250,50.11a1.52,1.52,0,0,1,0,.21,1.43,1.43,0,0,1-1.67,1.15,1.45,1.45,0,0,1-1.4-1.67C246.93,48.87,247.34,48.18,248.33,48.2Z" transform="translate(0 0)"/>
  <path class="cls-141" d="M148.6,255.05c-2.86,0-5.76.69-8.52-.6C142.94,254.3,145.82,254,148.6,255.05Z" transform="translate(0 0)"/>
  <path class="cls-145" d="M294.26,4.28a7,7,0,0,1-5.6,3.14C289.91,5.27,292,4.69,294.26,4.28Z" transform="translate(0 0)"/>
  <path class="cls-146" d="M344.12,300.52c-1.07-.19-2.37-.44-2.43-1.77s1.09-1.42,2.09-1.42c1.21-.06,1.65-.68,1.71-1.84.17-3.92.52-7.85-.48-12.39-2.6,3.14-5.11,5.25-8.94,5.25-2.76,0-3.68-.32-2.09-3.17,2.13-3.79,1.24-5.7-2.65-7.43a27,27,0,0,1-5.31-3.14c-2.42-1.83-3.51-4.26-2.18-7.26a5.86,5.86,0,0,1,7.08-3.63c1.95.39,3.82.7,5.66-.14,3.14-1.44,4.3-.31,4.14,2.91s.49,6.22,3.59,8.22c2.49-6.29,2.67-8.29,1.55-14.29a17.87,17.87,0,0,1,.08-7.39,11.61,11.61,0,0,0-.27-7.32c-3.61-8.4-4.6-17.5-7.12-26.19-.39-1.31-1.06-2.87.36-3.77,1.75-1.08,2.82.38,3.75,1.56a24.69,24.69,0,0,1,2.23,3.47c2.44,4.48,4.32,9.36,7.38,13.36,2.47,3.18,2.14,8.18,6.63,10a1.74,1.74,0,0,1-1.83,3c-2.39-1.49-5.18-1.3-7.39-2.17-.95,8-.36,15.7.05,23.45.82,4.35-1.36,8.3-1.65,12.5,1,4.13.94,8.35,1,12.55.59,1.46.89,3.06,2.35,4.06,4.6,1.36,9.35.23,14,.74a4.5,4.5,0,0,1,2.69-1.09c1.69.06,3.49-.3,4.78,1.26,8.06.56,16.08,1.75,24.18,1.37,5.53-.29,11,.73,16.47,1,1.45.73,3,.37,4.45.37,9.36.2,18.69-.32,28,.28q.31,0,.63,0c1.22.32,2.72-.19,3.6,1.18-.68,2-2.18,2.22-4,2a94.2,94.2,0,0,0-15.3-.29c-17,.69-33.87-1.66-50.87-2.22-10.88-.36-21.74-1.42-32.65-1.19C346.31,300.78,345.19,300.71,344.12,300.52Z" transform="translate(0 0)"/>
  <path class="cls-146" d="M366.33,294.16a2.7,2.7,0,0,1-.72-2.33c.83-2,1.44-4.17,3.57-5.33,2.67-1.46,2.82-3.71,2-6.35-1.52-4.83-3.23-9.56-5.23-14.63a36.26,36.26,0,0,1-4.31,9.93c-.46.92-.92,1.85-2.09,2.05-1.34,1.88-2.66,3.79-4.06,5.63-.4.53-1.07,1.06-1.78.63-.37-.23-.81-1.06-.67-1.3,2-3.44,1.43-8.1,4.27-10.9,6.52-6.44,7.95-12.11,4.19-20.11-.06-.13-.13-.25-.19-.37-.48-1.09-1.55-2.33.11-3.18,1.47-.75,2.15.45,2.86,1.57,1.77,2.78,1.72,6.8,5.53,8.25.21.07.33,1.18.09,1.46-1.57,1.84-.21,3.37.33,5,1.86,5.46,3.68,11,5.54,16.46.63,1.74,1.06,3.54,0,5.18-1.93,3-2.71,6.6-5.14,9.31.17,1.76-1.31,2.24-2.37,3.05l-2.83.09Z" transform="translate(0 0)"/>
  <path class="cls-147" d="M355.57,296.61a9,9,0,0,1-1,.39s-.16-.18-.16-.27c.63-3.32,1.86-6.54,1.48-10.06-.11-1,1.33-1.18,2.09-1.68,1.68-3.09,4-6,2.84-9.91,1.74-3.72,3.49-7.43,5.6-11.93,2.31,6.73,4.24,12.59,6.31,18.4.85,2.39-.68,5.27-1.68,5.45-3,.53-3,3.3-4.73,4.63C362.53,292.83,358.6,293.71,355.57,296.61Z" transform="translate(0 0)"/>
  <path class="cls-148" d="M305.43,289.41a2.29,2.29,0,0,1,1.18-3c1-.6,2.29-.95,3.1-.19,2.34,2.19,5,4.21,5.86,7.56a3.42,3.42,0,0,1-.57,3.09,10.6,10.6,0,0,1-10.93,3.75c-2-.56-3.53-1.6-3.92-3.75s1.48-2.71,2.91-3.42c1.66-.83,3.42-1.5,2.42-3.91A.93.93,0,0,1,305.43,289.41Z" transform="translate(0 0)"/>
  <path class="cls-149" d="M331.82,208.6c1.89.27,3.73.71,5.59,1.1,2.15-1.55,2.15-3.95,2.44-6.24.13-1.25.92-2.13,2.13-1.94s1.29,1.28,1.21,2.28c-.43,5.83-2.49,11.16-10.43,9.83-2.19-.4-4.27-.82-6.45,0-1,.36-2.23.83-2.89-.56s1-1.75,1.46-2.63C326.71,208,329.35,208.63,331.82,208.6Z" transform="translate(0 0)"/>
  <path class="cls-150" d="M324.25,210.43c-2.26.49-3.55-.41-4.49-2.51-2.51-5.71-.84-11.58,4.49-14.58a9.56,9.56,0,0,0,4-3.48c.55-1,1.25-2.07,2.55-1.13,1.05.74.91,2,.4,3-1,2-2.83,3-4.59,4.05-5.59,3.49-6.23,6.66-2.48,12.27A1.79,1.79,0,0,1,324.25,210.43Z" transform="translate(0 0)"/>
  <path class="cls-4" d="M333.44,241.06c1.21.08,2.21.62,2.21,2,0,1.61-1.35,1.49-2.43,1.49a54.25,54.25,0,0,1-8.26-.33c-3.3-.56-5.36-.62-3.44,3.6.36.86.46,2.08-.64,2.54-1.42.59-1.91-.61-2.42-1.61-2.06-3.89-1.41-6,2.3-7.72l4-.07C327.65,241,330.54,241,333.44,241.06Z" transform="translate(0 0)"/>
  <path class="cls-151" d="M331.43,227.3c.94-.73,1.85-2.77,3.23-1,1,1.28-.29,2.48-1.29,3.48-1.5,1.48-3.86,2.23-3.69,5,.08,1.16-.38,2.28-1.92,2.08s-1.25-1.49-1.25-2.56C326.61,231.63,327.57,230.16,331.43,227.3Z" transform="translate(0 0)"/>
  <path class="cls-146" d="M366.33,294.19l-3.42.14a11.22,11.22,0,0,1-4.13,2.3c-1,0-2.11,1-3.17,0,1.84-5.4,6.2-5.36,10.71-5C366.32,292.48,366.33,293.33,366.33,294.19Z" transform="translate(0 0)"/>
  <path class="cls-152" d="M333.12,206.36a2,2,0,0,1,.43.72,2,2,0,0,1-1.23,2.54c-2.47.48-5.07-.26-7.47.82l-.28-.18-.31.15c0-.79-.08-1.57-.13-2.36Z" transform="translate(0 0)"/>
  <path class="cls-153" d="M351.38,269.92c-.86,3.72-.89,7.72-3.29,11-1.27-4.4.65-8.39,1.65-12.5C350.89,268.26,351.68,268.63,351.38,269.92Z" transform="translate(0 0)"/>
  <path class="cls-154" d="M359.58,277.56l1.24-2.44c1.11.23,2.59.79,1.88,2-1.54,2.64-1.46,6.28-4.72,7.87Q358.78,281.27,359.58,277.56Z" transform="translate(0 0)"/>
  <path class="cls-155" d="M364.7,296.58c-.48,1.28-1.62.78-2.48.78-1.17,0-2.51.5-3.44-.74,1.13-1.23,2-2.83,4.13-2.3C363.57,295,365.27,295,364.7,296.58Z" transform="translate(0 0)"/>
  <path class="cls-156" d="M329.14,223.81c2.54,4.14-2.16,3.85-3.46,5.65-.68-1.32-2.6-.27-3.24-1.69C325.8,228.35,327.72,226.5,329.14,223.81Z" transform="translate(0 0)"/>
  <path class="cls-157" d="M372.9,298.44l-4.64-.26,2.37-3.05C373.2,296.32,374,297.41,372.9,298.44Z" transform="translate(0 0)"/>
  <path class="cls-158" d="M337.39,209.62c-1.71,1.72-3.38.4-5.06,0a4.45,4.45,0,0,0,.8-3.26C334,208.15,337.37,206.8,337.39,209.62Z" transform="translate(0 0)"/>
  <path class="cls-159" d="M351.42,297.53c-4.47.79-2.69-2.06-2.35-4.06C351.13,294.09,351.74,295.53,351.42,297.53Z" transform="translate(0 0)"/>
  <path class="cls-160" d="M288.07,121.69c5.6,1,8.69-2.74,10.8-6.6,6-11,13.76-20.81,19.32-32,2-4,2.87-8.3,4.79-12.3,2.87-5.92,2-10.45-3.18-14.38-.9-.69-2-1.26-1.36-2.52s1.86-.88,2.92-.46c4.53,1.83,8.49,11.29,6.2,15.68-1.74,3.3-2.72,6.91-4.21,10.3-2.2,5-3.8,10.71-7.29,14.71-5.39,6.1-8.12,13.65-12.77,20.1-3.8,5.27-6.58,11.3-14.65,10.11-.28,0-.66.38-1,.58-1.87.08-2.82,2.65-5,1.76a.93.93,0,0,1-.14-.14,2.17,2.17,0,0,1,.14-3.08C284.4,122.69,286.08,121.3,288.07,121.69Z" transform="translate(0 0)"/>
  <path class="cls-161" d="M313.06,51.15c1.86,3,3.72,6,5.48,9.12a1.33,1.33,0,0,1-.62,1.76,1.38,1.38,0,0,1-1.87-.27,85.47,85.47,0,0,1-5.26-7.82,1.92,1.92,0,0,1-.34-.94,2,2,0,0,1,1.81-2.18C312.58,50.94,313,51,313.06,51.15Z" transform="translate(0 0)"/>
  <path class="cls-162" d="M327.35,131.44a.64.64,0,0,1,.15-.13,1.17,1.17,0,0,1,1.64.23c.61.68.16,1.32-.39,1.68-1.62,1.06-3,2.59-5.62,3.12A15.88,15.88,0,0,1,327.35,131.44Z" transform="translate(0 0)"/>
  <path class="cls-163" d="M413.18,293.67c1,.73,2.42,1.36,1.47,2.9s-2.45.67-3.16-.16c-1.79-2.08-8.62-2.24-3.1-7.4a.73.73,0,0,0,.07-.66c-2.92-3.23,0-5,2.73-7.48-2.77,0-4.53.06-6.29,0-1.17,0-2.28-.39-2.23-1.87s1.21-1.72,2.36-1.63c3.3.27,6.59.59,9.87.94a2.44,2.44,0,0,1,2.43,1.88c.22,1.26-.76,1.94-1.67,2.61-1.35,1-3.35,1.32-4.35,2.87,1,2.23,5.05,1.33,4.74,4.51-.23,2.48-3,1-4.23,2C411.88,293.17,412.66,293.31,413.18,293.67Z" transform="translate(0 0)"/>
  <path class="cls-34" d="M433.69,300.68a35.2,35.2,0,0,1,12.27.79c-6.73.09-13.47.29-20.2.23-4.08,0-8.21.58-12.21-.88C420.26,300.63,427,301.26,433.69,300.68Z" transform="translate(0 0)"/>
  <path class="cls-148" d="M251.43,290.91c.1-2.43,3.41-1.41,4.28-3-.41-1.19-1.31-1.17-2.08-1.45-1.58-.59-4.18-.42-4-2.75s2.64-1.84,4.33-2.2c6.22-1.29,12.69-.35,18.85-2,1.34-.38,2.72-1.38,3.34.62.57,1.82-.93,2.25-2.32,2.69-3,1-6.19.57-9.47,1,.89,1.34,3.28,1.12,2.89,3.19-.36,1.84-1.9,1.89-3.43,2.55s-3.47.31-4.95,2c2.09.32,3.85.65,5.62.86,1.53.15,3.33.15,3.42,2.15.09,1.75-1.54,2-2.91,2.32-11.9,3.14-24.19,3.17-36.3,4.63-1,.13-2.09,0-2.3-1.2-.24-1.4.81-1.9,2-2.08.55-.09,1.12,0,1.65-.15,8.48-2.14,17.61.54,25.74-3.46C254.67,293,251.34,293.8,251.43,290.91Z" transform="translate(0 0)"/>
  <path class="cls-164" d="M405.94,74.48c2.4-.54,7.42,4.34,7,6.88a2,2,0,0,1-.81,1.27l-.11.06a1.29,1.29,0,0,1-1.73-.62c-1.29-1.93-2.64-3.79-5-4.61-.41-.12-.64-.77-.82-1A1.66,1.66,0,0,1,405.94,74.48Z" transform="translate(0 0)"/>
  <path class="cls-165" d="M373.56,93.2c2.3-1.36-.45-5.19,2.72-5.3,2-.07,3.42,1.68,3.42,3.84.06,2.34-1.51,3-3.69,2.89C375,94.49,372.91,93.57,373.56,93.2Z" transform="translate(0 0)"/>
  <path class="cls-161" d="M266.72,72.15a1.34,1.34,0,0,1-.66-1.75,1.37,1.37,0,0,1,1.63-.93A19.39,19.39,0,0,1,276,72.66a1.58,1.58,0,0,1,.69,1.79c-.24.8-.86,1-1.86,1C272.28,74.41,269.48,73.33,266.72,72.15Z" transform="translate(0 0)"/>
  <path class="cls-166" d="M111.59,273.23c-3.42.25-7,.91-9.59-2.22A16,16,0,0,1,111.59,273.23Z" transform="translate(0 0)"/>
  <path class="cls-167" d="M215.89,220.51c1.66.18,1.85,1.3,2,2.61.76,6.61-1.32,12.7-3.59,18.7-.31.86-.74,1.94-2,1.62s-.94-1.49-1.05-2.4c2.68-6,4.88-12.14,3.24-18.91C214.28,221,214.55,220.36,215.89,220.51Z" transform="translate(0 0)"/>
  <path class="cls-168" d="M201.91,266a1.48,1.48,0,0,1-.3-1.89c2.07-3.89,2.28-8.09,2.28-12.36,0-1.22.56-2.22,1.91-2.22,1.53,0,1.36,1.44,1.53,2.44-.63,4.44-.43,9.05-2.63,13.17C203.72,265.31,203.21,267.11,201.91,266Z" transform="translate(0 0)"/>
  <path class="cls-169" d="M273.52,231.14c-.15-1.86.14-3.4,2.27-1.58a25.59,25.59,0,0,1,3.63,4.41v0a1.57,1.57,0,0,1-.13,2.21,1.62,1.62,0,0,1-2.23-.12,12.45,12.45,0,0,1-3.54-4.91Z" transform="translate(0 0)"/>
  <path class="cls-170" d="M370.4,9.94c1.28-1,2.42-2.36,4.2-.87A3.65,3.65,0,0,1,373.27,12c-3.7,2.7-5.86,6.55-7.75,10.55-.49,1.05-.9,2.69-2.49,2.22s-.9-2.06-.9-3.23C364.54,17.4,366.5,13,370.4,9.94Z" transform="translate(0 0)"/>
  <path class="cls-171" d="M378.15,13.28c-.1,4.12-.14,8.24-.2,12.35-2.35,1.63-3.28.37-3.35-1.89-.12-3-.09-6.07,0-9.07,0-1.75-.11-3.66,1.89-4.66C378.3,10.47,378.13,11.87,378.15,13.28Z" transform="translate(0 0)"/>
  <path class="cls-52" d="M328.75,267.07c2.59-.1,5.31-.32,7.76.34,1.5.37,1.16,2.84,1.58,4.37.72,2.47,2.72,4.1,3.72,6.39.78,1.83-.09,3-1.57,3.69-1.31.63-1.89-.62-1.83-1.47.3-3.92-2.29-4.72-5.29-5.5a9.82,9.82,0,0,1-6.37-5.48C327,268.21,327.57,267.12,328.75,267.07Z" transform="translate(0 0)"/>
  <path class="cls-172" d="M344.53,226.66c1.89,3.68,3.32,7.26,5.45,10.37,1.74,2.55,1,3.86-1.46,5.38C344.92,235.06,343.91,231.22,344.53,226.66Z" transform="translate(0 0)"/>
  <path class="cls-173" d="M310.81,296.08c-2,1.95-3.09,2.15-6.22.73,4.2-3.67,4.2-3.67,5.49-7.37C310.24,291.63,313.6,293.37,310.81,296.08Z" transform="translate(0 0)"/>
</svg>
