<svg id="graphic-css-cheer_Image" data-name="graphic-css-cheer Image" xmlns="http://www.w3.org/2000/svg" viewBox="0 0 590 500.19">
  <defs>
    <style>
      .cls-1 {
        fill: #fefefe;
      }

      .cls-2 {
        fill: #5a382f;
      }

      .cls-3 {
        fill: #1c130e;
      }

      .cls-4 {
        fill: #030201;
      }

      .cls-5 {
        fill: #070606;
      }

      .cls-6 {
        fill: #050403;
      }

      .cls-7 {
        fill: #281f16;
      }

      .cls-8 {
        fill: #0a0807;
      }

      .cls-9 {
        fill: #0e0b0b;
      }

      .cls-10 {
        fill: #10110f;
      }

      .cls-11 {
        fill: #0f0e0e;
      }

      .cls-12 {
        fill: #080604;
      }

      .cls-13 {
        fill: #59382f;
      }

      .cls-14 {
        fill: #d7d3d0;
      }

      .cls-15 {
        fill: #0a0908;
      }

      .cls-16 {
        fill: #73716f;
      }

      .cls-17 {
        fill: #080605;
      }

      .cls-18 {
        fill: #1b120e;
      }

      .cls-19 {
        fill: #100f0f;
      }

      .cls-20 {
        fill: #2e2c2a;
      }

      .cls-21 {
        fill: #282726;
      }

      .cls-22 {
        fill: #c8bfb6;
      }

      .cls-23 {
        fill: #181816;
      }

      .cls-24 {
        fill: #21221f;
      }

      .cls-25 {
        fill: #58372e;
      }

      .cls-26 {
        fill: #1f201d;
      }

      .cls-27 {
        fill: #211d15;
      }

      .cls-28 {
        fill: #c0b8b0;
      }

      .cls-29 {
        fill: #99a08a;
      }

      .cls-30 {
        fill: #282828;
      }

      .cls-31 {
        fill: #373737;
      }

      .cls-32 {
        fill: #666463;
      }

      .cls-33 {
        fill: #1f1f1d;
      }

      .cls-34 {
        fill: #4f4e4d;
      }

      .cls-35 {
        fill: #6b5049;
      }

      .cls-36 {
        fill: #d4d1d0;
      }

      .cls-37 {
        fill: #333;
      }

      .cls-38 {
        fill: #1b170e;
      }

      .cls-39 {
        fill: #232221;
      }

      .cls-40 {
        fill: #a2695e;
      }

      .cls-41 {
        fill: #090605;
      }

      .cls-42 {
        fill: #1d130f;
      }

      .cls-43 {
        fill: #b9c2a4;
      }

      .cls-44 {
        fill: #cec4bb;
      }

      .cls-45 {
        fill: #1c140e;
      }

      .cls-46 {
        fill: #1b130e;
      }

      .cls-47 {
        fill: #1f1510;
      }

      .cls-48 {
        fill: #251815;
      }

      .cls-49 {
        fill: #1d140f;
      }

      .cls-50 {
        fill: #59483e;
      }

      .cls-51 {
        fill: #2e2825;
      }

      .cls-52 {
        fill: #cdc3ba;
      }

      .cls-53 {
        fill: #2d2724;
      }

      .cls-54 {
        fill: #070504;
      }

      .cls-55 {
        fill: #d8d4d1;
      }

      .cls-56 {
        fill: #c9bfb6;
      }

      .cls-57 {
        fill: #d6d2cf;
      }

      .cls-58 {
        fill: #73706e;
      }

      .cls-59 {
        fill: #6e6c6a;
      }

      .cls-60 {
        fill: #b1aeac;
      }

      .cls-61 {
        fill: #767472;
      }

      .cls-62 {
        fill: #11100f;
      }

      .cls-63 {
        fill: #9ea58c;
      }

      .cls-64 {
        fill: #41443a;
      }

      .cls-65 {
        fill: #59372f;
      }

      .cls-66 {
        fill: #72706e;
      }

      .cls-67 {
        fill: #696765;
      }

      .cls-68 {
        fill: #d3d0cd;
      }

      .cls-69 {
        fill: #f9f9f9;
      }

      .cls-70 {
        fill: #f8f7f7;
      }

      .cls-71 {
        fill: #6a6967;
      }

      .cls-72 {
        fill: #bcb3ab;
      }

      .cls-73 {
        fill: #8f967f;
      }

      .cls-74 {
        fill: #7e8470;
      }

      .cls-75 {
        fill: #6d6863;
      }

      .cls-76 {
        fill: #d5d1cf;
      }

      .cls-77 {
        fill: #f7f6f6;
      }

      .cls-78 {
        fill: #fbfbfb;
      }

      .cls-79 {
        fill: #fcfcfb;
      }

      .cls-80 {
        fill: #fdfdfd;
      }

      .cls-81 {
        fill: #151515;
      }

      .cls-82 {
        fill: #1a1614;
      }

      .cls-83 {
        fill: #171412;
      }

      .cls-84 {
        fill: #ebebeb;
      }

      .cls-85 {
        fill: #0c0b0a;
      }

      .cls-86 {
        fill: #120f0d;
      }

      .cls-87 {
        fill: #0f0d0c;
      }

      .cls-88 {
        fill: #201e1c;
      }

      .cls-89 {
        fill: #57473d;
      }

      .cls-90 {
        fill: #5a4d44;
      }

      .cls-91 {
        fill: #f4f2f0;
      }

      .cls-92 {
        fill: #150d0b;
      }

      .cls-93 {
        fill: #1d120f;
      }

      .cls-94 {
        fill: #160e0c;
      }

      .cls-95 {
        fill: #fbfbfa;
      }

      .cls-96 {
        fill: #161616;
      }

      .cls-97 {
        fill: #131313;
      }

      .cls-98 {
        fill: #d2d2d2;
      }

      .cls-99 {
        fill: #757575;
      }

      .cls-100 {
        fill: #cbcbcb;
      }
    </style>
  </defs>
  <title>graphic-css-cheer</title>
  <g>
    <path class="cls-1" d="M.08,500.09Q.08,252.35,0,4.59C0,.84.69,0,3.74,0Q295,.15,586.26,0c3,0,3.74.84,3.74,4.59q-.13,245.51,0,491c0,3.75-.69,4.6-3.74,4.6Q293.16,500,.08,500.09Z"/>
    <path class="cls-2" d="M155,326.09c5.4-.43,10.57-1.55,14.91-5.09,6.73-1.23,12.16-5.24,17.72-8.75,3.49-2.19,6.68-2.87,10.32-1.32a46.83,46.83,0,0,0,11.57,3A34,34,0,0,1,226.93,322c4.6,3.95,5.25,8.83,3.91,14.05-1.25,4.82-5.46,6.32-9.94,7.16-2.2.41-4.64-.35-6.76,1.16,5.72,4.93,15.78,2.21,18.1-4.76a46.62,46.62,0,0,0,1.45-7.35c.72-4.43,2.72-6.18,6.81-5a104.11,104.11,0,0,0,15.63,2.9c6.81.94,9.49,5.9,7.42,12.47-2.45,7.77-1.09,9.74,7.24,10a24.93,24.93,0,0,1,10.15,2.3c1.58.76,2.85,1.89,2.68,3.83-.19,2.19-1.8,3.05-3.73,3.41a29.7,29.7,0,0,1-5,.24c-5.13,0-10.21-.56-15.37.72-4.12,1-8.19-.77-12.13-2.23-3.7-1.37-7.39-3-11.84-2,.67,2.37,2.63,2.54,4.19,3.19,10.67,4.41,21.88,4.11,33,3.29,5.32-.39,10.63-.74,16-.65a85,85,0,0,0,21.76-2.56c7.89-1.94,16.2-1.95,23.75-5.56a38.4,38.4,0,0,0,8.17-4.73c1.23-1,2.37-2,1.06-3.69-2-1.78-4.19-3.52-4.42-6.39-.53-6.6-4.6-10.33-10.08-13.05a34.63,34.63,0,0,1-2.94-1.86,28.39,28.39,0,0,0,5.08,3c6.61,3.34,7.47,9.66,8.16,16,.25,2.22-1.72,3-3.47,3.66-4.68,1.68-9.37,3.36-14.39,3.81-5.15.06-10.28-.05-15.4.86a18.73,18.73,0,0,1-7.92-.2c-3.53-.88-4.44-2.71-2.46-5.78,3.53-5.47,3.58-10.71.38-16.37-1.18-2.1-2.44-3.42-4.74-3.81-4.39-.75-8.6-1.45-13.23-.26-5.94,1.52-12.21.76-18.34.33a4.67,4.67,0,0,1-3.52-1.69c-2.52-3.49-6.34-4.57-10.09-5.94-10.53-3.85-12.58-10.3-6.38-19.53,3.78-1.13,7.24.31,10.66,1.47,14.53,5,29.31,8.62,44.79,8.18,9.16-.26,18.15-2.18,27.19-3.47s17.49-.32,24.77,6c4,3.48,8.8,6,13.4,8.65,5,2.93,5.77,5.38,3.13,10.7-2.52,5.06-5.33,10-7.86,15-1.87,3.72-2.44,7.2.47,10.62-.32,1.88-1.93,2.27-3.34,2.52-7.05,1.27-13.85,3.66-20.94,4.76-4.94.07-9.88,0-14.81.12-4.23.14-8.18,1-10.74,4.89-4.59,1.71-9.48,1.17-14.22,1.9-18.88,2.89-37.28-.16-55.72-4.24-22.1-4.89-42.51-13.91-62.52-24.08a32.08,32.08,0,0,1-8-5.92c-2.81-2.8-5.31-5.93-8.88-7.94C155.73,329.41,154.47,328.08,155,326.09Z"/>
    <path class="cls-3" d="M344,347c4.29,2.75,1,4.76-.94,6.26a43.53,43.53,0,0,1-22,8.54c-7.14.74-13.84,3.41-21,3.72-1.15,0-2.29.48-3.43.51q-20.43.54-40.85,1c-6.79.15-13-2.58-19.29-4.43-1.68-.49-4.09-2.22-3.55-4.17.46-1.69,3.12-1.33,4.95-1.38,4-.09,7.38,1.77,11,3,4.91,1.71,9.64,2.66,15,.85,3.2-1.08,7.14,0,10.75.12,1.5.05,3,0,4.5,0s3.14-.26,3.5-2.09-1.07-2.47-2.57-3a24,24,0,0,0-10.7-1.9,9.13,9.13,0,0,1-6.59-1.76c-2.55-1.93-3.43-4-1.92-7.27,4.35-9.44,1.49-14-8.8-13.85-4,0-7.44-1.35-11-2.56-4.42-1.48-5.8-.5-6.15,4-1,12.59-5.94,16.75-18.37,15.53-2.72-.27-4.83-1.62-4.78-4.12.05-3.05,3-1.64,4.72-1.87,2-.25,3.92-.21,5.91-.63,3.73-.8,7-2.48,7.42-6.28.52-4.47.66-8.83-4-12.47a38.37,38.37,0,0,0-19.49-7.89,19.89,19.89,0,0,1-8.44-2.58c-2.95-1.87-6.12-1.48-9.33.61-4.57,3-9.5,5.45-14.35,8-1.33.7-2.89,2.14-4.38.09,6.59-4.22,14-7.12,20.27-11.82,2.37-1.54,4.82-.17,7.23-.23,9.77-.25,19.58-.42,28.87-4a26.28,26.28,0,0,1,8.53-2.08c-8.86.41-15-5.63-22.16-9.27a1.44,1.44,0,0,1,.42-1.44l2.72-.2c2.28-.82,4,.34,5.95,1.36,4.9,2.61,9.84,5.18,15.56,5.57,1.2.4,2.88.23,2.69,2.27a6,6,0,0,1-.76,3.32c-3.4,6.07-1.63,11.08,4.84,13.8,1.82.76,3.75,1.26,5.61,1.95,2.48.92,5.55,1.49,6.56,4.09s2.63,2.89,4.58,2.75c6.84-.5,13.61.94,20.62-1.41,4-1.35,9.8.17,13.86,2.22,2.47,1.25,3.84,5.83,4.54,9.16a13.88,13.88,0,0,1-2.5,11.3c-.75,1-2.55,1.76-1.7,3.22.76,1.3,2.47,1.59,4,1.54,2.82-.08,5.62.2,8.44-.44,4.58-1,9.27-.37,13.91-.46-.22,2.56-2.54,2.2-4.06,2.77-2.88,1.07-5.8,2-8.7,3.05C320.88,354.46,333,352.52,344,347Z"/>
    <path class="cls-4" d="M332,364.18l24-6c5.51-4.09,12.22-5.7,18.38-8.33S387.06,345,393.52,343c10-2.42,20.31-3.94,30.57-7.91-2-2.78-4.82-3.55-6.89-5.24a25,25,0,0,1-7.67-7.78c-6.13-9.32-16.18-14.25-24-21.64-.6-.57-1.39-.94-1.94-1.56-8.7-9.78-19.89-9.65-31.34-7.56-6.31,1.16-12.83,1.63-18.58,5.35-3.09,2-14.43-1.69-16.59-4.65-1.5-2.06-1.49-4.34-.83-6.69,1.67-3.07,3-3.15,3.95.44a7.33,7.33,0,0,0,.68,2.25,5.6,5.6,0,0,0,1.52,1.43c5.46.89,10.75-.86,16.13-1.09,4-.86,8-1.85,12.11-2.47,3.22-.5,4.54-1.66,2.5-4.84a38,38,0,0,1-2.24-4.41,47.53,47.53,0,0,1-2.06-5.68c-1.48-5.11-4.7-9.75-4.19-15.4.34-3.2-.9-6.76,1.73-9.73,2,1.72.39,3.89,1.64,5.32.1,6.17,1.2,12.06,5,17.17,3,2.2,2.12,5.85,3.2,8.76a14.89,14.89,0,0,1,1.72,2.43c2,4.51,4.92,7,10.38,6.33A13.63,13.63,0,0,1,378.52,289c10.8,9.06,23.26,16.11,32.63,26.91,4,2.06,6.37,5.66,8.77,9.22,6.06,5.91,14.38,6.41,21.81,9,1.42.5,3.46-.79,4.28,1.44a4.59,4.59,0,0,1-1.24,5.06c-6.18,5.75-11.72,12.35-19.93,15.52-.73.28-1.43.65-2.42,1.1l5.6,6.8c.19,2.05-1.36,1.8-2.6,2-4.83-1.31-6.21-6.24-9.56-9.11-4.68-4-12.66-2.18-15.27,3.46-.86,1.86-.19,3.19,1,4.48a7.51,7.51,0,0,1,2.06,6.89c-.52,2.7.93,4.8,2,7,1.15,2.42,2.58,5.22.15,7.36-2.14,1.89-4.36-.06-6.34-1.22-3.14-1.85-7.06-2-9.83-4.65-5.72-1.69-11.52-3.16-17.13-5.16-4.47-1.59-8.47-1.72-11.88,1.84-6.94,7.24-14.4,8.94-23.17,3.14-2.47-1.63-5.71-1.59-8.69-1.92-2.83-.31-5.41-1-7.55-3.27-2.74-2.9-7-1.34-10.23-2.78a2.59,2.59,0,0,1-.27-3.15,5,5,0,0,1,3.64-1.17C320.54,368,326.33,366.34,332,364.18Z"/>
    <path class="cls-5" d="M213.84,67.12C225,75,231.37,86.78,238.4,97.92A135.66,135.66,0,0,0,265,128.82c3.8,3.26,8.6,4.85,14.21,5.68-.46-2.51-1.57-4.76-.08-6.81,1.35-1.86-.42-2.67-1.28-3.72-6.5-8-5.22-14.09,3.34-19.28,3.47-2.1,4.23-6.69,4.88-10.36a16.55,16.55,0,0,1,3.41-8,8.7,8.7,0,0,0,2.28-5.45c-.06-4.81,2.88-6.37,6.87-6.91,4.4-.6,9.15-1.2,13.23-.73,5.66.64,11.31,3.59,16.37,6.56s9.42,6.93,10,13.47A4.91,4.91,0,0,0,339.4,96c4.2,4.57,5.43,10.07,4.94,16.13,2.24,0,2-4,4.28-2.57,2.07,1.28,2.73,3.83,2.38,6.2a16.25,16.25,0,0,1-7.94,12.12c-2.06,1.22-4.25,2.25-7.18,3.78,3.94,1.17,7.05.23,10.09.44,2.19-1.34,3.47.81,5.18,1.35a9.65,9.65,0,0,1,2.63,2.26c1.29,1.59,2.43,3.32,1.56,5.45s-2.94,3.06-5.22,3.22a42.19,42.19,0,0,1-13.82-1.54A55,55,0,0,0,304,143.88c-7.33,2.43-15,2.79-22.22-1.18a8.14,8.14,0,0,0-4.82-3.25c-10.52-2-17.49-9.35-24.76-16.26-10.64-10.26-18-22.92-25.55-35.38-3.65-6-7.43-11.75-12.93-16.22-1.17-1-2.28-2-2.15-3.71C212,66.77,212.71,66.26,213.84,67.12Z"/>
    <path class="cls-6" d="M246,275.1a92.73,92.73,0,0,1,7.17-17.41,35.55,35.55,0,0,0,3.48-10.34c.77-4.13,1-7.43-3.59-10.41-6.35-4.08-6-11.23-4.31-17.65a97.59,97.59,0,0,0,3.27-34c-.81-9.29-3.05-18.38-10.51-25.08a20.87,20.87,0,0,1-6.92-11.83c-.8-4.21-3.6-7.4-5.74-10.92-2.65-5.56-6.53-10.28-10.64-14.74a113.44,113.44,0,0,1-10.32-12.54c-4.85-6.6-7.7-14.45-13-20.75-.46-1.29.19-2,1.26-2.6,6.43,1.65,9.91,6.74,12.52,12a96.36,96.36,0,0,0,17.76,24.53c6.11,6.28,9.5,14.42,12.16,22.7a28.6,28.6,0,0,0,6.87,12c8.21,8.15,10.56,18.73,11.74,29.52a66,66,0,0,1-2.28,25.72,103.79,103.79,0,0,0-2.19,11.77,8.49,8.49,0,0,0,2.88,8.08c1.85,1.74,3.65,2,5.7.24,9.12-8,20.47-9.8,31.87-11.59s22.5-1.31,33.34,3.11a13.63,13.63,0,0,0,11.6-.67c5.78,2,8.27-1.74,10.43-6,.46-1.17.49-2.65,2.93-3.14-.06,6.27.33,12.35-.31,18.45.74,3.47-3.62,3.11-4.19,5.6a2.34,2.34,0,0,1-2.08.61c-1.66-.57-1.88-2.07-2.15-3.48a5.58,5.58,0,0,0-3.62-4.18c-8-1.16-15.87-3.23-23.78-4.94-16.13-3.48-31.63.37-46.48,6.78A12.29,12.29,0,0,0,261,244.61c-.74,9.82-5.47,18.34-9.79,28.16,11.62-3.7,22.06-8.31,33.6-7.1,8.77-.18,17.52-.11,26.28-.05,4.54,0,8.86.94,12.62,3.71,1.93,2.64-.33,4.23-1.51,6.1-5.32.87-10.34,3.19-15.81,3.35-3.53-3.08-7.25-2.43-11.44-1.26-6.86,1.92-13.59,4.26-20.49,6-1.75.29-3.93,1.25-4.69-1.17-.65-2.1,1.22-3.25,2.84-4.15,2.46-1.37,5.29-1.71,7.13-2.34-7.85,1.36-16.47,3-24.4,7.07a15,15,0,0,1-5.85,1.18c-1.51.1-3.11.07-3.85-1.59-.65-1.45.12-2.44,1.24-3.42,1.89-1.65-.44-.6-.67-.86A2.36,2.36,0,0,1,246,275.1Z"/>
    <path class="cls-7" d="M389.65,380.27c4.33,1,8.61,2,12.29,4.75.89.65,2.08,1.46,3.22.69,1.33-.9,1-2.48.62-3.65a24,24,0,0,0-2.71-5.29c-.91-1.36-1.45-2.81-.94-4.21,1.31-3.55.39-6.05-2.84-7.95-1.6-.95-1.36-2.46-.57-3.95,2.63-5,7.29-7.25,12.39-8.27,2.53-.51,4.16,2.15,5.74,4-.65,1.38-1.52,2.35-3.24,1.82-1.22-.48-2.22-.4-2.9,1-3.55,7,.17,14.66,8,16.45,1.75.4,3.7,0,5.25,1.26-.74,3.33-2.74,2.1-4.71,1.5a11.8,11.8,0,0,1,5.89,5c5.39,9.77,14.18,16.14,22.56,22.92,3.62,2.93,7.1,6,10.8,8.84,4.35,3.33,8.56,6.92,14.5,7.06a4.28,4.28,0,0,1,3,1.56c.62,3.11-1.77,4.79-3.35,6.8-2,2.61-4,5.18-3.79,8.74-2.66-.18-3.66-2.44-5.12-4.11.89-3.76-2.2-4.53-4.47-5.48-8-3.33-15.81-7-23.53-10.83A45.24,45.24,0,0,1,417,401.56a18.56,18.56,0,0,0-7.74-7.49c-3.16-1.54-5.83-3.78-8.65-5.85-1.68-1.23-3-3.79-5.8-2.76C392.71,384.12,389.94,383.43,389.65,380.27Z"/>
    <path class="cls-8" d="M311,369.11c0,1,0,2,0,3-11.41,1.12-22.8,2.49-34.23,3.3-13.64,1-26.72-2.89-39.77-6-5.88-1.4-10.9-1.1-15.32,2.62-7.57,6.35-16.84,8.57-25.92,11-12.53,3.34-24,8-33.73,17.09-6.69,6.27-15.4,9.72-24.12,12.66-4.56,1.53-9.17,2.94-13.75,4.41-3.82,1.92-7.58,4-11.7,5.19-1.83.54-3.93,1.41-5-1.32.07-2.24,1.93-2.87,3.46-3.73,1.72-1,2.48-2.09,1.17-3.91-2.91-4.56-6.87-8.11-11-11.52-1.64-1.37-3.63-2.49-3.61-5.05,1.69-2.52,3.34-.64,5,.05,7,3.35,11.67,9.12,15.6,15.59,1,1.57,2.52,1.51,4,.91,7.55-3.08,15.56-4.89,23-8.28a69.09,69.09,0,0,0,19.15-12.5c6.61-6.25,14.71-9.6,23.35-11.72,10.58-2.59,20.39-7.17,30.39-11.28a9.2,9.2,0,0,0,3.55-2.17c-5.81-3.46-12.4-4.13-18.29-6.71-6.11-2.67-11.66-6.4-17.91-8.8-7.45-2.86-8.73-2.68-14.11,3.52-2.82,2.82-2.57,4.91,1.43,6.14,3,3.73,2.76,4.45-2.44,6.44.3,2.18,3.16,4.32.14,6.57-4.59.09-7.29-3.56-10.86-5.48-1.68-2.76-3.95-2.53-6.42-1.27-1.31.53-2.59,1.19-4.08.86-1.64-.83-1.51-1.67,0-2.52,7.54-3.46,14.89-6.81,19.91-14.22,4.16-6.14,4.88-5.81-1-10.42-4.64-3.62-7.68-9.08-13.78-11.14-1.83-.61-2.7-3.49.85-4.35,8.46,8.41,16.79,16.87,28.46,21.09,7.15,2.58,13.56,6.92,20.72,9.64a274,274,0,0,0,56.16,14.36c12.48,1.92,24.77.73,37.12-.88a82.28,82.28,0,0,1,8.47-.27C307.53,369.3,308.92,367.26,311,369.11Z"/>
    <path class="cls-9" d="M81.11,444.24c-.82,5.6-1.56,11.21-2.47,16.79-.43,2.68-1.45,4.86-4.94,3.81a4.43,4.43,0,0,0-2.47.1c-7,2.23-12.47.28-16.59-5.83-1.92-2.85-4.53-2.77-7.47-1.39-13.28,6.23-25.09,1.37-36.23-5.54-5.93-3.69-5.3-7.58,1-10.47s12.67-5.14,19.65-5c3.32.06,4.38-3.18,7-4.23s5.23-2.21,3.37-6.21c-.88-1.9,1.35-3,2.58-1.64,3.79,4.17,6.66,4.08,9.53-.85.43-.74,2.13-.77,3.26-1.05,4.54-1.11,8-3.56,9.56-8.1,1-2.87,4.89-.89,5.87-3.65.87-.41,1.31.09,1.67.77-3.65,6,.79,8.64,4.75,11.54,1.86,1.37,3.87,2.62,5.07,4.71a19.23,19.23,0,0,1,2.27,4.89c.48,1.93.37,3.67-2.23,3.9-3-.71-2.39-4-4-5.69-2-2.43-4.86-4-6.92-6.44a22.47,22.47,0,0,0-1.76-1.89,12,12,0,0,1,1.74,2.06c2.88,2.07,4.57,5.1,6.43,8a24.8,24.8,0,0,1,3.09,6.59C83.75,441.57,83.24,443.2,81.11,444.24Z"/>
    <path class="cls-10" d="M389.85,103.79c6.95-4.84,13.59-10.08,20.28-15.27,4.25-3.3,9.68-4.24,14.86-5.52,6.65-1.65,13.18-3.63,18.17-8.75,4.19-1.12,8.37-2.14,11.81,1.75a26.34,26.34,0,0,1,3.66,6.26c.78-.27.05-.45,0-.63-.69-2.56,1.39-5,.19-7.62-.46-1.54-1.66-2.55-2.62-3.75-.7-1-1.09-2.06-.31-3.22,2.3-.27,4.24-1,5.39-3.33.61-1.28,1.89-3.16,2.9-3.19,5.63-.13,11.27.14,16.89.5a2.3,2.3,0,0,1,1.81,2.68c-1.94,7.55-3.95,15.13-10.77,20-.67.49-1.92.17-2.9.23-.85-1.8.67-3.06,1-4.59,2.15-3.12,3.19-6.73,4.47-10.23,1.43.46,1.74.15,2.44-2.48-3.26-1.35-8,4.61-10.16-2.21-4.6,3.26-4.7,4.24-2.88,9.42,1.11,3.17,4.09,6.21,1.58,10-2.28,2.34-5.15,4.3-4.76,8.87-2.55-2.12-4.09-2.87-6.77-.63-20.43,17-40.66,34.29-62.65,49.34-8.23,5.63-16.56,11.26-21.89,20.09-2.29,3.79-3.47,8.21-6.54,11.57-2.73,2.43-2.71-.05-3.14-1.75a59,59,0,0,1,18.15-25.1c3.9-3.12,7.92-6.09,12.09-8.84,19.2-12.65,35.75-28.72,54.26-42.27,2.68-2,4.65-4.78,7.23-6.86,2.76-2.22,2.33-4.37.6-6.89s-4.21-4.66-7-2.67c-8.27,5.81-18,7.71-27.26,10.71a27.4,27.4,0,0,0-10.2,6.09,82.67,82.67,0,0,1-11.64,8.57c-1.68,1.07-3.37,2.24-5.56,1.5C389.89,105.17,389.41,104.66,389.85,103.79Z"/>
    <path class="cls-11" d="M500.93,426.13c9.07,6.67,19.63,11.36,27.05,20.25.6.73,1.23,2,2.36,1.34,4.33-2.38,5,.71,7.12,3.58,3.56,4.9,8.15,9.15,12.73,13.19,2.08,1.83,5.34,1.31,8.17,1.35,6.29.1,12.71-.77,18.62,2.33,1.6.83,3.65,1.41,3.45,3.72-.17,2-1.67,3.13-3.32,4.1-6.71,3.93-14.18,5.56-21.66,7a71.65,71.65,0,0,0-8,2.14c-3.23,1-5.72,2.05-9.1-1.41-2.82-2.89-8.09-1.28-12.15.46-1.86,1.32-3.59-1.21-5.43-.15-3.23,1.61-7.47.44-10.08,3.7-.64,2.14-2.05,2.21-3.79,1.42,1.41-7-4.59-11.32-6.32-17.19-.79-2.67-2.21-5.18-.75-8,3.29-3.43,4.48-3.67,7.51-.26,2.85,3.21,5.14,2.83,7.83.07,3.34-3.44,6.81-6.73,10.21-10.34-1.43-.18-3.09,0-3.08-2.05-.19-1.7,2.92-2.88.76-4.9-6.23-5.81-13.77-9.77-20.59-14.75-1.46-1.51-4-2.21-3.87-4.94C499.13,425.74,499.83,425.2,500.93,426.13Z"/>
    <path class="cls-12" d="M223,289.16a10.17,10.17,0,0,1,4.72-3.17c7.2-1.19,14.52.08,21.75-1.29a65.09,65.09,0,0,1,21.26-.68,7.31,7.31,0,0,0,3.87-.7c10.33-2.07,20.82-2.38,31.3-2.86,1.84-.2,3.11,1,4.47,1.9,2.58,1.72,2.92,3.77.17,5.42-2.4,1.45-3.2,3.64-4.06,6-1.82,5-5.25,8.26-10.64,8.49-18.3.81-36.61,1.41-54.19-5.31a59.44,59.44,0,0,1-6.44-2.68c-2.92-1.49-5.75-3.38-9.2-1.23-1.28.8-2.89,1.36-4,0C220.69,291.48,222.35,290.37,223,289.16Z"/>
    <path class="cls-13" d="M212.82,292.89c7.92,2.51,14,9.49,23.2,9.31-11.19,6.15-27.81,9.74-45.86,7l12.92-9.93C206,296.67,208.5,293.37,212.82,292.89Z"/>
    <path class="cls-14" d="M503.17,430.82c6.8,5.24,14.92,8.7,20.71,15.32a2.62,2.62,0,0,1-3.56,0c-3.23-2.32-6.37-1.75-9.54,0a3.51,3.51,0,0,1-1.3.4l-.68,0c-2.58-.36-4.4-2.14-6.45-3.47-.8-.45-1.62-.88-2.41-1.35a14.74,14.74,0,0,0-5.79-2.67,6.85,6.85,0,0,1-3.58-1.62c-3.87-3.77-7.28-8-11.8-11.11-.53-.36-.54-1.18-.6-1.84-.13-3.14,3.42-5,2.91-8.25,2.15-1.07,4.2-3,6.78-.92-1.06,1.41,1.15,2.72.14,4.13-1.2,1.2-1.09,2.53.21,3.34C493,425.79,497.31,429.78,503.17,430.82Z"/>
    <path class="cls-15" d="M196,87.07l-1.13,2.32c-4.45-3.11-5.57-8.36-6.74-12.88-1.57-6-5.55-10.25-8.23-15.4a9.66,9.66,0,0,1-.32-5.71,9.71,9.71,0,0,0-1.11-7.9c-.37-1.42.45-2.86-.41-4.28a4.48,4.48,0,0,1-.47,4.2c-2,2.87.16,5.88-.31,8.8-2.66,2.24-3.9-.51-4.16-1.87a26.05,26.05,0,0,1,1-13.33c1.14-3.2,5.51-4.87,9.28-4.46,4,.45,8.26,1.31,9.89,6,.26.74.56,1.46.85,2.19.55,1.08,0,1.84-.73,2.57a4.55,4.55,0,0,1-1.93.76,7,7,0,0,0-3.08.9,4.52,4.52,0,0,0-2,3.88c-.66,5.37.13,6.55,5.1,7.52,1.64.33,2.58,1.56,1.62,2.81-5,6.38-.5,11.8,1.48,17.51C195.38,82.78,197.58,84.54,196,87.07Z"/>
    <path class="cls-16" d="M509.1,446a1.15,1.15,0,0,1,.89.1,3.51,3.51,0,0,1,1,.94c4.37,5.54,6.19,6.16,10.89,3.69a1.16,1.16,0,0,1,1.2.44c1.4,1,1.74,1.06,5.12.06-4.44,6.52-9.75,11.38-15.29,15.88-2.49,2-4.64-.26-6.11-2.39-2.08-3-4.35-3.17-7-.78-.82-1.6-.11-5-3.95-3-.77.41-1.18-1.08-.17-1.89A56.76,56.76,0,0,1,509.1,446Z"/>
    <path class="cls-17" d="M394.83,385.46c.26-.73-1.09-3,1.31-1.71,2.19,1.13,4.06,2.84,6.18,4.12,8.28,5,14.77,11.54,20.66,19.34,8.19,10.87,21.48,14.48,33.37,19.85a51.55,51.55,0,0,1,7.94,4.05c1.71,1.16,3.18,3.14-.49,4.08-2.5-2.9-6.14-3.8-9.42-5.26-5.74-2.55-11.61-4.83-17.41-7.28-9.22-3.89-15.76-10.77-21-19.09-1.14-1.83-2-3.89-4.15-4.76C404.9,396,400.45,390,394.83,385.46Z"/>
    <path class="cls-18" d="M275,284.2c-.43.25-.86.75-1.27.72-13.47-.84-26.73,2.45-40.17,2.13a37.35,37.35,0,0,1-5.84-1.06c3.36-3.28,6.85-6,12.07-5,4.64.92,4.78-3.24,6.18-5.91.24.9-.34,2.34.92,2.57,3.3.59,2.71,1.41.3,2.55-.88.41-1.28,1.06-.84,2a1.81,1.81,0,0,0,2.15.84c2.9-.61,6.1-.76,8.6-2.15,8.21-4.56,17.31-5.23,26.24-6.71.23,0,.52.28,1.19.66-3.71,2.32-7.82,2.89-11.54,4.41-1.35.54-3.2,1.44-2.41,3.12s2.33,0,3.56-.15A2.53,2.53,0,0,1,275,284.2Z"/>
    <path class="cls-19" d="M481.08,416.25c1.14.14,2.63.08,1.49,1.92s-2.54,3.85-3.82,5.77c-.74,3.65-2.95,6.48-5.17,9.3-1.21,1.55-2.58,3-2,5.24-.16.9-.1,2-1.57,1.6a.9.9,0,0,1-1.12-.78c-1.08-1.53-2.63-2.55-.43-4.88,2.91-3.08,5-6.94,7.45-10.46a11.62,11.62,0,0,0-2.62-7.3c-4.62-5.9-8-12.59-12.06-18.89-2.92-3.82-6.84-6.49-10.72-9.19-5.39-4.3-10.81-8.57-16.1-13-2.1-1.74-4.41-3.51-5.15-6.43,0-1,.12-2,1.51-2,7.06,7.24,15.53,12.76,23.59,18.71,6.15,4.54,11.23,9.62,15,16.27,2.52,4.46,5.54,8.64,8.41,12.9C478.51,416.1,479.15,418.09,481.08,416.25Z"/>
    <path class="cls-20" d="M74.14,412.35,72.78,411c1.92-3.15,5.35-4.33,8.18-6.28,4.92-3.38,10.41-5.95,14.74-10.12,2-1.87,3.9.47,6.48-1.39,14.65-10.55,30-20.17,46.83-26.95,0,.63-1,1.26,0,1.88.09,2.34-2,2.36-3.37,3-13,6.35-25.18,14.05-37.32,21.86-2.26,1.45-4,3.47-6.14,5-1.51.25-2.34-2.86-4.21-.86-2.51,3.1-6.24,4.52-9.38,6.74-4.44,2.74-8.4,6.23-13.11,8.57A2.15,2.15,0,0,1,74.14,412.35Z"/>
    <path class="cls-21" d="M83.85,436.2c2.13-.29,2.28-1.57,1.53-3.2s-1.6-3.24-2.4-4.86c.65-1.73-1-4.22,1.42-5.28,2.23-1,3.67.69,5,2.19A70.84,70.84,0,0,1,93.75,432c5.42-2.78,10.67-5.79,15.89-8.86,1.8-.71,3.59-1.42,5.35-2.21.93-.41,1.94-.56,2,1-6.75,5.23-14.13,9.48-21.28,14.1a4.29,4.29,0,0,1-2.74.61c-3.48-.07-3.23.11-4.24,3.87-.4,1.45-2.26,2.52-3.45,3.76-.93.28-2.53.38-2.22-.65C83.76,441.15,82.3,438.5,83.85,436.2Z"/>
    <path class="cls-22" d="M471,80.11,469.22,84l-3.53-.08c-.16-3.72-.74-7.65-3-10.42-3.42-4.21-.38-6.57,1.6-9.41a3.29,3.29,0,0,1,3.51-1.37c2.53.48.83,1.75.59,2.8-.18.78.71,1.6,1,1.26,2.11-2.5,6.33,1.32,7.87-2.72a1.05,1.05,0,0,1,1.7-.2,1.32,1.32,0,0,1,.27,1.23c-2,2.28-1.85,5.26-2.36,8.2-1.93-1.12-.35-3.22-1.91-4C473,72.6,470.77,75.91,471,80.11Z"/>
    <path class="cls-7" d="M470,440.08l.92-1.73c2-1.34,3.51.17,4.92,1.06,4.75,3,9.6,5.84,13.61,9.92,3.27,3.33,3.79,3.12,6.05-.87,1.51-2.66,2-6.11,5.5-7.3l1.73,1.19c1,2.94-1.61,4.73-2.28,7.12,2.75-1.47,4.63-5,8.58-3.48l0,0c-3.67,5.17-8.68,9-13.41,13.06,0-.49.19-1.36.06-1.41C485.71,453.93,479.69,444.34,470,440.08Z"/>
    <path class="cls-23" d="M361,171c.14,1.29-.36,3.2,2.13,2.15-3.89,7.36-5.75,15.47-8.53,23.24-2.63,7.37-1.55,15.18-2.41,22.77-.54,4.76.19,9.63-1,14.36v-17.7c-1.75,1.4-.49,3.54-2,4.32-1.74-1.54-1.41-3.59-1.37-5.55a84.49,84.49,0,0,1,7.87-34C357.12,177.24,357.18,173,361,171Z"/>
    <path class="cls-24" d="M389.85,103.79l1.5,1.5c-1.31,3.92-5,5.15-8.12,6.67-12.13,5.89-22.85,13.83-33.33,22.17l-3.93-2c12.36-9.35,24.46-19.07,38.88-25.26A40.84,40.84,0,0,0,389.85,103.79Z"/>
    <path class="cls-25" d="M223,289.16c.43,1.22-1.74,2.46-.15,3.53,1.14.76,2.16-.25,3-1,3.6-3.17,6.25-.27,9.09,1.4.14,2.46,2.3,4.31,2.1,6.87-6.16-.13-11.46-2.78-16.44-6a11.56,11.56,0,0,0-4.89-2.05C218.24,291.14,221.09,291.33,223,289.16Z"/>
    <path class="cls-26" d="M192.89,47.05l1.27-2.26c3.23,1.41,4,4.78,5.74,7.33.5,1.13,0,3,2.14,2.89,5.51,2.5,8.25,7.7,11.8,12.11a2.22,2.22,0,0,0-2,1.21c-2.33.11-3.74-1.51-4.7-3.13-2.2-3.68-4.94-6-9.49-5.37-1.25-.56-1.08-1.8-1.35-2.84a11.83,11.83,0,0,1-.19-2C195.81,52.06,192.36,50.36,192.89,47.05Z"/>
    <path class="cls-27" d="M207.89,110.14c6.78,7.51,14.8,14,19.66,23.11.69,1.29,1.59,2.56,1.3,4.17C220.8,129.14,212.59,121,207.89,110.14Z"/>
    <path class="cls-28" d="M177.28,56.22c-1.87-3.1-2-7.74-.3-9.15a1.68,1.68,0,0,1,2.13-.09c5.3,4.43.07,9.45.79,14.13C178.47,59.78,179.57,57.09,177.28,56.22Z"/>
    <path class="cls-29" d="M454.89,77.19a13.66,13.66,0,0,0-11.73-2.94c4.71-1.59,8.58-4.64,12.74-7.21-.19,1.25.55,2.12,1.25,3-.26,2.34-.17,4.77-1.65,6.82Z"/>
    <path class="cls-30" d="M506.88,489.15c1.45,0,3.1.14,2.25-2.22a32,32,0,0,1,7.67-1.87c1.59-.15,3.36-.25,4.15-2.1,2.38-2.3,3.31,1.54,5.23,1.22C520.84,490.09,513.93,489.88,506.88,489.15Z"/>
    <path class="cls-31" d="M487.8,419.14c-2.73-3.21-2.73-3.21.06-3.81,3.47,4.67,8.78,7.11,13.07,10.8-.82.13-1.63.26-2,1.14C493.57,426.79,490,424,487.8,419.14Z"/>
    <path class="cls-32" d="M83.85,436.2c1.66,2.49-1.62,5.82,1.38,8.08-1.39,1.92-2.75,0-4.12,0,2.36-4.29-.67-7.55-2.15-11.1A3.92,3.92,0,0,1,81,430.05C83,431.62,82.5,434.34,83.85,436.2Z"/>
    <path class="cls-33" d="M344.88,239.14l2.08,0a47.41,47.41,0,0,1,1,12c-1.59-.83-.49-2.76-2.07-4.45v9.59a1.77,1.77,0,0,1-1.75-1.43C343.3,249.54,342.38,244.26,344.88,239.14Z"/>
    <path class="cls-34" d="M116.94,421.94c-2.87-1.07-4.61,1.65-7,2.09-1.34-.28-3.07,0-3.42-1.88-.2-1.07-.16-2.36,1.64-2,.25,3,2,1.61,3.51,1.22,4.26-1.14,8.07-3.6,12.52-4.17C122.28,419.59,119.53,420.64,116.94,421.94Z"/>
    <path class="cls-35" d="M419.92,325.13c-3.67-2.36-5.78-6.2-8.77-9.22C416.4,316.77,419,320.14,419.92,325.13Z"/>
    <path class="cls-36" d="M212.82,292.89l-9.74,6.36c1.68-4.68,5.21-6.76,10-7.13Z"/>
    <path class="cls-37" d="M356.15,277c-2-2.59-1.89-5.93-3.2-8.76C358,269.74,358.34,272.91,356.15,277Z"/>
    <path class="cls-38" d="M202,55c-.22.87.29,2.21-.9,2.47s-1.3-1.19-1-1.65c.73-1.36-3.19-2.38-.19-3.71A3.23,3.23,0,0,1,202,55Z"/>
    <path class="cls-39" d="M430.8,367.14l-.81,2a6.78,6.78,0,0,1-5.25-3.88c1.14-.27,2.48,0,3.28-1.19A3.75,3.75,0,0,1,430.8,367.14Z"/>
    <path class="cls-40" d="M237.1,300c-1.29-2.11-4.36-3.68-2.1-6.87,19.12,8.29,39.22,9.25,59.61,8.05,6.11-.36,9.72-3.15,11.09-8.9.65-2.72.93-5.23,4.49-5.44a1.71,1.71,0,0,0,1.66-1.6,1.4,1.4,0,0,0-2-1.45c-2.52.79-1.37-3.55-3.85-2.62a2,2,0,0,1,.05-2.95A39.19,39.19,0,0,1,322,275.1c.59-2,2-3.33,4-3,8.69,1.29,17.51,1.7,26.06,3.95.21.45.41.9.63,1.34,4.2,8.42,4.2,8.44-5,10.32-2.89.59-5.81,1.05-8.72,1.57-3.94,1.17-6.18-.52-7.36-4.23-.88-2.76-2.29-5.08-5.55-5.47-1.86-.22-3.57.56-5.34.85-2.52.55-3,2.69-3.61,4.7-.42,6.87,0,6.84,6.36,9,5.1,1.69,9,1.11,14.26-.81a71.32,71.32,0,0,1,32.83-4c4,.47,7.05,3,10,5.35,5.92,4.82,11.57,9.95,17.88,14.3,5,3.43,8.87,8,12.43,12.86a36.72,36.72,0,0,0,7.34,7.39c1,2.77-.91,4.3-2.85,5-7.52,2.63-14.2,7-21.58,9.89l-37.72,14.19c-3.65-1.13-4.46-3.53-3.2-7,2.46-6.75,6.24-12.84,9.56-19.15,2.68-5.08,2.41-6.43-2.58-9a86.18,86.18,0,0,1-15.42-10.09c-6.35-5.33-13.59-5.32-21.22-4.4C312,309.83,301,312.73,289.6,312a137.09,137.09,0,0,1-23.54-3.5c-8.82-2.13-17.21-5.6-26.09-7.38C239.27,300.11,238.17,300.06,237.1,300Z"/>
    <path class="cls-41" d="M344,347a3,3,0,0,1-2.18,3c-12,3.49-23.81,7.5-36.25,9.47,4.49-4.63,11.06-4.61,16.38-7.31,4.78-.73,9.27-2.43,13.86-3.84,2.25-.69,2.48-1.54,2.24-3.86-.77-7.43-4.21-12.63-11-15.77-1.85-.85-4-1.84-4-5.41,4.52,4.22,10.21,5.69,13.94,10.18,1.63,2,3,4,3,6.63C340,343.24,341.54,345.38,344,347Z"/>
    <path class="cls-42" d="M311,369.11l-5.1.92c1.28-5.6,6-5.55,10.18-5.82,5.28-.35,10.61,0,15.92,0C326,369.86,318.37,369,311,369.11Z"/>
    <path class="cls-43" d="M344.88,239.14c.1,5.71-.4,11.46,1,17.09-.37,3.53,1,6.64,2.41,9.72.74,1.58,2,3,1.54,4.93a2.67,2.67,0,0,1-1.56,1.16A65.42,65.42,0,0,1,324,270.12c-12.86-5.55-26.44-2.11-39.66-3.17-2.59-4-.58-8,1.84-10.28,6.12-5.73,9.69-13.42,15.84-19.05,6.67-6.1,14.18-8.85,23.24-7.34,4.86.81,9.87-.3,14.75.77C344.93,231.76,343.8,236.12,344.88,239.14Z"/>
    <path class="cls-44" d="M424.74,365.24c1.76,1.28,4.09,1.79,5.25,3.88,4.28,6.47,11.23,9.95,16.8,15,1.46,1.31,2.95,2.57,4.43,3.85-.2.61-.85,1.51-.52,1.79,3.41,3,5.83,7.56,11.3,7.37,5.19,7.2,8.81,15.45,14.82,22.09,1.89,2.09-.56,3.19-.88,4.77-10,0-16.6-6.51-23.59-12.3-3.84-3.18-7.73-6.3-11.62-9.43-6-4.81-11.73-9.83-15.46-16.72-1.53-2.85-4-4.76-6.52-6.92,1.72-1.23,4,.35,5.43-1.41-1.12-4.8-5.71-6.71-8.5-10.13-2.18-2.69-4.21-5.27-1.57-8.76.77-.84,1.42-1.85,2.74-1.9C420,358.85,421.26,363.05,424.74,365.24Z"/>
    <path class="cls-45" d="M416.34,348.71c-6.75.84-13.26,2.37-18.16,7.69-4.21,4.57-4.22,6.71.33,11,.76.72,1.74,1.55,1.29,2.48-2,4,.24,7.21,2.31,11.18-11.43-3.76-22-7.32-32.68-10.68-4.22-1.34-8.59-2.24-12.9-3.32-1-.25-2-.57-2.07-1.77s.91-1.31,1.6-1.66a23.9,23.9,0,0,1,5.43-2.44c12.52-2.64,24-8.46,36.5-11.34C404.13,348.39,409.78,343.84,416.34,348.71Z"/>
    <path class="cls-46" d="M360.59,372.76c-.42.37-.88.82-1.39,1.22a30.58,30.58,0,0,0-3.5,2.76c-4.25,4.6-8.6,4.87-13.89,1.42-3.28-2.14-7.39-2.84-11.4-3.05-2.19-.11-5.2-.17-5.47-2.31-.32-2.64,3.09-2,4.66-2.25,5.69-1,11.47-1.38,16.75-4.07a2.27,2.27,0,0,1,2.77.39c2.58,2.69,6.18,3,9.42,4.15C359.42,371.33,360.59,371.11,360.59,372.76Z"/>
    <path class="cls-47" d="M393.77,344a72.69,72.69,0,0,1,18.83-10c2.43-.82,5.3-1.48,5.6-4.89,1.69,1,3.43,2,5,3.15,1.1.78,3.36.66,3,2.68-.26,1.35-2,1.65-3.2,2.05A225.68,225.68,0,0,1,393.77,344Z"/>
    <path class="cls-48" d="M324,270.12c6.89-.53,13.68.78,20.52,1.16a40.53,40.53,0,0,0,5.36-.4L352,276c-8.32.55-16.41-1.1-24.51-2.56-2.24-.4-4.17-.58-5.52,1.65C321.28,272.89,323.85,272,324,270.12Z"/>
    <path class="cls-49" d="M326,278.05c4.12-.17,5.89,2.72,6.65,5.93.86,3.66,2.67,5.4,6.36,5.26-6,.6-11.87,3.22-18,.93C322.33,286,321.54,281,326,278.05Z"/>
    <path class="cls-25" d="M326,278.05c-1.46,3.13-3.08,6.22-3,9.82a2,2,0,0,1-2,2.3l-1-1.07c-.15-3.27-1.68-6.53-.07-9.81Z"/>
    <path class="cls-49" d="M319.88,279.29c0,3.27.05,6.54.07,9.81-1.37-1.05-.77-2.57-1-3.92-.42-2.64-1.22-.06-1.84-.09C317.32,282.81,316.08,279.85,319.88,279.29Z"/>
    <path class="cls-43" d="M349.9,134.13c-.62-1.07-.28-1.77.7-2.46,10.7-7.5,20.93-15.7,33-21.17,2.8-1.27,5.2-3.45,7.79-5.21a59.83,59.83,0,0,0,15.59-10.64,35.84,35.84,0,0,1,16.78-8.31c7.22-1.61,14.16-3.76,20-8.51a5.21,5.21,0,0,1,6.85-.23c2.86,2,4.24,5,5.15,8.22.17.57-1.38,1.67-2.18,2.5-11.23,11.71-25.39,19.91-37.22,30.88-10.69,9.89-23.17,17.32-34.8,25.91C372.27,151.94,366,160.91,361,171c-2.95,7.7-5.85,15.41-8.87,23.08-3.32,8.43-2.27,17.34-3,26.06a11.06,11.06,0,0,0-1.85,2.3c-1.74,4.05-4.49,4.62-8.13,2.62-12.24,1.06-23.64-3.74-35.52-5.19-3.26-.4-6.54-1.1-9.79-1.75-7.83-1.57-11.32-7.44-9.23-15.15a33.34,33.34,0,0,0-.57-19.63c-3.33-9.9-6.5-19.89-12.07-28.89-2.78-4.5,1.38-13.67,6.46-14.69,1.47-.29,2.49.69,3.57,1.45,5.35,4,11.52,3,17.37,2.26,5.06-.6,10-2.27,14.93-3.7a24.27,24.27,0,0,1,12.26-.26c6.79,1.5,13.59,3.08,20.57,3.31,2.62.08,6.32,1.42,7.29-2.27C355.2,137.43,352.46,135.55,349.9,134.13Z"/>
    <path class="cls-38" d="M282,141.18c-5.85-1.8-6.7,4.41-10,6.59-2.64,1.73.29,4.28,1.48,6.39a113.91,113.91,0,0,1,13.62,37.74,20.17,20.17,0,0,1-.73,10.32c-3,8.12.49,13.45,9,14.88,14.63,2.44,29.2,5.27,43.79,7.93-4.39,2.87-9.11,2.83-13.73,1-18.73-7.41-36.82-3.28-54.79,2.86a22.25,22.25,0,0,0-6.91,3.91c-1.92,1.57-3,5.61-6.73,3.22s-6.77-5.6-5.81-10.65c1.32-7,3-13.91,4.17-20.92a64.21,64.21,0,0,0-6.21-40.11,2.92,2.92,0,0,0-.48-.87c-7.16-6-10.66-14.06-13.39-22.73-3.5-11.17-12.12-18.87-19.51-27.35-4.45-5.11-6.31-11.66-10-17.18-2.58-3.81-6-6.56-9.69-9.13-1.63-5.87-5.58-10.84-6.33-17.13-.26-2.18-.47-3.72,1.21-5.31.81-.77,2.71-1.74,1.23-3.09-1.22-1.11-2.34.43-3.35,1.24a5.35,5.35,0,0,1-2,1c2.43-4.18-5.77-7.26-.76-11.6,3-.24,3.4,2.52,4.67,3.92-.11-2.46-4.71-3.36-3-6.91,3.16-.93,4.17,1.92,5.89,3.42,1.38,1.2,2.07,3,3.25,4.37,1.29.55.36,1.29.17,2a8.89,8.89,0,0,0,1.65,7.59c6,8.59,10.43,18.09,15.5,27.22a141.73,141.73,0,0,0,23.57,30.68c5.77,5.81,11,4.84,15.17-2.3,7.28,7.17,14.6,14.26,25.15,16.49C279.53,139,281.39,139.19,282,141.18Z"/>
    <path class="cls-43" d="M252.86,122.15c-.22,6.12-6.39,9.4-12.21,6.32-4.05-2.15-6.75-5.85-9.75-9.2-11.22-12.53-19.37-27-27.08-41.82-2.53-4.86-4.92-9.85-8.86-13.83-3.2-3.22,1.79-2.91,2-4.66,5-.78,8.76.73,11.17,5.49.77,1.53,2.47,2.6,3.74,3.87,13.65,10.79,19.45,27.35,29.8,40.56C245.25,113.44,248.31,118.42,252.86,122.15Z"/>
    <path class="cls-50" d="M305.06,139.24c-4.32,2.07-9,1.86-13.56,1.84-1.22,0-2.62-.21-2.41-1.79.74-5.62-1.46-10.81-2.31-16.18-.87-5.55.73-10.39,2.64-15.53a11.37,11.37,0,0,0,10.05,2.11c.88-.21,2.23-.39,2.16-1.65-.08-1.44-1.32-1.8-2.56-1.68-1,.1-1.93.54-2.91.63-2.22.2-4.53-.28-5.82-2-1.15-1.52.6-3,1.36-4.44s1.05-2.79,1.63-4.17c2.23-5.23,5.55-6.46,10.69-4a17.12,17.12,0,0,0,7.15,1.88c1,2.36-.19,6.12,4,6.51,2,3.22,4.47,1.33,6.84.67a4.56,4.56,0,0,1,4.33,1.57c.78.92,1.29,2.47-.52,2.35-3.29-.21,1.44,2-.66,1.84-1.59,3.06-4,4-7.34,3.12a9,9,0,0,0-4.89.14c-2.37.1-4.52-3.42-7.15-.22-1.44,1.75-2.12,3.26-.57,5.2-.66,1.78-2.14,1.6-3.59,1.52a4.71,4.71,0,0,0-4.58.83c-1.68,1.28-4.1,2.43-3.79,4.69s2.91,2.68,5,3c1.51.45,3.34.34,4,2.28-.44,1.55.47,1.87,1.75,2,2,.21,4.17-.3,6,1.08.58,1.63-.69,2-1.72,2.61-1.88.92-5.89-2-5.48,3C303.19,137.73,304.59,138.11,305.06,139.24Z"/>
    <path class="cls-51" d="M290.23,92.34c1.57-4.78,5.48-8.24,5.11-13.47-.07-.92,1.14-1.58,2.22-1.68,5.1-.44,11.22-1.86,15.11-.35C318.25,79,324.8,80.36,329.41,85c2.79,2.8,5.95,5.24,6.06,9.8a6.54,6.54,0,0,0,2,3.94c3.3,3.24,3.72,7.16,3.6,11.47-.17,6,.31,6.26,6.3,5.43.48,5.56-3.38,8-7.17,10.76-2.7,1.94-4.11-1.2-6.39-1.23-1.61,0,0-2.08.07-3.22.36-4.77,2.2-9.22,2.27-14.17.15-12-10.86-23.79-23.88-16.82-.72.38-1.62,1-2.32.32C303.08,85.06,296.66,86.19,290.23,92.34Z"/>
    <path class="cls-52" d="M315.07,101.29c-5-.24-5.31-.76-3.9-7,4.11-1.8,8.19-3.75,12.87-1.91,3.95,1.55,5.74,3.71,6.52,8.58,1.74,10.89-1.69,20.68-3.92,30.81-.62,2.81-1.22,4.76-5.07,4.26-5.72-.74-11,2.11-16.51,3.22-1.22-.24-3.1.5-2.86-1.92,1.12-2.55,3.55-3.31,5.85-4.26l2.12-1.79a2,2,0,0,1,1.81-.89c5.33,1.3,6,.74,6.77-5.29-.61-4.89-1.74-6.17-5.49-6.25a2.33,2.33,0,0,1-2.3.92c-2.31-1.06-3.82-3.17-5.93-4.49-2.9,0-4.25-.74-2-3.61,4.65-6,4.75-6,10-1.51,2.27.21,4.17,1.69,6.54,1.73,3.41.05,5.81-.73,5.52-4.79.07-1.57-1.77-1.59-2.27-2.7,1.47-1,2.59,1.57,4.14.24-1.12-1.86-3-2.13-4.87-2.54C319.64,102.34,317.23,102.92,315.07,101.29Z"/>
    <path class="cls-53" d="M286.4,107.82c-4.22,9.44-2.07,18.28.07,27.14.31,1.32,1.51,3.35-.67,3.61s-.52-2.2-1.19-3.07c-3.66-4.77-2-11.19-6.07-16.31C274.23,113.74,278,108.49,286.4,107.82Z"/>
    <path class="cls-38" d="M340,231.05c-7.11-.05-14.19.46-21.31.42-9.88-.07-16.38,6.42-21.77,13.84-2.53,3.47-4.55,7.2-8.05,10s-4.25,7.3-4.54,11.67c-5.93.38-11.89-.25-17.68,2.19-5.44,2.29-11.21,3.8-17.71,5.94,1.48-3.65,2.39-6.8,3.95-9.56a50.24,50.24,0,0,0,6.75-21.17c.52-7,5-10.12,10.34-12.68,8.64-4.14,18.11-5,27.38-6.69s18.05,0,26.71,3.23C329.18,230.13,334.87,229.05,340,231.05Z"/>
    <path class="cls-25" d="M306.05,278.18c0,1,0,2-.05,2.95-.44.47-.92,1.41-1.29,1.36-10-1.19-19.79,1.26-29.68,1.71a1.71,1.71,0,0,1-.86-2c8.25-2.37,16.57-4.53,24.73-7.2C302.64,273.8,304.8,274.56,306.05,278.18Z"/>
    <path class="cls-54" d="M414.11,358.29c-1.17,7.13,4.31,10.09,8.71,13.62,1.95,1.56,4,2.69,1.36,5.27-1.32,0-2.65-.05-4-.14a12.93,12.93,0,0,1-10.89-19,4.48,4.48,0,0,1,3.48-2.51C414.52,355.5,413.69,357.34,414.11,358.29Z"/>
    <path class="cls-44" d="M102.19,398c-.47-3.38,2.65-3.89,4.45-5.13A341.71,341.71,0,0,1,149,368.1l4-1a6.72,6.72,0,0,1,6.92,1.19l9.86,6c4.36,2,2.5,4.89.63,7.24a76.79,76.79,0,0,1-16.58,14.92c-10.47,7.27-22.76,10.73-33.93,16.52a3.29,3.29,0,0,1-2.89.16C113.12,407,109,401.23,102.19,398Z"/>
    <path class="cls-7" d="M117,413.08c12.81-7,27.25-10.72,39-19.78a94.7,94.7,0,0,0,13.84-12.87c2.24-2.58,1.7-4.16-.11-6.19.25-.22.73-.48.7-.63-.78-3.48-2.66-7.11,3.12-8.5,1.17-.29-1-1.87-1.62-2.9,2-2.06,5.11-1.17,7.37-2.6,1.05-.68,3-.68,2.75-2.39s-1.81-2.27-3.3-2.63c-2-.49-3.94.13-5.84.79a3,3,0,0,1-2.85-.06c4.63-6.83,7.63-7.62,14.65-4.95,8.39,3.19,15.7,8.63,24.32,11.28,5.15,1.58,10.27,3.25,15.4,4.88-.15,2-1.71,2.19-2.8,2.67-9.39,4.14-18.6,8.75-28.59,11.37-11.6,3-22.41,7.22-31.41,15.87-6.71,6.45-15.45,10.16-24.38,13.07-5.2,1.68-10.34,3.57-15.44,5.54C119.44,416,117.73,416,117,413.08Z"/>
    <path class="cls-55" d="M89,426.17c-3.87-4-3.91-4-6,2L69.89,416.78c1.62-1.47,3.44-2.5,4.25-4.43l.89-.17c2.2,2.2,4,4.83,7.52,6,1-2.5-2.45-4.57-.47-7a60.06,60.06,0,0,1,5-4.81,3.22,3.22,0,0,0,1-3.19c3.32-2,5.87-5.2,9.89-6,5,5.36,11.6,9.15,15.17,15.86a2.3,2.3,0,0,1-1.23,3.32c-6.92,3.17-13.36,7.32-20.51,10A3.7,3.7,0,0,1,89,426.17Z"/>
    <path class="cls-16" d="M89,426.17,110.34,416c1.31-.62,2.9-1,2.81-3,2.52,2.38,1.95,4-1.17,5.18a33.43,33.43,0,0,0-3.85,2c-3.16,3,1.41,2.47,1.78,3.87-4.36,2.56-8.59,5.32-13.15,7.61-3.25,1.64-4.33,1.32-5.56-1.65A30.73,30.73,0,0,0,89,426.17Z"/>
    <path class="cls-56" d="M170.11,355.32c4.37-1.72,8.68-4.53,13.06.19,1.87,2,1.9,3.34-.74,4.34-3.36,1.28-6.65,3-10.45,2.36a8.32,8.32,0,0,0-1.82-.67c-4.31-.56-4-2.29-1.26-4.72A11,11,0,0,0,170.11,355.32Z"/>
    <path class="cls-20" d="M159.92,368.25,153,367.06C155.71,365.1,158.23,364.29,159.92,368.25Z"/>
    <path class="cls-25" d="M57.1,451.16c-2.61-.07-5.94,1.07-9.46.1-3.14-.86-5.89-1.85-8.26-4.16-6.15-6-5.32-9.53,3.16-11.87,1.76-.49,3.1-1,3.8-2.68.59-1.42,1.2-2.22,2.84-.91,1.37,1.08,2.39.08,3.24-1.14.58-.83,1.44-1.65,2.37-.47.56.72,1.52,1.85.57,2.65-4.3,3.61.12,4.23,1.91,5.28,3.84,2.26,5.86,7.64,4,11.5C60.55,450.84,59.85,452.23,57.1,451.16Z"/>
    <path class="cls-57" d="M26,456.14c-4.52-2-9.39-3.27-13.42-6.31-2.48-1.87-3.39-3.59.31-5.24,5.34-2.37,11-3.61,16.62-4.89,1.35-.31,2.71-.58,3,1.42.65,5.36,4.59,8.18,8.51,11-.56,3.45-3.65,3.13-5.94,3.85A15.15,15.15,0,0,1,26,456.14Z"/>
    <path class="cls-14" d="M65.12,449A15.53,15.53,0,0,0,61.7,437a20.76,20.76,0,0,1-2-3.42c-3.48-6.85-1.82-9.83,5.77-10.63,1.68-.18,2.29,1.05,3.21,1.9,4.12,3.82,5.44,8.94,6.48,14.18,1.46,3.94-.12,7.1-3,9.56C70.17,450.3,67.63,451.14,65.12,449Z"/>
    <path class="cls-58" d="M65.12,449c7.13-.17,8.73-1.77,10-10,3.3,1.14,4.45,2.78,3.12,6.61-1.38,4-2.55,8.25-2.25,12.68.17,2.39-1.06,3.67-3.63,3.61a36,36,0,0,0-5.48.37c-6.09.76-7-.2-4.92-5.91C62.9,453.84,64.08,451.45,65.12,449Z"/>
    <path class="cls-59" d="M26,456.14c5.19-.59,10.41-1.07,15-4l6.33,2.6C39.72,457.47,33.08,459.77,26,456.14Z"/>
    <path class="cls-60" d="M81,430.05A2.91,2.91,0,0,1,79,433.14l-6.06-7.95c-.31-1,.16-1.23,1-1Z"/>
    <path class="cls-61" d="M73.94,424.15l-1,1c-1.73-1.49-3.86-2.66-4.55-5.84C71.36,420.3,72.57,422.32,73.94,424.15Z"/>
    <path class="cls-62" d="M471,80.11c-1.65.34-4.1.56-2.41-1.93,1.87-2.76,3.46-5.37,4.07-8.68.21-1.19,1.31-2,2.32-.29C475.61,73.56,473.21,76.8,471,80.11Z"/>
    <path class="cls-63" d="M459.82,73.37a6,6,0,0,1,.48,5.26,4,4,0,0,1-.92,1.75c-1.8,1.48,4.2,1.92.51,3.17-2.73.92-2.58-2.34-3.72-3.71a12.26,12.26,0,0,1-1.28-2.65l.07,0C456.88,76.26,456.75,72.76,459.82,73.37Z"/>
    <path class="cls-64" d="M459.82,73.37c-1.93.85-2.31,3.71-4.86,3.77l2.19-7.1C458.36,70.89,459.56,71.75,459.82,73.37Z"/>
    <path class="cls-65" d="M538.57,457.11c3.12,3.48,5.59,6.36,8.2,9.12,1.34,1.41,1.26,2.53-.12,3.78a26,26,0,0,0-2.45,2.47c-2.65,3.1-9.93,7.2-13.61,7.88a5.72,5.72,0,0,1-3.37-.47c-5-2.08-7.71-15.34-4.11-19.3,3-3.28,5.89-6.62,9.32-10.48,1.14,4.18,3.56,7.26.23,11.28-2,2.46,1.09,4.9,2.7,6.07s4.66,2.39,6.83.33c1.28-1.22,1.73-3.21-1-3.53C536.3,463.66,537.26,460.84,538.57,457.11Z"/>
    <path class="cls-66" d="M502.48,464.05c4.69,5.81,9.18,9.14,15,3.44.81,2.84,1,5.66,2.34,7.84,2.4,4,1.11,5.07-3,5.59C508.53,482,502.3,475.5,502.48,464.05Z"/>
    <path class="cls-67" d="M574,470.12a3,3,0,0,1,3.3,1.62c.14.28-.83,1.37-1.48,1.73-10.25,5.65-22,6.87-32.82,10.66-.35.12-.89-.29-1.85-.64,2.7-2.35,2.92-5.81,4.92-8.35,4.16,2,8.56,1.15,12.52,0C563.74,473.69,568.93,472.07,574,470.12Z"/>
    <path class="cls-68" d="M574,470.12c.57,1.1.5,1.8-1,2-7.81,1.3-14.85,5.72-23.06,5.61-2.25,0-4.06.46-3.91-2.63C553.88,465.24,564.22,469.31,574,470.12Z"/>
    <path class="cls-69" d="M510.14,447a5,5,0,0,1-.15-.93c2.68-3.31,6-3.93,9.59-1.84,1.4.82,2.51,2,4.3,1.87,3.47,2.29.07,3.46-.82,5a1.1,1.1,0,0,0-.79.15c-.79.22-1.89.78-2.39.27C517.17,448.86,513.17,449,510.14,447Z"/>
    <path class="cls-70" d="M487.8,419.14c3.41,3.11,6.78,6.28,11.11,8.13l4.26,3.55c-.21.25-.38.69-.63.73-2.7.45-16.58-7.62-17.27-10S486.23,419.15,487.8,419.14Z"/>
    <path class="cls-71" d="M521,483c2.85,1.76-.12,2.27-.77,2.41-3.63.81-7.25,1.9-11,1.56C512.23,483.1,517.12,484.59,521,483Z"/>
    <path class="cls-46" d="M239.84,290.86a103.16,103.16,0,0,1,27-2.91,70.59,70.59,0,0,0,13.24-1.44c3.38-.56,5.46-1,4.46,3.92-1.43,7-1.67,7.32-9.28,7.73C262.76,298.82,251.21,295.45,239.84,290.86Z"/>
    <path class="cls-25" d="M303.46,287.52c-.1,8.41-3.76,10.94-11.53,10.76-4.36-.09-4.34-3-4.69-5.42-.38-2.62,1.8-3.75,4.19-3.69C295.42,289.26,299.18,287.91,303.46,287.52Z"/>
    <path class="cls-16" d="M501,441.16c-2.61,2.88-4,6.46-5.53,9.91s-3,3.45-5.32.93A57.18,57.18,0,0,0,471,438.35c-1-.81-2.12-1.21-.65-3,3-3.62,5.66-7.6,8.44-11.44a3.4,3.4,0,0,0,1.73,2.86c.72.39,1.68.58,2.18,1.16A47.74,47.74,0,0,0,501,441.16Z"/>
    <path class="cls-16" d="M509.07,446c-4.58.22-6.64,4.55-10.62,6.25.18-3.86,3.31-6.45,4.32-9.89Z"/>
    <path class="cls-72" d="M186.46,42c1.81,0,3.2-.19,3.84,1.35.22.5-5.65,4.82-6.38,4.62a3.09,3.09,0,0,1-2.13-3C181.93,41.67,184.75,42.21,186.46,42Z"/>
    <path class="cls-73" d="M188,49.13c-.4,3.31,2.86,4.56,4,7,.44,1,1.73,1.77.83,3a2.15,2.15,0,0,1-1.57.91c-1.65-.17-1.12-1.57-1.34-2.64a7.17,7.17,0,0,0-3.9-5.26c-2.19-2.76,1.17-2.83,2-4.13a.69.69,0,0,1,.25.71C188.16,49,188.09,49.13,188,49.13Z"/>
    <path class="cls-74" d="M188,49.13l0-1.07c.65-1.44,2-.77,3-1,2.19,2.51,4.68,4.81,5.89,8,0,.62-.07,1.24-.11,1.85C192.63,55.76,192.12,50.44,188,49.13Z"/>
    <path class="cls-38" d="M196.91,55.14c-1.94-2.7-5.27-4.39-5.89-8l1.87,0C193.55,50.08,197.7,51.39,196.91,55.14Z"/>
    <path class="cls-75" d="M179.11,47l-2.13.09c.38-.87,1.39-1.64.73-2.7-2-3.18.49-3.34,3.59-4.64C179.27,42.59,178.38,44.64,179.11,47Z"/>
    <path class="cls-76" d="M510.14,447c5-1.27,8.32,2.19,12.13,4.29C518,455.18,512.57,453.26,510.14,447Z"/>
    <path class="cls-77" d="M462,397.1c-.23,2.16-1.5,2.53-3,1.4a85.94,85.94,0,0,1-9.59-7.67c-2.18-2.16.29-2.49,1.84-2.89C455.41,390.3,459.34,393,462,397.1Z"/>
    <path class="cls-78" d="M88.09,403.13c2.76.61,2.09,2.13.76,3.48s-2.82,2.24-4.2,3.4c-1.89,1.58-3.52,3.16-.77,5.5,1.28,1.08,1.59,2.59.18,3.85s-2.91.61-3.84-.65c-1.65-2.24-5.74-2.57-5.19-6.53C79,408.54,83.54,405.87,88.09,403.13Z"/>
    <path class="cls-79" d="M324.74,163.85c3.59-2.54,4.12,1.08,4,2.65-.61,6.2-1,12.57-4.74,18-.37.54-1.08.9-1.32,1.48-3.43,8-10,8.72-17.65,8.39s-12.65-3.89-15.9-10.15c-4.37-8.44-5.24-17,.83-25.26a3.07,3.07,0,0,1,1.16,1.87c.39,6.16-.16,12.48,2.85,18.89,1.23-2.6.45-5.11,1.73-7.06.45-.68.88-1.52,1.83-1.47s1.23,1,1.47,1.74c.63,2,.17,4.33,1.77,6.1,2-5.8,2.1-9.61.38-13.22-.64.73-1.06,1.8-2.35,1.39-1-1.37-2.49-2.59-1.76-4.63,2.16-2.77,4.83-3.32,8-1.88a30.93,30.93,0,0,1,1.85,15.47c-.23,1.91-1.29,4.44,1.45,5,2.27.44,3.2-2,3.9-3.82a12.13,12.13,0,0,0,.22-5.9c-.21-1.64-.77-3.24,0-4.87a1.54,1.54,0,0,1,1.17-.73c3.1,2.41,4.46,6.08,6.46,9.27,1.44,2.3.08,4.07-2.28,5.12,3.93-1.37,4.25-2,2.87-5.33a22.85,22.85,0,0,0-1.83-3c-1.25-2-2.55-4.21-.67-6.4C319.85,163.48,322,162.31,324.74,163.85Z"/>
    <path class="cls-80" d="M290,161.19c0-.75-.06-1.51-.1-2.26,2.71-5.39,8.41-6.19,13-6.53a29.35,29.35,0,0,1,21.83,6.93L321,161a10.93,10.93,0,0,1-6.82,5.17l-1,0a41.76,41.76,0,0,0-8.23-5,11.41,11.41,0,0,0-8,2.07,5.35,5.35,0,0,0-.43,1.41c-.3,1.68.2,4.3-2,4.37-1.85.06-1.48-2.58-2-4A8,8,0,0,0,290,161.19Z"/>
    <path class="cls-81" d="M314.16,166.14c1.74-2.43,4.24-3.84,6.82-5.17,1.86.16,4.06-.11,3.76,2.88-6.95,1-7.65,2.6-3.78,8.62,1.39,2.15,2.42,4.46,1.37,7a4.51,4.51,0,0,1-4.43,2.68c-1.09,0-2.53.35-2.72-1.34s.26-2.1,2.22-2.18c4-.14,2.31-2.7,1.12-4.33C316.66,171.79,314.36,169.55,314.16,166.14Z"/>
    <path class="cls-82" d="M313,118.09c-.6-.58-1.28-1.2-.77-2.1.16-.28,1.08-.5,1.21-.35,2.55,2.88,8.05,3.76,6.51,9.44-3.35,5.49-4,5.63-9.76,2.29-3.91-2.08-8.05-1.87-12.24-1.29-3,2.08-4.88-1.06-6.52-2.15-1.39-.91.68-3.74,2.25-4.77,2.18-1.43,3.55-5.28,7.29-3-.05.23-.09.46-.13.69-.6,1.55-2.28,2.3-3.48,4.41,5.89-1.83,10.72-.63,15.31,2,.84.48,1.84,1.17,2.64.11.58-.78,0-1.6-.56-2.24A9.48,9.48,0,0,1,313,118.09Z"/>
    <path class="cls-83" d="M325,107.09c.74,1.56,2.42,3.8,1,4.76-2.77,1.89-6.31,1.92-9.59,1a5.91,5.91,0,0,1-3.48-2.67c.21-1,.56-2,1.89-1.58A10.69,10.69,0,0,0,325,107.09Z"/>
    <path class="cls-84" d="M298,126.08c4.35-3.81,8.66-1.29,13,.07a1.57,1.57,0,0,1-.15,2.4c-3,1.25-5.89,1.7-8.61-.62C301,126.71,298.88,127.8,298,126.08Z"/>
    <path class="cls-85" d="M302.17,127.93h8.67a1.68,1.68,0,0,1,2.22,1.25c.32.87-.26,1.48-1.1,1.8l-1.79.28c-2.8-.15-5.61-.19-8.39-.52-1-.12-2.59-.45-2.26-2C299.62,128.32,301.24,128.2,302.17,127.93Z"/>
    <path class="cls-82" d="M305,115.27c3.15-.46,4.44,1.85,5.9,3.93-2.77,3-5.81.44-8.68.24-1.39-.09-2.4-1.66-1.23-3.38l0,0C302.36,116,303.89,116.59,305,115.27Z"/>
    <path class="cls-86" d="M293.47,101.34c2.81-3.06,5.95-2.75,9.19-1,.89.48,1.64,1.3,1,2.4a1.48,1.48,0,0,1-2.51.31C299,100.07,296.19,101.7,293.47,101.34Z"/>
    <path class="cls-87" d="M308.05,133.06c-1.24,2.4-3.75,3.05-5.85,4.26-1.38-1.26-1.92-2.93-.49-4.18C303.61,131.47,305.91,132,308.05,133.06Z"/>
    <path class="cls-88" d="M315.07,101.29c2.44-.82,4.69,0,6.95.8C319.52,103.38,316.73,107.27,315.07,101.29Z"/>
    <path class="cls-89" d="M301,116.06c0,1.25.72,2.89,1.68,2.61,2.9-.84,5.45,1.46,8.23.53.73-.3,1.82.08,2.08-1.11a34,34,0,0,1,3,2.6c.8.87,2.67,1.77,1.19,3.15-1,.9-2,2.45-4.22,1-4.52-3-9.44-4.91-14.93-2.24a1.66,1.66,0,0,1-2.49-.8c-.55-1.18.31-1.84,1.11-2.45C298.1,118.24,299.56,117.16,301,116.06Z"/>
    <path class="cls-90" d="M312,131c1.11-1.56.51-2.5-1.12-3.05l.09-1.79c3.54,4.12,6.31,1.74,9-1.07.53,1.71,0,3.22-.79,4.74C317.3,133.64,314.92,134,312,131Z"/>
    <path class="cls-91" d="M116.14,390.54c-2.25,3.52-5.48,5.26-10.51,6.3C108.61,392.2,112.37,391.36,116.14,390.54Z"/>
    <path class="cls-92" d="M47.64,440.73c-.24,1.32-1.12,1.44-1.88,1.15-1.17-.44-2.67-.78-2.56-2.5.06-1.05.92-1.31,1.79-1.1A4.08,4.08,0,0,1,47.64,440.73Z"/>
    <path class="cls-93" d="M50.1,435.22a3.34,3.34,0,0,1,2.48,2.62c.16.84-.62,1.22-1.26,1.09-1.54-.31-2.79-1.15-2.86-2.87C48.44,435.31,49.24,435.13,50.1,435.22Z"/>
    <path class="cls-94" d="M42.91,443.25c0,.76-.16,1.54-1,1.42a3.29,3.29,0,0,1-2.72-2.57c-.28-.93.19-1.87,1.19-1.6A3.72,3.72,0,0,1,42.91,443.25Z"/>
    <path class="cls-95" d="M566.66,470.22c-2.68,3.67-6.38,2.67-9.34,3.62-.93.3-1.93-.59-1.93-1.77a1.86,1.86,0,0,1,2-1.82C560.28,470.15,563.19,470.22,566.66,470.22Z"/>
    <path class="cls-96" d="M290,161.19c6.35-.57,2.3,5.15,4.38,7.16,1.62-1.34-.68-4.57,2.47-5.21,1.42.86,2.5,1.92,2.29,3.76a4.07,4.07,0,0,1,.81,1.77c.23-1.58,1.12-3.07,0-4.58-.1-1-.28-2.07,1.19-2.17,1.17-.09,1.67.54,2,1.69,1.48,5.82-.58,11.51-.5,17.27,0,.73-.62,1.09-1.36,1.14a2,2,0,0,1-2.24-1.52,35.13,35.13,0,0,1-1.58-8.36c-1.68,1.94-1.24,4.29-1.22,6.55,0,1.51,1,3.48-1.75,3.77-2.46.27-2.18-1.44-2.71-3.06C289.85,173.43,290.46,167.27,290,161.19Z"/>
    <path class="cls-97" d="M304.92,161.07c4.05-.47,6.92,1,8.23,5,0,4.52,2.24,9.12-.52,13.57-1.15,1.87-2.11,3.85-4.87,3.22-3-.69-2.91-3.19-2.36-5.13C307,172.08,303.9,166.65,304.92,161.07Z"/>
    <path class="cls-98" d="M295.87,186.37c6.87-4.59,14-.19,21.11-.48C310.12,189.82,302.94,185.58,295.87,186.37Z"/>
    <path class="cls-99" d="M300,164.09c1.64,2.23,1,4.69.78,7.52-2.17-1.29-1.74-3.05-1.62-4.71C300.43,166.25,299.49,165,300,164.09Z"/>
    <path class="cls-100" d="M308.48,164.9c2.59,4.9,4.19,9.84,0,15Z"/>
  </g>
</svg>
