<?xml version="1.0" encoding="utf-8"?>
<!-- Generator: Adobe Illustrator 23.0.2, SVG Export Plug-In . SVG Version: 6.00 Build 0)  -->
<svg version="1.1" id="Layer_1" xmlns="http://www.w3.org/2000/svg" xmlns:xlink="http://www.w3.org/1999/xlink" x="0px" y="0px"
	 viewBox="0 0 192.8 135" height="90px" style="enable-background:new 0 0 192.8 135;" xml:space="preserve">
<style type="text/css">
	.st0{fill-rule:evenodd;clip-rule:evenodd;fill:#FFFFFF;}
</style>
<g>
	<polygon class="st0" points="24.6,115.9 28.1,104 34.2,104 35.7,109.1 40.1,104 46.5,104 43.1,115.9 38.3,116 40.1,109.8 34.4,116 
		32.1,116 30.3,109.4 28.4,116 	"/>
	<polygon class="st0" points="67.3,104 82.2,104 81.3,107.9 76.2,107.9 74.1,115.9 69.4,116 71.3,107.9 66.3,107.9 	"/>
	<path class="st0" d="M107.2,104v2.8l0,0l-0.6,2.3h5.1c0,0,1.2-0.2,1.3-1.3c0.1-1-0.9-0.9-0.9-0.9h-5L107.2,104h7.6
		c0,0,3.3,0.2,3,3.1c-0.3,2.8-3.4,3.8-3.4,3.8s-0.2,0.2,0,0.3c0.1,0.1,1.3,0.3,1.4,1.4c0.1,1.1-0.4,1.8-0.4,2.2c0,0.3,0,1,0.4,1.2
		h-4.9c0,0-0.9-0.1-0.8-1s0.1-1.7,0.1-1.7s-0.1-0.9-1.4-0.8h-3.6l-1,3.6H100l3.4-11.9h3.8C107.2,104.2,107.2,104,107.2,104z"/>
	<polygon class="st0" points="141,104 145.5,104 143.3,112.7 150.8,112.7 150,116 137.9,116 	"/>
	<polygon class="st0" points="165.4,104 168.1,116 163.4,116 162.9,113.9 162.9,113.8 157.1,113.8 157.1,113.9 155.7,115.9 
		151.7,116 159.8,104 161.4,107.5 159,111 159.1,111 162.2,111 162.2,111 161.4,107.5 159.8,104 	"/>
	<path class="st0" d="M57.1,106.7c1.4,0,2.9,0.7,3.1,1.8c0.7,3.3-2.9,4.7-2.4,4.5c-2,1-5.1,0.7-5.5-1.4c-0.3-2,1.2-4,2.5-4.5
		C55.7,106.7,56.4,106.6,57.1,106.7L57.1,106.7v-3.1c-0.9,0-2,0.1-2.8,0.3c-3.6,0.7-8.1,3.9-7.3,8c0.7,3.5,5.4,5.3,10.7,4.3
		c5-1,8.2-4.8,7.5-8.1c-0.7-3.3-4.5-4.5-8.1-4.5v2.7V106.7L57.1,106.7z"/>
	<path class="st0" d="M91.7,106.7c1.4,0,2.9,0.7,3.1,1.8c0.7,3.3-2.8,4.7-2.4,4.5c-2,1-5.1,0.7-5.5-1.4c-0.3-2,1.2-4,2.5-4.5
		C90.3,106.7,91.1,106.6,91.7,106.7L91.7,106.7v-3.1c-0.9,0-2,0.1-2.8,0.3c-3.6,0.7-8.1,3.9-7.3,8c0.7,3.5,5.4,5.3,10.7,4.3
		c5-1,8.2-4.8,7.5-8.1s-4.5-4.5-8.1-4.5v2.7L91.7,106.7L91.7,106.7z"/>
	<path class="st0" d="M129.4,106.6c1.4,0.1,2.9,0.7,3.1,1.8c0.7,3.3-2.9,4.7-2.4,4.5c-2,1-5.1,0.7-5.5-1.4c-0.3-2,1.2-4,2.5-4.5
		C128.1,106.7,128.6,106.6,129.4,106.6v-3.1c-0.9,0-2,0.1-2.8,0.3c-3.6,0.7-8.1,3.9-7.3,8c0.7,3.5,5.4,5.3,10.7,4.3
		c5-1,8.2-4.8,7.5-8.1s-4.5-4.5-8-4.5v2.7L129.4,106.6L129.4,106.6z"/>
	<path class="st0" d="M96.4,20c20.1,0,36,16.2,36,36c0,19.9-16.1,36-36,36s-36-16.1-36-36S76.6,20,96.4,20L96.4,20L96.4,20z
		 M96.4,63.5L86.3,30.1l-13,42.8h2.4c0,0,1.6-7.4,4.3-11.9c1.5-2.4,3.7-4.4,6.7-4.3c2.1,0,3.9,1.2,6.2,4.4c1.4,1.9,3.5,6.8,3.5,6.8
		s2.1-4.9,3.5-6.8c2.3-3.2,4.1-4.3,6.2-4.4c3-0.1,5.2,1.9,6.7,4.3c2.7,4.4,4.3,11.9,4.3,11.9h2.5l-13-42.8L96.4,63.5L96.4,63.5
		L96.4,63.5L96.4,63.5z"/>
</g>
</svg>
