<?xml version="1.0" encoding="utf-8"?>
<!-- Generator: Adobe Illustrator 23.0.2, SVG Export Plug-In . SVG Version: 6.00 Build 0)  -->
<svg version="1.1" id="Layer_1" xmlns="http://www.w3.org/2000/svg" xmlns:xlink="http://www.w3.org/1999/xlink" x="0px" y="0px"
	 viewBox="0 0 400 192.8" style="enable-background:new 0 0 400 192.8;" xml:space="preserve">
<style type="text/css">
	.st0{fill-rule:evenodd;clip-rule:evenodd;fill:#FFFFFF;}
</style>
<title>stubhub</title>
<path class="st0" d="M370,0.1c8.3-0.7,16.5,2.3,22.4,8.2c5,5.2,7.7,12.1,7.6,19.3c0,3.5-0.7,7.1-0.9,10.7c-3.5,40-6.9,80-10.4,120
	c-0.2,3-0.5,6-1.1,8.9c-3.1,14.1-15.1,24.5-29.6,25.5c-2.7,0.1-5.5,0.1-8.2-0.2c-98.6-6.7-197.3-13.3-296.1-19.8
	c-1-0.1-1.9-0.1-2.9,0c-15.8,6.4-31.3,13.1-47.1,19.6c-1,0.5-2.3,0.3-3.1-0.4C0,191-0.2,190,0.1,189.1c3.6-12.2,6.9-24.7,10.4-36.9
	c0.1-1,0.1-1.9,0-2.9L1.2,60.1c-0.4-2.7-0.5-5.5-0.4-8.2C1,45,3.5,38.3,7.9,33c5.4-6.6,13.4-10.7,22-11.1
	C143.2,14.8,256.6,7.5,370,0.1z M30.6,33c-4.3,0.2-8.4,1.8-11.8,4.4c-4,3.3-6.6,8-7.1,13.1c-0.1,2.7,0.1,5.4,0.4,8
	c3.1,30.6,6.4,61.1,9.6,91.7c0.1,1.5,0.1,3-0.2,4.4c-2,6.9-4,14-5.8,20.9c9.8-4,19.5-8.2,29.3-12.2c1.5-0.8,3.2-1.4,4.9-1.8
	c1.7-0.1,3.4-0.1,5.1,0c97.3,6.4,194.7,13,292.1,19.6c4.2,0.2,8.4,0.9,12.4,0.2c8.8-1.5,15.8-8.3,17.5-17.1c0.4-3.1,0.7-6.4,0.9-9.6
	c3.5-41.8,7.3-83.5,10.9-125.3c0.5-5.2-1.4-10.3-5.1-14c-3.3-3.3-8.2-4.7-12.9-4.4L30.6,33z"/>
<path class="st0" d="M44.6,59.6c4.7-3.8,10.9-4.9,16.7-4.2c5.5,0.5,10.6,3.4,13.8,8c2.2,3.4,3.4,7.3,3.6,11.3V83H63.9v-8.9
	c0-1.8-0.8-3.4-2.2-4.4c-2.5-1.7-5.8-1-7.5,1.5c-0.1,0.2-0.2,0.3-0.3,0.5c-1.1,2.2-0.7,4.9-0.2,7.1c1.3,4,4.9,6.9,8,9.6
	c5.1,4.7,10.7,9.1,14.4,15.1c2.6,4.3,3.8,9.2,3.3,14.2c-0.4,6.3-3.6,12.1-8.7,15.8c-4.9,3.6-11.3,4.2-17.3,3.3
	c-4.7-0.5-9.1-2.6-12.4-6c-3.1-3.5-4.7-8-4.7-12.7v-8.7H51v8.4c0,2.5,1.5,4.7,3.8,5.6c2.4,0.9,5.8,0.4,7.3-1.8
	c1.2-2.3,1.5-4.9,0.7-7.3c-1.1-3.6-3.8-6.4-6.5-8.9c-5.1-4.9-10.7-9.1-14.7-14.9c-3.2-4.3-4.8-9.6-4.4-14.9
	C37.5,69.4,39.9,63.4,44.6,59.6L44.6,59.6z"/>
<path class="st0" d="M343.3,55.2h19.3V83c-1.3,9.8-2.7,19.3-3.8,29.1h-11.8c-1.3-9.6-2.5-18.9-3.8-28.4c-0.1-1.3-0.1-2.5,0-3.8V55.2
	z"/>
<path class="st0" d="M159.2,56.5h15.3v20.9c1.2-2.7,3.3-4.9,6-6.2c4-1.6,9.1-1.1,12.4,1.8c3.6,2.9,4.9,7.8,4.9,12.2v35.3
	c0,4.4-1.1,9.1-4.2,12.4c-3.6,3.8-9.8,4.4-14.4,2.4c-2.7-1.2-5-3.2-6.4-5.8c-0.4,2-0.9,4-1.3,5.8h-12.2V56.5z M177,82.7
	c-1.7,0.8-2.8,2.6-2.7,4.4v31.8c-0.1,1.5,0.3,3,1.3,4.2c1.2,1.3,3.2,1.6,4.7,0.7c1.5-1,2.3-2.7,2.2-4.4V87.8
	c0.1-1.6-0.5-3.2-1.6-4.4C179.9,82.5,178.4,82.3,177,82.7z"/>
<path class="st0" d="M204.3,56.5h15.6v34.2h11.1V56.5h15.8v79.1h-15.8v-31.3h-11.1v31.3h-15.6V56.5z"/>
<path class="st0" d="M299.1,56.5h15.3v20.9c1.3-2.7,3.1-4.9,5.8-6c4.1-1.6,8.7-1,12.2,1.6c2.4,1.8,3.8,4.7,4.7,7.6
	c0.9,3.3,0.7,6.9,0.7,10.4v31.3c-0.2,4.9-2,10.2-6.2,12.9c-4.5,2.6-10.1,2.5-14.4-0.4c-1.7-1.2-3.2-2.8-4.2-4.7
	c-0.5,2-0.9,4-1.3,5.8h-12.2C299.1,109.2,299.1,82.8,299.1,56.5L299.1,56.5z M317.6,82.7c-2,0.6-3.3,2.6-3.1,4.7v32
	c-0.1,1.8,0.7,3.5,2.2,4.4c1.5,0.9,3.4,0.5,4.5-0.9c1-1.4,1.5-3.2,1.3-4.9V86.7C322.5,84.5,320.2,81.8,317.6,82.7z"/>
<path class="st0" d="M86.6,61.8h14.9v9.3h6.4V83h-6.4v37.8c0,1.3,0.7,2.9,2,3.1c1.5,0.1,3,0.1,4.4,0v11.6h-10c-3.1,0-6-1.4-8-3.8
	c-2.4-2.9-3.1-6.7-3.1-10.2V82.7h-4V71h4C86.5,68.1,86.5,65,86.6,61.8L86.6,61.8z"/>
<path class="st0" d="M113.2,71.2h15.3v48.2c-0.1,1.8,0.7,3.5,2.2,4.4c1.4,0.9,3.2,0.7,4.4-0.4c1.1-1,1.7-2.5,1.6-4V71.2h15.3v64.4
	h-13.8c-0.2-2.7-0.4-5.3-0.7-8.2c-1.3,3.2-3.7,5.8-6.7,7.6c-3.8,2.1-8.4,2.1-12.2,0c-4-2.4-5.6-7.3-5.6-12
	C113.2,122.9,113.2,71.2,113.2,71.2z"/>
<path class="st0" d="M253.6,71.2h15.3v48.2c-0.1,2.1,1.2,4.1,3.1,4.9c1.8,0.5,3.8-0.3,4.7-2c0.6-1.5,0.8-3.1,0.7-4.7V71.2h15.3v64.4
	h-13.8c-0.2-2.7-0.4-5.3-0.7-8.2c-1.6,3.6-4.4,6.6-8,8.2c-3.8,1.6-8.7,1.3-11.8-1.3c-3.3-2.7-4.4-7.1-4.7-11.1
	C253.6,105.8,253.6,88.5,253.6,71.2L253.6,71.2z"/>
<path class="st0" d="M350.9,117.4c5.3-1.3,11.1,2.7,12,8.2c0.8,5.5-3,10.5-8.4,11.3c-5.2,0.7-10.1-2.8-11.1-8
	C342.4,123.7,345.7,118.6,350.9,117.4L350.9,117.4z"/>
</svg>
