<svg id="Layer_1" data-name="Layer 1" xmlns="http://www.w3.org/2000/svg" viewBox="0 0 394 394"><defs><style>.cls-1{fill:none;}.cls-1,.cls-2{fill-rule:evenodd;}.cls-2{fill:#231f20;}</style></defs><title>Motorolalogo</title><polygon class="cls-1" points="-54 -54 448 -54 448 448 -54 448 -54 -54 -54 -54"/><polygon class="cls-2" points="10.09 305.27 19.22 274.18 34.96 274.18 38.93 287.47 50.35 274.12 67.06 274.12 58.37 305.24 45.74 305.28 50.35 289.23 35.7 305.28 29.5 305.28 24.98 288.11 19.89 305.28 10.09 305.27 10.09 305.27"/><polygon class="cls-2" points="121.26 274.12 160.03 274.18 157.7 284.22 144.39 284.22 138.92 305.27 126.65 305.28 131.75 284.31 118.65 284.31 121.26 274.12 121.26 274.12"/><path class="cls-2" d="M225.26,274.17v7.23h0l-1.51,6h13.29s3.23-.56,3.41-3.5a2.09,2.09,0,0,0-2.27-2.43l-12.94,0v-7.26h20s8.57.65,7.73,8.07-8.74,9.77-8.74,9.77-.48.48-.1.76,3.31.83,3.68,3.6-1,4.8-1,5.64.08,2.49,1.13,3.23H235.38a2.44,2.44,0,0,1-2.06-2.68c.19-2.3.29-4.33.29-4.33s-.19-2.42-3.58-2.13l-9.25-.1-2.64,9.27H206.53l8.84-31.1Z"/><polygon class="cls-2" points="313.15 274.17 325.03 274.17 319.27 296.72 338.82 296.72 336.55 305.29 305.04 305.29 313.15 274.17 313.15 274.17"/><polygon class="cls-2" points="376.79 274.15 383.91 305.28 371.56 305.28 370.25 299.89 370.2 299.78 355.24 299.78 355.18 299.83 351.57 305.27 341.11 305.28 362.23 274.15 366.33 283.33 360.2 292.4 360.38 292.47 368.32 292.47 368.46 292.45 366.33 283.33 362.23 274.15 376.79 274.15 376.79 274.15"/><path class="cls-2" d="M94.74,281.07c3.77,0,7.48,1.86,8.07,4.57,1.79,8.65-7.44,12.36-6.36,11.81-5.31,2.64-13.38,1.79-14.33-3.67-.9-5.24,3.15-10.41,6.56-11.64a14.88,14.88,0,0,1,6.06-1.07l0-.09,0-8.06a46,46,0,0,0-7.35.77c-9.31,1.79-21,10.24-19,20.94,1.74,9.05,14,13.9,27.77,11.24,12.9-2.47,21.34-12.41,19.53-21.22-1.75-8.52-11.85-11.73-21-11.73v7l-.07,1.18Z"/><path class="cls-2" d="M184.93,281.07c3.76,0,7.49,1.86,8,4.57,1.82,8.65-7.42,12.36-6.32,11.81-5.32,2.64-13.39,1.79-14.33-3.67-.91-5.24,3.14-10.41,6.55-11.64a14.91,14.91,0,0,1,6.06-1.07l0-.09,0-8.06a46.51,46.51,0,0,0-7.37.77c-9.3,1.79-21,10.24-19,20.94,1.74,9.05,14,13.9,27.77,11.24,12.91-2.47,21.37-12.41,19.55-21.22-1.75-8.52-11.85-11.73-21-11.73v7l-.08,1.18Z"/><path class="cls-2" d="M283,281c3.76.21,7.45,1.95,8,4.66,1.81,8.65-7.43,12.36-6.32,11.81-5.32,2.64-13.39,1.79-14.34-3.67-.91-5.24,3.13-10.41,6.56-11.64,2.8-1,3.89-1.3,6.08-1.16l0-8.06a46.76,46.76,0,0,0-7.37.77c-9.29,1.79-21,10.24-19,20.94,1.74,9.05,14,13.9,27.77,11.24,12.9-2.47,21.36-12.41,19.53-21.22-1.74-8.52-11.84-11.73-21-11.73v7l0,1.09Z"/><path class="cls-2" d="M197.14,55.36a93.72,93.72,0,1,1-93.73,93.71,93.48,93.48,0,0,1,93.73-93.71Zm-.21,113.37-26.22-87-34,111.37h6.37s4.29-19.37,11.24-31c3.8-6.27,9.64-11.41,17.45-11.26,5.51.1,10.27,3.11,16.22,11.42,3.58,5,9.09,17.71,9.09,17.71s5.51-12.7,9.1-17.71c5.93-8.31,10.7-11.32,16.21-11.42,7.8-.15,13.66,5,17.44,11.27,7,11.57,11.24,30.94,11.24,30.94h6.39l-34-111.37-26.22,87-.18.15-.21-.15Z"/></svg>