<?xml version="1.0" encoding="utf-8"?>
<!-- Generator: Adobe Illustrator 15.0.0, SVG Export Plug-In . SVG Version: 6.00 Build 0)  -->
<!DOCTYPE svg PUBLIC "-//W3C//DTD SVG 1.1//EN" "http://www.w3.org/Graphics/SVG/1.1/DTD/svg11.dtd">
<svg version="1.1" id="Layer_1" xmlns="http://www.w3.org/2000/svg" xmlns:xlink="http://www.w3.org/1999/xlink" x="0px" y="0px"
	 width="53.572px" height="52.456px" viewBox="0 2.588 53.572 52.456" enable-background="new 0 2.588 53.572 52.456"
	 xml:space="preserve">
<path fill="#FFFFFF" d="M39.452,2.588H14.121C6.354,2.588,0,8.942,0,16.709v24.214c0,7.767,6.354,14.121,14.121,14.121h25.331
	c7.766,0,14.12-6.354,14.12-14.121V16.709C53.572,8.942,47.218,2.588,39.452,2.588 M48.777,40.572c0,5.377-4.399,9.776-9.776,9.776
	h-24.43c-5.376,0-9.775-4.399-9.775-9.776V17.059c0-5.376,4.399-9.776,9.775-9.776l24.43,0.001c5.377,0,9.776,4.399,9.776,9.775
	V40.572z"/>
<path fill="#FFFFFF" d="M26.783,15.35c-7.439,0-13.469,6.03-13.469,13.469c0,7.438,6.03,13.468,13.469,13.468
	c7.438,0,13.469-6.03,13.469-13.468C40.252,21.38,34.221,15.35,26.783,15.35 M26.783,37.509c-4.8,0-8.69-3.891-8.69-8.689
	c0.001-4.8,3.891-8.69,8.69-8.69s8.689,3.891,8.689,8.69C35.472,33.618,31.583,37.509,26.783,37.509"/>
<path fill="#FFFFFF" d="M44.016,14.626c0,1.68-1.36,3.042-3.041,3.042c-1.68,0-3.041-1.362-3.041-3.042
	c0-1.679,1.361-3.041,3.041-3.041C42.656,11.585,44.016,12.947,44.016,14.626"/>
</svg>
