<svg xmlns="http://www.w3.org/2000/svg" xmlns:xlink="http://www.w3.org/1999/xlink" width="412.18" height="412.18" viewBox="0 0 412.18 412.18">
  <defs>
    <style>
      .a {
        fill: url(#a);
      }

      .b {
        fill: url(#b);
      }

      .c {
        fill: url(#c);
      }

      .d {
        fill: url(#d);
      }

      .e {
        fill: url(#e);
      }

      .f {
        fill: url(#f);
      }

      .g {
        fill: #007dc3;
      }

      .h {
        fill: #231f20;
      }

      .i {
        fill: #a7a9ac;
      }
    </style>
    <linearGradient id="a" x1="13.88" y1="195.26" x2="110.11" y2="262.65" gradientTransform="matrix(0.99, -0.12, -0.12, -0.99, 27.79, 413.4)" gradientUnits="userSpaceOnUse">
      <stop offset="0" stop-color="#b3b3b3"/>
      <stop offset="0.17" stop-color="#d8d8d8"/>
      <stop offset="0.38" stop-color="#fff"/>
      <stop offset="0.68" stop-color="#fff"/>
      <stop offset="1" stop-color="#fff"/>
    </linearGradient>
    <linearGradient id="b" x1="16.59" y1="162.19" x2="61.39" y2="193.55" gradientTransform="matrix(0.99, -0.12, -0.12, -0.99, 27.79, 413.4)" gradientUnits="userSpaceOnUse">
      <stop offset="0" stop-color="#fff"/>
      <stop offset="0.17" stop-color="#f9f9f9"/>
      <stop offset="0.39" stop-color="#e8e8e8"/>
      <stop offset="0.65" stop-color="#ccc"/>
      <stop offset="0.92" stop-color="#a5a5a5"/>
      <stop offset="1" stop-color="#999"/>
    </linearGradient>
    <linearGradient id="c" x1="19.86" y1="157.5" x2="22.84" y2="159.59" gradientTransform="matrix(0.99, -0.12, -0.12, -0.99, 27.79, 413.4)" gradientUnits="userSpaceOnUse">
      <stop offset="0" stop-color="#f2f2f2"/>
      <stop offset="1" stop-color="#ccc"/>
    </linearGradient>
    <linearGradient id="d" x1="50.84" y1="134.66" x2="85.86" y2="209.76" gradientTransform="matrix(0.99, -0.12, -0.12, -0.99, 27.79, 413.4)" gradientUnits="userSpaceOnUse">
      <stop offset="0" stop-color="#fff"/>
      <stop offset="0.17" stop-color="#f9f9f9"/>
      <stop offset="0.39" stop-color="#eaeaea"/>
      <stop offset="0.63" stop-color="#cfcfcf"/>
      <stop offset="0.89" stop-color="#ababab"/>
      <stop offset="1" stop-color="#999"/>
    </linearGradient>
    <linearGradient id="e" x1="50.21" y1="138.86" x2="76.83" y2="157.5" gradientTransform="matrix(0.99, -0.12, -0.12, -0.99, 27.79, 413.4)" gradientUnits="userSpaceOnUse">
      <stop offset="0" stop-color="#e6e6e6"/>
      <stop offset="0.2" stop-color="#ddd"/>
      <stop offset="0.54" stop-color="#c5c5c5"/>
      <stop offset="0.96" stop-color="#9d9d9d"/>
      <stop offset="1" stop-color="#999"/>
    </linearGradient>
    <linearGradient id="f" x1="73.05" y1="168.67" x2="145.54" y2="219.43" gradientTransform="matrix(0.99, -0.12, -0.12, -0.99, 27.79, 413.4)" gradientUnits="userSpaceOnUse">
      <stop offset="0" stop-color="#fff"/>
      <stop offset="0.06" stop-color="#e8e8e8"/>
      <stop offset="0.17" stop-color="#c8c8c8"/>
      <stop offset="0.28" stop-color="#aeaeae"/>
      <stop offset="0.41" stop-color="#999"/>
      <stop offset="0.55" stop-color="#8b8b8b"/>
      <stop offset="0.72" stop-color="#838383"/>
      <stop offset="1" stop-color="gray"/>
    </linearGradient>
  </defs>
  <title>icon-logo-osi</title>
  <path class="a" d="M17.9,218.21a54.78,54.78,0,0,1,18.59-34.08c14-11.93,31.45-18.09,45.11-26.65a164.93,164.93,0,0,0,23.23-17.6l.92.33s-1.11,8-7.72,19.77c-3.42,6.08-10.88,16.63-28.44,23.3l-4,10.32c-7.59,3.18-19.27,6.88-19.27,6.88l-9.39-1.21C29.33,201.13,17.9,218.21,17.9,218.21Z"/>
  <path class="b" d="M63.68,213.42l-18-21.2c-.82,1-43.42,32.18-28.07,49.56,3.06,3.47,14.71,17.16,18,20.86A35.67,35.67,0,0,0,47,271.21c-1.36-1.6-2.86-5.14-2.09-12.88C46.7,239.72,60.19,218.66,63.68,213.42Z"/>
  <path class="c" d="M14.27,233.61a12.16,12.16,0,0,0,3.29,8.19c3.06,3.47,14.71,17.16,18,20.86a33.69,33.69,0,0,0,12.66,9.06Z"/>
  <path class="d" d="M82.73,245.31a26.72,26.72,0,0,1-11.51,2.74c-2.09-13.14,4.49-33.41,7.14-40.84L60,186.21c-2.51,1-5,2.09-7.16,3L45,251.49,66,275.3h.68c10.92.13,23.06-2.94,34.6-9Z"/>
  <path class="e" d="M82.72,245.32c-7.46,3.47-19.83,8.31-34.12,8.48l-3.69-2.31L66,275.31h.69c10.91.13,23-2.93,34.59-9Z"/>
  <path class="f" d="M139.12,171.39C136,167.81,123.9,154,120.61,150.22L68.86,224.36c.1.22,17.74,20.32,17.74,20.32a27.44,27.44,0,0,0,27.46,8.45,34.48,34.48,0,0,0,14.46-8.33C149.88,220.42,155,189.35,139.12,171.39Z"/>
  <path class="g" d="M98.87,155.8c-4.42,8.14-10.87,18.12-26.95,25.33l-3.09,1.35c-2.9,5.67-8.16,18.33-5,31.3C68.17,231.72,84.63,235,95.67,232a34.37,34.37,0,0,0,14.45-8.32c21.37-24.37,26.46-55.44,10.61-73.39a36.35,36.35,0,0,0-15.12-10.19A110.09,110.09,0,0,1,98.87,155.8Z"/>
  <path class="g" d="M26.76,237.13c1.86-18.6,15.34-39.67,18.84-44.91-1.44.67-2.86,1.35-4.26,2.08C23.74,203.4,19.08,216,19.08,216s2.21-10,7-17.45c.78-1.23,5.49-11.26,20.25-20.59,14.18-9,23.6-11.29,38.93-21.63,12.18-8.23,18.26-14.75,19.74-16.42-19.52-6.73-46.49.19-68.21,19.36C8.28,184.47-.38,221.25,17.45,241.45A35.64,35.64,0,0,0,28.85,250C27.49,248.41,26,244.87,26.76,237.13Z"/>
  <path class="g" d="M71,247.9c-6.61-.37-15.14-5.58-18-19.8-2.64-13.08,4.23-34.27,7-41.92-2.52,1-4.83,2-7,2.87-2.78,4.94-15.26,28.52-13.09,49.52,1,9.89,5.42,14,8.41,15.73,10.91.13,22.88-2.92,34.43-9A25.3,25.3,0,0,1,71,247.9Z"/>
  <path class="h" d="M220.48,206c0,12.16-7.13,26-25.94,26C174.91,232,169,217.43,169,206.5c0-13.73,8.49-25.83,25.81-25.83C213.76,180.67,220.48,194.53,220.48,206Zm-36.26.48c0,8.35,3.39,13.38,10.59,13.38,6.11,0,10.39-4.82,10.39-13.86a18.57,18.57,0,0,0-.89-6.32,9.68,9.68,0,0,0-9.5-6.86C189.38,192.77,184.22,196.5,184.22,206.43Z"/>
  <path class="h" d="M230.94,213.83a10.57,10.57,0,0,0,6.65,5.23,21.63,21.63,0,0,0,6.73,1.07c1.22,0,7.2-.14,7.2-3.6,0-.34,0-2.11-2.65-3-1.7-.61-10.53-2.17-12.5-2.65-4.42-1.16-13-3.87-13-14a14.84,14.84,0,0,1,1.36-6.18c3.12-7.06,11.2-9.85,19.83-9.85A32.7,32.7,0,0,1,259,183.94a22.7,22.7,0,0,1,7.06,5.43l-9.51,7.95a9.8,9.8,0,0,0-3.66-3.13,21.91,21.91,0,0,0-8.89-1.76c-2.58,0-5.43.68-5.43,3.12s2.44,2.92,6.58,3.67c10.67,1.84,21.26,3.74,21.26,15.63a15.19,15.19,0,0,1-4.28,10.8c-6,6.18-15.69,6.18-18.34,6.18a39.82,39.82,0,0,1-11.13-1.43,24.79,24.79,0,0,1-13.32-9.1Z"/>
  <path class="h" d="M270.87,182.44h15.22v48H270.87Z"/>
  <path class="i" d="M302.73,216.27c-5.16-1.22-11.48-2.64-11.48-9.3,0-5.84,5-9.51,12.36-9.51,6.11,0,12.63,2.92,13.72,10.46l-5.84.75c-.07-2-.2-3.53-2.31-5.17a10,10,0,0,0-6.18-1.9c-4.21,0-6.32,2.51-6.32,4.69,0,3.06,3.47,4,7.68,5l3.06.74c3.8.89,10.66,2.52,10.66,9.24,0,5.23-4.62,10.12-13.45,10.12-3.6,0-7.34-.74-9.92-2.58a12.22,12.22,0,0,1-4.71-8.68l6.11-1a7.26,7.26,0,0,0,2.38,6.25c1.9,1.63,4.28,1.83,6.45,1.83,4.75,0,7.54-1.83,7.54-5.3,0-3.67-2.79-4.35-6.66-5.09Z"/>
  <path class="i" d="M336.21,231.35c-11.07,0-15.75-8.28-15.75-16.71,0-7.13,3.53-17.25,16-17.25,10.59,0,15.48,8.22,15.42,17C351.77,224.13,346,231.35,336.21,231.35Zm9.37-21.46c-1.22-6.32-5.36-8.15-9-8.15-7.26,0-10.19,5.64-10.19,13,0,6.73,2.79,12.3,9.79,12.3,9,0,9.71-9.38,9.78-12.64A18.46,18.46,0,0,0,345.58,209.89Z"/>
  <path class="i" d="M363.79,198.41h6v4.48h-6V230.4h-5.23V202.89h-5.37v-4.48h5.37l.07-6.52c.06-2.72.2-9.11,8.28-9.11a26.06,26.06,0,0,1,3.94.41v4.21a30.11,30.11,0,0,0-3-.27c-4,0-4.07,3.19-4.07,5.7Z"/>
  <path class="i" d="M383.21,198.41h5.85v4.48h-5.85v18.34c0,3.81,0,5.44,2.31,5.44a13.39,13.39,0,0,0,3.54-.75v4.48a36.81,36.81,0,0,1-5.23.55c-6.25,0-6.25-3.06-6.18-7.27V202.89h-5.1v-4.48h5.1V188.28h5.56Z"/>
  <path class="h" d="M392.93,224.91a5.58,5.58,0,1,1,5.64,5.52h-.05a5.5,5.5,0,0,1-5.59-5.41Zm5.59,4.6a4.59,4.59,0,1,0-4.49-4.69v.09a4.46,4.46,0,0,0,4.3,4.6Zm-1.16-1.38h-1v-6.39h2.42c1.5,0,2.25.56,2.25,1.81a1.66,1.66,0,0,1-1.57,1.75h-.08l1.81,2.8h-1.08l-1.68-2.75h-1.1Zm1.15-3.57c.81,0,1.54-.06,1.54-1,0-.79-.71-.93-1.38-.93h-1.31v2Z"/>
</svg>
