<svg id="Layer_1" data-name="Layer 1" xmlns="http://www.w3.org/2000/svg" viewBox="0 0 162.57 162.57"><defs><style>.cls-1{fill:#fff;}</style></defs><title>icon-logo-fb</title><path class="cls-1" d="M110.88,162.57V96.08h.82c6.18,0,12.36,0,18.54,0,.56,0,.78-.1.87-.74C132.05,88.57,133,81.8,134,75c.05-.34.08-.69.12-1.09H110.91c0-.22-.06-.39-.06-.57,0-3.34-.07-6.69,0-10a24.78,24.78,0,0,1,.69-5,8,8,0,0,1,7.61-6.44c1.89-.16,3.79-.14,5.68-.16,2.88,0,5.76,0,8.64,0h.79V30.52c-1.52-.18-3-.44-4.56-.51-4.3-.19-8.6-.44-12.9-.4a31.53,31.53,0,0,0-14.23,3.22,23,23,0,0,0-11,12.07,37.34,37.34,0,0,0-2.8,13.3c-.16,4.95-.11,9.92-.16,14.88v.82H66.54V96.05H88.61v66.52H15A14.67,14.67,0,0,1,.29,150.66,16.45,16.45,0,0,1,0,147.45Q0,81.29,0,15.12A14.67,14.67,0,0,1,11.91.3,15.56,15.56,0,0,1,15.11,0H147.44a14.71,14.71,0,0,1,14.85,12,15.08,15.08,0,0,1,.27,3q0,66.3,0,132.61a14.68,14.68,0,0,1-11.95,14.71,15.78,15.78,0,0,1-3.07.26q-17.94,0-35.87,0Z"/></svg>