<svg id="Layer_1" data-name="Layer 1" xmlns="http://www.w3.org/2000/svg" viewBox="0 0 80 80"><defs><style>.cls-1{fill:#545454;}.cls-2{fill:#565656;}.cls-3{fill:#fcfcfc;}.cls-4{fill:#f9f9f9;}.cls-5{fill:#5c5c5c;}.cls-6{fill:#5d5d5d;}.cls-7{fill:#fff;}</style></defs><title>icon-why-strategy</title><path class="cls-1" d="M40.12,13.19c-1.71,4.32-1.38,6.57,3.91,4.45,3.08-1.24,3.89,1.12,4.73,3.33s2.58,4.77-.79,6.25c-5.12,2.26-3.94,3.9.16,5.88,3.44,1.67,1.25,4.14.57,6.32-.75,2.39-1.86,4.26-4.86,3-4.64-1.88-5.49,0-3.93,4,1.39,3.63-1.45,4-3.64,5-2.35,1.07-4.61,2.16-6-1.25-2-4.69-3.79-3.88-5.51.18-1.49,3.53-3.86,1.92-6.12,1s-4.88-1.55-3.42-5.12c1.84-4.49.18-5.57-4-3.85-3.07,1.25-4-.82-4.81-3.11s-2.7-4.93,1.11-6.6,4.47-3.43.1-5.28c-3.69-1.55-2.31-4-1.29-6.56s2-4.55,5.34-3.14c3.5,1.49,5.42.7,3.73-3.35-1.5-3.6.49-4.66,3.24-5.73,2.57-1,4.85-2.26,6.44,1.46,2.05,4.8,3.84,2.83,5.3-.47,1.35-3,3.49-2.25,5.63-1.19S41.11,9.66,40.12,13.19Z"/><path class="cls-2" d="M58,70.31c-2.07.87-2,5-5.69,3.29-2.69-1.24-4.85-2.16-3.21-5.74.48-1-.66-1.85-1.67-1.35-3.34,1.67-4.18-.54-5.34-2.93-1.68-3.47,1.69-4,3.2-5.92-2-1.75-4.66-2.85-3-6.7s4.14-2.05,7-2c-.68-2.94-1.67-5.46,2.24-7s4.47,1.3,6.1,3.19c2.09-1.23,2.3-4.91,6.2-3.28,3.72,1.56,3.24,4,2.62,7.28,3.26-1,5.64-1.39,7.08,2.33S72.27,56.05,70,57.67c2.69,1.74,5.17,2.94,3.43,6.78-1.61,3.54-4,2.48-6.88,1.63.45,3.23,1.43,5.79-2.42,7.35S59.74,71.92,58,70.31Z"/><path class="cls-3" d="M37.1,14.36c-.72,6.15-.05,7,6.44,5.93,2.28-.36,2.48.82,3.15,2.16s.47,2.16-.92,3.2c-5.35,4-5.38,5.09-.3,8.72,1.53,1.1,2,1.89,1.17,3.65s-1.48,2.13-3.41,1.8c-5.92-1-7.11.13-6.09,5.77.39,2.13-.13,3-2,3.86-2.14.92-2.55-.52-3.41-1.75-3.14-4.44-5.23-4.45-8.27,0C22.54,49,22.12,50.34,20,49.45c-1.88-.8-2.52-1.63-2.14-3.81,1-5.7-.2-6.86-6-5.85-1.88.33-2.72,0-3.45-1.73s-.47-2.53,1.12-3.67c5-3.59,5-5.19.29-8.45C8.49,25,7.28,24.49,8.27,22.48c.84-1.68,1.34-2.58,3.72-2,5.61,1.25,6.82-.08,5.86-6-.3-1.86.09-2.74,1.76-3.48s2.6-.25,3.68,1.25c3.5,4.86,5,4.86,8.46.05,1-1.43,1.82-2.25,3.63-1.34S37.38,12,37.1,14.36Z"/><path class="cls-4" d="M53.57,44.43c.36.41.87.91,1.3,1.47,2.2,2.91,4.28,2.76,6.21-.25.57-.9,1.21-1.41,2.31-1S64.46,46,64.23,47c-.88,3.63.7,5,4.19,4.48,1-.13,2-.25,2.49.74.72,1.4-.43,1.93-1.35,2.62-2.63,2-2.52,4,.12,5.9.76.55,1.73,1,1.37,2.14-.44,1.45-1.6,1.25-2.77,1.1-3.09-.37-4.79.72-4.17,4.12.2,1.08.77,2.27-.84,2.78-1.11.35-1.69-.3-2.25-1.16-2-3.11-4.13-2.9-6.21-.06-.56.77-1,1.63-2.21,1.24-1.48-.5-1.2-1.51-.94-2.72.68-3.27-.86-4.63-4.06-4.21-1.15.15-2.3.46-2.84-1-.45-1.18.44-1.65,1.22-2.19,3-2.07,2.92-4.12-.07-6.14-.79-.53-1.62-1-1.13-2.22a1.51,1.51,0,0,1,1.76-1.07c4.45.86,6.15-.69,4.89-5.24C51.12,44.94,52.26,44.59,53.57,44.43Z"/><path class="cls-5" d="M27.37,21.77a8.36,8.36,0,0,1,8.53,8,8.51,8.51,0,0,1-8.51,8.69,8.59,8.59,0,0,1-8.27-8.4A8.37,8.37,0,0,1,27.37,21.77Z"/><path class="cls-6" d="M51.66,57.86c.28-3.74,2.12-6.15,5.87-6.33,4-.19,6.5,2.14,6.56,6.08S61.74,64,57.73,63.9C54,63.85,52.07,61.47,51.66,57.86Z"/><path class="cls-7" d="M27.33,35.9c-3.6-.4-5.7-2.47-5.62-5.92s2.23-5.72,5.78-5.71c3.84,0,6,2.51,5.83,6.18C33.16,33.89,30.86,35.79,27.33,35.9Z"/><path class="cls-7" d="M61.7,57.62c-.28,2.27-1.45,3.9-3.92,3.85a3.42,3.42,0,0,1-3.55-3.6c0-2.4,1.35-4,3.8-3.93C60.19,54,61.34,55.46,61.7,57.62Z"/></svg>