<?xml version="1.0" encoding="utf-8"?>
<!-- Generator: Adobe Illustrator 23.0.2, SVG Export Plug-In . SVG Version: 6.00 Build 0)  -->
<svg version="1.1" id="Layer_1" xmlns="http://www.w3.org/2000/svg" xmlns:xlink="http://www.w3.org/1999/xlink" x="0px" y="0px"
	 viewBox="0 0 410 410" style="enable-background:new 0 0 410 410;" xml:space="preserve">
<style type="text/css">
	.st0{fill-rule:evenodd;clip-rule:evenodd;fill:#0064B1;}
</style>
<title>stubhub</title>
<g>
	<path class="st0" d="M375,108.7c8.3-0.7,16.5,2.3,22.4,8.2c5,5.2,7.7,12.1,7.6,19.3c0,3.5-0.7,7.1-0.9,10.7
		c-3.5,40-6.9,80-10.4,120c-0.2,3-0.5,6-1.1,8.9c-3.1,14.1-15.1,24.5-29.6,25.5c-2.7,0.1-5.5,0.1-8.2-0.2
		c-98.6-6.7-197.3-13.3-296.1-19.8c-1-0.1-1.9-0.1-2.9,0c-15.8,6.4-31.3,13.1-47.1,19.6c-1,0.5-2.3,0.3-3.1-0.4
		c-0.6-0.9-0.8-1.9-0.5-2.8c3.6-12.2,6.9-24.7,10.4-36.9c0.1-1,0.1-1.9,0-2.9l-9.3-89.2c-0.4-2.7-0.5-5.5-0.4-8.2
		c0.2-6.9,2.7-13.6,7.1-18.9c5.4-6.6,13.4-10.7,22-11.1C148.2,123.4,261.6,116.1,375,108.7z M35.6,141.6c-4.3,0.2-8.4,1.8-11.8,4.4
		c-4,3.3-6.6,8-7.1,13.1c-0.1,2.7,0.1,5.4,0.4,8c3.1,30.6,6.4,61.1,9.6,91.7c0.1,1.5,0.1,3-0.2,4.4c-2,6.9-4,14-5.8,20.9
		c9.8-4,19.5-8.2,29.3-12.2c1.5-0.8,3.2-1.4,4.9-1.8c1.7-0.1,3.4-0.1,5.1,0c97.3,6.4,194.7,13,292.1,19.6c4.2,0.2,8.4,0.9,12.4,0.2
		c8.8-1.5,15.8-8.3,17.5-17.1c0.4-3.1,0.7-6.4,0.9-9.6c3.5-41.8,7.3-83.5,10.9-125.3c0.5-5.2-1.4-10.3-5.1-14
		c-3.3-3.3-8.2-4.7-12.9-4.4L35.6,141.6z"/>
	<path class="st0" d="M49.6,168.2c4.7-3.8,10.9-4.9,16.7-4.2c5.5,0.5,10.6,3.4,13.8,8c2.2,3.4,3.4,7.3,3.6,11.3v8.3H68.9v-8.9
		c0-1.8-0.8-3.4-2.2-4.4c-2.5-1.7-5.8-1-7.5,1.5c-0.1,0.2-0.2,0.3-0.3,0.5c-1.1,2.2-0.7,4.9-0.2,7.1c1.3,4,4.9,6.9,8,9.6
		c5.1,4.7,10.7,9.1,14.4,15.1c2.6,4.3,3.8,9.2,3.3,14.2c-0.4,6.3-3.6,12.1-8.7,15.8c-4.9,3.6-11.3,4.2-17.3,3.3
		c-4.7-0.5-9.1-2.6-12.4-6c-3.1-3.5-4.7-8-4.7-12.7V218H56v8.4c0,2.5,1.5,4.7,3.8,5.6c2.4,0.9,5.8,0.4,7.3-1.8
		c1.2-2.3,1.5-4.9,0.7-7.3c-1.1-3.6-3.8-6.4-6.5-8.9c-5.1-4.9-10.7-9.1-14.7-14.9c-3.2-4.3-4.8-9.6-4.4-14.9
		C42.5,178,44.9,172,49.6,168.2L49.6,168.2z"/>
	<path class="st0" d="M348.3,163.8h19.3v27.8c-1.3,9.8-2.7,19.3-3.8,29.1H352c-1.3-9.6-2.5-18.9-3.8-28.4c-0.1-1.3-0.1-2.5,0-3.8
		L348.3,163.8L348.3,163.8z"/>
	<path class="st0" d="M164.2,165.1h15.3V186c1.2-2.7,3.3-4.9,6-6.2c4-1.6,9.1-1.1,12.4,1.8c3.6,2.9,4.9,7.8,4.9,12.2v35.3
		c0,4.4-1.1,9.1-4.2,12.4c-3.6,3.8-9.8,4.4-14.4,2.4c-2.7-1.2-5-3.2-6.4-5.8c-0.4,2-0.9,4-1.3,5.8h-12.2v-78.8H164.2z M182,191.3
		c-1.7,0.8-2.8,2.6-2.7,4.4v31.8c-0.1,1.5,0.3,3,1.3,4.2c1.2,1.3,3.2,1.6,4.7,0.7c1.5-1,2.3-2.7,2.2-4.4v-31.6
		c0.1-1.6-0.5-3.2-1.6-4.4C184.9,191.1,183.4,190.9,182,191.3z"/>
	<path class="st0" d="M209.3,165.1h15.6v34.2H236v-34.2h15.8v79.1H236v-31.3h-11.1v31.3h-15.6V165.1z"/>
	<path class="st0" d="M304.1,165.1h15.3V186c1.3-2.7,3.1-4.9,5.8-6c4.1-1.6,8.7-1,12.2,1.6c2.4,1.8,3.8,4.7,4.7,7.6
		c0.9,3.3,0.7,6.9,0.7,10.4v31.3c-0.2,4.9-2,10.2-6.2,12.9c-4.5,2.6-10.1,2.5-14.4-0.4c-1.7-1.2-3.2-2.8-4.2-4.7
		c-0.5,2-0.9,4-1.3,5.8h-12.2C304.1,217.8,304.1,191.4,304.1,165.1L304.1,165.1z M322.6,191.3c-2,0.6-3.3,2.6-3.1,4.7v32
		c-0.1,1.8,0.7,3.5,2.2,4.4s3.4,0.5,4.5-0.9c1-1.4,1.5-3.2,1.3-4.9v-31.3C327.5,193.1,325.2,190.4,322.6,191.3z"/>
	<path class="st0" d="M91.6,170.4h14.9v9.3h6.4v11.9h-6.4v37.8c0,1.3,0.7,2.9,2,3.1c1.5,0.1,3,0.1,4.4,0v11.6h-10
		c-3.1,0-6-1.4-8-3.8c-2.4-2.9-3.1-6.7-3.1-10.2v-38.8h-4v-11.7h4C91.5,176.7,91.5,173.6,91.6,170.4L91.6,170.4z"/>
	<path class="st0" d="M118.2,179.8h15.3V228c-0.1,1.8,0.7,3.5,2.2,4.4c1.4,0.9,3.2,0.7,4.4-0.4c1.1-1,1.7-2.5,1.6-4v-48.2H157v64.4
		h-13.8c-0.2-2.7-0.4-5.3-0.7-8.2c-1.3,3.2-3.7,5.8-6.7,7.6c-3.8,2.1-8.4,2.1-12.2,0c-4-2.4-5.6-7.3-5.6-12
		C118.2,231.5,118.2,179.8,118.2,179.8z"/>
	<path class="st0" d="M258.6,179.8h15.3V228c-0.1,2.1,1.2,4.1,3.1,4.9c1.8,0.5,3.8-0.3,4.7-2c0.6-1.5,0.8-3.1,0.7-4.7v-46.4h15.3
		v64.4h-13.8c-0.2-2.7-0.4-5.3-0.7-8.2c-1.6,3.6-4.4,6.6-8,8.2c-3.8,1.6-8.7,1.3-11.8-1.3c-3.3-2.7-4.4-7.1-4.7-11.1
		C258.6,214.4,258.6,197.1,258.6,179.8L258.6,179.8z"/>
	<path class="st0" d="M355.9,226c5.3-1.3,11.1,2.7,12,8.2c0.8,5.5-3,10.5-8.4,11.3c-5.2,0.7-10.1-2.8-11.1-8
		C347.4,232.3,350.7,227.2,355.9,226L355.9,226z"/>
</g>
</svg>
