<svg id="Layer_1" data-name="Layer 1" xmlns="http://www.w3.org/2000/svg" viewBox="0 0 150 150"><defs><style>.cls-1{fill:#545454;}.cls-2{fill:#565656;}.cls-3{fill:#fcfcfc;}.cls-4{fill:#f9f9f9;}.cls-5{fill:#5c5c5c;}.cls-6{fill:#5d5d5d;}.cls-7{fill:#fff;}</style></defs><title>icon-why-strategy</title><path class="cls-1" d="M74.35,32.59c-2.42,6.14-1.95,9.34,5.56,6.32,4.37-1.75,5.52,1.59,6.72,4.73s3.66,6.78-1.12,8.88c-7.28,3.21-5.6,5.54.22,8.36,4.89,2.36,1.78,5.87.81,9-1.07,3.39-2.64,6.05-6.91,4.32-6.58-2.68-7.79,0-5.58,5.73C76,85.06,72,85.61,68.89,87c-3.34,1.53-6.54,3.07-8.58-1.78-2.79-6.66-5.37-5.51-7.82.27-2.12,5-5.49,2.72-8.69,1.42s-6.94-2.2-4.86-7.27c2.61-6.37.26-7.91-5.74-5.47C28.84,76,27.55,73,26.36,69.79c-1.26-3.46-3.83-7,1.58-9.37s6.35-4.88.14-7.5c-5.24-2.2-3.27-5.72-1.82-9.32s2.88-6.46,7.58-4.46c5,2.12,7.69,1,5.3-4.76-2.13-5.12.7-6.62,4.6-8.13,3.64-1.42,6.89-3.22,9.15,2.07,2.91,6.82,5.45,4,7.52-.67,1.91-4.3,5-3.2,8-1.69S75.77,27.58,74.35,32.59Z"/><path class="cls-2" d="M99.81,113.72c-3,1.22-2.87,7.06-8.08,4.66-3.83-1.75-6.89-3.06-4.56-8.14.68-1.48-.94-2.63-2.37-1.92-4.75,2.37-5.94-.77-7.59-4.17-2.38-4.92,2.4-5.7,4.54-8.41-2.91-2.47-6.62-4-4.2-9.5,2.35-5.31,5.89-2.92,9.94-2.77-1-4.18-2.37-7.76,3.18-10S97,75.36,99.34,78c3-1.74,3.26-7,8.8-4.66,5.29,2.21,4.6,5.67,3.73,10.34,4.63-1.47,8-2,10,3.31s-1.9,6.44-5.15,8.73c3.82,2.48,7.34,4.18,4.87,9.63-2.27,5-5.65,3.53-9.76,2.31.63,4.6,2,8.23-3.45,10.45S102.22,116,99.81,113.72Z"/><path class="cls-3" d="M70.07,34.26c-1,8.73-.07,9.86,9.14,8.41,3.25-.51,3.53,1.17,4.48,3.08s.66,3.06-1.3,4.54C74.78,56,74.74,57.51,82,62.68c2.18,1.56,2.78,2.68,1.67,5.17s-2.1,3-4.85,2.57c-8.4-1.44-10.1.18-8.65,8.19.55,3-.18,4.29-2.91,5.47-3,1.32-3.61-.73-4.85-2.47-4.44-6.31-7.42-6.33-11.73,0-1.24,1.83-1.84,3.74-4.82,2.48-2.66-1.14-3.58-2.31-3-5.41,1.42-8.1-.3-9.75-8.56-8.3-2.66.46-3.86,0-4.89-2.47s-.68-3.59,1.58-5.2c7.16-5.1,7.17-7.39.42-12-1.89-1.3-3.62-2.06-2.2-4.91,1.18-2.39,1.9-3.66,5.27-2.91,8,1.79,9.69-.1,8.34-8.55-.43-2.65.12-3.9,2.49-4.95s3.69-.35,5.22,1.77c5,6.91,7.09,6.91,12,.08,1.46-2,2.58-3.19,5.15-1.9S70.46,30.91,70.07,34.26Z"/><path class="cls-4" d="M93.46,77c.51.57,1.24,1.28,1.85,2.08,3.12,4.13,6.08,3.91,8.82-.36.81-1.27,1.71-2,3.27-1.44,1.73.62,1.52,2,1.2,3.3-1.25,5.16,1,7,5.94,6.37,1.38-.19,2.81-.36,3.54,1,1,2-.6,2.73-1.91,3.72-3.73,2.81-3.58,5.68.16,8.37,1.09.78,2.47,1.38,2,3-.63,2.06-2.28,1.77-4,1.56-4.37-.53-6.8,1-5.91,5.84.29,1.55,1.09,3.23-1.19,3.95-1.58.5-2.41-.42-3.2-1.64-2.86-4.42-5.86-4.12-8.82-.08-.79,1.09-1.46,2.31-3.14,1.75-2.1-.71-1.7-2.13-1.34-3.86,1-4.64-1.22-6.57-5.76-6-1.64.22-3.26.66-4-1.38-.63-1.68.64-2.35,1.74-3.12,4.21-2.94,4.15-5.86-.09-8.72C81.46,90.68,80.28,90,81,88.27a2.15,2.15,0,0,1,2.51-1.5c6.32,1.22,8.73-1,6.94-7.46C90,77.69,91.6,77.19,93.46,77Z"/><path class="cls-5" d="M56.25,44.78A11.86,11.86,0,0,1,68.36,56.2,12.06,12.06,0,0,1,56.28,68.53,12.18,12.18,0,0,1,44.53,56.62,11.9,11.9,0,0,1,56.25,44.78Z"/><path class="cls-6" d="M90.75,96c.39-5.3,3-8.73,8.34-9,5.7-.27,9.22,3,9.31,8.63s-3.34,9-9,8.94C94,104.55,91.33,101.15,90.75,96Z"/><path class="cls-7" d="M56.19,64.84c-5.11-.57-8.1-3.5-8-8.4s3.17-8.13,8.2-8.11c5.46,0,8.52,3.56,8.29,8.78C64.48,62,61.2,64.69,56.19,64.84Z"/><path class="cls-7" d="M105,95.69c-.4,3.23-2,5.55-5.56,5.47a4.86,4.86,0,0,1-5-5.11c0-3.41,1.93-5.63,5.4-5.59C102.86,90.51,104.49,92.63,105,95.69Z"/></svg>