<svg id="Layer_1" data-name="Layer 1" xmlns="http://www.w3.org/2000/svg" viewBox="0 0 150 150"><defs><style>.cls-1{fill:#fff;}.cls-2{stroke:#000;stroke-linecap:round;stroke-miterlimit:10;}</style></defs><title>icon-why-design</title><path d="M39.76,60.92c-1.56-6-3.46-12-4.61-18.18a45.46,45.46,0,0,1-.52-12.65,118.09,118.09,0,0,1,2.95-15.17c.3-1.31,1.22-3.14,2.23-3.44s2.57,1,3.59,1.89C55,23.82,61,37.2,63.46,52.38a15.31,15.31,0,0,0,2.81,6.81V17c0-7,0-7,6.87-7,4,0,8,.29,12-.07,5.06-.47,6.31,1.82,6.22,6.43-.23,10.48-.08,21-.06,31.47,0,1.11.14,2.21.29,4.5,3-5.24,5.54-9.42,7.82-13.74a4.83,4.83,0,0,0,0-3.31c-1.48-5,0-9.32,3.54-12.77,4.07-3.92,8.43-7.54,12.75-11.2,2.41-2,4.44-1.61,5,1.66a192.7,192.7,0,0,1,2.7,19.22c.17,2.37-.9,6-2.65,7.11-5.59,3.47-5.49,8.9-6.36,14.17-.41,2.46-1,4.88-1.38,6.57,2.07,3,4.26,5.23,5.31,7.94.57,1.46-.21,4.53-1.43,5.39-3.71,2.61-3.26,6.11-3.25,9.71,0,13.66,0,27.32,0,41,0,8.82-5.13,13.89-14,13.92q-23.49.09-47,0c-8.71,0-14-5.22-14-14-.1-14.65,0-29.31-.06-44,0-1.42,0-3.16-.81-4.22C32.25,68.14,32.41,66.2,39.76,60.92ZM43.67,76.8c0,16.55-.14,32.51.08,48.47.07,5.07,3.26,7.66,8.62,7.69q23.75.14,47.48,0c6.06,0,8.67-2.81,8.74-9,.09-7.16,0-14.33,0-21.49V76.8ZM86.1,57c-2.77-1.26-6.59-2-6.72-3.23C78.81,48.77,84,52.17,86,50V46.18a8.45,8.45,0,0,1-2.57-.38C81.9,45,80.47,44,79,43c1.46-.74,2.88-2,4.39-2.11,4-.32,2.9-2.54,2.43-4.77a7.92,7.92,0,0,1-1.71-.32C82.37,35,80.67,34.09,79,33.2a27,27,0,0,0,4.69-2.44,17.19,17.19,0,0,0,2.73-3.22l-7.46-4.17,7-3.93V15.36H71.59V61H86.1ZM54.38,37.6l-14.5,3.7c1.47,5.67,2.93,11.6,4.61,17.47.29,1,1.49,2.48,2.34,2.53,4.41.26,8.84.12,13.74.12C58.35,52.86,56.31,45,54.38,37.6ZM76,66.51h0c-11,0-22-.09-33,.12-1.35,0-2.67,1.66-4,2.55,1.3.76,2.56,1.61,3.92,2.24a5,5,0,0,0,2,.06q31.24,0,62.5,0a11.43,11.43,0,0,0,3.94-.34,3.72,3.72,0,0,0,1.93-2.36c.11-.51-1-1.69-1.81-1.9a16.89,16.89,0,0,0-4.45-.36Q91.51,66.49,76,66.51Zm41-48.62-2.43-1.57c-3,3.66-6.65,7-8.91,11.13-1.23,2.24-1.21,6.4.13,8.48,1.17,1.8,5.49,3.19,7.5,2.41,2.29-.9,4.77-4.29,5-6.81C118.7,27.07,117.5,22.45,117,17.89ZM103.21,41.65,93,61.47c4.63,0,8.27.19,11.86-.11a4.11,4.11,0,0,0,3-2.37c1.17-4.79,1.94-9.68,2.83-14.42ZM51.85,31,41.77,19.18c-1.13,5.89-2,10.58-3,15.4C44.09,36.23,48.19,35.27,51.85,31Z"/><path class="cls-1" d="M43.67,76.8h64.94v25.64c0,7.16.07,14.33,0,21.49-.07,6.22-2.68,9-8.74,9q-23.73.15-47.48,0c-5.36,0-8.55-2.62-8.62-7.69C43.53,109.31,43.67,93.35,43.67,76.8Zm9.93,33c0-4.81.17-9.62-.11-14.42-.08-1.21-1.59-2.33-2.44-3.5-.8,1.09-2.29,2.16-2.31,3.26q-.27,14.66,0,29.34c0,1.12,1.51,2.23,2.32,3.34.84-1.2,2.34-2.36,2.42-3.6C53.77,119.41,53.6,114.59,53.6,109.78Z"/><path class="cls-1" d="M86.1,57v4H71.59V15.36H86v4.08l-7,3.93,7.46,4.17a17.19,17.19,0,0,1-2.73,3.22A27,27,0,0,1,79,33.2c1.71.89,3.41,1.8,5.14,2.64a7.92,7.92,0,0,0,1.71.32c.47,2.23,1.57,4.45-2.43,4.77C81.87,41.05,80.45,42.3,79,43c1.48.93,2.91,2,4.45,2.76a8.45,8.45,0,0,0,2.57.38V50c-2,2.22-7.2-1.18-6.63,3.85C79.51,55,83.33,55.77,86.1,57Z"/><path class="cls-1" d="M54.38,37.6c1.93,7.43,4,15.26,6.19,23.82-4.9,0-9.33.14-13.74-.12-.85,0-2-1.5-2.34-2.53C42.81,52.9,41.35,47,39.88,41.3Z"/><path class="cls-1" d="M76,66.51q15.5,0,31,0a16.89,16.89,0,0,1,4.45.36c.77.21,1.92,1.39,1.81,1.9a3.72,3.72,0,0,1-1.93,2.36,11.43,11.43,0,0,1-3.94.34q-31.26,0-62.5,0a5,5,0,0,1-2-.06C41.55,70.8,40.29,70,39,69.19c1.34-.89,2.66-2.52,4-2.55,11-.21,22-.12,33-.12Z"/><path class="cls-1" d="M117,17.89c.52,4.56,1.72,9.18,1.3,13.64-.24,2.52-2.72,5.91-5,6.81-2,.78-6.33-.61-7.5-2.41-1.34-2.08-1.36-6.24-.13-8.48,2.26-4.11,5.87-7.47,8.91-11.13Z"/><path class="cls-1" d="M103.21,41.65l7.54,2.92c-.89,4.74-1.66,9.63-2.83,14.42a4.11,4.11,0,0,1-3,2.37c-3.59.3-7.23.11-11.86.11Z"/><path class="cls-1" d="M51.85,31c-3.66,4.26-7.76,5.22-13,3.57.93-4.82,1.83-9.51,3-15.4Z"/><path class="cls-2" d="M50.84,102.71l16.79-8.22v3.56l-12.31,5.74v.07l12.31,5.7v3.53l-16.79-8.21Z"/><path class="cls-2" d="M69.69,114.49l8.19-25.25h3l-8.22,25.25Z"/><path class="cls-2" d="M101.5,105.33l-16.79,7.76v-3.46l13.43-5.8v-.07L84.71,98V94.49l16.79,7.76Z"/></svg>