<?xml version="1.0" encoding="utf-8"?>
<!-- Generator: Adobe Illustrator 23.0.2, SVG Export Plug-In . SVG Version: 6.00 Build 0)  -->
<svg version="1.1" id="Layer_1" xmlns="http://www.w3.org/2000/svg" xmlns:xlink="http://www.w3.org/1999/xlink" x="0px" y="0px"
	 viewBox="0 0 53.6 52.5" style="enable-background:new 0 0 53.6 52.5;" xml:space="preserve">
<style type="text/css">
	.st0{stroke:#FFFFFF;stroke-miterlimit:10;}
</style>
<path class="st0" d="M39.5,0H14.1C6.4,0,0,6.4,0,14.1v24.2c0,7.8,6.4,14.1,14.1,14.1h25.3c7.8,0,14.1-6.4,14.1-14.1V14.1
	C53.6,6.4,47.2,0,39.5,0 M48.8,38c0,5.4-4.4,9.8-9.8,9.8H14.6c-5.4,0-9.8-4.4-9.8-9.8V14.5c0-5.4,4.4-9.8,9.8-9.8l24.4,0
	c5.4,0,9.8,4.4,9.8,9.8V38z"/>
<path class="st0" d="M26.8,12.8c-7.4,0-13.5,6-13.5,13.5c0,7.4,6,13.5,13.5,13.5c7.4,0,13.5-6,13.5-13.5
	C40.3,18.8,34.2,12.8,26.8,12.8 M26.8,34.9c-4.8,0-8.7-3.9-8.7-8.7c0-4.8,3.9-8.7,8.7-8.7s8.7,3.9,8.7,8.7
	C35.5,31,31.6,34.9,26.8,34.9"/>
<path class="st0" d="M44,12c0,1.7-1.4,3-3,3c-1.7,0-3-1.4-3-3c0-1.7,1.4-3,3-3C42.7,9,44,10.4,44,12"/>
</svg>
