<svg id="Layer_1" data-name="Layer 1" xmlns="http://www.w3.org/2000/svg" height="101px" width="58px" viewBox="0 0 400 246"><defs><style>.cls-1{fill:none;}.cls-1,.cls-2{fill-rule:evenodd;}.cls-2{fill:#231f20;}</style></defs><title>Pfizerlogo</title><polygon class="cls-1" points="-0.38 -77 399.62 -77 399.62 323 -0.38 323 -0.38 -77 -0.38 -77"/><path class="cls-2" d="M199.62,10C92.42,10,5.5,60.62,5.5,123c0,39.21,34.34,73.76,86.48,94h0l40.29-141.1h0c3.87-13.41,17.88-41.43,48.28-42.62,8.34-.59,25,5.37,25,21.76,0,6.28-5.48,11.38-12.23,11.38s-12.22-5.1-12.22-11.38,5.47-11.38,12.22-11.38c-2.08-2.63-8.34-6.21-12.81-6.21s-14.9,1.79-21.46,24.14h0L148.66,97.37h39l-16.69,59H150.3l14.75-51.86H146.72L112.61,224h0a311.93,311.93,0,0,0,87,12c107.21,0,194.12-50.58,194.12-113S306.83,10,199.62,10Zm-83.9,92.64c-6.86,25.93-30.4,25.63-38.15,25.63H62.37l-8.34,28H31.67L54.62,75.86H43.3l1.79-6H92.47c26.23,0,26.53,18.78,23.25,32.78ZM231.54,156.4H183l34.57-51.86h-20l2.08-7.15h48.88L214,149.25h19.67l-2.09,7.15Zm78.1-28H268.22c-3,9.54-4.77,21.76,3.28,22.05s12.51-7.74,15.2-15.79H307c-6.55,21.76-25,23.84-36.66,23.25-24.73-1.49-28-17-22.65-33.68C254.51,102.15,269.11,94.4,287,94.4c25.93.6,25.93,22.06,22.65,34Zm60.73-10.88a11.21,11.21,0,0,1-11.17-12.22c-4.32.9-10.89,9.69-12.08,14.16h0l-10.73,37H313.74l14.9-51.86H319.7l2.09-7.16h31.59l-2.68,9.54h0c6.55-8.64,15.79-10.88,19.67-11,6.17,0,11.17,4.26,11.17,10.43a11.18,11.18,0,0,1-11.17,11.17Zm-100.05,4.85c2.08-6.56,5.07-21.46,15.5-21.46s5.06,15.79,3.57,21.46H270.32ZM77.6,75.79h9.24c7.15.3,10.13,6.86,6.25,23.84s-12.81,22.65-19.67,22.65H64.18L77.6,75.79Z"/></svg>