<svg id="Layer_1" data-name="Layer 1" xmlns="http://www.w3.org/2000/svg" viewBox="0 0 500 500"><defs><style>.cls-1{fill:#025da8;}.cls-2{fill:#4187c3;}.cls-3{fill:#a5ccee;}.cls-4{fill:#025da9;}.cls-5{fill:#010101;}.cls-6{fill:#035da6;}.cls-7{fill:#17588a;}.cls-8{fill:#fcfcfc;}.cls-9{fill:#fefefe;}.cls-10{fill:#fbfdfd;}</style></defs><title>icon-logo-intestorforce</title><g id="NynqcL"><path class="cls-1" d="M166.15,304.08c-.08-1.56.57-2,2.19-2,20.57-.62,40.88-3,60.52-9.48,10.93-3.63,21.24-8.48,30-16.17a37.68,37.68,0,0,0,10.47-14c4.16-10.27,2.16-19.72-4.24-28.41-6.17-8.36-14.53-14-23.72-18.46-13.06-6.4-27-10-41.28-12.24a245.11,245.11,0,0,0-32.58-2.8c-.84,0-1.89.36-1.86-1.24s1-1.1,1.77-1.1c27.61.17,55.12,1.68,82.34,6.72,15.83,2.93,31.36,6.92,46,13.9,7.07,3.38,13.72,7.41,19.27,13.06,10.55,10.77,10.84,23.38.77,34.64-6.48,7.23-14.6,12.14-23.25,16.26-15.08,7.2-31.08,11.47-47.41,14.63-19.91,3.85-40,5.63-60.28,6.4-2.37.32-4.75.06-7.13.15-3.58.12-7.18-.26-10.76.2Z"/><path d="M487.72,256c-.37,1.32-1.29,1.56-2.57,1.55-6.48,0-13,0-19.44-.07-1.74,0-2,.59-1.67,2.05.22.89.31,1.82.55,2.71,1.78,6.4,7.43,9.27,14,7.13a19.83,19.83,0,0,0,4.43-2.18c1.87-1.2,2.51.45,3.43,1.5,1.1,1.26-.25,1.68-.83,2.1a18.13,18.13,0,0,1-18.18,2.49c-6-2.35-8.46-7.44-9.15-13.54a20.53,20.53,0,0,1,1.31-10.51c2.67-6.27,8.73-9.54,16.18-8.76,6,.63,10.2,4.8,11.53,11.56.06.3,0,.68.4.8Z"/><path class="cls-2" d="M166.94,304.08c1.49-.8,3.1-.3,4.64-.36,2-.09,4.1,0,6.15,0,.09.13.08.24-.07.32Z"/><path class="cls-3" d="M177.66,304.08a1.3,1.3,0,0,1,.07-.33l7.1,0c0,.12,0,.23,0,.35Z"/><path class="cls-1" d="M218.5,258c0,9.46-5.27,16.17-13.61,17.19-16.43,2-22.23-11.79-18.73-23.55,2.28-7.66,9.52-11.91,17.86-10.83,8.75,1.15,14,6.78,14.48,15.6C218.53,256.91,218.5,257.44,218.5,258Z"/><path class="cls-1" d="M116,259.09c-3,0-6.09.07-9.12,0-1.43-.05-1.63.5-1.46,1.74.83,6.25,5.92,9.6,12.1,7.92a26.54,26.54,0,0,0,4.86-2.2c1.55-.78,5.25,1.69,5,3.34-.07.44-.58.87-1,1.21-3.9,3.49-8.63,4.56-13.63,4.26-10.61-.65-17-9.22-15.51-20.4,1.44-10.52,10.65-16.52,20.83-13.6,8.19,2.35,10.31,10.34,9.77,16-.15,1.48-1.13,1.77-2.38,1.76Z"/><path class="cls-4" d="M36.38,244.4c.79,1.18,1.21,0,1.63-.32a13.44,13.44,0,0,1,11.05-3.26c5,.73,8.29,4.14,9.12,9.34a62.94,62.94,0,0,1,.29,9.51c0,4.5,0,9,0,13.5,0,1.22-.21,1.83-1.63,1.72a30.3,30.3,0,0,0-4.95,0c-1.41.11-1.64-.49-1.63-1.72.05-6.48,0-13,0-19.45,0-3.81-1.13-5.71-3.72-6.46-3-.85-7.58.73-9.12,3.08a3.21,3.21,0,0,0-.24,1.92c0,6.95,0,13.9,0,20.84,0,1.36-.3,1.92-1.73,1.79s-3.17-.09-4.75-.13a1.63,1.63,0,0,1-1.41-1.88q.09-14.69,0-29.35c0-1.45.47-2.13,1.95-2,.19,0,.39,0,.59,0C36,241.69,35,240.89,36.38,244.4Z"/><path class="cls-5" d="M336.66,250.55c0-7.27,0-14.55,0-21.82,0-1.26.25-1.7,1.61-1.69q12.9.11,25.79,0c1.38,0,1.62.47,1.61,1.7,0,3.54,0,3.54-3.46,3.54-5.76,0-11.51.07-17.26,0-1.62,0-2,.49-1.93,2,.1,4.29.08,8.59,0,12.89,0,1.28.32,1.69,1.66,1.67,5.36-.08,10.71,0,16.07-.06,1.32,0,1.65.36,1.63,1.64,0,3.56,0,3.56-3.49,3.56-4.56,0-9.12.07-13.68,0-1.66,0-2.26.26-2.21,2.11.15,5.48,0,11,.09,16.46,0,1.42-.41,1.76-1.78,1.75-4.62,0-4.63,0-4.63-4.62Z"/><path class="cls-1" d="M61.8,241.24c2.39,0,4.63,0,6.87,0A2.21,2.21,0,0,1,70.81,243c2.57,7.48,5.65,14.78,7.78,22.4.51-.16.65-.59.79-1.05,2.06-7,5-13.78,7.35-20.73a3,3,0,0,1,3.52-2.4c1.7.14,4.15-.72,4.93.31s-.82,3.09-1.43,4.65c-3.5,9-7.11,17.93-10.61,26.91a2.32,2.32,0,0,1-2.55,1.81c-5.55,0-5.56,0-7.6-5.12q-5.34-13.44-10.65-26.9C62.15,242.39,62,241.9,61.8,241.24Z"/><path class="cls-1" d="M143.72,275.48a20.75,20.75,0,0,1-10.53-3c-1.24-.75-1.76-1.5-.67-2.73a2.37,2.37,0,0,0,.22-.33c1.68-2.8,2.46-3,5.22-1.42a10.74,10.74,0,0,0,7,1.62,6.21,6.21,0,0,0,2.42-.82,3.36,3.36,0,0,0,.14-5.87,14.09,14.09,0,0,0-3.25-1.43c-2.07-.68-4.16-1.33-6.15-2.2a8.31,8.31,0,0,1-5.47-7.79,9.32,9.32,0,0,1,4.8-8.93c5.17-3.06,13.07-2.45,17.82,1.21.9.7,1.08,1.23.44,2.25-1.93,3.1-2,3.19-5.48,1.65a10,10,0,0,0-6.74-.88c-1.63.43-2.94,1.27-3.12,3.14s1,2.6,2.36,3.3a56.72,56.72,0,0,0,6.33,2.26c6.05,2.24,8,4.83,7.63,10-.38,4.78-3.89,8.43-9.22,9.49C146.11,275.28,144.72,275.36,143.72,275.48Z"/><path class="cls-4" d="M165,257.63c0-3-.05-5.95,0-8.92,0-1.14-.36-1.57-1.47-1.42a6.54,6.54,0,0,1-1,0c-.85,0-1.89.17-2.29-.78a6.38,6.38,0,0,1-.09-3.89c.15-.66,1-.45,1.57-.55,3.67-.66,3.67-.65,4.34-4.35.29-1.56.63-3.11.84-4.68a2.19,2.19,0,0,1,2.51-2.15c3.72,0,3.72-.11,3.73,3.52,0,1.85.07,3.71,0,5.55-.07,1.27.43,1.58,1.6,1.53,2-.08,4,0,5.95,0,.54,0,1.34-.25,1.38.66.06,1.52.05,3,0,4.56,0,.8-.75.57-1.23.58-2,0-4,.07-5.95,0-1.21-.05-1.75.21-1.74,1.6.08,5.55,0,11.1.06,16.65,0,2.84,2,4.18,4.5,2.9,1.87-1,2.67-.34,3.58,1.21,1.91,3.26,1.93,3.32-1.65,4.74a15.48,15.48,0,0,1-4.82,1.05c-6,.36-9.7-3.08-9.8-9.07-.05-2.91,0-5.81,0-8.72Z"/><path d="M399.35,257.6a21.67,21.67,0,0,1-.73,5.89c-2.09,7.48-8.36,11.73-16.39,11.1s-13.55-5.91-14.38-14a23.48,23.48,0,0,1,.8-9.82c2.28-7,8.15-10.77,16-10.34,7.35.4,12.67,4.85,14.21,11.87A26.35,26.35,0,0,1,399.35,257.6Z"/><path class="cls-6" d="M11.37,251.09c0-7.34,0-14.68,0-22,0-1.27.3-1.76,1.64-1.67a38.21,38.21,0,0,0,5.35,0c1.53-.1,2,.33,2,2-.07,13.16,0,26.33-.06,39.49,0,2,.87,4.57-.42,5.68-1.12,1-3.65.3-5.56.34a9.39,9.39,0,0,0-1.19,0c-1.39.2-1.79-.36-1.78-1.75C11.41,265.78,11.37,258.44,11.37,251.09Z"/><path class="cls-1" d="M232.42,246.49c1-1.22,1.81-2.39,2.8-3.4a8.21,8.21,0,0,1,8.19-2.25,1.61,1.61,0,0,1,1.45,2.1,29.48,29.48,0,0,0-.31,3.75c0,1.78-.87,2.2-2.56,2-4.63-.66-7,.69-8.76,4.6a5.86,5.86,0,0,0-.4,2.51c0,5.81,0,11.62,0,17.43,0,1.25-.25,1.78-1.6,1.69a46.57,46.57,0,0,0-5.15,0c-1,0-1.4-.25-1.39-1.32q0-15.56,0-31.11c0-.94.31-1.35,1.25-1.23.07,0,.14,0,.2,0,1.68.21,3.6-.63,5,.51S231.79,244.84,232.42,246.49Z"/><path d="M443.56,240.39a13.23,13.23,0,0,1,8.48,2.73c.7.54,2.57.76,1.25,2.55-1.59,2.14-1.82,2.31-3.75,1.12a11.15,11.15,0,0,0-6-1.86c-4.62,0-7.87,2.18-9.28,6.57a18.45,18.45,0,0,0,.13,12.25,9.41,9.41,0,0,0,14.28,4.79,13.51,13.51,0,0,0,1.44-1c1.25-1.07,2.11-.75,3.13.47s1,2-.27,3a16.35,16.35,0,0,1-16.08,2.72c-5.54-1.91-8.15-6.42-9.16-11.95a22.48,22.48,0,0,1,.25-9.45C429.87,244.64,435.08,240.49,443.56,240.39Z"/><path d="M412.37,247.22c2.1-3.67,4.28-6.51,8.41-6.86.2,0,.39-.05.59-.06,3.75-.2,5.22,2,3.67,5.44-.41.91-1.12.71-1.85.6-5.2-.81-7.71.54-9.95,5.3a6.44,6.44,0,0,0-.62,2.86c0,6,0,12,0,18,0,1.26-.26,1.7-1.61,1.69-4.31,0-4.31,0-4.31-4.31,0-9.05,0-18.09,0-27.14,0-1.4.21-2,1.79-1.9,3.24.11,3.24,0,3.51,3.24C412.08,245,412.21,245.89,412.37,247.22Z"/><path class="cls-7" d="M36.38,244.4c-.13.18-.28.28-.42,0-.44-.79-.11-2.06-1-2.46-1.29-.55-2.74-.2-4.12-.19s-1.24,1.1-1.24,2c0,5.61,0,11.23,0,16.85,0,3.9,0,7.8,0,11.7a2.23,2.23,0,0,0,1.21,2.39c-1.14.3-1.66.05-1.65-1.3q.06-15.46,0-30.91c0-1,.3-1.43,1.34-1.35.85.08,1.71,0,2.57,0C35.76,241.22,36.12,241.56,36.38,244.4Z"/><path class="cls-8" d="M473.37,253.91c-2.64,0-5.28,0-7.92,0-.87,0-1.3-.1-1.15-1.2a9.5,9.5,0,0,1,13.52-7.16,7.7,7.7,0,0,1,3.5,3.63c1.85,3.83,1.32,4.72-2.8,4.72Z"/><path class="cls-9" d="M193.56,258.28a16,16,0,0,1,1.37-7.36c1.47-2.95,4-4.08,7.15-4s5.61,1.26,6.81,4.21a17.88,17.88,0,0,1,0,13.92c-1.25,3-3.88,4.15-7.06,4.11s-5.64-1.31-7-4.29A15.17,15.17,0,0,1,193.56,258.28Z"/><path class="cls-10" d="M113,254.13h-6.33c-.56,0-1.19.15-1.13-.86.2-3.2,3.36-6.37,6.8-6.73,4.14-.43,7.24,1.6,8.1,5.29.51,2.15.38,2.31-1.89,2.31Z"/><path class="cls-9" d="M373.71,257.4a18.12,18.12,0,0,1,.9-6.24,8.7,8.7,0,0,1,8.71-6.19c4.53-.05,7.6,1.86,9,6a19.56,19.56,0,0,1-.22,13.59c-1.48,3.75-4.4,5.39-8.37,5.45s-7-1.51-8.73-5.27A16.82,16.82,0,0,1,373.71,257.4Z"/></g></svg>