<svg id="Layer_1" data-name="Layer 1" xmlns="http://www.w3.org/2000/svg" viewBox="0 0 400 192.78"><defs><style>.cls-1{fill:#0064b1;fill-rule:evenodd;}</style></defs><title>stubhub</title><path class="cls-1" d="M370,.09a28.2,28.2,0,0,1,22.44,8.22A27.23,27.23,0,0,1,400,27.64c0,3.55-.67,7.11-.89,10.66-3.55,40-6.89,80-10.44,120a61.05,61.05,0,0,1-1.11,8.88A32.47,32.47,0,0,1,358,192.69a52,52,0,0,1-8.22-.22q-147.94-10-296.11-19.77a12.7,12.7,0,0,0-2.89,0C35,179.14,19.46,185.8,3.69,192.25a2.74,2.74,0,0,1-3.11-.45,2.82,2.82,0,0,1-.45-2.66C3.69,176.92,7,164.48,10.57,152.26a12.15,12.15,0,0,0,0-2.89L1.24,60.07A50.08,50.08,0,0,1,.8,51.85,31,31,0,0,1,7.91,33a30.43,30.43,0,0,1,22-11.11Q199.84,11.21,370,.09ZM30.57,33a20.85,20.85,0,0,0-11.78,4.44,19.44,19.44,0,0,0-7.11,13.11,48.8,48.8,0,0,0,.45,8c3.11,30.65,6.44,61.09,9.55,91.74a15.06,15.06,0,0,1-.22,4.44c-2,6.89-4,14-5.78,20.89,9.78-4,19.55-8.22,29.33-12.22a18.15,18.15,0,0,1,4.88-1.78,39.6,39.6,0,0,1,5.11,0q146,9.66,292.12,19.55c4.22.22,8.44.89,12.44.22a21.53,21.53,0,0,0,17.55-17.1c.44-3.11.66-6.45.89-9.56,3.55-41.76,7.33-83.52,10.88-125.28a17.28,17.28,0,0,0-5.11-14c-3.33-3.33-8.22-4.66-12.88-4.44L30.57,33Z"/><path class="cls-1" d="M44.56,59.63c4.67-3.78,10.89-4.89,16.66-4.22A18.89,18.89,0,0,1,75,63.4a22.65,22.65,0,0,1,3.56,11.33V83H63.89V74.07a5.49,5.49,0,0,0-2.22-4.45,5.39,5.39,0,0,0-7.78,2c-1.11,2.23-.67,4.89-.22,7.11,1.33,4,4.89,6.89,8,9.55,5.11,4.67,10.66,9.11,14.44,15.11a23,23,0,0,1,3.33,14.22,21.13,21.13,0,0,1-8.67,15.77c-4.88,3.55-11.33,4.22-17.32,3.33a20.56,20.56,0,0,1-12.44-6,19,19,0,0,1-4.67-12.66v-8.66H51v8.44a5.83,5.83,0,0,0,3.78,5.55c2.44.89,5.78.45,7.33-1.77a9.42,9.42,0,0,0,.67-7.34c-1.11-3.55-3.78-6.44-6.45-8.88-5.1-4.89-10.66-9.11-14.66-14.88a22.71,22.71,0,0,1-4.44-14.89c.22-6.22,2.67-12.22,7.33-16Z"/><path class="cls-1" d="M343.34,55.19h19.33V83c-1.33,9.78-2.67,19.33-3.78,29.1H347.12c-1.33-9.55-2.45-18.88-3.78-28.43a21.69,21.69,0,0,1,0-3.78V55.19Z"/><path class="cls-1" d="M159.19,56.52h15.32V77.4a12.62,12.62,0,0,1,6-6.22c4-1.56,9.11-1.11,12.44,1.78,3.56,2.88,4.89,7.77,4.89,12.21v35.32c0,4.45-1.11,9.11-4.22,12.44-3.56,3.78-9.78,4.45-14.44,2.45a13.54,13.54,0,0,1-6.44-5.78c-.45,2-.89,4-1.34,5.78H159.19V56.52ZM177,82.73a4.67,4.67,0,0,0-2.67,4.44v31.77a5.7,5.7,0,0,0,1.33,4.22,3.71,3.71,0,0,0,4.67.67,5,5,0,0,0,2.22-4.45V87.84A6.39,6.39,0,0,0,181,83.4a4.32,4.32,0,0,0-4-.67Z"/><path class="cls-1" d="M204.28,56.52h15.55V90.73h11.11V56.52h15.77V135.6H230.94V104.28H219.83V135.6H204.28V56.52Z"/><path class="cls-1" d="M299.14,56.52h15.32V77.4c1.34-2.67,3.11-4.89,5.78-6A12.65,12.65,0,0,1,332.46,73c2.44,1.77,3.77,4.66,4.66,7.55.89,3.33.67,6.89.67,10.44v31.32c-.22,4.89-2,10.22-6.22,12.89a13.57,13.57,0,0,1-14.44-.45,14.2,14.2,0,0,1-4.22-4.66c-.45,2-.89,4-1.33,5.77H299.36c-.22-26.65-.22-53.09-.22-79.3Zm18.43,26.21a4.38,4.38,0,0,0-3.11,4.67v32a5,5,0,0,0,2.22,4.45,3.4,3.4,0,0,0,4.45-.89,7.42,7.42,0,0,0,1.33-4.89V86.73c0-2.22-2.22-4.89-4.89-4Z"/><path class="cls-1" d="M86.55,61.85h14.88v9.33h6.44V83h-6.44v37.77c0,1.33.67,2.88,2,3.11a29.91,29.91,0,0,0,4.44,0v11.55h-10a10.21,10.21,0,0,1-8-3.78c-2.45-2.89-3.11-6.66-3.11-10.22V82.73h-4V71h4c-.22-2.89-.22-6-.22-9.11Z"/><path class="cls-1" d="M113.2,71.18h15.33v48.2a5,5,0,0,0,2.22,4.45,3.72,3.72,0,0,0,4.45-.45,5,5,0,0,0,1.55-4V71.18h15.33V135.6H138.31c-.23-2.67-.45-5.33-.67-8.22a15.78,15.78,0,0,1-6.67,7.55,12.54,12.54,0,0,1-12.21,0c-4-2.44-5.56-7.33-5.56-12V71.18Z"/><path class="cls-1" d="M253.6,71.18h15.32v48.2a5.13,5.13,0,0,0,3.11,4.89,4,4,0,0,0,4.67-2,10.76,10.76,0,0,0,.67-4.66V71.18h15.32V135.6H278.92c-.22-2.67-.44-5.33-.67-8.22a16,16,0,0,1-8,8.22c-3.78,1.56-8.67,1.33-11.78-1.33-3.33-2.67-4.44-7.11-4.66-11.11-.22-17.33-.22-34.65-.22-52Z"/><path class="cls-1" d="M350.89,117.38c5.34-1.33,11.11,2.67,12,8.22a10,10,0,0,1-8.44,11.33,9.89,9.89,0,0,1-11.11-8,10,10,0,0,1,7.55-11.56Z"/></svg>