<svg id="Layer_1" data-name="Layer 1" xmlns="http://www.w3.org/2000/svg" viewBox="0 0 150 150"><defs><style>.cls-1{fill:#fff;}</style></defs><title>icon-why-design-solutions</title><path d="M62,52.58c-7.27-14.73-6-25.14,3.7-32.64a22.41,22.41,0,0,1,28.54.75c8.81,7.58,9.86,18.8,2.6,31.82,7.24,3.24,14.35,6.69,21.67,9.59a25.28,25.28,0,0,1,12.57,10c2.79,4.33,6.11,8.32,9.24,12.42,2.19,2.86,1.56,4.86-1.66,6.22a3,3,0,0,1-.46.19c-10.29,2-13,8.73-11.17,18.08,2,10.3-2.44,15.55-12.15,18.87-10.82,3.7-21,9.23-31.6,13.62a10.57,10.57,0,0,1-7.35.11c-13.33-5.63-26.47-11.7-39.75-17.44-3-1.32-4.36-3.07-4.25-6.4.2-6-.09-12,.11-18,.11-3-.91-4.61-3.7-5.59s-5.49-2.37-8.24-3.57c-3-1.31-3.58-3.24-1.58-5.89,4.4-5.85,8.7-11.8,13.27-17.52A13.32,13.32,0,0,1,36.67,64C45.08,60.11,53.55,56.37,62,52.58Zm20,84.15c13.34-5.92,25.64-11.33,37.89-16.87a3.62,3.62,0,0,0,2-2.51c.17-6.1.09-12.22.09-19.16-8.36,3.7-16,6.85-23.46,10.49-3.57,1.75-5.69,1.21-7.89-2-3.43-5-7.22-9.73-11.06-14.85C77,95.16,75,97.8,73,100.47c-7.65,10.22-7.64,10.21-19.55,4.93C48.21,103.08,43,100.83,37,98.23c0,6,.2,11-.07,16-.19,3.48.89,5.41,4.25,6.77,7.7,3.12,15.23,6.69,22.84,10,4.06,1.79,8.14,3.52,13,5.6,0-7.62-.18-14.43.12-21.22.07-1.71,1.66-3.37,2.55-5,.78,1.63,2.16,3.24,2.23,4.9C82.15,122,82,128.84,82,136.73Zm13.33-32.24,40.28-17.9L123.67,70.72,83.39,88.63ZM75.57,88.6c-13-5.76-25.49-11.38-38.11-16.81a4,4,0,0,0-3.6,1c-3.54,4.38-6.81,9-10.43,13.84,13,5.75,25.49,11.37,38.11,16.8a4,4,0,0,0,3.6-1C68.68,98.05,72,93.46,75.57,88.6ZM66.23,56.26,40.74,67.62c13,5.78,25,11.14,37,16.39A4.61,4.61,0,0,0,81,84.1c12.17-5.3,24.29-10.72,37.28-16.49L92.79,56.28c-1.39,5-2.56,9.47-3.83,13.87a9.57,9.57,0,0,1-9.57,7.24A9.68,9.68,0,0,1,70,70C68.73,65.54,67.55,61.13,66.23,56.26Zm14.69-5.14,2,2c2.66-.8,5.89-.9,7.89-2.52,7.43-6,8-17.39,1.71-24.51A17.21,17.21,0,0,0,68,24.66a17.47,17.47,0,0,0-1.35,24.63c2.9,3.34,6.07,4.15,11.08,2.21-.86-3.29-1.63-6.51-2.58-9.68C74.55,39.85,73.7,38,73,36l5.82,2.12a9.31,9.31,0,0,0,1.09.24,5.55,5.55,0,0,1,1.46-1.13c1.53-.51,3.11-.85,4.66-1.25a41.37,41.37,0,0,1-1.12,4.71C83.65,44.21,82.25,47.65,80.92,51.12Zm6.46,8.23-1.17-1.72c-3.59,0-7.19-.16-10.75.09-1.13.07-2.19,1.22-3.28,1.88,1.08,1,2,2.63,3.25,2.82a25.93,25.93,0,0,0,8.34,0C85.11,62.16,86.19,60.42,87.38,59.35Zm-2.78,10c-.19-.46-.39-.91-.58-1.37h-9l-.66,1.19c1.67,1.06,3.33,2.94,5,3S82.87,70.37,84.6,69.37Z"/><path d="M40.09,20.46c3.87,1.79,7.66,3.42,11.28,5.35a3,3,0,0,1,.72,2.92,3.07,3.07,0,0,1-2.8,1.15,101.91,101.91,0,0,1-10.78-5c-.65-.35-1-2-.8-3C37.83,21.37,39.15,21,40.09,20.46Z"/><path d="M121.94,21.66c-.39,1.57-.37,2.34-.65,2.47-4.26,2-8.56,3.95-12.91,5.74-.06,0-1-2.14-1.55-3.28,4.46-1.89,8.89-3.84,13.4-5.6C120.77,20.78,121.71,21.56,121.94,21.66Z"/><path d="M109.3,41.62c3.92,1.88,7.81,3.65,11.56,5.65a2.66,2.66,0,0,1,.5,2.57c-.56.72-2,1.47-2.76,1.2a105.7,105.7,0,0,1-10.81-4.84c-.67-.35-1.08-2-.93-2.9C107,42.69,108.28,42.28,109.3,41.62Z"/><path d="M53.08,43.6c-.87,1.31-1.16,2.28-1.77,2.57C47.6,47.93,43.85,49.62,40,51.11A2.63,2.63,0,0,1,37.7,50c-.19-.93.11-2.65.74-3a105.28,105.28,0,0,1,11.28-4.9C50.48,41.87,51.74,43,53.08,43.6Z"/><path class="cls-1" d="M82,136.73c0-7.89.15-14.7-.1-21.49-.07-1.66-1.45-3.27-2.23-4.9-.89,1.68-2.48,3.34-2.55,5-.3,6.79-.12,13.6-.12,21.22-4.83-2.08-8.91-3.81-13-5.6-7.61-3.35-15.14-6.92-22.84-10-3.36-1.36-4.44-3.29-4.25-6.77.27-5,.07-9.94.07-16,6,2.6,11.2,4.85,16.41,7.17,11.91,5.28,11.9,5.29,19.55-4.93,2-2.67,4-5.31,6.55-8.64,3.84,5.12,7.63,9.87,11.06,14.85,2.2,3.21,4.32,3.75,7.89,2,7.43-3.64,15.1-6.79,23.46-10.49,0,6.94.08,13.06-.09,19.16a3.62,3.62,0,0,1-2,2.51C107.64,125.4,95.34,130.81,82,136.73Z"/><path class="cls-1" d="M95.33,104.49,83.39,88.63l40.28-17.91,11.94,15.87Z"/><path class="cls-1" d="M75.57,88.6c-3.62,4.86-6.89,9.45-10.43,13.83a4,4,0,0,1-3.6,1c-12.62-5.43-25.15-11-38.11-16.8,3.62-4.87,6.89-9.46,10.43-13.84a4,4,0,0,1,3.6-1C50.08,77.22,62.61,82.84,75.57,88.6Z"/><path class="cls-1" d="M66.23,56.26C67.55,61.13,68.73,65.54,70,70a9.68,9.68,0,0,0,9.44,7.44A9.57,9.57,0,0,0,89,70.15c1.27-4.4,2.44-8.82,3.83-13.87L118.3,67.61C105.31,73.38,93.19,78.8,81,84.1A4.61,4.61,0,0,1,77.71,84c-12-5.25-24-10.61-37-16.39Z"/><path class="cls-1" d="M80.92,51.12c1.33-3.47,2.73-6.91,4-10.41A41.37,41.37,0,0,0,86,36c-1.55.4-3.13.74-4.66,1.25a5.55,5.55,0,0,0-1.46,1.13,9.31,9.31,0,0,1-1.09-.24L73,36c.73,1.93,1.58,3.83,2.16,5.8,1,3.17,1.72,6.39,2.58,9.68-5,1.94-8.18,1.13-11.08-2.21A17.47,17.47,0,0,1,68,24.66,17.21,17.21,0,0,1,92.56,26.1c6.31,7.12,5.72,18.49-1.71,24.51-2,1.62-5.23,1.72-7.89,2.52Z"/><path class="cls-1" d="M87.38,59.35c-1.19,1.07-2.27,2.81-3.61,3a25.93,25.93,0,0,1-8.34,0c-1.2-.19-2.17-1.84-3.25-2.82,1.09-.66,2.15-1.81,3.28-1.88,3.56-.25,7.16-.09,10.75-.09Z"/><path class="cls-1" d="M84.6,69.37c-1.73,1-3.48,2.8-5.2,2.78s-3.34-1.9-5-3L75.05,68h9C84.21,68.46,84.41,68.91,84.6,69.37Z"/></svg>