<svg id="Layer_1" data-name="Layer 1" xmlns="http://www.w3.org/2000/svg" viewBox="0 0 150 150"><defs><style>.cls-1{stroke:#000;stroke-linecap:round;stroke-miterlimit:10;}.cls-2{fill:#fff;}</style></defs><title>icon-why-design</title><path class="cls-1" d="M56.84,99.91,77.61,89.74v4.41l-15.23,7.1v.08l15.23,7v4.37L56.84,102.59Z"/><path class="cls-1" d="M80.16,114.49,90.28,83.25H94L83.84,114.49Z"/><path class="cls-1" d="M119.5,103.15l-20.77,9.6v-4.28l16.62-7.18v-.09L98.73,94V89.74l20.77,9.6Z"/><g id="_0z8DQD" data-name="0z8DQD"><polygon class="cls-2" points="52.13 62.55 78.71 35.95 91.38 48.51 64.69 75.24 52.13 62.55"/><path d="M78.71,38.07l1.76,1.74,8.79,8.71L77,60.76,64.69,73.11,54.24,62.56,66.49,50.3,78.71,38.07m0-4.23L50,62.55,64.68,77.37,93.51,48.51,78.7,33.84Z"/><path class="cls-2" d="M83.3,30.8l.49-.48c1.21-1.2,2.47-2.44,3.76-3.61a4.88,4.88,0,0,1,3.27-1.26,5.17,5.17,0,0,1,3.5,1.39c2.26,2.08,4.33,4.17,6.16,6.23,2.71,3,1.31,5.67-.33,7.34-1.1,1.12-2.18,2.28-3.22,3.41l-.38.41Z"/><path d="M90.82,27h0a3.63,3.63,0,0,1,2.48,1,84.73,84.73,0,0,1,6.06,6.11c1,1.13,2.07,2.91-.28,5.3-.87.89-1.73,1.8-2.56,2.7L85.42,30.82c1-1,2.07-2,3.13-3A3.41,3.41,0,0,1,90.82,27m0-3a6.34,6.34,0,0,0-4.28,1.65c-1.88,1.7-3.66,3.53-5.36,5.19L96.58,46.4c1.58-1.68,3.07-3.34,4.64-4.93,2.85-2.91,3.09-6.37.38-9.4a87.07,87.07,0,0,0-6.27-6.33A6.61,6.61,0,0,0,90.82,24Z"/><polygon points="48.12 68.11 59.63 79.64 42.8 85.14 48.12 68.11"/><path d="M48.81,70.92l7,7L56.85,79,45.1,82.81l1.53-4.91,2.18-7m-1.38-5.63L40.5,87.47,62.42,80.3l-15-15Z"/></g></svg>