<?xml version="1.0" encoding="utf-8"?>
<!-- Generator: Adobe Illustrator 23.0.2, SVG Export Plug-In . SVG Version: 6.00 Build 0)  -->
<svg version="1.1" id="Layer_1" xmlns="http://www.w3.org/2000/svg" xmlns:xlink="http://www.w3.org/1999/xlink" x="0px" y="0px"
	 viewBox="0 0 281.3 173" style="enable-background:new 0 0 281.3 173;" xml:space="preserve">
<style type="text/css">
	.st0{fill:none;}
	.st1{fill-rule:evenodd;clip-rule:evenodd;fill:#231F20;}
</style>
<title>Pfizerlogo</title>
<polygon class="st0" points="-119.1,-77 280.9,-77 280.9,323 -119.1,323 -119.1,-77 "/>
<path class="st1" d="M144.2,13.2C74.1,13.2,17.3,46.3,17.3,87c0,25.6,22.4,48.2,56.5,61.4l0,0l26.3-92.2l0,0
	c2.5-8.8,11.7-27.1,31.6-27.9c5.5-0.4,16.3,3.5,16.3,14.2c0,4.1-3.6,7.4-8,7.4s-8-3.3-8-7.4s3.6-7.4,8-7.4c-1.4-1.7-5.5-4.1-8.4-4.1
	c-2.9,0-9.7,1.2-14,15.8l0,0l-6.8,23.4h25.5l-10.9,38.6h-13.5l9.6-33.9h-12l-22.3,78.1l0,0c18.5,5.3,37.6,7.9,56.9,7.8
	c70.1,0,126.9-33.1,126.9-73.9S214.2,13.2,144.2,13.2z M89.3,73.7c-4.5,16.9-19.9,16.8-24.9,16.8h-9.9L49,108.8H34.4l15-52.6H42
	l1.2-3.9h31C91.3,52.3,91.5,64.6,89.3,73.7z M165,108.9h-31.7L155.9,75h-13.1l1.4-4.7h31.9l-22.6,33.9h12.9L165,108.9L165,108.9z
	 M216.1,90.6H189c-2,6.2-3.1,14.2,2.1,14.4c5.3,0.2,8.2-5.1,9.9-10.3h13.3c-4.3,14.2-16.3,15.6-24,15.2c-16.2-1-18.3-11.1-14.8-22
	c4.5-14.4,14-19.5,25.7-19.5C218.2,68.7,218.2,82.8,216.1,90.6L216.1,90.6z M255.8,83.5c-4,0-7.3-3.3-7.3-7.3c0-0.2,0-0.4,0-0.7
	c-2.8,0.6-7.1,6.3-7.9,9.3l0,0l-7,24.2h-14.8l9.7-33.9h-5.8l1.4-4.7h20.6l-1.8,6.2l0,0c4.3-5.6,10.3-7.1,12.9-7.2
	c4,0,7.3,2.8,7.3,6.8C263.1,80.2,259.8,83.5,255.8,83.5L255.8,83.5z M190.4,86.6c1.4-4.3,3.3-14,10.1-14c6.8,0,3.3,10.3,2.3,14
	H190.4z M64.4,56.2h6c4.7,0.2,6.6,4.5,4.1,15.6s-8.4,14.8-12.9,14.8h-6L64.4,56.2z"/>
</svg>
