<?xml version="1.0" encoding="utf-8"?>
<!-- Generator: Adobe Illustrator 23.0.2, SVG Export Plug-In . SVG Version: 6.00 Build 0)  -->
<svg version="1.1" id="Layer_1" xmlns="http://www.w3.org/2000/svg" xmlns:xlink="http://www.w3.org/1999/xlink" x="0px" y="0px"
	 viewBox="0 0 316 316" style="enable-background:new 0 0 316 316;" xml:space="preserve">
<style type="text/css">
	.st0{fill-rule:evenodd;clip-rule:evenodd;fill:#238E7A;}
	.st1{fill-rule:evenodd;clip-rule:evenodd;fill:#68737A;}
</style>
<title>SmithKline_Beecham</title>
<path class="st0" d="M164,119.6h8.5c0,0,7.5-0.2,10.1,2.5c3.3,2.9,4,10.8-0.8,13.3c1.2,0.9,6.4,4.8,6,10.3
	c-0.5,5.8-4.2,9.8-10.7,9.8h-19.9v-25.4l-8.2-6l0,0c-1.6-1.3-3.9-1.1-5.2,0.5c-0.1,0.1-0.2,0.3-0.3,0.4c-1.5,3.3,2.1,5.3,2.1,5.3
	l0,0l6.5,4.9l0,0c2.8,2.5,4.2,6.1,4,9.9c-0.2,6.6-4.7,10.4-10.5,10.4h-14.6v-11.7l0,0c0,0,9.3,6.4,11.1,6.8c1.6,0.4,3.2-0.4,3.9-1.9
	c0.6-1.3,0.4-3.2-1.6-4.7c-2.2-2.1-6.9-4.8-8.6-6.1c-1.7-1.3-6.8-4.2-5.2-11.4c1-3.7,4.2-6.4,8-6.8h9.3l16.7,11.9l0,0
	c1.8,1.4,2.9,3.5,2.9,5.8v13.3h3.1c3.2,0,5.9-2.6,5.9-5.8c0,0,0,0,0-0.1c0.4-6-5.5-9.2-5.5-9.2s4.3-2.7,3.4-6.7
	c-0.6-3.2-2.6-4.5-4.2-4.7c-0.8-0.1-1.6-0.1-2.4-0.1C167,122.3,165.7,120.8,164,119.6z"/>
<path class="st0" d="M157.2,119.7h4.1c0,0,7.6,3.9,6.3,8.7C165.7,125.6,158.9,120.9,157.2,119.7L157.2,119.7z"/>
<path class="st0" d="M150.2,119.7h4.4c0,0,9.9,7,10.9,8.1s2.9,2.8,2,5.6c-1.1-1.7-2.6-3.1-4.2-4.3
	C161.9,128.1,150.2,119.7,150.2,119.7L150.2,119.7z"/>
<path class="st1" d="M7.7,175.7c-0.1,0.3-0.1,0.7-0.1,1c0,0.6,0.2,2.6,3.7,2.6c4,0,4.4-2,4.4-2.9c0-2-2.4-2.4-5-3.1
	c-3-0.7-6.2-1.7-6.2-6.1s3-7.5,9.9-7.5c2.5,0,7.9,0.4,7.9,5.5c0,0.5,0,1-0.1,1.4h-4.9c0-0.2,0-0.4,0-0.6c0-1.5-1.5-1.9-3.2-1.9
	c-1.2,0-4,0.2-4,2.4c0,1.4,1.1,1.9,3.8,2.6c5.4,1.3,7.4,2.6,7.4,6.1c0,4.7-3,8.5-10,8.5c-4.4,0-8.9-1.2-8.9-6.3c0-0.6,0-1.1,0.2-1.7
	L7.7,175.7L7.7,175.7z"/>
<path class="st1" d="M30.1,166.6l-0.5,2.4l0,0c2.4-2.9,5-3,5.6-3c2.6,0,3.8,1.4,4,3c2.5-2.6,4.5-3,6.2-3c2.2-0.2,4.1,1.5,4.3,3.7
	c0,0.2,0,0.5,0,0.7c0,0.9-0.1,1.8-0.3,2.7l0,0l-2.1,10h-4.7l2-9.7l0,0c0.1-0.5,0.2-1,0.2-1.5c0-1.2-0.3-2.6-1.8-2.6
	c-2.8,0-3.5,3.3-3.7,4.3l0,0l-2,9.5h-4.7l2-9.7l0,0c0.3-1.5,0.5-4.1-1.6-4.1c-1,0-3,0.6-3.8,4.3l0,0l-2,9.5h-4.7l3.4-16.5H30.1z"/>
<polygon class="st1" points="59.4,166.6 56,183.1 51.3,183.1 54.7,166.6 59.4,166.6 59.4,166.6 "/>
<path class="st1" d="M61.8,166.6h2.9l0.4-2h4.8l-0.4,2h3.4l-0.7,3.3h-3.4l-1.6,7.9l0,0c-0.1,0.4-0.1,0.7-0.2,1.1
	c0,0.8,0.5,1.2,1.7,1.2c0.5,0,1-0.2,1.5-0.3l0,0l-0.7,3.3l0,0c-1.2,0.3-2.4,0.4-3.6,0.4c-3.4,0-3.9-1.6-3.9-3.1
	c0-0.6,0.1-1.2,0.2-1.7l0,0l1.8-8.8h-2.9L61.8,166.6z"/>
<path class="st1" d="M79.8,168.1c1.5-1.4,3.5-2.1,5.5-2.1c2.3-0.2,4.3,1.5,4.4,3.8c0,0.2,0,0.4,0,0.6c0,0.8-0.1,1.6-0.3,2.3l0,0
	l-2.1,10.4h-4.8l2-9.6l0,0c0.1-0.5,0.2-1,0.2-1.5c0.1-1.1-0.7-2.1-1.8-2.2c-0.2,0-0.3,0-0.5,0c-2.9,0-3.6,3.1-3.8,3.9l0,0l-1.9,9.3
	h-4.8l4.7-22.7h4.8C81.3,160.4,79.7,168.1,79.8,168.1z"/>
<polygon class="st1" points="109.5,160.4 116,160.4 105.2,170.4 111.7,183.1 105.8,183.1 99.3,170.3 96.7,183.1 91.5,183.1 
	96.2,160.4 101.3,160.4 99.5,169.4 109.5,160.4 109.5,160.4 "/>
<polygon class="st1" points="123.8,160.4 119.1,183.1 114.4,183.1 119.1,160.4 123.8,160.4 123.8,160.4 "/>
<polygon class="st1" points="131.3,166.6 127.9,183.1 123.2,183.1 126.5,166.6 131.3,166.6 131.3,166.6 "/>
<path class="st1" d="M139.8,168.4L139.8,168.4c1.6-1.6,3.7-2.5,5.9-2.4c2.3-0.2,4.3,1.4,4.5,3.7c0,0.2,0,0.5,0,0.7
	c0,0.8-0.1,1.6-0.3,2.3l0,0l-2.1,10.4h-4.8l1.9-9.5l0,0c0.1-0.5,0.2-1,0.2-1.5c0-0.8-0.2-2.7-2.3-2.7c-0.9,0-2.9,0.3-3.8,4.5l0,0
	l-1.9,9.3h-4.8l3.4-16.5h4.4L139.8,168.4L139.8,168.4z"/>
<path class="st1" d="M192.9,160.4c4.8,0,5.8,2.5,5.8,4.8c0.1,2.9-1.9,5.3-4.7,5.9l0,0v0.1l0,0c2.2,0.4,3.8,2.4,3.6,4.7
	c0,4.2-3.1,7.2-9.8,7.2h-10.6l4.6-22.7H192.9z M185.2,169.2h4.8c1,0,3.1-0.4,3.1-2.5c0-1.2-0.9-1.9-2.3-1.9h-4.6L185.2,169.2
	L185.2,169.2z M183.3,178.6h5.3c1.4,0,3.4-0.6,3.4-2.7c0-1.9-1.2-2.4-3-2.4h-4.7L183.3,178.6L183.3,178.6z"/>
<path class="st1" d="M213.4,178.5c-1,3.4-4.2,5.6-7.7,5.4c-5.9,0-6.7-4.4-6.7-7.2c0-3.8,2-10.5,8.9-10.5c5.7,0,6.7,4,6.7,6.8
	c-0.1,1-0.2,2.1-0.5,3.1h-10.7c-0.1,0.4-0.1,0.9-0.1,1.3c0,2.7,1.6,3.2,2.8,3.2c1.3,0,2.5-0.8,3-2.1H213.4L213.4,178.5z
	 M210.3,173.5c0.1-0.5,0.1-1,0.1-1.4c0.1-1.3-0.9-2.5-2.2-2.6c-0.2,0-0.4,0-0.5,0c-1.1,0-3,0.4-3.8,4L210.3,173.5L210.3,173.5z"/>
<path class="st1" d="M166.3,178.5c-1,3.4-4.2,5.6-7.7,5.4c-5.9,0-6.7-4.4-6.7-7.2c0-3.8,2-10.5,8.9-10.5c5.7,0,6.7,4,6.7,6.8
	c-0.1,1-0.2,2.1-0.5,3.1h-10.7c-0.1,0.4-0.1,0.9-0.1,1.3c0,2.7,1.6,3.2,2.8,3.2c1.3,0,2.5-0.8,3-2.1H166.3L166.3,178.5z
	 M163.2,173.5c0.1-0.5,0.1-1,0.1-1.4c0.1-1.3-0.9-2.5-2.2-2.6c-0.2,0-0.4,0-0.5,0c-1.1,0-3,0.4-3.8,4L163.2,173.5L163.2,173.5z"/>
<path class="st1" d="M229.9,178.5c-1,3.4-4.2,5.6-7.7,5.4c-5.9,0-6.7-4.4-6.7-7.2c0-3.8,2-10.5,8.9-10.5c5.7,0,6.7,4,6.7,6.8
	c-0.1,1-0.2,2.1-0.5,3.1h-10.7c-0.1,0.4-0.1,0.9-0.1,1.3c0,2.7,1.6,3.2,2.8,3.2c1.3,0,2.5-0.8,3-2.1H229.9L229.9,178.5z
	 M226.8,173.5c0.1-0.5,0.1-1,0.1-1.4c0.1-1.3-0.9-2.5-2.2-2.6c-0.2,0-0.4,0-0.5,0c-1.1,0-3,0.4-3.8,4L226.8,173.5L226.8,173.5z"/>
<path class="st1" d="M247.2,177.3c-0.4,1.8-1.9,6.8-7.6,6.8c-4.7,0-6.7-3.2-6.7-7c0-4.2,2-10.7,8.6-10.7c5.2,0,6.3,3.1,6.3,5.5
	c0,0.3,0,0.7,0,1h-4c0-0.2,0-0.4,0-0.6c0-2.4-1.4-2.6-2.3-2.6c-3.1,0-4.3,4.2-4.3,7.3c0,3.6,1.9,3.8,2.7,3.8c1.2,0,2.4-0.7,3-3.5
	L247.2,177.3L247.2,177.3z"/>
<path class="st1" d="M255.9,168.1c1.5-1.4,3.4-2.2,5.5-2.1c2.3-0.2,4.3,1.5,4.4,3.8c0,0.2,0,0.4,0,0.6c0,0.8-0.1,1.6-0.3,2.3l0,0
	l-2.1,10.4h-4.8l2-9.6l0,0c0.1-0.5,0.2-1,0.2-1.5c0.1-1.1-0.7-2.1-1.8-2.2c-0.2,0-0.3,0-0.5,0c-2.9,0-3.6,3.2-3.8,3.9l0,0l-1.9,9.3
	H248l4.7-22.7h4.8L255.9,168.1L255.9,168.1z"/>
<path class="st1" d="M269.4,171.9c1.5-5.9,7.1-5.9,9-5.9c5.3,0,6.4,2.3,6.4,4.4c0,0.6-0.1,1.2-0.3,1.8l0,0l-1.6,7.5l0,0
	c-0.1,0.6-0.2,1.3-0.3,1.9c0,0.9,0.3,1,0.5,1.1l0,0v0.4h-5l-0.1-1.6H278c-1.4,1.5-3.4,2.3-5.5,2.2c-1.7,0-5-0.4-5-4.2
	c0-5.1,5.2-5.7,8-6c2.6-0.4,4.3-0.1,4.3-2.7c0-0.8-0.5-1.6-2-1.6c-1.7-0.2-3.2,1-3.4,2.6L269.4,171.9L269.4,171.9z M279.2,175.2
	c-1.1,0.5-2.2,0.8-3.4,0.9c-1.3,0.2-3.4,0.8-3.4,2.9c0,1.2,1.4,1.4,2.2,1.4c3.4,0,4.2-3.7,4.3-4.1l0,0L279.2,175.2L279.2,175.2z"/>
<path class="st1" d="M293.9,166.6l-0.5,2.4l0,0c2.5-2.9,5-3,5.6-3c2.6,0,3.9,1.4,4,3c2.5-2.6,4.5-3,6.2-3c2.2-0.2,4.1,1.5,4.3,3.7
	c0,0.2,0,0.5,0,0.7c0,0.9-0.1,1.8-0.3,2.7l0,0l-2.1,10h-4.8l2-9.7l0,0c0.1-0.5,0.2-1,0.2-1.5c0-1.2-0.3-2.6-1.9-2.6
	c-2.8,0-3.4,3.3-3.7,4.3l0,0l-2,9.5h-4.8l2-9.7l0,0c0.3-1.5,0.5-4.1-1.6-4.1c-1,0-3,0.6-3.8,4.3l0,0l-2,9.5h-4.8l3.4-16.5H293.9z"/>
</svg>
