<svg id="Layer_1" data-name="Layer 1" xmlns="http://www.w3.org/2000/svg" viewBox="0 0 80 80"><defs><style>.cls-1{fill:#fff;}</style></defs><title>icon-why-design-solutions</title><path d="M32.05,27.59C28.12,19.64,28.8,14,34.05,10a12.09,12.09,0,0,1,15.41.4c4.76,4.09,5.33,10.15,1.41,17.18,3.91,1.75,7.74,3.62,11.7,5.18a13.71,13.71,0,0,1,6.79,5.4c1.5,2.34,3.29,4.5,5,6.71,1.18,1.54.84,2.63-.9,3.36a.77.77,0,0,1-.25.1c-5.56,1.07-7,4.72-6,9.77,1.08,5.56-1.32,8.39-6.56,10.19-5.84,2-11.34,5-17.07,7.35a5.66,5.66,0,0,1-4,.06c-7.2-3-14.29-6.32-21.46-9.42a3.22,3.22,0,0,1-2.3-3.46c.11-3.23-.05-6.48.06-9.71a2.64,2.64,0,0,0-2-3c-1.52-.54-3-1.29-4.44-1.93S7.49,46.39,8.57,45c2.38-3.17,4.7-6.38,7.17-9.47a7.29,7.29,0,0,1,2.63-1.74C22.91,31.66,27.48,29.64,32.05,27.59ZM42.85,73c7.2-3.19,13.84-6.11,20.46-9.1a2,2,0,0,0,1-1.36c.09-3.3,0-6.6,0-10.34-4.52,2-8.66,3.69-12.67,5.66-1.93.94-3.07.65-4.26-1.08-1.85-2.69-3.9-5.25-6-8C40.14,50.59,39.05,52,38,53.45,33.84,59,33.84,59,27.41,56.11c-2.81-1.24-5.64-2.46-8.86-3.86,0,3.25.11,5.94,0,8.62a3.21,3.21,0,0,0,2.3,3.66C25,66.21,29,68.14,33.14,70c2.19,1,4.4,1.9,7,3,0-4.11-.09-7.79.07-11.46,0-.92.9-1.82,1.38-2.72.42.88,1.17,1.74,1.2,2.64C42.93,65.1,42.85,68.78,42.85,73ZM50,55.63,71.8,46l-6.45-8.57L43.6,47.06ZM39.38,47c-7-3.11-13.77-6.14-20.59-9.07a2.12,2.12,0,0,0-1.94.53c-1.91,2.37-3.68,4.85-5.63,7.47,7,3.11,13.76,6.15,20.58,9.08a2.15,2.15,0,0,0,1.94-.54C35.65,52.15,37.42,49.67,39.38,47ZM34.33,29.58,20.57,35.71c7,3.13,13.47,6,20,8.86a2.51,2.51,0,0,0,1.79,0c6.57-2.86,13.11-5.79,20.13-8.9L48.68,29.59c-.76,2.73-1.39,5.12-2.08,7.49A5.15,5.15,0,0,1,41.44,41a5.23,5.23,0,0,1-5.1-4C35.68,34.59,35,32.21,34.33,29.58Zm7.93-2.78,1.11,1.09c1.43-.43,3.17-.49,4.25-1.36a9.34,9.34,0,1,0-12.35-14,9.44,9.44,0,0,0-.72,13.3c1.56,1.81,3.28,2.25,6,1.2-.47-1.78-.88-3.52-1.39-5.23-.32-1.06-.77-2.09-1.17-3.13,1.05.38,2.09.77,3.14,1.14a4.13,4.13,0,0,0,.59.13,3.15,3.15,0,0,1,.79-.61c.82-.27,1.68-.45,2.52-.67a23.5,23.5,0,0,1-.61,2.54C43.73,23.07,43,24.93,42.26,26.8Zm3.49,4.45-.63-.93c-1.94,0-3.88-.09-5.81.05-.61,0-1.18.66-1.76,1,.58.53,1.1,1.42,1.75,1.52a13.87,13.87,0,0,0,4.5,0C44.53,32.77,45.11,31.82,45.75,31.25Zm-1.5,5.41-.31-.74H39.09l-.35.64c.9.58,1.79,1.59,2.7,1.6S43.31,37.2,44.25,36.66Z"/><path d="M20.21,10.25c2.09,1,4.14,1.84,6.1,2.89a1.63,1.63,0,0,1,.38,1.57,1.62,1.62,0,0,1-1.51.62,55.55,55.55,0,0,1-5.82-2.68c-.35-.18-.53-1.09-.43-1.59C19,10.74,19.71,10.54,20.21,10.25Z"/><path d="M64.42,10.89c-.22.85-.2,1.27-.35,1.34-2.31,1.08-4.63,2.13-7,3.1,0,0-.54-1.16-.83-1.77,2.4-1,4.8-2.08,7.23-3C63.78,10.42,64.29,10.84,64.42,10.89Z"/><path d="M57.59,21.67c2.12,1,4.22,2,6.24,3.06a1.41,1.41,0,0,1,.27,1.38c-.3.39-1.11.8-1.49.65a56.32,56.32,0,0,1-5.83-2.61c-.37-.19-.59-1.07-.51-1.57C56.32,22.25,57,22,57.59,21.67Z"/><path d="M27.23,22.74c-.47.71-.63,1.23-1,1.39-2,.95-4,1.86-6.09,2.67a1.42,1.42,0,0,1-1.25-.6c-.11-.51.05-1.43.39-1.6A56.69,56.69,0,0,1,25.42,22C25.82,21.81,26.5,22.41,27.23,22.74Z"/><path class="cls-1" d="M42.85,73c0-4.25.08-7.93-.06-11.6,0-.9-.78-1.76-1.2-2.64-.48.9-1.34,1.8-1.38,2.72-.16,3.67-.07,7.35-.07,11.46-2.6-1.12-4.81-2.06-7-3C29,68.14,25,66.21,20.81,64.53a3.21,3.21,0,0,1-2.3-3.66c.15-2.68,0-5.37,0-8.62,3.22,1.4,6.05,2.62,8.86,3.86C33.84,59,33.84,59,38,53.45c1.08-1.44,2.17-2.86,3.53-4.66,2.08,2.77,4.13,5.33,6,8,1.19,1.73,2.33,2,4.26,1.08,4-2,8.15-3.67,12.67-5.66,0,3.74,0,7,0,10.34a2,2,0,0,1-1,1.36C56.69,66.92,50.05,69.84,42.85,73Z"/><path class="cls-1" d="M50,55.63,43.6,47.06l21.75-9.67L71.8,46Z"/><path class="cls-1" d="M39.38,47c-2,2.63-3.73,5.11-5.64,7.47a2.15,2.15,0,0,1-1.94.54C25,52.12,18.21,49.08,11.22,46c1.95-2.62,3.72-5.1,5.63-7.47A2.12,2.12,0,0,1,18.79,38C25.61,40.9,32.38,43.93,39.38,47Z"/><path class="cls-1" d="M34.33,29.58c.71,2.63,1.35,5,2,7.39a5.23,5.23,0,0,0,5.1,4,5.15,5.15,0,0,0,5.16-3.91c.69-2.37,1.32-4.76,2.08-7.49l13.77,6.12c-7,3.11-13.56,6-20.13,8.9a2.51,2.51,0,0,1-1.79,0c-6.49-2.84-13-5.73-20-8.86Z"/><path class="cls-1" d="M42.26,26.8c.72-1.87,1.47-3.73,2.14-5.62A23.5,23.5,0,0,0,45,18.64c-.84.22-1.7.4-2.52.67a3.15,3.15,0,0,0-.79.61,4.13,4.13,0,0,1-.59-.13c-1-.37-2.09-.76-3.14-1.14.4,1,.85,2.07,1.17,3.13.51,1.71.92,3.45,1.39,5.23-2.7,1-4.42.61-6-1.2a9.44,9.44,0,0,1,.72-13.3,9.34,9.34,0,1,1,12.35,14c-1.08.87-2.82.93-4.25,1.36Z"/><path class="cls-1" d="M45.75,31.25c-.64.57-1.22,1.52-2,1.65a13.87,13.87,0,0,1-4.5,0c-.65-.1-1.17-1-1.75-1.52.58-.35,1.15-1,1.76-1,1.93-.14,3.87-.05,5.81-.05Z"/><path class="cls-1" d="M44.25,36.66c-.94.54-1.88,1.51-2.81,1.5s-1.8-1-2.7-1.6l.35-.64h4.85Z"/></svg>