<?xml version="1.0" encoding="utf-8"?>
<!-- Generator: Adobe Illustrator 23.0.2, SVG Export Plug-In . SVG Version: 6.00 Build 0)  -->
<svg version="1.1" id="Layer_1" xmlns="http://www.w3.org/2000/svg" xmlns:xlink="http://www.w3.org/1999/xlink" x="0px" y="0px"
	 viewBox="0 0 281 281" style="enable-background:new 0 0 281 281;" xml:space="preserve">
<style type="text/css">
	.st0{fill:none;}
	.st1{fill-rule:evenodd;clip-rule:evenodd;fill:#231F20;}
</style>
<title>Pfizerlogo</title>
<polygon class="st0" points="-119.2,-23 280.8,-23 280.8,377 -119.2,377 "/>
<path class="st1" d="M144.1,67.2C74,67.2,17.2,100.3,17.2,141c0,25.6,22.4,48.2,56.5,61.4l0,0l26.3-92.2l0,0
	c2.5-8.8,11.7-27.1,31.6-27.9c5.5-0.4,16.3,3.5,16.3,14.2c0,4.1-3.6,7.4-8,7.4s-8-3.3-8-7.4c0-4.1,3.6-7.4,8-7.4
	c-1.4-1.7-5.5-4.1-8.4-4.1s-9.7,1.2-14,15.8l0,0l-6.8,23.4h25.5l-10.9,38.6h-13.5l9.6-33.9h-12L87.1,207l0,0
	c18.5,5.3,37.6,7.9,56.9,7.8c70.1,0,126.9-33.1,126.9-73.9S214.1,67.2,144.1,67.2z M89.2,127.7c-4.5,16.9-19.9,16.8-24.9,16.8h-9.9
	l-5.5,18.3H34.3l15-52.6h-7.4l1.2-3.9h31C91.2,106.3,91.4,118.6,89.2,127.7z M164.9,162.9h-31.7l22.6-33.9h-13.1l1.4-4.7h31.9
	l-22.6,33.9h12.9L164.9,162.9L164.9,162.9z M216,144.6h-27.1c-2,6.2-3.1,14.2,2.1,14.4c5.3,0.2,8.2-5.1,9.9-10.3h13.3
	c-4.3,14.2-16.3,15.6-24,15.2c-16.2-1-18.3-11.1-14.8-22c4.5-14.4,14-19.5,25.7-19.5C218.1,122.7,218.1,136.8,216,144.6L216,144.6z
	 M255.7,137.5c-4,0-7.3-3.3-7.3-7.3c0-0.2,0-0.4,0-0.7c-2.8,0.6-7.1,6.3-7.9,9.3l0,0l-7,24.2h-14.8l9.7-33.9h-5.8l1.4-4.7h20.6
	l-1.8,6.2l0,0c4.3-5.6,10.3-7.1,12.9-7.2c4,0,7.3,2.8,7.3,6.8C263,134.2,259.6,137.5,255.7,137.5L255.7,137.5z M190.2,140.6
	c1.4-4.3,3.3-14,10.1-14s3.3,10.3,2.3,14H190.2z M64.3,110.2h6c4.7,0.2,6.6,4.5,4.1,15.6s-8.4,14.8-12.9,14.8h-6L64.3,110.2z"/>
</svg>
