<svg id="Layer_1" data-name="Layer 1" xmlns="http://www.w3.org/2000/svg" viewBox="0 0 500 566.96"><defs><style>.cls-1{fill:none;}.cls-2{fill:#97b3bc;}.cls-3{fill:#eebeec;}.cls-4{fill:#f9e0ca;}.cls-5{fill:#030303;}.cls-6{fill:#f9dfca;}.cls-7{fill:#020202;}.cls-8{fill:#020201;}.cls-9{fill:#f8dfc9;}.cls-10{fill:#070707;}.cls-11{fill:#050505;}.cls-12{fill:#080708;}.cls-13{fill:#f2dac6;}.cls-14{fill:#0e0e0d;}.cls-15{fill:#040403;}.cls-16{fill:#181717;}.cls-17{fill:#8b4f30;}.cls-18{fill:#cfb6d5;}.cls-19{fill:#100f0f;}.cls-20{fill:#0e0d0e;}.cls-21{fill:#191818;}.cls-22{fill:#292929;}.cls-23{fill:#939393;}.cls-24{fill:#b3b3b3;}.cls-25{fill:#c9c9c9;}.cls-26{fill:#c2a3c1;}.cls-27{fill:#5e5d5d;}.cls-28{fill:#424242;}.cls-29{fill:#141516;}.cls-30{fill:#0f1011;}.cls-31{fill:#d6d5dc;}.cls-32{fill:#f6f5f6;}.cls-33{fill:#e3bce3;}.cls-34{fill:#151718;}.cls-35{fill:#e7dfe9;}.cls-36{fill:#e3c1e3;}.cls-37{fill:#dddbdf;}.cls-38{fill:#788e95;}.cls-39{fill:#252729;}.cls-40{fill:#f9f8f7;}.cls-41{fill:#47494d;}.cls-42{fill:#d4c6d5;}.cls-43{fill:#caa6cc;}.cls-44{fill:#d6bade;}.cls-45{fill:#d6b5db;}.cls-46{fill:#ddbbe1;}.cls-47{fill:#d1badc;}.cls-48{fill:#d2b4d8;}.cls-49{fill:#3a4347;}.cls-50{fill:#63757b;}.cls-51{fill:#5e6f74;}.cls-52{fill:#fbf9fb;}.cls-53{fill:#c1b7c0;}.cls-54{fill:#131013;}.cls-55{fill:#bc97ba;}.cls-56{fill:#af8bad;}.cls-57{fill:#a785a6;}.cls-58{fill:#ac89ab;}.cls-59{fill:#be98bd;}.cls-60{fill:#ba94b8;}.cls-61{fill:#7a6379;}.cls-62{fill:#b994b8;}.cls-63{fill:#b28eb0;}.cls-64{fill:#a584a4;}.cls-65{fill:#a685a5;}.cls-66{fill:#b591b4;}.cls-67{fill:#fbf8f7;}.cls-68{fill:#f2f1ef;}.cls-69{fill:#bca99a;}.cls-70{fill:#bfb1a4;}.cls-71{fill:#bba999;}.cls-72{fill:#b3a599;}.cls-73{fill:#f1f1f1;}.cls-74{fill:#e9d2bd;}.cls-75{fill:#92a2a6;}.cls-76{fill:#a09f9f;}.cls-77{fill:#6b6c77;}.cls-78{fill:#a686a5;}.cls-79{fill:#d8d8d8;}.cls-80{fill:#edeff1;}.cls-81{fill:#b2b2b2;}.cls-82{fill:#bababa;}.cls-83{fill:#c3b2a3;}.cls-84{fill:#b2a191;}.cls-85{fill:#ccc8c5;}.cls-86{fill:#dac5b1;}.cls-87{fill:#5e5551;}.cls-88{fill:#665264;}.cls-89{fill:#8c4f2f;}.cls-90{fill:#090909;}.cls-91{fill:#e4cdb9;}.cls-92{fill:#e8c9e7;}.cls-93{fill:#141312;}.cls-94{fill:#221f1d;}.cls-95{fill:#2d2926;}.cls-96{fill:#141211;}.cls-97{fill:#c3b7ac;}.cls-98{fill:#bbac9f;}.cls-99{fill:#4c4540;}.cls-100{fill:#3d3734;}.cls-101{fill:#cbb6a4;}.cls-102{fill:#c2af9e;}.cls-103{fill:#b5a394;}.cls-104{fill:#a49587;}.cls-105{fill:#8aa3ab;}.cls-106{fill:#8ca5ad;}.cls-107{fill:#80482a;}.cls-108{fill:#703f25;}.cls-109{fill:#7d482b;}.cls-110{fill:#b2ada8;}.cls-111{fill:#522e1b;}.cls-112{fill:#4d2c1b;}.cls-113{fill:#c1b5ab;}.cls-114{fill:#f6ddc8;}.cls-115{fill:#dfb3de;}.cls-116{fill:#ac8cac;}.cls-117{fill:#8d8b89;}.cls-118{fill:#cab6a5;}.cls-119{fill:#a99ea9;}.cls-120{fill:#838292;}.cls-121{fill:#c9a8c8;}.cls-122{fill:#564554;}.cls-123{fill:#a886a6;}.cls-124{fill:#c9a0c7;}.cls-125{fill:#927590;}.cls-126{fill:#90828f;}.cls-127{fill:#7e647c;}.cls-128{fill:#5d4b5b;}.cls-129{fill:#625061;}.cls-130{fill:#cda5cc;}.cls-131{fill:#fbfbfb;}.cls-132{fill:#dcb3da;}.cls-133{fill:#d5aad4;}.cls-134{fill:#5c5451;}.cls-135{fill:#7f979e;}.cls-136{fill:#343b3e;}.cls-137{fill:#3b4447;}.cls-138{fill:#cecdce;}</style></defs><title>jump-for-joy</title><path class="cls-1" d="M.06,283.48Q.06,143.29,0,3.11C0,.57.57,0,3.11,0Q250,.11,496.89,0c2.54,0,3.11.57,3.11,3.11q-.11,280.37,0,560.75c0,2.53-.57,3.11-3.11,3.1Q250,566.86,3.11,567C.57,567,0,566.39,0,563.86Q.12,423.67.06,283.48Z"/><path class="cls-2" d="M299.91,203.62c1,0,1.12,1.14,1.87,1.47-1.2,2.53-4,2.58-6,3.74-1.6.91-3.48,1.34-4.87,2.65,5.38-1.46,9.92-6,16.13-4.18,2.68,2,6,2.86,8.86,4.56.56.33,1.07-.06,1.57-.28a1.32,1.32,0,0,1,1,.21c5.72,5.58,13.17,8.69,19.38,13.58a1.61,1.61,0,0,1,.64,1.12c0,.54-1.17.61-.83.88,6,4.75,10.93,10.65,17,15.25.24.18.65.09,1,.12,1.59,1,2.29,2.7,3.13,4.23a36.74,36.74,0,0,0,5.46,7.53c1.61,1.72,3,3.58,3,6.11a22,22,0,0,0,3.44,8.27c3.67,6.09,5.22,12.84,6.79,19.57,1,4.33,2.28,8.66,2.62,13.15.09,1.12.39,2.21-.19,3.27-1.33,1-1.89-.28-2.31-1-3.58-6-9.22-10.7-11.31-17.74-.58-1.95-1.26-4.67-4.56-4.18-.58.09-1-.83-1.26-1.45-.77-1.86-1.74-3.65-1.86-5.72-.67-5.73-3.9-10-7.7-13.86,3.3,3.76,6.22,7.8,7.59,12.75a3.75,3.75,0,0,1-1.39,4.21c-2,1.33-2.87-.24-3.75-1.51-3.42-4.89-6.88-9.74-10.1-14.76-4-6.24-8.39-12.2-12.72-18.62,5.81,9.35,11.37,18.45,17.58,27.13,1.7,2.38,3.16,4.92,4.84,7.32.89,1.27,1.73,2.72.1,4.2-1,.88-.4,1.82.06,2.75.95,1.91,2.19,3.69,2.64,5.82a3.61,3.61,0,0,1-.69,2.29c-1.06,1.36-.41,2.62.06,4,1,2.83,2.48,5.55,2.16,8.71-3.82.37-3.84.38-2.1,3.76a15.66,15.66,0,0,1,1.57,4.37c.73,4.06.72,4.06,4.63,3.3a6.63,6.63,0,0,1,1.43,3.38c3.3,13.67,6.65,27.34,5.57,41.6a5.87,5.87,0,0,0,.57,3.83,3.62,3.62,0,0,0,.78-2.83A62.4,62.4,0,0,1,371.47,347a80.75,80.75,0,0,0,0-35.11,5.93,5.93,0,0,1-.13-1.68c.27-1.25.64-2.33,2.23-1.31,3.77,6.48,5.21,13.85,7.91,20.75A64.69,64.69,0,0,1,385,343.81c3.09-2.91,4-.66,4.66,1.58,1,3.21,3.19,6,3.22,9.52,0,4.85,1.4,9.5,1.94,14.27.48,4.26.42,8.49.53,12.74.12,4.58-.36,9.17.61,13.72.66,3.16-.91,6.18-.73,9.32.14,1.33-.92,1.68-1.81,2.1-1.74.83-3.35,1.89-5.08,2.68a80.27,80.27,0,0,0-19.27,12.94c-4,3.49-12.25,4.62-16.9-.48a100.63,100.63,0,0,0-10-9.59,26.32,26.32,0,0,0-18.34-6.48,16.33,16.33,0,0,1-5.33-.75,21.86,21.86,0,0,0-11-.83,8,8,0,0,1-3.7,0,116,116,0,0,0-17.92-3.28,2,2,0,0,1-1.9-1.16c.6-1.64,2.09-.39,3.21-.86-2.26.21-3.85-1-5.47-2-3.7-2.11-7.73-3.44-11.57-5.22a3.71,3.71,0,0,0-2.92-.15c-4.46-3.78-9.4-7.11-12.55-12.22-.84-1.37-1.57-2.75-3.06-3.43-4.42-2-8.92-3.88-13.13-6.35.62.32,1.15.64,1.1,1.47a2.07,2.07,0,0,1-.77.57c-2,.05-3.63,1.27-5.52,1.61-3-5-6-10.06-5.84-16.24.71-6.49,0-12.93-.72-19.36a9.12,9.12,0,0,0-1.31-3.06c-1.26-10.26-4.31-20.17-6.1-30.31a44.17,44.17,0,0,1-.51-14.34c.5-.85,1.4-1.5,1.4-2.63,0-5.6,1.45-11.18.25-16.81a25.28,25.28,0,0,1-.17-3.37c0-.58,1.31-1.92-.71-1.75-1.22-2.81-.81-5.68-.37-8.55,2.29-1.78,2.84-5,1.31-8.84a11.85,11.85,0,0,1-.9-4.24c-.28-4.88,1.34-9.27,3.49-13.52,1-1.89,2.23-3.09,4.6-2.27.31.09.25-.85.12-.42-.07.21-.16.26-.28.16-1.55-1.29-1.54-2.08.06-2.66a3.76,3.76,0,0,1,2.32.07c6.73.89,13.25,4.18,20.31,1.31,2.45-1,5.33-.37,8-.72a17.44,17.44,0,0,0,10.14-4.83,46.65,46.65,0,0,1,4.8-3.69c1.5-1.15,2.87-2.48,4.86-2.83,1.47-.26,2.21-1.49,2.85-2.66,1.46-2.64,3.29-5,4.84-7.64,1.73-2.89,2.33-3,5.18-1.24.19.12.44.38.57.31C294.37,202,297.11,204.27,299.91,203.62Z"/><path class="cls-3" d="M109,219.16a3,3,0,0,0-1.1-3.62l-4.36,5c-1.77,0-2-1.54-2.51-2.69a11.63,11.63,0,0,1-.28-9.18c.74-1.84,2.12-3.49,0-5.32-.48-.42-.18-1.31.09-1.93,1.11-2.48,2.43-4.88,4.85-6.29a16.16,16.16,0,0,0,4.15-3.36,12.06,12.06,0,0,1,9.81-4.29,3,3,0,0,1,2.51,2.35c-.14,1.86-1.4,2.77-3,3.22-4.29,1.22-6.79,4.49-9.2,7.87a8.37,8.37,0,0,0-1.69,3c4.24-4.93,10.22-7.64,14.88-12,2.63.64,1.84-2.09,2.92-3,2.52-2.78,5.75-4.66,8.77-7-.72-.29-1.8.26-2.08-.8-.17-.65.4-1,.84-1.34,7.74-5.58,15.27-11.41,24.93-13.67,4.79-1.13,8.27,1.18,11.42,3.5,2.63,2,5.26,2.66,8.45,3.33-2.07-2.48-4.86-2.77-7.34-3.69-3.89-1.44-7.83-2.77-10-6.7,2.51.66,3.7-2.33,6-2.19.65.53,0,1-.18,1.93a34.54,34.54,0,0,0,5-4.65c3.49-3.74,7.37-6.84,12.39-8.26a8,8,0,0,0,2.46-1.7c.36.24,1,.74,1.05.67,2.23-2.1,5.24-2.42,7.91-3.49,1.69-.34,2.66,1,3.83,1.76,2,1.28,3.74,1.08,4.86-.94,2.2-4,5.25-5.2,9.57-3.69,2,.7,3.53-1.17,5.38-1.52a4.61,4.61,0,0,1,2.87.88c1,2.62-.63,4.76-1.44,7a52.85,52.85,0,0,1-2.78,6.08c-1.31,2.51-2.34,4.81-1.52,7.88.64,2.38-1.57,4.89-.57,7.51.76.75-.55,3,1.88,2.53,1.29-1.23.25-3.17,1.36-4.44,2.35.39,3.47-.58,3.41-3a10.81,10.81,0,0,1,.64-4.31c.89-2.21-.83-1.68-1.85-1.91-1.95-1.47-1.57-3.34-.73-5.16,3-6.5,6.26-13,11.05-18.27,2.42-2.68,5-5,6.23-8.5.14-.4.72-.5,1.18-.52a2.44,2.44,0,0,1,1.9,1.73c.39,1,.89,1.93,2.16,1.64,1.43-.33.9-1.6,1-2.52.06-.44,0-.9,0-1.35,1.2-5.34,2-5.68,10.47-4-1-3.24,1-3.9,3.48-4.29,3.42-.53,6.79-1.32,10.32-.68a9.58,9.58,0,0,0,6.49-1.19c.91-.72,2-1.5,2.81-.12a1.94,1.94,0,0,1-1.16,3c-2.73,1-2.74,3.15-2.42,5.73,3-1.18,3.29-4.79,5.91-6,.48-.06,1.28.43,1.31-.44.09-2.21,1.76-3.26,3.09-4.59,1.29-1,2.91-1.36,4.4-2a106.65,106.65,0,0,0,12-5.43c6.79-3.71,10.06-3.44,15.9,1.45,1.63,1.36,3.79,2.75,4.08,4.76.36,2.49-2.75,2.47-4.21,3.66-3.73,3-7.53,6.09-12.91,5.52-1.33-.14-2.45,1.05-3.68,1.59-2.09.91-4,2.64-6.58,1.34-.9-.45-1.37.51-1.85,1.1a8.66,8.66,0,0,1-3.17,3,1.11,1.11,0,0,1-1.18-.65c-.34-.83-.28-2.41-1.81-1.47s-3.66,1.06-4.41,2.16c-2.66,3.89-7.15,6.66-7.65,11.92-.09,1-2.06,1.57-.54,2.83.55,3,.12,6,.09,9-.06,1.36-1.13,2.15-1.76,3.19-.07,6.26-.67,12.43,1.13,18.72a25.13,25.13,0,0,1,.79,10.91c-.32,1.82-.41,3.51,2.27,3.31a1,1,0,0,1,1.14,1c.11,4.3,2.55,8,2.95,12.27A24.94,24.94,0,0,1,273,211.88c-1.9,0-1.95,1.39-1.95,2.77a2.69,2.69,0,0,1-2.16,1.63c-1.74-.43-2.61.69-3.39,1.95a7.84,7.84,0,0,1-2.32,1.48c-2.1,1.28-4.59-.44-6.69.9a43,43,0,0,1-11.72-.15c-2.12-.24-4.2-.73-6.33-1-4.59-.46-5-1-3.45-5.52,2.88-8.15,7.29-15.63,10.45-23.67.64-1.11,3-1.41,1.65-3.49-.39-2.21.75-4,1.58-6.07a19.38,19.38,0,0,1-2.88,4.05c-2.06.49.59,1.54-.23,2.19a21.5,21.5,0,0,1-2.69,7.19c-1.33,1.19-2.54,2.43-2.32,4.44-1.81,6.27-5.54,11.73-7.49,18-.79,2.56-3.33,2.57-4.89.28a57,57,0,0,0-14.51-14.68,12,12,0,0,1-1.5-1.34c-2.66-2.62-2.71-3.19-.61-6.16a23,23,0,0,1,1.52-3.49c.68-1.91-.56-2.67-2-3.2-3.85-1.41-7.94-2.15-11.4-4.59-1.38-1-2.46-.24-3,1.3-3.49-.95-3.46-4.2-4.46-6.78-1.36-1.17-2.67-.73-4,.07-14.5,8.46-30,14.9-45.13,22.09-9.6,4.55-19.66,8.41-27.69,15.86A10.57,10.57,0,0,1,109,219.16Z"/><path class="cls-4" d="M395.3,408c1.13.54,2.22,1.12,1.77,2.69-1.61.33-1.37,1.46-1.14,2.6a46.18,46.18,0,0,0,3,9.23,39.46,39.46,0,0,1,3.12,10.94c.42,3.39,1.76,6.45,3.05,9.56,1.15,2.77,2.49,5.53,1.93,8.69-1.83,5.53,1.44,14.71,6,16.84,2.81,3.48,3.94,7.79,5.79,11.74,5.73,12.24,10,25.14,16.07,37.22a39.71,39.71,0,0,0,5.49,8.1,17.65,17.65,0,0,0-2-4.54,116,116,0,0,1-6.55-13.34c-.36-.9-1.11-2.11-.15-2.8,1.14-.8,2,.44,2.83,1.13a13.47,13.47,0,0,1,2.27,2.5c1,1.47,2.46,2,4.11,2.65,6.84,2.55,12.85,6.38,17.12,12.51a2.71,2.71,0,0,1,.63,1.55c-.17,4.48-.43,8.94-3.11,12.82-3.85.91-4.28.68-5.18-3.1-3.71,2.79-5.37-.83-7.73-2.4a1.85,1.85,0,0,0-2.31-.28c1.46,1.3,2.31,3.16,4.42,3.58,1.89.92,3.08,2.24,2.59,4.53-.47,2.13-1.72,3.05-3.91,2.66-.42-.07-.2-.34-.28-.08-.71,2.13-1.89,2.66-3.72,1.25a32.52,32.52,0,0,1-3.63-3.51,4.57,4.57,0,0,1-1.24-2c1.09-2.31-1.66-2.19-2.2-3.48-1.4-3.64-3.75-6.81-5.21-10.43-.65-1.61-1.61-3-3.77-2.37a6.64,6.64,0,0,1-3-6c.3-2.7-.87-3.88-2.71-5.06-1-1.22-1.94-2.47-3.79-1.55-5.33-4.28-8-10.07-9.48-16.57,2.57-4.72-.24-8.85-1.73-13a62.79,62.79,0,0,0-6.28-12.7c-2.56-4-5.11-8-8.52-11.32a4.26,4.26,0,0,1-.87-1c-2.68-5.23-6.52-9.66-10-14.37-.07-2.38-1.71-3.38-3.65-4.11-2.83-2.27-4.12-5.54-5.57-8.69-.77-1.66-.16-3.05,1.11-4.21a97.44,97.44,0,0,1,23.62-15.79C393.41,407.7,394.34,407,395.3,408Z"/><path class="cls-5" d="M395.3,408c-6.92,3.35-14.12,6.21-19.81,11.66a32.1,32.1,0,0,1-2.83,2.38c-5.3,4-5.31,4-2.07,9.87a15.83,15.83,0,0,0,3.38,4.54,33,33,0,0,1,3.57,3.91c6.51,8.9,13.32,17.61,19.43,26.77a70.19,70.19,0,0,1,10,24.21c.11.51.41,1.14-.14,1.51-.77.53-.89-1-1.91-.52a32.85,32.85,0,0,0,9.13,17.1c1.32.49,2.88.37,3.91,1.57,2,1.14,4.65,1.48,3.12,5.26-.58,1.43,1.54,4,2.43,6,1.67,4.71,6.19,7.39,8.33,11.77.55,1.86,2.24,2.9,3.21,4.45,2.11,2.43,4,5.19,7.36,6.45.22-1.92-1.77-1.78-1.72-3.15,1.79-.79,4,2.7,5.59-.49,1.09-2.21.51-3.81-1.72-4.84a8.21,8.21,0,0,1-3.2-2.82c-.44-.53-.87-1.15-.28-1.76a1.23,1.23,0,0,1,2,0,33.83,33.83,0,0,1,3.45,3.08c1.34,1.55,1.93.8,2.54-.55.34-.76.91-1.39,1.79-1.09a1.38,1.38,0,0,1,.75,1.7c-1.14,3.93,1.75,2.55,3.49,2.69,2,.09,1.09,1.43,1,2.4-.85,1.32-1.74,2.6-2.52,3.95-1,1.67-1.61,2.8-3.67.72-1.53-1.56-3.56,0-5,1.09-.81.58-1.5,1.82-2.49,1.31-5.12-2.61-12.3-1.29-14.62-9.27-2-6.84-6.42-12.84-8.34-19.87-.58-2.14-2.32-3.28-4.89-2.78-4.46.88-9.58-5-7.8-9.12a3,3,0,0,0-.39-3.24c-2.82-4.78-4.48-9.82-3.32-15.47a7.19,7.19,0,0,0-.47-4,82.81,82.81,0,0,0-15.3-26.05c-3.74-4.27-6.28-9.45-10-13.81s-8.08-8.41-10.18-14.18c-.4-1.09-3.73-2.86-6.21-2.37-3.79.76-6.56-.87-9-3.34-3.75-3.73-7.4-7.57-11.49-10.95a14.41,14.41,0,0,0-5.48-3.26,111.12,111.12,0,0,0-26.22-3.66c-2.71,0-5.38.13-8-.66-6.93-2.1-14.21-2.21-21.27-3.66a39,39,0,0,1-7.33-2.28c-1.89-1.13-4-1.49-6.11-2.07-.45,0-1.06.13-1.32-.1-4-3.56-5.71-.48-7.37,2.6-1,1.78-1.88,3.58-2.81,5.38-1.75,3.39-3.41,6.73-6.49,9.32-3.46,2.9-4.51,7.21-4.86,11.55a80.81,80.81,0,0,1-2.57,13.64c-.38,1.48-1.6,1.19-2.46.91a8,8,0,0,0-5.27-.27c-.21.07-.56.13-.65,0-2.22-2.46-6.86-2.66-7.62-5.84-1.44-6.05-2.68-12.36-.39-18.6.34-.93.39-2.07,1.54-2.46.7-.24.86-.07,2.53,2.34,3-5.77,6.91-10.7,5-17.88-2-7.39-1.32-15.22-2.92-22.74-1-4.6-3.25-8.78-4.17-13.42-1.71-8.7-4-17.27-3.11-26.34.67-7.14-1.43-14.1-3.09-20.95-1-4.17-1.57-8.36-2.34-12.55-2.32-12.59-1-25.1.09-37.64a81.68,81.68,0,0,0-.13-9.77c-.3-9.66,1-19.05,6.56-27.35,1-1.45,2.07-2.77,3.93-2.88,2.17-.12,1.36-1,.69-2a98.57,98.57,0,0,0-17.88-20.77,16,16,0,0,1-4.32-5.78c.07-1.91-1.11-3.29-2-4.79a19.27,19.27,0,0,0-7.67-6c-.14-.81-1.44-1.35-.62-2.37a1.82,1.82,0,0,1,2.47-.28c4.53,2.81,9.73,3.92,14.58,5.9,1.61.66,1.88,2.06.67,3.5-1.81,1.22-3.31,0-5.32-.64,1.86,1.17,3.3,2.29,3.91,4.12a4.81,4.81,0,0,0,.13.66c.6,1.79-2.8.32-1.82,2.12a14.55,14.55,0,0,0,4.1,4.4c5.43,4.17,10.85,8.35,14.05,14.67a1.83,1.83,0,0,0,1.81,1.26,2,2,0,0,0,1.78-1.77c1.71-6.43,5.27-12.06,7.67-18.18a20,20,0,0,1,2-4l2.81-7.42c.7-.52,0-1.51.67-2a10.35,10.35,0,0,1,4.43-5.6c-.83,2.51-1.67,5-2.5,7.52a4.83,4.83,0,0,1-1.22,3.5,168.87,168.87,0,0,1-8.17,18.53,35.7,35.7,0,0,0-2,5c-1.45,4.43-1.3,3.92,3.3,4.88a64.91,64.91,0,0,0,17.67,1.32c1.13.86,1.12.95-.5,3.21-3.4,1.72-6.85,3.26-10.79,3.16-2.75.38-5.55,1.18-8.14-.62a3.32,3.32,0,0,1-1-.82c-2.05-2.67-2-2.67-3.59.49a2.14,2.14,0,0,1-3.08.76c-1.19-.36-2.72-.9-3.16.64s1.78.79,2.32,1.72c-.2.27-.39.61-.44.59-3.28-1.3-4.55.79-5.44,3.3-1.36,3.78-3.3,7.44-2.68,11.68-.16.49-.35,1-.5,1.48a55.58,55.58,0,0,0,.48,8.93,2.31,2.31,0,0,1-.53,2.06q0,4.73,0,9.45c1.47,4.28.13,8.58,0,12.87-.07,2.21-.4,4.43-.41,6.65-.16,1.46,0,2.94-.28,4.39,0,.18-.06.36-.1.54.26,10.54,2.26,20.79,4.88,31a56.85,56.85,0,0,1,2,13.57c.12.19.33.4.31.59-.68,7.57,1.84,14.88,1.79,22.4,1.22,4.28.87,9.2,4.92,12.32,1.34,1-.8,2.25.36,3.18-.06,3.3.8,6.46,1.47,9.66a90.57,90.57,0,0,0,1.86,16.08c.76,3.62-.29,7-1.69,10.18-1.79,4.07-2.74,8.6-6.53,12.2,1.09-.7,1.4-1.44,2-1.84a2.12,2.12,0,0,1,2.21-.37,3.32,3.32,0,0,1,1.52,3.83c-.84,4.27,2.55,6,4.81,8.67,1.17-2.7.91-5.47,1.42-8.1,1-4.9,2.82-9.25,6.71-12.56a7.05,7.05,0,0,0,2.54-6.27c-1.27,3.19-3.78,1.89-6.25,1.06s-2.66-2.78-2.41-4.91a15.82,15.82,0,0,1,.85-3.61c2-5.39,0-10.28-1.95-15.11a8.27,8.27,0,0,1-.13-5.59,6.49,6.49,0,0,0-.4-5.2l-3.91-2c.72-1.4,1.71-.78,2.54-.42,4.48,2,9,3.87,13.39,6a6.84,6.84,0,0,1,3.85,4A9.12,9.12,0,0,0,259,383.8c3.19,2.19,5.56,5.17,8.19,7.9a1.68,1.68,0,0,1,.95.31,25.78,25.78,0,0,0,14.26,6.89,2.22,2.22,0,0,1,1.67,1c8.87.69,17.33,3.59,26.43,3.72,8.46.13,17.25.84,25.4,3.89,5.82,2.17,10.29,6.57,14.09,11.2,4.43,5.41,9.33,7.24,15.88,5.19,2.22-.7,3.81-2.46,5.26-3.93,6.82-6.93,15.73-10.26,24-14.65,2-2.17,5.19-2.3,7.44-4.08,2.47,0,2.14,1.27,1,2.56a9.07,9.07,0,0,1-5.21,2.72A6.15,6.15,0,0,0,395.3,408Z"/><path class="cls-6" d="M222.05,141.48c-1-.13-2.24.25-3-.91-.63-1.35.55-2,1-3-.5-.09-.64.41-.86.7-2.59,3.39-5.53,3.68-7.92.16s-5.69-6.36-8.79-9.28c-1.15-1.32-2-3-3.82-3.57a3.48,3.48,0,0,1-1.64-1.55,2,2,0,0,0-2.39-1.85c-2.9-2-5.75-4-9.31-4.75-.41,1.7,1.82,1.63,1.38,3-2.6-.08-5.07-.48-6.79-2.73.2-.91,1.12-1.39,1.36-2.25.3-1,.35-1.58-1.24-1.89a9.46,9.46,0,0,1-7.2-5.45c.58-1.42,2-1.82,3.11-2.67.83-.6.35-1.16-.09-1.67a16.1,16.1,0,0,0-4.19-3.89c-3.32-1.8-3.5-5.35-4.85-8.2-.7-1.5.77-2.93,1.45-4.33s1.58-2.57-.3-4.07c-2.24-1.8.57-3.62.59-5.64-1.13-.47-2,1.93-3.08.42-.79-1.13-.29-2.42.18-3.56,2.27-5.54,7-8,12.33-9.57,5.42-2.9,9.24-.66,12.33,3.87,1.45,1.31,3.75,1.87,3.15,4.8-.27,1.37,1.32.21,2,.46,1.36.37,2.36,1.42,3.65,1.92,2,2.43-1.16,2.74-1.91,4.83,2.21-2,5.09-1.28,6.95-3.84-2.24-.19-4-.86-4.2-3.25.09-1.25,1.55-1,2-1.9-.78-1.29-3.51-.78-3.06-3a4.37,4.37,0,0,1,3.94-3.63,3.58,3.58,0,0,1,2.64,1.29c1.54,1.93,3.45,2.12,5.62,1.64,1.91,2.32,4.23,4.39,4.7,7.6-1.69.26-1.15,1.19-.68,2.14.73,1.48,1.65,2.92,1.28,4.7-1.38,0-1.46-1.2-1.92-2a39.64,39.64,0,0,1-1.92-4.68c-.44-1.09-1.27-2.18-2.46-2s-.91,1.65-.87,2.56c.14,3.61-1.2,7.14-.44,10.76a1.88,1.88,0,0,1-.38.85c-1.55.44-3.8-.51-4.23,2.15a4.13,4.13,0,0,1-1,1.57,22.18,22.18,0,0,0-8.16,4c-1.46,1.23-3,2.23-3.9,4-.66,1.3-1.57,2.78-3.33,1.94-1.53-.72-.57-2.14-.38-3.29.05-.32.25-.61.19-.94-.06.07-.19.15-.19.24-.06,1.67-2.27,3.35-.54,4.91,2,1.8,4.4,3.18,7.35,2a3.82,3.82,0,0,1,1.64-.29A1.58,1.58,0,0,1,197,105c2.54,1,4.39-1,6.57-1.57,3.8-2,3.8-2,5.46,1-.57,6.09-2.28,8-9.11,9.49,2,.21,4.53-.74,4.21,2-.4,3.35-3.42,2.36-5.55,2.86a58.08,58.08,0,0,1,15.36,0c1.61.23,3-.81,4.44-1.39,1.74-.68,3.37-1.93,5.43-1.43.53.19,1,.68,1.5.71,3,.16,3.93,2.08,4,4.71a7,7,0,0,1-.48,3.64c-1.73,4.5-3.06,9.14-4.75,13.65C223.71,139.8,223.62,141.22,222.05,141.48Z"/><path class="cls-7" d="M355.25,290.22c-1.06-2-2.1-4-3.18-6-.81-1.46-1.73-2.62.91-3.49,1.55-.51-.05-1.86-.49-2.55-3.19-4.89-6.55-9.67-9.79-14.54-4.82-7.23-9.67-14.44-13.54-22.28,3.68,2.92,6.09,6.89,8.7,10.66,5.44,7.85,10.69,15.83,16.08,23.71.58.85.82,2.67,2.66,1.65.86-.23,1.67-.47,1.65-1.64,0-.61,0-1.4,1-1.11.35,1.06.64,2.14,1,3.18.81,2.15.85,2.1,3.14,2.7a3.65,3.65,0,0,1,2.36,2.69c2.55,8.6,9.25,14.61,13.63,22.05,1.48.4,1.75,1.86,2.2,2.53a208.41,208.41,0,0,1-5-22.63c-.82-5.26-2.08-10.17-5.16-14.67a34.15,34.15,0,0,1-4.8-10.1,4.65,4.65,0,0,0-1.55-3.59c-4-4.17-7-9.08-10-14a69.05,69.05,0,0,1-8.54-8.56c-2.24-2.58-4.37-5.14-7.7-6.35a1.37,1.37,0,0,1-1-1.27c-4.59-3.28-9-6.86-14.17-9.2-2.72-1.22-4.1-4-6.49-5.65-3.12-2.11-7-2.41-10.25-4.1-5.52-.95-9.8,2.38-14.49,4.26-.4.16-.68.62-1.08.77-.92.35-2.06.87-2.6-.39-.47-1.09.61-1.56,1.39-1.93,3.81-1.81,7.64-3.58,11.47-5.37a27.82,27.82,0,0,1,21.3,5.31c.72.53,1.45,1.07,2.12,1.67s1.87,1.31,1.37,2.43c-.44,1-1.66-.2-2.69.57,6.84,2.71,12.25,7.51,18.44,11.11,6.39,3.71,11.43,9.44,15.41,15.73,2.71,4.28,5.72,8.29,8.6,12.42a92.43,92.43,0,0,1,11.77,23.4c.31.92-.08,2.37,1.63,2.5.31,0,.86.93.77,1.31-1.6,6.43,1.61,12.11,2.91,18a156,156,0,0,1,3.44,21.27c.58,7.42,3.71,14.4,4.59,21.75.66,5.49,2.73,10.3,4.88,15.2,2.06,4.69,4.39,9.14,2.82,14.77-1.38,4.91.63,9.85,1.76,14.7a43.19,43.19,0,0,1,1.08,5.27c.21,1.86-.57,2.54-2.28,1.28a28.12,28.12,0,0,1-2.33-6.35c.42,2.37,1.79,4.52,1.69,7-.07,1.52.86,2.72,1.33,4.06a1.21,1.21,0,0,1,.42,1.2c-.1.82.43,2-.77,2.3s-1.9-.62-2.23-1.6a69.45,69.45,0,0,1-2.77-9.67c-.55-3.07.47-6,.42-8.95-.07-3.67-.81-7.39-.71-11a51.21,51.21,0,0,0-2.33-16.3c-1.41-4-3.53-7.65-4.67-12.48-1,1.64-.71,3.72-2.42,3.42-1.44-.26-1.33-1.94-1.52-3.09-1.82-11-6.35-21.14-10.12-31.51a9.58,9.58,0,0,1-.3-1.63c-1.64-2.07-2.16-4.65-3-7.05a53.37,53.37,0,0,0-4.1-8.48C368,298.93,371.56,303.9,372,310c3.8,14.3,2.82,28.51-.81,42.67-1,4-.39,8.08-.7,12.1-.1,1.2.13,2.87-1.56,2.87s-1.43-1.73-1.48-2.88c-.1-2.47-.18-5-.08-7.43.53-14-3.23-27.36-6.66-40.74-1.85-3.63-3.44-7.35-3.53-11.52-1.52-3.18-1.8-6.81-3.63-9.89-.75-1.26-.64-2.33.91-2.91,2-.32,2.56,1.39,2.92,2.65,1.62,5.6,4.87,10.57,5.75,14.76C361.23,304,358.27,297.1,355.25,290.22Z"/><path class="cls-8" d="M178.08,65.58c-3.34,1.54-6.84,2.74-9.39,5.7a10.63,10.63,0,0,0-2.91,7.09c2-.12,1.41-2.08,2.44-3,2.25,1.27,1.95,2.75.56,4.58s-1.31,1.9.68,2.71a1.3,1.3,0,0,1,.83,1.63A19.92,19.92,0,0,1,169,87.8c-1,2-3,4.07.26,5.91-.42,5.26,4.74,6.12,7.15,9.15.75.94,3.55,2.13.16,3.4-1.41-.88-2.88-1.65-4.28-2.55a1.37,1.37,0,0,0-1.56-.08.54.54,0,0,0-.26.56c.17.72.79.67,1.33.7s.89,0,1.33,0c.67.1,1.38.25,1.62,1,.35,1.09-.5,1.25-1.26,1.49a.64.64,0,0,0-.38,1c1.82,1.47,3.62,2.95,5.46,4.39.31.24,1,.52,1.09.43.75-1,1.52-2.61,2.42-.29.6,1.53.87,3.38-1.24,4.34-.3.14-.6.3-.9.46-3.91-4-9.14-6.56-12.41-11.28a5,5,0,0,0-1-1.3c-9.23-6.58-8.56-15.7-6.49-25.19.17-.76.46-1.5.68-2.26,0-.08,0-.19-.07-.29-6.79.23-11.19-4.87-9.24-10.65a5.91,5.91,0,0,1,5.44-4.36c4.08-.24,6.3-2.46,7.43-6A30.24,30.24,0,0,1,172.21,44c2.38-2.37,4.91-2.88,7.91-1.15,3.57,2,7.74,3.22,9.76,7.34.49,1,1.15.76,1.81,0a21.63,21.63,0,0,1,2.56-2.68c5.5-4.71,11.66-2.72,14.18,4,1.17,3.13,2.22,6.63,7.17,7.09a10.67,10.67,0,0,1,9.06,7.17c.35,2.48-1.18,3-2.58,1.67-2.1-2-5.05-2.34-7.16-4.2a2,2,0,0,0-2.48-.19c-3,1.54-6.39,1.57-9.55,2.52a13.78,13.78,0,0,0-4,3.86c1.5,1.38,4.53-.17,4.77,2.92a56.19,56.19,0,0,0-8.2,2c-1,.32-1.85,2.12-3.14.87-.93-.9-.06-1.86.67-2.57s.06-1.05-.45-1.42c-.81-.59-1.58-1.22-2.37-1.83a8.59,8.59,0,0,1-1.8-2.41,4.6,4.6,0,0,0-5-3.07c-.69,0-1.74.39-2-.72-.16-.84.53-1.41,1.15-1.91,2.61-2.1,6.5-1.11,8.71,2.14.9,1.33,1,3,1.93,4.27a2.14,2.14,0,0,0,2.72-.27A29.08,29.08,0,0,0,199,63.72a15.66,15.66,0,0,1-9.67-6.52,2.18,2.18,0,0,0-2-1.05c-3.69.29-5.16-2.08-6.12-5.07-1.42-4.4-3.35-5-7-2.27a13,13,0,0,0-4.42,6.24,3.6,3.6,0,0,0,.81,4.05c1.21,1.18,2.47.55,3.74,0,1.54-.67,3.45-2.62,4.69-.43s-1.34,3.09-2.75,4.24c-.22.18-.57.19-.7.48,1.3-.72,2.49-2,4.21-1.22.69.3.8,1,.78,1.73C180.51,65.57,179,65.12,178.08,65.58Z"/><path class="cls-7" d="M222.05,141.48l6.1-17.07a6.4,6.4,0,0,0,.45-3.29c1.67-2.64,2.84-5.64,5.74-7.36,1-.6.87-1.53-.33-2-2.09-.79-4.17-1-6.11.41-.73.51-1.56,1.08-.8,2.16s.94,1.9-.12,2.65a2.12,2.12,0,0,1-3-.39c-2.11-1-4.76.73-5.24,1.31-1.81,2.21-3.91,1.69-5.86,1.51a87.65,87.65,0,0,0-13.46.23c-1.47.08-3.13.34-4-1.65,2.18-.2,4.13-.46,6.09-.54,1.35,0,2.22-.43,2.07-1.92-.16-1.74-1.37-.54-2.05-.59a7.58,7.58,0,0,1-3.74-1.31c5.89-.6,10.43-2.61,10.75-9.26a17.32,17.32,0,0,1,1.27-6.79c.58-1.39,1.48-2.36,3-.89,1.44,3.79-1,7.19-1,10.82a31.08,31.08,0,0,0,.85-15.35c-.83-2-3.6-2-4.21-4.16-.7-2.47-1.1-4.86-.11-7.45.53-1.38.27-3.08.29-4.64,0-1.34-1.06-3.66.74-3.62,1.42,0,4,.91,4.43,3.22a31.1,31.1,0,0,0,2.77,7.08c.16,2.75,2.39,5.39,2.18,7.53-.3,3.08.35,5.83.63,8.71.38,3.85.33,7.46-3.82,9.5-.36.18-.41,1-.79,2,2.8-1.09,4.92-.93,6.54,1.52.92,1.4,1.67-.17,2.39-.68,3.84-2.74,7.73-4.3,12.54-2.06,3.85,1.81,4.24,2.39,1.73,5.73-.32.43-.62.87-1.21,1.71,1.65-.27,2.84-.5,4-.63,1.42-.16,2.67-.09,3.06,1.76s1.9,2,3.6,1.88c5.53-.34,10.1-4.11,15.78-4.14,3.77,0,7.63.73,11.36-.46.79-.22,1.08.09.92.87-2.06,2.85-5.14,1.8-7.72,1.66A48.89,48.89,0,0,0,255,119c-.48.63-.13,1,.12,1.32.55.77,1.74,1.55.63,2.51-.86.75-2,.56-3.07-.13-4.4-2.79-6.67-1.84-7.8,3.16a3.76,3.76,0,0,0-.28,2.29c0,1.35-.62,2.13-2,2.13s-1.94-.81-2.06-2.13-.33-2.31.48-3.5a4.12,4.12,0,0,0,.28-5.06c-.69,2.76,1,5.92-2.49,7-1.77.88-.53,2.94-2,4.42a114.64,114.64,0,0,0-8.58,10c-2.24,2.81-3.31,6.52-5.19,9.66-1.48,2.45-2.95,4.75-1.8,7.75a3.66,3.66,0,0,1-.54,5.34,4.72,4.72,0,0,0-1.49,4.15c-.42,1.73,1.51,4-1.11,5.23-1.34-.47-1.63-2.06-2.84-2.66a5,5,0,0,1-.44-4.53c.55-2,1.54-3.84,0-6-.72-1,.58-2.49,1.17-3.69C218.28,151.41,220.72,146.67,222.05,141.48Z"/><path class="cls-7" d="M273.29,140.05c-2.48-2,.23-3.65.87-4.82a42.74,42.74,0,0,1,6-7.84c1.21-1.34,4.1-2.49,6.29-3.07,2-.52,1.37,1.56.88,2.8a4.44,4.44,0,0,1-1.12,2.37,5.16,5.16,0,0,1,1.91-1.65c1.07-1.3,2.09-2.63,3.22-3.88.95-1,1.69-3.69,3.42-.4.32.6,2.4-.14,3.42-.85.71-.48,1.15-1.14,2.14-1.39,1.8-.47,3.13-1.93,5.44-1.39,3.56.83,5.9-2.12,8.58-3.8,2-1.26,3.72-3.06,6.45-3.65a40,40,0,0,0-6.78-6.4c-3.23-2.22-6.58-3-10.38-1-4.74,2.52-9.48,5.1-14.68,6.63-2.21-.55-.07-1.3-.09-2,4.57-1.33,8.7-3.66,12.91-5.79a14.43,14.43,0,0,1,10.64-1.28c3.45.84,7.38-.18,11.09-.54,4.58-.45,9.16-1,13.73-1.65a4.47,4.47,0,0,1,3.09,1c2.88,1.4,4.36,4.11,6.1,6.58.38.54.73,1.35,1.52.94s.38-1.13.08-1.74c-.4-.78-1.13-1.67-.17-2.4a1.76,1.76,0,0,1,2.61.74c2.48,4.89,5.92,3.25,9.45,1.6a9.19,9.19,0,0,1,3.65-.56,32,32,0,0,1,4.27.07c1,.12,2.32,0,2.26,1.67-3.23,1.28-6.83.44-10.08,1.95-2.81,1.3-5.43,3.26-9.11,2.11-1.49-.47-3.24,1.64-4.68,2.9a13.83,13.83,0,0,1-4,3c-1.71-.21-3.88,1.71-5-1.11.57-1.23,1.74-1.66,2.86-2.17,2.49-1.13,2.61-1.69.87-3.79-1.16-1.4-2.83-2.21-4-3.57-1.49-1.71-1.57-3.15.85-4.19a107.26,107.26,0,0,1-19.38,1.63c1.84,2.77,4.33,4.61,5.68,7.3a1.29,1.29,0,0,0,2,.55c2.62-2,5.13-.55,7.68.1,1.5.59,3.81.18,3.58,2.89a2.89,2.89,0,0,1-.83,1.31A40.21,40.21,0,0,1,329,121c-1.69.7-3.6.86-5.06,2.11-.84,1.61-2.39,2.21-3.94,2.87-4.77,2-9.54,4-14.27,6.12a10.18,10.18,0,0,0-3.43,2.08c-3.47,3.79-7.55,4.52-12.54,3.84A34.24,34.24,0,0,0,273.29,140.05Z"/><path class="cls-7" d="M272.06,152.16c.07-3.1-.55-6.26.69-9.28,2-.3,1.52,1.32,1.46,2.21-.79,12.46,6,22.11,12.21,31.77,2.69,4.19,4,8.79,6.2,13.1,1.19,2.4,2,5,2.94,7.51.08.21.17.6.25.6,3.93,0,2.89,3.59,4.1,5.55-1,2.81-2.82.21-4.17.71-.48-1.49-1.21-.68-1.95-.24-2.34,1.36-3.85.78-4.4-2.45-5.55,5.37-7.21,14-15.46,16.19-.71.62-1.16.28-1.53-.39,1.4-3.18,4.7-4.82,6.31-7.83a3,3,0,0,0,.58-3.19c-.29-1.7-1.38-3.3-.62-5.13-1.66-2.48-1-5.74-2.83-8.24-.89-1.21-.15-2.83,0-4.63-1.19.31-2.34,1.79-3.48.5a3.81,3.81,0,0,1-.48-3.54c.47-2,1.21-3.78-.42-5.86-1.1-1.41,1.35-3.62.44-5.14-3.84-6.42-1-13.33-1.82-19.94,1.66-.91,2.14.28,2.42,1.48a15.68,15.68,0,0,1,.26,6,4.38,4.38,0,0,0,.26-3.56A31.93,31.93,0,0,1,272.06,152.16Z"/><path class="cls-9" d="M84.55,210.5c1.06.25.59,1.6,1.43,2a29.48,29.48,0,0,0,4,12.73l-2.85,2.61c-.24-.25-.53-.6-.82-.55-9,1.35-18.08,2.32-24.91,9.37a8.87,8.87,0,0,0-1.2,1.17c-4.09,6.22-10,8.77-17.27,9-2.84.08-3.6-.34-2.61-3,.53-1.39.27-1.86-1.09-2-2-1.56-.17-2.24.77-2.93,4.63-3.36,9.28-6.7,13.76-10.27,3.59-2.84,5.78-6.84,8.76-10.18.71-.8.56-1.86.41-2.9-.39-2.92.14-3.38,3.05-2.55a65.33,65.33,0,0,0,6.9,1.52C77.48,215.37,81.57,214.5,84.55,210.5Z"/><path class="cls-10" d="M90,225.23c-.33,0-.74.1-1-.06-1.78-1.13-4-10.83-3-12.67,4.54-2,6.43-6.83,10-9.73,5.92-4.74,10.62-10.77,16.73-15.25A9.35,9.35,0,0,1,117.5,186c4.51-.43,8.26-2.52,12-5,9-6,17.2-13.56,28.27-15.92,1-.21,1.18-.84,1.28-1.7.16-1.26.95-1.33,1.94-.86,1.87.22,2.47,2.15,3.85,2.93a31.83,31.83,0,0,0,7.67,3.37A15.42,15.42,0,0,1,180.1,173c-2.8,1.16-7.85-.51-10.1-2.22-3.1-2.38-6.3-5-10.95-4-9.83,2.06-17.42,8-25.2,13.75-.18.14-.38.25-.6.4,1.34.74,2.37-1.15,4-.25l-10.8,8.61c-1.07.95-2,2-3.17,2.88-4.08,5.31-10.93,7.39-14.94,12.8a1.18,1.18,0,0,1-2,.11c-.52-.69,0-1.17.46-1.73,2.09-2.69,4.54-5.08,6.2-8.13,1.17-2.14,4-1.47,5.82-2.88a19.28,19.28,0,0,0,2.89-2.4,14,14,0,0,1,1.77-2.49c-1.21.78-2.54.4-3.82.52a12.7,12.7,0,0,0-9.59,4.57c-2.55,3-6.89,4.23-8.25,8.39-.37,1.12-1.86,2.36.78,2.76,1.33.2,1.38,1.41.61,2.36-4,4.91-2.85,9.69.29,14.44.2,1.05,1.48,2.51-1,2.55a1.81,1.81,0,0,0-.84.23c.08,5.1-2.88,1.92-4.63,1.65C94.66,224.58,92.26,223.46,90,225.23Z"/><path class="cls-11" d="M456.06,540.1c-.12-.89,0-1.88-1-2.4,2.46-3.35,2.4-7.4,3.12-11.24.19-1-.44-1.63-.93-2.4-3.52-5.43-9-8.34-14.39-11.41a3,3,0,0,0-2.49-.7c-2,.58-3-.76-3.74-2.12-1.12-2.18-3.05-3.46-4.79-5,2.56,8,7,15.07,10.3,22.74-3.89-1.67-5.71-5.15-7.37-8.5-7.86-15.93-13.83-32.69-21.24-48.83-.23-.5-.53-1-.79-1.45-2-1.62-2.42-4.15-3.4-6.33-1.13-2.51-1.73-5.25-2.88-7.78-.42-.93-.72-1.88.16-2.76a10.34,10.34,0,0,0-1.12-5.55c-4.53-8.77-4.48-19-9-27.76-1.1-2.14-1.33-4.74-1.9-7.14-.18-.75-.41-1.68.5-2.09,1.24-.55,1.4.74,2,1.33.61,5.48,3.67,10.14,5,15.35a366.42,366.42,0,0,0,12,37.72c3.91,10.19,8.39,20.18,13.07,30a37.64,37.64,0,0,0,20.11,18.91,19.94,19.94,0,0,1,9.53,7.86c1-.84.05-2.73,1.53-2.7s1.31,1.6,1.55,2.63a5.29,5.29,0,0,1,.07,2C458.94,528.43,459.29,534.67,456.06,540.1Z"/><path class="cls-12" d="M197.41,124.07l1.64,1.07c1.38,1.08,2.51,2.43,3.85,3.56,3.18,3,7.14,5.16,8.94,9.4.69,1.61,2.46,1.2,3.63,2,2,1.45,1.93-1.3,2.83-2.16.08-.08.13-.2.21-.26,1-.73,1.59-3,2.87-2s-.57,2.21-1.29,3.21c-.39.53-1,.9-1,1.68a4.7,4.7,0,0,1-5.66,2c-5.14-1.38-5.67-1.08-8.24,3.48-1.37,2.43-3,3-5.5,1.58a27.2,27.2,0,0,1-4.1-2.84c-2.71-5.54-.66-10,3.38-13.83,1.22-1.16,1.14-1.88,0-2.64-4-2.75-7.48-6.32-12.24-7.89-.91-1.26-4.42-1-2.93-3.37,1.13-1.82,3.87-.42,5,.68,1.81,1.78,5.25,1,6,4.08A3.68,3.68,0,0,1,197.41,124.07Z"/><path class="cls-10" d="M109,219.16c8.31-4.85,15.41-11.39,24.33-15.51,15.3-7.08,30.91-13.52,45.79-21.49,3.37-1.81,6.62-3.84,10-5.71,1.66-.93,3.32-1.56,3.19,1.49-20.69,11.45-42.5,20.58-63.86,30.62A43.55,43.55,0,0,0,119,215c-2.65,2.24-5.86,3.31-8.71,5.1C109.19,220.77,108.83,220.24,109,219.16Z"/><path class="cls-10" d="M84.55,210.5c.58,2.23-1.08,3.05-2.57,3.74-5.36,2.49-10.69,1.26-16-.37-.84-.26-1.7-1.24-2.46-.73-1,.7,0,1.61.35,2.34.77,1.62-.11,2.71-1,4-5.75,8.44-13.9,14.19-22.1,19.9-.71.49-2.42.43-1.69,2.14.75-.3,1.58-.55,2.19.12s.08,1.52-.48,2c-1.32,1.23-1.19,3.74-3.57,4-.51.61-1.14.78-1.72.21s-.32-1.23.23-1.74,1.3-1.17,2.25-2c-1.53-.63-3.24-.37-3.48-2.07s1.25-2.48,2.41-3.32q6.57-4.72,13.17-9.44c4.09-2.92,6.94-7,10.18-10.75,1.06-1.22.92-2.39.37-3.75s-1.56-2.75,0-4a4.3,4.3,0,0,1,4.5-.31,46,46,0,0,0,6.07,1.92C76,213.57,80.23,212.05,84.55,210.5Z"/><path class="cls-13" d="M362.47,107.54c-2.4.09-4.5,1.22-6.53,2.26s-3.17,1.23-4-1.24c-.62-1.79-1.93-3.11-4.53-3.78,1.26,2.46,5.07,4.92-.37,6a46.78,46.78,0,0,0-6.66-9.28c.94-.06,1.22-.71,1.37-1.49.41-.27,1.5.84,1.31-.56a5.84,5.84,0,0,0-1.69-3.24,9.73,9.73,0,0,1-1.83-2.4c-.35-.74-.61-1.57,0-2.21s1.47-.07,2.1.33c3.32,2.11,6.51,4.39,9.63,6.79,6.52,4,13.46,6.44,21.26,5.88,1.49-.1,4-.57,4.06,1.16,0,2-2.62,1.67-4.12,1.72C369.15,107.61,365.81,106.85,362.47,107.54Z"/><path class="cls-14" d="M37.27,247.65c1.85-1.06,2.4-3.14,3.47-4.75s-.92-1.07-1.61-1.42c1-.7,2.14-1.08,2.88.21s-.43,1.78-1.16,2.47c-.46.43-1.24.89-.76,1.64a1.54,1.54,0,0,0,1.84.42c3-1.16,6.14-1.18,9.29-1.1,1.39,0,2.19-.85,3-1.92,4.34-6.1,10.24-10.37,16.68-14a7.17,7.17,0,0,1,3.8-1.25,26.77,26.77,0,0,0,10.58-1.72c1.23-.46,2.71-.67,1.87,1.58a24.93,24.93,0,0,1-11,2.54c-6.15.25-10.16,4.78-14.75,8.09a5.42,5.42,0,0,0-.46.49c-9,8.85-9,8.85-22.3,8.44A6.14,6.14,0,0,0,37.27,247.65Z"/><path class="cls-15" d="M215.87,75.77c-1.54-2.54-3.89-4.57-4.79-7.53a2.6,2.6,0,0,1-.36-3.11A2.47,2.47,0,0,1,213,63.41c1.16,0,1.33,1,1.62,1.83,1.53,4.5,2.15,4.89,7.08,4.39,2.55-.26,4.93-.1,6.7,2.1a8.13,8.13,0,0,1,4,5.23c.17.88.72,1.83-.31,2.41s-1.26-.6-1.79-1.07-1.12-1.08-1.68-1.62c-.66-1-1.65-.58-1.73.1-.31,2.45-1.83,1.14-2.94,1.15-2,.07-3.88-1.34-6.06-.33C216.45,78.23,217.52,75.36,215.87,75.77Z"/><path class="cls-16" d="M362.47,107.54c4.51-.93,9.23-.15,13.68-1.93h-7.1c-5.2,0-9.82-1.89-14.37-4.18-1.53-.77-3.3-1.05-4.41-2.53,1.48-1.36,2.33.57,3.53.68,2.6,2.06,6,1.21,8.84,2.36,1.08.43,1.52-.69,2.11-1.31,2.09-2.19,4.16-4.41,6.28-6.56.66-.68,1.38-1.82,2.51-1s.9,2,.48,3.1a20.7,20.7,0,0,1-5.1,7.26c3.41.78,6.4-.36,9.35,0,.73.1,2-.53,2.09,1,.08,1-.63,1.54-1.5,2a18.82,18.82,0,0,1-8.73,2C367.74,106.75,365,108.26,362.47,107.54Z"/><path class="cls-17" d="M228.38,71.73a11.3,11.3,0,0,0-8.42-.92c-3.17.87-5.61-1.16-6.07-4.19-.14-1,.62-2.7-1.09-2.62-1.3.07-1.79,1.53-1.73,2.9,0,.45,0,.9,0,1.34-1.9,1.31-3.62,2.12-5.24-.57-.57-1-1.94-1.43-3-2.12,2.3-1.2,4.37-3.11,7.33-2.07.77.27,1.13-.57,1.52-1.08.64-.86,1.88-1.17,2.36-.67,2.2,2.26,5.91,1.81,7.76,4.52,1.35,2,2.19,1.51,2.8-.5A13.62,13.62,0,0,1,228.38,71.73Z"/><path class="cls-18" d="M392.43,354.48c1.1,2.45,2.21,4.9,3.28,7.37.26.6.67,1.38.49,1.9-2.12,6.17-.42,12.2.55,18.26.13.81.4,1.56-.38,2.13-1.71,1.25-1.37,3-1,4.61,1,4,2.21,8,3.36,12,.19.64.5,1.4,1.36,1.14s.43-1.06.36-1.67-.05-1.1-.08-1.66c1.61.19-.37,3.34,2.23,2.71-1.84,2.53-4.64,3.3-7.44,4.08-.91-.27-2.76.19-1.44-1.82a10.6,10.6,0,0,0,1.27-7.82c-.95-5.61-.7-11.23-.54-16.83.21-7.36-1.42-14.46-2.46-21.65C391.88,356.21,391.35,355.25,392.43,354.48Z"/><path class="cls-19" d="M353.8,99.58c-1.47,1.29-2.18-1.37-3.53-.68l-10.91-7.6a6.2,6.2,0,0,0,2.57,4.37,6.36,6.36,0,0,1,2.09,3.7c.17.95.8,2.23-.49,2.62s-1.06-1.39-1.8-1.95c-1.43-3.63-4.37-6.13-6.84-9-.79-.9-2.27-1.59-1.35-3s2.17-.68,3.29-.09A90.54,90.54,0,0,1,353.8,99.58Z"/><path class="cls-20" d="M288.9,109.78c.21.64-.81,1.34.09,2-1.18,1.14-2.9,1-4.24,1.84a12.13,12.13,0,0,0-4.78,4.75c-1.44,2.1-2.86,4.21-4.33,6.29-.54.75-1.31,1.36-2.28.74-.77-.49-.38-1.32-.43-2.08-.21-2.93.08-5.26,3.76-5.65a1.45,1.45,0,0,0,.7-2.22c-.71-1-1.27.39-2,.44l-.92-.87c1.89-1.84,3.61-3.51,6.81-2.67C284.08,113,286.41,110.79,288.9,109.78Z"/><path class="cls-21" d="M186.63,147.64c.22.94.3,1.84-.93,2.1-6.72,1.43-11.36,5.92-15.77,10.74a10,10,0,0,1-1.45,1.39c-.92.66-1.87,2.49-2.95,1.45-1.63-1.58,1.31-1.79,1.46-3,4.92-4.39,9.3-9.53,15.9-11.63.2-.06.55-.25.54-.35-.5-5,5.13-4.13,6.72-7.13.28-.53,1-1.09,1.68-.47s0,1.21-.42,1.69a11.78,11.78,0,0,1-4.59,3.32C185.53,146.19,185,146.85,186.63,147.64Z"/><path class="cls-22" d="M337.62,117.21c1.1,2.18,3.23.34,4.67,1.21-5,.54-9.18,3.56-14.15,4-.31-1.08.51-1.4,1.21-1.8,2.58-1.06,5.3-1.84,7.5-3.68A.58.58,0,0,1,337.62,117.21Z"/><path class="cls-23" d="M399.07,394.48a12.67,12.67,0,0,1-1.81-7.37,12.58,12.58,0,0,1,2.45,6.71Z"/><path class="cls-24" d="M329.43,121.06l-1.29,1.39c-1.23,1.39-2.89-.09-4.22.62.89-2.13,2.81-2.44,4.76-2.7C329.42,120.08,329.56,120.42,329.43,121.06Z"/><path class="cls-25" d="M413.71,323.32c3.13.95,3.75,2.77,4.29,5.11C415.8,327.45,415.11,325.64,413.71,323.32Z"/><path class="cls-26" d="M204.38,190.75c2.07,1,3.41,2.32,2,4.79C205.58,194,203.89,192.84,204.38,190.75Z"/><path class="cls-27" d="M223.88,77.93c.08-1.08,3.5,1.48,1.92-1.81-.22-.45,1.94-.72,2.75.56C227.11,77.55,226,79.64,223.88,77.93Z"/><path class="cls-28" d="M265.84,397.16a8.07,8.07,0,0,1,6.11,2.07A20.07,20.07,0,0,1,265.84,397.16Z"/><path class="cls-9" d="M239.44,371.5c1.6.7,2.5,1.52,1.84,3.61a12.51,12.51,0,0,0,.22,7.95c1.44,4.8,4.33,10.33.79,15.69a1.75,1.75,0,0,0-.2,1c0,1.81-1.28,4.47.93,5.06,1.41.38,2.56,1.39,3.92,1.46,1.89.1,2.08-2.06,3.09-3,1.63,4.27-.29,7-3.51,9.79-3.48,3-4.66,7.34-5.3,11.78-.35,2.45-.66,4.91-1,7.36-.11.71,0,1.78-1.08,1.75a1.54,1.54,0,0,1-1.32-1.38c-.22-1.89-.8-3-3.1-3.07-1.12,0-1.14-1.73-1.19-2.85,0-.34,0-.68,0-1-.18-2,1.21-4.94-1.21-5.79s-2.28,2.77-4.13,4c-.59-1.56-.59-3,.54-4,2.35-2.17,3-5.23,4.35-7.92,2.75-5.55,4-11.28,2-17.56-1.15-3.61-1-7.56-1-11.4.57-.59.13-1.25,0-1.85-.37-3.07.16-5.7,3.07-7.42a7.65,7.65,0,0,0,1.7-2A3.49,3.49,0,0,0,239.44,371.5Z"/><path class="cls-7" d="M301.67,335.69c-2.44-.56-3.35-2.24-3.54-4.58-.36-4.26-.79-8.52-1.26-12.77-.17-1.52.24-3.18-2.47-3.38-1.82-.13-1.52-2.49-1.32-4,.4-3.11,1-6.19,1.47-9.31-1.46-.27-1.68.81-2.22,1.41-.76.85-1.48,1.93-2.78,1.36s-1.17-2-.92-3.23c.53-2.65,1.06-5.29,1.66-8.26-3.23,1.26-4.43,0-4.13-3.07a3.75,3.75,0,0,0-1.11-3.27c-2-2.15-1.8-5.22-2.27-7.95a14.51,14.51,0,0,0-1.51-5.13,13.47,13.47,0,0,1-1.83-7.77c.11-2.29-.1-4.56-2.64-5.7a1.37,1.37,0,0,1-.74-.65c-1.7-5.49-6.76-9.11-8.17-14.78a5.6,5.6,0,0,0-1.91-3.12c-.65-.51-1.25-1.25-.4-1.95s1.63,0,2.17.79a40,40,0,0,1,4.18,7.69,23.51,23.51,0,0,0,1.83,3.61c.94,1.45,2,2.65,3.55.48.45-.66,1-1.37,1.92-.78s.76,1.59.28,2.39c-1.36,2.29-1,4.1,1,5.89a4.56,4.56,0,0,1,1.56,3.27c-.68,5.93,3.39,10.65,3.87,16.25,0,.55.25,1.56.38,1.56,5.13-.07,2.52,4,3.3,6.21,3.37-1.78,4.28-1.3,4.09,2.39-.14,2.67-.6,5.32-.93,8.07,4.09-1.38,5-.74,4.76,3.46-.06,1.45-.42,2.89-.54,4.34-.21,2.48-1.82,5.23,1.47,7.1.58.33.71,1.61.85,2.48.33,2.12.58,4.24.8,6.37.47,4.6.26,9.18,4,13,3,3,3.31,7.73,5,11.59,3.39,7.59,8.28,14.15,13.45,20.55,1.19,1.47,2.23,3.05,3.35,4.59,0,1.14-.56,1-1.29.6-6.72-6.93-13.23-14-17.55-22.81-1.34-2.74-1.77-5.77-3.28-8.4C302.21,339.18,302.7,337.06,301.67,335.69Z"/><path class="cls-5" d="M249.7,317.92c-1.06-1.72.12-3.24.51-5.15-3.93,1-3.94-1.15-2.84-4.08-3.7,1.11-3.57-.71-3-3.08s2.43-4.28,1.9-7c-1.68.35-2,1.87-3,2.76-1.1,1-2.11,3.12-3.71,2.25-1.91-1-.52-3.09,0-4.52a69,69,0,0,1,3.58-8c2-3.93,1.15-7.26-1.51-10.53s-3.19-7.36-3.25-11.44c0-2.69.22-5.39.34-8.08,0-.88-.13-2.15,1-2.2s1,1.28,1.26,2.09a13.5,13.5,0,0,1,.4,6c-.54,4.75.13,9,3.38,12.89a10.52,10.52,0,0,1,2.54,6.78c0,2.11.4,3.93,3.45,3.64,1.92-.18,1.32,1.59,1.06,2.73-.54,2.36-2.36,4.67-.14,7.18,1.47-.94,1.94-2.68,3.09-3.85.39-.39.87-.8,1.48-.49a1.12,1.12,0,0,1,.43,1.71c-.71,1.28-1.49,2.52-2.23,3.78-.38.65-1.15,1.33-.4,2.08s1.33-.18,1.87-.64c.25-.22.44-.53.7-.73.63-.47,1.31-1.05,2.09-.39s.54,1.55-.08,2.34c-1.24,1.59-3.28,3.31-2.62,5.25a17.85,17.85,0,0,1,.22,11.3c-.14.48-.07,1.23.69,1.29,4.14.3,1.87,2.5,1.19,4.11-.56,1.35-1.39,2.57-2,3.9-.31.7-.59,1.58.77,1.63,2.59.11,1.9,1.61,1.18,3-.47.89-1.16,1.67-1.69,2.52-.82,1.31-1.58,2.53-3.46,1.52-1.68-.9-2.67-2.15-2.13-4.08a32.3,32.3,0,0,1,1.61-4.08c.57-1.34,1.6-2.62-1-3.08-1.16-.21-1.05-1.64-.8-2.63.32-1.3.82-2.56,1.25-3.84C252.79,318.6,250.41,318.88,249.7,317.92Z"/><path class="cls-29" d="M272.66,217.19c.26.54.75.61,1.27.64-6.22,6.35-13.35,10.49-22.66,9.67-1.14-.09-2.33.77-3.53,1-3.91.7-7.82.88-11.52-.94-1.15-.57-2.17-1.06-3.48-.41s-2.14,0-2.83-1.08a3,3,0,0,0,2.77-1.42c1.57-1.06,3.08.44,4.62.09,2.69,1.78,5.58,1.14,8.45.69,1.22,1,2.51.54,3.78.19,2.77-.75,5.48-1.68,8.24-2.49-.47-.13-1,0-1.35-.54-.43-1,1.5-1.55.63-2.7.84-.57,1.35-2.08,2.79-.47.88,1,2.14-.61,3.31-.31a.83.83,0,0,1-.52,1.31c-1.41.37-.39.58,0,.86.09.74-.36,1.14-1.26,1.69a58.32,58.32,0,0,0,7.71-4.56C270.17,217.72,271.14,216.59,272.66,217.19Z"/><path class="cls-30" d="M282.31,379.1c2.39-2,5.3-1.47,8-1.93,6-1,12-1.87,18.06-.14a29.23,29.23,0,0,1,13.41,8.7c.49.53,1.46,1.15.74,2s-1.37-.14-1.93-.6c-2-1.62-3.91-3.32-6-4.82-6.16-4.34-12.88-4.62-20-3.74C290.51,379,286.46,380,282.31,379.1Z"/><path class="cls-31" d="M366.71,260.43c3.13,5.05,5.66,10.44,9,15.4,1.44,2.13,1.66,5.35,1.74,8.09.25,8.34,3.41,16,5,24.06.17.88.3,1.76.56,3.25-1.86-2-2.56-4.09-3.58-5.93-.05-6.32-2.05-12.29-3.24-18.41-1.72-8.88-5.69-16.83-9.92-24.68A1.31,1.31,0,0,1,366.71,260.43Z"/><path class="cls-32" d="M284.1,399.91c-6.6-.73-12.62-2.65-16.88-8.21.49-2.2,1.76-1,2.79-.6a136.07,136.07,0,0,1,17.77,8.54Z"/><path class="cls-33" d="M357.2,305a40.8,40.8,0,0,1,3.53,11.52c-.25,1.05-.13,2.36-2,1.63-1.32-.51-3.08-.39-2.79-2.53.35-2.6-.65-4.74-1.95-6.87-.72-1.18-1.82-2.82-.86-3.91S355.85,304.36,357.2,305Z"/><path class="cls-34" d="M310,363.36c-3.12.57-5.72-.24-8.26-.77-6-1.26-12-2.8-18-4.19-.93-.21-1.91-.43-1.86-1.52,0-.85.91-.86,1.59-.7,8.63,2.05,17.42,3.4,25.86,6.23C309.4,362.46,309.49,362.73,310,363.36Z"/><path class="cls-35" d="M338,226.7c7.71,3.29,12.28,9.92,17.2,16.18-.2.41-.18,1.36-1,.64-5.63-5.12-11.21-10.29-16.81-15.42C336.23,227,336.85,226.76,338,226.7Z"/><path class="cls-36" d="M218.61,286.26c-.38-6.84,1.31-13.55,1.34-20.36.44,0,1-1.55,1.23-.12a97.63,97.63,0,0,1,0,22.73c-.12,1.22-1,1.68-2.07,1.84l0-.08C218.39,289,219.85,287.45,218.61,286.26Z"/><path class="cls-37" d="M228.09,357.88c-1.72-7.57-3.74-15.11-2.1-23a3,3,0,0,1,1.85,2.64c.63,6.49,1.29,13,.78,19.52C228.6,357.34,228.27,357.6,228.09,357.88Z"/><path class="cls-38" d="M372,310q-3.7-9.12-7.42-18.22c5.28,4.69,7.19,11,8.8,17.44C372.53,308.72,372.13,309.07,372,310Z"/><path class="cls-39" d="M359.26,274.68c-1.42.39.31,3.85-2.66,2.75a4.21,4.21,0,0,0,.54-5.75c-1.63-2.56-3.12-5.2-4.62-7.85a4.48,4.48,0,0,0-3.26-2.14c-.55-.13-1.23-.26-1.1-1a1.14,1.14,0,0,1,1.58-.83,5.85,5.85,0,0,1,2.39,1.19C355.64,265,359.07,269,359.26,274.68Z"/><path class="cls-40" d="M238.87,371.7c.7.85.74,1.77-.31,2.19-3.57,1.45-4.08,4.31-3.86,7.65,0,.46-.42.95-.65,1.43-.55-2.47-1.05-5-1.67-7.42a1.71,1.71,0,0,1,1-2.17C234.84,371.64,236.61,370.86,238.87,371.7Z"/><path class="cls-41" d="M355.25,290.22c4.61,7.08,6.74,15.14,9.57,22.92l-.84.34c-2.05-5.33-4.16-10.64-6.12-16-.75-2-1.41-4-3.38-5.24A2.41,2.41,0,0,0,355.25,290.22Z"/><path class="cls-42" d="M219.88,244.93l.63-1c-.71,2.39,1.27,4.12,1.61,6.32s-.25,4.2-.22,6.29c0,.57-.28,1.39-.75,1.28s-.8-.92-1.19-1.42l-.18-1.9A36.88,36.88,0,0,1,219.88,244.93Z"/><path class="cls-43" d="M307.1,207.75c3.88.2,7.74.47,10.25,4.1-.09.52-.2,1.58-.4,1.43C313.84,211.11,309.62,210.93,307.1,207.75Z"/><path class="cls-44" d="M341.61,397.94a14.1,14.1,0,0,1-7.61-4.81,1,1,0,0,1,.07-1.48.76.76,0,0,1,1.17.12C337,393.89,339.68,395.06,341.61,397.94Z"/><path class="cls-45" d="M334.33,325.25a.92.92,0,0,1-1-.65c-.27-.8,2.35-5.46,3.14-5.54A1.32,1.32,0,0,1,338,320C338.21,320.76,335.07,325.19,334.33,325.25Z"/><path class="cls-46" d="M325.73,382.05c-4.76.33-6.14-1.8-6.26-5.57C321.94,377.75,323.22,380,325.73,382.05Z"/><path class="cls-47" d="M243.43,362.91c-2.14-.41-4.06-.74-4.54-3.18-.11-.52-.14-1.19.44-1.48s1.1.18,1.32.66C241.3,360.34,243,361,243.43,362.91Z"/><path class="cls-48" d="M369.81,388.34c1.82,2.73-.08,4-1,5.47a.66.66,0,0,1-1.12.07,1.9,1.9,0,0,1-.09-2.21C368.29,390.72,369.4,390.06,369.81,388.34Z"/><path class="cls-49" d="M324.73,371.43l1.29-.6a9.56,9.56,0,0,1,1.33.83c.49.43,1.08,1,.55,1.67-.76.93-1.35.1-1.87-.42S325.16,371.93,324.73,371.43Z"/><path class="cls-50" d="M301.67,335.69c1.42,1.18,1.64,2.94,2.23,4.53C301.26,339.64,301.88,337.46,301.67,335.69Z"/><path class="cls-51" d="M249.7,317.92c.83.87,5.38-1,2.12,2.88C251.87,319.28,249.84,319.3,249.7,317.92Z"/><path class="cls-5" d="M262.52,221.26l-1.6-.18c.61-1,1.92-.93,2.23-2l2.07-1.23c1.1-.76,2.06-1.79,3.51-1.92l1.87-1.5c.8-.8.69-2.25,1.95-2.71,2.29-3.34,4.7-6.59,6.12-10.43-.27,2.13,2.07,3.64,1.39,5.87-2.09-1.23-2.12.94-2.94,1.79-2.21,5.37-6.26,9-11.24,11.66C264.85,221.18,263.86,222.22,262.52,221.26Z"/><path class="cls-52" d="M219.17,167.86c-1.43-2.11-1.12-3,.88-4.31s.46-3.51,1.15-5.18l3.4-1c-.52,3.13-1.28,6-1.48,9C222.88,169.76,222.05,169.94,219.17,167.86Z"/><path class="cls-53" d="M238.79,126.5c1.35-1.35,2.75-2.57,1.05-4.74-1.4-1.8,2-2.1,1.45-3.83,1.78,2.14,2.82,4.23.44,6.57a2.85,2.85,0,0,0-.81,1.45c-.22,1.49-.87,3.42,1.22,3.94s2-1.47,2.3-2.83c.1-.42.29-.83.43-1.24-.14,1.65,1.11,3.8-1.13,4.71-1.33.55-3,.34-3.49-1.56C240,128,239.89,127,238.79,126.5Z"/><path class="cls-54" d="M258.74,130.51c.42-4.14,1.34-7.19,4.19-9.41.55-.43,1.09-1,1.75-.61,1,.68.06,1.39-.22,2A22.89,22.89,0,0,1,258.74,130.51Z"/><path class="cls-55" d="M272.06,152.16c.76,2.46,1.5,4.93,2.29,7.39.71,2.21-2,3.06-1.44,5.19l-1.05-.17c0-2.59.05-5.18,0-7.77,0-1.13.29-2.73-1.81-2.36C270.21,153.23,272.32,153.75,272.06,152.16Z"/><path class="cls-56" d="M212.4,195l-5.46-4.61.31-.5,6.56,1.63Z"/><path class="cls-57" d="M280,118.32c-.26-3.44,2.35-4,4.78-4.75-2,1.68-3.22,3.74-2.59,6.46C280.41,120.43,280.93,118.54,280,118.32Z"/><path class="cls-58" d="M119.68,188l6.47-2.3a16.06,16.06,0,0,1-4.42,4.27C121.05,189.32,120.37,188.66,119.68,188Z"/><path class="cls-59" d="M191.43,173.55c-1.12-.16-2.63.36-3-1.22-.16-.67.87-1.26,1.41-.85,1.06.81,3-.43,3.37,1.27C193.39,173.63,192.27,173.79,191.43,173.55Z"/><path class="cls-60" d="M123.31,192.21a6.31,6.31,0,0,1,3.17-2.88c-.26.47-.85,1.06-.73,1.38C127.6,195.62,124.53,192.4,123.31,192.21Z"/><path class="cls-61" d="M288.16,127.84a10.52,10.52,0,0,1-4.29,4.58,12.74,12.74,0,0,1,3.5-5.3Z"/><path class="cls-62" d="M215.22,170.43c1.81,0,2.35,1.28,2.84,2.66C214.47,175,215.88,171.62,215.22,170.43Z"/><path class="cls-63" d="M272.55,211.73a3.72,3.72,0,0,1-1.95,2.71C270.74,213.17,268.33,210.07,272.55,211.73Z"/><path class="cls-63" d="M268.73,215.94a5.25,5.25,0,0,1-3.51,1.92C265.93,216.37,266.28,214.23,268.73,215.94Z"/><path class="cls-64" d="M246.3,190.14a7.36,7.36,0,0,1,1.22-3.5C250.25,188.9,247.77,189.35,246.3,190.14Z"/><path class="cls-65" d="M242.11,194.16a6.67,6.67,0,0,1-2,4C239,195.89,240.89,195.19,242.11,194.16Z"/><path class="cls-66" d="M245.59,184.72a1.85,1.85,0,0,1-.67,2c-.19-.39-.28-.93-.59-1.15-.6-.41-1.8-.52-.87-1.57S244.88,184.43,245.59,184.72Z"/><path class="cls-67" d="M406.62,451.89c1.53,4.27,3.05,8.54,4.59,12.8.49,1.36,1,2.72,1.53,4.07-.95,1.17-1.61.26-2.16-.38-1.75-2.07-3.36-4.36-3.81-7s-.66-5.32-1.36-7.92C405.13,452.42,405.67,452,406.62,451.89Z"/><path class="cls-68" d="M431.52,534.52c-2.52-4.21-8-6.47-8-12.29,1.73-3.18,2.92-.23,3.47.63a93.15,93.15,0,0,1,4.62,8.73c.57,1.16.94,2.43,1.4,3.65C432.22,535.53,432,534.77,431.52,534.52Z"/><path class="cls-69" d="M443,531.87c-.61-.08-1.29-.68-1.82,0a1.16,1.16,0,0,0,.29,1.49c1,1,2,2,3,3-3.11.52-3.16-3.54-5.77-3.91-.27,0,.15-1.1.72-1.18C440.69,531.17,442.1,530.13,443,531.87Z"/><path class="cls-70" d="M431.52,534.52l1.45.72c.21.25.37.59.64.73.89.46,1.53-1.74,2.46-.36s-1.29,1.66-1.05,2.84A9.63,9.63,0,0,1,431.52,534.52Z"/><path class="cls-71" d="M377.54,440.35c-1.38-1.13-2.84-2.19-3.57-3.91.39.19.85.61,1.14.52,2.68-.92,2.3.89,2.26,2.44A4.64,4.64,0,0,0,377.54,440.35Z"/><path class="cls-72" d="M417.93,511,414,509.42c1.21.1,1.17-1.42,2.32-1.8A8.54,8.54,0,0,0,417.93,511Z"/><path class="cls-73" d="M260.51,389.67c-.07,2.07-.45,3.43-2.86,1.64-2.11-1.58-4.38-2.95-6.59-4.42-.57-1.07-.78-2.18.36-2.95a2.84,2.84,0,0,1,2.91.1A20.16,20.16,0,0,1,260.51,389.67Z"/><path class="cls-74" d="M253.67,391.06c5.49,2.05,5.5,2.08,2.37,6.86-.65,1-1.32,2-2.17,3.28-.65-3.65,2.17-7-.14-10.21Z"/><path class="cls-75" d="M248.33,379.52c-.14-3-1.89-2.58-3.79-1.55-.63-2.77.44-3.25,2.6-2.32,2.85,1.22,6,2.15,6.69,5.85C251.52,382.16,250.21,380.05,248.33,379.52Z"/><path class="cls-76" d="M260.51,389.67c-2.34-1.5-3.82-4.09-6.67-5-2.18-.67-3.25-.31-2.78,2.2-1.54-.82-.73-2.56-1.44-3.71a.87.87,0,0,1,.18-1.25c1.61-1,3,.41,4.58.33C256.22,384.9,259.23,386.57,260.51,389.67Z"/><path class="cls-77" d="M256.42,222.57l3.11.19a32.7,32.7,0,0,1-13.43,3.9c-1.29.09-.69-.7-.35-1.25C249.63,225.65,252.86,223.49,256.42,222.57Z"/><path class="cls-78" d="M237.3,224.72c.2.86,0,1.28-1,1-1.2-.37-2.41-.72-3.63-1.07,1.09-.66-.37-1.79.33-2.3a4.64,4.64,0,0,1,2.44-.81c.94-.05,1.36.62,1.09,1.58A1.29,1.29,0,0,0,237.3,224.72Z"/><path class="cls-79" d="M265.2,395.16c-4.16-1.35-4.16-1.35-2.3-4.73,1.65.65,2.13,2.52,3.56,3.38a.8.8,0,0,1,.19,1.14A1,1,0,0,1,265.2,395.16Z"/><path class="cls-80" d="M254.38,382.26c-1.58,1.37-3.15-.61-4.73,0-1.21-.18-2-.64-1.39-2.06l.07-.68c2.49-1.17,3.5,1.78,5.5,2Z"/><path class="cls-81" d="M436.69,543.38c-4.47-.25-5-3.25-6.34-5.44l.61-.61C432.67,539.13,434.38,540.93,436.69,543.38Z"/><path class="cls-82" d="M408.5,507c1.88,1.53,2.66,3.58,4.58,4.5a.91.91,0,0,1,.15,1.46c-.39.43-.81.06-1.17-.15C410,511.54,408.1,510.15,408.5,507Z"/><path class="cls-83" d="M253.73,391c-2.94.35-2.91,3.36-4.59,5.32a9.25,9.25,0,0,1,1.43-5.5c1.42-2.62,2.23-1.78,3.1.25Z"/><path class="cls-84" d="M248.54,386.3c2,1,.2,2-.1,3-.44,1.33-.67,2.81-2,4.08.2-2.57,0-4.93,1.31-7.05A.52.52,0,0,1,248.54,386.3Z"/><path class="cls-85" d="M448.37,541.62c.53-1.34,2-.76,2.84-1.58.31-.33,1.37-.24,1.9,0s.27,1.1-.15,1.41c-.63.47-.7,1.87-2,1.3Z"/><path class="cls-86" d="M231.54,434.69a11.17,11.17,0,0,1-2.64-4.5c-.27-.64-.75-1.61.32-1.91.87-.25,1.5.58,1.66,1.31C231.2,431,231.28,432.53,231.54,434.69Z"/><path class="cls-75" d="M248.54,386.3h-.8c.74-2-.85-4.18.52-6.11.12.92.84,1.43,1.39,2.06l0,.93C249.79,384.41,249.06,385.32,248.54,386.3Z"/><path class="cls-2" d="M219.88,244.93c0,3.21-.06,6.41-.1,9.62A18.16,18.16,0,0,1,219.88,244.93Z"/><path class="cls-87" d="M231.37,421.71c.8,2.06.68,3.27-.37,4.29-.11.11-.73,0-.82-.22C229.44,424.34,230.4,423.39,231.37,421.71Z"/><path class="cls-88" d="M239,224a2.29,2.29,0,0,1,3.27-.23.63.63,0,0,1-.07,1.08C240.86,225.88,240.2,224.07,239,224Z"/><path class="cls-2" d="M218.61,286.26c3.29.93,0,2.71.52,4A6.59,6.59,0,0,1,218.61,286.26Z"/><path class="cls-28" d="M265.2,395.16c.92,0,1.69-.11,1.26-1.35.87.44,2.24,1,1.52,2C267.14,397,266,395.86,265.2,395.16Z"/><path class="cls-89" d="M178.08,65.58c.55-.9,2.88-.82,1.76-2.57-.82-1.27-2,0-3,.28s-2,1.13-3.4.74c1.82-1.16,3.65-2.05,4.92-3.65.42-.53.95-1,.35-1.75a1.34,1.34,0,0,0-1.83-.23c-.87.5-1.66,1.15-2.55,1.61-1.26.67-2.54,1.69-4,.28-1.26-1.24-2.34-2.69-1.77-4.48,1.28-4,3.42-7.35,7.5-9,3.47-1.41,4.6-.81,5.63,2.76a20.81,20.81,0,0,0,1.16,3.5c.6,1.22,1.69,2.76,3,2.25,3-1.17,3.8,1,5.14,2.68a13.76,13.76,0,0,0,9.89,5.12l-4.74,5c-1.16-.07-2.32-.23-3.33.58-1.63-.9-1.25-2.74-1.88-4.1-1.83-3.94-6-4.73-9.89-.79,5.84-1.64,7.74,1.61,9.06,5.58A5,5,0,0,1,187.54,67c-1.77-2.63-3.86-3.83-6.93-1.85A6.72,6.72,0,0,1,178.08,65.58Z"/><path class="cls-90" d="M203.66,104.23c-2.15.85-4.2,2.12-6.67,1.81a1.19,1.19,0,0,1-.25-.13l.19-.28c1.5-2.66,5.21-2.61,6.23-5a20.14,20.14,0,0,1-7,4.17c-4.09,2.74-7.35,0-10.74-1.68a1.28,1.28,0,0,1-.44-2c1.36-1.27,1.47-2.92,1.84-4.52.18-.8.36-1.69,1.45-1.31.89.31.92,1.16.78,2,0,.1-.09.2-.11.31-.25,1.33-2.58,2.94-.41,3.84,1.61.67,1.53-2,2.35-3,.48-.62.82-1.54,1.44-1.81,3.65-1.57,6-5.9,10.71-5.18,2.94-.65,3.63-.23,3.6,2.31,0,.67-.28,1.41.07,2C209.16,99.81,206.73,102.12,203.66,104.23Z"/><path class="cls-91" d="M203.66,104.23a15.09,15.09,0,0,0,2.28-2.39c.91-1.48,2.46-3,.12-4.78a2.54,2.54,0,0,1-.5-2.43c2-3.49-1.05-2.69-2.57-3.21l.66-1.36c.47-.54,1.21-.88,1.74-.54,2,1.23,2.23-.63,3-1.56l-.05.06c1.4,1.4,3.69,1.52,4.79,3.35.06,1.86,1.46,3.9-.73,5.45-1.43-1.48-1.61,0-1.88.86-.68,2.24-.77,4.65-2,6.71C207,100.56,205.26,104.45,203.66,104.23Z"/><path class="cls-92" d="M224,116.61c1,0,2.49.88,3-.42.73-1.74-1.58-1.34-2.12-2.29,3.61-4,5.91-4.56,10.31-2.68,1.68.72,1.73,1.22.46,2.51-1.54,1.56-4.49,2.19-4.53,4.63,0,2.14-1.13,2.35-2.52,2.76-.24-2.13-.76-3.91-3.56-3.43C224.4,117.79,224.09,117.2,224,116.61Z"/><path class="cls-93" d="M201.6,87.17c0,1.26-.79,2-1.93,1.82-1.62-.27-2.4.06-3.37,1.62-1.16,1.84-4,1.9-5.58,3.66-.56.62-1.47-.32-1.43-1.22,0-.63.28-1.67.68-1.82C193.59,90,195.81,86,200.05,86,201.35,86,201.59,86.18,201.6,87.17Z"/><path class="cls-94" d="M200.3,73.77c1,.87,1.27,3.55,3.6,1.54.45-.39,1.08-.08,1.41.48a1.48,1.48,0,0,1-.13,1.87c-.86.89-1.75,1.91-3,2a7.11,7.11,0,0,0-4.57,1.86c-.55.53-1.18.73-1.72,0s-.12-1.3.41-1.73a32.32,32.32,0,0,1,2.7-2c.69-.47,1-.9.11-1.46-1-.35-1.47-1-.93-2A1.36,1.36,0,0,1,200.3,73.77Z"/><path class="cls-95" d="M176,81.93a19.33,19.33,0,0,1,2.1-1,1.72,1.72,0,0,1,2.34.69c.61,1.13-.37,1.62-1.05,2.13a5.37,5.37,0,0,1-1.78.91c-2.63.68-4.12,2.14-3.84,5,.08.85-.18,1.62-1.2,1.64s-1.24-.8-1.37-1.59c-.31-1.9.64-3.47,1.39-5.09A4.31,4.31,0,0,1,176,81.93Z"/><path class="cls-96" d="M184,88.06c0,.1,0,.21-.06.32-.29,1.27-7.93,5.45-9.06,4.94-.81-.36-1.29-1-.83-1.86.63-1.25,7.45-4.29,9-4.07C183.44,87.46,183.89,87.47,184,88.06Z"/><path class="cls-97" d="M173.15,108.4c.13-.56-1.76-2.25-2.64-2.32s-1.09-1-1.4-1.63a1.23,1.23,0,0,1,.41-1.74,2.64,2.64,0,0,1,2.85-.11c1.49,1.11,3.16,2.06,4.24,3.66Z"/><path class="cls-98" d="M196.12,104.84c2.66-2.49,6.37-3.63,8.67-6.64-.62,4.6-4.68,5.56-7.86,7.43Z"/><path class="cls-99" d="M193.74,87c-2.41-1.94-3.94-3.6-4.48-6-.14-.63-.18-1.38.66-1.64a1.14,1.14,0,0,1,1.35.74C192.24,82.07,193.65,83.85,193.74,87Z"/><path class="cls-100" d="M208.4,88c.22,1.19.68,2.54-.45,3.42-1.31,1-1.43-1-2.31-1.15a16.35,16.35,0,0,0-2-.17C204.06,87,205.22,86.48,208.4,88Z"/><path class="cls-101" d="M200.3,73.77c-1.42.41-3.29.61-1.22,2.63-1.75.29-2.53-1.17-3.66-2a3.87,3.87,0,0,1,4.65-2.1,7.88,7.88,0,0,0,3.55,0C203,74,201.08,72.55,200.3,73.77Z"/><path class="cls-102" d="M176,81.93l-3.41,2.69C172.15,81.77,173.16,80.72,176,81.93Z"/><path class="cls-103" d="M197.41,124.07a3.74,3.74,0,0,1-2.58-2.22C197.58,120.38,197.66,122,197.41,124.07Z"/><path class="cls-104" d="M202.9,128.7a9.57,9.57,0,0,1-3.85-3.56C201.39,125.17,201.74,127.38,202.9,128.7Z"/><path class="cls-105" d="M370.24,339c1.09-17.66-5.59-33.36-12.32-49.3,3.46,1,4.24,3.42,5.19,6.06,2,5.69,5,11,6.43,17A58.81,58.81,0,0,1,370.24,339Z"/><path class="cls-106" d="M384.51,334.08q-5.22-15.13-10.42-30.27c7.45,8.73,11.75,18.53,11.24,30Z"/><path class="cls-107" d="M170.05,66.16,166,69c.51-2,.48-3.12-1.76-2A7.08,7.08,0,0,0,161.31,70c-.49.84-.5,2.16-2,1.44-1.32-.64-1.32-1.79-.67-2.85a16.5,16.5,0,0,1,4-4c2.11-1.69,3.42-.21,5,.87A10.28,10.28,0,0,0,170.05,66.16Z"/><path class="cls-108" d="M196.33,59.66c.08-2.6.8-4.47,2.51-5.28,1.9-.89,4-.19,5.76,1,1,.63,1.62,2.85,3.25.59.32-.44.93.33,1.26.76s.8,1.27.35,1.85A1.93,1.93,0,0,1,208,59a4.9,4.9,0,0,1-1.88-.65C202,56,200.35,56.12,196.33,59.66Z"/><path class="cls-109" d="M203.53,48.71c-4.73.24-6.93,2.57-8.39,5.85-.28.62-.24,1.81-1.42,1.36A2,2,0,0,1,192.55,54c.32-3.31,3.08-4.76,5.33-6.54C199.65,46.05,201.18,47,203.53,48.71Z"/><path class="cls-110" d="M160.34,74.28c-3.57,1.94-6.22.37-7.19-4.53C155,72.62,157.62,73.39,160.34,74.28Z"/><path class="cls-111" d="M161.66,91.58c3.06,1.66,1.83,4,1.76,6C162.1,96,162.1,94.05,161.66,91.58Z"/><path class="cls-112" d="M185,48.28c1.22,1.74,2.54,2.39,2.22,4,0,.15-.64.37-.82.27C185.1,51.81,184.75,50.64,185,48.28Z"/><path class="cls-72" d="M192.84,68.74c.65-2.84,2.09-1.13,3.33-.58C195.18,69.06,194.12,69.55,192.84,68.74Z"/><path class="cls-113" d="M212.41,96.82c1.52-1.64.35-3.65.73-5.45,1.45,6.35.54,12.56-.66,19.18-2.31-1.77-2.36-3.42-1.5-5.51A16.1,16.1,0,0,0,212.41,96.82Z"/><path class="cls-114" d="M337.62,117.21l-.66-.06a.63.63,0,0,1-.84-.07l.74-.7c1-1.46,1.16-2.47-1.15-2.37a2.92,2.92,0,0,1-2.18-.3c-.77,0-1.88.3-2.25-.09-1.64-1.73-3.06-.84-4.41.19-1.84,1.4-2.77,1-3.55-1.15-1.18-3.28-4.41-5-6.85-7.92,4.38-.31,8.39-.89,12.39-.8,3.63.08,7.41-2.14,11.63.12-1.76,1-3.38-.66-4,1s1,2.42,2,3.11a16.64,16.64,0,0,1,4.43,4.5c1.12,1.57.36,2.64-.82,2.76C340.4,115.64,339.27,117,337.62,117.21Z"/><path class="cls-115" d="M303.78,129.26c2.66-2.22,5.33-4.43,8-6.66,1.88-1.58,4.4-1.3,6.53-2.25,1.24-.56,2.71.83,3,2s-1.36,1.18-2.19,1.54c-4.82,2.09-9.68,4.09-14.53,6.12C303.83,130.3,303.66,129.94,303.78,129.26Z"/><path class="cls-116" d="M303.78,129.26l.82.79c-3.82,1.53-6,6.09-11.65,6C296.41,132.58,300.44,131.44,303.78,129.26Z"/><path class="cls-117" d="M336.12,117.08l.84.07c-1.78,2.7-4.89,2.86-7.53,3.91l-.75-.69Z"/><path class="cls-118" d="M333.53,113.71a7.85,7.85,0,0,1,2.32,0c1.23.34,2.86-1.67,3.5.16.52,1.47-1.9,1.39-2.49,2.52C337.74,113,334,115.4,333.53,113.71Z"/><path class="cls-119" d="M280.08,132.55c-.33,2.42-.79,4.27-3.74,4C276.87,134.56,278.73,134,280.08,132.55Z"/><path class="cls-120" d="M262.52,221.26c6.57-2.26,11.13-6.73,14.18-12.86,1,.29,2.24,0,2.71,1.36-1.24,3.4-4.28,5.15-6.75,7.43-4.07,2.2-7.61,5.4-12.3,6.81C260.3,222.27,261.86,222.13,262.52,221.26Z"/><path class="cls-121" d="M282.8,178l-.76.56c-1.81-.17-.28-2-1.26-2.58-1.12-1.17-1.47.16-2.08.65-1.28,0-1-.65-.66-1.36a2,2,0,0,0,0-.34c-.09-1,1.76-2,.2-2.91s-1.6,1.17-2.72,1.65c-.39-1.66.81-2.87,1.14-4.27.17-.76.5-1.57-.35-2.12s-1.12.54-2,.56a10.73,10.73,0,0,1,1.31-4.92l8.12,14.36C283.58,177.65,283.11,177.7,282.8,178Z"/><path class="cls-122" d="M280.78,175.93c1.3.43.05,2.11,1.26,2.58-.91,2.81-1.83,5.62-3,9.26C278.29,183,281.14,179.72,280.78,175.93Z"/><path class="cls-123" d="M286.42,194.45a25.92,25.92,0,0,1,2.45-7.48C290,189.48,289.76,190.24,286.42,194.45Z"/><path class="cls-124" d="M279.41,209.76c-.56-1.14-2.51.49-2.71-1.36.62-1.16,1-2.52,2.35-3.21l1,2C280.44,208.18,280.59,209.14,279.41,209.76Z"/><path class="cls-125" d="M278,175.22l.66,1.36a13.75,13.75,0,0,1-3.07,6.49A19.18,19.18,0,0,1,278,175.22Z"/><path class="cls-126" d="M282.8,178l1-.72c4.19,2.45.26,4.56-.27,6.82a.42.42,0,0,1-.68,0,7.28,7.28,0,0,1,.88-3.42C284.12,179.45,284.1,178.51,282.8,178Z"/><path class="cls-127" d="M286.79,186l-3.1,7.1c-.42-3.58,1.34-5.58,2.39-7.82C286.53,185.33,286.61,185.72,286.79,186Z"/><path class="cls-128" d="M282.81,184.05h.68a9,9,0,0,1-1.73,5.53A7.75,7.75,0,0,1,282.81,184.05Z"/><path class="cls-129" d="M289.63,196.78c.36-1.6.4-3,1.87-3.7.09,0,.59.38.59.59C292.12,195.17,291.08,195.92,289.63,196.78Z"/><path class="cls-130" d="M286.79,186l-.71-.72.88-2.9C288.93,184.11,288.93,184.11,286.79,186Z"/><path class="cls-131" d="M98.2,203c3,3.47.75,6.27-.81,9.42-1.16,2.33-.74,5.12.19,7.6s.1,2.82-2.07,2.14a3,3,0,0,0-1.66-.21c-3.93,1.29-4.34-1.26-5.54-4.13s-.33-4.24,1.89-5.65C93.79,209.93,95.34,205.79,98.2,203Z"/><path class="cls-132" d="M201.14,130.21c3,2.61,6.18,4.52,8.17,8.14-3.94,1.19-7.79.4-11.58.46a1,1,0,0,1-1-1.13,1.88,1.88,0,0,1,.28-.91c4.76.62,2.37-3.77,3.82-5.44C201,131.18,201,130.92,201.14,130.21Z"/><path class="cls-133" d="M200.8,141.21c1.13.71,3.33-.87,3.4,1.38,0,.94-.63,3.21-2.52,2.95s-4.12-1.34-4.15-3.32S199.71,141.89,200.8,141.21Z"/><path class="cls-134" d="M221.31,73.76c-1.32,1.17-2.28,1.11-3.43.21C218.87,72.82,219.86,73,221.31,73.76Z"/><path class="cls-24" d="M371.77,95.71c-.56,3.48-4.1,4.57-4.37,7.75-.08,1-1,.41-1.62.19-1-.38-.57-.93-.16-1.49A46.26,46.26,0,0,1,371.77,95.71Z"/><path class="cls-135" d="M241.49,300.56c.3-3.28,2-5.62,2.74-8.29a.91.91,0,0,1,1.29-.68c.65.25.64.82.58,1.41C245.79,296.09,244.1,298.33,241.49,300.56Z"/><path class="cls-136" d="M246.4,306.42a9.63,9.63,0,0,1,2.27-5.32C249.1,303.54,248.51,305.06,246.4,306.42Z"/><path class="cls-137" d="M252.93,305.52c-.36,2.18-1.41,2.86-2.88,3.66C250.3,307.39,251.09,306.47,252.93,305.52Z"/><path class="cls-138" d="M204.67,94.23c-2.12,2-3.89,3.6-6,4.44-2.48,1-4.74,2-6,4.58-.31.66-.82,1.13-1.59.74-.54-.27-.22-.75-.09-1.17C192.52,98,199,93.7,204.67,94.23Z"/></svg>