<svg id="megaphone_Image" data-name="megaphone Image" xmlns="http://www.w3.org/2000/svg" viewBox="0 0 423.72 369.33"><defs><style>.cls-1{fill:none;}.cls-2{fill:#fbd149;}.cls-3{fill:#010000;}.cls-4{fill:#fce8e4;}.cls-5{fill:#090807;}.cls-6{fill:#0c0a05;}.cls-7{fill:#090808;}.cls-8{fill:#030202;}.cls-9{fill:#060505;}.cls-10{fill:#0f0e0c;}.cls-11{fill:#17150f;}.cls-12{fill:#090805;}.cls-13{fill:#1a1814;}.cls-14{fill:#121010;}.cls-15{fill:#070707;}.cls-16{fill:#080808;}.cls-17{fill:#191818;}.cls-18{fill:#2c2828;}.cls-19{fill:#efeeeb;}.cls-20{fill:#090909;}.cls-21{fill:#131313;}.cls-22{fill:#110f0f;}.cls-23{fill:#f2f2f2;}.cls-24{fill:#1c1c1c;}.cls-25{fill:#2a271f;}.cls-26{fill:#171717;}.cls-27{fill:#363332;}.cls-28{fill:#ecc64b;}.cls-29{fill:#2b2720;}.cls-30{fill:#323232;}.cls-31{fill:#ecc74c;}.cls-32{fill:#313131;}.cls-33{fill:#31160d;}.cls-34{fill:#2c1108;}.cls-35{fill:#d4d1c8;}.cls-36{fill:#f5e3e0;}.cls-37{fill:#2b2b2b;}.cls-38{fill:#3c1a0f;}.cls-39{fill:#282828;}.cls-40{fill:#3c3c3c;}.cls-41{fill:#c0bebe;}.cls-42{fill:#733722;}.cls-43{fill:#3a3737;}.cls-44{fill:#303030;}.cls-45{fill:#393730;}.cls-46{fill:#eddcd9;}.cls-47{fill:#f8edc9;}.cls-48{fill:#d8cfcd;}.cls-49{fill:#e75b2b;}.cls-50{fill:#f26535;}.cls-51{fill:#181717;}.cls-52{fill:#979797;}.cls-53{fill:#856f27;}.cls-54{fill:#5a5a59;}.cls-55{fill:#070602;}.cls-56{fill:#171307;}.cls-57{fill:#080702;}.cls-58{fill:#1a1609;}.cls-59{fill:#241e0a;}.cls-60{fill:#0e0c04;}.cls-61{fill:#fbfaf9;}.cls-62{fill:#16130d;}.cls-63{fill:#15120b;}.cls-64{fill:#28210c;}.cls-65{fill:#3e3412;}.cls-66{fill:#61511c;}.cls-67{fill:#f3f0e5;}.cls-68{fill:#c7a63a;}.cls-69{fill:#caa83b;}.cls-70{fill:#968457;}.cls-71{fill:#3b3111;}.cls-72{fill:#6f5d20;}.cls-73{fill:#9e832e;}.cls-74{fill:#fce28d;}.cls-75{fill:#8f772a;}.cls-76{fill:#fdecb4;}.cls-77{fill:#ccc19c;}.cls-78{fill:#e7e4dd;}.cls-79{fill:#342c0f;}.cls-80{fill:#fde7a2;}.cls-81{fill:#fdeaad;}.cls-82{fill:#f1521b;}.cls-83{fill:#fefdfd;}.cls-84{fill:#ef511b;}.cls-85{fill:#e84f1a;}.cls-86{fill:#f4cc48;}.cls-87{fill:#f3ca47;}.cls-88{fill:#efddd9;}.cls-89{fill:#eedbd7;}.cls-90{fill:#f15621;}.cls-91{fill:#f5e1dd;}.cls-92{fill:#f4e1dd;}.cls-93{fill:#e24d19;}.cls-94{fill:#d44818;}.cls-95{fill:#e7dfdc;}.cls-96{fill:#e6d5d2;}.cls-97{fill:#e9511c;}.cls-98{fill:#da4b1a;}.cls-99{fill:#da4d1c;}.cls-100{fill:#d34818;}.cls-101{fill:#f0ecdd;}.cls-102{fill:#e6511e;}.cls-103{fill:#a83913;}.cls-104{fill:#dbd5d3;}.cls-105{fill:#5c1f0a;}.cls-106{fill:#df501f;}.cls-107{fill:#957c2b;}.cls-108{fill:#b64b27;}.cls-109{fill:#79290d;}.cls-110{fill:#9a3411;}.cls-111{fill:#fbdacf;}.cls-112{fill:#d84f20;}.cls-113{fill:#a96c57;}.cls-114{fill:#a53813;}.cls-115{fill:#a13712;}.cls-116{fill:#aaa;}.cls-117{fill:#e2511e;}.cls-118{fill:#bb9c36;}.cls-119{fill:#a48930;}.cls-120{fill:#a63813;}.cls-121{fill:#bd4015;}.cls-122{fill:#b5a098;}.cls-123{fill:#923110;}.cls-124{fill:#dd4b19;}.cls-125{fill:#a38e87;}.cls-126{fill:#a2401f;}.cls-127{fill:#c8a73a;}.cls-128{fill:#6f260c;}.cls-129{fill:#bf4115;}.cls-130{fill:#e05423;}.cls-131{fill:#32290e;}.cls-132{fill:#a03612;}.cls-133{fill:#8b8b8b;}.cls-134{fill:#511c0a;}.cls-135{fill:#b9502c;}.cls-136{fill:#c34216;}.cls-137{fill:#473b15;}.cls-138{fill:#b59735;}.cls-139{fill:#79290e;}.cls-140{fill:#7c6724;}.cls-141{fill:#8c3d22;}.cls-142{fill:#efdad3;}.cls-143{fill:#5a1e0a;}.cls-144{fill:#812c0e;}.cls-145{fill:#cbaca1;}.cls-146{fill:#d6d5d4;}.cls-147{fill:#883417;}.cls-148{fill:#67230c;}.cls-149{fill:#b89285;}.cls-150{fill:#9c3511;}.cls-151{fill:#5b1f0a;}.cls-152{fill:#e7c8be;}.cls-153{fill:#ae8b7f;}.cls-154{fill:#64220b;}.cls-155{fill:#444443;}.cls-156{fill:#110604;}.cls-157{fill:#6a2416;}.cls-158{fill:#100f0f;}.cls-159{fill:#1b1918;}.cls-160{fill:#682113;}.cls-161{fill:#262322;}.cls-162{fill:#6a2619;}.cls-163{fill:#6d2618;}.cls-164{fill:#221f1f;}.cls-165{fill:#632114;}.cls-166{fill:#dadada;}.cls-167{fill:#180804;}.cls-168{fill:#524c4b;}.cls-169{fill:#312d2c;}.cls-170{fill:#434140;}.cls-171{fill:#230c07;}.cls-172{fill:#f8f8f8;}.cls-173{fill:#6d2416;}.cls-174{fill:#652113;}.cls-175{fill:#3c3a39;}.cls-176{fill:#662012;}.cls-177{fill:#631f11;}.cls-178{fill:#521a0f;}.cls-179{fill:#541a0f;}.cls-180{fill:#4a170d;}.cls-181{fill:#50190e;}.cls-182{fill:#9f9f9f;}.cls-183{fill:#605f5f;}.cls-184{fill:#a59997;}.cls-185{fill:#b2aba9;}.cls-186{fill:#49160d;}.cls-187{fill:#cdcdcd;}.cls-188{fill:#e9e9e9;}.cls-189{fill:#571b0f;}.cls-190{fill:#959595;}.cls-191{fill:#c7a842;}.cls-192{fill:#443914;}.cls-193{fill:#f6cd48;}.cls-194{fill:#f6f5f2;}.cls-195{fill:#f2f1ed;}.cls-196{fill:#c1a23e;}.cls-197{fill:#3b3635;}.cls-198{fill:#dab53f;}.cls-199{fill:#9a802d;}.cls-200{fill:#fefefe;}.cls-201{fill:#efede8;}.cls-202{fill:#b79f50;}.cls-203{fill:#adadad;}.cls-204{fill:#a3a2a1;}.cls-205{fill:#fdf2cf;}.cls-206{fill:#7c6824;}.cls-207{fill:#fafafa;}.cls-208{fill:#d2d2d2;}.cls-209{fill:#cbcac7;}.cls-210{fill:#787878;}.cls-211{fill:#dbdbdb;}.cls-212{fill:#d0cbbe;}.cls-213{fill:#edc74c;}.cls-214{fill:#f4e1de;}.cls-215{fill:#434343;}.cls-216{fill:#675f5d;}.cls-217{fill:#eec645;}.cls-218{fill:#a2872f;}.cls-219{fill:#bf9f37;}.cls-220{fill:#cfad3c;}.cls-221{fill:#f3ca46;}.cls-222{fill:#493d15;}.cls-223{fill:#f25823;}.cls-224{fill:#f25b28;}.cls-225{fill:#f25824;}.cls-226{fill:#f2612f;}.cls-227{fill:#fce0d7;}.cls-228{fill:#fbd5c8;}.cls-229{fill:#f36a3b;}.cls-230{fill:#f2602e;}.cls-231{fill:#f58b66;}.cls-232{fill:#f5815a;}.cls-233{fill:#f7a487;}.cls-234{fill:#f58964;}.cls-235{fill:#f26433;}.cls-236{fill:#f47a50;}.cls-237{fill:#f69573;}.cls-238{fill:#f69473;}.cls-239{fill:#f7a78b;}.cls-240{fill:#f68e6a;}.cls-241{fill:#f4794f;}.cls-242{fill:#fac4b2;}.cls-243{fill:#f47c52;}.cls-244{fill:#1a0804;}.cls-245{fill:#d1c5c2;}</style></defs><title>megaphone</title><path class="cls-1" d="M211.86.06Q316.54.06,421.24,0c2.07,0,2.48.41,2.48,2.47q-.11,182.21,0,364.39c0,2.07-.41,2.47-2.48,2.47q-209.39-.09-418.77,0c-2.06,0-2.47-.4-2.47-2.47Q.09,184.67,0,2.47C0,.41.41,0,2.47,0Q107.17.11,211.86.06Z"/><path class="cls-2" d="M214.38,168.08l1.34-1.38a23.17,23.17,0,0,0,9-2.09c3.8-1.69,7.87-1.34,11.85-.49a19,19,0,0,0,9.8,0c2.33-.71,4.86-.18,7.17.25a19.53,19.53,0,0,0,12.29-1.66,4.73,4.73,0,0,1,1.74-.46c1.7.22,3.42.11,5.13.26,4.66,1.91,9.52,1,14.29.89,2.19-.08,4,.24,5.48,1.78a1.36,1.36,0,0,1-.2,1.75c-1.49,1-3.31,1.47-4.63,2.77-.63.62-1.56,1.3-.95,2.27s1.58.42,2.19,0c3.27-2.1,6.44.92,9.69.12.49-.12,1,.58,1.34,1.1.25,1.18,1,2.24.79,3.52-2.17,5.69-1.16,8.08,4.52,10.61a4.71,4.71,0,0,1,2.2,1.49,18.27,18.27,0,0,0,1.89,3c1.27,1.54,2.71,2.34,4.64,1.11,5.59-.21,11.13-.83,15.44-4.81,2.83-2.61,5.85-5.19,7.25-9,.46-1.25,1.77-1.56,2.87-2,4.45-1.94,9.16-3.07,13.77-4.48,2.31-.7,4.61-1.46,6.88-2.29,1.17-.43,2.38-1.17,3.66-.22.63.34,1.34.59,1.66,1.33a13.5,13.5,0,0,0,6.27,8.48c3.28,2.34,6.72,4.44,9.94,6.83a54,54,0,0,1,15.72,18c1.06,2,1.37,4.18,1.92,6.32,2.59,10,2.76,20.28,4,30.43a78.09,78.09,0,0,1,.57,11.43,7.94,7.94,0,0,1-.67,3.82,57.59,57.59,0,0,0-3.27,5.78,24.15,24.15,0,0,0-3.39,5.65,71.84,71.84,0,0,1-9.2,14,9.77,9.77,0,0,0-1.89,5.95,6.7,6.7,0,0,1-2,4.83c-1.24,1.31-1.89,2.72.22,3.92,1,.57.66,1.33.18,2a12.34,12.34,0,0,1-2.66,2.44c-.7.56-1.77,1.18-1.57,2.07.64,2.94-1.59,3.46-3.35,4.53-2.69,1.65-5.87,2.94-5.6,7.06.08,1.18-1.17,1.79-2,2.53-1.44,1.33-2.4,2.62.14,3.89,1.78.88.74,1.71-.24,2.36-2.93,1.93-6.11,3.51-8.7,6.19.77.42,1.53-.63,2.14.11-2,3.05-3.92,5.1-8.44,5.3s-8.9,2.76-13.49,3.84l.31.76c-.28.72-.91.74-1.5.68-6.68-.65-13.33-1.53-19.66-3.94a7.46,7.46,0,0,1-1.87-.94,1.47,1.47,0,0,1-.76-1.22c.07-.73.73-.87,1.31-1,1.15-.3,2.29.2,3.14.07-4.39-.79-9.81.19-12.45-5.42a.83.83,0,0,1,.26-.77,1.52,1.52,0,0,1,1.54.07,1.15,1.15,0,0,0-1.91.29c-2,.25-3.93,2.31-6,.22-6.26-2.55-10.67-7.12-14-12.84-.68-1.53-2.13-2-3.52-2.47-4-4-8-8-11.72-12.34a14.18,14.18,0,0,1-3.59-7.77c2.1-1.3,2.92-.91,4.12,1.84-.34-2.55-2.69-2.77-4.72-3.41a28.41,28.41,0,0,1-4.74-12.83c3.81-4.53,8.45-7.74,14.34-8.82,3.44-.63,5.94-2.84,8.65-4.74,3.68-2.58,4.37-2.63,7.45.51,2.53,2.58,5.82,4.38,7.74,7.57,4.88,5.45,9.76,10.91,17,13.31,1,.31,2.1.79,2.38,1.71.56,1.84,1.6,2.34,3.33,1.9A6.6,6.6,0,0,1,328,291.9a18,18,0,0,1,1.09,2.8c.7,2.72,2.54,4.08,5.07,5a30.94,30.94,0,0,1,11.66,7.84c1.56,1.63,3.05,3.4,5.33,4.15-3.46-3.64-7-7.17-10.22-11a8.22,8.22,0,0,0-6.11-2.95c-3.76-.06-5.72-1.95-6.54-5.39a2.4,2.4,0,0,0-.55-1.06,13.32,13.32,0,0,0-2.4-2.22,6.33,6.33,0,0,1-.73-8.15c1.61-2.34,2.52-4.51.63-7.12-.56-.78-.63-1.86.61-2.15,1.56-.36,2-1.43,2.33-2.78a3.77,3.77,0,0,1,3.75-3.25c2,1.88.39,3.8-.23,5.44-1.4,3.66-2.76,7.33-3.5,9.29,1.27-4.12,4.22-9.59,5.39-15.67.57-1.66,2-3.06,1.4-5.05,0-2.68,2.21-2.8,4-3.27a23.55,23.55,0,0,1,13.65.61c-3.56-1.12-6.83-3-10.59-3.46-1.1-.14-2.29-.1-3.22-1.26-.74-.92-1.18.43-2.09.94a15.53,15.53,0,0,1,7.93,1.53c-3.47,1.61-7.7,1.06-10.54,4a1.41,1.41,0,0,1-.86.07,2.57,2.57,0,0,1-1.31-2.26c.26-5-2.66-9.76-1.21-14.87a9.11,9.11,0,0,0-.49,3.77c0,1.3-.08,2.61,0,3.91a5.58,5.58,0,0,1-2.94,5.48c-4.8,3.12-9.94,5.66-14.72,8.81-1.84-.19-3.05-1.75-4.85-2.13-1.34-.29-1-1.45-.48-2.44,1.31-2.72,1.28-2.76-1.67-3.27-1.09-.19-2.16-.42-3.24-.61-.76-.12-1.75-.12-1.91-1.11s.58-1.44,1.21-1.93a12.81,12.81,0,0,1,2.53-1.59,4.67,4.67,0,0,1,2.05-.3c-.57-.22-1.14,0-1.68-.13a4.69,4.69,0,0,1-.76-.19c-1.17-.44-2.16-1-1.09-2.39-.82-.74-2.35-.31-2.72-1.9-.26-1.11-1.48-.74-2.35-.76-1.72,0-3.37.14-3.62-2.42-.08-.82-1-2.48-2.6-1.73-1.08.51-3,.77-2.68,2.29.3,1.26.58,3.12,2.15,3.65,3,1,3.06.9,1.84,3.43,1.17.81,2.51.45,3.78.57s2.75-.39,3.23.9c.42,1.14-1.17,1.66-1.81,2.5a14.36,14.36,0,0,0-1.51,1.35,2.68,2.68,0,0,1,2.43-.72c1.95,1,4.15.66,6.19,1.15,2.24.54,3,1.45,1.34,3.48-.79,1-.53,1.76.67,2.39,3.94,2.06,3.92,2.1,2.17,6.6,1.15-1.53,1.24-3.56,3-4.44,2-.17,3.64-1.24,5.49-1.76,1.46-.38,2.91-.79,4.38-1.07,4.4-.86,5.36.07,4.93,4.65-.8,2-2.83,2.4-4.45,3.31-1.81,1-2.84,2-1.41,4.23,1.1,1.75,1.11,4,1.46,6.08.24,1.43-.34,2.38-2,2-2.1-1.79-2.44-4.53-3.67-6.8a17,17,0,0,0-1.87-3.32c1.54,3.38,2.29,7,3.5,10.51.32.9.89,1.94-.47,2.58a14,14,0,0,1-8.79-4.75c-2-2.41-4.6-4.19-6.39-6.77-2.57-3.94-6.58-6.43-9.91-9.59a11.56,11.56,0,0,1-3-4c-2-4.72-3.7-9.57-5.77-14.26a11.15,11.15,0,0,0-3.35-4.92c-.94-1.19-3.44.79-3.74-1.82,0-.09-.61.37-.93.56-.72.42-1.43,1.3-2.22.09-.53-1.44,0-2.73.52-4,1.15-3.11,1.94-6.26,1.27-9.61a32.78,32.78,0,0,1-.31-3.28,10.43,10.43,0,0,0-4.49-7.81c-2.36-1.69-5.12-2.82-7.15-5-1.29-1.35-2.13.5-3.23.33a1.91,1.91,0,0,1-1.48-1.45c-.15-1.09.61-1.86.93-2.78.45-1.85.81-3.67-.72-5.24-1.51-.95-.7-2-.21-3.11,1-2.34.69-3.07-1.9-3.35S254,192,254.8,189.92s.17-4.39.57-6.57.71-4.36,2.36-6c.33-.35.79-.77.5-1.29a1.44,1.44,0,0,0-1.62-.55c-1.55.32-3.32,1.13-3.22,2.68.18,2.68-1.45,4-2.94,5.58-2,2.11-1.82,2.62,1,3.53,2.34.74,2.39,1,.57,2.88-.76.78-1.95,1.47-1.46,2.73s1.85,1,2.93,1c4.2.23,4.5.58,3.18,4.67-.38,1.19.2,1.91.61,2.8.29,3.4-.32,3.89-3.33,2.65-3.43-1.41-5-1.12-7.13,1.89a6,6,0,0,1-4.49,2.52c-.4,0-1,.16-1.16-.12-1.6-2.62-4.62-2.66-6.88-2.85-5.17-.44-10.34-2-15.6-.62-3.59.91-6.75-1.37-10.21-1.57-.6,0-1.5-.58-1.06-1.46.59-1.19-.7-1.5-.82-2.06-.44-2.19-1.72-2.21-3.49-2.13-1.44.06-1.78-1-1.46-2.34a9.06,9.06,0,0,1,2.24-3.53c2.44-2.94,4.94-5.82,7.43-8.71,1.32-1.75-1.52-1.71-1.3-3A24.54,24.54,0,0,0,214.38,168.08Z"/><path class="cls-3" d="M168.07,137.08c-2.53.75-5.16.65-7.75.88a27.92,27.92,0,0,0-11.93,3.69c-1.7,1-3.78,1.9-5.07-.84-.47-1-1.43-.57-2.13-.48-15.89,1.85-31.65,4.75-47.61,6-1.48.12-3,.39-4.42.59-4.3.48-8.73,0-12.87,1.62l-4,.76c-2.42.86-4.83,1.84-7.44.7-2.83-.39-4.15-1.89-4.77-4.84a112.92,112.92,0,0,1-1.34-37c0-5,1.43-9.81,1.82-14.71.35-4.36.2-8.82.43-13.23a28.63,28.63,0,0,1,.84-9.56c2.38-7.92,3.4-16.07,4.6-24.2.49-3.27,1.88-6.31,2.29-9.64.1-.84,2.54-2.76,4.39-3.44.52-.19,1.31.35,2,.59,12.36,4.51,24.6,9.4,37.12,13.41,6.89,2.21,13.46,5.1,20.23,7.55a19.17,19.17,0,0,0,5.4,1.94l2.39.7c.51,1.18,2,2.5-.5,3.28-.18,0,.68.19.81.59,1.66,1.45,3.19,3.13,5.71,2.76a7.58,7.58,0,0,1,.83-.15,4.15,4.15,0,0,1,1.68.14,6.24,6.24,0,0,1,1.62,1.36,13.2,13.2,0,0,0,3,2.77c.58.31,1.43.66,1.71-.26.21-.67-.67-.82-1.13-1.14-2.12-1.1-4.37-2-6.21-3.55-1.2-.93-2.69-1.36-3.91-2.23-.8-.58-2.12-1.22-.56-2.43l12,4.24c1.4,1.47,4.11,1,5,3.32,1.87,1,3.34,3.34,6,1.83.7-1,1.74.73,2.42-.33,2.59-1.87,3.87,1,5.26,1.91,3.73,2.39,8,2.91,12,3.78a87.31,87.31,0,0,1,15.85,5.39,73.15,73.15,0,0,0,10.3,4c1.57,2,4.15,2.21,6.24,3.28,1.66.86,3.6,1.14,5.29,2,.95.5,1.7.44,2.25-.56.66-.56.51-2,1.84-1.83,1.34-.45,1.69,0,1.27,1.31a8.24,8.24,0,0,0-.78,1.61,2,2,0,0,0,.71,2.39,1.59,1.59,0,0,0,1.93-.35c.91-.79.57-1.57-.08-2.33-.33-.49-.83-1-.17-1.53s1.51-.22,2.24.13a5.6,5.6,0,0,1,2.29,2.5c.47,1.21.19,2.62,1,3.74-.24,1.79-.39,3.52,2.24,3.46,1.51.36,1.67,1.59,1.8,2.81a3.58,3.58,0,0,0,2.59,3.34,3.07,3.07,0,0,0,3.89-1.42c.74-1.16,2-1.2,3.18-1.46,2.54.2,3.32-2.5,5.29-3.23.62-.27,1.21-.56,1.86-.79,4.43-1.54,5.79.31,5.34,4.77-.05.46-1,1.21,0,1.28,2.9.21,5.1,2.18,7.81,2.78.34.08.75-.17,1.12-.26,3.93.95,7.23,3.44,5.15,6.9a3,3,0,0,1-.74.36c-1,.22-1.12,1-1.12,1.82a23.36,23.36,0,0,1-1.09,5.62c.69-.3,1.12-1.09,1.94-1.08,2.24.67,1.45,2.49,1.46,4a6.84,6.84,0,0,1-1.24,3.6c-3.06,4.12-6.35,4.53-10,1.17-.4-.36-.78-.83-1.23-.59-2.23,1.15-4.9.61-7.08,1.86a3.25,3.25,0,0,1-2,1.09c-3,.14-6,.49-9,.89-2.67-.7-5.35-1.37-7.94.26a5.8,5.8,0,0,1-.82.21c-3,.22-6,.27-8.84,1.43-1,.42-2.16.73-2,2.21a6.8,6.8,0,0,1-.23,2.16c-.66,2-3,2.8-3.67,4.87a2.6,2.6,0,0,1-2.27,1.34c-2.74,0-5.48,0-8.1.94-.63,3.55-3.67,3.37-6.18,4,4.22-.83,7,1.13,6.23,4.39a6.22,6.22,0,0,1-3.7,2.19,4.47,4.47,0,0,0-1.9,1c1-.4,1.86-1.07,2.92-.74,1.75,1.55.27,2.25-.86,2.79-1.38.65-1.76,1.58-2.3,3-.84,2.26-1.41,4.88-3.54,6.52a40,40,0,0,1-9.6,5,58.37,58.37,0,0,1-9.65,4.07c-.88.31-2.16.84-2.71-.27s.52-2,1.36-2.7a21.26,21.26,0,0,1,3.17-1.67,17.7,17.7,0,0,0,2.9-1.24c-1.24.66-2.66.94-3.88,1.67a9.84,9.84,0,0,1-4.29,1.27c-.61,0-1.25-.11-1.54-.73s.12-1.16.5-1.62c1.33-1.65,3.42-2,5.16-3,1.7-.53,3.36-1.19,5-1.79,4-1.68,8.14-3.19,12.05-5.14.27-.36-.33-.53,0-.27.11.09.08.2-.09.29-4,2.11-8.28,3.46-12.39,5.28-1.79.56-3.56,1.23-5.3,1.94-1.1.38-2.44,1.22-3.07-.4-.53-1.34.88-1.81,1.78-2.35a26.23,26.23,0,0,1,3.82-1.72c.37-.14,1.16,0,1-.71-.11-.42-.17-1.19-1.16-.87a1.58,1.58,0,0,1-2.28-1.24,3.61,3.61,0,0,1,.61-3.4c.84-.9,2.07-1.11,3.07-1.73-1.19-.87-.92-1.83-.17-2.82a32.4,32.4,0,0,1,3.64-1.6,26.82,26.82,0,0,0-4.38,1.85,6.83,6.83,0,0,1-2.86.78c-1.76,0-3.11-.31-2.84-2.58.08-.67-.48-1.24-.94-1.75-.65-1.07.26-1.58.78-2.27,2-2.67,4-5.36,6-8.05-.11-2.11.59-3.65,2.88-4.06a3.7,3.7,0,0,1,2,.11c-2.05-.83-4,1.08-6.06.23a2.39,2.39,0,0,1-1.53-1.3c-2-1.14-3.87.48-5.83.33C174.44,133.35,171.61,136.55,168.07,137.08Z"/><path class="cls-4" d="M360.23,150.61a.75.75,0,0,1,0,.47c.22,1.53-1.16,1.69-2,2.23a88.13,88.13,0,0,1-20.32,9.79c-8,2.59-15.66,6.37-24.12,7.53a10.84,10.84,0,0,1-1.89-.1,5.4,5.4,0,0,0-3.69.26,4.1,4.1,0,0,1-3.41,0c-.68-.86.16-1.16.62-1.54,1-.83.88-1.82.52-2.86-.42-2.06-2.16-2.7-3.75-3.53-1-.5-2.14-.52-3-1.35,2.67-1.42,3.29-4.61,1.78-9.13,2.36-.61,2.55,1.44,3.12,2.74.81,1.83,1.06,3.91,2.15,5.63a47.6,47.6,0,0,1,3.11,4.77,7.76,7.76,0,0,0-1.89-4,15,15,0,0,1-2.4-5.17c-.24-.86-.69-1.86.13-2.55s1.47.63,2.1.54c2.6-.33,5.63,1.51,7.74-1.58a6.94,6.94,0,0,1,3.58-2.7c2.83-.9,4.91,1,4.27,4.16,2.3-.27,4.79-.87,5.67,2.26a1.42,1.42,0,0,0,.26-1.54c-.36-1.74-2.9-1.69-3-3-.12-1.62-.21-2.43-2-3-1.35-.4-.36-1.59.19-2.15,2.43-2.45,2.88-6.16,5.19-7.9a9.45,9.45,0,0,1-5.68,3.94c-3.62,1.06-7,2.93-10.46,4.51a28.52,28.52,0,0,1-23.28.73c-1.52-.59-3.55-.16-4.51-2-1.21-2.17-.79-4.26.34-6.3l.3-.53c3.3-5.37,3.3-5.37,8.66-2.77-1.18-2.57-1.17-2.6-3.86-3.19a2,2,0,0,1-1.74-2.37,2.63,2.63,0,0,1,2.85-2.54,10.31,10.31,0,0,0,4.11-.48c3.54-.15,6-2.45,8.68-4.34,1.21-.85.47-2-.2-2.9-1.73-2.37-8.16-4.3-11.18-3.37a3.22,3.22,0,0,1-2-1.07c1.14-1.24,2.57-2.33,1.58-4.4-.36-.75.24-1.31.84-1.74.64-1.21-.44-1.83-.94-2.6-1.89-2.93-1.8-3.64.61-6.27s4.71-4.93,7.24-7.22a7.82,7.82,0,0,0,2.73-5.47c.35-4.59,2.74-8.09,6.44-10.71,1.47-1,2.85-2.21,4.3-3.29a9.17,9.17,0,0,1,3.51-1.37,101.82,101.82,0,0,1,15.55,2.22,8.34,8.34,0,0,1,.89.26c2.66,1.1,5.63,1.64,7.48,4.19a2.36,2.36,0,0,1,.21.82c-.27,1.55-1.82,2.35-2.24,3.81-.55,1.13-1.86,1.51-2.5,2.55a2.87,2.87,0,0,1-2.55,1.11c-.45,0-1.07-.25-1,.58a9,9,0,0,0,1.33,3.89c2.53,2.88,2.93,6.62,4.07,10.06a4.07,4.07,0,0,1,.11,1.3,10.53,10.53,0,0,1-.72,2.46c-.17.38-.37.75-.55,1.12-.45,1.26-.35,2.54.89,3.11,1.65.76,3.15-.12,4.3-1.26,1.35-1.35,2.64-2.45,4.65-1.38a14.42,14.42,0,0,0,5.72-1.4c3.58-2,4.34-1.93,7.38.69a18.43,18.43,0,0,1,1.57,1.36,4.11,4.11,0,0,1,0,5.09c-2.5,3.26-3.49,7.35-6.36,10.41-3.6,3.84-10.33,5.64-14.71,3.49,2.15,1.66,3.92,2,6.8,1.31a44.26,44.26,0,0,0,5.1-1.83c2.23-.84,2.84-.3,2.31,2A39.15,39.15,0,0,0,354,134c-.44,4.44-.89,8.95,3.86,11.71A2.49,2.49,0,0,1,359,148,2.77,2.77,0,0,0,360.23,150.61Z"/><path class="cls-3" d="M317.35,73.74,314.29,75c-1.59.94-2.84,1.25-2.49-1.37,1.94-4.69,4.88-9,5-14.36,0-.82.65-1.08,1.47-1.16,10.14-1,20-.38,29.4,4.21,3.67,1.79,7.81,2.52,11.66,4,5.9,2.31,10.39,5.91,13.21,11.66.59,1.2.74,3.33,3.16,2.82.65-.14.75.76,1,1.32,3.64,9.72,4.5,19.87,4.74,30.11a6.85,6.85,0,0,1-2.75,5.92,9.18,9.18,0,0,0-2.89,6.69c0,.85.26,1.65-.61,2-2.92,1.3-4,4.17-5.55,6.56a98.08,98.08,0,0,0-9.39,17.15c-1.68,1.12-2.7.65-2.1-1.3s0-3-1.81-3.68c-1.58-.59-2.14-2.07-2.56-3.52a17.74,17.74,0,0,1,.43-11.83c.4-1,.67-2,1.1-3.34-3.77,1.4-7,3.35-10.87,3a6,6,0,0,1-4.84-2.62c-.27-.4-.53-.92,0-1.35s.92-.19,1.33.18c4.44,4,8.72,1.31,12.39-1a14.28,14.28,0,0,0,6.29-8.83c.38-1.68.45-2.74,2.86-2-2.39-1.92,1-3.66-.51-5.31-.39-.87.24-1,.84-1.2.88,0,1.37.65,1.9,1.26.59-1.86-1-1.89-2-2.37-1.13-.85-1.09-2.74-2.78-3.08-1.55-.82-2.34-2.63-4.11-3.17-1.44-.35-2.9-.47-4.36-.7s-2.9-.66-3.42-2.33c-2.36-1.2-4.07-3.44-6.77-4.11-2.21-.56-4.24-3.74-4.48-6.81-.91-2.33,2.33-.94,2.26-2.52a3.52,3.52,0,0,1,3.86-1.56c1.34.22,2.75.57,4.13-.06a8.63,8.63,0,0,1-3.54.1c-.65-.09-1.54.16-1.59-.88s.91-.83,1.51-1a3.29,3.29,0,0,1,1.14-.17c-1-.2-2,.78-3,0l0,0c-.7-1.61.65-1.9,1.59-2.21a8.45,8.45,0,0,0,2.95-1.4,12.44,12.44,0,0,1-3.23,1.36c-.93.18-1.84.51-2.22-.69-.3-.93.22-1.54,1.12-1.78a7.8,7.8,0,0,0,1.78-1.07c1.71-2.41,1-4.73-.27-7,1.28-2.19.75-3.81-1.33-3.72-4.28.18-8.54-.41-12.81-.15-2.41-.07-4.82-.06-7.22-.3-1.68-.17-3.29,0-3.76,2.58,6.44.6,12.85,1,19.29,1.15,2.52.4.68,2.88,1.88,3.92a11.76,11.76,0,0,1,3.19,1.22c.85,1.15.4,2.13-.39,3.07-2.47,1.61-5.21,1-7.88,1h-.28l-.25-.15C328.69,72.05,323,73.26,317.35,73.74Z"/><path class="cls-2" d="M184.93,168c-1.78,1.51-4.47,1.66-6,4.06,2.3.88,4-.73,5.91-1,.66-.25,1.28-.42,1.29.64-1.64,1.08-3.64,1.66-5.25,4,4.89-.75,8.65-2.86,12.53-4.64a.8.8,0,0,1,.55-.2c1.19.21,2.91-.92,3.49.71s-1.31,2-2.27,2.65c-2.89,2.11-6.08,3.8-8.76,6.34,5.06-3,10.15-5.72,15.16-8.6a20.24,20.24,0,0,1,5.63-2,11.47,11.47,0,0,1,3-.48,2,2,0,0,1,.79.36c.83,2.43-2,1.59-2.43,2.77,2-.2,2.67-2.24,4.16-3.24l.58-.17a9.58,9.58,0,0,1-3.73,9.81,104,104,0,0,1-10.55,7,15.42,15.42,0,0,1-6.35,1.77c-.59,0-1.33.21-1.63-.43-.38-.81.31-1.34.89-1.67,2.55-1.42,5.16-2.74,7.76-4.07,1-.53,2.27-.83,2.84-2.12-4.42,1.93-9.11,3.62-12.51,7.13a8,8,0,0,1-7.54,2.54c-1-.14-2.14-.67-3.28.28,1,1.49,2.34,1.37,3.74,1a71.6,71.6,0,0,1,9.21-1.64c.89-.11,2-.35,2.37.71.29.83-.59,1.4-1.23,1.89a29.11,29.11,0,0,0-4.28,3.31c4.45-2.37,8.67-5.13,13.06-7.6,1.21-.68,2.69-2.3,4-.69,1,1.3-.56,2.55-1.32,3.67-1.58,2.32-3.71,4.21-5.35,6.52-1.1,1.57-3,1.95-4.9,2.42.4,1.72,1.94,2.58,2.59,4a4.51,4.51,0,0,1-4.4.79c-10.09-2.43-18.1-7.63-22.32-17.53a18.93,18.93,0,0,1,.34-15.29c1.82-4.25,3.95-8.37,5.91-12.57,1.41-3,2.9-6.08,7.16-5.37l2.93-.69c.59-.24,1.19-.5,1.14.57,0,2.45-.62,4.41-3.27,5.33-.34.12-.42,1.91-.1,2.71s1.4.15,2.14.21c.36,0,1.58-.92,1,.45-.31.79,2.09,1.63-.21,2.22a16.32,16.32,0,0,0-4.36,2c-.71.43-2.37.35-1.95,1.62.52,1.55,1.66-.38,2.52,0C184.32,167.14,184.94,166.87,184.93,168Z"/><path class="cls-5" d="M362.14,330.12c-1.28.06-2.28,2.54-3.2,1.27-1.07-1.49,1-2.5,2.14-3.31,2.66-2,5.45-3.75,8.27-5.67-.87-.92-3-.24-3.14-2s1.27-2.65,2.42-3.56,2.38-1.62,1.21-3.49c-.48-.76.46-1.64,1.09-2.3a27.17,27.17,0,0,1,5.62-4c1.22-.75,3.44-.9,1.86-3.4-.45-.71.77-1.51,1.46-2.07,1.47-1.2,3-2.34,4.58-3.58-.89-1.14-2.85-.22-3.11-1.93a3.48,3.48,0,0,1,1.57-3.4c2.87-1.73,1.63-4.76,2.25-7a19.39,19.39,0,0,1,4.59-7.86c3.65-4.08,5.41-9.11,8-13.73.47-.85,1.22-.91,1.76-1.42.84-2,2.45-3.61,3-5.75,1.06-3.86.67-7.84.26-11.67-1.28-11.77-1.62-23.66-4.48-35.24a28.68,28.68,0,0,0-4.36-9.51c-5.66-8.22-13.57-13.87-21.74-19.25a14.45,14.45,0,0,1-1.16-.94c-.3-.34-.77-.71-.54-1.19s.72-.51,1.15-.11c9.3,5.36,17.83,11.6,24,20.64A27.22,27.22,0,0,1,400.1,209a238,238,0,0,1,5,43.64c.11,3.45-.52,6.63-2.71,9.33a10.78,10.78,0,0,0-2.28,7.84c.31,5.51.75,11-.05,16.56-.44,3-1.38,5.75-.06,9.28,1.77,4.79.07,10.12-2.21,14.86a9.58,9.58,0,0,0-1,3.71c-.46,7.48-4.37,13-10.34,17.14a1.23,1.23,0,0,1-1.67,0c4.15-4.44,8.56-8.73,10-15.31l-2.95,1.87a3.42,3.42,0,0,1-3.42.55c-1.7-.64-.94-1.36.06-2a9.64,9.64,0,0,0,5.23-4.29,23.77,23.77,0,0,0,3.94-14.84c-1.56.61-2.58,1.7-3.85,2.33-5.8,4-12.16,7-17.74,11.13,2.4.88,2.68,2.07.67,3.76s-4.27,2.62-6,4.41c0,.62.51.57.85.69,2.63.94,3.08,2.33,1,4a34.9,34.9,0,0,1-9.47,5.72Z"/><path class="cls-6" d="M183.81,153c-4.07.17-5.41,3.35-6.87,6.33q-2.64,5.43-5.13,10.92a20.27,20.27,0,0,0,6.38,25.31c2.32,1.76,4.71,3.44,7.14,5,2.74,1.79,5.85,2.38,11.2,2.37-1.72-.55-2-2.85-3.88-3.29-.34-.08.3-1.1.89-1.22,3.24-.66,6.38-1.4,7-5.41,2.63-.51,3-3.26,4.61-4.75.49-.45,1.55-1.13.72-1.94s-1.49.21-2.12.59c-4.14,2.47-8.26,5-12.38,7.51a10.08,10.08,0,0,1-1.27.81c-.92.37-2,1.82-2.82.47-.68-1.19,1-1.73,1.79-2.34,1.75-1.29,3.58-2.47,5.27-3.91a54.67,54.67,0,0,0-11.23,1.77,4.06,4.06,0,0,1-4.66-1.14c-.39-.46-.85-.94-.5-1.6s.84-.5,1.32-.47c1.41.1,2.81.32,4.21.34,2.25,0,4.53.35,5.82-2.42.48-1,2-1.65,3.1-2.29,3.06-1.74,6.18-3.37,9.25-5.08.84-.47,1.72-1,2.35.07s-.24,1.7-1.05,2.14c-2.92,1.57-5.87,3.09-8.81,4.62-.88.46-1.76.89-3,1.54,4.38.44,7.47-1.51,10.54-3.45,1.45-.9,2.68-2.25,4.22-2.9,5.15-2.16,6.74-6.5,7.47-11.47l1-1c.24.4.77.87.69,1.19-.92,3.88-1.19,8.07-4.81,10.74-1.45,2-3.95,2.57-5.47,4.1,1.58-1,3.17-2.47,5.25-2.94,1.45-.32,3-.38,2.13,2-3.37,4.54-7.94,8.18-10.42,13.51,1.26.79,2.3.06,3.34.1,1.2,0,3.6-1,1.93,1.93-.39.69,0,.56.41.61.76.1,1.82-.17,2,.83.3,1.33-1.33,1.25-2.08,2.49,1.41.1,2.61.15,3.81.28s2.88-.27,3.81,1.23a1,1,0,0,0,1.34.3c3.07-1.07,6.35-.43,9.46-1.15.58-.14,1.56-.41,1.72-.17,1.81,2.56,4.31.48,6.28,1.08,2.16.66,4.18,1.58,6.54,1.38.74-.06.87.68.65,1.34-.58,1.73.93.58,1.32,1,1.49-.23,3-.81,4.43.18a2.86,2.86,0,0,1-.48,2.84,1.35,1.35,0,0,1-1.26.32c-.47-.05-.43-1-1.32-.56-1.44.72-2.8.16-4-.84a20.17,20.17,0,0,1-3,.23c-4.33-.31-8.67-.69-13-1.08a12.63,12.63,0,0,0-4.46.3c-3-.85-6.14,0-9.29-.55-4.32-.75-8.47-2.09-12.75-3-1.15-.23-2.3-.55-3.48-.7-12.21-2.42-21.27-8.63-25.26-20.94-1.84-5.67-.38-11,2.18-16,2.72-5.37,4.77-11.1,8.37-16a10.81,10.81,0,0,0,1.05-2.79c.79.6,2.63.14,1.72,2.37C181.05,153.55,183.06,152.62,183.81,153Z"/><path class="cls-7" d="M313.74,169.89c15.87-4.09,31.36-9.15,45.37-17.93.38-.24,1-.25,1.09-.88,2.3.62,2.54,2.13,2.37,4.32-.34,4.21-1,8.55,2.55,12.08,1.49,1.49-.78,1.76-1.3,2.61-7.27,2.27-14.58,4.39-21.76,6.9-1.76.62-5.26.07-4.53,3.9-5,4.27-8.06,10.93-15.71,11.81-2.64.3-5.17,1.56-7.92.67-3-.34-4.95-2.4-7-4.34l-2.7-1.21c-5.49-2.47-6.69-5.81-4.09-11.36a.73.73,0,0,1,.78-.17c1.09,1.32.09,2.53-.12,3.79a10.28,10.28,0,0,0,.73-4.36c.71-1.94.31-4.53,3.1-5.23a12.59,12.59,0,0,0,4.41-.87c.95-.3,1.93-.77,2.75.28a15.51,15.51,0,0,0-2.84,6.24C310.08,173.8,310.41,170.66,313.74,169.89Z"/><path class="cls-2" d="M394.08,312.66a6.9,6.9,0,0,1-4.81,4.13,25.57,25.57,0,0,1-3.08.5c1.49,1.53,3.59.61,5.41,1.1-2.78,5.75-7.3,10.17-11.49,14.82a3.74,3.74,0,0,1-4.74.49c-1.75-.95-2-2.59-1.9-4.39,0-.8,1.3-1.79-.48-2.4-1.34-.46-2.33-.75-3.39.58-1.68,2.12-3.76,3.33-6.53,1.87,2.28-2.16,5.09-3.54,7.71-5.21,1.06-.68,2.74-1.15,2.46-2.7-.31-1.78-2.11-1-3.28-1.24-.29-.06-.59-.1-1.13-.19,1.24-2.31,3.53-3.2,5.39-4.57.72-.54,1.52-1,2.27-1.49s1.48-.93,1-1.89-1.32-.64-2.11-.41a2.8,2.8,0,0,1-1.56,0c6.2-4.77,13.06-8.46,19.64-12.58C394,303.63,397.1,308,394.08,312.66Z"/><path class="cls-8" d="M289,314.8c3.48,5.46,7.81,10,13.78,12.79.5.61.24,1.08-.28,1.5a3.13,3.13,0,0,1-3.36-.54c-2.93-2.31-6.57-3.26-9.65-5.25-1.18-.75-1.8-.7-2,.78-.57,3.18,1.4,1.18,2.4,1.17s2-.05,2.43,1.13a2.58,2.58,0,0,1-1,2.87,48.78,48.78,0,0,1-6.83,4.67c-2,1.1-4.05,2.22-6.17,3.12-1.63,1-3.58,1.43-5.11,2.66-1.87.72-3.73,1.46-5.62,2.12-.9.32-2.16.88-2.61-.33s.88-1.66,1.73-2.1c3.14-1.59,6.34-3.05,9.43-4.72,2.7-1.46,5.27-3.14,7.9-4.73.85-1.09-.94-.78-.8-1.49-.1-.68-.3-1.18-1.1-.62-.65.46-1.29.92-1.95,1.36-1,.78-2.32,1.19-3.3,2.06-.89.46-1.77.94-2.67,1.37s-2,1-2.65-.14.45-1.85,1.24-2.42c2.83-2.05,5.67-4.11,8.59-6,1.41-.93,1.37-2,.91-3.34-.55-1.56-1.67-.53-2.53-.53-1.19,0-2.36.49-3.56.07a1.68,1.68,0,0,1-1.17-1.77c-.08-1.21,1-1.92,1.4-3.28-3-.24-4.08-2.19-4.09-4.94a3.07,3.07,0,0,0-.7-1.65,3.05,3.05,0,0,1-.34-3.23c.25-.9,1.08-1.63.69-2.68-.29-.52-.24-1.2-.76-1.61q-2.4-4.86-4.79-9.71c-2.4-2.8-3-6.36-4.11-9.69-.74-1.14-2.3-.17-3.1-1.18a5.24,5.24,0,0,1-1.2-3,.91.91,0,0,1,.34-1.44A5.59,5.59,0,0,0,264,277c.57.2,1.16.38.86,1.2,1.23,4.3,2.31,8.66,4.81,12.48.62.51.18,1.31.52,1.89,2.12,6.25,6.5,10.85,11.25,15.12a17.76,17.76,0,0,1,3.84,4.9c.73.54,1.67,1,1.95,1.84C287.66,315.82,288.4,314.78,289,314.8Z"/><path class="cls-9" d="M285.78,145.71c1.61,2.12,4.29,1.43,6.39,2.19s4.49.71,6.41,1.52c3.36,1.42,5.9-.37,8.77-1.08a46.6,46.6,0,0,0,11-4.15c3.89-2.09,9.35-1.88,11.13-7.26.17-.51.74-1.22,1.37-.86,1,.56.09,1.31-.21,1.74-2.46,3.51-3.87,7.7-7.16,10.67,1.19.75,2.54-1,3.44.36.78,1.19-.44,2-1,3.21,3-.85,3.38,1.86,4,3.3s-1,2.71-2.89,3.21c.87-3.44,0-4.21-3.48-3.36-.61.15-1.2.32-1.67-.22a1.24,1.24,0,0,1,.07-1.65c.45-.64.94-1.26,1.59-2.11-1.38-.54-3.16,1.07-4-1-.17-.4-1,.38-1.42.76-1.59,1.4-3.15,2.82-4.74,4.2-.94.83-1.95,1.82-2.68-.17-.19-.52-.44-.69-.8-.29-2.11,2.29-3.31.83-4.43-1.35A12.14,12.14,0,0,0,308,160.8a26.4,26.4,0,0,1,2.57,4.41c.37.7.71,1.72-.13,2.17s-1.38-.51-1.72-1.21c-1.81-3.66-4.59-6.83-5.34-11a3.09,3.09,0,0,0-2.36-2.81l-.6-.58a69.44,69.44,0,0,1-12.14-3.62c-1.56.11-3,0-3.59-1.82C284.59,145.27,285.07,145.28,285.78,145.71Z"/><path class="cls-10" d="M207.29,170.39c-7.87,2.65-14.4,8-22.14,11,3.2-4.37,8-6.57,12.45-9.53-1.37-1-2.79-.78-4.16-.84,3.51-1,6.32-3.33,9.59-4.78,4.13-1.84,8.23-3.66,7.93-9.34A9,9,0,0,1,212.2,153a19.26,19.26,0,0,1,5.27-8.09,7.12,7.12,0,0,1,3.08-2.77,2.24,2.24,0,0,0,1.84-1c1-1.85,3.13-2.52,4.15-4.31,3.55-3.7,7.38-6.48,12.92-4.18.82.35,2.34,1.31,2.72-.24s-1.21-1.5-2.3-1.64a2.53,2.53,0,0,1-1.64-.62c2.44-2.15,5.1-1.86,7.83-.68-.36,2.07.49,3.29,2.45,4.07s3.28-.11,4.32-1.59c.87-1.22,2-2.23,2.85-3.44.48-.46,1.06-.31,1.63-.29-.83,2.69-1.19,5.65-2.6,8-1.75,2.89-4.81,3.16-7.85,1.6a6.72,6.72,0,0,0-3.65-1.21,13.8,13.8,0,0,1-5.79-1c-2.62-1.09-4.81.32-7.11,1.13-4.74,4-9.56,8-13.35,12.92a15.18,15.18,0,0,0-3.29,8.27,14.09,14.09,0,0,1-3.34,8.48,9.17,9.17,0,0,0-.66,1c-.88,1.34-2.67.62-3.68,1.63C206.4,169.48,207.48,169.36,207.29,170.39Z"/><path class="cls-11" d="M299.21,161.46c3.9.07,6.52,1.81,7.08,4.71-.25,1.92-1,2.07-2.22.64-2.62-3-2.84-3-6.63-1.64-1.53.55-3.1,1.63-4.83.43-4.48-2.7-9.35-1.07-14-1.11-2.06,0-3.94,0-5.63-1.28-1.72-1-3.53-.43-5.31-.33-6,3.56-12.41,2.47-18.76,1.89a5.26,5.26,0,0,0-2.56.17,13.76,13.76,0,0,1-8.89.2,19.67,19.67,0,0,0-14.56,1.22c-2.2,1.07-4.68,2-7.14.34.1-.28.18-.81.3-.81,4.49-.26,8.29-3,12.72-3.47a29.2,29.2,0,0,1,11.21.36c2.13.57,4.34-.21,6.52-.09a16.05,16.05,0,0,1,6.86.32,15.78,15.78,0,0,0,11.45-.93c1.35-.66,2.79-1.13,4.19-1.67a3.84,3.84,0,0,1,4.68.91c1.28,1.43,2.85,1.49,4.67,1.35,4.66-.37,9.29-1,13.93.77C294.71,164.38,297.12,163,299.21,161.46Z"/><path class="cls-12" d="M302,328.87a1.3,1.3,0,0,0,.78-1.28c1.06-.28,2.41,2.44,3.36-.48.28-.89,1.71.42,2.66.53l0,0c2,3.27,5,4.63,8.74,4.79a16.87,16.87,0,0,1,6.6,1.65h-7l-.11.77c7.38,3.66,15.49,4.33,23.55,5.2.86.39,2-.19,3.27,1.33-8.39,1.48-15.92-.43-23.45-2.29a10.9,10.9,0,0,1-4.34-1.35,25.05,25.05,0,0,1-6.94-5.6c-1.11-1.22-2.3-1.88-3.95-1.2a7.75,7.75,0,0,1-3.36-.62C301.13,329.68,301.56,329.27,302,328.87Z"/><path class="cls-13" d="M274.65,239.32l3.26-3c.95,1.17-.2,1.91-.33,2.9,1.15.08,2.42-1.11,3.46.18a3.29,3.29,0,0,1-1.23,1.17c-4.68,1.43-7.79,5.4-12,7.51-6.13,3.11-12.2,6.53-19.12,7.8a6,6,0,0,1-3.89-1.38l-6-5.48a65.54,65.54,0,0,1-5.57-6.55,10.6,10.6,0,0,1-1.31-4c-.17-.61-.33-1.21.41-1.57a98.37,98.37,0,0,1,7.65,9c.54.72,1,1.52,1.55,2.21,4.79,5.58,4.79,5.58,11.61,3,7.13-2.73,14.11-5.72,19.83-11A2.26,2.26,0,0,1,274.65,239.32Z"/><path class="cls-14" d="M250.24,100.48c-1.49.56-3,.88-3.85,2.65-.69,1.4-2.49,1.06-3.83.59-1.64-.56-3.14-1.35-3.26-3.46-.06-1.07.65-2.55-1.19-2.93-.2-2.17,1.57-3.75,1.91-5.76-2.11-.85-2.72,1.44-4.2,1.76-2.11-.92-1.52-2.34-.7-3.81a6,6,0,0,1,8.48,1.26c.45.56.81.35,1.25.32,4.14-.24,6.51,2.18,8.3,5.49-.15,1.23-1.08,1.78-2,2.3C250.48,99.24,249.93,99.61,250.24,100.48Z"/><path class="cls-15" d="M301.44,329.93c1.26.13,2.59-.12,3.73.67a1.18,1.18,0,0,1,1,.8c0,3.25-2.54,4.32-4.83,5.61-.43.36-1.13.33-1.41.93a2.35,2.35,0,0,1,.57.13c.37.2.61.45.5.9a80.28,80.28,0,0,0-12.88,3.71c-1.21.44-3,1.6-3.72-.08s1.49-2,2.65-2.49c4.54-1.85,9.12-3.62,13.24-6.35a3.63,3.63,0,0,0,1.8-1.86,107.29,107.29,0,0,0-15.48,3.6c-.68.26-1.32.44-1.36-.65,2.7-2.79,6.37-3.56,9.89-4.48C297.15,329.84,299.24,328.55,301.44,329.93Z"/><path class="cls-16" d="M293.28,117.23c0-.82.41-1.35,1.28-1.27,3.81.37,7.48,1.34,10.35,3.93,1.34,1.22,3,3.07-.29,4.58-2.2,1-4.07,2.71-6.14,4-.81.52-1.7.65-2.31-.4-.72-.2-1.54-.25-1.86-1.13-.93-1.58-1.06-4,.09-4.53,1.45-.63,3.38-2.67,5.42-.55.37.39,1.34.3,2,.25s1.24-.4,1.23-1c0-.34-.57-.85-1-1C299.13,119.23,296.44,117.5,293.28,117.23Z"/><path class="cls-17" d="M311.8,73.62c.09,1.82,1.22,1.73,2.49,1.37-1.59,2.12-4,3.24-6,4.93a11,11,0,0,0-4,8.07A10.35,10.35,0,0,1,299.65,96c-2.71,2-4.37,5-6.95,7-1.18,1-.77,1.86-.06,2.86a35.67,35.67,0,0,1,2.63,4c.58,1.12-.53.56-.92.69a4.65,4.65,0,0,1-1.32-1.14l-2-2.62c-1.48-1.91-1.4-3.61.49-5.26,2.71-2.38,4.66-5.49,7.65-7.65a8,8,0,0,0,3.37-6.15,13,13,0,0,1,6.6-10.56A6.12,6.12,0,0,0,311.8,73.62Z"/><path class="cls-18" d="M294.31,127c.67.3,1.48.37,1.86,1.13-1.17,1-2.28,1.66-4,1-1.56-.59-2.39.49-2.54,2.06-.18,2,1.15,1.27,2.17,1.3,1.47,0,3.41-.61,3,2.32-.1.59,2.8,1.75,1.5,2.8s-3.46-.71-4.3-1.78c-1.74-2.21-2.23-.88-3.09.47s-2,2.79-2.84,4.26a5.61,5.61,0,0,0-.24,5.18l-1.12.6c-2.09-2.78-.8-5.35.69-7.74s3.83-4.51,3.1-8c-.34-1.63,1.26-2.49,2.84-2.93C292.29,127.34,293.51,128.07,294.31,127Z"/><path class="cls-19" d="M300.85,336.6c2.07-1.42,4.56-2.47,4.91-5.44,1.86-.22,2.84,1.21,4.08,2.16,2,1.5,3.62,3.48,6.26,3.9l4.24,1.84c-2.09.36-4,1.48-6.25,1.1a.66.66,0,0,1,.48-.63c0-.08-.12-.06-.17-.06-1,.09-1.91.62-2.89.73s-2.41.41-2.64-.74c-.59-3-2.58-2-4.37-1.81-.49.07-1,.22-1.48.26C302.08,337.83,301,338,300.85,336.6Z"/><path class="cls-20" d="M303.42,337.29c1.35-1.1,3.08-.9,4.54-.89,2.29,0,1.44,1.76,1,3.09,1.83.5,3.53-.37,5.29-.29.16,0,.92-.39.5.41-.13.23-.43.37-.65.55L302.53,343c-1.07.26-2.3.64-2.8-.76s.71-1.85,1.62-2.46c.26-.18,1.09.17.75-.58-.09-.21-.73-.17-1.12-.25l-.47-.48c-.36-1,.36-.88.91-.93S302.8,337.74,303.42,337.29Z"/><path class="cls-21" d="M275.55,318.39l.66,1.83a99.44,99.44,0,0,0-20.68,20.26c-.28-2.55,0-3.37,2-5.82,3.91-4.87,8.7-8.83,13.31-13C272.14,320.2,273.42,318.68,275.55,318.39Z"/><path class="cls-22" d="M276.22,111.33c.34-2.6.11-4.93-3.24-5-1.4,0-.25-2.12-1.74-1.78,2.63-1.18,5.1-.57,6.47,1.59,2.44,3.88,1.11,16.19-2.11,19.58.2-1.64.46-3.28.58-4.92.07-.93.33-2.1-1.16-2.3-.89-1.38.09-2.48.52-3.67C276.27,113.75,276,112.48,276.22,111.33Z"/><path class="cls-23" d="M275.55,318.39c-1.06,1.83-3.29,2-4.72,3.28.44-.86,0-1.71-.05-2.56.33-2.9-1.18-5.63-.77-8.52.17-1.17-.16-2.87,2-2.51.42.24.85.42,1,1,.89,4.45.9,4.45,4.79,5.91C277.49,316.43,275.73,316.9,275.55,318.39Z"/><path class="cls-24" d="M31.23,151.26c1.67-3.9,4.22-6.39,6.58-9.07s5.91-4.3,6.61-8.25a.66.66,0,0,1,.85-.6,1.48,1.48,0,0,1,.75.82,3,3,0,0,1-.7,3.08Q39,144.07,32.6,150.84C32.43,151,32.08,151,31.23,151.26Z"/><path class="cls-25" d="M244.84,254.45l4.3.73c-1.19,2.07,0,3.68,1.18,5.15a90.91,90.91,0,0,1,7.49,12c.64,1.15,1.78,2.31.9,3.87l-.67,1.3c-3.81-7.35-9.39-13.72-12.11-21.68A5.39,5.39,0,0,0,244.84,254.45Z"/><path class="cls-26" d="M44.5,51.66c-2.5-1.34-4.14-3.43-6.2-5-4-3-7.63-6.47-12.32-8.42a1,1,0,0,1-.68-1.42c.27-.75.9-.67,1.5-.52a2.73,2.73,0,0,1,.82.36A74.92,74.92,0,0,1,43.87,49.44,2,2,0,0,1,44.5,51.66Z"/><path class="cls-27" d="M232.71,236.94c-.58.3-.54.92-.72,1.43-1.75-2.49-2-5.41-2.22-8.3-.05-.49-.13-1.29.13-1.45,3.73-2.37,2.49-8.43,7.44-9.92,1.44-.43.58-1.93.92-2.9,1,0,1.23.69,1.52,1.39.35,1.81-.85,2.74-2.08,3.63-1.43,1.05-2.52,2.25-2.49,4.18a3.12,3.12,0,0,1-.91,2.16c-1.2,1.27-2.51,2.18-.8,4.4C234.48,232.82,233.28,235.15,232.71,236.94Z"/><path class="cls-28" d="M193.75,205.09a32.2,32.2,0,0,1,13.33,2.75,3.57,3.57,0,0,0,2.35-.1c.95-.2,1.93-.77,2.56.59.38.83,1.15.69,1.83.41a6.14,6.14,0,0,1,5.45.55C210.31,210.65,201.87,208.82,193.75,205.09Z"/><path class="cls-29" d="M239.51,217.06l-1.25-1.26a8.11,8.11,0,0,1,1.46-6c1.76,0,3.63,1.54,5.36-1.08l-.28,2.11c-.46.91-1.71,1.09-2,2.22.4.88,1.36.5,2,.78,1.51.63,1.63,1.43.33,2.32a5.68,5.68,0,0,0-2.26,2.7c-.29.77-.83,1.49-1.77,1.32-1.09-.2-.9-1.16-.89-1.94A1.3,1.3,0,0,0,239.51,217.06Z"/><path class="cls-30" d="M272,308.08c-1.22.12-1,1.06-1,1.81a28.51,28.51,0,0,0,.69,8c.17.67.66,1.8-.93,1.19-2.74-5.25-1.8-10.7-.92-16.15a3.42,3.42,0,0,1,1.38-1.9,1.42,1.42,0,0,1,1.25,1.3c-.18,1-.92,1.83-.49,2.89C271.92,306.2,271.19,307.14,272,308.08Z"/><path class="cls-31" d="M246.47,162.69a8.93,8.93,0,0,1-7.48.74,35.33,35.33,0,0,0-10.26-1,50.42,50.42,0,0,1,12.46-1.69C243.24,160.62,244.85,161.65,246.47,162.69Z"/><path class="cls-32" d="M32.3,75.14c-4.72-.79-9.5-.76-14.24-1.22a2.32,2.32,0,0,1-2-1.09,1.29,1.29,0,0,1,.08-1.42c.24-.34.64-.59,1-.29,2.53,2,5.55.79,8.31,1.3C27.88,72.86,30.39,73,32.3,75.14Z"/><path class="cls-33" d="M61,80.26a27.11,27.11,0,0,1,.07,4.5c-.55,4,1.8,8.09,0,12-1.71,3.7-1.55,7.66-2.33,11.48q0-5-.08-10c.17-3.18-.61-6.49,1.26-9.44C60.9,86,60.13,83,61,80.26Z"/><path class="cls-34" d="M168.07,137.08c3.34-1.42,6.08-4.65,10.31-3.45,2,1,4-1.12,6,.11l1.2.94c-.91,1.33-2.35,1.45-3.73,1.49a13.15,13.15,0,0,0-4.08.86,1.85,1.85,0,0,1-1.42-.34A37.28,37.28,0,0,0,168.07,137.08Z"/><path class="cls-35" d="M262.88,281l3.57,10.36c-1.9-.8-4-1.22-5.31-3.09-.25-1.69-1.42-3.2-.65-5.09C261,282,261.5,281.08,262.88,281Z"/><path class="cls-36" d="M230.32,136.63c2.34-2.26,4.86-3.28,8.08-1.63a29.13,29.13,0,0,0,4.82,1.53C238.94,138.65,234.63,137.52,230.32,136.63Z"/><path class="cls-37" d="M37.75,102a60.06,60.06,0,0,1-12.42,6.39,1.38,1.38,0,0,1-1.82-.64,1.94,1.94,0,0,1,.06-1.42c.53-1.08,1.05,0,1.62,0,1.35.16,2.39-.85,3.57-1.37C31.64,103.7,34.25,101.69,37.75,102Z"/><path class="cls-38" d="M176.38,136.69l1.32-.08c4.05-.37,8-2.26,12.16-1-2,.24-2.28,2-3,3.44-.46-1.56-1.71-.76-2.51-.66-2.74.37-5.39-.31-8.07-.52C174.3,137.67,177.15,137.15,176.38,136.69Z"/><path class="cls-39" d="M143.28,58.75c-.58.93-.11,1.39.72,1.8,1.4.69,2.77,1.46,4.15,2.19-.22.78,1.1,1.12.56,2l-1.74,0A9.1,9.1,0,0,0,142.55,63c-.78-.28-1.72-.28-2.11-1.24-.69-.54-1.82,0-2.64-1.29,2.88.52,2.7-1.14,2.42-2.87Z"/><path class="cls-40" d="M159.86,66.59c-.84-1.47-2.39-1.8-3.8-2.25-.82-.26-1.33-.43-.74-1.35a94.61,94.61,0,0,1,13.36,4.82l.73.84c-.23.11-.48.35-.68.32-.95-.15-1.88-.37-2.82-.57C163.51,69.05,161.76,67.6,159.86,66.59Z"/><path class="cls-41" d="M225.87,87.62c.14,1.51-.48,2.59-2,1.75-3.38-1.86-7.14-2.75-10.61-4.38-.84-.39-2.38-.51-1.18-2.1a22,22,0,0,1,6.18,2.21c1.9,1.63,4.37,1.82,6.62,2.56Z"/><path class="cls-42" d="M76.29,148.57A16,16,0,0,1,89.15,147c-2.6,1.26-5.21,2.05-8.21,1.38C79.48,148,77.84,148.47,76.29,148.57Z"/><path class="cls-43" d="M293,109.48a1.85,1.85,0,0,1,1.32,1.14c-.64.28-1.13.34-.62,1.41,1.11,2.31-.09,3.64-2.42,4.13C290.41,113.55,290.54,111.21,293,109.48Z"/><path class="cls-44" d="M285.27,334.88l1.32.62-13.39,4.2c1.16-1.65,3-2.32,4.72-3.08,2.56.06,4.38-2.44,7-2C285.06,334.69,285.16,334.79,285.27,334.88Z"/><path class="cls-45" d="M371.66,178.94c-1.09,0-.8.69-.61,1.3-3-2.2-5.8-4.56-5.57-8.82A34.33,34.33,0,0,0,371.66,178.94Z"/><path class="cls-46" d="M233.3,242.42c2.76,1.41,4.37,3.81,5.57,6.55C236.14,248.57,234,246,233.3,242.42Z"/><path class="cls-18" d="M288.25,148.13a45.19,45.19,0,0,1,12.14,3.62A20,20,0,0,1,288.25,148.13Z"/><path class="cls-47" d="M209.56,166.83l.78-.53c.08,1.59,1.71,1.91,2.44,3-.86,2.36-2.7,3.64-5,4.51.18-2.05.17-2.09,2-2.64.68-.21,1-.53,1.07-1.22C210.8,168.73,208.88,168.34,209.56,166.83Z"/><path class="cls-48" d="M250.24,100.48c-.62-.13-1.55.34-1.79-.44s.72-1,1.26-1.34c1.14-.72,2.29-1.41,3.44-2.11.58.86,1.32-.11,1.95.17-.76,1.14-2.16,1.75-2.61,3.16S251,100.13,250.24,100.48Z"/><path class="cls-49" d="M59.92,88.77l-1.26,9.44c-1.18-2.49-.39-5.13-.53-7.7C58.07,89.42,59,89,59.92,88.77Z"/><path class="cls-50" d="M64.85,150c2.48-.22,4.91-1,7.44-.7C69,152.2,67.66,152.33,64.85,150Z"/><path class="cls-25" d="M262.88,281c-2.32,1.76-3,3.88-1.31,6.44.46.69.19.8-.43.83a5.58,5.58,0,0,1-1.39-4.41c0-1.13.59-2.4-.51-3.37C260.42,280.92,261.79,280,262.88,281Z"/><path class="cls-51" d="M228.47,87c.49-.87,0-1.15-.76-1.22,2.33-2.19,4-1.44,5.12,1.23l-2,.3.63.94C229.91,89.24,229,88.52,228.47,87Z"/><path class="cls-52" d="M283.54,328.24c.39,1,1.5.11,2,.86-.31.5-.65,1.08-1.48.84-2.59-.69-4.67,1.43-7.15,1.31a5.66,5.66,0,0,1,2.92-2.51C281.12,329.1,282.11,327,283.54,328.24Z"/><path class="cls-53" d="M391.6,318.39c-2.81.51-5.45-.39-8.17-.92,1.86-1.19,3.9-.56,5.84-.68l-1.49,1.13h4.05A.73.73,0,0,1,391.6,318.39Z"/><path class="cls-54" d="M224.89,87.66c-2.62.2-4.75-1.16-7-2.17a.75.75,0,0,1,.11-.24,1.61,1.61,0,0,1,.26-.15C220.48,85.94,222.85,86.37,224.89,87.66Z"/><path class="cls-39" d="M137.83,56.91a4,4,0,0,1-.32,1.21c-1.14-2-3.81-1.45-5.08-3.15A14.72,14.72,0,0,1,137.83,56.91Z"/><path class="cls-4" d="M239.51,217.06c.63-.36,1.45-1.29,1.6.31a25.92,25.92,0,0,0,0,2.77c1.59-1.76,1.4-5.19,5-5.09-1.68-.38-3-1-4.62-.57.5-1.87.67-3.86,3.32-3.61l1.17,0a20.44,20.44,0,0,0,8.59-1,3.38,3.38,0,0,1-2.22-.08c-1-.42-1.21-1-.14-2.19-1.27.46-1.92,1.19-2.77,1.5s-1.91,1.13-2.39-.51c.23-1.52,1.4-2.58,1.94-4s2.16-1.59,3.59-1.09a10,10,0,0,1,5.89,4.75,8.66,8.66,0,0,1,1.29,2.6c.24,1.69,1.32,2.23,2.78,2.43,1.5.94,1.55,3,3.28,4.13.21-1.31-.69-1.84-1.27-2.5-.78-.89-1.39-1.93-.58-3s1.87-.23,2.71.19c4.59,2.27,8.43,5.16,8.62,10.92a1.91,1.91,0,0,0,1,1.72c1.05,3.67.23,7.15-1.09,10.57-.51,1.31-1.27,2.56-.58,4a42,42,0,0,1-12,8.38q-6.18,2.69-12.4,5.35c-2.31,1-3.95,1-5.77-1.1-4.19-4.81-8.73-9.32-11.8-15,0-1-1-2.07,0-3.12-1-.54,3.07-3.09-1-2.63-.25,0-.68-2.5.7-3.33a4,4,0,0,0,2.28-4.12c-.11-1.67,1.34-2.71,2.64-3.4A3.94,3.94,0,0,0,239.51,217.06Z"/><path class="cls-55" d="M325.09,290.16c-1.92.59-2.6-.31-3.61-2-1.36-2.26-4.43-2.64-6.74-3.64a18.3,18.3,0,0,1-6.64-5c-1.9-2.18-4.37-3.84-5.91-6.35-.34-.44-.36-1,.1-1.2s.86.15,1.12.56c4.52,4.23,8.12,9.61,14.5,11.5,1.27.3,1.46-.42,1.47-1.46,0-.76-.36-1.92,1.17-1.71.48,0,1.34.14,1.27-.37-.38-2.54,0-5.48-1.77-7.43-1.63-1.78-1.28-2.77.35-3.8,1.94-1.22,4-2.24,6-3.35.67-.74-.34-2.06.89-2.61,1.91.52,3.4.08,4.23-1.86-.05-.59-.69-1.1-.27-1.76.49-.88,1.66-.57,2.26-1.26l-.06.06c1.38-.65,1.48.74,2.09,1.32,1.73,2.25-1,3.23-1.4,4.86-.46,1.11-1.51.87-2.38,1-1.69,1.15-3.59,2-3.32,4.73.18,1.9-1.57,1.89-2.93,1.66-.34,1.17.37,1.71.82,2.32,1.41,1.93,1.36,4.11-.31,5.45-2.23,1.8-1.38,4.22-2,6.3-.39,1.23,1.23,1.65,1.83,2.52.22.41.73.8.48,1.27S325.55,290.45,325.09,290.16Z"/><path class="cls-56" d="M312.48,264.1c-1.53,2-2.28,4.32-3.23,6.93-1.92-2.11-.62-3.72.16-5.26s1-2.48-1.15-3c-4.46-1.07-4.58-1.66-1.32-5.45-2.64-1.55-6-.24-8.44-2.13-.12-.67-1.57-.22-1.15-1.35l2.1-2.33c-2.58-.24-4.91.4-7.13-.46-.52-.2-1.32.15-1.56-.58-.3-.91.56-1.12,1.11-1.53s1.47-.7,1.69-1.57c-1.46-.94-4.53,1.35-4.25-.36.38-2.36-4-3.13-1.37-5.13,1.47-1.12,3-2.74,5.23-2.53-1.15,2.18,4.56,2,.88,5,2.19-.17,3.59-.21,5-.41,2.37-.32,2.55.7,1.55,2.47,1,.48,1.83-.15,2.7-.23.55,0,1.07.06,1.14.67s-.51.79-1,1a22.73,22.73,0,0,1-6.43,1.76c2.34-.5,4.69-1,7,0v0c.37.33,1,.53.68,1.25l-4.5,3.34c2.57.38,4.61.61,6.63,1,1,.19,2.35.16,2.71,1.51.33,1.2-.7,1.76-1.4,2.46-.35.34-.67.72-1.22,1.31,2.08.74,4.19,1.1,5.5,2.86a.57.57,0,0,1,.17.47C312.55,264,312.52,264.1,312.48,264.1Z"/><path class="cls-57" d="M256.66,201.42c-1.32-.95-2.05-2-.5-3.35a2.49,2.49,0,0,0,.84-2.73c-.49-1.23-1.75-.4-2.65-.6-1.67-.37-4.06.75-4.86-1.37s1.49-3,2.67-4.25l.82-.94c-1.79-.68-4.28.31-5-1.68-.77-2.23,1.79-3.06,2.94-4.46.87-1,2.22-1.42,1.23-3.63-.67-1.49,2.06-2.81,3.67-3.82,1.36-.86,2.58.16,3.68.54.91.3.14,1.45-.42,2-2.95,2.72-3.63,6-2.76,9.81.34,1.48-1,2.54-1.11,4s.1,1.94,1.67,2c4.06.06,4.76,1.5,2.59,5-.39.63-1.71,1.5.32,1.71.87,1.86-.82,1.71-1.71,2.19A2.52,2.52,0,0,1,256.66,201.42Z"/><path class="cls-58" d="M303.41,272.59c-.7-.36-1.22-.35-1.22.64a102.87,102.87,0,0,0-9.62-9.05c-1-.84-1.59-1-2.74-.13a39,39,0,0,1-15.48,7.53,12.34,12.34,0,0,0-5.78,3.67,11.13,11.13,0,0,1-3.76,2.93,1.37,1.37,0,0,0-1.28-.75c1.88-3.75,5.31-5.81,8.75-7.77a19.05,19.05,0,0,1,6-2.12c3.51-.66,6.12-2.94,8.94-4.85,1.47-1,1.28-2.37.64-3.75-2.77-6-3.91-12.72-8-18.13a.91.91,0,0,1,0-.86,1.34,1.34,0,0,1,1.23-.6c2.07.72,2.66,2.66,3.38,4.36q3.46,8.19,6.69,16.48a5.36,5.36,0,0,0,1.66,2C296.33,265.64,300.78,268.2,303.41,272.59Z"/><path class="cls-59" d="M397.87,253.62c-1.41-.7-1.6-2.1-1.88-3.26-.76-3.19-2.85-5-5.78-6-6.8-2.33-13.66-3.89-21-3.07-7.77.88-15.69.67-23.05,3.91-.37.16-.78.1-1.11-.53.65-1.18,2-1.52,3.14-1.8,14-3.32,28-5.57,42.11-.55C396.15,244.39,398.82,248.2,397.87,253.62Z"/><path class="cls-56" d="M312.48,264.1c0-.25-.05-.49-.07-.73.72-1.61,2.34-2.07,3.68-2.88,3.77-2.28,7.54-4.55,11.37-6.74a3.53,3.53,0,0,0,2-3.85,47.28,47.28,0,0,1,.12-7.8c.08-.94-.11-2.75,1.31-2.59s.68,1.76.64,2.75c-.07,1.7.22,3.6-.46,5-1.21,2.58,3.39,3,1.74,5.25s-.26,4,.7,5.93c-.33,1-1.25,1.2-2.13,1.42l-.35-.23c-1.08-3.88-1.13-3.91-3.9-2.25a5.9,5.9,0,0,1-1.81,1c-1,.26-.6.36-.36,1.15.31,1-1.1,1.34-2.1,1.5a13.82,13.82,0,0,0-5.58,1.86C315.76,263.56,314.42,265.09,312.48,264.1Z"/><path class="cls-60" d="M328.08,290.77a5.75,5.75,0,0,1,1.37,2.59c.6,2.4,2,3.73,4.64,3.67a9.48,9.48,0,0,1,7.9,3.74,74.38,74.38,0,0,0,9.42,9.69c.71.62,1.86,1.45,1,2.45s-1.8,0-2.53-.69c-1.64-1.48-3.31-2.92-4.86-4.49-3.09-3.12-6.56-5.88-10.71-7.07-4.62-1.34-6-4.58-6.79-8.58C327.31,291.47,326.94,290.78,328.08,290.77Z"/><path class="cls-61" d="M292.61,165.6a19,19,0,0,0,6-1.68c2.6-1.37,4.88-.19,6.08,2.64.77,1.8,1-.54,1.59-.39,2,2.42.27,3.4-1.66,4.32-1.92,1.29-1.58,3.63-2.48,5.39-.3.47-.52,1.06-1.27.74l-.74-.16c.36-1.05-1.52-1.85-.34-3-.15-1.47,1.05-3.16-.92-4.31s-3.42-.66-5,.4a5.09,5.09,0,0,1-1.37.6c-1.17.35-2.7,1.58-3.45.11-.66-1.28,1-2.14,2-2.9a3.37,3.37,0,0,0,.68-.57Z"/><path class="cls-62" d="M276.32,224.72c-1.27.32-1.76-.58-1.77-1.48-.07-6.75-5.16-9-10.13-11.37-.32,1.25-.2,2.25,1.06,2.82a2.25,2.25,0,0,1,1.4,1.83c.09.84.67,1.93-.52,2.36-.94.35-1.39-.57-1.79-1.25-.82-1.38-1.59-2.79-2.38-4.19-1.91-.86-2.95-2.06-1.66-4.18,1.23-2.9,2.69-1.79,4.11-.21a12.05,12.05,0,0,0,3.95,2.67C274.09,214.35,276.52,218.73,276.32,224.72Z"/><path class="cls-63" d="M291.72,166.8c-.18,1.67-2.45,1.78-2.59,3.62a13,13,0,0,0,6.26-2.6c2.43-1.61,3.58,1.57,5.6,1.33-.45,1.43,1,3.38-1.19,4.32-.88-.53-1.46-1.35-2.88-.79-1.18.46-3,1.62-4-.87-.42-1-1.68.37-2.6.51-1.63.24-3.66,2.37-4.79.15-.92-1.83,1.39-3.05,2.71-4.21A4.43,4.43,0,0,1,291.72,166.8Z"/><path class="cls-56" d="M335.57,259.86l-2.09-1.32c2.75-3.23,6.68-3.2,10.93-3.72a33.09,33.09,0,0,0-9.75-1l4.92-4.06c1,1.12-.86,1.72-.18,2.89,4.59-.31,8.72,2,13.11,3.22.83.23,2.46.13,1.95,1.59-.39,1.12-1.8.77-2.66.38-4.24-2-8.64-1.68-13-.77C337.51,257.36,335,257.07,335.57,259.86Z"/><path class="cls-29" d="M256.66,201.42l1.3-.15c1.19.12.05,3.06,2.46,2,.36-.16.37,1.45.19,2.28L259.37,208c.16.35.32.73,0,1-.65.54-1-.23-1.43-.42-1-2.24-3-3.42-5.13-4.3s-2.25-.68-3.18,1.64c-.41,1-1.56,1.76-2.38,2.63-.22.24-.44.25-.64,0-1.28-1.13-2.88-.12-4.25-.62,1.6-.33,2.87-.66,3.79-2.53,1.57-3.16,4.74-3.81,7.94-2.28l2.6,1.25Z"/><path class="cls-64" d="M320.55,280.92c-.86.46-.44,1.09-.33,1.77.35,2.21-.64,2.41-2.31,1.4-.07-4-2.12-7.52-3.13-11.29-.32-1.18-2-2.85-.63-3.43,1.69-.73,1.81,1.66,2.38,2.78C318,275,319.22,278,320.55,280.92Z"/><path class="cls-65" d="M331.79,265.75c.43-1.18,1.7-.43,2.38-1-.72,5.46-3.42,10.25-5.16,15.36a17.33,17.33,0,0,1-.81,2.26c-.29.58,1,1.87-.58,1.71s-1.08-1.36-.72-2.31c1.31-3.47,2.71-6.92,4-10.41C331.48,269.55,332.7,267.81,331.79,265.75Z"/><path class="cls-66" d="M317.31,262.94c1.81-2.59,5-2,7.47-3.18-.74-1-1.47.38-2.34-.22,1.27-1.32,2.94-1.88,4.44-2.71a5.15,5.15,0,0,0,4.17,3,.34.34,0,0,1,.36,0l1,1.23c-1.48,1.1-3.74.6-4.86,2.42-.91.56,0,1.94-1.11,2.42-.23-5.08-.22-5.07-5.36-3.87C319.82,262.39,318.57,262.66,317.31,262.94Z"/><path class="cls-67" d="M306.93,189c2.58,1,4.59,3,7,4.34-.89,1.74-2.19,1.48-3.4.51A9.13,9.13,0,0,1,306.93,189Z"/><path class="cls-68" d="M212.17,183.16c.22-2.17-.81-2.13-2.29-1.31a60.42,60.42,0,0,1-7.11,3.55,23.59,23.59,0,0,1,7.49-5.39C210.74,181.15,214.34,180.41,212.17,183.16Z"/><path class="cls-69" d="M260.61,205.53c-.06-.67-.12-1.34-.21-2.47l-1.47,2.48c-1.32-1.34-.78-2.89-1-4.27.3-.93,2.31,0,1.86-1.75C261.78,201.3,261.32,203.39,260.61,205.53Z"/><path class="cls-70" d="M257.91,208.57c.53-.09,1.44.76,1.46-.59l1.16,1.28c-.42,1.78.73,2.94,1.66,4.18-1.57,1.24-2.54.12-2.76-1.11A22.73,22.73,0,0,0,257.91,208.57Z"/><path class="cls-71" d="M289,314.8c-1,.47-.27,1.35-.27,2.9-1.16-2.4-3.05-3.2-3.52-5.13C287,312.4,288.52,312.77,289,314.8Z"/><path class="cls-72" d="M270.14,292.55c-.72-.48-.32-1.27-.52-1.89,3.66.14,4.62,2.74,5.35,6.1C272.86,295.58,273.58,291.51,270.14,292.55Z"/><path class="cls-73" d="M304,249.62c-2.45.2-4.92-.12-7.38.4,2-1.49,4.41-1.85,6.8-2.14C301.67,249.11,303.94,249,304,249.62Z"/><path class="cls-74" d="M335.79,311.6a5.28,5.28,0,0,1,.5-.43c1.22-.54,2.45-.92,3.55.2a.78.78,0,0,1,0,.77c-1.08.85-2.05-.23-3.09-.25A3.75,3.75,0,0,1,335.79,311.6Z"/><path class="cls-75" d="M304.69,250.89l-.68-1.25c.59-.06,1.18-.09,1.76-.17s1.34-.54,2,.05c.35.32.2.67-.05,1-.59.84-1.35.57-2.12.4A5.14,5.14,0,0,0,304.69,250.89Z"/><path class="cls-66" d="M297.35,253.84l1.15,1.35c-1.66-.19-1.85,1.91-3.43,2.25C295,255.54,296.06,254.63,297.35,253.84Z"/><path class="cls-76" d="M308.82,327.64c.07-.45-.67-1.44.48-1.16s2.39.2,3.35,1.26c-1.4,1.19-2.62-.27-3.87-.13Z"/><path class="cls-77" d="M402.53,256.85c0,2.44-1.52,4.11-3,5.75C399.75,260.29,401.35,258.68,402.53,256.85Z"/><path class="cls-78" d="M267.63,162.88c1.82-.78,3.69-2.27,5.31.33C271.16,163.28,269.36,163.66,267.63,162.88Z"/><path class="cls-79" d="M328.08,290.77l-.59,1.31-2.4-1.92c1.12,0,1-.72.76-1.43A5.23,5.23,0,0,1,328.08,290.77Z"/><path class="cls-80" d="M320.21,329.63a12.88,12.88,0,0,1-5.79.14C316.73,329.09,318.48,329.53,320.21,329.63Z"/><path class="cls-81" d="M235.39,201.59c1-1.2,1.92-1.09,3.09-.66C237.64,202.27,236.61,201.89,235.39,201.59Z"/><path class="cls-82" d="M97.94,128.16c.46-1.88,1.53-3.64,1.3-6.58-3.5,4.57-5,9.45-8.38,13.81.27-5.74.52-10.85.76-16l-1-.23c-2.73,8.53-4.82,17.37-11.47,23.71-.69-1.71-.7-1.71.9-4,3.71-5.33,6.81-10.94,7.92-17.44a6.19,6.19,0,0,0-.13-3.09c-1,2.25-2,4.51-3,6.76-.36.8-.44,1.6-1.83,1.42s-1.58-1.09-1.6-2c0-2.39.44-4.77,0-7.79-1.94,4.16-1.43,8.84-5.17,11.91.61-4.46,1.29-8.67,1.7-12.9.14-1.36,1.11-3.69-.46-4-1.88-.43-2,2.11-2.5,3.5-.86,2.38-1.43,4.87-2.12,7.31-.77-.21-.62-.69-.7-1-.34-1.39.6-3.91-.89-3.9a7.52,7.52,0,0,0-4.35,2.33c-1-6.5,2.36-12.87,2.07-19.6.82-1,.75-2.26,1.11-3.4.19-.56.3-1.29,1-1.35s1.19.61,1.43,1.31c.37,1.06.07,2.21.55,3.58,1.66-1.89,3.51-2.61,5.83-1.39a2.15,2.15,0,0,0,2.76-.5c.33-.39.74-.9,1.24-.71,3.26,1.19,3-1.07,3.07-3a4.21,4.21,0,0,1,.56-1.71c.34-.64.76-1.28,1.59-1.16.64.1.94.71,1.18,1.27a5.66,5.66,0,0,1,.38,2.07c0,1.55.86,1.6,2.26,2.16,4.35,1.73,7.74.12,11.45-1.58,3-1.37,7.73.43,9.52,3.08,1.34,2,2.74,2.1,4.37.31.82-.89,1.36-2,2.21-2.87s1.72-1.47,3-1c2.84,1.07,5.74.58,8.54.09,2.07-.36,3.27,0,4.1,1.92.34.77.47,2,1.59,2s1-1.13,1.34-1.8c1.41-2.61,3.2-2.92,5.45-.78a1.66,1.66,0,0,0,2.32.32c2.85-1.44,3.92-1.13,5.89,1.33,1.69,2.11,3,2.2,5,.33,3.36-3.22,4.19-3.21,7.61.09a55.68,55.68,0,0,0,4.61,4.35c3.75,2.84,7.63,3.29,11.8.82,3.9-2.31,4-2.27,6.64,1.5,1.13,1.61,1.91,2,3.36.16s3.76-1.71,5.73-2.34c.8-.25,1.21.57,1.61,1.14,1.61,2.32,3.79,2.84,6.37,2,1.41-.47,2.4-.47,3.12,1.21,1.23,2.88,3,3.61,6,3a25,25,0,0,0,5.27-2.23c1.49-.71,3-1,4.18.37a14.59,14.59,0,0,0,10.8,5.22,2.74,2.74,0,0,1,2.14,1c-2,3.46-3.5,7.28-7.3,9.36-.93.51-1.87,1.15-2.77.54-1.05-.7-.06-1.62.21-2.4a24.33,24.33,0,0,0,1.09-5.61c.06-.61.07-1.29-.55-1.6-.81-.4-1.39.23-1.75.78a35.62,35.62,0,0,0-2.58,4.42c-1.46,3.24-3.59,5.24-7.42,4.86a11.39,11.39,0,0,0-2.67.35c-.32-.64.2-.89.47-1.22.5-.65,1.15-1.33.35-2.09s-1.47-.17-2.08.42l-1.52,1.47a9.09,9.09,0,0,1-7,2.78,65.71,65.71,0,0,0-8.1.56c1-1.32,1.86-2.4,2.67-3.51.41-.56,1-1.16.36-1.88s-1.47-.55-2.16-.06a12.34,12.34,0,0,0-1.79,1.6c-.77.8-1.47,1.66-2.23,2.46-2.52,2.63-5.12,4.93-8.71,1.36,1-1.26,2.2-2.73,3.38-4.21.32-.41.55-.88.15-1.35a1,1,0,0,0-1.37-.13,34,34,0,0,0-3.18,2.27,48,48,0,0,1-8.77,6.37,5.43,5.43,0,0,1-3.2.95c2-1.68,3.76-3.13,5.5-4.6.58-.48,1.68-.94.9-1.83s-1.41.19-2,.64c-1.82,1.43-3.56,3-5.39,4.37-.73.57-1.56,1.73-2.57.75s.41-1.51.76-2.21c.63-1.25,1.44-2.42,2.17-3.62.39-.64.69-1.35-.09-1.85s-1.33.19-1.74.73c-1,1.35-2,2.78-3,4.15-2.66,3.59-5.93,6.22-11.3,6.91A34,34,0,0,0,162,118.75c.2-.8,1.17-1.83,0-2.4-1.31-.66-1.65.75-2.08,1.56a44,44,0,0,1-8.76,12.2c-1.42,1.31-2.82,2.37-4.85.73,2.24-1.56,3.46-4,4.69-6.33.45-.87,1.36-1.89.15-2.62s-1.79.57-2.35,1.32c-1.88,2.48-3.49,5.18-5.7,7.41-.42.41-.89.77-1.38,1.19a2.12,2.12,0,0,1-.22-.67c.1-1.28,1.86-2.75.15-3.77s-2.37,1-3.38,1.83c-1.85,1.52-3.24,3.57-5.63,4.88.05-2.26,1.71-3.83,1.56-5.87-.07-.91.05-2-1.09-2.2s-1.27.78-1.62,1.48c-.58,1.17-1.09,2.39-2.66,3,.15-1.89,1.42-3.17,2-4.71.31-.87.73-1.83-.41-2.34-1-.41-1.43.35-1.85,1.09-.71,1.21-1.43,2.43-2.2,3.6-.3.45-.55,1.3-1.28,1a1.71,1.71,0,0,1-1-2,15,15,0,0,0,.59-3.61c-3.08,4.84-6.2,9.54-11.51,12.56-.26-2,.9-3.46,1.11-5.09.17-1.39,1-3.07-1.45-3.51-1.25-.23-.31-1.12-.2-1.64.25-1.32,1.22-2.55.25-4.4-4.17,5.09-5.11,12.36-11.88,15.58,1.93-3.64,4.12-6.9,4-11.3-1.85,1.51-2.24,3.65-3.69,5.11-.63-1.08-.71-3.2-2.73-1.48C97.43,129.42,97.58,128.84,97.94,128.16Z"/><path class="cls-82" d="M129,59.41a36,36,0,0,0,2.65,2.86c2.18,1.91,3.14,1.7,4.45-.93,2.15,2.32,4.35,4.91,7.39,5.51A17,17,0,0,1,151.93,71a3.93,3.93,0,0,0,5.93-.57c.88-1.07,1.51-.92,2.47-.23a8,8,0,0,0,4.78,1.65c3.52-.06,5.24,1.87,6.34,4.89.4,1.1.25,3.07,2,2.88s.56-2.28,1.41-3.3c1.25.79,1.19,2.21,1.6,3.39.32.93.36,2.18,1.77,1.93,1.11-.19,1.11-1.27,1.17-2.18s.09-1.54.16-2.73a11.42,11.42,0,0,1,3.07,3.63c1.23,2.19,2.43,2.62,3.82-.16,1,1.33,1.74,2.49,2.61,3.58s1.43,3.41,3.49,1.07c.59-.67,1,.24,1.36.64.53.6.93,1.32,1.47,1.91.85.92,1.46,2.48,3.07,1.93s.72-2.12,1.16-3.31c1.6.09,2.73,3.71,4.87.79.35-.48.73.4,1,.74,1.47,2.26,3,4.47,3.07,7.36,0,1.81.84,3.12,2.84,1.78,1.17-.79,1.36,0,1.71.69s.51,1.32.84,1.94c.58,1.08.58,2.88,2.35,2.66,1.58-.19,1.15-1.89,1.62-3,1.34.55,1,3.21,3.17,2.59,1.64-.49,1.11-2.17,1.6-3.65,1.37,1.58,2.62,3.06,3.92,4.48.65.72,1.36,1.79,2.48.89.95-.76.23-1.65-.27-2.37a3.63,3.63,0,0,1-.42-2.32c-.27-1.12-.18-1.89,1.29-1.33.51.3,1.42.55,1.47.91.45,3.28,3.07,5.71,3.44,9-1.54,1-3.08-.14-4.62,0-9.39-2.07-18.91-3.3-28.17-6.33-10-3.28-19.4-7.75-29.05-11.73-5.94-2.45-12-4.29-18.47-2.46-1.8.51-2.42-1-3.5-1.72a6.8,6.8,0,0,1-9.35,2.37c-.65-.34-1.36-.87-1.91-.25-1.21,1.36-2.83,1.15-4.34,1.56-3.55,1-4.3.78-6.17-2.37-.2-.34-.26-.76-.62-1-1.59,1.89-3.85,1.69-5.46-.63-.73-1.05-.91-2.67-2.76-1.24-.46.35-1.11-.26-1.58-.65a3.52,3.52,0,0,0-2.4-1.13c-2.14.23-3.52-.72-5.26-1.9s-4.73-.71-6.86.08c-1.93.73-2.93.79-3.79-1.15-.61-1.38-1.45-1.64-2.32-.15a1.91,1.91,0,0,1-.58.68c-.89.56-7.92-.93-8.35-1.87-.72-1.54-1.4-2.38-3-.88-1,.88-1.65.26-1.91-.85A25.63,25.63,0,0,1,83.85,72c-.16-.2-.24-.16-.32.12-.37,1.2-.24,3.27-1.54,3.24-1.56,0-1.08-2.06-1.18-3.24-.2-2.28-1.93-1-2.92-1.47-1.46-.67-1.64.41-1.65,1.25,0,3-2.51,4.09-4.4,5.59-.74.58-1.53.27-2.07-.52.15-3.9-.63-8.15.68-11.6,1.5-3.94,1.48-7.89,2.22-11.81.06-.29.07-.79.23-.84,4.67-1.69,2.73-5.87,3.54-9.17A12.51,12.51,0,0,1,78,47.71c.28.95.35,2.21,1.69,2.08,1.09-.11,1.16-1.22,1.28-2.13.07-.46.16-.91.37-2.19,1.2,2.45,2,4.23,2.94,6,.5.92.83,2.35,2.23,2.07s1-1.72,1.13-2.78c0-.37.09-.74.14-1.19,1.73.83,2.06,3.76,4,3.27s.71-3,1.44-4.72c2,1,3,3.08,4.5,4.55.72.71,1.08,2.21,2.52,1.68,1.59-.58-.22-2,.63-3,1.73,1.88,1.77,4.15,2,6.39.09,1.11-.59,2.89,1,3.06,2,.22,1.22-1.9,1.68-3a10.72,10.72,0,0,0,.26-2.38c.13-.71-.38-1.79.8-2A2,2,0,0,1,109,54.8a23.77,23.77,0,0,0,1.88,3.78c1.58,2.48,3.24,2.4,4.78-.14.31-.51.48-1.11.8-1.62.52-.83-.3-2.57,1.32-2.54,1.37,0,2.26,1.18,2.79,2.46.46,1.12,1,2.22,1.41,3.33s.68,2.25,2.09,2.24,1.66-1.24,2-2.27a9.09,9.09,0,0,0,.29-1.17C127.48,58,128.08,59.35,129,59.41Z"/><path class="cls-83" d="M69.77,77c1.1.12,2.07.62,2.3-1.37s1.34-1.41,2.14,0a16,16,0,0,0,1.25-4.89,3.52,3.52,0,0,1,.37-1.43c.27-.49,1.21-.6,1.27-.36.61,2.52,4.46-2,4.29,2a16.62,16.62,0,0,0,.22,2.1c.06.69.08,1.39.15,2.57.94-1.83.73-3.4.95-4.88.07-.49.16-1,.79-1.11.78-.07,1.09.49,1.11,1.12,0,1.87,0,3.74,0,5.69.46-.14.68-.13.78-.24,2.33-2.51,2.38-2.54,3.92.46C90,78,90.6,78.83,92.22,77.78c1.93-1.25,3,.85,4.55,1.41,1-.94.41-3.28,2.3-3.1,2.34.22,1.63,2.91,2.91,4.3,1.44-1.56,2.88-3.36,5.34-1.45.31.23,1.31-.3,1.91-.63.79-.44,1.8-.69,2.16.08,1,2,2.49,2.59,4.56,2.47,1.83-.11,3.34.45,3.62,2.85.93-1.09.71-2.54,2.09-2.45,1.22.08,1.36,1.22,1.37,2,0,2.6,3.46.92,3.82,3.09.06-.59.09-1.18.18-1.76.12-.79.52-1.36,1.39-1.25a1.08,1.08,0,0,1,.93,1.33c-.26,1.6,1,2.24,1.83,3.2,1.26,1.4,1.73,1,3.43.06s4-1.1,5.87-2.35c.11-.07.66.2.74.41,1,2.56,2.93,1.57,4.75,1.31s3.78.13,3.48-2.73c-.07-.6.57-1.08,1.24-1.09a1.44,1.44,0,0,1,1.45,1.3c.28,1.83,1.09,1.57,2.49,1.07,4.06-1.46,8.13-.63,12.15.43,7.64,2,14.52,5.89,21.69,9,4.53,2,9.34,3,13.87,4.81A71.87,71.87,0,0,0,221,104.67c2.92.36,5.78,1.15,8.67,1.74,0,1.43-1.2,1.17-2.06,1.38a11.69,11.69,0,0,0-2.14.12,9.6,9.6,0,0,0,5.91,3.36c1.61.36,3.42,0,4.81,1.21.11.83,1.7,1.87-.33,2.41-5.12-.56-10.33-.87-13.52-5.91-.77-1.24-1.88-.76-2.93-.22-2,1-4,2.33-6.35,2.7-3.46.54-5.32-.42-6.38-3.75-.37-1.16-.72-1.1-1.65-.78-3.34,1.15-6.4,1.27-8-2.69-.41-1-.93-.37-1.38-.12a5.2,5.2,0,0,1-2.83.94c-1.33-.09-1.84.3-2.14,1.72-.43,2.11-1.75,1.88-3,.55s-1.52-4.18-3.39-4.27c-1.63-.08-3.31,1.66-5,2.45-4.44,2-8.25.55-11.68-2.36a62.91,62.91,0,0,1-4.93-4.87c-1.65-1.75-3-1.91-4.69.09-3.12,3.74-4.83,3.55-7.46-.54-.67-1-3.58-1.18-4.45,0-1.32,1.73-2.24,1.39-3-.36-.43-.94-.67-1.73-2.14-1.41-1.26.29-2,.71-2.24,2s-.2,2.66-1.75,2.82c-1.79.18-1.94-1.52-2.34-2.67-.68-2-1.46-3.24-3.77-1.78a3.18,3.18,0,0,1-2.93,0c-.88-.39-1.61-.64-2.31.41a1.18,1.18,0,0,1-2,0c-1.9-2.33-3.06-.48-4.21.78-.74.8-1.14,1.91-1.87,2.72-1.89,2.07-3.84,1.82-5.06-.53-1.61-3.12-6.3-4.55-9.53-3A37.35,37.35,0,0,1,98.12,99c-1.53.5-3.23.82-4.62-.33-.93-.78-1.26-1.08-2.54-.12-1.55,1.18-1.83-.73-2-1.85-.18-1.53.32-3.19-1.11-4.57-1.08,1.8-2,3.49-1.28,5.67.55,1.74.1,1.91-1.57,1.14-.56-.26-2.44-1.41-3.19,1.07-.45,1.48-3.06.21-3.85-.26-2.25-1.34-3.24-.54-4.14,1.32-.27.56-.46,1.23-1.21,1s-.57-.94-.65-1.52c-.21-1.51.67-3.21-.81-4.61-.83,1.51-.13,3.69-2.26,4.37C67.86,92.48,70.05,84.77,69.77,77Z"/><path class="cls-84" d="M252.11,108.14a13.35,13.35,0,0,1,4.35,1.16c2,.78,3.85,1.6,6.09.75a4.16,4.16,0,0,1,3.72.77,21.93,21.93,0,0,0,2,1.34c4,2.06,4,2,2.29,6.7-1.32-2.06-2.05-1.66-3.18.26-2.31,3.93-6.61,4-11,5.08.9-2.2,1.91-3.94,1.84-5.94s0-3.93-.88-5.68c-1.56.14-.34,1.83-2.07,2,.88-3.41-1.6-4.5-3.94-5.69C251.24,108.33,251.45,108,252.11,108.14Z"/><path class="cls-85" d="M218.15,129.41c1.24-1.63,2.47-2.57,4-2.32,5.91,1,10.69-1.7,15.44-4.54,1.07-.64,1.8-1.6,3.38-1.59,2,0,.85-2.28,1.62-3.28.15,0,.3,0,.34,0,4.53,6,4,7.67-3.27,9.06A139.26,139.26,0,0,1,218.15,129.41Z"/><path class="cls-86" d="M212.76,152.93a25.92,25.92,0,0,0-1.29,6.68c-.12,3.24-4.66,6.63-8.44,6.62.38-.51,1.49-.35,1.31-1.35-.27-1.49-.18-2.78,1.53-3.37.16-.06.4-.35.36-.44-1.43-3.58,1.54-3.93,3.6-5,.62-.32.71-.92.07-1.43-.39-.39-1.6.2-1.26-1.05,1.38-.21,2.4-1.14,3.53-1.85C212.69,152,213.12,152.26,212.76,152.93Z"/><path class="cls-87" d="M212.76,152.93l-.59-1.18c.56-1.71-2-4.31-3.93-3.9a11.1,11.1,0,0,1-4.16.56,4.29,4.29,0,0,1,3.33-1.82c2.4-.33,4.29-.83,4.22-3.76,2.32.18,5.13-.92,6.23,2.41C215.8,147.56,213.75,149.9,212.76,152.93Z"/><path class="cls-88" d="M255.69,128.44c-.45,2.79-2.5,4.7-4.48,6.09s-3.92-.85-5.6-1.87c-1.45-.87-.55-2.27.46-3.26Z"/><path class="cls-89" d="M238.24,130.08c.79,0,1.59.11,2.38.1a2.67,2.67,0,0,1,2.94,3.32c-.11.73-.56.75-1,.7a4.78,4.78,0,0,1-1.74-.42c-5.77-3.15-10-.25-14.13,3.44-.57.16-.84,0-.61-.61l.15-2.37c2.29-3.34,6.08-3.13,9.42-3.93.85-.2,1.77.16,2.62-.25Z"/><path class="cls-90" d="M236.2,112.48c-6.79-.1-9-1-12.32-5.39h3.28c2.65.59,5.67-.41,8,1.79Z"/><path class="cls-91" d="M235.82,93.33c.4-.79.59-1.86,1.23-2.33a3.68,3.68,0,0,1,3.92-.35c1.13.73-.32,1.68-.72,2.46-.73,1.4-.8,3.14-2.14,4.22C234.79,97.57,234.31,96.73,235.82,93.33Z"/><path class="cls-92" d="M260.54,99.12c0,3-2.56,2.64-4.32,3a1.78,1.78,0,0,1-2.32-1.66c0-.94,4-3.55,5.18-3.5C260.51,97,260.54,98.05,260.54,99.12Z"/><path class="cls-93" d="M104.75,139.56c2.59-3,3.86-6.34,6.69-8.66C111.44,136.91,109.92,139,104.75,139.56Z"/><path class="cls-94" d="M67.56,142.13c.52-4,1-7.54,1.41-11,0-.35,0-.86.59-.85a.93.93,0,0,1,.94.95C70.74,134.94,71.28,138.77,67.56,142.13Z"/><path class="cls-95" d="M211.41,87.61c-.45-.21-.89-.43-1.34-.61-.64-.25-1.06-.72-.84-1.37.32-.95,1-.28,1.43-.11,2,.75,3.87,1.6,5.83,2.33,2.29.84,4,2,2.58,4.85-1.75-.28-.81-4-3.62-3.17C213.74,89.66,212.55,88.67,211.41,87.61Z"/><path class="cls-96" d="M228.47,87c1.05.33,1.72,1.55,3,1.25.9.57,1.41,1,.71,2.34S230.11,92,229,92.3c-.59.18-1.45-.78-1.5-1.59C227.43,89.41,226.79,87.88,228.47,87Z"/><path class="cls-97" d="M211.41,87.61l4,1.92c-.44,2.4,1.07,4.71.23,7.41A24.52,24.52,0,0,1,211.41,87.61Z"/><path class="cls-98" d="M276.17,115c-.38,1.18-.76,2.36-1.15,3.53-.84,1-1.36,2.4-3.09,3,1-3.28,2.14-6.25,1.94-9.5-.12-2,1.12-.42,1.72-.54A4.22,4.22,0,0,1,276.17,115Z"/><path class="cls-99" d="M241.68,109.31c-.76-.79-1.17-1.6-2.69-1.82-2-.27-1.22-2.84-1.83-4.44,2.42,1.77,4.34,4.25,7.51,4.76.2,0,.23,1.07.33,1.64a1.88,1.88,0,0,1-.89.57A2.37,2.37,0,0,1,241.68,109.31Z"/><path class="cls-10" d="M238.24,130.06c-3.09.1-5.67,2.31-8.85,2.12-1.49-.1-1.26,2.69-3.19,2.06-.72-1.52-.64-2.05,1.38-2.68A27.39,27.39,0,0,1,238.24,130.06Z"/><path class="cls-100" d="M92.46,140.85l6.08-8.27c-.13,4.16-2.27,6.45-4.4,8.7-.49.52-1.09-.15-1.62-.37Z"/><path class="cls-101" d="M217.86,145.24c-1.6-2-4-1.93-6.23-2.41a19.27,19.27,0,0,1,8.92-.74C220.26,143.66,218.81,144.24,217.86,145.24Z"/><path class="cls-102" d="M154.15,66.51c.93.26,2.11.18,2.44,1.37a1.38,1.38,0,0,1-.85,1.47,2.71,2.71,0,0,1-3.1-.34,9.5,9.5,0,0,1-2.77-3.14C151.5,64.72,152.73,66.29,154.15,66.51Z"/><path class="cls-103" d="M189.86,135.57c-3.07-.78-5.88.86-8.86,1-1.1,0-2.2.05-3.3.07,2.26-2.22,5.44-.61,7.91-1.93,2.23.65,4.61-1.29,7.17.5Z"/><path class="cls-104" d="M88.16,45.56a2,2,0,0,1-.8-1.92c3.17.54,6.54-.09,9.4,1.9-1.37,1.07-1.41,1.13-2.62.35-.87-.55-1.67-1.09-2.72-.52A2.68,2.68,0,0,1,88.16,45.56Z"/><path class="cls-105" d="M65.09,123.72a40,40,0,0,1-1.2,14.17C63.55,136.42,64.32,125.73,65.09,123.72Z"/><path class="cls-106" d="M113.48,58.29a14.55,14.55,0,0,1-2.63-5c1.42-.24,3.06-.56,3.74.39C115.55,55.07,114.22,56.45,113.48,58.29Z"/><path class="cls-107" d="M189,165.46l13-5.24c-3.77,2.69-8,4.33-12.27,5.94C189.45,166,189.05,165.94,189,165.46Z"/><path class="cls-108" d="M229.66,97.34c-.86,0-1.14.62-1.29,1.33-.6-1-.7-1-1-.32-.41,1-.87.56-1.22.09a18.67,18.67,0,0,1-1.38-2.28c-.26-.5-.71-1.1-.21-1.63.71-.75,1.23,0,1.76.39C227.46,95.71,228.55,96.53,229.66,97.34Z"/><path class="cls-109" d="M204.24,130.37c3.23-1.88,6.83-2.15,10.42-2.51C211.46,129.88,207.73,129.6,204.24,130.37Z"/><path class="cls-110" d="M190.29,131.44c3-2,6.42-2.09,9.8-2.48A24.19,24.19,0,0,1,190.29,131.44Z"/><path class="cls-111" d="M235.12,108.88l-8-1.79c.82-.29,1.87.24,2.52-.68,1.71-.19,3.25.59,4.89.84A1.49,1.49,0,0,1,235.12,108.88Z"/><path class="cls-112" d="M197.14,81.76v3.58a13.54,13.54,0,0,1-3.82-4.66s.1-.18.17-.19a5.42,5.42,0,0,1,.57,0C195,81,196.47,80.47,197.14,81.76Z"/><path class="cls-113" d="M244.33,109.58l.67-.13c.89,2,.15,4.06.24,6.16-.61-1.9-2.63-2.87-2.9-4.89C243,110.25,244.09,110.69,244.33,109.58Z"/><path class="cls-114" d="M136.68,137.39a22,22,0,0,1-10.05,1C130.26,137.36,133.07,136.81,136.68,137.39Z"/><path class="cls-115" d="M257.13,106.35c3.3-1.2,4.94,1.26,7.16,1.32C261.71,108.32,261.12,108.2,257.13,106.35Z"/><path class="cls-116" d="M159.86,66.59l6,1.81c.36.56.71,1-.45,1A7.6,7.6,0,0,1,159.86,66.59Z"/><path class="cls-117" d="M140.44,61.77c.58.59,1.34.43,2,.52,1.36.83,3.36.66,4,2.57C143.56,65.69,141.79,64.14,140.44,61.77Z"/><path class="cls-118" d="M186.16,171.64l-1.29-.64a13.56,13.56,0,0,1,6.52-2.21A11.23,11.23,0,0,1,186.16,171.64Z"/><path class="cls-119" d="M199.89,164.87a9.29,9.29,0,0,1-6.17,2.84A13.58,13.58,0,0,1,199.89,164.87Z"/><path class="cls-120" d="M235.76,120.72c.78-2.19,1.92-3.64,1.82-5.71C239.58,117.6,239.58,117.6,235.76,120.72Z"/><path class="cls-121" d="M88.71,134.17c.66,3.18.1,5.2-2.71,6.81C87,138.61,87.72,136.67,88.71,134.17Z"/><path class="cls-122" d="M197.14,81.76l-3.08-1.27c1.89.16,3.78.35,5.67.48,1.3.09,1.82.67,1.41,2.06C199.73,82.81,198.83,80.94,197.14,81.76Z"/><path class="cls-123" d="M184.41,133.74c-2-.25-4,1.31-6-.11l7.56-1.37C185.93,133.52,185,133.47,184.41,133.74Z"/><path class="cls-124" d="M252.5,120.61a10.08,10.08,0,0,1-3.81,3.45C249.1,121.27,250.22,120.28,252.5,120.61Z"/><path class="cls-125" d="M154.15,66.51l-4.28-.64-1.16-1.15c0-.71-2-.88-.56-2C149.63,64.82,152.36,64.92,154.15,66.51Z"/><path class="cls-126" d="M252.11,108.14c-.27.26-.53.53-.8.8-1.3-1-2.15-1-2.23.92a12.46,12.46,0,0,1-.33,2.63c-.15-1.6-1.71-3.32-.5-4.66C249,107,250.85,107.42,252.11,108.14Z"/><path class="cls-30" d="M83.4,42.66c-2.32-.57-1.26-3-2.25-4.41,1.42,1.26,3,2.37,3,4.62C83.85,43.14,83.58,43.07,83.4,42.66Z"/><path class="cls-127" d="M189,165.46l.74.7c-1.61.61-3.05,1.69-4.84,1.81l-1.23-.56A21.58,21.58,0,0,1,189,165.46Z"/><path class="cls-128" d="M213.55,132c-2.5,1.26-4.94,1.08-7.4.76C208.53,132.37,210.84,131.38,213.55,132Z"/><path class="cls-129" d="M73.23,49.13c-.13-2.14-.7-4.3.42-6.44C74.67,44.66,74.67,44.66,73.23,49.13Z"/><path class="cls-130" d="M88.16,45.56l3.26-.19c-.16.58-.35,1.15-.47,1.73s-.18,1.14-.3,2A8.54,8.54,0,0,1,88.16,45.56Z"/><path class="cls-131" d="M208.64,153.6l1.26,1.05c-1.56.19-2.71,2.13-4.92.95C206.35,154.84,207.11,153.62,208.64,153.6Z"/><path class="cls-30" d="M77.68,40.58c-.29-1.14,0-2.48-2-3.44,3,0,3.78,1.26,3.68,3.28A1.27,1.27,0,0,1,77.68,40.58Z"/><path class="cls-132" d="M62.83,102.62a10.22,10.22,0,0,1-.94,6.7A9.7,9.7,0,0,1,62.83,102.62Z"/><path class="cls-133" d="M226.05,136.61l.61.61a12.23,12.23,0,0,1-4.27,3.85C222.44,138.63,225.05,138.28,226.05,136.61Z"/><path class="cls-134" d="M204,135.49c1.88-.92,3.79-.68,5.7-.43C207.82,135.21,206,136.32,204,135.49Z"/><path class="cls-135" d="M83.4,42.66l.8.21,1.13,4.46C84.37,45.86,82.26,44.84,83.4,42.66Z"/><path class="cls-136" d="M70.48,144.16a6.75,6.75,0,0,1,2.26-2.31C73.54,144.61,73.54,144.61,70.48,144.16Z"/><path class="cls-137" d="M199.51,154.94c-1.62,1.43-3.64,1.61-5.57,2.07A11.42,11.42,0,0,1,199.51,154.94Z"/><path class="cls-138" d="M194,142.14c-1.18,1-2.58,1.31-4.78,1.3C190.84,141.28,192.66,142.55,194,142.14Z"/><path class="cls-139" d="M92.52,140.91c-.43,2.39-2.21,1.61-4,1.79,1-1.84,2.77-1.21,3.93-1.85Z"/><path class="cls-140" d="M187.88,152.84c-.19-.57-.75-.41-1.14-.57a8.87,8.87,0,0,1,5-1.31Z"/><path class="cls-141" d="M190,81.56l-2.17-3.22C189.68,79.13,191.72,78.76,190,81.56Z"/><path class="cls-142" d="M244.33,109.58c.29.51.93,1.15.42,1.6-.84.74-1.61-.21-2.41-.46l-.66-1.41Z"/><path class="cls-143" d="M253.43,122.68l2-3.83A3.23,3.23,0,0,1,253.43,122.68Z"/><path class="cls-144" d="M76.51,115.53c.58,1.62.08,3.09-.68,4.82C74.92,118.4,76.25,117,76.51,115.53Z"/><path class="cls-145" d="M129,59.41c-1,.38-1.69-.37-2.54-.54-.06-.65-.34-1.77.28-1.79C128,57,128.35,58.46,129,59.41Z"/><path class="cls-146" d="M130.88,58.22c1.8.38,3.39.47,2.57,2.67A4.22,4.22,0,0,1,130.88,58.22Z"/><path class="cls-147" d="M77.68,40.58l1.68-.16a2.15,2.15,0,0,1-.27,2.94C78.13,42.62,78.11,41.49,77.68,40.58Z"/><path class="cls-148" d="M222.4,124.52l2.25-4.21a6.45,6.45,0,0,1-1.55,4.5Z"/><path class="cls-149" d="M124.49,55.14a3.77,3.77,0,0,1,0,.58c0,.8.64,2-.53,2.24-.77.17-1-1.05-1.39-1.65C122.6,54.89,123.5,54.94,124.49,55.14Z"/><path class="cls-150" d="M177.93,132.46c1.8-1.2,3-1.84,4.74-1.74C181.45,132,180.22,132.4,177.93,132.46Z"/><path class="cls-151" d="M218.23,132.05l5.93-.91A6.31,6.31,0,0,1,218.23,132.05Z"/><path class="cls-152" d="M276.17,115a6.48,6.48,0,0,1-.58-3.52l.63-.11C277.25,112.55,277.39,113.76,276.17,115Z"/><path class="cls-153" d="M146.52,64.86l-4-2.57c1.75.36,3.76.22,4.49,2.45A3,3,0,0,1,146.52,64.86Z"/><path class="cls-154" d="M63.18,139.27c.48,1.24.54,2.14-.46,3C62,141.22,62,140.36,63.18,139.27Z"/><path class="cls-139" d="M97.94,128.16c.12.44,0,1,.6,1.2a7.55,7.55,0,0,1-2.42,3A12.54,12.54,0,0,1,97.94,128.16Z"/><path class="cls-155" d="M124.49,55.14c-.61.42-1.53.34-1.88,1.17-.69-.65-.76-1.69-.19-2.09C123.22,53.66,124.05,54.23,124.49,55.14Z"/><path class="cls-156" d="M360.28,103.38c1.9.14,1.81,1.83,2.35,3,.46.53,1.08,1,.52,1.84a1.2,1.2,0,0,0-1.23.84,13.21,13.21,0,0,1-2.11-1.64c-1.81-2.11-3.67-2.08-5.77-.48a9,9,0,0,1-7.16,1.62c-.52-.79,0-1.66-.2-2.59a9.16,9.16,0,0,0-3.5-5.37A13.46,13.46,0,0,0,342,99c-2.84-1.89-5.89-3.54-7.84-6.5a6.67,6.67,0,0,1-1.37-5c0-.48.17-1,.84-1s.67.61.77,1.09c1.92,3.83,4.82,6.87,8.81,8.19,1.62.54,3.51,1.78,5.53,1-.19,2.06,1.49,2.08,2.74,2.35,1.71.37,3.48.51,5.22.74a1.56,1.56,0,0,1,.68,2.06c-.43.9-1.33.66-2.11.59-1.26-.12-2.45-.8-4.55-.28C354.18,104,357.38,102.68,360.28,103.38Z"/><path class="cls-157" d="M334.14,92.52c2.53,2.49,5.67,4.1,8.59,6,.4.85.29,1.4-.81,1.23-.76-.11-1.22-1-2.72-.73a9.14,9.14,0,0,1,4.28,3.82c-.12-.94-1-1.68-.19-2.51,2.33,1,4.07,2.42,3.73,5.22-.24,1.92,1.26.51,1.77,1.1-.41.82-1.73.83-1.91,1.91-1.2-1.1-2.27-.66-2.9.52A3.36,3.36,0,0,1,341.5,111c-1.18.21-2.27,1.59-3.59.34a3.7,3.7,0,0,1-.74-4.4c.95,0,1.43,1,2.26,1.27-.51-.75-1.45-1.09-1.75-2l.81-2.29c1.63-.42,1.93,1.59,3.36,1.8-.41-2-2.38-1.94-3.45-3C336.92,99.41,336.58,95.53,334.14,92.52Z"/><path class="cls-158" d="M311.18,95.58c-.93-.76-.42-1.21.38-1.43s1.94-.35,3-.53c-.21-.39-.35-.65-.48-.91-.35-.72-2.24-.71-1.35-1.8s2-.09,2.8.74c1.16,1.24,2.22,2.57,3.39,3.8s2.19,2.68,4.26,1.41c.59-.36,1.63,0,1.23,1-.62,1.54-2.46,1.51-3.7,2.27-.86.52-1.77-.43-2.24-1.46-1-2.28-2.5-3.06-4.63-1.22C311.73,98.56,311.77,96.62,311.18,95.58Z"/><path class="cls-159" d="M308.8,89.1c-.41-.58-.78-.86-.82-1.18A3.07,3.07,0,0,1,309.21,85c3.32-2,7-.87,10.11.18,2.86,1,3.42,4.47,4.06,7.34a1.19,1.19,0,0,1-.36,1,.91.91,0,0,1-1.25-.51,16.42,16.42,0,0,1-.86-2.24c-1.4-4.54-3.11-5.5-7.62-3.78C311.78,87.6,309.83,87.06,308.8,89.1Z"/><path class="cls-160" d="M348.72,96.72c-.64.42-.67,2.5-2.12.68-.56-.7-1.47-2.19-2.27-.05,0,.09-.33.13-.49.11-3.31-.57-8.73-6.25-9.46-9.91.84-.21,1.84,0,2.39-1a51.11,51.11,0,0,0,2.82,4.8c.57.78,1.23,2.37,2.75.89a.77.77,0,0,1,1.23.36c.47,2.72,2.51,2.93,4.65,3.13C348.41,95.78,348.55,96.39,348.72,96.72Z"/><path class="cls-161" d="M303.53,108c.56-1-1.19-3.36,1-3.46,1.56-.08,1.09,2.31,1.07,3.59a15.48,15.48,0,0,0,2.31,8,5.38,5.38,0,0,1,1,2.49c0,.62-.05,1.27-.78,1.44-.56.13-.83-.32-1.12-.76A23.81,23.81,0,0,1,303.53,108Z"/><path class="cls-162" d="M334.16,76.29c2.52-1.18,5.4-.28,7.93-1.35a1.4,1.4,0,0,1,2.05.18,2.47,2.47,0,0,0-.48.35c-.71.88-3.19.43-2.49,1.79s2.35-.23,3.56-.64c.09,0,.16-.12.25-.17.91-.44,1.33-1.91,2.71-1.34a.82.82,0,0,1,.23.76,5.86,5.86,0,0,1-2.59,2.35c-1.28.73-3.44-.08-3.86,2.16C339.54,78.12,336.68,77.5,334.16,76.29Z"/><path class="cls-163" d="M317.35,73.74a23.17,23.17,0,0,1,11.44-1.25,7.42,7.42,0,0,1,4.84,3.65Z"/><path class="cls-164" d="M351.06,111.24c1.65-1.55,3.34-2.27,5.31-1.79,1.58.38,1.58,1.83,1.68,3.17a4.71,4.71,0,0,1-2.57,4.71c-.5.3-1.13.69-1.6,0-.33-.45.06-.94.35-1.34a11.3,11.3,0,0,1,.79-.9,3,3,0,0,0,.77-3.33c-.66-1.39-1.91-.38-2.91-.2A2,2,0,0,1,351.06,111.24Z"/><path class="cls-165" d="M341.52,80.42c1.94.14,3.67-1.37,6-.86-1.49,1.74-3.5,1.18-5.4,1.89,1.83,1.45,3.37.42,4.87.08.78-.18,1.69-.7,2,.39s-.87,1.23-1.53,1.37a5.14,5.14,0,0,1-2.67,0,6.68,6.68,0,0,0-5.76.8C339,82.28,341.14,81.94,341.52,80.42Z"/><path class="cls-166" d="M313.74,169.89c-2.07,1-3,2.92-3.53,4.93-.45,1.58-1,2.79-3.08,2.7.33-1.83,3.12-3.08,1.47-5.59-.26-.4,2.74-.28,3.19-2Z"/><path class="cls-167" d="M338.4,102.82c1.87-.41,3,.71,4.09,2,.51.6,1.26,1.31.32,2a1.49,1.49,0,0,1-2.14-.42c-.64-.88-1.07-1.94-2.18-2.4Z"/><path class="cls-168" d="M297.37,108c.89.46,2.69-.57,2.89,1,.19,1.46-1.37,1-2.24,1s-2.46.11-2.55-1.33C295.4,107.54,296.5,107.8,297.37,108Z"/><path class="cls-169" d="M346.09,122.81c.78-1.38,1.27-2.22,1.73-3.08.28-.51-.05-1.65,1.13-1.22.79.29.78,1.08.62,1.78C349.24,121.81,348.31,122.62,346.09,122.81Z"/><path class="cls-170" d="M311.18,95.58c.79.75,1.17,2.1,2.66,1.87-.4.66,0,2-1.43,1.81-.79-.09-1.67-.09-2.18-.78-.84-1.14.72-1.09.91-1.72A4.19,4.19,0,0,0,311.18,95.58Z"/><path class="cls-171" d="M337.68,106.26a4,4,0,0,1,3.1,2.86c.05.18-.29.69-.38.67-1.62-.3-2.24-1.77-3.23-2.81C337.11,106.57,337.34,106.38,337.68,106.26Z"/><path class="cls-172" d="M337.25,67.74c-2.14.92-4.48-.65-6.62.52-.58.31-.84-.52-1.12-.57-1.27-.22-2.32-1.67-4-.35a3.73,3.73,0,0,1-3.62,0c-1.49-.82-3.21-1.38-4.8.47.22-4.65,1-5.6,4.76-5.1,2.3.3,4.57.05,6.84.32,3.07.81,6.29,1.19,9,3a1.58,1.58,0,0,1,.33.8C338.05,67.33,337.56,67.46,337.25,67.74Z"/><path class="cls-173" d="M337.84,66.56c-2.92-1.48-6.27-1.85-9.11-3.55a51.18,51.18,0,0,1,10.5.24c.48.08,1.15.29,1.46.06,3.21-2.42,3.78,1.18,4.66,2.46,1.17,1.68-1.41,1.2-2,2a1.6,1.6,0,0,1-1.28.36C340.6,67.7,339.08,67.51,337.84,66.56Z"/><path class="cls-174" d="M370.1,84.32a13.76,13.76,0,0,0-5.83-4.86c-2.22-.84-5,.41-7.21-1.23C362.79,74.55,368.55,77.15,370.1,84.32Z"/><path class="cls-175" d="M342.39,67.74l.92,0c2.57,1.07,2.85,3.49.83,7.34l-2.05-.18c-.25-.82.65-1.7-.14-2.49-1-1.23-2.14-1.53-3.46-.5-1.26-.8-.56-1.91-.33-2.84s-.08-1.26-.91-1.37l.58-.67C339.43,66.74,340.73,68.48,342.39,67.74Z"/><path class="cls-176" d="M360.28,103.38c-2.86,1.2-5.85.47-8.78.52-1.24,0-1.07-1.69-1.83-2.6,2-.88,3.81-.11,5.51.36,2.33.65,2.11-.34,1.5-1.85Z"/><path class="cls-177" d="M351.1,90c.55-.89,2.24-.53,2.18-1.73-.07-1.64-2-.73-3.14-1.71,3.09,0,5.75,0,8.42,0,.56,0,1.38-.08,1.33.74,0,.5-.59,1.4-.89,1.39C356.28,88.55,354,90.67,351.1,90Z"/><path class="cls-178" d="M353,68.91a1.15,1.15,0,0,0-1.26,1c-.25,1.57-1.74,1.78-2.73,1.78-1.49,0-1.22-1.75-1.75-2.72-.89-1.62.78-1.66,1.4-2.35a.58.58,0,0,1,.76-.06c.23,2.9,2.91,1.17,4.14,2.18C353.42,69.06,353.24,69.13,353,68.91Z"/><path class="cls-179" d="M340.26,87.06c2.69,1.35,5.5,1.41,8.56,1.18C344.36,91.1,342.7,90.9,340.26,87.06Z"/><path class="cls-180" d="M364.87,96.27c-.82-.6-1.32-1.59-2.44-1.37.09-1.9,2.62-1.81,2.45-3.67,0-.4.31-.46.62-.4.62.11.71.59.76,1.12C366.42,93.57,365.26,94.75,364.87,96.27Z"/><path class="cls-181" d="M363.15,108.25c-.18-.62-.35-1.23-.52-1.84,3.24.15,3.24.15,2.75,4.67Z"/><path class="cls-182" d="M362.94,70.46c2.84,1.33,5.22,3,6.53,6.51Z"/><path class="cls-183" d="M331.77,59.2c-2.94,1.35-6.25-.29-9.19,1.5-.29.18-1.13-.1-1.1-.69s.78-.8,1.37-.8C325.82,59.19,328.79,59.2,331.77,59.2Z"/><path class="cls-181" d="M366.49,84a6.77,6.77,0,0,1-4.11-1.08C364.2,81.33,365.58,81.21,366.49,84Z"/><path class="cls-184" d="M353,68.91a2.78,2.78,0,0,0,.56-.17,12.73,12.73,0,0,1,4.66,2.45C356.28,70.81,353.93,71.42,353,68.91Z"/><path class="cls-185" d="M349.39,66.56l-.76.06L347,64.9c1.79-.82,3.26.51,4.93.76Z"/><path class="cls-186" d="M373.47,116.23c-.54,1.85-.56,3.71-2.27,3.73-1.13,0-.69-1,0-1.59S372.52,117.16,373.47,116.23Z"/><path class="cls-187" d="M338.49,72c.93-1.88,2.47-1,3.7-.62.73.2-.17.72-.24,1.12Z"/><path class="cls-188" d="M379.43,112.26c-.07,1.22.13,2.27-1.1,2.87-.19.09-.74-.09-.76-.2C377.38,113.7,378,112.92,379.43,112.26Z"/><path class="cls-189" d="M348.58,80.2c.43-2,.68-3.06,1.06-4.79C351,77.48,350.07,78.46,348.58,80.2Z"/><path class="cls-190" d="M372.07,80.93A8.64,8.64,0,0,1,373.41,83c.15.51-.65.69-1.06.65-1-.09-.84-1.1-1.05-1.75C371.24,81.72,371.71,81.37,372.07,80.93Z"/><path class="cls-191" d="M209.56,166.83c-.27,1.33,2.5,1.36,1.32,3.08l-.66-.12c-1.78-.16-3.57-.06-5.33-.37-1.2-1.95.86-1.94,1.41-1.72C207.76,168.28,208.5,167.15,209.56,166.83Z"/><path class="cls-192" d="M204.89,169.42c1.76.33,3.64-1,5.33.37-1,.16-1.82,1.05-2.93.6C206.72,169.5,205.44,170.35,204.89,169.42Z"/><path class="cls-193" d="M394.08,295.76a69.23,69.23,0,0,1-12,7.94l-.45-.69c1.21-1,2.46-2,3.62-3.1,1-.94,2.47-1.77,2.12-3.4s-2.21-.85-3.48-1.57a26.75,26.75,0,0,1,4.89-5.64c.81-.8,2.57-1.49.59-3-.68-.51.2-.77.49-1,1.8-1.27,3.64-2.49,5.47-3.72A31.58,31.58,0,0,1,394.08,295.76Z"/><path class="cls-194" d="M394.08,312.66c.65-3,1.26-5.92-.79-8.89-.71-1,.08-3.06.19-4.64,1.51-1.16,3.33-1.93,4.56-3.64C398.92,301.83,397.86,307.56,394.08,312.66Z"/><path class="cls-195" d="M394.08,295.76a85.63,85.63,0,0,1,1.21-14.12c.53-1.38,3.26-1.54,2.11-3.84-2.31-.64-1-1.7-.31-2.68.53-.34,1.34-1.19,1.39.2C398.74,282.49,398.9,289.67,394.08,295.76Z"/><path class="cls-196" d="M397.09,275.12c-.14.92-.87,1.92.31,2.68-3.47.46-5.43,3.52-8.48,4.79A32.3,32.3,0,0,1,397.09,275.12Z"/><path class="cls-197" d="M246.58,208.52l.64,0c.87,1.53,1.51,0,2.12-.24,1.41-.63,2.47-2,4.26-2.23.47,1.69-1.39,1.81-1.66,2.84,1.32,1.32,3.78-.93,4.74,1.77-2.77-.57-5.22.87-7.88,1.18a3.22,3.22,0,0,1-2.83-1A3.1,3.1,0,0,1,246.58,208.52Z"/><path class="cls-198" d="M202.48,204.28a5.69,5.69,0,0,1-4.31-1.25,14.31,14.31,0,0,1,6.63-1.85c-.55,1.43-2.81,1.32-2.35,3.15Z"/><path class="cls-199" d="M202.45,204.33h8.62a8.38,8.38,0,0,1-8.59-.05Z"/><path class="cls-200" d="M360.56,153.75c-.19,4.72-.7,9.44,1.82,13.82.62,1.08-.83,1.09-1.44,1.29-4.59,1.5-9.17,3-13.8,4.38-9.25,2.71-18,6.49-25.56,12.56-2.13,1.71-3.07,1.18-4.19-1-1.84-3.54-2.38-7.44-3.42-11.2-.45-1.63.94-1.79,2-2,8.64-1.73,16.55-5.62,24.89-8.24,6.13-1.93,11.54-5.16,17-8.44C358.64,154.45,359.41,153.69,360.56,153.75Z"/><path class="cls-201" d="M321.54,190.46c-4.26,2-8.06,1.29-11.44-1.93-.37-.64.27-.83.53-1.19.94-2.07-.3-4.31.44-6.51,1,.35.65,1.21.92,1.75,1.56,3.1,4.7,4.54,7.15,6.68.2.18.77-.07,1.16-.12C321,189.34,321.86,189.33,321.54,190.46Z"/><path class="cls-194" d="M321.54,190.46l-1.24-1.32c4.25-3.25,8.44-6.6,13.65-8.33C330.61,185.06,328,190.16,321.54,190.46Z"/><path class="cls-202" d="M301,182.58c2.1,1,3.8,1.84,4.73,3.76C304.06,185.53,301.87,185.41,301,182.58Z"/><path class="cls-203" d="M310.63,187.34c-.18.39-.36.79-.53,1.19-1.6-.66-3.72-1.09-1.56-3.47C309.94,185.2,308.78,187.66,310.63,187.34Z"/><path class="cls-204" d="M300.88,176.62l1.27-.74c-.17,1.7-.18,3.45-1.57,5.41C300.7,179.34,300.79,178,300.88,176.62Z"/><path class="cls-205" d="M376.76,324.22c-.41-1.19-.42-2.22.63-3,.09-.07.59.2.7.42C378.76,323,377.81,323.61,376.76,324.22Z"/><path class="cls-206" d="M387.48,308.37a2.67,2.67,0,0,1-2.41,2.33C385.33,309,386.5,308.8,387.48,308.37Z"/><path class="cls-200" d="M279.81,240a16.5,16.5,0,0,1,3.87,6.32c1.66,4.4,3.42,8.77,5.17,13.13a2.88,2.88,0,0,1-1.29,4c-3.19,2.06-6.21,4.3-10.08,5.07-5.77,1.15-9.83,5.12-14,8.92-2.07,1.43-3.74,1.26-4.82-1.22a61.91,61.91,0,0,0-8.14-14.16,18.17,18.17,0,0,1-2.63-4.32c-.56-1.4,0-2.09,1.2-2.55,9.52-3.14,18.81-6.72,26.2-13.9C276.56,240.09,278.58,241.29,279.81,240Z"/><path class="cls-207" d="M301.44,329.93a47.77,47.77,0,0,0-16.17,4.95l0-.2c-.49-.33-1.66.09-1.31-1.18,2.29-1.62,4.61-3.22,6.88-4.88.64-.47,1.3-1.1,1-2-.4-1.18-1.4-.88-2.29-.74-1.75.63-2.09-.69-2.54-1.84a1.77,1.77,0,0,1,.89-2.5c.87-.53,1.16.78,1.81,1.11L302,328.87C301.83,329.22,301.64,329.58,301.44,329.93Z"/><path class="cls-208" d="M284,333.5l1.31,1.18c-2.53.4-4.57,2.64-7.39,1.94Z"/><path class="cls-208" d="M283.54,328.24c-1.32-.39-2.3,1.74-3.74.5.84-.69,1.66-1.38,2.51-2,.45-.35,1-.87,1.49-.2A1.05,1.05,0,0,1,283.54,328.24Z"/><path class="cls-209" d="M277,307.77l2.46,2c-1.06.85-2.29,1.23-3.05.62S276.24,308.64,277,307.77Z"/><path class="cls-210" d="M287,324c1,.44,1.3,1.77,2.54,1.84-.87.57-1.86,1.58-2.82.84S286.54,324.89,287,324Z"/><path class="cls-211" d="M272,305.25c-1.09-1.17-1.27-2.19.49-2.89C274,303.61,272.25,304.3,272,305.25Z"/><path class="cls-212" d="M283.7,315.52a3.73,3.73,0,0,1,2,2.06C283.61,317.81,283.61,317.81,283.7,315.52Z"/><path class="cls-213" d="M316.1,337.22c-3.11.87-4.5-1.92-6.56-3.19-1.33-.81-2.31-2.18-3.78-2.87l-.59-.56c1.13-1.76,2.25-1.08,3.31.06A43.72,43.72,0,0,0,316.1,337.22Z"/><path class="cls-214" d="M250.63,96.29c-2.85.25-3.84,2-4.68,4-.57,1.29-1.41,2-2.83,1.23-1.2-.64-1.86-1.53-1.15-2.95a13,13,0,0,0,.59-1.38C244.54,91.9,246.29,91.61,250.63,96.29Z"/><path class="cls-215" d="M303.42,337.29c-.71,1-2.18.22-2.91,1.2h-2.36a4.71,4.71,0,0,1,2.7-1.89C301.37,338.1,302.64,336.78,303.42,337.29Z"/><path class="cls-216" d="M237.34,227.15c-2.47-3-1.85-4.49,2.55-6.08C238.06,222.72,236.71,224.54,237.34,227.15Z"/><path class="cls-217" d="M327.54,263.55c0-4.1,3.08-1.93,4.86-2.42.4,2.56-2.1,2.4-3.3,3.41C328.36,265.15,327.61,264.62,327.54,263.55Z"/><path class="cls-218" d="M324,271.39c-.07.41.06,1.08-.69,1-.55-.08-1.31-.21-1.42-.86-.13-.81.72-.83,1.23-1C323.82,270.29,323.93,270.83,324,271.39Z"/><path class="cls-219" d="M293.73,243.06c-1,1.33-1.91,1.81-3.2,1.35a.79.79,0,0,1-.17-.71C291.17,242.8,292.18,242.65,293.73,243.06Z"/><path class="cls-220" d="M250.46,185.63a21.76,21.76,0,0,1,4.26-4.17C254.75,186,254.49,186.27,250.46,185.63Z"/><path class="cls-221" d="M331.05,259.87c-3.72.52-4,.33-4.17-3a1.75,1.75,0,0,1,.47-.35c1-.34,2.1-2.24,2.88-1.13S332.41,258.1,331.05,259.87Z"/><path class="cls-222" d="M340.37,301.54c-2.42-.86-2.42-.86-4.09-2.38C338,299.28,339,300,340.37,301.54Z"/><path class="cls-223" d="M180.74,94.33c-3.35.34-6.34-2-9.74-1.32-.57.11-1.19-.12-1.78-.05-5.22.64-5.59.38-7-5.38,6.87.67,12.84,3.67,18.93,6.25.13.21.27.42,0,.6C181.06,94.5,180.89,94.43,180.74,94.33Z"/><path class="cls-224" d="M209.26,105.78c3.46.76,6.84-1.58,10.18.52-3,1.41-5.72,3.43-9.28,2.35C209.29,108.39,209.27,108,209.26,105.78Z"/><path class="cls-225" d="M159.59,87.16c-.8,3.76-2.7,5.19-5.36,4.09-1.36-.56-1.7-1.37-.52-2.44A7.46,7.46,0,0,1,159.59,87.16Z"/><path class="cls-226" d="M175.18,104c-2.81-.14-4.68-1.4-6.6-3.14C173.5,99.78,173.5,99.78,175.18,104Z"/><path class="cls-227" d="M196.12,100.1c-2-.56-4.06.51-6.06-.25-1-.38-1.65-1-1.4-2,.4-1.61,1.53-.46,2.13-.25C192.63,98.23,194.69,98.46,196.12,100.1Z"/><path class="cls-228" d="M75.51,89.52c-.63-2.88-2.85-5.52-1.23-9.24.92,2.3,2.36,4,1.87,6.28C75.46,87.44,76.38,88.67,75.51,89.52Z"/><path class="cls-229" d="M75.51,89.52c.44-.94-.31-2.13.64-3-.16,3.31,1.6,6.26,2.24,9.91C75.85,94.37,74.21,92.5,75.51,89.52Z"/><path class="cls-230" d="M205.42,104.23a3.41,3.41,0,0,1-3,1.17,2.78,2.78,0,0,1-2.79-1.36c-.15-.28-.13-1,0-1.05a3.27,3.27,0,0,1,2.86.11C203.4,103.43,204.52,103.16,205.42,104.23Z"/><path class="cls-231" d="M80.28,93.09c-2.16-2-1.38-4-1.43-6A6.65,6.65,0,0,1,80.28,93.09Z"/><path class="cls-232" d="M118.39,93.37a2.27,2.27,0,0,1-2.59,2.15c-.8,0-2.09.37-2-1,.12-1.19,1.19-.8,1.83-.4C116.85,94.82,117.24,93.14,118.39,93.37Z"/><path class="cls-233" d="M148.83,89.08c-1.39,1.75-3.69.47-5,2,0,0-.53-.24-.59-.44a.79.79,0,0,1,.71-1.07C145.55,89.36,147,88.5,148.83,89.08Z"/><path class="cls-234" d="M84.08,91c-1.56-1.84-1.56-1.84-1.1-5.28C84.49,87.32,83.83,89.28,84.08,91Z"/><path class="cls-235" d="M96.93,92c-1.07-.34-.87-1.35-.93-2.17s.43-1,1.16-.81c1.16.24.92,1.09.86,1.85C98,91.44,97.85,92,96.93,92Z"/><path class="cls-236" d="M179.43,101c.48-1.29.55-2.44,1.86-2.38.54,0,1.24.56,1,1.18C181.89,100.91,180.83,100.88,179.43,101Z"/><path class="cls-237" d="M99.71,95.75c-.83,1.19-2.13,1.16-3.22,1.52-.51.16-1.33.25-1.34-.65a.72.72,0,0,1,1-.73C97.37,96.44,98.47,95.32,99.71,95.75Z"/><path class="cls-238" d="M190.06,101.73c2.09-.11,3.49-.36,5.2.67C193.37,103.25,192,103.24,190.06,101.73Z"/><path class="cls-239" d="M105.2,82.59c.77,1,1.55,2.07,1,3.57A4.07,4.07,0,0,1,105.2,82.59Z"/><path class="cls-240" d="M178.8,96.63c-.83,1.43-1,2.5-2,3-.09,0-.72-.58-.69-.84C176.24,97.56,177.35,97.38,178.8,96.63Z"/><path class="cls-241" d="M105.59,92.65c-.82-1.29-1.36-2.3-.76-3.69C105.9,89.94,106.61,90.86,105.59,92.65Z"/><path class="cls-242" d="M180.74,94.33l.43-.5A9.23,9.23,0,0,1,185,95.45,5.49,5.49,0,0,1,180.74,94.33Z"/><path class="cls-243" d="M152.2,96.68c1.61.23,1.75,1.35,2.46,2.43C152.64,99.15,152.3,98.2,152.2,96.68Z"/><path class="cls-244" d="M343.29,100.36c0,1.46,1.71,2.25,1.53,4-1.46.06-1.92-1.17-2.6-2s-1.16-2.12-2.57-2.33-1.41-1.09-.88-2,1.26-.38,2,0c.54.26.79,2.5,1.92.5C343.4,99,343.28,99.7,343.29,100.36Z"/><path class="cls-245" d="M342.39,67.74c-1.83,1.9-3.23.89-4.56-.67a2.9,2.9,0,0,1,0-.51A6.74,6.74,0,0,1,342.39,67.74Z"/></svg>