<svg id="megaphone_Image" data-name="megaphone Image" xmlns="http://www.w3.org/2000/svg" viewBox="0 0 700 610"><defs><style>.cls-1{fill:none;}.cls-2{fill:#fbd149;}.cls-3{fill:#010000;}.cls-4{fill:#fce8e4;}.cls-5{fill:#090807;}.cls-6{fill:#0c0a05;}.cls-7{fill:#090908;}.cls-8{fill:#030302;}.cls-9{fill:#060505;}.cls-10{fill:#0f0e0c;}.cls-11{fill:#17150f;}.cls-12{fill:#090805;}.cls-13{fill:#1a1814;}.cls-14{fill:#121010;}.cls-15{fill:#070707;}.cls-16{fill:#080808;}.cls-17{fill:#191818;}.cls-18{fill:#2c2828;}.cls-19{fill:#090909;}.cls-20{fill:#efeeeb;}.cls-21{fill:#131313;}.cls-22{fill:#110f0f;}.cls-23{fill:#f2f2f2;}.cls-24{fill:#1c1c1c;}.cls-25{fill:#171717;}.cls-26{fill:#2a271f;}.cls-27{fill:#363332;}.cls-28{fill:#ecc64b;}.cls-29{fill:#2b2720;}.cls-30{fill:#323232;}.cls-31{fill:#313131;}.cls-32{fill:#ecc74c;}.cls-33{fill:#31160d;}.cls-34{fill:#2c1108;}.cls-35{fill:#d4d1c8;}.cls-36{fill:#f5e3e0;}.cls-37{fill:#2b2b2b;}.cls-38{fill:#3c1a0f;}.cls-39{fill:#282828;}.cls-40{fill:#3c3c3c;}.cls-41{fill:#c0bebe;}.cls-42{fill:#733722;}.cls-43{fill:#3a3737;}.cls-44{fill:#303030;}.cls-45{fill:#393730;}.cls-46{fill:#eddcd9;}.cls-47{fill:#f8edc9;}.cls-48{fill:#d8cfcd;}.cls-49{fill:#e75b2b;}.cls-50{fill:#f26535;}.cls-51{fill:#181717;}.cls-52{fill:#979797;}.cls-53{fill:#856f27;}.cls-54{fill:#5a5a59;}.cls-55{fill:#070602;}.cls-56{fill:#171307;}.cls-57{fill:#080702;}.cls-58{fill:#1a1609;}.cls-59{fill:#241e0a;}.cls-60{fill:#0e0b04;}.cls-61{fill:#fbfaf9;}.cls-62{fill:#16130d;}.cls-63{fill:#15120b;}.cls-64{fill:#28210c;}.cls-65{fill:#3e3412;}.cls-66{fill:#61511c;}.cls-67{fill:#f3f0e5;}.cls-68{fill:#c7a63a;}.cls-69{fill:#caa83b;}.cls-70{fill:#968457;}.cls-71{fill:#9e832e;}.cls-72{fill:#796523;}.cls-73{fill:#fce28d;}.cls-74{fill:#8f772a;}.cls-75{fill:#fdecb4;}.cls-76{fill:#ccc19c;}.cls-77{fill:#e7e4dd;}.cls-78{fill:#342c0f;}.cls-79{fill:#fde7a2;}.cls-80{fill:#fdeaad;}.cls-81{fill:#f1521b;}.cls-82{fill:#fefdfd;}.cls-83{fill:#ef511b;}.cls-84{fill:#e84f1a;}.cls-85{fill:#f4cc48;}.cls-86{fill:#f3ca47;}.cls-87{fill:#efddd9;}.cls-88{fill:#eedbd7;}.cls-89{fill:#f15721;}.cls-90{fill:#f5e1dd;}.cls-91{fill:#f4e1dd;}.cls-92{fill:#e24d19;}.cls-93{fill:#d34818;}.cls-94{fill:#e7dfdc;}.cls-95{fill:#e6d5d2;}.cls-96{fill:#e9511c;}.cls-97{fill:#da4b1a;}.cls-98{fill:#da4d1c;}.cls-99{fill:#e6511e;}.cls-100{fill:#f0ecdd;}.cls-101{fill:#a83913;}.cls-102{fill:#dbd5d3;}.cls-103{fill:#5c1f0a;}.cls-104{fill:#df501f;}.cls-105{fill:#957c2b;}.cls-106{fill:#b64b27;}.cls-107{fill:#79290d;}.cls-108{fill:#9a3411;}.cls-109{fill:#fbe0d6;}.cls-110{fill:#d84f20;}.cls-111{fill:#a96c57;}.cls-112{fill:#a53813;}.cls-113{fill:#a13712;}.cls-114{fill:#e2511e;}.cls-115{fill:#bb9c36;}.cls-116{fill:#aaa;}.cls-117{fill:#bd4015;}.cls-118{fill:#a48930;}.cls-119{fill:#b5a098;}.cls-120{fill:#a63813;}.cls-121{fill:#923110;}.cls-122{fill:#a2401f;}.cls-123{fill:#a38e87;}.cls-124{fill:#dd4b19;}.cls-125{fill:#c8a73a;}.cls-126{fill:#e05423;}.cls-127{fill:#bf4115;}.cls-128{fill:#6f260c;}.cls-129{fill:#32290e;}.cls-130{fill:#a03612;}.cls-131{fill:#511c0a;}.cls-132{fill:#8b8b8b;}.cls-133{fill:#c34216;}.cls-134{fill:#b9502c;}.cls-135{fill:#473b15;}.cls-136{fill:#b59735;}.cls-137{fill:#79290e;}.cls-138{fill:#efdad3;}.cls-139{fill:#8c3d22;}.cls-140{fill:#7c6724;}.cls-141{fill:#cbaca1;}.cls-142{fill:#883417;}.cls-143{fill:#5a1e0a;}.cls-144{fill:#d6d5d4;}.cls-145{fill:#812c0e;}.cls-146{fill:#b89285;}.cls-147{fill:#5b1f0a;}.cls-148{fill:#9c3511;}.cls-149{fill:#67230c;}.cls-150{fill:#e7c8be;}.cls-151{fill:#444443;}.cls-152{fill:#64220b;}.cls-153{fill:#ae8b7f;}.cls-154{fill:#110604;}.cls-155{fill:#6a2416;}.cls-156{fill:#100f0f;}.cls-157{fill:#682113;}.cls-158{fill:#1b1918;}.cls-159{fill:#262322;}.cls-160{fill:#6a2619;}.cls-161{fill:#6d2618;}.cls-162{fill:#221f1f;}.cls-163{fill:#632114;}.cls-164{fill:#d7d6d6;}.cls-165{fill:#180804;}.cls-166{fill:#524c4b;}.cls-167{fill:#312d2c;}.cls-168{fill:#434140;}.cls-169{fill:#230c07;}.cls-170{fill:#f8f8f8;}.cls-171{fill:#6d2416;}.cls-172{fill:#652113;}.cls-173{fill:#3c3a39;}.cls-174{fill:#662012;}.cls-175{fill:#631f11;}.cls-176{fill:#521a0f;}.cls-177{fill:#541a0f;}.cls-178{fill:#4a170d;}.cls-179{fill:#9f9f9f;}.cls-180{fill:#50190e;}.cls-181{fill:#605f5f;}.cls-182{fill:#a59997;}.cls-183{fill:#b2aba9;}.cls-184{fill:#49160d;}.cls-185{fill:#cdcdcd;}.cls-186{fill:#e9e9e9;}.cls-187{fill:#571b0f;}.cls-188{fill:#959595;}.cls-189{fill:#c7a842;}.cls-190{fill:#443914;}.cls-191{fill:#f6cd48;}.cls-192{fill:#f6f5f2;}.cls-193{fill:#f2f1ed;}.cls-194{fill:#c1a23e;}.cls-195{fill:#3b3635;}.cls-196{fill:#dab53f;}.cls-197{fill:#9a802d;}.cls-198{fill:#fefefe;}.cls-199{fill:#efede8;}.cls-200{fill:#b79f50;}.cls-201{fill:#adadad;}.cls-202{fill:#a3a2a1;}.cls-203{fill:#fdf2cf;}.cls-204{fill:#7c6824;}.cls-205{fill:#fafafa;}.cls-206{fill:#d2d2d2;}.cls-207{fill:#cbcac7;}.cls-208{fill:#787878;}.cls-209{fill:#dbdbda;}.cls-210{fill:#d0cbbe;}.cls-211{fill:#edc74c;}.cls-212{fill:#f4e1de;}.cls-213{fill:#4b4b4b;}.cls-214{fill:#675f5d;}.cls-215{fill:#eec645;}.cls-216{fill:#a2872f;}.cls-217{fill:#bf9f37;}.cls-218{fill:#cfad3c;}.cls-219{fill:#f3ca46;}.cls-220{fill:#493d15;}.cls-221{fill:#f25823;}.cls-222{fill:#f25c28;}.cls-223{fill:#f25824;}.cls-224{fill:#f2612f;}.cls-225{fill:#fce0d7;}.cls-226{fill:#fbd5c8;}.cls-227{fill:#f36a3b;}.cls-228{fill:#f2602e;}.cls-229{fill:#f58b66;}.cls-230{fill:#f5815a;}.cls-231{fill:#f7a487;}.cls-232{fill:#f58964;}.cls-233{fill:#f26433;}.cls-234{fill:#f47a50;}.cls-235{fill:#f69473;}.cls-236{fill:#f69573;}.cls-237{fill:#f4794f;}.cls-238{fill:#f68e6a;}.cls-239{fill:#f7a78b;}.cls-240{fill:#fac4b2;}.cls-241{fill:#f47c52;}.cls-242{fill:#1a0804;}.cls-243{fill:#d1c5c2;}</style></defs><title>megaphone</title><path class="cls-1" d="M1,611Q1,308.26.91,5.5C.9,1.75,1.75.9,5.5.91q345.5.15,691,0c3.75,0,4.6.84,4.59,4.59q-.15,300.5,0,601c0,3.75-.84,4.6-4.59,4.59Q348.76,610.94,1,611Z"/><path class="cls-2" d="M600.18,546.2c-3.3,5-6.48,8.45-14,8.77s-14.72,4.57-22.31,6.35l.5,1.27c-.45,1.19-1.51,1.22-2.47,1.12-11.07-1.07-22.06-2.52-32.55-6.51a12.85,12.85,0,0,1-3.09-1.57,2.4,2.4,0,0,1-1.25-2c.12-1.2,1.21-1.42,2.16-1.67,1.9-.49,3.8.32,5.2.11-7.26-1.31-16.23.31-20.61-9,.22-2.36,1.7-1.51,2.93-1.2-1.18-1-2.23-.76-3.11.51-3.32.42-6.53,3.85-10,.36a45.51,45.51,0,0,1-21.71-19c-1.43-2.41-3.07-4.79-6.28-5.24a3.47,3.47,0,0,1-2-1.46c-5.81-7-12.62-13.1-18.51-20-2.92-3.43-4.5-7.74-6.19-11.89-.57-1.39-.38-2.71,1.71-2.54,4.52.16,5,4.12,5.9,6-.91-1.62-1-5.59-5.35-5.91-1.78-.44-3.69-.81-4.48-2.71-2.63-6.35-5.81-12.55-6.28-19.6,6.3-7.49,14-12.8,23.74-14.59,5.69-1.05,9.82-4.69,14.3-7.84,6.1-4.28,7.23-4.35,12.34.85,4.19,4.26,9.62,7.24,12.81,12.51,8.07,9,16.14,18.06,28.18,22,1.59.52,3.47,1.32,3.93,2.84.92,3.05,2.65,3.87,5.51,3.13a11.11,11.11,0,0,1,4.33,3.71,29.2,29.2,0,0,1,1.81,4.63c1.17,4.52,4.21,6.75,8.39,8.3a51.13,51.13,0,0,1,19.3,13c2.57,2.71,5.06,5.61,8.82,6.88-5.72-6-11.57-11.88-16.91-18.22a13.61,13.61,0,0,0-10.12-4.87c-6.21-.1-9.46-3.23-10.81-8.93a4.22,4.22,0,0,0-.91-1.74,22,22,0,0,0-4-3.68c-3.56-3.87-4.26-9.09-1.22-13.49,2.67-3.88,4.18-7.46,1-11.78-.94-1.29-1-3.08,1-3.56,2.58-.6,3.31-2.37,3.85-4.59.79-3.2,2.68-5.27,6.21-5.39,3.34,3.12.65,6.3-.39,9-2.31,6.05-4.56,12.13-5.79,15.37,2.11-6.82,7-15.87,8.92-25.94.95-2.74,3.38-5.06,2.32-8.35,0-4.43,3.66-4.64,6.57-5.42,7.59-2,15.12-1.39,22.59,1-5.88-1.85-11.3-4.93-17.53-5.73-1.81-.23-3.78-.17-5.31-2.09-1.72-2.15-1.56,1.52-3,1.21,4.36.35,8.59.51,12.62,3-5.72,2.51-12.73,1.6-17.43,6.51a2.3,2.3,0,0,1-1.42.12,4.26,4.26,0,0,1-2.16-3.75c.43-8.28-4.41-16.15-2-24.61-.89,2-.79,4.13-.8,6.24s-.14,4.33,0,6.48c.31,4.11-1.42,6.83-4.85,9.06-8,5.16-16.46,9.37-24.37,14.58-3-.3-5-2.88-8-3.52-2.22-.48-1.59-2.39-.79-4,2.18-4.49,2.13-4.57-2.77-5.41-1.79-.31-3.57-.7-5.36-1-1.25-.21-2.89-.21-3.16-1.85-.24-1.46,1-2.37,2-3.19a21.34,21.34,0,0,1,4.19-2.62,7.69,7.69,0,0,1,3.39-.5c-.95-.37-1.89,0-2.78-.21a7.64,7.64,0,0,1-1.27-.33c-1.93-.72-3.57-1.58-1.79-3.95-1.37-1.23-3.89-.5-4.51-3.14-.43-1.84-2.45-1.23-3.88-1.26-2.85,0-5.59.23-6-4-.13-1.35-1.65-4.09-4.29-2.86-1.8.84-5,1.28-4.44,3.8.49,2.07.95,5.16,3.55,6,5,1.66,5.06,1.5,3,5.68,1.94,1.34,4.16.74,6.26.93,1.91.18,4.55-.64,5.34,1.5.71,1.89-1.93,2.75-3,4.14a16.3,16.3,0,0,0-2.37,2.14c1.11-.82,2.33-1.55,3.89-1.1,3.22,1.63,6.88,1,10.25,1.93,3,.81,5.3,1.77,2.47,5.31-1.34,1.67-1.53,3.14.85,4.38,6.53,3.4,6.49,3.47,3.59,10.91,1.9-2.52,2.05-5.89,5-7.33,3.25-.29,6-2.05,9.09-2.93,2.4-.63,4.8-1.29,7.24-1.77,7.28-1.41,8.87.12,8.17,7.71-1.33,3.33-4.7,4-7.37,5.47-3,1.68-4.71,3.24-2.34,7,1.83,2.91,1.84,6.66,2.42,10.08.4,2.36-.56,3.93-3.37,3.36-3.48-3-4.07-7.5-6.06-11.27-1-1.85-1.87-3.76-3-5.53,2.48,5.64,3.71,11.66,5.72,17.44.52,1.49,1.47,3.21-.78,4.27-5.71-1-10.77-3.26-14.55-7.87-3.26-4-7.61-6.93-10.58-11.19-4.24-6.53-10.87-10.64-16.38-15.87a19.27,19.27,0,0,1-4.93-6.62c-3.32-7.82-6.11-15.84-9.54-23.6-1.35-3.07-2.73-6.1-5.54-8.15-1.56-2-5.7,1.31-6.2-3,0-.16-1,.6-1.54.92-1.19.69-2.36,2.15-3.68.14-.87-2.38.06-4.51.87-6.67,1.91-5.14,3.21-10.36,2.1-15.89a52.11,52.11,0,0,1-.5-5.44,17.31,17.31,0,0,0-7.44-12.92c-3.91-2.79-8.47-4.67-11.83-8.2-2.14-2.23-3.53.82-5.35.55a3.18,3.18,0,0,1-2.45-2.42c-.25-1.78,1-3.06,1.54-4.59.74-3.05,1.35-6.08-1.18-8.68-2.51-1.55-1.17-3.28-.36-5.14,1.71-3.87,1.14-5.08-3.13-5.55s-5.27-2.62-3.94-6.1.27-7.25.93-10.86,1.18-7.22,3.9-10c.56-.57,1.28-1.25.84-2.14a2.07,2.07,0,0,0-2.18-.9c-2.88.27-5.93,1.73-5.81,4.45.21,4.41-2.42,6.6-4.89,9.23-3.28,3.48-3,4.33,1.69,5.83,3.87,1.23,4,1.65.94,4.78-1.25,1.29-3.23,2.42-2.41,4.5s3.06,1.59,4.84,1.69c7,.39,7.46,1,5.27,7.74-.64,2,.32,3.16,1,4.62.48,5.64-.54,6.45-5.51,4.4-5.67-2.34-8.35-1.85-11.81,3.11-1.94,2.79-4.41,3.75-7.42,4.18-.66.07-1.64.26-1.92-.2-2.65-4.34-7.65-4.4-11.39-4.72-8.55-.72-17.11-3.23-25.81-1-5.95,1.51-11.17-2.28-16.9-2.6-1-.06-2.48-1-1.76-2.42,1-2-1.15-2.47-1.34-3.4-.75-3.63-2.85-3.67-5.78-3.53-2.38.11-2.95-1.73-2.43-3.88.58-2.37,2.24-4,3.72-5.82,4-4.87,8.17-9.64,12.3-14.42,2.18-2.91-2.53-2.83-2.16-4.95,4-6,6.68-12.5,7.18-19.78l2.22-2.28a38.15,38.15,0,0,0,14.89-3.47c6.29-2.78,13-2.22,19.61-.81,5.43,1.16,10.73,1.63,16.22,0,3.85-1.17,8-.3,11.86.41a32.33,32.33,0,0,0,20.34-2.75,8.19,8.19,0,0,1,2.88-.76c2.82.37,5.66.19,8.49.44,7.71,3.15,15.76,1.72,23.65,1.46,3.62-.12,6.55.4,9.07,2.95a2.26,2.26,0,0,1-.33,2.9c-2.48,1.65-5.49,2.43-7.66,4.58-1,1-2.59,2.15-1.58,3.76.88,1.4,2.62.69,3.63.05,5.41-3.47,10.66,1.52,16,.2.81-.2,1.67.95,2.22,1.82.41,1.94,1.67,3.7,1.31,5.82-3.59,9.42-1.92,13.37,7.47,17.55a7.88,7.88,0,0,1,3.65,2.48,30.64,30.64,0,0,0,3.13,5c2.09,2.55,4.47,3.88,7.67,1.83,9.07-.35,18.09-1.28,25.17-7.64,4.87-4.38,10-8.76,12.39-15.25.77-2.07,2.92-2.58,4.74-3.37,7.36-3.2,15.15-5.07,22.8-7.4,3.82-1.17,7.62-2.42,11.37-3.79,1.94-.71,3.94-1.94,6.06-.37,1,.56,2.22,1,2.75,2.2a22.43,22.43,0,0,0,10.37,14c5.42,3.86,11.17,7.3,16.44,11.3,11.07,8.4,20.64,18.34,26.47,31.23,3.82,8.43,5,17.7,6,26.68,1.91,16.81,4.4,33.62,4.38,50.61,0,2.49.15,5-1.11,7.32-1.8,3.18-4,6.16-5.4,9.55-2.49,2.75-4,6.17-5.62,9.36A119,119,0,0,1,642,466.9c-2.25,2.72-3,6.44-3.13,9.86a11.16,11.16,0,0,1-3.24,8c-2.06,2.16-3.13,4.49.37,6.48,1.66.94,1.08,2.2.28,3.38a17.06,17.06,0,0,1-4,3.72c-1.18.92-3.12,1.95-2.86,3.26,1.11,5.58-3.3,6.43-6.55,8.46-4.21,2.62-8.85,4.91-8.4,11.21.15,1.94-1.93,3-3.27,4.18-2.38,2.2-4,4.34.24,6.43,2.94,1.47,1.21,2.84-.41,3.91C606.18,539,601,541.62,596.62,546,597.92,546.71,599.18,545,600.18,546.2Z"/><path class="cls-3" d="M386.21,143.9c1.87.83,2.75,2.56,3.78,4.15.78,2,.32,4.33,1.64,6.18-.39,3-.65,5.84,3.72,5.73,2.48.59,2.76,2.63,3,4.64a5.92,5.92,0,0,0,4.29,5.54,5.08,5.08,0,0,0,6.42-2.35c1.24-1.93,3.35-2,5.27-2.41,4.21.32,5.49-4.15,8.76-5.35,1-.45,2-.94,3.07-1.31,7.33-2.55,9.58.52,8.84,7.89-.08.77-1.61,2,0,2.12,4.8.35,8.46,3.6,12.94,4.61.55.12,1.23-.28,1.85-.44,6.49,1.57,12,5.69,8.51,11.43a5.06,5.06,0,0,1-1.22.58c-1.64.37-1.86,1.63-1.86,3,0,3.17-1,6.13-1.8,9.3,1.15-.5,1.86-1.8,3.22-1.79,3.7,1.1,2.39,4.11,2.4,6.54a11.26,11.26,0,0,1-2,6c-5.07,6.82-10.51,7.49-16.5,1.93-.65-.6-1.29-1.36-2-1-3.69,1.91-8.09,1-11.72,3.09a5.31,5.31,0,0,1-3.27,1.8c-5,.22-9.89.81-14.81,1.47-4.42-1.16-8.84-2.27-13.14.43a10.71,10.71,0,0,1-1.35.35c-4.94.36-9.93.44-14.63,2.36-1.7.7-3.58,1.21-3.31,3.67a11.58,11.58,0,0,1-.38,3.57c-1.09,3.39-5,4.64-6.08,8.06A4.28,4.28,0,0,1,366,235.9c-4.53,0-9.08-.07-13.41,1.56-1.06,5.85-6.06,5.59-10.22,6.64,7-1.37,11.58,1.88,10.31,7.28a10.29,10.29,0,0,1-6.12,3.62,7.35,7.35,0,0,0-3.16,1.64c1.72-.66,3.09-1.78,4.84-1.23,2.9,2.56.46,3.73-1.43,4.61-2.27,1.08-2.91,2.63-3.8,5-1.39,3.72-2.33,8.07-5.86,10.77a65.46,65.46,0,0,1-15.88,8.34,96.65,96.65,0,0,1-16,6.75c-1.45.5-3.57,1.39-4.48-.44s.86-3.33,2.25-4.48c1.55-1.27,3.53-1.78,5.25-2.76,1.58-.71,3.36-1,5.08-2.26-2.33,1.3-4.68,1.76-6.7,3-2.29,1-4.5,2.22-7.1,2.1-1,0-2.06-.18-2.55-1.21s.21-1.92.82-2.68c2.22-2.73,5.67-3.34,8.55-4.93,2.81-.87,5.55-2,8.32-3,6.68-2.78,13.47-5.28,19.95-8.5.45-.6-.55-.89,0-.45.18.15.14.32-.14.47-6.59,3.5-13.72,5.72-20.51,8.74-3,.94-5.89,2-8.78,3.21-1.82.64-4,2-5.08-.65-.86-2.22,1.47-3,3-3.9a42.66,42.66,0,0,1,6.32-2.84c.61-.24,1.91,0,1.61-1.18-.18-.69-.27-2-1.91-1.43s-3.38.05-3.78-2.06c-.37-2-.55-3.95,1-5.62,1.4-1.49,3.44-1.84,5.09-2.87-2-1.45-1.52-3-.28-4.66a34.19,34.19,0,0,1,6.63-2.81,43.19,43.19,0,0,0-7.85,3.22,11.41,11.41,0,0,1-4.74,1.29c-2.91.06-5.15-.51-4.69-4.27.13-1.11-.8-2.06-1.57-2.89-1.07-1.78.44-2.62,1.3-3.76,3.36-4.41,6.65-8.88,10-13.32-.18-3.5,1-6,4.76-6.72,1.14-.28,2.26-.12,4.31.47-4.34-1.68-7.57,1.49-11,.09a4,4,0,0,1-2.54-2.15c-3.32-1.9-6.4.79-9.64.55-6.53-1.62-11.21,3.68-17.07,4.57-4.19,1.23-8.53,1.07-12.82,1.44a46.25,46.25,0,0,0-19.74,6.11c-2.82,1.66-6.26,3.14-8.4-1.39-.78-1.66-2.36-.93-3.52-.8-26.29,3.06-52.37,7.86-78.78,10-2.45.19-4.88.64-7.33,1-7.11.8-14.43-.09-21.29,2.69L120.54,247c-4,1.43-8,3-12.31,1.17-4.69-.66-6.88-3.14-7.9-8-4.27-20.31-4.68-40.69-2.22-61.21-.06-8.26,2.36-16.23,3-24.34.58-7.23.33-14.6.71-21.9-.24-5.33-.13-10.75,1.39-15.82,3.94-13.1,5.64-26.59,7.62-40,.8-5.41,3.11-10.44,3.78-16,.18-1.39,4.21-4.57,7.27-5.69.86-.31,2.18.57,3.26,1,20.46,7.47,40.71,15.56,61.44,22.2C198,82,208.86,86.82,220.05,90.86c2.89,1.34,5.73,2.79,8.94,3.22l4,1.17c.84,2,3.38,4.13-.83,5.42-.3.09,1.12.31,1.35,1,2.73,2.39,5.26,5.18,9.44,4.57a10.34,10.34,0,0,1,1.37-.25,6.75,6.75,0,0,1,2.79.22c1.13.47,1.79,1.49,2.68,2.25,1.57,1.63,2.95,3.5,5,4.6,1,.51,2.37,1.09,2.83-.44.34-1.11-1.11-1.36-1.87-1.88-3.5-1.83-7.24-3.25-10.27-5.89-2-1.53-4.45-2.25-6.47-3.69-1.34-1-3.52-2-.94-4l19.92,7c2.33,2.43,6.8,1.67,8.21,5.49,3.1,1.7,5.53,5.53,9.91,3,1.15-1.57,2.88,1.22,4-.54,4.29-3.09,6.4,1.68,8.71,3.16,6.17,4,13.23,4.82,19.85,6.26a143.47,143.47,0,0,1,26.23,8.92c5.61,2.41,11.1,5.07,17,6.61,2.6,3.39,6.86,3.66,10.32,5.43,2.76,1.42,6,1.89,8.75,3.34,1.59.82,2.83.71,3.73-.94,1.1-.92.84-3.22,3.05-3,2.21-.73,2.8.09,2.09,2.17a14.79,14.79,0,0,0-1.28,2.66c-.37,1.54-.33,3.05,1.17,4a2.66,2.66,0,0,0,3.2-.57c1.51-1.32.95-2.61-.13-3.87-.55-.8-1.38-1.68-.28-2.53S385,143.33,386.21,143.9Z"/><path class="cls-4" d="M496.06,267.09c4.41-2.34,5.44-7.62,2.94-15.1,3.91-1,4.58,2.36,5.12,4.54,1.59,6.48,5.23,11.77,9,17.43a15.27,15.27,0,0,0-3.38-6.87,24.29,24.29,0,0,1-4-8.55c-.41-1.42-1.14-3.07.21-4.21s2.44,1,3.48.89c4.31-.54,9.31,2.49,12.81-2.62a11.46,11.46,0,0,1,5.92-4.47c4.69-1.48,8.12,1.71,7.07,6.89,3.81-.45,7.91-1.44,9.37,3.73a2.34,2.34,0,0,0,.44-2.54c-.59-2.89-4.8-2.8-5-5-.18-2.69-.35-4-3.27-4.89-2.22-.67-.6-2.67.34-3.56,4.15-4,4.37-10.45,8.39-12.78-1.6,2.59-4.66,4.9-9.21,6.22-6,1.75-11.61,4.85-17.31,7.46-12.86,5.89-25.56,6.29-38.53,1.22-2.52-1-5.88-.28-7.46-3.37-2-3.59-1.31-7,.56-10.43.16-.29.33-.58.5-.86,5.46-8.9,5.46-8.9,14.32-4.59-1.94-4.25-1.93-4.31-6.38-5.27-2.23-.48-3.14-1.87-2.89-3.94.33-2.67,2.16-4.38,4.73-4.19a17.43,17.43,0,0,0,6.8-.79c5.86-.25,10-4.07,14.37-7.18,2-1.42.77-3.28-.34-4.81-2.86-3.93-13.5-7.12-18.51-5.58a5.42,5.42,0,0,1-3.26-1.77c1.9-2,4.27-3.86,2.63-7.27-.6-1.24.39-2.18,1.39-2.88,1.05-2-.74-3-1.56-4.32-3.13-4.83-3-6,1-10.37,3.83-4.15,7.79-8.16,12-11.94a13,13,0,0,0,4.53-9.06c.58-7.6,4.53-13.38,10.65-17.72,2.44-1.73,4.72-3.66,7.12-5.44a15.26,15.26,0,0,1,5.82-2.27c8.7.34,17.22,2,25.73,3.68a10.72,10.72,0,0,1,1.47.42c4.39,1.83,9.31,2.72,12.38,6.94a4.26,4.26,0,0,1,.34,1.35c-.45,2.57-3,3.89-3.7,6.31-.92,1.86-3.08,2.5-4.14,4.22a4.73,4.73,0,0,1-4.22,1.83c-.75,0-1.77-.41-1.61,1A14.74,14.74,0,0,0,555,153c4.17,4.77,4.83,11,6.73,16.64a6.82,6.82,0,0,1,.17,2.16,17,17,0,0,1-1.18,4.07c-.28.63-.61,1.24-.91,1.86-.75,2.08-.58,4.2,1.47,5.15,2.72,1.25,5.22-.2,7.11-2.09,2.24-2.24,4.37-4.06,7.71-2.28,3.25-.38,6.5-.64,9.46-2.32,5.93-3.35,7.17-3.19,12.21,1.13a32.88,32.88,0,0,1,2.6,2.26c2.41,2.81,1.4,6.52-.05,8.41-4.15,5.4-5.77,12.18-10.52,17.24-6,6.34-17.1,9.33-24.36,5.77,3.56,2.75,6.5,3.35,11.26,2.17a73.19,73.19,0,0,0,8.44-3c3.68-1.38,4.71-.49,3.82,3.27-.65,2.75-1.9,5.38-2.18,8.18-.72,7.36-1.48,14.81,6.39,19.39a4.09,4.09,0,0,1,1.88,3.86,4.6,4.6,0,0,0,2,4.3,1.31,1.31,0,0,1,0,.76c.37,2.54-1.92,2.81-3.31,3.7a145.33,145.33,0,0,1-33.62,16.19c-13.26,4.3-25.92,10.56-39.93,12.46a16.18,16.18,0,0,1-3.11-.16c-2.11-.83-4.1-.16-6.12.44s-3.77,1-5.63-.08c-1.13-1.43.26-1.93,1-2.56,1.66-1.36,1.44-3,.85-4.73-.7-3.41-3.58-4.46-6.2-5.84C499.35,268.49,497.39,268.46,496.06,267.09Z"/><path class="cls-3" d="M558.21,143.18c-1.5-3.85,3.85-1.56,3.73-4.17a5.86,5.86,0,0,1,6.39-2.58c2.22.36,4.56.94,6.84-.13a13.15,13.15,0,0,1-5.85.19c-1.09-.14-2.55.27-2.64-1.45s1.51-1.38,2.5-1.74a5.49,5.49,0,0,1,1.89-.28c-1.62-.33-3.32,1.29-5,0l-.08-.08c-1.16-2.67,1.08-3.15,2.64-3.67a14.14,14.14,0,0,0,4.88-2.31,21,21,0,0,1-5.35,2.25c-1.54.3-3,.85-3.69-1.14-.49-1.54.38-2.55,1.86-2.95a12.94,12.94,0,0,0,3-1.76c2.81-4,1.69-7.83-.46-11.62,2.12-3.62,1.25-6.31-2.2-6.16-7.08.29-14.13-.68-21.2-.26-4.16-.06-8.3-.17-12.45-.5-2.86-.23-5.33.45-5.58,4.33,10.63.93,21.2,1.62,31.79,1.85,4.16.68,1.11,4.78,3.1,6.49,1.76.68,3.72.83,5.28,2,1.41,1.9.67,3.52-.64,5.07-4.08,2.67-8.62,1.57-13,1.59h-.48l-.4-.25c-8.18-6.77-17.65-4.76-26.95-4L521,124c-2.64,1.55-4.71,2.06-4.13-2.27C520.09,114,525,106.8,525.2,98c0-1.36,1.07-1.79,2.43-1.92,16.78-1.6,33.1-.64,48.65,7,6.08,3,12.92,4.18,19.29,6.68,9.76,3.83,17.2,9.78,21.86,19.29,1,2,1.24,5.51,5.24,4.66,1.07-.22,1.24,1.26,1.59,2.2,6,16.07,7.44,32.88,7.84,49.82a11.31,11.31,0,0,1-4.56,9.8c-2.87,2.38-4.71,6.82-4.78,11.08,0,1.39.44,2.72-1,3.36-4.84,2.15-6.59,6.9-9.2,10.86-5.94,9-11.48,18.31-15.53,28.39-2.77,1.84-4.47,1.06-3.48-2.16,1-3.38,0-5-3-6.09-2.62-1-3.56-3.42-4.24-5.83-1.85-6.58-1.92-13.13.71-19.58.66-1.63,1.11-3.34,1.82-5.52-6.24,2.32-11.59,5.54-18,5-3.38-.29-6.11-1.49-8-4.33-.44-.67-.88-1.53,0-2.24s1.52-.31,2.19.29c7.35,6.58,14.44,2.18,20.51-1.59a23.21,23.21,0,0,0,10.38-14.63c.61-2.92,1.28-4,5.44-3.11-4.64-3.29.91-6.18-1.53-8.91-.63-1.44.41-1.7,1.4-2,1.45,0,2.26,1.07,3.15,2.08,1-3.07-1.59-3.13-3.27-3.92-1.86-1.4-1.8-4.53-4.59-5.1-2.57-1.36-3.88-4.35-6.81-5.25-2.38-.57-4.81-.77-7.21-1.15s-4.8-1.09-5.67-3.86c-3.9-2-6.73-5.69-11.19-6.8C562,153.53,558.6,148.27,558.21,143.18Z"/><path class="cls-2" d="M306.94,277.87c-2.94,2.5-7.4,2.74-9.88,6.72,3.81,1.45,6.63-1.21,9.78-1.71,1.09-.41,2.12-.7,2.13,1.06-2.71,1.79-6,2.75-8.69,6.64,8.1-1.24,14.32-4.74,20.73-7.68a1.36,1.36,0,0,1,.92-.33c2,.34,4.82-1.53,5.78,1.18s-2.18,3.23-3.77,4.38c-4.78,3.48-10.05,6.3-14.49,10.5,8.37-4.92,16.79-9.47,25.09-14.24a33.69,33.69,0,0,1,9.31-3.4c1.67-.26,3.27-1,5-.79a3.19,3.19,0,0,1,1.29.6c1.39,4-3.31,2.63-4,4.59,3.29-.33,4.43-3.71,6.9-5.37l1-.28c1.08,6.61-.93,12.38-6.18,16.23a165.6,165.6,0,0,1-17.47,11.63,25.36,25.36,0,0,1-10.49,2.94c-1,.08-2.21.35-2.7-.71-.63-1.35.51-2.22,1.48-2.76,4.22-2.36,8.52-4.57,12.84-6.73,1.74-.87,3.63-1.55,4.74-3.45-7.37,3.13-15.12,5.91-20.75,11.72-3.77,3.9-7.61,4.88-12.49,4.21-1.73-.24-3.54-1.11-5.41.46,1.61,2.46,3.87,2.27,6.17,1.68A117.8,117.8,0,0,1,319,312.24c1.48-.18,3.33-.57,3.93,1.17.49,1.38-1,2.31-2,3.14-2.33,1.85-5.11,3.1-7.05,5.51,7.32-4,14.31-8.52,21.57-12.6,2-1.14,4.45-3.82,6.57-1.17,1.73,2.16-.92,4.23-2.17,6.07-2.61,3.87-6.2,6.94-8.84,10.81-1.82,2.66-5,3-8.09,4.17.62,2.67,3.16,4.1,4.24,6.38-2.28,2.09-4.94,1.88-7.26,1.32-16.7-4-30-12.64-36.94-29-3.59-8.43-3-17,.55-25.3,3-7,6.54-13.86,9.79-20.8,2.33-5,4.79-10.07,11.85-8.88l4.84-1.16c1-.4,2-.81,1.89,1,.05,4.06-1,7.29-5.41,8.82-.56.2-.69,3.16-.16,4.49.58,1.49,2.31.24,3.53.35.6.05,2.61-1.53,1.73.73-.51,1.32,3.46,2.7-.34,3.68a27.09,27.09,0,0,0-7.21,3.28c-1.18.72-3.93.57-3.22,2.67.86,2.57,2.74-.62,4.17.09C305.93,276.49,307,276,306.94,277.87Z"/><path class="cls-5" d="M667,425c1.75-6.39,1.11-13,.42-19.31-2.1-19.48-2.67-39.16-7.41-58.32a47.39,47.39,0,0,0-7.21-15.73c-9.37-13.61-22.45-23-36-31.86a23.8,23.8,0,0,1-1.93-1.55c-.5-.58-1.27-1.18-.89-2s1.19-.85,1.9-.18c15.4,8.86,29.51,19.2,39.7,34.14C659,335,661.73,340,663,345.84c5.23,23.79,7.52,47.9,8.29,72.21.18,5.72-.85,11-4.48,15.43-3.13,3.86-4,8.1-3.77,13,.5,9.12,1.23,18.25-.09,27.4-.72,5-2.28,9.51-.11,15.36,2.95,7.93.12,16.74-3.65,24.58a16.1,16.1,0,0,0-1.61,6.15c-.76,12.37-7.22,21.44-17.11,28.36a2,2,0,0,1-2.75-.07c6.87-7.34,14.17-14.45,16.47-25.33L649.33,526a5.68,5.68,0,0,1-5.66.92c-2.82-1.07-1.56-2.25.1-3.31a16,16,0,0,0,8.65-7.11A39.28,39.28,0,0,0,658.93,492c-2.57,1-4.26,2.83-6.37,3.87-9.59,6.54-20.12,11.56-29.35,18.41,4,1.45,4.43,3.43,1.11,6.22-3.16,2.66-7.06,4.34-9.93,7.3.06,1,.83.94,1.41,1.14,4.35,1.56,5.09,3.86,1.6,6.59-4.81,3.77-9.83,7.34-15.67,9.46l-1.55,1.26c-2.11.09-3.77,4.21-5.28,2.11-1.77-2.47,1.72-4.14,3.54-5.49,4.39-3.25,9-6.2,13.68-9.37-1.44-1.53-4.89-.4-5.19-3.36s2.11-4.38,4-5.89,3.93-2.69,2-5.78c-.79-1.26.77-2.71,1.81-3.81,2.68-2.81,6-4.63,9.3-6.65,2-1.24,5.7-1.49,3.08-5.63-.75-1.17,1.27-2.5,2.41-3.43,2.44-2,4.94-3.87,7.57-5.92-1.46-1.88-4.71-.37-5.14-3.19a5.77,5.77,0,0,1,2.61-5.63c4.74-2.85,2.7-7.88,3.72-11.62a32,32,0,0,1,7.59-13c6-6.76,9-15.08,13.19-22.72.78-1.42,2-1.5,2.91-2.35C663.38,431.15,666.05,428.5,667,425Z"/><path class="cls-6" d="M305.09,253c-6.75.27-9,5.53-11.37,10.47q-4.37,9-8.5,18.07c-7,15.3-2.85,31.69,10.57,41.88a135.84,135.84,0,0,0,11.83,8.3,29.08,29.08,0,0,0,18.51,3.94c-2.85-.91-3.23-4.7-6.41-5.44-.57-.13.48-1.81,1.46-2,5.37-1.09,10.56-2.33,11.64-9,4.35-.84,4.91-5.4,7.62-7.86.82-.74,2.58-1.87,1.2-3.22-1.19-1.15-2.46.35-3.51,1-6.86,4.09-13.66,8.27-20.48,12.43a16.88,16.88,0,0,1-2.1,1.34c-1.54.62-3.39,3-4.67.78-1.13-2,1.6-2.87,3-3.87,2.9-2.13,5.92-4.09,8.72-6.47-6.34.52-12.55,1.14-18.58,2.92-2.94.87-5.61.61-7.72-1.89-.65-.75-1.4-1.54-.83-2.64.45-.86,1.39-.82,2.2-.77,2.32.16,4.64.53,7,.56,3.72,0,7.5.57,9.62-4,.8-1.7,3.27-2.73,5.14-3.79,5.06-2.87,10.22-5.57,15.3-8.4,1.4-.78,2.85-1.6,3.89.12s-.4,2.81-1.73,3.53c-4.84,2.6-9.72,5.11-14.59,7.65-1.45.75-2.91,1.48-5,2.55,7.24.72,12.36-2.51,17.44-5.7,2.39-1.51,4.43-3.73,7-4.81,8.52-3.58,11.15-10.76,12.37-19l1.68-1.7c.4.66,1.27,1.44,1.15,2-1.53,6.41-2,13.35-8,17.77-2.4,3.32-6.55,4.24-9.06,6.78,2.61-1.62,5.25-4.09,8.7-4.86,2.4-.54,5-.64,3.52,3.28-5.22,6.24-10.49,12.44-15.62,18.75-.78,1-.91,2.44-1.38,3.77,1.84,1.14,3.56-.06,5.27,0,2,.07,6-1.61,3.21,3.19-.66,1.15,0,.93.67,1,1.26.16,3-.28,3.39,1.36.51,2.2-2.2,2.08-3.43,4.12,2.32.17,4.31.25,6.29.47,2.23.25,4.77-.45,6.3,2a1.71,1.71,0,0,0,2.23.5c5.09-1.76,10.5-.71,15.65-1.91,1-.22,2.58-.67,2.85-.28,3,4.24,7.14.79,10.38,1.79,3.59,1.1,6.93,2.61,10.83,2.29,1.23-.1,1.44,1.13,1.07,2.22-1,2.85,1.55,1,2.19,1.61,2.47-.37,5-1.34,7.34.31.72,1.73.15,3.25-.8,4.7a2.21,2.21,0,0,1-2.08.52c-.78-.08-.72-1.65-2.19-.92-2.39,1.19-4.64.26-6.59-1.39a31.78,31.78,0,0,1-4.94.37c-7.18-.51-14.35-1.13-21.52-1.77a20.54,20.54,0,0,0-7.37.49c-5-1.42-10.16,0-15.37-.92-7.16-1.24-14-3.45-21.11-4.87-1.91-.38-3.81-.91-5.76-1.17-20.2-4-35.2-14.27-41.8-34.64-3.05-9.38-.62-18.17,3.6-26.49,4.51-8.9,7.9-18.38,13.87-26.53.93-1.27,1.17-3.06,1.72-4.6,1.32,1,4.36.22,2.85,3.92C300.51,254,303.84,252.47,305.09,253Z"/><path class="cls-7" d="M505,282a20.92,20.92,0,0,0,7.29-1.43c1.57-.5,3.2-1.29,4.55.46-2.16,3.22-4.12,6.53-4.7,10.32,1.87-3.87,2.42-9.07,7.93-10.32,26.25-6.79,51.89-15.15,75.08-29.69.63-.4,1.66-.41,1.8-1.46,3.8,1,4.2,3.53,3.92,7.16-.56,7-1.62,14.14,4.22,20,2.47,2.48-1.28,2.93-2.15,4.33-12,3.75-24.13,7.26-36,11.42-2.92,1-8.7.11-7.49,6.45-8.22,7.07-13.34,18.08-26,19.54-4.38.5-8.56,2.58-13.11,1.11-5-.56-8.19-4-11.53-7.19-1.49-.66-3-1.32-4.48-2-9.07-4.09-11.06-9.61-6.75-18.79a1.21,1.21,0,0,1,1.29-.28c.74,2.93.74,2.93-.25,6.27a16.48,16.48,0,0,0,1.26-7.22C501.07,287.48,500.41,283.19,505,282Z"/><path class="cls-2" d="M653,517.31a11.38,11.38,0,0,1-7.95,6.83A43.1,43.1,0,0,1,640,525c2.48,2.52,6,1,9,1.81-4.59,9.52-12.08,16.83-19,24.53-2,2.23-5.1,2.29-7.86.81s-3.27-4.29-3.13-7.27c.06-1.32,2.14-3-.8-4-2.21-.76-3.87-1.24-5.61,1-2.78,3.51-6.22,5.51-10.81,3.09,3.78-3.57,8.43-5.85,12.76-8.62,1.75-1.12,4.53-1.9,4.08-4.46-.52-3-3.5-1.62-5.44-2.05-.48-.11-1-.17-1.86-.32,2.05-3.83,5.84-5.3,8.91-7.57,1.2-.89,2.51-1.62,3.76-2.45s2.44-1.55,1.69-3.14-2.19-1.06-3.49-.68a4.54,4.54,0,0,1-2.58.08c10.25-7.88,21.6-14,32.49-20.81C652.9,502.36,658,509.61,653,517.31Z"/><path class="cls-8" d="M449,483.07c-2.56-.2-1.1,1.39-.8,2.1,3.87,9.39,10.5,16.74,17.83,23.49a28.9,28.9,0,0,1,5.67,6.22c.82,1.35,1.1,3.47,3.95,2.48,1.47-.5,2.67,1.72,3.51,3.12C484.69,529.85,492,537.31,502,542c.83,1,.4,1.78-.46,2.48a5.17,5.17,0,0,1-5.56-.9c-4.85-3.82-10.87-5.4-16-8.68-1.95-1.25-3-1.15-3.31,1.28-.94,5.26,2.32,2,4,1.94,1.73-.2,3.37-.08,4,1.87s-.28,3.48-1.71,4.75c-3.43,3.06-7.42,5.32-11.3,7.72-3.35,1.84-6.69,3.68-10.21,5.18-2.69,1.7-5.92,2.37-8.45,4.4-3.09,1.18-6.17,2.42-9.29,3.51-1.5.52-3.58,1.45-4.33-.56s1.45-2.73,2.87-3.46c5.18-2.64,10.49-5,15.6-7.82,4.46-2.41,8.72-5.2,13.07-7.82,1.4-1.81-1.55-1.3-1.32-2.48-.17-1.11-.49-1.95-1.82-1-1.07.75-2.13,1.52-3.23,2.24-1.73,1.29-3.83,2-5.47,3.42-1.47.76-2.92,1.55-4.41,2.26s-3.32,1.67-4.38-.23.73-3.06,2-4c4.69-3.39,9.39-6.8,14.22-10,2.33-1.53,2.27-3.35,1.5-5.53-.91-2.58-2.75-.87-4.18-.87-2,0-3.91.8-5.89.11-1.46-.44-1.87-1.57-1.94-2.93-.13-2,1.66-3.17,2.32-5.43-5-.39-6.74-3.62-6.76-8.18a5.1,5.1,0,0,0-1.17-2.72,5.09,5.09,0,0,1-.56-5.35c.41-1.48,1.79-2.7,1.14-4.44-.47-.86-.4-2-1.26-2.66L441.84,482c-4-4.63-4.94-10.53-6.8-16-1.23-1.89-3.81-.3-5.13-2a8.69,8.69,0,0,1-2-4.91,1.51,1.51,0,0,1,.56-2.38,9.23,9.23,0,0,0,9.22,1.5c.95.33,1.93.63,1.43,2a110,110,0,0,0,6.05,17.64c.89,2.12,1.92,4.22,4.78,4.15C450.21,483,450,483.42,449,483.07Z"/><path class="cls-9" d="M473.84,241c2.65,3.5,7.08,2.36,10.56,3.61,3.25,1.17,7.43,1.17,10.61,2.52,5.55,2.34,9.76-.61,14.51-1.78a77.3,77.3,0,0,0,18.21-6.87c6.43-3.45,15.48-3.11,18.41-12,.28-.85,1.23-2,2.28-1.42,1.62.92.14,2.17-.36,2.88-4,5.81-6.42,12.73-11.84,17.65,2,1.24,4.2-1.69,5.68.6,1.29,2-.69,3.34-1.62,5.33,4.93-1.43,5.64,3.06,6.58,5.44s-1.72,4.49-4.78,5.32c1.42-5.69,0-7-5.77-5.56-1,.25-2,.52-2.76-.36a2.07,2.07,0,0,1,.11-2.74c.75-1.06,1.57-2.08,2.64-3.49-2.28-.89-5.23,1.78-6.63-1.62-.27-.66-1.63.63-2.35,1.26-2.62,2.31-5.2,4.66-7.83,7-1.56,1.36-3.23,3-4.45-.29-.31-.85-.72-1.13-1.31-.48-3.49,3.8-5.48,1.38-7.33-2.23A20.17,20.17,0,0,0,510.55,266a44.56,44.56,0,0,1,4.26,7.3c.6,1.15,1.17,2.84-.23,3.58-1.6.86-2.28-.84-2.84-2-3-6.05-7.6-11.3-8.84-18.25-.37-2.07-1.36-4.14-3.9-4.65l-1-1a115.91,115.91,0,0,1-20.08-6c-2.58.18-5,0-5.94-3C471.86,240.31,472.66,240.32,473.84,241Z"/><path class="cls-10" d="M343.93,281.87c-13,4.38-23.82,13.23-36.62,18.19,5.28-7.22,13.31-10.88,20.59-15.77-2.26-1.65-4.62-1.29-6.89-1.39,5.81-1.6,10.47-5.51,15.88-7.91,6.84-3.05,13.61-6.06,13.13-15.45-.12-2.26,1.11-4.43,2.05-6.53a31.92,31.92,0,0,1,8.72-13.39c1.42-1.83,2.76-3.76,5.09-4.57a3.78,3.78,0,0,0,3.05-1.69c1.58-3.07,5.18-4.18,6.86-7.14,5.89-6.12,12.22-10.73,21.39-6.91,1.36.57,3.87,2.17,4.5-.4.58-2.37-2-2.48-3.81-2.71a4.31,4.31,0,0,1-2.72-1c4.05-3.56,8.44-3.08,13-1.12-.6,3.42.82,5.44,4.06,6.73s5.42-.19,7.15-2.63c1.44-2,3.27-3.7,4.72-5.7.79-.76,1.75-.51,2.68-.47-1.36,4.44-2,9.35-4.29,13.21-2.9,4.8-8,5.24-13,2.65-1.9-1-3.75-2.19-6.05-2a22.53,22.53,0,0,1-9.57-1.69c-4.33-1.81-8,.52-11.77,1.87-7.85,6.62-15.81,13.16-22.08,21.38a25,25,0,0,0-5.46,13.69,23.31,23.31,0,0,1-5.53,14,16,16,0,0,0-1.08,1.72c-1.46,2.23-4.43,1-6.1,2.71C342.46,280.37,344.26,280.17,343.93,281.87Z"/><path class="cls-11" d="M496.06,267.09c6.45.12,10.78,3,11.71,7.8-.42,3.18-1.64,3.43-3.68,1.06-4.33-5-4.7-5-11-2.72-2.53.92-5.13,2.7-8,.71-7.43-4.46-15.48-1.76-23.24-1.83-3.41,0-6.53,0-9.33-2.12-2.84-1.63-5.83-.71-8.78-.54-9.85,5.89-20.53,4.08-31.05,3.12a8.68,8.68,0,0,0-4.22.29,22.86,22.86,0,0,1-14.72.33,32.53,32.53,0,0,0-24.09,2c-3.64,1.77-7.75,3.32-11.82.56.16-.47.3-1.34.49-1.35,7.43-.42,13.73-4.95,21.05-5.73,6.21-.76,12.37-1.05,18.55.59,3.53.94,7.18-.34,10.79-.14a26.43,26.43,0,0,1,11.36.52,26.07,26.07,0,0,0,18.94-1.54c2.23-1.09,4.62-1.86,6.94-2.77,2.89-1.11,5.56-1,7.75,1.51s4.71,2.47,7.72,2.23c7.71-.6,15.37-1.67,23,1.28C488.61,271.93,492.59,269.56,496.06,267.09Z"/><path class="cls-12" d="M500.71,544.13A2.15,2.15,0,0,0,502,542c1.76-.47,4,4,5.56-.8.47-1.46,2.84.7,4.4.88l-.06-.06c3.3,5.41,8.3,7.68,14.47,7.94a27.94,27.94,0,0,1,10.92,2.73H525.62l-.18,1.28c12.22,6,25.64,7.15,39,8.6,1.42.64,3.3-.32,5.4,2.2C556,567.24,543.48,564.07,531,561c-2.49-.42-5-.81-7.17-2.23a41.93,41.93,0,0,1-11.49-9.28c-1.83-2-3.81-3.11-6.53-2a12.94,12.94,0,0,1-5.56-1C499.24,545.48,499.94,544.8,500.71,544.13Z"/><path class="cls-13" d="M455.41,396l5.4-5.06c1.57,1.95-.33,3.16-.55,4.8,1.9.14,4-1.83,5.72.31a5.37,5.37,0,0,1-2,1.93c-7.74,2.36-12.89,8.93-19.79,12.43-10.14,5.14-20.2,10.8-31.64,12.9a10.08,10.08,0,0,1-6.45-2.28l-9.87-9.07A109.59,109.59,0,0,1,387,401.07a18,18,0,0,1-2.16-6.7c-.28-1-.54-2,.69-2.6a162.74,162.74,0,0,1,12.65,15c.9,1.18,1.59,2.52,2.57,3.66,7.93,9.23,7.92,9.22,19.21,4.91,11.8-4.52,23.35-9.47,32.81-18.19A3.71,3.71,0,0,1,455.41,396Z"/><path class="cls-14" d="M415,166.18c-2.48.93-4.92,1.46-6.37,4.4-1.15,2.31-4.13,1.74-6.35,1-2.71-.93-5.19-2.24-5.39-5.73-.1-1.77,1.08-4.22-2-4.84-.36-3.61,2.7-6.18,3.09-9.57-3.43-1.37-4.43,2.42-6.87,3-3.5-1.53-2.52-3.88-1.17-6.31,5-3.23,10.38-2.5,14,2.09.73.92,1.34.57,2.07.52,6.84-.39,10.77,3.61,13.73,9.08-.25,2-1.79,2.95-3.37,3.81C415.42,164.13,414.5,164.75,415,166.18Z"/><path class="cls-15" d="M499.75,545.89c2.08.2,4.27-.19,6.16,1.1a2,2,0,0,1,1.63,1.33c0,5.38-4.21,7.15-8,9.28-.71.6-1.87.55-2.33,1.55a3.12,3.12,0,0,1,.94.21,1.27,1.27,0,0,1,.84,1.49A131.79,131.79,0,0,0,477.67,567c-2,.73-5,2.64-6.15-.13-1.23-3,2.45-3.35,4.37-4.13,7.52-3.06,15.1-6,21.91-10.51,1.08-.71,2.32-1.29,3-3.07-8.9,1.21-17.26,3.53-25.61,6-1.13.44-2.19.73-2.26-1.07,4.48-4.62,10.54-5.88,16.38-7.41C492.65,545.75,496.1,543.6,499.75,545.89Z"/><path class="cls-16" d="M486.23,193.9c.06-1.36.69-2.24,2.13-2.1,6.3.61,12.38,2.23,17.12,6.51,2.22,2,4.95,5.07-.48,7.58-3.63,1.68-6.74,4.47-10.15,6.66-1.35.87-2.81,1.08-3.82-.66-1.21-.33-2.56-.41-3.08-1.87-1.55-2.62-1.76-6.68.14-7.5,2.4-1,5.6-4.41,9-.9.61.64,2.21.49,3.33.41,1-.07,2.05-.67,2-1.69,0-.56-.95-1.41-1.63-1.62C495.91,197.21,491.47,194.34,486.23,193.9Z"/><path class="cls-17" d="M516.88,121.74c.15,3,2,2.86,4.13,2.27-2.63,3.5-6.64,5.35-9.88,8.14a18.19,18.19,0,0,0-6.66,13.36c-.27,5.94-3.44,10.16-7.68,13.33-4.5,3.35-7.23,8.22-11.51,11.65-1.95,1.56-1.27,3.07-.1,4.73a58.38,58.38,0,0,1,4.35,6.61c1,1.84-.88.92-1.53,1.14a7.89,7.89,0,0,1-2.18-1.89l-3.36-4.34c-2.45-3.15-2.31-6,.82-8.71,4.48-3.93,7.7-9.08,12.66-12.66a13.16,13.16,0,0,0,5.57-10.18c.46-7.73,4.56-13.49,10.93-17.47A10.09,10.09,0,0,0,516.88,121.74Z"/><path class="cls-18" d="M488,210c1.1.5,2.44.61,3.08,1.87-1.94,1.62-3.78,2.75-6.65,1.66-2.58-1-3.95.81-4.2,3.4-.3,3.25,1.91,2.11,3.59,2.16,2.43.08,5.64-1,4.9,3.83-.16,1,4.64,2.9,2.48,4.64s-5.72-1.17-7.11-2.94c-2.88-3.67-3.69-1.46-5.12.77s-3.27,4.62-4.7,7a9.31,9.31,0,0,0-.38,8.59L472,242c-3.46-4.6-1.33-8.86,1.14-12.81,2.58-4.12,6.33-7.46,5.12-13.25-.56-2.7,2.08-4.12,4.71-4.86C484.6,210.64,486.61,211.84,488,210Z"/><path class="cls-19" d="M499,560.85l-.82-.8c-.14-2.83,2.7-1.95,3.88-3.16a17.29,17.29,0,0,1,7.7-1.35c3.29.16,4.69,1.86,3.74,5.31,2.34-.07,4.72-1.17,7.22-.85.95.13,2.18.31,2.17,1.51s-1.51.86-2.27,1.33c-6.38,1.58-12.75,3.17-19.14,4.73-1.77.43-3.8,1-4.58-1.36-.72-2.2,1.32-3.06,2.6-4.25.44-.41,1.69.68,1.34-.72C500.77,561,499.63,561,499,560.85Z"/><path class="cls-20" d="M520.61,562.84a5,5,0,0,0,1.1-.92c.86-1.33-.53-.71-.75-.69-2.77.24-5.52.56-8.83.91.38-1.84,1.77-3.55.23-5s-3.11-.16-4.67-.21a15.07,15.07,0,0,0-5.65,1.22c-1.32.22-2.9,1.09-3.26-1.24,3.57-2.22,7.45-4.16,8.12-9,3.07-.37,4.7,2,6.74,3.58,3.25,2.48,6,5.76,10.36,6.45l7,3C527.54,561.61,524.29,563.44,520.61,562.84Z"/><path class="cls-21" d="M456.9,526.79l1.09,3c-12.78,9.53-24.39,20.3-34.21,33.61-.47-4.31,0-5.65,3.28-9.72,6.47-8.05,14.4-14.61,22-21.49C451.26,529.79,453.37,527.27,456.9,526.79Z"/><path class="cls-22" d="M457,207.94c.33-2.72.76-5.43,1-8.15.11-1.54.54-3.46-1.92-3.8-1.48-2.28.13-4.11.86-6.08,1.21-1.76.67-3.86,1.12-5.78.56-4.29.18-8.15-5.37-8.29-2.32-.06-.42-3.49-2.87-2.94,4.35-2,8.44-1,10.69,2.63C464.51,182,462.31,202.33,457,207.94Z"/><path class="cls-23" d="M456.9,526.79c-1.76,3-5.44,3.29-7.82,5.43.74-1.43,0-2.83-.07-4.24.54-4.79-2-9.31-1.28-14.1.28-1.94-.27-4.74,3.3-4.14.71.39,1.66.67,1.58,1.67-.43,5.76,1.09,9.89,8.08,9.12C460.11,523.55,457.19,524.33,456.9,526.79Z"/><path class="cls-24" d="M52.59,250.22c2.77-6.46,7-10.58,10.88-15s9.79-7.11,10.94-13.66a1.1,1.1,0,0,1,1.4-1,2.39,2.39,0,0,1,1.25,1.36A4.88,4.88,0,0,1,75.9,227q-10.47,11.31-21.05,22.52C54.58,249.82,54,249.81,52.59,250.22Z"/><path class="cls-25" d="M74.66,84.89c-1.42.4-2.2-.59-3-1.3C62.89,76,54.34,68.16,43.72,63.15a1.65,1.65,0,0,1-1-2c.23-1.29,1.21-1.47,2.26-1.24a5.79,5.79,0,0,1,1.82.75c9.62,5.94,18.78,12.47,26.53,20.79C74.13,82.37,75.22,83.35,74.66,84.89Z"/><path class="cls-26" d="M406.07,421l7.12,1.2c-2,3.44.05,6.1,2,8.54,4.87,6.17,8.58,13,12.38,19.87,1.06,1.9,3,3.82,1.5,6.4l-1.11,2.15c-6.3-12.16-15.54-22.7-20.05-35.88A8.65,8.65,0,0,0,406.07,421Z"/><path class="cls-27" d="M386,392c-1,.5-.9,1.53-1.2,2.37-2.9-4.13-3.22-8.95-3.67-13.73-.08-.81-.21-2.13.21-2.4,6.18-3.92,4.13-14,12.31-16.41,2.39-.72,1-3.21,1.52-4.81,1.6-.07,2,1.14,2.53,2.3.58,3-1.42,4.53-3.45,6-2.36,1.72-4.16,3.71-4.12,6.9a5.09,5.09,0,0,1-1.51,3.57c-2,2.11-4.15,3.61-1.31,7.28C388.93,385.18,386.94,389,386,392Z"/><path class="cls-28" d="M321.53,339.29a53.5,53.5,0,0,1,22.06,4.55c1.35.62,2.61.11,3.89-.15,1.58-.33,3.19-1.29,4.23,1,.63,1.36,1.91,1.13,3,.67,3.18-1.31,6.14-.62,9,.91C348.94,348.49,335,345.47,321.53,339.29Z"/><path class="cls-29" d="M397.25,359.1,395.18,357a13.48,13.48,0,0,1,2.42-9.86c2.91,0,6,2.55,8.88-1.8-.25,1.92-.36,2.72-.46,3.51-.76,1.5-2.83,1.79-3.35,3.67.66,1.45,2.25.82,3.36,1.28,2.5,1.05,2.71,2.37.55,3.85a9.34,9.34,0,0,0-3.75,4.46c-.48,1.27-1.36,2.47-2.93,2.18-1.79-.32-1.49-1.9-1.46-3.2A2.15,2.15,0,0,0,397.25,359.1Z"/><path class="cls-30" d="M451,509.74c-2,.2-1.58,1.75-1.62,3A47.56,47.56,0,0,0,450.54,526c.28,1.1,1.09,3-1.53,2-4.55-8.68-3-17.71-1.53-26.73.22-1.39,1.32-2.24,2.28-3.14a2.34,2.34,0,0,1,2.07,2.16c-.29,1.59-1.51,3-.81,4.78C450.89,506.61,449.68,508.18,451,509.74Z"/><path class="cls-31" d="M54.32,124.17c-7.67-1.08-15.26-1.26-22.82-1.85-1.47-.11-3-.27-3.94-1.71a2.2,2.2,0,0,1-.1-2.35c.31-.57,1-1.19,1.59-.74,4.68,3.36,10.18,1.35,15.22,2.35C47.93,120.6,51.65,121,54.32,124.17Z"/><path class="cls-32" d="M408.77,269.14c-3.91,2.53-8.44,2.35-12.38,1.21-5.66-1.64-11.26-1.69-17-1.66,6.72-2.08,13.67-2.46,20.62-2.81C403.42,265.71,406.1,267.41,408.77,269.14Z"/><path class="cls-33" d="M101.83,132.72c.07,2.49.46,5,.13,7.45-.92,6.64,3,13.38,0,19.79-2.84,6.12-2.57,12.68-3.86,19Q98,170.7,98,162.43c.29-5.27-1-10.74,2.09-15.63C101.68,142.24,100.41,137.31,101.83,132.72Z"/><path class="cls-34" d="M306.08,221.22l2,1.56c-1.5,2.2-3.88,2.4-6.17,2.46a21.82,21.82,0,0,0-6.75,1.43,3,3,0,0,1-2.35-.56c-4.63-.59-9.18.2-13.76.65,5.54-2.36,10.07-7.71,17.06-5.72C299.39,222.66,302.78,219.18,306.08,221.22Z"/><path class="cls-35" d="M435.93,464.9,441.84,482c-3.15-1.33-6.67-2-8.79-5.12-.41-2.78-2.34-5.29-1.08-8.41C432.77,466.53,433.64,465.05,435.93,464.9Z"/><path class="cls-36" d="M382.05,226c3.88-3.74,8-5.43,13.37-2.7,2.44,1.25,5.3,1.71,8,2.52C396.31,229.35,389.18,227.47,382.05,226Z"/><path class="cls-37" d="M64.68,169c-7.13,3.51-13.41,6.61-19.71,9.68a7.35,7.35,0,0,1-2.39.67c-1.19.13-2.48,0-2.86-1.36a3.27,3.27,0,0,1,.32-2.33c.78-1.33,1.51-.22,2.37.18,1.57.73,2.81-.58,4.1-1.17,3.76-1.75,7.43-3.72,11.2-5.46A7.13,7.13,0,0,1,64.68,169Z"/><path class="cls-38" d="M292.79,226.11,295,226c6.7-.61,13.19-3.73,20.12-1.73-3.38.41-3.77,3.39-4.92,5.71-.77-2.59-2.83-1.27-4.15-1.09-4.53.61-8.93-.52-13.36-.87C289.35,227.72,294.06,226.86,292.79,226.11Z"/><path class="cls-39" d="M247,107l-2.86,0a15.38,15.38,0,0,0-7.32-2.86c-1.29-.46-2.86-.45-3.49-2-1.15-.89-3,0-4.37-2.13,4.76.85,4.46-1.9,4-4.75L238,97.13c-1,1.54-.19,2.3,1.19,3,2.33,1.14,4.59,2.41,6.87,3.62C245.7,105,247.89,105.58,247,107Z"/><path class="cls-40" d="M280.05,112.12l1.2,1.39c-.38.19-.78.57-1.12.52-1.57-.24-3.12-.61-4.68-.93-3.95,1.08-6.86-1.33-10-3-1.4-2.43-4-3-6.31-3.72-1.35-.43-2.19-.71-1.22-2.22A157.65,157.65,0,0,1,280.05,112.12Z"/><path class="cls-41" d="M374.68,144.9c.24,2.5-.78,4.29-3.28,2.91-5.61-3.1-11.83-4.56-17.56-7.25-1.4-.66-3.95-.85-2-3.49a35.71,35.71,0,0,1,10.22,3.67c3.16,2.69,7.24,3,11,4.23Z"/><path class="cls-42" d="M127.15,245.77c6.7-4,13.83-4.67,21.29-2.69-4.3,2.09-8.62,3.4-13.59,2.29C132.43,244.83,129.73,245.59,127.15,245.77Z"/><path class="cls-43" d="M485.82,181.08A3,3,0,0,1,488,183c-1,.46-1.86.55-1,2.32,1.82,3.84-.16,6-4,6.84C481.49,187.82,481.7,183.94,485.82,181.08Z"/><path class="cls-44" d="M473,554.09l2.19,1-22.16,7c1.93-2.74,4.91-3.85,7.81-5.1,4.23.1,7.25-4,11.65-3.35Z"/><path class="cls-45" d="M615.94,296c-1.8,0-1.32,1.13-1,2.15-5-3.64-9.59-7.55-9.21-14.6A57.14,57.14,0,0,0,615.94,296Z"/><path class="cls-46" d="M387,401.07c4.58,2.34,7.24,6.31,9.23,10.84C391.69,411.24,388.12,407.05,387,401.07Z"/><path class="cls-18" d="M477.92,245c7.05.81,13.6,3.29,20.08,6A33.09,33.09,0,0,1,477.92,245Z"/><path class="cls-47" d="M347.7,276l1.28-.88c.14,2.63,2.84,3.17,4,4.92-1.43,3.91-4.47,6-8.22,7.46.31-3.39.29-3.45,3.29-4.36a2.07,2.07,0,0,0,1.78-2C349.75,279.13,346.57,278.48,347.7,276Z"/><path class="cls-48" d="M415,166.18c-1-.21-2.57.57-3-.72s1.21-1.65,2.1-2.21c1.88-1.2,3.79-2.34,5.69-3.51,1,1.43,2.19-.17,3.23.29-1.26,1.89-3.57,2.89-4.33,5.22S416.19,165.61,415,166.18Z"/><path class="cls-49" d="M100.06,146.8c-.69,5.21-1.39,10.41-2.09,15.63-1.94-4.13-.64-8.5-.87-12.75C97,147.88,98.57,147.25,100.06,146.8Z"/><path class="cls-50" d="M108.23,248.19c4.1-.37,8.12-1.7,12.31-1.17C115.13,251.78,112.87,252,108.23,248.19Z"/><path class="cls-26" d="M435.93,464.9c-3.83,2.92-5,6.42-2.16,10.66.76,1.14.3,1.32-.72,1.36-2-2-2.37-4.53-2.29-7.29.05-1.86,1-4-.85-5.58C431.86,464.78,434.12,463.23,435.93,464.9Z"/><path class="cls-51" d="M379,143.89c.81-1.44.05-1.9-1.26-2,3.86-3.62,6.55-2.38,8.48,2l-3.25.5L384,146C381.37,147.59,379.91,146.38,379,143.89Z"/><path class="cls-52" d="M470.13,543.09c.64,1.59,2.47.18,3.26,1.43-.52.83-1.09,1.78-2.46,1.39-4.29-1.15-7.72,2.36-11.84,2.17a9.41,9.41,0,0,1,4.84-4.17C466.11,544.51,467.75,541,470.13,543.09Z"/><path class="cls-53" d="M648.94,526.79c-4.63.74-9.05-.37-14.57-1.51,4.13-2,7.5-.94,10.72-1.14L642.62,526h6.7A1.12,1.12,0,0,1,648.94,526.79Z"/><path class="cls-54" d="M373.06,145c-4.33.33-7.86-1.92-11.56-3.6a1,1,0,0,1,.18-.38,1.61,1.61,0,0,1,.42-.25C365.77,142.12,369.69,142.83,373.06,145Z"/><path class="cls-39" d="M229,94.08a6.88,6.88,0,0,1-.52,2c-1.9-3.25-6.32-2.4-8.42-5.22A24.38,24.38,0,0,1,229,94.08Z"/><path class="cls-4" d="M397.25,359.1c1.05-.59,2.4-2.13,2.65.53.13,1.38-.25,2.82-.58,5.82,3.64-3.79,2.54-10.21,9-9.57-2.9-.73-5.15-1.72-7.77-1,.83-3.09,1.11-6.4,5.51-6l1.93-.05a34.05,34.05,0,0,0,14.21-1.72,5.5,5.5,0,0,1-3.67-.12c-1.58-.7-2-1.65-.22-3.64-2.11.78-3.2,2-4.59,2.49s-3.16,1.88-4-.83c.38-2.52,2.32-4.28,3.21-6.6,1-2.59,3.58-2.64,5.94-1.82a16.62,16.62,0,0,1,9.75,7.86c.75,1.42,1.91,2.73,2.14,4.31.39,2.8,2.17,3.69,4.59,4,2.49,1.56,2.56,5,5.43,6.85.35-2.18-1.14-3.06-2.1-4.15-1.29-1.47-2.29-3.18-1-4.9s3.08-.39,4.48.3c7.59,3.75,13.95,8.54,14.26,18.07a3.2,3.2,0,0,0,1.7,2.85c1.75,6.07.39,11.84-1.8,17.5-.84,2.17-2.09,4.23-.95,6.67-5.94,5.55-12.11,10.51-19.81,13.86q-10.25,4.44-20.52,8.86c-3.82,1.64-6.53,1.65-9.55-1.82-6.93-8-14.45-15.43-19.52-24.85.05-1.72-1.62-3.42-.07-5.16-1.69-.89,5.07-5.12-1.69-4.35-.41,0-1.13-4.14,1.16-5.51,2.68-1.61,4-3.49,3.78-6.82-.19-2.76,2.21-4.48,4.37-5.62A6.53,6.53,0,0,0,397.25,359.1Z"/><path class="cls-55" d="M531.36,464.78c.8,0,2.23.24,2.1-.61-.62-4.2,0-9.07-2.92-12.29-2.7-2.94-2.12-4.59.58-6.28,3.22-2,6.64-3.72,10-5.56,1.11-1.22-.57-3.4,1.47-4.31,3.16.86,5.63.13,7-3.08-.08-1-1.13-1.82-.44-2.91.82-1.46,2.74-.95,3.74-2.1l-.1.11c2.28-1.08,2.45,1.22,3.46,2.17,2.86,3.74-1.62,5.36-2.32,8.06-.76,1.83-2.49,1.44-3.93,1.7-2.8,1.91-5.94,3.3-5.5,7.82.31,3.15-2.59,3.14-4.85,2.75-.56,1.94.61,2.83,1.36,3.85,2.33,3.18,2.25,6.8-.51,9-3.69,3-2.29,7-3.36,10.42-.64,2,2,2.73,3,4.16.37.68,1.21,1.32.8,2.11s-1.3.75-2.06.26c-3.17,1-4.3-.51-6-3.27-2.25-3.74-7.33-4.37-11.17-6a30.11,30.11,0,0,1-11-8.2c-3.16-3.62-7.23-6.36-9.79-10.52-.56-.72-.6-1.56.18-2s1.41.25,1.85.93c7.48,7,13.44,15.91,24,19,2.1.5,2.41-.68,2.43-2.4C529.45,466.36,528.84,464.43,531.36,464.78Z"/><path class="cls-56" d="M493,420l3.46-3.86c-4.26-.4-8.12.66-11.78-.76-.87-.33-2.19.23-2.59-1-.5-1.51.93-1.87,1.83-2.53s2.44-1.16,2.81-2.6c-2.43-1.56-7.5,2.22-7-.6.63-3.91-6.58-5.19-2.26-8.49,2.44-1.86,5-4.54,8.66-4.18-1.4,3.43,6.82,3.52,1.78,8.27,3.29-.26,5.61-.33,7.89-.64,3.91-.54,4.22,1.15,2.56,4.08,1.68.8,3-.25,4.47-.37.9-.08,1.76.09,1.87,1.1s-.84,1.31-1.58,1.67c-3.33,1.77-7,2.13-9.39,2.69,2.62-.61,6.5-1.37,10.35.19l0,0c.63.56,1.67.89,1.13,2.08l-7.45,5.53c4.26.62,7.64,1,11,1.64,1.71.33,3.89.28,4.5,2.5.54,2-1.17,2.93-2.33,4.07-.58.58-1.11,1.2-2,2.17,3.44,1.23,6.93,1.83,9.09,4.74a.93.93,0,0,1,.29.78c0,.28-.1.42-.17.42-2.62,3.21-3.65,7.22-5.43,11.38-3.09-3.39-1-6.05.36-8.61s1.61-4.1-1.92-5c-7.38-1.77-7.56-2.75-2.18-9-4.37-2.57-9.9-.4-14-3.53C494.67,421.09,492.29,421.85,493,420Z"/><path class="cls-57" d="M425.63,333.23c-2.18-1.57-3.39-3.25-.82-5.56a4.1,4.1,0,0,0,1.39-4.51c-.82-2-2.9-.66-4.39-1-2.76-.61-6.71,1.24-8-2.27s2.46-4.94,4.42-7c.42-.45.82-.93,1.36-1.54-3-1.13-7.08.51-8.22-2.79-1.28-3.68,2.95-5.06,4.86-7.38,1.43-1.74,3.67-2.35,2-6-1.1-2.45,3.42-4.65,6.07-6.32,2.26-1.42,4.28.28,6.1.89,1.5.51.23,2.4-.7,3.26-4.88,4.5-6,10-4.57,16.24.57,2.45-1.67,4.21-1.83,6.6s.17,3.19,2.77,3.23c6.72.1,7.86,2.48,4.28,8.21-.65,1-2.83,2.48.52,2.83,1.45,3.07-1.35,2.83-2.83,3.63A4.37,4.37,0,0,1,425.63,333.23Z"/><path class="cls-58" d="M503,451c-1.16-.59-2-.58-2,1.05-4.85-5.48-10.42-10.18-15.92-15-1.6-1.4-2.63-1.68-4.53-.23-7.67,5.87-16,10.38-25.61,12.47-3.68.8-6.81,3.33-9.56,6.07-1.87,1.86-3.66,3.87-6.23,4.85A2.28,2.28,0,0,0,437,459c3.12-6.21,8.8-9.62,14.49-12.86a31.54,31.54,0,0,1,9.84-3.52c5.81-1.08,10.13-4.86,14.79-8,2.45-1.65,2.13-3.92,1.07-6.21-4.58-9.93-6.47-21-13.27-30a1.46,1.46,0,0,1,0-1.43,2.21,2.21,0,0,1,2-1c3.44,1.18,4.4,4.39,5.6,7.21q5.75,13.55,11.06,27.27c.62,1.59,1.71,2.28,2.76,3.3C491.29,439.5,498.64,443.73,503,451Z"/><path class="cls-59" d="M659.61,419.62c-2.67-1.1-2.88-3.33-3.3-5.11-1.28-5.46-4.77-8.59-9.84-10.3-11.1-3.74-22.28-6.36-34.23-5-13,1.46-26.3,1.12-38.64,6.53-.36.16-.92-.13-1.63-.26.51-2.56,2.76-2.95,4.4-3.36,23.61-5.87,47.28-9.58,71.1-1C656.49,404.39,660.3,410,659.61,419.62Z"/><path class="cls-56" d="M518,436.94l-.12-1.2c1.19-2.66,3.88-3.42,6.09-4.76,6.24-3.77,12.49-7.53,18.82-11.15,2.59-1.48,3.64-3.23,3.37-6.39a77.24,77.24,0,0,1,.2-12.9c.12-1.55-.18-4.55,2.16-4.29,2.55.28,1.13,2.92,1.06,4.56-.12,2.81.36,6-.76,8.33-2,4.28,5.6,4.91,2.87,8.69s-.42,6.69,1.16,9.81c-.54,1.74-2.06,2-3.52,2.36l-.58-.38c-1.79-6.42-1.86-6.47-6.45-3.72a10.26,10.26,0,0,1-3,1.67c-1.55.43-1,.57-.59,1.9.53,1.69-1.82,2.22-3.48,2.48A22.8,22.8,0,0,0,526,435C523.44,436.06,521.23,438.59,518,436.94Z"/><path class="cls-60" d="M543.83,481.08a9.81,9.81,0,0,1,2.27,4.28c1,4,3.35,6.18,7.67,6.08a15.69,15.69,0,0,1,13.07,6.19,124.4,124.4,0,0,0,15.59,16c1.17,1,3.09,2.39,1.61,4.06s-3-.05-4.19-1.14c-2.71-2.45-5.48-4.85-8-7.44-5.1-5.16-10.86-9.73-17.72-11.71-7.64-2.2-9.89-7.57-11.24-14.18C542.55,482.25,541.94,481.1,543.83,481.08Z"/><path class="cls-61" d="M485.14,273.94c3.41-.54,6.78-1.11,9.93-2.78,4.3-2.27,8.08-.31,10.07,4.38,1.26,3,1.61-.9,2.63-.65,3.32,4,.44,5.63-2.75,7.14-3.17,2.15-2.61,6-4.1,8.93-.5.77-.87,1.75-2.11,1.22l-1.21-.26c.59-1.74-2.52-3.05-.57-4.95-.24-2.43,1.74-5.23-1.52-7.14-3-1.77-5.66-1.08-8.33.66a8.33,8.33,0,0,1-2.26,1c-1.94.58-4.48,2.61-5.72.19-1.09-2.13,1.63-3.55,3.33-4.8a5.37,5.37,0,0,0,1.12-.95Z"/><path class="cls-62" d="M458.16,371.78c-2.09.53-2.57-.95-3-2.44-3.19-12.09-4.44-13.5-16.74-18.72-.51,2-.31,3.61,1.78,4.56a3.72,3.72,0,0,1,2.31,3c.16,1.39,1.1,3.2-.85,3.91-1.57.58-2.31-.95-3-2.07-1.36-2.29-2.64-4.62-4-6.93-3.15-1.42-4.87-3.41-2.74-6.92,2-4.8,4.45-3,6.81-.35a20,20,0,0,0,6.52,4.42C454.49,354.62,458.51,361.87,458.16,371.78Z"/><path class="cls-63" d="M483.65,275.93c-.29,2.76-4,2.94-4.28,6,4-.25,7.24-2.23,10.36-4.3,4-2.66,5.92,2.6,9.26,2.2-.74,2.36,1.7,5.59-2,7.15-1.45-.87-2.41-2.23-4.78-1.31-1.93.76-4.9,2.68-6.64-1.44-.7-1.65-2.78.62-4.29.84-2.72.41-6.08,3.93-7.93.26-1.54-3,2.29-5.05,4.47-7C479.48,276.94,481.26,275.63,483.65,275.93Z"/><path class="cls-56" d="M556.22,429.92l-3.46-2.17c4.55-5.35,11-5.3,18.1-6.15a56.62,56.62,0,0,0-16.17-1.68l8.41-6.73c1.08,2.07-1.51,2.84-.61,4.85,7.66-.53,14.5,3.25,21.77,5.32,1.37.39,4.06.21,3.22,2.64-.64,1.85-3,1.28-4.4.62-7-3.22-14.29-2.78-21.49-1.27C559.44,425.8,555.32,425.32,556.22,429.92Z"/><path class="cls-29" d="M425.63,333.23l2.17-.26c2,.2.06,5.07,4.06,3.29.61-.27.61,2.39.31,3.76l-2.05,4.07c.27.57.53,1.19-.05,1.67-1.07.88-1.59-.38-2.36-.7-1.7-3.72-4.93-5.66-8.49-7.12s-3.73-1.13-5.27,2.71c-.68,1.7-2.58,2.92-3.93,4.36-.37.4-.72.41-1.06,0-2.12-1.88-4.76-.19-7-1,2.65-.55,4.75-1.08,6.28-4.18,2.59-5.23,7.84-6.3,13.13-3.78l4.3,2.07Z"/><path class="cls-64" d="M531.36,464.78c-1.41.77-.72,1.8-.54,2.94.57,3.65-1.07,4-3.82,2.3-.12-6.67-3.5-12.44-5.18-18.68-.52-1.95-3.27-4.71-1.05-5.67,2.8-1.21,3,2.75,3.94,4.6C527.11,455,529.17,459.93,531.36,464.78Z"/><path class="cls-65" d="M550,439.68c.71-2,2.81-.7,3.93-1.7-1.18,9-5.66,17-8.53,25.42a30.27,30.27,0,0,1-1.35,3.74c-.47.95,1.73,3.08-1,2.83s-1.78-2.26-1.19-3.83c2.18-5.74,4.48-11.44,6.54-17.23C549.46,446,551.48,443.09,550,439.68Z"/><path class="cls-66" d="M526,435c3-4.29,8.28-3.32,12.36-5.27-1.23-1.68-2.44.64-3.87-.36,2.1-2.18,4.86-3.11,7.33-4.48a8.62,8.62,0,0,0,6.91,5,.55.55,0,0,1,.6,0c.55.67,1.09,1.35,1.63,2-2.44,1.82-6.19,1-8,4-1.51.92,0,3.21-1.84,4-.38-8.39-.37-8.39-8.88-6.4C530.16,434.12,528.08,434.57,526,435Z"/><path class="cls-67" d="M508.83,312.71c4.27,1.72,7.6,4.94,11.53,7.18-1.47,2.89-3.62,2.46-5.62.86C512.08,318.63,509.68,316.21,508.83,312.71Z"/><path class="cls-68" d="M352,303c.36-3.59-1.35-3.52-3.8-2.15a104.58,104.58,0,0,1-11.75,5.86c3.7-3.61,7.53-7,12.39-8.91C349.65,299.69,355.6,298.45,352,303Z"/><path class="cls-69" d="M432.17,340l-.35-4.08c-1,1.71-1.65,2.78-2.43,4.1-2.19-2.21-1.29-4.78-1.59-7.07.48-1.53,3.82-.05,3.06-2.89C434.11,333,433.36,336.49,432.17,340Z"/><path class="cls-70" d="M427.71,345.06c.87-.15,2.38,1.25,2.41-1L432,346.2c-.7,2.94,1.21,4.86,2.74,6.92-2.59,2.05-4.19.19-4.56-1.83C429.78,349,428.49,347.15,427.71,345.06Z"/><path class="cls-71" d="M504,413c-4.05.33-8.15-.2-12.21.66,3.38-2.47,7.3-3.06,11.25-3.54C500.12,412.15,503.87,412,504,413Z"/><path class="cls-72" d="M449,483.07c.33-.34.66-.69,1-1,5.23.5,4.26,5.53,6.07,8.57C452.73,489,453,483.9,449,483.07Z"/><path class="cls-73" d="M556.65,515.64a4.23,4.23,0,0,1,3.32-1.56c1.3,0,2.71-.16,3.42,1.28a1.28,1.28,0,0,1-.24,1.23c-1.07.75-2.17.23-3.26-.13C559,516.16,558,516,556.65,515.64Z"/><path class="cls-74" d="M505.12,415.09,504,413c1-.08,2-.13,2.92-.27s2.21-.89,3.25.08c.58.54.34,1.1-.07,1.69-1,1.39-2.23.94-3.51.67A7.85,7.85,0,0,0,505.12,415.09Z"/><path class="cls-66" d="M493,420l1.89,2.22c-2.79-.39-3,3.32-5.68,3.56C489.05,422.78,490.84,421.27,493,420Z"/><path class="cls-75" d="M512,542.1c.12-.74-1.14-2.26.82-2a44.87,44.87,0,0,1,5.92,1.79c-2.72,2.3-4.73-.11-6.8.11Z"/><path class="cls-76" d="M667,425c-.07,4-2.51,6.8-5,9.52C662.43,430.65,665.07,428,667,425Z"/><path class="cls-77" d="M443.79,269.45c3-1.3,6.11-3.76,8.78.54C449.63,270.11,446.65,270.73,443.79,269.45Z"/><path class="cls-78" d="M543.83,481.08l-1,2.18-4-3.19c1.86,0,1.57-1.19,1.26-2.37C541.85,478.31,542.78,479.75,543.83,481.08Z"/><path class="cls-79" d="M531,545.52a18.9,18.9,0,0,1-9,0A20.42,20.42,0,0,1,531,545.52Z"/><path class="cls-80" d="M390.2,333.87c1.66-2.46,3.39-1.83,5.52-1.86C394.22,334.73,392.41,333.75,390.2,333.87Z"/><path class="cls-81" d="M391.23,190c-3.3,5.72-5.78,12.05-12.08,15.5-1.54.83-3.09,1.89-4.58.89-1.73-1.16-.09-2.7.35-4a40.87,40.87,0,0,0,1.81-9.28c.1-1,.1-2.14-.93-2.65-1.33-.65-2.28.38-2.88,1.3a55.77,55.77,0,0,0-4.27,7.31c-2.43,5.35-5.95,8.67-12.28,8a19,19,0,0,0-4.43.58c-.52-1.06.34-1.48.78-2,.84-1.06,1.91-2.2.59-3.45s-2.44-.28-3.45.69c-.84.81-1.67,1.63-2.52,2.43a15,15,0,0,1-11.65,4.6c-4.25-.2-8.55.55-13.39.93,1.66-2.19,3.07-4,4.42-5.81.66-.92,1.6-1.91.59-3.11s-2.44-.9-3.58-.1a20.69,20.69,0,0,0-3,2.66c-1.28,1.31-2.42,2.74-3.69,4.06-4.18,4.35-8.48,8.16-14.41,2.26,1.68-2.09,3.64-4.53,5.58-7,.54-.68.93-1.45.26-2.24a1.66,1.66,0,0,0-2.27-.22A57.68,57.68,0,0,0,301,205.2c-5.84,4.85-11.51,10-19.36,11.75q4.33-3.62,8.65-7.24c1-.8,2.78-1.55,1.48-3s-2.33.33-3.25,1.06c-3,2.37-5.89,4.9-8.92,7.25-1.21.94-2.58,2.86-4.26,1.23s.7-2.5,1.27-3.65c1-2.08,2.37-4,3.58-6,.65-1.05,1.15-2.23-.15-3.06s-2.2.32-2.88,1.21c-1.72,2.24-3.3,4.59-5,6.87-4.39,6-9.86,10.22-18.82,11.55,8.09-8.16,13.17-16.72,15.64-26.71.33-1.32,1.95-3,.05-4-2.17-1.08-2.73,1.24-3.45,2.59-3.9,7.4-8.32,14.39-14.47,20.21-2.44,2.31-4.8,3.32-8.19,1.29,3.86-2.68,5.88-6.64,7.91-10.58.74-1.44,2.25-3.13.24-4.33s-3,.94-3.89,2.18c-3.11,4.11-5.77,8.57-9.43,12.26-.68.69-1.47,1.28-2.28,2a3.58,3.58,0,0,1-.37-1.1c.17-2.12,3.08-4.56.25-6.25-2.64-1.57-3.91,1.68-5.59,3-3.09,2.48-5.27,6-9.32,7.93.09-3.59,2.84-6.2,2.59-9.57-.11-1.5.07-3.24-1.81-3.63-1.71-.35-2.12,1.27-2.67,2.45-.93,2-1.91,3.86-4.43,5.1.28-3.26,2.37-5.37,3.3-7.93.52-1.43,1.21-3-.69-3.86-1.57-.69-2.36.57-3.06,1.79-1.17,2-2.36,4-3.64,6-.49.75-.9,2.15-2.11,1.59a2.85,2.85,0,0,1-1.74-3.25c.4-1.9,1.51-3.66,1-7.19C202,212.24,197.05,220.26,188.1,225c-.41-3.16,1.5-5.56,1.85-8.25.29-2.32,1.64-5.09-2.39-5.82-2.08-.38-.51-1.85-.34-2.72.42-2.17,2-4.21.42-7.29-6.89,8.44-8.46,20.47-19.8,25.86,3.48-6,6.77-11.54,6.92-18.89-3.22,2.63-3.87,6.17-6.27,8.58-1-1.78-1.18-5.29-4.51-2.45-1.84.1-1.59-.85-1-2,.7-3.12,2.64-6,2-10.69-5.64,7.37-8.07,15.44-13.71,22.66l1.25-26.42-1.68-.4c-4.43,14.15-8.07,28.69-18.94,39.31-1.17-2.89-1.18-2.9,1.47-6.71,6.13-8.82,11.27-18.09,13.1-28.86a10.35,10.35,0,0,0-.22-5.12c-1.66,3.74-3.34,7.47-5,11.21-.59,1.31-.73,2.64-3,2.34s-2.62-1.8-2.65-3.35c-.07-4,.74-7.91,0-12.9-3.21,6.88-2.36,14.62-8.57,19.72,1-6.9,2-13.36,2.67-19.86.27-2.78,2.12-7.51-.61-8.06-3.5-.71-3.61,4.35-4.66,7.09a101.85,101.85,0,0,0-2.91,10.71c-1.34-.36-1.09-1.16-1.23-1.75-.56-2.29,1-6.47-1.47-6.45-1.85,0-5.37,1.81-7.2,3.85C110,187.56,115.45,177,115,165.89c1.11-1.16,1-2.77,1.57-4.15s.68-3.29,2.69-3,1.75,2.16,2,3.61a13.4,13.4,0,0,0,.62,3.95c2.71-3.62,5.84-4.3,9.65-2.41,1.48.73,3.12-.44,4.59-.65,5.62-.81,7.73-3.93,8-9.17A2.31,2.31,0,0,1,146.5,152c1.36.1,1.8,1.33,2.22,2.41a16.34,16.34,0,0,1,.61,3.94c.12,1,.18,2.46,1.24,2.49,5.73.18,11.55,3.9,17.2-.42,4.45-3.4,9.37-2.69,14.34-1.4a7.77,7.77,0,0,1,5.35,4c2.36,4.26,4.86,4.28,8,.41,1-1.29,1.85-2.77,3-4s2.55-2.47,4.35-1.91c5.38,1.68,10.75,1.15,16.09,0,3.33-.69,4.39,1.45,5.58,3.73.66,1.26.87,3.27,2.75,3.11,1.55-.14,1.43-2,2-3.17,2.06-4.07,5.49-4.87,8.7-1.64,1.66,1.67,2.66,1.61,4.63.54,3.44-1.89,6.56-1.37,9.07,2.18,2.92,4.13,5.27,4.12,8.85.49,4.61-4.67,6.39-4.75,11.16-.39,2.58,2.36,4.85,5,7.53,7.3,7,5.89,13.12,6.43,21.09,1.93,6-3.39,6.44-3.33,10.29,2.4,1.77,2.63,3.08,4.18,5.82.61,2.19-2.84,6.21-2.84,9.5-3.85,1.31-.39,2,1,2.65,1.91,2.67,3.85,6.27,4.69,10.54,3.24,2.34-.79,4-.72,5.15,2,2.07,4.77,4.94,6,10,4.86,3.14-.7,5.87-2.35,8.72-3.7,2.47-1.17,5-1.56,6.91.64a24.07,24.07,0,0,0,17.86,8.62A4.52,4.52,0,0,1,391.23,190Z"/><path class="cls-81" d="M381,161c.85.5,2.35.91,2.43,1.51.73,5.45,5.13,9.46,5.69,14.92-2.86,1.62-5.68-.45-8.52-.09-15.88-2.66-31.54-5.73-47-10.85-16.85-5.58-32.58-13.48-49-19.89-9.13-3.57-18.44-6-28.25-3.2-3,.83-4.13-1.34-5.77-2.83-3.84,5.39-10,7-15.51,4-1-.56-2.19-1.55-3.15-.59-2,2.05-4.62,2-7.17,2.62-6.33,1.54-7.19,1.42-10.51-4.2-.25-.43-.38-.93-.82-1.22-2.66,2.92-6.51,2.55-9.08-1.17-1.21-1.76-1.56-4.32-4.58-2-.8.59-1.84-.45-2.59-1.09-1.17-1-2.5-2-4-1.9-3.49.33-5.8-1.05-8.69-3.1s-7.81-1.18-11.34.1c-3.15,1.15-4.85,1.41-6.29-1.83-1-2.23-2.36-2.83-3.85-.31a3.1,3.1,0,0,1-1,1.13c-1.47.93-13.1-1.52-13.83-3.08-1.2-2.57-2.34-3.9-5-1.44-1.59,1.44-2.73.39-3.15-1.45s-.18-4-.34-6c-.24-.31-.39-.23-.53.22-.61,2-.41,5.42-2.55,5.37-2.59-.06-1.79-3.42-2-5.38-.32-3.78-3.19-1.69-4.83-2.43-2.4-1.08-2.72.67-2.73,2.08,0,5-4.15,6.76-7.29,9.24-1.22,1-2.52.45-3.41-.85.24-6.46-1.05-13.49,1.12-19.2,2.48-6.53,2.45-13,3.68-19.54a4.13,4.13,0,0,1,.37-1.44c5.34-8.13,5.34-8.12,5.74-15.32,1.67,2.3,2.05,4.75,2.72,7.06.46,1.57.58,3.65,2.79,3.43,1.82-.17,1.93-2,2.13-3.52.11-.75.25-1.5.63-3.69,1.91,4,3.16,6.78,4.63,9.49.89,1.66,1.38,4.36,3.9,3.85s1.64-3.2,1.89-5.06c.06-.45.2-.89.31-1.43,2.76,1.34,3.31,6.18,6.55,5.37,3.46-.87,1.2-5,2.38-7.81,3.38,1.69,4.95,5.1,7.45,7.53,1.21,1.17,1.8,3.66,4.18,2.78,2.62-1-.36-3.28,1-5,2.86,3.11,2.93,6.86,3.24,10.58.15,1.84-1,4.77,1.69,5.06,3.26.36,2-3.15,2.78-4.9.51-1.16.2-2.64.43-3.94s-.63-3,1.32-3.26a3.37,3.37,0,0,1,4,2.25,38.72,38.72,0,0,0,3.11,6.25c2.62,4.1,5.36,4,7.91-.22.51-.85.79-1.84,1.32-2.68.87-1.38-.48-4.26,2.19-4.21,2.27,0,3.73,2,4.62,4.08.76,1.84,1.56,3.67,2.33,5.51.7,1.67,1.12,3.71,3.46,3.71s2.75-2.07,3.38-3.77a17.52,17.52,0,0,0,.47-1.93c1.78-1.49,2.76.79,4.21.88a58,58,0,0,0,4.38,4.74c3.61,3.16,5.2,2.81,7.37-1.53,3.56,3.84,7.19,8.11,12.23,9.1a28.11,28.11,0,0,1,14,7c2.88,2.58,7,2.51,9.81-1,1.46-1.77,2.5-1.53,4.09-.38a13.3,13.3,0,0,0,7.92,2.73c5.82-.1,8.67,3.1,10.49,8.1.67,1.82.41,5.07,3.36,4.77s.93-3.78,2.33-5.46c2.07,1.3,2,3.65,2.64,5.59.54,1.55.61,3.62,2.94,3.21,1.84-.32,1.83-2.11,1.93-3.61.08-1.28.16-2.55.28-4.52a20.2,20.2,0,0,1,5.08,6c2,3.37,4,4.9,6.23-.37,1.67,2.32,2.95,4.24,4.39,6s2.38,5.65,5.79,1.77c1-1.11,1.67.4,2.25,1.06.87,1,1.53,2.19,2.43,3.16,1.4,1.52,2.41,4.11,5.07,3.19,2.48-.85,1.19-3.51,1.92-5.47,2.66.15,4.53,6.14,8.07,1.3.58-.79,1.21.68,1.57,1.24,2.43,3.74,5,7.4,5.07,12.17.08,3,1.4,5.16,4.71,2.94,1.95-1.3,2.26,0,2.83,1.16s.85,2.17,1.4,3.2c.94,1.79.94,4.76,3.88,4.4,2.62-.31,1.9-3.13,2.69-4.92,2.21.91,1.71,5.32,5.23,4.29,2.72-.8,1.85-3.58,2.65-6,2.28,2.62,4.33,5.07,6.48,7.42,1.09,1.19,2.27,3,4.12,1.47,1.57-1.26.38-2.73-.46-3.92s-.68-2.52-.69-3.84C378.38,161.34,378.53,160.06,381,161Z"/><path class="cls-82" d="M116.37,127.3c1.82.2,3.57,1.06,3.79-2.28.18-2.69,1.2-2.64,3.51.12a26.73,26.73,0,0,0,2.11-8.21,5.67,5.67,0,0,1,.62-2.36c.44-.82,2-1,2.09-.6,1,4.19,7.33-3.3,7.13,3.34a62.26,62.26,0,0,0,.7,7.51c1.44-2.82,1.09-5.42,1.45-7.87.12-.81.27-1.74,1.33-1.83,1.28-.12,1.8.82,1.82,1.86.08,3.09,0,6.18,0,9.41.77-.23,1.14-.23,1.31-.41,3.83-4.15,3.92-4.2,6.47.78,1.15,2.24,2.12,3.58,4.79,1.85,3.2-2.06,5,1.43,7.53,2.34,1.61-1.57.68-5.42,3.81-5.14,3.91.35,2.64,4.85,4.82,7.12,2.37-2.62,4.77-5.53,8.85-2.4.5.39,2.16-.5,3.15-1,1.31-.73,3.14-1.12,3.55.14,1.66,5.1,6,4,9.46,4.14,3,.11,2.82,3,4.64,4,1-1.2.63-3.58,2.92-3.42,2,.13,2.15,2,2.28,3.38.35,3.93,5.11,2.22,6.08,6.67a49.45,49.45,0,0,1,.63-5,1.87,1.87,0,0,1,2.2-1.57,1.62,1.62,0,0,1,1.48,1.73c-.39,2.75,1.42,4.1,3.06,5.8,2.2,2.29,2.92,1.62,5.69.06s6.7-1.8,9.73-3.87c.19-.12,1.09.33,1.23.68,1.69,4.29,4.86,2.56,7.86,2.16s6.21.14,5.74-4.55c-.1-1,1-1.77,2.07-1.77a2.41,2.41,0,0,1,2.39,2.18c.44,3.11,1.87,2.53,4.13,1.73,6.73-2.4,13.46-1,20.11.73,12.64,3.33,24,9.9,35.91,14.9,6,2.51,12.22,4.12,18.22,6.41,14.17,5.4,28.64,9.4,43.77,10.73,1.81.16,3.29,1.65,5.22,1.14.24,1.93-1.31,1.87-2.47,2.25-1,.15-2,0-3.6.28a15.67,15.67,0,0,0,8.76,5.36c3,.78,6.36.19,9.05,2.23.18,1.38,2.8,3.1-.56,4-8.47-.93-17.09-1.43-22.36-9.78-1.29-2-3.11-1.25-4.85-.37-3.4,1.73-6.61,3.86-10.51,4.47-5.73.9-8.82-.69-10.57-6.2-.6-1.89-1.17-1.82-2.72-1.29-5.51,1.9-10.59,2.11-13.3-4.44-.68-1.66-1.53-.65-2.28-.22a9.55,9.55,0,0,1-5.68,1.6c-1.81-.17-2,.87-2.42,2.3-1.19,3.79-2.94,4-5.43,1-1.87-2.25-2.37-6.55-5.28-6.7-2.55-.13-5.2,2.56-7.88,3.85-7.69,3.73-14.25,1.15-20.14-4-3-2.62-5.71-5.58-8.54-8.39-2.13-2.11-4-2.38-6.33.05-6.76,7.09-7.08,6.84-13.35-.47a4.73,4.73,0,0,0-7,.26c-2.32,2.72-3.71,2.34-5.06-.56-.71-1.53-1.07-2.93-3.52-2.36-2.05.47-3.23,1.13-3.73,3.22s-.27,4.79-3.34,4.72c-2.56-.06-2.8-2.61-3.42-4.39-1.11-3.19-2.28-5.53-6.2-3a5.22,5.22,0,0,1-4.84.11c-1.44-.6-2.67-1.18-3.83.63a2,2,0,0,1-3.39.13c-3.13-3.93-5.07-.92-7,1.19-1.33,1.45-2.08,3.44-3.45,4.85-3,3.11-6.07,2.6-8-1.12-2.73-5.22-10.4-7.62-15.72-5a56.25,56.25,0,0,1-7.25,3.32c-3.19,1.06-6.53,1.7-9.26-1.29-.58-.64-1.15-1.16-2-.3-4.24,4.17-4-.05-4.33-2.47s.36-5-1.79-7.12c-1.88,2.89-3.33,5.71-2.19,9.29.85,2.67.49,3.46-2.53,2-.91-.44-3.9-2.35-5.31,1.65-.94,2.65-5.3.35-6.77-.53-3.78-2.24-5-.26-6.45,2.31-.49.89-.75,2.05-2,1.79s-1-1.49-1.13-2.47c-.22-2.36.69-4.89-1-7.59-1.91,2.44-.71,6.21-4.13,7.13C113.2,152.94,116.82,140.19,116.37,127.3Z"/><path class="cls-83" d="M418.11,178.86a22,22,0,0,1,7.2,1.93c3.24,1.27,6.36,2.63,10.07,1.23,2-.78,4.28,0,6.17,1.28a36.1,36.1,0,0,0,3.32,2.21c6.58,3.41,6.6,3.39,3.78,11.08-2.17-3.4-3.47-2.8-5.24.45-2.6,4.77-8.21,7-18,8,3.11-6.25,3.85-12.46,1.29-18.78-2.53.23-.52,3-3.39,3.39,1.45-5.64-2.64-7.44-6.51-9.42C416.67,179.17,417,178.64,418.11,178.86Z"/><path class="cls-84" d="M361.81,214.14c2.18-2.78,4.22-4.39,6.77-3.92,8.85,1.63,16.11-2.38,23.5-6.12,2.69-1.36,4.4-4.15,8.13-4.16,2.64,0,1-3.69,2.19-5.29.26,0,.51,0,.57.06,7.48,10.06,6.56,12.66-5.46,15A250.16,250.16,0,0,1,361.81,214.14Z"/><path class="cls-85" d="M353,253a42.33,42.33,0,0,0-2.13,11c-.2,5.37-7.71,11-14,11,.62-.85,2.47-.57,2.17-2.24-.44-2.46-.3-4.6,2.53-5.58.26-.09.66-.57.6-.72-2.37-5.92,2.54-6.5,5.95-8.26,1-.53,1.17-1.52.11-2.36-.64-.65-2.63.32-2.09-1.74,2.3-.36,4-1.88,5.85-3.06C352.88,251.41,353.59,251.87,353,253Z"/><path class="cls-86" d="M353,253l-1-2c.93-2.83-3.33-7.14-6.5-6.45-2.24.49-4.41,1.28-6.88.91,1.29-2.14,3.63-2.75,5.51-3,4-.54,7.1-1.37,7-6.22,3.83.29,8.49-1.52,10.31,4C358,244.1,354.63,248,353,253Z"/><path class="cls-87" d="M424,212.45c-.75,4.61-4.15,7.78-7.43,10.08s-6.48-1.41-9.27-3.09c-2.39-1.45-.9-3.76.77-5.39Z"/><path class="cls-88" d="M395.15,215.17c1.32.06,2.63.19,3.94.16,3.47-.06,5.38,2.15,4.87,5.5-.19,1.2-.92,1.24-1.71,1.15a7.9,7.9,0,0,1-2.88-.68c-9.54-5.23-16.61-.43-23.38,5.68-.94.26-1.39,0-1-1l.26-3.92c3.78-5.53,10.05-5.18,15.58-6.5,1.4-.34,2.94.26,4.34-.41Z"/><path class="cls-89" d="M391.79,186c-11.26-.17-14.87-1.72-20.4-8.94h5.44c4.43.76,9.34-.55,13.15,3Q390.9,183.06,391.79,186Z"/><path class="cls-90" d="M391.16,154.36c.65-1.32,1-3.09,2-3.86,1.89-1.39,4.71-1.73,6.49-.58s-.53,2.78-1.2,4.07c-1.2,2.32-1.31,5.19-3.54,7C389.45,161.37,388.65,160,391.16,154.36Z"/><path class="cls-91" d="M432,163.26c.22,5.6-4.11,5-7,5.67a3.09,3.09,0,0,1-4-2.63c-.13-1.55,6.23-5.89,8.43-5.91C431.89,160.36,432.06,162,432,163.26Z"/><path class="cls-92" d="M186.09,216.15a112.84,112.84,0,0,1-3.19,12.19c-1,3.07-5.08,1.7-8,2.77C177.81,225.29,182.08,219.49,186.09,216.15Z"/><path class="cls-93" d="M112.69,235.09c.85-6.67,1.58-12.37,2.32-18.06.1-.79.16-1.83,1.31-1.57a2,2,0,0,1,1.19,1.38C118,223.05,118.94,229.41,112.69,235.09Z"/><path class="cls-94" d="M350.75,144.89c-.74-.34-1.46-.72-2.21-1-1.06-.41-1.75-1.19-1.4-2.26.53-1.57,1.62-.47,2.38-.18,3.23,1.24,6.4,2.65,9.64,3.85,3.79,1.4,6.61,3.25,4.28,8-2.91-.46-1.35-6.64-6-5.25C354.61,148.27,352.65,146.64,350.75,144.89Z"/><path class="cls-95" d="M379,143.89c1.73.55,2.85,2.57,5,2.07,1.49.95,2.33,1.7,1.16,3.87-1.27,2.37-3.47,2.24-5.28,2.81-1,.31-2.39-1.28-2.48-2.63C377.26,147.86,376.21,145.33,379,143.89Z"/><path class="cls-96" d="M350.75,144.89l6.69,3.17c-.73,4,1.77,7.8.39,12.26C354.06,155.6,352.22,150.34,350.75,144.89Z"/><path class="cls-97" d="M457.93,190.15c-.63,1.95-1.27,3.89-1.9,5.84-1.47,1.63-2.12,4.11-5.06,4.74,1.58-5.23,3.47-10.14,3.15-15.51-.2-3.39,1.86-.69,2.84-.91C458.41,186.07,458.2,188.1,457.93,190.15Z"/><path class="cls-98" d="M400.84,180.8c-1.25-1.3-1.92-2.66-4.44-3-3.25-.45-2-4.71-3-7.36,4,2.94,7.17,7,12.43,7.89.32.05.37,1.77.55,2.71a3.27,3.27,0,0,1-1.48.94A3.92,3.92,0,0,1,400.84,180.8Z"/><path class="cls-10" d="M395.16,215.14c-5.12.15-9.39,3.82-14.65,3.5-2.47-.16-2.08,4.46-5.28,3.41-1.19-2.51-1.06-3.39,2.29-4.43C383.37,215.82,389.08,214.59,395.16,215.14Z"/><path class="cls-93" d="M153.92,233,164,219.31c-.21,6.88-3.75,10.67-7.27,14.39-.81.85-1.81-.26-2.69-.61Z"/><path class="cls-99" d="M256,110c1.53.44,3.48.31,4,2.28a2.26,2.26,0,0,1-1.4,2.43,4.51,4.51,0,0,1-5.14-.57,15.66,15.66,0,0,1-4.57-5.2C251.62,107,253.65,109.6,256,110Z"/><path class="cls-100" d="M361.43,240.26c-2.65-3.37-6.67-3.21-10.31-4a31.57,31.57,0,0,1,14.76-1.22C365.4,237.64,363,238.6,361.43,240.26Z"/><path class="cls-101" d="M315.1,224.24c-5.09-1.29-9.74,1.43-14.66,1.62-1.82.07-3.64.07-5.46.11,3.73-3.67,9-1,13.08-3.19,3.69,1.13,7.63-2.23,11.74.85Z"/><path class="cls-102" d="M146.8,75.29a3.3,3.3,0,0,1-1.33-3.17c5.25.9,10.83-.15,15.55,3.15-2.27,1.77-2.33,1.86-4.33.58-1.44-.92-2.76-1.81-4.5-.86A4.4,4.4,0,0,1,146.8,75.29Z"/><path class="cls-103" d="M108.6,204.58c1,8.78-.21,16-1.95,23.48C106.09,225.69,107.31,208,108.6,204.58Z"/><path class="cls-104" d="M188.61,96.34a22.84,22.84,0,0,1-4.19-8.2c2.31-.34,5.05-1,6.16.71C192.06,91.12,190,93.42,188.61,96.34Z"/><path class="cls-105" d="M313.72,273.72l21.52-8.67c-6.23,4.45-13.26,7.16-20.3,9.83C314.42,274.61,313.75,274.5,313.72,273.72Z"/><path class="cls-106" d="M381,161c-1.42,0-1.89,1-2.14,2.2-1-1.63-1.15-1.7-1.62-.53-.67,1.65-1.43.93-2,.14a28.73,28.73,0,0,1-2.28-3.76c-.44-.83-1.18-1.82-.35-2.7,1.17-1.24,2,0,2.9.64C377.31,158.29,379.13,159.65,381,161Z"/><path class="cls-107" d="M356.11,211.37c-5.25,3.55-11.48,2.89-17.21,4.37C344.19,212.39,350.27,212.37,356.11,211.37Z"/><path class="cls-108" d="M331.93,213.32c-5.05,2.64-10.56,3.79-17.65,4.63C320.48,213.93,326.3,214.13,331.93,213.32Z"/><path class="cls-109" d="M390,180.07l-13.15-3c1.1-.32,2.47.1,3.22-1.18,3.15-.38,6,1,9,1.5A2.43,2.43,0,0,1,390,180.07Z"/><path class="cls-110" d="M327.14,135.21v5.92c-3.17-2.21-4.68-5-6.32-7.71,0,0,.17-.3.28-.32a7.53,7.53,0,0,1,.95,0C323.66,134,326,133.07,327.14,135.21Z"/><path class="cls-111" d="M405.23,181.24l1.12-.21c1.47,3.31.24,6.72.4,10.19-1-3.14-4.36-4.75-4.8-8.09C403,182.35,404.83,183.09,405.23,181.24Z"/><path class="cls-112" d="M212,228.71c4.57-1.4,9.16-2.41,14.66-1.55C221.45,229.5,216.7,229.18,212,228.71Z"/><path class="cls-113" d="M438.21,178.33c-3.93,1.27-7.27-.4-11.72-2.1C431.77,173.72,434.63,177.86,438.21,178.33Z"/><path class="cls-114" d="M233.32,102.13c1,1,2.21.71,3.36.85,2.26,1.38,5.57,1.1,6.7,4.25C238.47,108.61,235.55,106,233.32,102.13Z"/><path class="cls-115" d="M309,283.94l-2.13-1.06c3.06-1.75,6.14-3.42,10.79-3.66C314.71,282.16,311.84,283.06,309,283.94Z"/><path class="cls-116" d="M265.46,110.09l10,3c.6.93,1.18,1.68-.74,1.65C270.85,114.68,268,112.83,265.46,110.09Z"/><path class="cls-117" d="M147.68,222c1.18,5.06.24,8.41-4.46,11.29C144.8,229.27,146.05,226.11,147.68,222Z"/><path class="cls-118" d="M331.66,272.92c-3.12,2.39-6.18,4.61-10.24,4.41A21.9,21.9,0,0,1,331.66,272.92Z"/><path class="cls-119" d="M327.14,135.21l-5.09-2.11c3.13.27,6.25.58,9.38.79,2.16.15,3,1.12,2.33,3.41C331.43,137,329.94,133.85,327.14,135.21Z"/><path class="cls-120" d="M393.94,189.49c4.82,6,.4,7.5-2.58,9.92C392,196.14,394.38,193.78,393.94,189.49Z"/><path class="cls-121" d="M306.08,221.22c-3.33-.41-6.7,2.17-10-.18l12.5-2.27C308.59,220.86,307.09,220.77,306.08,221.22Z"/><path class="cls-30" d="M138.93,70.51c-3.76-1-2.29-4.94-3.63-7.35,2.25,2.13,4.91,4,4.95,7.69C139.66,71.3,139.22,71.19,138.93,70.51Z"/><path class="cls-122" d="M418.11,178.86l-1.32,1.32c-2.16-1.71-3.57-1.65-3.7,1.53a20.3,20.3,0,0,1-.54,4.35c-.25-2.65-2.83-5.5-.83-7.71C413,177,416,177.66,418.11,178.86Z"/><path class="cls-123" d="M256,110l-7.09-1L247,107c0-1.18-3.22-1.45-.92-3.28C248.53,107.18,253,107.35,256,110Z"/><path class="cls-124" d="M419.44,198.58c-2.38,3.26-4.13,5.32-7.27,6.57C412.56,200.89,414.74,199.3,419.44,198.58Z"/><path class="cls-125" d="M313.72,273.72l1.22,1.16c-2.66,1-5,2.78-8,3l-2-.93A35.4,35.4,0,0,1,313.72,273.72Z"/><path class="cls-126" d="M146.8,75.29l5.39-.3c-.45,1.89-.89,3.78-1.42,6A13.85,13.85,0,0,1,146.8,75.29Z"/><path class="cls-127" d="M123.25,69.79c1.67,4.36-.2,7.74-1,11.19C122,77.46,120.88,73.89,123.25,69.79Z"/><path class="cls-128" d="M342,219.45c4-.29,7.87-2.25,12.36-1.07A18.94,18.94,0,0,1,342,219.45Z"/><path class="cls-129" d="M346.16,254.09l2.09,1.74c-2.58.24-4.45,3.66-8,1.5C342.38,256.14,343.65,254.12,346.16,254.09Z"/><path class="cls-130" d="M104.82,170.49a14.16,14.16,0,0,1-1.15,9.7C102.56,175.44,102.61,175,104.82,170.49Z"/><path class="cls-131" d="M347.83,223.6c-3.26-.55-6.17,2.58-10,.46C341.54,222.25,344.8,223.15,347.83,223.6Z"/><path class="cls-30" d="M129.46,67.06c-.49-1.88,0-4.11-3.32-5.69,5,.06,6.26,2.08,6.09,5.42A2.1,2.1,0,0,1,129.46,67.06Z"/><path class="cls-132" d="M375,226l1,1c-1.73,2.82-4.31,4.68-7.06,6.38C369,229.31,373.33,228.73,375,226Z"/><path class="cls-133" d="M116.77,238.68l4.71-4.32C122.3,239,122.3,239,116.77,238.68Z"/><path class="cls-134" d="M138.93,70.51l1.32.34a9.58,9.58,0,0,1,.73,1.77c.37,1.88.64,3.77,1,6.1C138.65,74.41,138.25,73.27,138.93,70.51Z"/><path class="cls-135" d="M331,256.5c-2.72,2-5.84,2.66-9,3.16A15.87,15.87,0,0,1,331,256.5Z"/><path class="cls-136" d="M322.8,234.92c-2.77,2-5.08,2.39-8.77,2.26C316.77,233.86,319.63,235.41,322.8,234.92Z"/><path class="cls-137" d="M154,233.09c-.71,3.95-3.66,2.66-6.6,3,1.71-3.05,4.58-2,6.51-3.06Z"/><path class="cls-138" d="M405.23,181.24c.48.85,1.54,1.91.7,2.65-1.38,1.23-2.67-.34-4-.76-.37-.78-.74-1.55-1.1-2.33Z"/><path class="cls-139" d="M315.53,134.56a8.48,8.48,0,0,1-3-4.72C314.69,130.93,318.34,130.11,315.53,134.56Z"/><path class="cls-140" d="M311.82,252.83c-.32-1-1.24-.68-1.89-1,2.38-1.87,5.37-1.75,8.26-2.16Z"/><path class="cls-141" d="M214.3,98.21c-1.6.64-2.8-.6-4.21-.88-.1-1.08-.55-2.93.47-3C212.8,94.27,213.3,96.65,214.3,98.21Z"/><path class="cls-142" d="M129.46,67.06l2.77-.27c1.25,1.7.91,3.25-.44,4.87C130.2,70.44,130.17,68.57,129.46,67.06Z"/><path class="cls-143" d="M423.58,196.49c.6,2.94-.49,5.13-3.67,7.67Z"/><path class="cls-144" d="M221.61,100.67c-1.91-.58-2.75-2.2-4.07-3.65C221.8,97,221.8,97,221.61,100.67Z"/><path class="cls-145" d="M126.31,198.56c-1-2.84.66-5.08,1-8.68C128.78,193.82,127.31,196.17,126.31,198.56Z"/><path class="cls-146" d="M206.92,91.15a7.75,7.75,0,0,1,.07,1c0,1.33,1,3.28-.88,3.7-1.28.28-1.58-1.72-2.3-2.72C203.78,90.74,205.28,90.83,206.92,91.15Z"/><path class="cls-147" d="M361.56,218.51l10.21-1.58C368.5,219.18,365.82,219.43,361.56,218.51Z"/><path class="cls-148" d="M295.51,219.2c2.71-2.27,4.82-2.76,8.12-3.55C301.1,218.56,299,219,295.51,219.2Z"/><path class="cls-149" d="M372.27,199.76c.37,2.77-.81,4.85-2.19,6.84l-1.17-.56Z"/><path class="cls-150" d="M457.93,190.15a10.76,10.76,0,0,1-1-5.83l1.05-.19C459.71,186.16,459.94,188.17,457.93,190.15Z"/><path class="cls-151" d="M206.92,91.15c-1,.69-2.53.56-3.11,1.94-1.14-1.08-1.26-2.8-.31-3.47C204.81,88.7,206.2,89.65,206.92,91.15Z"/><path class="cls-152" d="M105.38,230.59c1.05,1.72.83,3.14-.88,5.16C103.73,233.51,103.26,232,105.38,230.59Z"/><path class="cls-137" d="M163,212c.19.73.06,1.63,1,2-1,1.6-2.07,3.19-3.1,4.78A10.49,10.49,0,0,1,163,212Z"/><path class="cls-153" d="M243.38,107.23,236.69,103c2.89.59,6.23.37,7.43,4A3.11,3.11,0,0,1,243.38,107.23Z"/><path class="cls-154" d="M597.11,171c3.15.22,3,3,3.89,5,.77.88,1.79,1.69.86,3a2,2,0,0,0-2,1.39,21.87,21.87,0,0,1-3.49-2.72c-3-3.48-6.06-3.43-9.55-.79a14.91,14.91,0,0,1-11.84,2.68c-.88-1.3,0-2.74-.33-4.28a15.16,15.16,0,0,0-5.8-8.89,21.26,21.26,0,0,0-2-2.66c-4.71-3.13-9.75-5.86-13-10.76-2.11-2.42-2.43-5.34-2.26-8.36,0-.79.28-1.73,1.4-1.67s1.1,1,1.26,1.81c3.18,6.34,8,11.36,14.58,13.56,2.69.89,5.82,2.93,9.15,1.62-.31,3.39,2.46,3.43,4.53,3.88,2.84.62,5.76.84,8.65,1.23a2.57,2.57,0,0,1,1.12,3.4c-.71,1.49-2.2,1.09-3.49,1-2.09-.19-4.06-1.31-7.53-.45C587,172,592.32,169.82,597.11,171Z"/><path class="cls-155" d="M569,166c3.86,1.6,6.73,4,6.16,8.64-.39,3.19,2.08.88,3,1.79-.7,1.4-2.89,1.4-3.18,3.19-2-1.82-3.76-1.09-4.8.87a5.56,5.56,0,0,1-4.1,3.19c-2,.35-3.75,2.64-5.94.55s-2.27-4.6-1.23-7.28c1.52.17,2.45,1.42,4,2.45-1.07-1.59-2.63-2.14-3.12-3.63l1.33-3.79c2.7-.69,3.2,2.63,5.56,3-.66-3.24-3.93-3.21-5.71-4.88-2.44-5.64-3-12.07-7-17.05,4.19,4.12,9.39,6.79,14.22,10,.66,1.41.49,2.31-1.34,2-1.26-.19-2-1.72-4.5-1.21,3.5,1.43,5.29,3.71,7.09,6.32C569.11,168.58,567.75,167.36,569,166Z"/><path class="cls-156" d="M515.85,158.07c-1.52-1.25-.69-2,.64-2.36,1.57-.41,3.21-.58,5-.87-.34-.66-.57-1.08-.79-1.52-.58-1.19-3.71-1.17-2.24-3s3.36-.15,4.64,1.22c1.92,2.05,3.68,4.25,5.61,6.29s3.62,4.43,7.05,2.33c1-.6,2.69,0,2,1.65-1,2.56-4.08,2.51-6.13,3.76-1.41.86-2.93-.71-3.7-2.42-1.69-3.76-4.14-5.06-7.67-2C516.78,163,516.84,159.8,515.85,158.07Z"/><path class="cls-157" d="M578,160c-1.05.68-1.1,4.12-3.51,1.12-.93-1.16-2.43-3.63-3.75-.08-.06.14-.55.21-.81.17-5.48-.94-14.44-10.34-15.66-16.4,1.4-.34,3-.08,4-1.6a84.63,84.63,0,0,0,4.66,7.94c.94,1.27,2,4,4.55,1.48a1.28,1.28,0,0,1,2,.59c.78,4.5,4.16,4.85,7.7,5.18C577.48,158.4,577.71,159.41,578,160Z"/><path class="cls-158" d="M536.07,153c0,.54.2,1.5-.84,1.8a1.66,1.66,0,0,1-2-1.14c-.59-1.37-1-2.81-1.46-4.23-1.92-6.1-4-7.6-10.27-6.06-2.89.71-6.09.72-8.66,2.84-1.63,1.35-2.35,0-2.35-1.56,0-3.17,5.45-7,8.47-5.68a11.26,11.26,0,0,0,4.3.81C530.53,140.05,535.81,145.42,536.07,153Z"/><path class="cls-159" d="M504.71,172.47c1.52.45,1.72,1.7,1.69,2.82a32.82,32.82,0,0,0,5.14,19c.79,1.25,1.21,3.22-.39,4-2.18,1.09-2.06-1.32-2.75-2.45-3.84-6.27-5.92-13-5.31-20.4C503.19,174.12,502.82,172.64,504.71,172.47Z"/><path class="cls-160" d="M570.41,124.22a4,4,0,0,0-.8.57c-1.18,1.46-5.27.72-4.12,3s3.89-.38,5.89-1.07a3.54,3.54,0,0,0,.41-.26c1.52-.74,2.21-3.17,4.49-2.22a1.33,1.33,0,0,1,.38,1.24c-.91,1.85-2.52,2.87-4.29,3.89-2.11,1.22-5.68-.12-6.38,3.57-3.2-3.74-7.93-4.75-12.09-6.76,4.17-2,8.92-.46,13.12-2.23C568.23,123.12,569.38,123,570.41,124.22Z"/><path class="cls-161" d="M526.07,121.94c6.1-2.53,12.73-2.76,18.94-2.08a12.35,12.35,0,0,1,8,6Z"/><path class="cls-162" d="M581.24,184.7c3.25-3.3,6-4.36,9.3-3.72,2.38.48,2.68,2.6,2.87,4.67.33,3.67-.91,6.51-4.14,8.37-.82.47-1.85,1.24-2.66.21s.18-1.82.74-2.6a11.4,11.4,0,0,1,1-1.11c1.61-1.73,2.38-4,1.17-5.9s-3.3-.22-5,.06A26.86,26.86,0,0,1,581.24,184.7Z"/><path class="cls-163" d="M566.07,133c3.21.22,6.07-2.27,10-1.39-2.71,2.65-5.86,2.17-9.39,2.86,3.32,2.62,5.87.92,8.35.36,1.3-.29,2.81-1.16,3.35.65s-1.44,2-2.52,2.27a8.59,8.59,0,0,1-4.42-.05c-3.48-1.21-6.53-.36-9.54,1.32C562,136.07,565.43,135.51,566.07,133Z"/><path class="cls-164" d="M520.1,281.06c-3.41,1.67-5,4.82-5.82,8.16-.7,2.77-2,4.3-5.16,4.64.55-3.2,5.18-5.27,2.47-9.43-.45-.69,4.52-.47,5.28-3.37Z"/><path class="cls-165" d="M560.9,170.06c3.1-.68,5,1.17,6.77,3.24.85,1,2.09,2.16.53,3.32a2.46,2.46,0,0,1-3.54-.68c-1.06-1.47-1.78-3.22-3.61-4Z"/><path class="cls-166" d="M494.53,182c-1.64-.27-4,.23-4.66-2.16-.38-1.47,1.2-1.91,2.32-1.41,1.89.84,5.13-1.17,5.65,2.15C498.08,182.17,496,181.92,494.53,182Z"/><path class="cls-167" d="M573.9,202.92c1.13-2.22,2-3.78,2.71-5.38.32-.68.14-1.77,1.33-1.64a1.76,1.76,0,0,1,1.53,2.13C579.24,201,577.9,202.85,573.9,202.92Z"/><path class="cls-168" d="M515.85,158.07c1.32,1.24,1.95,3.48,4.41,3.09-.66,1.11.07,3.29-2.36,3-1.31-.15-2.76-.15-3.61-1.3-1.39-1.88,1.19-1.81,1.51-2.84A6.73,6.73,0,0,0,515.85,158.07Z"/><path class="cls-169" d="M559.72,175.75a6.57,6.57,0,0,1,5.12,4.73c.08.3-.48,1.14-.63,1.11-2.68-.49-3.71-2.93-5.34-4.66C558.77,176.27,559.15,175.94,559.72,175.75Z"/><path class="cls-170" d="M559,112c-3.55,1.53-7.42-1.07-11,.86-1,.53-1.39-.86-1.86-.94-2.09-.37-3.83-2.76-6.55-.57-1.06.84-3.77,1-6,0-2.42-1.13-5.33-3.37-8,1.93.42-8.87,1.71-10.45,7.93-9.63,3.8.5,7.57.08,11.33.53,5.08,1.35,10.4,2,14.93,5a2.53,2.53,0,0,1,.56,1.32C560.33,111.33,559.52,111.53,559,112Z"/><path class="cls-171" d="M560,110.06c-4.84-2.45-10.38-3.07-15.08-5.89,5.8-.29,11.6-.5,17.37.41.81.12,1.92.47,2.42.09,5.32-4,6.26,2,7.72,4.07,1.93,2.78-2.34,2-3.38,3.33a2.66,2.66,0,0,1-2.12.6C564.55,111.94,562,111.63,560,110.06Z"/><path class="cls-172" d="M613.73,140.44c-2.94-4.26-6-7.44-9.77-9s-8.32.67-12-2C600.08,122.83,611.44,128,613.73,140.44Z"/><path class="cls-173" d="M567.52,112l1.51.07c4.26,1.77,4.71,5.78,1.38,12.15l-3.39-.3c-.43-1.35,1.07-2.82-.25-4.12-1.65-2-3.53-2.53-5.72-.83-2.08-1.33-.93-3.15-.54-4.69s-.14-2.09-1.5-2.28c.32-.36.64-.73,1-1.1C562.61,110.36,564.77,113.23,567.52,112Z"/><path class="cls-174" d="M597.11,171c-4.73,2-9.68.77-14.52.85-2.06,0-1.78-2.79-3-4.3,3.31-1.46,6.3-.18,9.12.6,3.87,1.08,3.5-.56,2.49-3.06Z"/><path class="cls-175" d="M582,148.79c.81-1.63,4.06-.86,3.54-3.33-.46-2.2-3.3-.69-4.82-2.4,4.75,0,9.14,0,13.53,0,.94,0,2.3-.13,2.27,1.19,0,.82-1,2.33-1.46,2.32C590.55,146.48,586.67,149.89,582,148.79Z"/><path class="cls-176" d="M579.1,110.05c.38,4.8,4.81,1.93,6.84,3.61-.17.54-.48.63-.92.27a1.9,1.9,0,0,0-2.08,1.66c-.42,2.61-2.88,3-4.52,3-2.47,0-2-2.9-2.91-4.51-1.46-2.66,1.3-2.74,2.33-3.88A1,1,0,0,1,579.1,110.05Z"/><path class="cls-177" d="M577.81,146.15c-8.47,4.18-10.37,3.9-14.82-3.09A24.78,24.78,0,0,0,577.81,146.15Z"/><path class="cls-178" d="M600.59,156.68c.68-2.84,4.29-2.83,4.12-5.74-.05-.73.49-.79,1-.73,1.06.12,1.22.94,1.31,1.8.29,2.69-1.63,4.65-2.28,7.22C603.46,158.1,602.31,157,600.59,156.68Z"/><path class="cls-179" d="M600.64,116.05c6.7,2.89,9.43,5.69,11.32,11.84Z"/><path class="cls-180" d="M601.86,179c-.29-1-.58-2-.86-3,6.38-.83,5,3.45,4.77,8Z"/><path class="cls-181" d="M550,97.86c-4.9,2.24-10.38-.47-15.24,2.5-.48.29-1.88-.19-1.81-1.16.09-1.21,1.31-1.32,2.28-1.32C540.11,97.85,545,97.86,550,97.86Z"/><path class="cls-180" d="M600.14,136.86c3.65-2.11,6.1-2.48,7.1,2C604.66,139.17,602.73,138.12,600.14,136.86Z"/><path class="cls-182" d="M585,113.93a4.86,4.86,0,0,0,.92-.27c2.7,1.1,5.61,1.81,8.85,4.81C590.49,117.09,586.6,118.1,585,113.93Z"/><path class="cls-183" d="M579.1,110.05l-1.26.1c-1.12-.62-.86-2.55-2.8-2.48,3.07-1.71,5.51.37,9.53.44Z"/><path class="cls-184" d="M618.37,192.55c.09,2.62-.31,4.91-2.78,5.92-1.65.68-1.89-.93-.27-2.69C616.29,194.73,617.28,193.7,618.37,192.55Z"/><path class="cls-185" d="M561.05,119c1.55-3.11,4.09-1.58,6.13-1,1.21.33-.28,1.2-.41,1.86Z"/><path class="cls-186" d="M628.63,185.77c.12,1.8.49,3.65-1.54,4.65-.52.25-1.44.24-1.46-.69C625.58,187.71,626.78,186.52,628.63,185.77Z"/><path class="cls-187" d="M578,131.07l1.5-6c2.63,3.07,0,4.5-.11,6.38Z"/><path class="cls-188" d="M618.9,136.94c.17,1.2-.85,1.18-1.51,1.36-1.85.48-1.44-1.28-1.9-2.1s-.12-1.81.81-1.79C617.77,134.43,618.12,136,618.9,136.94Z"/><path class="cls-189" d="M347.7,276c-.46,2.21,4.13,2.26,2.18,5.11l-1.1-.21c-2.93-.26-5.9-.09-8.81-.61-2-3.23,1.42-3.2,2.33-2.84C344.71,278.39,345.94,276.51,347.7,276Z"/><path class="cls-190" d="M340,280.27c2.91.55,6-1.68,8.81.61-1.63.26-3,1.73-4.85,1C343,280.4,340.88,281.81,340,280.27Z"/><path class="cls-191" d="M653.05,489.34a115.39,115.39,0,0,1-19.93,13.14c-.25-.38-.5-.76-.74-1.14,2-1.71,4.07-3.34,6-5.13,1.66-1.55,4.1-2.94,3.5-5.63s-3.56-1.62-5.89-2.35c2.26-4,5.31-6.7,8.22-9.57,1.36-1.33,4.26-2.47,1-4.93-1.12-.83.34-1.27.82-1.61,3-2.09,6-4.11,9-6.15C656.43,473.93,655.21,481.67,653.05,489.34Z"/><path class="cls-192" d="M653,517.31c1.08-5,2.1-9.8-1.3-14.7-1.17-1.68.14-5.08.31-7.68,2.51-1.94,5.52-3.21,7.55-6C661.05,499.38,659.3,508.87,653,517.31Z"/><path class="cls-193" d="M653.05,489.34c.27-7.83.43-15.66,2-23.37.89-2.27,5.4-2.54,3.5-6.35-3.81-1.06-1.58-2.82-.51-4.44.88-.56,2.22-2,2.3.33C660.76,467.38,661,479.26,653.05,489.34Z"/><path class="cls-194" d="M658,455.18c-.23,1.53-1.44,3.18.52,4.44-5.75.76-9,5.82-14,7.93C648.45,462.8,652.67,458.38,658,455.18Z"/><path class="cls-195" d="M409,345l1.06,0c1.43,2.53,2.49.06,3.51-.4,2.32-1.05,4.08-3.25,7.12-3.69.63,2.77-2.35,3-2.81,4.72,2.18,2.11,6.21-1.43,7.92,2.93-4.67-1-8.72,1.41-13.13,1.93-2.28.27-3.33-.54-4.68-1.68A5.15,5.15,0,0,1,409,345Z"/><path class="cls-196" d="M336,338c-2.52.38-4.69-.36-7.12-2.07,3.52-2.21,7-2.64,11-3.06-.93,2.36-4.67,2.18-3.9,5.2Z"/><path class="cls-197" d="M335.93,338H350.2A13.91,13.91,0,0,1,336,338Z"/><path class="cls-198" d="M597.65,253.68c-.44,8.56-1.22,16.21,2.86,23.29,1.25,2.16-1.12,2-2.07,2.29-7.59,2.49-15.18,5-22.84,7.24-15.47,4.56-30.08,10.86-42.74,21-3.33,2.68-4.84,1.7-6.59-1.54-3.15-5.82-4-12.3-5.76-18.5-.76-2.64,1.16-3.12,3-3.49,14.45-2.9,27.74-9.29,41.66-13.8a102.16,102.16,0,0,0,22.91-10.93C591,257.41,594.08,255.76,597.65,253.68Z"/><path class="cls-199" d="M515,309.92c1.63-3.41-.63-7.15.84-10.74,1.55.56,1,2,1.41,2.87,2.59,5.13,7.77,7.51,11.84,11.06.33.28,1.26-.12,1.92-.21,1.1.34,2.58.32,2,2.19-7,3.29-13.35,2.13-18.94-3.2C513.46,310.83,514.52,310.51,515,309.92Z"/><path class="cls-192" d="M533,315.09l-2-2.19c7-5.42,14-10.78,22.55-13.83C548,306.16,543.63,314.6,533,315.09Z"/><path class="cls-200" d="M498.81,301.85c3.78,2,6.79,3.2,9,7.31C504,307.17,500.6,306.55,498.81,301.85Z"/><path class="cls-201" d="M515,309.92c-.29.66-.59,1.31-.88,2-2.64-1.1-6.15-1.81-2.58-5.74C513.82,306.39,511.89,310.45,515,309.92Z"/><path class="cls-202" d="M498.81,292.18l2.11-1.22c-.45,2.77-.09,5.77-2.58,8.53C498.52,296.69,498.66,294.43,498.81,292.18Z"/><path class="cls-203" d="M624.25,536.58c-.4-2.23-.55-3.92,1.06-5,.58-.4,1.23.31,1.45.93C627.49,534.59,626,535.46,624.25,536.58Z"/><path class="cls-204" d="M638,514.32c.62-3.05,2.44-3.49,5-5.14C641.86,512.26,640.65,513.4,638,514.32Z"/><path class="cls-198" d="M464,397a27.3,27.3,0,0,1,6.41,10.46c2.74,7.29,5.64,14.51,8.54,21.74,1.15,2.87.7,4.85-2.12,6.68-5.28,3.41-10.28,7.11-16.69,8.39-9.54,1.9-16.26,8.47-23.09,14.76-3.42,2.37-6.18,2.09-8-2a102.17,102.17,0,0,0-13.46-23.43,29.71,29.71,0,0,1-4.36-7.15c-.93-2.32,0-3.46,2-4.23,15.76-5.19,31.12-11.11,43.34-23C458.57,397.22,461.91,399.2,464,397Z"/><path class="cls-205" d="M499.75,545.89c-9.47,1-18.29,4-26.77,8.2l.08-.34c-.82-.54-2.76.15-2.18-2,3.8-2.68,7.62-5.32,11.38-8.06,1.07-.78,2.16-1.83,1.63-3.35-.67-2-2.32-1.46-3.8-1.23-2.89,1.05-3.44-1.14-4.2-3-1.13-1.94.23-3.38,1.48-4.13,1.44-.88,1.92,1.29,3,1.84l20.34,10.32Z"/><path class="cls-206" d="M470.88,551.79c.72.66,1.45,1.31,2.18,2-4.19.66-7.58,4.36-12.24,3.21Z"/><path class="cls-206" d="M470.13,543.09c-2.19-.64-3.82,2.88-6.2.82,1.38-1.13,2.75-2.27,4.16-3.37.74-.58,1.6-1.44,2.46-.33S471.46,542.3,470.13,543.09Z"/><path class="cls-207" d="M464.16,513.38c-3.12,0-4.94,1.58-6.25-.36-.57-.85-.09-2.79.84-3.09C461.05,509.19,461.79,511.52,464.16,513.38Z"/><path class="cls-208" d="M475.89,536.1c1.61.73,2.15,2.94,4.2,3-1.44.94-3.06,2.61-4.65,1.38S475.09,537.55,475.89,536.1Z"/><path class="cls-209" d="M451,505.05c-1.81-1.95-2.1-3.63.81-4.78C454.31,502.33,451.43,503.48,451,505.05Z"/><path class="cls-210" d="M470,521.14,474,525.5C470.15,526.88,469.88,524.87,470,521.14Z"/><path class="cls-211" d="M524,558c-5.14,1.44-7.44-3.18-10.86-5.28-2.19-1.34-3.82-3.6-6.24-4.75l-1-.93c1.88-2.91,3.72-1.78,5.48.11A73.3,73.3,0,0,0,524,558Z"/><path class="cls-212" d="M415.19,158.27c-.3.58-.42,1.09-.59,1.11-4.84.57-5.54,5-7.74,8.09-.9,1.27-2.35,1.08-3.61.39s-2.94-1.81-2.31-3.41c1.26-3.19,1.7-6.78,4.31-9.4a3.77,3.77,0,0,1,5-.7A46.31,46.31,0,0,1,415.19,158.27Z"/><path class="cls-213" d="M498.78,556.92c.46,2.07,2.26.6,3.26,1.24L498.17,560h-3.59A6.22,6.22,0,0,1,498.78,556.92Z"/><path class="cls-214" d="M393.67,375.8c-4.09-4.91-3.07-7.43,4.22-10.06C394.85,368.47,392.63,371.48,393.67,375.8Z"/><path class="cls-215" d="M542.94,436c0-6.79,5.1-3.19,8-4,.67,4.23-3.48,4-5.46,5.64C544.3,438.69,543.05,437.8,542.94,436Z"/><path class="cls-216" d="M537.09,449.21c-.12.91-.26,1.83-1.45,1.33-.82-.34-2.24-.36-2-1.68.17-1.09,1.42-1.3,2.35-1.36C537.13,447.43,537,448.51,537.09,449.21Z"/><path class="cls-217" d="M486.8,401.89c-1.12,2.55-2.87,3-4.93,2.64-.28,0-.74-1-.63-1.13C482.62,401.57,484.5,401.62,486.8,401.89Z"/><path class="cls-218" d="M415.33,307a36.34,36.34,0,0,1,7.25-6.76C422.22,308,421.94,308.27,415.33,307Z"/><path class="cls-219" d="M548.74,430c-6.15.85-6.59.53-6.91-5a3.2,3.2,0,0,1,.79-.58c1.72-.57,3.48-3.71,4.77-1.87S551,427,548.74,430Z"/><path class="cls-220" d="M563.9,498.88c-3-.59-4.63-2-6.92-3.78C560.24,495.1,562,496.27,563.9,498.88Z"/><path class="cls-221" d="M300,156c-5.54.56-10.49-3.24-16.11-2.17-.94.18-2-.2-2.95-.08-8.64,1-9.25.61-11.55-8.91,11.37,1.1,21.24,6.06,31.32,10.35.22.33.44.69,0,1C300.53,156.29,300.26,156.17,300,156Z"/><path class="cls-222" d="M347,174.74c5.66,2.13,11.09-2.9,16.24,1.34-4.13,2.33-8.49,5.08-14,3.83C346.67,179.34,346.87,177.12,347,174.74Z"/><path class="cls-223" d="M265.27,144.24c-2,6.26-4.26,8-8.49,6.84-1.11-.32-2.33-.62-2.61-2s.82-2.16,1.72-2.79A12.37,12.37,0,0,1,265.27,144.24Z"/><path class="cls-224" d="M290.61,171.83c-4.29-.05-7.47-2.06-10.41-4.91C288,164.4,288,164.42,290.61,171.83Z"/><path class="cls-225" d="M325.32,165.58c-3.27-1.27-6.54.86-9.74-.39-1.85-.72-3-1.82-2.4-3.66s2.31-.59,3.31-.22C319.52,162.44,322.9,162.88,325.32,165.58Z"/><path class="cls-226" d="M125.87,148.05c-1.06-4.78-4.73-9.15-2-15.3,1.51,3.81,3.9,6.55,3.09,10.39C125.78,144.61,127.3,146.65,125.87,148.05Z"/><path class="cls-227" d="M125.87,148.05c.71-1.56-.53-3.54,1-4.91-.33,5.51,2.79,10.35,3.46,16.2C126.43,156.08,123.72,153,125.87,148.05Z"/><path class="cls-228" d="M340.79,172.39a4.71,4.71,0,0,1-4,1.9c-2,.15-4,0-5.37-1.77-.51-.68-.94-1.73-.19-2.18,1.69-1,3.52-.25,5.2.32C337.8,171.12,339.48,170.69,340.79,172.39Z"/><path class="cls-229" d="M133.8,154.09c-3.51-3.42-2.36-6.84-3.09-11.17C133.87,146.7,134.42,149.81,133.8,154.09Z"/><path class="cls-230" d="M196.75,154.2c-.11,2.66-1.55,3.51-3.48,3.72-1.27.14-2.66.5-3.73-.52a1.23,1.23,0,0,1-.06-1.76c1-1.06,2.09-.42,3.11.08C194.39,156.6,194.93,154.27,196.75,154.2Z"/><path class="cls-231" d="M247.19,147.3c-2.25,2.92-6.12.74-8.17,3.35,0,0-.89-.38-1-.71a1.31,1.31,0,0,1,1.14-1.81C241.73,147.79,244.2,146.37,247.19,147.3Z"/><path class="cls-232" d="M138.16,141.61c2.46,2.84,1.44,6,2.31,8.9C137.48,148.39,137.48,148.39,138.16,141.61Z"/><path class="cls-233" d="M161.32,152.09c-1.78-.56-1.45-2.24-1.55-3.6s.71-1.58,1.92-1.33c1.92.4,1.51,1.8,1.42,3.06C163,151.22,162.83,152.21,161.32,152.09Z"/><path class="cls-234" d="M298,166.74c.65-1.77.77-3.67,2.93-3.57.91.05,2.07,1,1.65,2C301.87,166.78,300.24,167.09,298,166.74Z"/><path class="cls-235" d="M324.08,169.2c-3.11,1.76-5.29,1.2-7.43-.4C318.83,167.93,321,167.82,324.08,169.2Z"/><path class="cls-236" d="M165.73,158.39c-.4,1.35-1.63,1.45-2.67,1.75-1.39.4-3.18,1.65-4.2.46-1.27-1.5-.06-2.2,1.64-2a18.63,18.63,0,0,0,2,.14C163.57,158.82,164.49,157.42,165.73,158.39Z"/><path class="cls-237" d="M175.66,153.26a8,8,0,0,1-1.52-6.58C176.23,148.94,177.26,150.47,175.66,153.26Z"/><path class="cls-238" d="M296,160.56c-.62,1.63-.84,3.46-2.57,4.14-.18.08-.92-.6-1-1C292.14,161.17,294.49,161.29,296,160.56Z"/><path class="cls-239" d="M174.87,135.22c1.51,2.92,2.51,4.66,1.93,7.52A8.81,8.81,0,0,1,174.87,135.22Z"/><path class="cls-240" d="M300,156l.71-.81c2,.47,4,.78,5.83,2.71A8.62,8.62,0,0,1,300,156Z"/><path class="cls-241" d="M256.63,163.78c-2.65.35-3.47-.88-3.74-2.64-.06-.33.43-1.07.61-1C255.49,160.31,255.71,162.11,256.63,163.78Z"/><path class="cls-242" d="M569,166c0,2.42,2.83,3.73,2.53,6.69-2.41.09-3.17-1.94-4.31-3.32s-1.91-3.52-4.24-3.85c-2.12-.31-2.34-1.81-1.46-3.3s2.08-.63,3.37,0c.9.42,1.31,4.13,3.18.82C569.17,163.74,569,164.9,569,166Z"/><path class="cls-243" d="M567.52,112c-3,3.15-5.36,1.48-7.56-1.1a4.72,4.72,0,0,1,0-.84A11.1,11.1,0,0,1,567.52,112Z"/></svg>