<?xml version="1.0" encoding="utf-8"?>
<!-- Generator: Adobe Illustrator 23.0.3, SVG Export Plug-In . SVG Version: 6.00 Build 0)  -->
<svg version="1.1" id="Layer_1" xmlns="http://www.w3.org/2000/svg" xmlns:xlink="http://www.w3.org/1999/xlink" x="0px" y="0px"
	 width="92.8px" height="92.8px" viewBox="0 0 192.8 192.8" style="enable-background:new 0 0 192.8 192.8;" xml:space="preserve"
	>
<style type="text/css">
	.st0{fill-rule:evenodd;clip-rule:evenodd;fill:#FFFFFF;}
	.st1{fill-rule:evenodd;clip-rule:evenodd;fill:#231F20;}
</style>
<g>
	<polygon class="st0" points="0,0 192.8,0 192.8,192.8 0,192.8 0,0 	"/>
	<polygon class="st1" points="24.6,137.9 28.1,126 34.2,126 35.7,131.1 40.1,126 46.5,126 43.1,137.9 38.3,138 40.1,131.8 34.4,138 
		32.1,138 30.3,131.4 28.4,138 24.6,137.9 	"/>
	<polygon class="st1" points="67.3,126 82.2,126 81.3,129.9 76.2,129.9 74.1,137.9 69.4,138 71.3,129.9 66.3,129.9 67.3,126 	"/>
	<path class="st1" d="M107.2,126v2.8h0l-0.6,2.3h5.1c0,0,1.2-0.2,1.3-1.3c0.1-1-0.9-0.9-0.9-0.9l-5,0V126h7.7c0,0,3.3,0.2,3,3.1
		c-0.3,2.8-3.4,3.8-3.4,3.8s-0.2,0.2,0,0.3c0.1,0.1,1.3,0.3,1.4,1.4c0.1,1.1-0.4,1.8-0.4,2.2c0,0.3,0,1,0.4,1.2h-4.9
		c0,0-0.9-0.1-0.8-1c0.1-0.9,0.1-1.7,0.1-1.7s-0.1-0.9-1.4-0.8l-3.6,0l-1,3.6H100l3.4-11.9H107.2L107.2,126z"/>
	<polygon class="st1" points="141,126 145.5,126 143.3,134.7 150.8,134.7 150,138 137.9,138 141,126 	"/>
	<polygon class="st1" points="165.4,126 168.1,138 163.4,138 162.9,135.9 162.9,135.8 157.1,135.8 157.1,135.9 155.7,137.9 
		151.7,138 159.8,126 161.4,129.5 159,133 159.1,133 162.2,133 162.2,133 161.4,129.5 159.8,126 165.4,126 	"/>
	<path class="st1" d="M57.1,128.7c1.4,0,2.9,0.7,3.1,1.8c0.7,3.3-2.9,4.7-2.4,4.5c-2,1-5.1,0.7-5.5-1.4c-0.3-2,1.2-4,2.5-4.5
		C55.7,128.7,56.4,128.6,57.1,128.7L57.1,128.7l0-3.1c-0.9,0-2,0.1-2.8,0.3c-3.6,0.7-8.1,3.9-7.3,8c0.7,3.5,5.4,5.3,10.7,4.3
		c5-1,8.2-4.8,7.5-8.1c-0.7-3.3-4.5-4.5-8.1-4.5v2.7L57.1,128.7L57.1,128.7z"/>
	<path class="st1" d="M91.7,128.7c1.4,0,2.9,0.7,3.1,1.8c0.7,3.3-2.8,4.7-2.4,4.5c-2,1-5.1,0.7-5.5-1.4c-0.3-2,1.2-4,2.5-4.5
		C90.3,128.7,91.1,128.6,91.7,128.7L91.7,128.7l0-3.1c-0.9,0-2,0.1-2.8,0.3c-3.6,0.7-8.1,3.9-7.3,8c0.7,3.5,5.4,5.3,10.7,4.3
		c5-1,8.2-4.8,7.5-8.1c-0.7-3.3-4.5-4.5-8.1-4.5v2.7L91.7,128.7L91.7,128.7z"/>
	<path class="st1" d="M129.4,128.6c1.4,0.1,2.9,0.7,3.1,1.8c0.7,3.3-2.9,4.7-2.4,4.5c-2,1-5.1,0.7-5.5-1.4c-0.3-2,1.2-4,2.5-4.5
		C128.1,128.7,128.6,128.6,129.4,128.6l0-3.1c-0.9,0-2,0.1-2.8,0.3c-3.6,0.7-8.1,3.9-7.3,8c0.7,3.5,5.4,5.3,10.7,4.3
		c5-1,8.2-4.8,7.5-8.1c-0.7-3.3-4.5-4.5-8-4.5v2.7L129.4,128.6L129.4,128.6z"/>
	<path class="st1" d="M96.4,42c20.1,0,36,16.2,36,36c0,19.9-16.1,36-36,36c-19.9,0-36-16.1-36-36C60.4,58.1,76.6,42,96.4,42L96.4,42
		L96.4,42z M96.4,85.5L86.3,52.1l-13,42.8h2.4c0,0,1.6-7.4,4.3-11.9c1.5-2.4,3.7-4.4,6.7-4.3c2.1,0,3.9,1.2,6.2,4.4
		c1.4,1.9,3.5,6.8,3.5,6.8s2.1-4.9,3.5-6.8c2.3-3.2,4.1-4.3,6.2-4.4c3-0.1,5.2,1.9,6.7,4.3c2.7,4.4,4.3,11.9,4.3,11.9h2.5l-13-42.8
		L96.5,85.5H96.4L96.4,85.5L96.4,85.5z"/>
</g>
</svg>
