<?xml version="1.0" encoding="utf-8"?>
<!-- Generator: Adobe Illustrator 22.1.0, SVG Export Plug-In . SVG Version: 6.00 Build 0)  -->
<svg version="1.1" id="Layer_1" xmlns="http://www.w3.org/2000/svg" xmlns:xlink="http://www.w3.org/1999/xlink" x="0px" y="0px"
	 viewBox="0 0 1366 768" style="enable-background:new 0 0 1366 768;" xml:space="preserve">
<style type="text/css">
	.st0{fill-rule:evenodd;clip-rule:evenodd;fill:#FFFFFF;}
	.st1{fill-rule:evenodd;clip-rule:evenodd;}
</style>
<g>
	<polygon class="st0" points="586,288 778.8,288 778.8,480.8 586,480.8 586,288 	"/>
	<polygon class="st1" points="610.6,425.9 614.1,414 620.2,414 621.7,419.1 626.1,414 632.5,414 629.1,425.9 624.3,426 626.1,419.8 
		620.4,426 618.1,426 616.3,419.4 614.4,426 610.6,425.9 	"/>
	<polygon class="st1" points="653.3,414 668.2,414 667.3,417.9 662.2,417.9 660.1,425.9 655.4,426 657.3,417.9 652.3,417.9 
		653.3,414 	"/>
	<path class="st1" d="M693.2,414v2.8h0l-0.6,2.3h5.1c0,0,1.2-0.2,1.3-1.3c0.1-1-0.9-0.9-0.9-0.9l-5,0V414h7.7c0,0,3.3,0.2,3,3.1
		c-0.3,2.8-3.4,3.8-3.4,3.8s-0.2,0.2,0,0.3c0.1,0.1,1.3,0.3,1.4,1.4c0.1,1.1-0.4,1.8-0.4,2.2c0,0.3,0,1,0.4,1.2h-4.9
		c0,0-0.9-0.1-0.8-1c0.1-0.9,0.1-1.7,0.1-1.7s-0.1-0.9-1.4-0.8l-3.6,0l-1,3.6H686l3.4-11.9H693.2L693.2,414z"/>
	<polygon class="st1" points="727,414 731.5,414 729.3,422.7 736.8,422.7 736,426 723.9,426 727,414 	"/>
	<polygon class="st1" points="751.4,414 754.1,426 749.4,426 748.9,423.9 748.9,423.8 743.1,423.8 743.1,423.9 741.7,425.9 
		737.7,426 745.8,414 747.4,417.5 745,421 745.1,421 748.2,421 748.2,421 747.4,417.5 745.8,414 751.4,414 	"/>
	<path class="st1" d="M643.1,416.7c1.4,0,2.9,0.7,3.1,1.8c0.7,3.3-2.9,4.7-2.4,4.5c-2,1-5.1,0.7-5.5-1.4c-0.3-2,1.2-4,2.5-4.5
		C641.7,416.7,642.4,416.6,643.1,416.7L643.1,416.7l0-3.1c-0.9,0-2,0.1-2.8,0.3c-3.6,0.7-8.1,3.9-7.3,8c0.7,3.5,5.4,5.3,10.7,4.3
		c5-1,8.2-4.8,7.5-8.1c-0.7-3.3-4.5-4.5-8.1-4.5v2.7L643.1,416.7L643.1,416.7z"/>
	<path class="st1" d="M677.7,416.7c1.4,0,2.9,0.7,3.1,1.8c0.7,3.3-2.8,4.7-2.4,4.5c-2,1-5.1,0.7-5.5-1.4c-0.3-2,1.2-4,2.5-4.5
		C676.3,416.7,677.1,416.6,677.7,416.7L677.7,416.7l0-3.1c-0.9,0-2,0.1-2.8,0.3c-3.6,0.7-8.1,3.9-7.3,8c0.7,3.5,5.4,5.3,10.7,4.3
		c5-1,8.2-4.8,7.5-8.1c-0.7-3.3-4.5-4.5-8.1-4.5v2.7L677.7,416.7L677.7,416.7z"/>
	<path class="st1" d="M715.4,416.6c1.4,0.1,2.9,0.7,3.1,1.8c0.7,3.3-2.9,4.7-2.4,4.5c-2,1-5.1,0.7-5.5-1.4c-0.3-2,1.2-4,2.5-4.5
		C714.1,416.7,714.6,416.6,715.4,416.6l0-3.1c-0.9,0-2,0.1-2.8,0.3c-3.6,0.7-8.1,3.9-7.3,8c0.7,3.5,5.4,5.3,10.7,4.3
		c5-1,8.2-4.8,7.5-8.1c-0.7-3.3-4.5-4.5-8-4.5v2.7L715.4,416.6L715.4,416.6z"/>
	<path class="st1" d="M682.4,330c20.1,0,36,16.2,36,36c0,19.9-16.1,36-36,36c-19.9,0-36-16.1-36-36C646.4,346.1,662.6,330,682.4,330
		L682.4,330L682.4,330z M682.4,373.5l-10.1-33.4l-13,42.8h2.4c0,0,1.6-7.4,4.3-11.9c1.5-2.4,3.7-4.4,6.7-4.3c2.1,0,3.9,1.2,6.2,4.4
		c1.4,1.9,3.5,6.8,3.5,6.8s2.1-4.9,3.5-6.8c2.3-3.2,4.1-4.3,6.2-4.4c3-0.1,5.2,1.9,6.7,4.3c2.7,4.4,4.3,11.9,4.3,11.9h2.5l-13-42.8
		l-10.1,33.4H682.4L682.4,373.5L682.4,373.5z"/>
</g>
</svg>
