<?xml version="1.0" encoding="utf-8"?>
<!-- Generator: Adobe Illustrator 22.1.0, SVG Export Plug-In . SVG Version: 6.00 Build 0)  -->
<svg version="1.1" id="Layer_1" xmlns="http://www.w3.org/2000/svg" xmlns:xlink="http://www.w3.org/1999/xlink" x="0px" y="0px"
	 viewBox="0 0 1366 768" style="enable-background:new 0 0 1366 768;" xml:space="preserve">
<style type="text/css">
	.st0{fill-rule:evenodd;clip-rule:evenodd;fill:#FFFFFF;}
	.st1{fill-rule:evenodd;clip-rule:evenodd;}
</style>
<g>
	<polygon class="st0" points="586,288 778.8,288 778.8,480.8 586,480.8 586,288 	"/>
	<path class="st1" d="M682.4,329.9c-51.7,0-93.5,24.4-93.5,54.4c0,18.9,16.5,35.5,41.7,45.3l0,0l19.4-68l0,0
		c1.9-6.5,8.6-20,23.3-20.5c4-0.3,12.1,2.6,12.1,10.5c0,3-2.6,5.5-5.9,5.5c-3.3,0-5.9-2.5-5.9-5.5c0-3,2.6-5.5,5.9-5.5
		c-1-1.3-4-3-6.2-3c-2.2,0-7.2,0.9-10.3,11.6l0,0l-5,17.2h18.8l-8,28.4h-10l7.1-25h-8.8L640.4,433l0,0c12.6,3.7,26.9,5.8,41.9,5.8
		c51.7,0,93.5-24.4,93.5-54.4C775.9,354.3,734,329.9,682.4,329.9L682.4,329.9L682.4,329.9L682.4,329.9z M641.9,374.6
		c-3.3,12.5-14.6,12.4-18.4,12.4l0,0h-7.3l-4,13.5h-10.8l11.1-38.8H607l0.9-2.9h22.8l0,0C643.4,358.8,643.5,367.8,641.9,374.6
		L641.9,374.6L641.9,374.6L641.9,374.6z M697.8,400.5h-23.4l16.7-25h-9.6l1-3.4h23.6l-16.7,25h9.5L697.8,400.5L697.8,400.5
		L697.8,400.5z M735.4,387h-20l0,0c-1.4,4.6-2.3,10.5,1.6,10.6c3.9,0.1,6-3.7,7.3-7.6l0,0h9.8l0,0c-3.2,10.5-12.1,11.5-17.7,11.2
		c-11.9-0.7-13.5-8.2-10.9-16.2c3.3-10.6,10.3-14.4,19-14.4C737,370.9,737,381.2,735.4,387L735.4,387L735.4,387L735.4,387z
		 M764.7,381.7c-3,0-5.6-2.4-5.4-5.9c-2.1,0.4-5.2,4.7-5.8,6.8l0,0l-5.2,17.8h-10.9l7.2-25h-4.3l1-3.4h15.2l-1.3,4.6l0,0
		c3.2-4.2,7.6-5.2,9.5-5.3c3,0,5.4,2.1,5.4,5C770,379.3,767.6,381.7,764.7,381.7L764.7,381.7L764.7,381.7L764.7,381.7z M716.4,384.1
		c1-3.2,2.4-10.3,7.5-10.3c5,0,2.4,7.6,1.7,10.3l0,0H716.4L716.4,384.1L716.4,384.1z M623.6,361.6h4.5l0,0c3.4,0.1,4.9,3.3,3,11.5
		c-1.9,8.2-6.2,10.9-9.5,10.9l0,0h-4.5L623.6,361.6L623.6,361.6L623.6,361.6z"/>
</g>
</svg>
