<?xml version="1.0" encoding="utf-8"?>
<!-- Generator: Adobe Illustrator 22.1.0, SVG Export Plug-In . SVG Version: 6.00 Build 0)  -->
<svg version="1.1" id="Layer_1" xmlns="http://www.w3.org/2000/svg" xmlns:xlink="http://www.w3.org/1999/xlink" x="0px" y="0px"
	 viewBox="0 0 1366 768" style="enable-background:new 0 0 1366 768;" xml:space="preserve">
<style type="text/css">
	.st0{fill-rule:evenodd;clip-rule:evenodd;fill:#FFFFFF;}
	.st1{fill-rule:evenodd;clip-rule:evenodd;fill:#238E7A;}
	.st2{fill-rule:evenodd;clip-rule:evenodd;fill:#68737A;}
</style>
<g>
	<polygon class="st0" points="586,288 778.8,288 778.8,480.8 586,480.8 586,288 	"/>
	<path class="st1" d="M686,361h5.2l0,0c0,0,4.5-0.1,6.2,1.5c2,1.8,2.4,6.6-0.5,8.1c0.7,0.6,3.9,2.9,3.7,6.3c-0.3,3.5-2.6,6-6.5,6
		s-12.1,0-12.1,0l0,0v-15.5l-5-3.7l0,0c0,0-1.9-1.5-3.4,0.6c-0.9,2,1.3,3.3,1.3,3.3l0,0l4,3l0,0c0,0,2.5,2,2.4,6
		c-0.1,4-2.9,6.4-6.4,6.4c-3.5,0-8.8,0-8.8,0l0,0v-7.2l0,0c0,0,5.7,3.9,6.8,4.2c1.1,0.3,2-0.4,2.4-1.2c0.3-0.8,0.2-1.9-1-2.9
		c-1.3-1.3-4.2-2.9-5.2-3.7c-1-0.8-4.2-2.6-3.2-7c1.1-3.5,4.3-4.2,4.9-4.2c0.6,0,5.7,0,5.7,0l0,0l10.2,7.2l0,0c0,0,1.8,1.2,1.8,3.5
		c0,2.3,0,8.1,0,8.1l0,0h1.9l0,0c0,0,3.4,0.1,3.6-3.6c0.2-3.7-3.4-5.6-3.4-5.6s2.6-1.7,2.1-4.1c-0.3-1.9-1.6-2.8-2.6-2.9
		c-1-0.1-1.5-0.1-1.5-0.1S687.9,362.3,686,361L686,361L686,361L686,361z"/>
	<path class="st1" d="M681.9,361h2.5l0,0c0,0,4.7,2.4,3.8,5.3C687.1,364.6,682.9,361.7,681.9,361L681.9,361L681.9,361L681.9,361z"/>
	<path class="st1" d="M677.6,361h2.7l0,0c0,0,6,4.3,6.6,4.9c0.6,0.7,1.7,1.7,1.2,3.4c-0.3-0.5-1.1-1.6-2.6-2.6
		C684.8,366.1,677.6,361,677.6,361L677.6,361L677.6,361L677.6,361z"/>
	<path class="st2" d="M590.7,395.2c-0.1,0.2-0.1,0.4-0.1,0.6c0,0.4,0.1,1.6,2.2,1.6c2.4,0,2.7-1.2,2.7-1.8c0-1.2-1.4-1.4-3.1-1.9
		c-1.8-0.5-3.7-1-3.7-3.7c0-2.7,1.8-4.6,6.1-4.6c1.5,0,4.8,0.2,4.8,3.3c0,0.3,0,0.6-0.1,0.9l0,0h-3l0,0c0-0.1,0-0.2,0-0.3
		c0-0.9-0.9-1.2-1.9-1.2c-0.7,0-2.5,0.1-2.5,1.5c0,0.9,0.6,1.2,2.3,1.6c3.3,0.8,4.5,1.6,4.5,3.7c0,2.9-1.9,5.2-6.1,5.2
		c-2.7,0-5.4-0.7-5.4-3.9c0-0.3,0-0.7,0.1-1l0,0H590.7L590.7,395.2L590.7,395.2z"/>
	<path class="st2" d="M604.4,389.6l-0.3,1.5l0,0c1.5-1.8,3-1.8,3.4-1.8c1.6,0,2.4,0.8,2.5,1.8c1.5-1.6,2.8-1.8,3.8-1.8
		c1.6,0,2.6,1,2.6,2.7c0,0.6-0.1,1.1-0.2,1.6l0,0l-1.3,6.1H612l1.2-5.9l0,0c0.1-0.3,0.1-0.6,0.1-0.9c0-0.8-0.2-1.6-1.1-1.6
		c-1.7,0-2.1,2-2.2,2.6l0,0l-1.2,5.8h-2.9l1.2-5.9l0,0c0.2-0.9,0.3-2.5-1-2.5c-0.6,0-1.8,0.4-2.3,2.6l0,0l-1.2,5.8h-2.9l2.1-10.1
		H604.4L604.4,389.6L604.4,389.6z"/>
	<polygon class="st2" points="622.3,389.6 620.2,399.7 617.3,399.7 619.3,389.6 622.3,389.6 622.3,389.6 	"/>
	<path class="st2" d="M623.7,389.6h1.7l0.3-1.3h2.9l-0.3,1.3h2.1l-0.4,2h-2.1l-1,4.8l0,0c-0.1,0.2-0.1,0.5-0.1,0.7
		c0,0.5,0.3,0.7,1,0.7c0.2,0,0.7-0.1,0.9-0.2l0,0l-0.4,2l0,0c-0.7,0.2-1.6,0.3-2.2,0.3c-2,0-2.4-1-2.4-1.9c0-0.4,0-0.7,0.1-1l0,0
		l1.1-5.4h-1.7L623.7,389.6L623.7,389.6L623.7,389.6z"/>
	<path class="st2" d="M634.6,390.5c0.4-0.4,1.4-1.3,3.3-1.3c0.7,0,2.7,0.2,2.7,2.7c0,0.5-0.1,1-0.2,1.4l0,0l-1.3,6.3h-2.9l1.2-5.8
		l0,0c0.1-0.3,0.1-0.6,0.1-0.9c0-1.4-1.2-1.3-1.4-1.3c-1.8,0-2.2,1.9-2.3,2.4l0,0l-1.2,5.7h-2.9l2.9-13.9h2.9L634.6,390.5
		L634.6,390.5L634.6,390.5z"/>
	<polygon class="st2" points="652.8,385.8 656.8,385.8 650.2,391.9 654.1,399.7 650.5,399.7 646.6,391.9 645,399.7 641.8,399.7 
		644.6,385.8 647.8,385.8 646.7,391.3 652.8,385.8 652.8,385.8 	"/>
	<polygon class="st2" points="661.5,385.8 658.7,399.7 655.8,399.7 658.6,385.8 661.5,385.8 661.5,385.8 	"/>
	<polygon class="st2" points="666.1,389.6 664,399.7 661.1,399.7 663.2,389.6 666.1,389.6 666.1,389.6 	"/>
	<path class="st2" d="M671.3,390.7L671.3,390.7L671.3,390.7c1.4-1.5,3.1-1.5,3.6-1.5c1.9,0,2.7,1.2,2.7,2.7c0,0.5-0.1,0.9-0.2,1.4
		l0,0l-1.3,6.3h-2.9l1.2-5.8l0,0c0.1-0.3,0.1-0.6,0.1-0.9c0-0.5-0.1-1.7-1.4-1.7c-0.6,0-1.8,0.2-2.3,2.8l0,0l-1.2,5.7h-2.9l2.1-10.1
		h2.7L671.3,390.7L671.3,390.7L671.3,390.7z"/>
	<path class="st2" d="M703.7,385.8c2.9,0,3.6,1.5,3.6,2.9c0,1.2-0.7,3.1-2.9,3.6l0,0l0,0l0,0c1.1,0.3,2.2,1,2.2,2.9
		c0,2.6-1.9,4.4-6,4.4l0,0h-6.4l2.8-13.9H703.7L703.7,385.8L703.7,385.8z M699,391.2h2.9l0,0c0.6,0,1.9-0.3,1.9-1.5
		c0-0.7-0.6-1.2-1.4-1.2l0,0h-2.8L699,391.2L699,391.2L699,391.2z M697.8,397h3.3l0,0c0.8,0,2.1-0.4,2.1-1.6c0-1.2-0.7-1.4-1.8-1.4
		l0,0h-2.9L697.8,397L697.8,397L697.8,397z"/>
	<path class="st2" d="M716.2,396.9c-0.5,1.4-1.7,3.3-4.7,3.3c-3.6,0-4.1-2.7-4.1-4.4c0-2.3,1.2-6.4,5.4-6.4c3.5,0,4.1,2.4,4.1,4.1
		c0,0.5-0.2,1.3-0.3,1.9l0,0h-6.5l0,0c-0.1,0.3-0.1,0.5-0.1,0.8c0,1.6,0.9,2,1.7,2c0.8,0,1.6-0.5,1.9-1.3l0,0H716.2L716.2,396.9
		L716.2,396.9z M714.3,393.8c0-0.1,0.1-0.6,0.1-0.9c0-1.6-1.4-1.6-1.7-1.6c-0.7,0-1.8,0.3-2.3,2.4l0,0H714.3L714.3,393.8
		L714.3,393.8z"/>
	<path class="st2" d="M687.4,396.9c-0.5,1.4-1.7,3.3-4.7,3.3c-3.6,0-4.1-2.7-4.1-4.4c0-2.3,1.2-6.4,5.4-6.4c3.5,0,4.1,2.4,4.1,4.1
		c0,0.5-0.2,1.3-0.3,1.9l0,0h-6.5l0,0c-0.1,0.3-0.1,0.5-0.1,0.8c0,1.6,0.9,2,1.7,2c0.8,0,1.6-0.5,1.9-1.3l0,0H687.4L687.4,396.9
		L687.4,396.9z M685.5,393.8c0-0.1,0.1-0.6,0.1-0.9c0-1.6-1.4-1.6-1.7-1.6c-0.7,0-1.8,0.3-2.3,2.4l0,0H685.5L685.5,393.8
		L685.5,393.8z"/>
	<path class="st2" d="M726.2,396.9c-0.5,1.4-1.7,3.3-4.7,3.3c-3.6,0-4.1-2.7-4.1-4.4c0-2.3,1.2-6.4,5.4-6.4c3.5,0,4.1,2.4,4.1,4.1
		c0,0.5-0.2,1.3-0.3,1.9l0,0h-6.5l0,0c-0.1,0.3-0.1,0.5-0.1,0.8c0,1.6,0.9,2,1.7,2c0.8,0,1.6-0.5,1.9-1.3l0,0H726.2L726.2,396.9
		L726.2,396.9z M724.3,393.8c0-0.1,0.1-0.6,0.1-0.9c0-1.6-1.4-1.6-1.7-1.6c-0.7,0-1.8,0.3-2.3,2.4l0,0H724.3L724.3,393.8
		L724.3,393.8z"/>
	<path class="st2" d="M736.8,396.1c-0.2,1.1-1.2,4.2-4.7,4.2c-2.9,0-4.1-1.9-4.1-4.3c0-2.6,1.2-6.5,5.3-6.5c3.2,0,3.9,1.9,3.9,3.3
		c0,0.2,0,0.4,0,0.6l0,0h-2.5l0,0c0-0.1,0-0.2,0-0.3c0-1.5-0.8-1.6-1.4-1.6c-1.9,0-2.6,2.6-2.6,4.5c0,2.2,1.1,2.3,1.7,2.3
		c0.7,0,1.5-0.4,1.9-2.2l0,0H736.8L736.8,396.1L736.8,396.1z"/>
	<path class="st2" d="M742.1,390.5c0.4-0.4,1.4-1.3,3.3-1.3c0.7,0,2.7,0.2,2.7,2.7c0,0.5-0.1,1-0.2,1.4l0,0l-1.3,6.3h-2.9l1.2-5.8
		l0,0c0.1-0.3,0.1-0.6,0.1-0.9c0-1.4-1.2-1.3-1.4-1.3c-1.8,0-2.2,1.9-2.3,2.4l0,0l-1.2,5.7h-2.9l2.9-13.9h2.9L742.1,390.5
		L742.1,390.5L742.1,390.5z"/>
	<path class="st2" d="M750.4,392.9c0.9-3.6,4.3-3.6,5.5-3.6c3.2,0,3.9,1.4,3.9,2.7c0,0.4-0.1,0.7-0.2,1.1l0,0l-1,4.6l0,0
		c-0.1,0.2-0.2,0.9-0.2,1.2c0,0.5,0.2,0.6,0.3,0.7l0,0v0.3h-3l-0.1-1h-0.1l0,0c-1.3,1.3-2.7,1.4-3.3,1.4c-1,0-3-0.2-3-2.5
		c0-3.1,3.2-3.5,4.9-3.7c1.6-0.2,2.6-0.1,2.6-1.6c0-0.5-0.3-1-1.2-1c-0.6,0-1.8,0.1-2.1,1.6l0,0H750.4L750.4,392.9L750.4,392.9z
		 M756.3,394.9c-0.2,0.1-0.5,0.2-2,0.5c-0.8,0.1-2.1,0.5-2.1,1.8c0,0.7,0.9,0.9,1.3,0.9c2.1,0,2.6-2.3,2.6-2.5l0,0L756.3,394.9
		L756.3,394.9L756.3,394.9z"/>
	<path class="st2" d="M765.3,389.6l-0.3,1.5l0,0c1.5-1.8,3-1.8,3.4-1.8c1.6,0,2.4,0.8,2.5,1.8c1.5-1.6,2.8-1.8,3.8-1.8
		c1.6,0,2.6,1,2.6,2.7c0,0.6-0.1,1.1-0.2,1.6l0,0l-1.3,6.1h-2.9l1.2-5.9l0,0c0.1-0.3,0.1-0.6,0.1-0.9c0-0.8-0.2-1.6-1.1-1.6
		c-1.7,0-2.1,2-2.2,2.6l0,0l-1.2,5.8h-2.9l1.2-5.9l0,0c0.2-0.9,0.3-2.5-1-2.5c-0.6,0-1.8,0.4-2.3,2.6l0,0l-1.2,5.8h-2.9l2.1-10.1
		H765.3L765.3,389.6L765.3,389.6z"/>
</g>
</svg>
