<svg id="Layer_1" data-name="Layer 1" xmlns="http://www.w3.org/2000/svg" viewBox="0 0 316 112.72"><defs><style>.cls-1{fill:#fff;}.cls-1,.cls-2,.cls-3{fill-rule:evenodd;}.cls-2{fill:#238e7a;}.cls-3{fill:#68737a;}</style></defs><title>SmithKline_Beecham</title><polygon class="cls-1" points="0 0 316 0 316 112.72 0 112.72 0 0 0 0"/><path class="cls-2" d="M164,18h8.46s7.46-.21,10.14,2.51c3.31,2.94,4,10.77-.83,13.26,1.19.92,6.43,4.79,6,10.32-.46,5.81-4.23,9.79-10.68,9.79h-19.9V28.46l-8.2-6h0a3.71,3.71,0,0,0-5.53.92c-1.54,3.28,2.12,5.35,2.12,5.35h0l6.54,4.88h0a12.27,12.27,0,0,1,4,9.85c-.18,6.64-4.69,10.44-10.5,10.44H131.06V42.18h0s9.3,6.36,11.15,6.82a3.28,3.28,0,0,0,3.87-1.89c.56-1.29.36-3.17-1.57-4.74-2.21-2.12-6.91-4.79-8.57-6.08s-6.82-4.24-5.25-11.42a9.43,9.43,0,0,1,8-6.82H148l16.67,11.88h0a7.45,7.45,0,0,1,2.95,5.81V49.09h3.13a5.87,5.87,0,0,0,5.9-5.89c.37-6-5.53-9.21-5.53-9.21s4.32-2.73,3.41-6.73c-.56-3.17-2.57-4.52-4.24-4.7a13,13,0,0,0-2.39-.09A12.11,12.11,0,0,0,164,18Z"/><path class="cls-2" d="M157.22,18.05h4.15s7.64,3.87,6.26,8.66c-1.93-2.76-8.77-7.46-10.41-8.66Z"/><path class="cls-2" d="M150.22,18.05h4.42s9.86,7,10.87,8.11,2.86,2.85,2,5.62a15.4,15.4,0,0,0-4.24-4.26c-1.38-1.1-13.08-9.47-13.08-9.47Z"/><path class="cls-3" d="M7.65,74.09a3.66,3.66,0,0,0-.13,1c0,.64.16,2.56,3.67,2.56,4,0,4.39-2,4.39-2.89,0-2-2.36-2.37-5-3.08C7.61,70.94,4.42,70,4.42,65.61s3-7.53,9.93-7.53c2.54,0,7.87.39,7.87,5.49A10.81,10.81,0,0,1,22.13,65H17.21a3.32,3.32,0,0,0,0-.55c0-1.49-1.54-1.91-3.2-1.91-1.16,0-4,.22-4,2.43,0,1.4,1.06,1.92,3.76,2.57,5.39,1.26,7.39,2.63,7.39,6.07,0,4.67-3,8.54-10,8.54-4.41,0-8.9-1.21-8.9-6.34a7.36,7.36,0,0,1,.16-1.68H7.65Z"/><path class="cls-3" d="M30.12,65l-.5,2.41h0c2.45-2.89,5-3,5.65-3,2.6,0,3.85,1.36,4,3,2.54-2.59,4.51-3,6.17-3a4,4,0,0,1,4.3,4.38,13,13,0,0,1-.32,2.69h0l-2.07,10H42.63l2-9.71h0a8.87,8.87,0,0,0,.18-1.53c0-1.23-.34-2.56-1.84-2.56-2.79,0-3.45,3.31-3.67,4.32h0l-2,9.48H32.57l2-9.71h0c.31-1.49.53-4.09-1.57-4.09-1,0-3,.58-3.76,4.32h0l-2,9.48H22.51L25.89,65Z"/><polygon class="cls-3" points="59.44 64.96 56.05 81.46 51.29 81.46 54.67 64.96 59.44 64.96 59.44 64.96 59.44 64.96"/><path class="cls-3" d="M61.76,65h2.85l.41-2h4.77l-.42,2h3.42l-.69,3.31H68.68L67.05,76.2h0a4.84,4.84,0,0,0-.15,1.1c0,.75.53,1.17,1.66,1.17a6.32,6.32,0,0,0,1.5-.33h0l-.69,3.32h0a18.43,18.43,0,0,1-3.57.45c-3.36,0-3.89-1.62-3.89-3.08a7.68,7.68,0,0,1,.19-1.72h0l1.82-8.84H61.07L61.76,65Z"/><path class="cls-3" d="M79.75,66.42a7.54,7.54,0,0,1,5.49-2.07,4.13,4.13,0,0,1,4.45,4.41,11.7,11.7,0,0,1-.29,2.34h0L87.27,81.46H82.51l2-9.55h0a8,8,0,0,0,.19-1.52,2,2,0,0,0-2.32-2.15c-2.94,0-3.63,3.15-3.79,3.93h0l-1.91,9.29H71.88l4.7-22.73h4.77l-1.6,7.69Z"/><polygon class="cls-3" points="109.47 58.73 115.99 58.73 105.24 68.76 111.66 81.46 105.77 81.46 99.33 68.62 96.68 81.46 91.51 81.46 96.15 58.73 101.32 58.73 99.48 67.79 109.47 58.73 109.47 58.73 109.47 58.73"/><polygon class="cls-3" points="123.83 58.73 119.13 81.46 114.36 81.46 119.06 58.73 123.83 58.73 123.83 58.73 123.83 58.73"/><polygon class="cls-3" points="131.3 64.96 127.91 81.46 123.15 81.46 126.53 64.96 131.3 64.96 131.3 64.96 131.3 64.96"/><path class="cls-3" d="M139.82,66.75h.06a7.46,7.46,0,0,1,5.89-2.4,4.1,4.1,0,0,1,4.48,4.41,12,12,0,0,1-.31,2.34h0l-2.1,10.36h-4.76L145,71.91h0a9,9,0,0,0,.22-1.52c0-.85-.16-2.73-2.32-2.73-.94,0-2.95.32-3.82,4.51h0l-1.92,9.29h-4.76L135.8,65h4.36l-.34,1.79Z"/><path class="cls-3" d="M192.91,58.73c4.8,0,5.83,2.5,5.83,4.8A5.9,5.9,0,0,1,194,69.44h0l0,.07h0a4.45,4.45,0,0,1,3.63,4.71c0,4.18-3.13,7.24-9.84,7.24H177.24l4.64-22.73Zm-7.68,8.83H190c1,0,3.1-.45,3.1-2.5,0-1.17-.91-1.92-2.32-1.92h-4.64l-.91,4.42ZM183.32,77h5.33c1.35,0,3.42-.58,3.42-2.69,0-1.95-1.19-2.37-3-2.37h-4.73l-1,5.06Z"/><path class="cls-3" d="M213.45,76.85a7.5,7.5,0,0,1-7.67,5.39c-5.87,0-6.72-4.44-6.72-7.17,0-3.77,2-10.55,8.91-10.55,5.73,0,6.72,4,6.72,6.78a14.47,14.47,0,0,1-.52,3.09H203.43a7.39,7.39,0,0,0-.11,1.33c0,2.66,1.55,3.21,2.82,3.21a3.16,3.16,0,0,0,3-2.08h4.27Zm-3.13-5a12.07,12.07,0,0,0,.11-1.43,2.4,2.4,0,0,0-2.74-2.56c-1.08,0-3,.45-3.79,4h6.42Z"/><path class="cls-3" d="M166.31,76.85a7.5,7.5,0,0,1-7.67,5.39c-5.87,0-6.72-4.44-6.72-7.17,0-3.77,2-10.55,8.91-10.55,5.72,0,6.72,4,6.72,6.78a14.47,14.47,0,0,1-.52,3.09H156.29a7.39,7.39,0,0,0-.11,1.33c0,2.66,1.55,3.21,2.82,3.21a3.16,3.16,0,0,0,3-2.08h4.27Zm-3.13-5a12.07,12.07,0,0,0,.11-1.43,2.4,2.4,0,0,0-2.74-2.56c-1.08,0-3,.45-3.79,4h6.42Z"/><path class="cls-3" d="M229.91,76.85a7.49,7.49,0,0,1-7.66,5.39c-5.87,0-6.73-4.44-6.73-7.17,0-3.77,2-10.55,8.92-10.55,5.72,0,6.72,4,6.72,6.78a13.9,13.9,0,0,1-.53,3.09H219.9a6.58,6.58,0,0,0-.11,1.33c0,2.66,1.55,3.21,2.82,3.21a3.17,3.17,0,0,0,3-2.08h4.26Zm-3.12-5a12.07,12.07,0,0,0,.11-1.43,2.4,2.4,0,0,0-2.74-2.56c-1.08,0-3,.45-3.79,4h6.42Z"/><path class="cls-3" d="M247.16,75.62c-.39,1.79-1.94,6.85-7.64,6.85-4.67,0-6.67-3.15-6.67-7,0-4.22,2-10.69,8.64-10.69,5.2,0,6.33,3.09,6.33,5.49,0,.33,0,.68,0,1h-4a5.15,5.15,0,0,0,0-.55c0-2.44-1.38-2.63-2.29-2.63-3.1,0-4.26,4.25-4.26,7.3,0,3.64,1.88,3.8,2.74,3.8,1.19,0,2.43-.68,3-3.54h4.15Z"/><path class="cls-3" d="M255.9,66.42a7.51,7.51,0,0,1,5.48-2.07,4.13,4.13,0,0,1,4.45,4.41,11.68,11.68,0,0,1-.28,2.34h0l-2.13,10.36h-4.76l2-9.55h0a8.9,8.9,0,0,0,.19-1.52,2,2,0,0,0-2.32-2.15c-2.95,0-3.64,3.15-3.79,3.93h0l-1.92,9.29H248l4.7-22.73h4.77l-1.6,7.69Z"/><path class="cls-3" d="M269.44,70.29c1.48-5.91,7.06-5.94,9-5.94,5.3,0,6.39,2.33,6.39,4.35a8.73,8.73,0,0,1-.28,1.81h0L283,78.05h0a11.51,11.51,0,0,0-.28,1.91c0,.88.31,1,.53,1.07h0v.43h-5l-.09-1.63H278a7.49,7.49,0,0,1-5.48,2.24c-1.7,0-5-.39-5-4.15,0-5.07,5.17-5.68,8-6,2.6-.36,4.32-.13,4.32-2.66,0-.75-.47-1.56-2-1.56a3.18,3.18,0,0,0-3.44,2.63h-5Zm9.81,3.31a11.17,11.17,0,0,1-3.35.88c-1.28.22-3.38.78-3.38,2.89,0,1.2,1.44,1.39,2.16,1.39,3.41,0,4.23-3.7,4.32-4.12h0l.25-1Z"/><path class="cls-3" d="M293.92,65l-.5,2.41h0c2.45-2.89,4.95-3,5.64-3,2.61,0,3.86,1.36,4.05,3,2.54-2.59,4.51-3,6.17-3a4,4,0,0,1,4.3,4.38,13,13,0,0,1-.32,2.69h0l-2.07,10h-4.76l2-9.71h0a8.87,8.87,0,0,0,.18-1.53c0-1.23-.34-2.56-1.85-2.56-2.78,0-3.44,3.31-3.66,4.32h0l-2,9.48h-4.76l2-9.71h0c.32-1.49.54-4.09-1.56-4.09-1,0-3,.58-3.76,4.32h0l-2,9.48h-4.76L289.69,65Z"/></svg>