<svg id="Layer_1" data-name="Layer 1" xmlns="http://www.w3.org/2000/svg" viewBox="0 0 75.01 36.15">
  <title>stubhub</title>
  <path d="M69.38,0a5.29,5.29,0,0,1,4.21,1.54A5.09,5.09,0,0,1,75,5.19c0,.66-.12,1.33-.16,2-.67,7.5-1.29,15-2,22.5a11.73,11.73,0,0,1-.21,1.67,6.07,6.07,0,0,1-5.54,4.78,8.81,8.81,0,0,1-1.54,0q-27.73-1.87-55.52-3.71a2.44,2.44,0,0,0-.54,0c-3,1.21-5.88,2.46-8.83,3.67A.53.53,0,0,1,.11,36a.53.53,0,0,1-.08-.5c.67-2.29,1.29-4.63,2-6.92A2.44,2.44,0,0,0,2,28L.24,11.27A10,10,0,0,1,.15,9.72,5.81,5.81,0,0,1,1.49,6.19,5.72,5.72,0,0,1,5.61,4.11Q37.47,2.1,69.38,0ZM5.74,6.19A3.85,3.85,0,0,0,3.53,7,3.64,3.64,0,0,0,2.19,9.48,9.44,9.44,0,0,0,2.28,11c.58,5.75,1.21,11.46,1.79,17.2A2.88,2.88,0,0,1,4,29c-.38,1.3-.75,2.63-1.09,3.92,1.84-.75,3.67-1.54,5.5-2.29a3.38,3.38,0,0,1,.92-.33,7.69,7.69,0,0,1,1,0Q37.7,32.11,65.09,34a10.72,10.72,0,0,0,2.33,0,4,4,0,0,0,3.29-3.2c.08-.59.13-1.21.17-1.8.66-7.83,1.37-15.66,2-23.49A3.24,3.24,0,0,0,72,2.9a3.2,3.2,0,0,0-2.41-.83Z" style="fill: #0064b1"/>
  <path d="M8.36,11.18a4.19,4.19,0,0,1,3.12-.79,3.56,3.56,0,0,1,2.59,1.5A4.33,4.33,0,0,1,14.73,14v1.56H12V13.89a1,1,0,0,0-1.81-.55.47.47,0,0,0-.06.09,2,2,0,0,0,0,1.33,4.42,4.42,0,0,0,1.5,1.8,13.94,13.94,0,0,1,2.7,2.83,4.24,4.24,0,0,1,.63,2.66,3.94,3.94,0,0,1-1.63,3,4.41,4.41,0,0,1-3.24.63,3.92,3.92,0,0,1-2.34-1.13,3.56,3.56,0,0,1-.87-2.37V20.51H9.57V22.1a1.09,1.09,0,0,0,.71,1,1.22,1.22,0,0,0,1.37-.34,1.77,1.77,0,0,0,.13-1.37,4,4,0,0,0-1.21-1.67A18.59,18.59,0,0,1,7.82,17,4.29,4.29,0,0,1,7,14.18a4.07,4.07,0,0,1,1.38-3Z" style="fill: #0064b1"/>
  <path d="M64.38,10.35H68v5.22c-.24,1.83-.5,3.62-.7,5.45H65.09c-.25-1.79-.46-3.54-.71-5.33a4.21,4.21,0,0,1,0-.71Z" style="fill: #0064b1"/>
  <path d="M29.85,10.6h2.87v3.92a2.38,2.38,0,0,1,1.13-1.17,2.35,2.35,0,0,1,2.33.33A2.92,2.92,0,0,1,37.1,16v6.62a3.41,3.41,0,0,1-.79,2.34,2.5,2.5,0,0,1-2.71.46,2.56,2.56,0,0,1-1.21-1.09c-.08.38-.16.75-.25,1.09H29.85Zm3.34,4.91a.88.88,0,0,0-.5.84V22.3a1.06,1.06,0,0,0,.25.8.71.71,0,0,0,.88.12.94.94,0,0,0,.41-.83V16.47a1.21,1.21,0,0,0-.29-.83A.83.83,0,0,0,33.19,15.51Z" style="fill: #0064b1"/>
  <path d="M38.31,10.6h2.91V17h2.09V10.6h2.95V25.43H43.31V19.56H41.22v5.87H38.31Z" style="fill: #0064b1"/>
  <path d="M56.09,10.6H59v3.92a2.17,2.17,0,0,1,1.08-1.13,2.38,2.38,0,0,1,2.29.3,2.56,2.56,0,0,1,.87,1.42,7.42,7.42,0,0,1,.13,1.95v5.88a3,3,0,0,1-1.17,2.41,2.53,2.53,0,0,1-2.7-.08,2.7,2.7,0,0,1-.8-.88c-.08.38-.16.75-.24,1.09h-2.3c0-5,0-10,0-14.87Zm3.46,4.91a.82.82,0,0,0-.58.88v6a.91.91,0,0,0,.41.83.64.64,0,0,0,.84-.16,1.49,1.49,0,0,0,.25-.92V16.26A.76.76,0,0,0,59.55,15.51Z" style="fill: #0064b1"/>
  <path d="M16.23,11.6H19v1.75h1.21v2.22H19v7.08c0,.25.13.54.38.58a5.75,5.75,0,0,0,.83,0V25.4H18.35a1.94,1.94,0,0,1-1.5-.71,3,3,0,0,1-.58-1.92V15.51h-.75V13.32h.75c0-.55,0-1.13,0-1.71Z" style="fill: #0064b1"/>
  <path d="M21.23,13.35H24.1v9a.92.92,0,0,0,.42.83.69.69,0,0,0,.83-.08.9.9,0,0,0,.29-.75v-9h2.88V25.43H25.94c-.05-.5-.09-1-.13-1.54a3,3,0,0,1-1.25,1.41,2.34,2.34,0,0,1-2.29,0,2.55,2.55,0,0,1-1-2.25Z" style="fill: #0064b1"/>
  <path d="M47.55,13.35h2.88v9a1,1,0,0,0,.58.91.76.76,0,0,0,.88-.37,2.19,2.19,0,0,0,.12-.88v-8.7h2.87V25.43H52.3c0-.5-.08-1-.12-1.54a3,3,0,0,1-1.5,1.54,2.21,2.21,0,0,1-2.21-.25,2.77,2.77,0,0,1-.88-2.08c0-3.25,0-6.5,0-9.75Z" style="fill: #0064b1"/>
  <path d="M65.8,22a1.9,1.9,0,0,1,2.25,1.54,1.88,1.88,0,0,1-1.59,2.13A1.87,1.87,0,0,1,65.8,22Z" style="fill: #0064b1"/>
</svg>
