<?xml version="1.0" encoding="utf-8"?>
<!-- Generator: Adobe Illustrator 22.1.0, SVG Export Plug-In . SVG Version: 6.00 Build 0)  -->
<svg version="1.1" id="Layer_1" xmlns="http://www.w3.org/2000/svg" xmlns:xlink="http://www.w3.org/1999/xlink" x="0px" y="0px"
	 viewBox="0 0 1366 768" style="enable-background:new 0 0 1366 768;" xml:space="preserve">
<style type="text/css">
	.st0{fill-rule:evenodd;clip-rule:evenodd;fill:#0064B1;}
	.st1{fill-rule:evenodd;clip-rule:evenodd;fill:#FFFFFF;}
</style>
<g>
	<path class="st0" d="M758.5,386.6c3.7-0.3,7.5,1,10.1,3.7c2.2,2.3,3.5,5.5,3.4,8.7c0,1.6-0.3,3.2-0.4,4.8c-1.6,18-3.1,36-4.7,54
		c-0.1,1.3-0.2,2.7-0.5,4c-0.6,2.8-2.1,5.4-4.1,7.4c-2.5,2.4-5.8,3.8-9.2,4.1c-1.2,0.1-2.4,0-3.7-0.1c-44.4-3-88.9-5.9-133.3-8.9
		c-0.4,0-0.9-0.1-1.3,0c-7.1,2.9-14.1,5.9-21.2,8.8c-0.4,0.2-1,0.2-1.4-0.2c-0.3-0.3-0.3-0.8-0.2-1.2c1.6-5.5,3.1-11.1,4.7-16.6
		c0.1-0.4,0-0.9,0-1.3c-1.4-13.4-2.8-26.8-4.2-40.2c-0.1-1.2-0.3-2.4-0.2-3.7c0.1-3.1,1.2-6.1,3.2-8.5c2.4-3,6.1-4.8,9.9-5
		C656.4,393.2,707.4,389.9,758.5,386.6L758.5,386.6z M605.7,401.4c-1.9,0.1-3.8,0.8-5.3,2c-1.8,1.5-3,3.6-3.2,5.9
		c-0.1,1.2,0.1,2.4,0.2,3.6c1.4,13.8,2.9,27.5,4.3,41.3c0.1,0.7,0,1.3-0.1,2c-0.9,3.1-1.8,6.3-2.6,9.4c4.4-1.8,8.8-3.7,13.2-5.5
		c0.7-0.3,1.4-0.7,2.2-0.8c0.8-0.1,1.5,0,2.3,0c43.8,2.9,87.6,5.8,131.5,8.8c1.9,0.1,3.8,0.4,5.6,0.1c3.9-0.6,7.2-3.8,7.9-7.7
		c0.2-1.4,0.3-2.9,0.4-4.3c1.6-18.8,3.3-37.6,4.9-56.4c0.2-2.3-0.6-4.7-2.3-6.3c-1.5-1.5-3.7-2.1-5.8-2
		C707.9,394.8,656.8,398.1,605.7,401.4L605.7,401.4z"/>
	<path class="st0" d="M612,413.4c2.1-1.7,4.9-2.2,7.5-1.9c2.5,0.2,4.8,1.6,6.2,3.6c1,1.5,1.5,3.3,1.6,5.1c0,1.2,0,2.4,0,3.7
		c-2.2,0-4.4,0-6.6,0c0-1.3,0-2.7,0-4c0-0.8-0.4-1.6-1-2c-1.1-0.8-2.9-0.4-3.5,0.9c-0.5,1-0.3,2.2-0.1,3.2c0.6,1.8,2.2,3.1,3.6,4.3
		c2.3,2.1,4.8,4.1,6.5,6.8c1.2,1.9,1.7,4.2,1.5,6.4c-0.2,2.8-1.6,5.5-3.9,7.1c-2.2,1.6-5.1,1.9-7.8,1.5c-2.1-0.3-4.1-1.1-5.6-2.7
		c-1.4-1.5-2.1-3.7-2.1-5.7c0-1.3,0-2.6,0-3.9c2.2,0,4.4,0,6.6,0c0,1.3,0,2.5,0,3.8c0,1.1,0.7,2.2,1.7,2.5c1.1,0.4,2.6,0.2,3.3-0.8
		c0.6-1,0.6-2.2,0.3-3.3c-0.5-1.6-1.7-2.9-2.9-4c-2.3-2.2-4.8-4.1-6.6-6.7c-1.4-2-2.2-4.3-2-6.7C608.8,417.8,609.9,415.1,612,413.4
		L612,413.4z"/>
	<path class="st0" d="M746.5,411.4c2.9,0,5.8,0,8.7,0c0,4.2,0,8.3,0,12.5c-0.6,4.4-1.2,8.7-1.7,13.1c-1.8,0-3.5,0-5.3,0
		c-0.6-4.3-1.1-8.5-1.7-12.8c-0.1-0.6,0-1.1,0-1.7C746.5,418.9,746.5,415.2,746.5,411.4L746.5,411.4z"/>
	<path class="st0" d="M663.6,412c2.3,0,4.6,0,6.9,0c0,3.1,0,6.3,0,9.4c0.6-1.2,1.5-2.3,2.7-2.8c1.8-0.7,4.1-0.5,5.6,0.8
		c1.6,1.3,2.2,3.5,2.2,5.5c0,5.3,0,10.6,0,15.9c0,2-0.5,4.1-1.9,5.6c-1.6,1.7-4.4,2-6.5,1.1c-1.3-0.5-2.2-1.5-2.9-2.6
		c-0.2,0.9-0.4,1.8-0.6,2.6c-1.8,0-3.7,0-5.5,0C663.6,435.7,663.6,423.8,663.6,412L663.6,412z M671.6,423.8c-0.8,0.3-1.2,1.2-1.2,2
		c0,4.8,0,9.5,0,14.3c0,0.7,0.1,1.4,0.6,1.9c0.5,0.6,1.4,0.7,2.1,0.3c0.7-0.4,1-1.2,1-2c0-4.7,0-9.5,0-14.2c0-0.7-0.2-1.5-0.7-2
		C672.9,423.7,672.2,423.6,671.6,423.8L671.6,423.8z"/>
	<path class="st0" d="M683.9,412c2.3,0,4.7,0,7,0c0,5.1,0,10.2,0,15.4c1.7,0,3.3,0,5,0c0-5.1,0-10.2,0-15.4c2.4,0,4.7,0,7.1,0
		c0,11.9,0,23.7,0,35.6c-2.4,0-4.7,0-7.1,0c0-4.7,0-9.4,0-14.1c-1.7,0-3.3,0-5,0c0,4.7,0,9.4,0,14.1c-2.3,0-4.7,0-7,0
		C683.9,435.7,683.9,423.8,683.9,412L683.9,412z"/>
	<path class="st0" d="M726.6,412c2.3,0,4.6,0,6.9,0c0,3.1,0,6.3,0,9.4c0.6-1.2,1.4-2.2,2.6-2.7c1.8-0.7,4-0.5,5.5,0.7
		c1.1,0.8,1.7,2.1,2.1,3.4c0.4,1.5,0.3,3.1,0.3,4.7c0,4.7,0,9.4,0,14.1c-0.1,2.2-0.9,4.6-2.8,5.8c-2,1.2-4.6,1.1-6.5-0.2
		c-0.8-0.5-1.4-1.3-1.9-2.1c-0.2,0.9-0.4,1.8-0.6,2.6c-1.8,0-3.7,0-5.5,0C726.6,435.7,726.6,423.8,726.6,412L726.6,412z
		 M734.9,423.8c-0.9,0.2-1.5,1.2-1.4,2.1c0,4.8,0,9.6,0,14.4c0,0.8,0.3,1.6,1,2c0.7,0.4,1.6,0.2,2-0.4c0.5-0.6,0.6-1.4,0.6-2.2
		c0-4.7,0-9.4,0-14.1C737.1,424.6,736.1,423.4,734.9,423.8L734.9,423.8z"/>
	<path class="st0" d="M630.9,414.4c2.2,0,4.4,0,6.7,0c0,1.4,0,2.8,0,4.2c1,0,1.9,0,2.9,0c0,1.8,0,3.5,0,5.3c-1,0-1.9,0-2.9,0
		c0,5.7,0,11.4,0,17c0,0.6,0.3,1.3,0.9,1.4c0.7,0.1,1.3,0,2,0c0,1.7,0,3.5,0,5.2c-1.5,0-3,0-4.5,0c-1.4,0-2.7-0.6-3.6-1.7
		c-1.1-1.3-1.4-3-1.4-4.6c0-5.8,0-11.6,0-17.4c-0.6,0-1.2,0-1.8,0c0-1.8,0-3.5,0-5.3c0.6,0,1.2,0,1.8,0
		C630.9,417.2,630.9,415.8,630.9,414.4L630.9,414.4z"/>
	<path class="st0" d="M642.9,418.6c2.3,0,4.6,0,6.9,0c0,7.2,0,14.5,0,21.7c0,0.8,0.3,1.6,1,2c0.6,0.4,1.4,0.3,2-0.2
		c0.5-0.4,0.7-1.1,0.7-1.8c0-7.2,0-14.5,0-21.7c2.3,0,4.6,0,6.9,0c0,9.7,0,19.3,0,29c-2.1,0-4.1,0-6.2,0c-0.1-1.2-0.2-2.4-0.3-3.7
		c-0.6,1.4-1.7,2.7-3,3.4c-1.7,0.9-3.8,1-5.5,0c-1.8-1.1-2.5-3.3-2.5-5.4C642.9,434.2,642.9,426.4,642.9,418.6L642.9,418.6z"/>
	<path class="st0" d="M706.1,418.6c2.3,0,4.6,0,6.9,0c0,7.2,0,14.5,0,21.7c0,0.9,0.5,1.9,1.4,2.2c0.8,0.3,1.7-0.2,2.1-0.9
		c0.3-0.6,0.3-1.4,0.3-2.1c0-7,0-13.9,0-20.9c2.3,0,4.6,0,6.9,0c0,9.7,0,19.3,0,29c-2.1,0-4.1,0-6.2,0c-0.1-1.2-0.2-2.4-0.3-3.7
		c-0.7,1.6-2,3-3.6,3.7c-1.7,0.7-3.9,0.6-5.3-0.6c-1.5-1.2-2-3.2-2.1-5C706.1,434.2,706.1,426.4,706.1,418.6L706.1,418.6z"/>
	<path class="st0" d="M749.9,439.4c2.4-0.6,5,1.2,5.4,3.7c0.4,2.4-1.4,4.8-3.8,5.1c-2.3,0.4-4.6-1.3-5-3.6
		C746,442.3,747.6,439.9,749.9,439.4L749.9,439.4z"/>
	<path class="st1" d="M644.5,344.6c-0.8-0.9-1.3-2.1-1.3-3.7v-6.7h4v-3.8h-4v-7.1h-3.8V341c0,2.6,0.8,4.7,2.3,6.3
		c1.4,1.4,3.2,2.2,5.1,2.3l0.4,0v-3.6l-0.3,0C646,345.8,645.1,345.3,644.5,344.6L644.5,344.6L644.5,344.6z"/>
	<path class="st1" d="M631.7,335.2l-9-3c-0.5-0.2-1-0.5-1.4-0.8c-0.3-0.3-0.5-0.6-0.5-1v-0.6c0-2.1,1.8-3.2,5.4-3.2l0.3,0
		c3.6,0,5.5,1,5.7,2.9l0,0.3l3.9,0v-0.3c-0.2-4.4-3.4-6.7-9.6-6.7H626c-6,0.1-9.1,2.4-9.1,7.1v0.6c0,0,0,0,0,0
		c0,1.2,0.4,2.4,1.2,3.3c0.8,0.9,1.9,1.6,3.4,2.1l8.9,3c1.5,0.5,2.3,1.3,2.3,2.6v0.5c0,1.1-0.5,1.9-1.6,2.6c-1.1,0.7-2.7,1-4.8,1
		c-2,0-3.6-0.3-4.7-1c-1.1-0.7-1.6-1.5-1.6-2.6v-0.4l-3.8,0v0.4c0,0.1,0,0.1,0,0.2c0,2.1,1,4.1,2.7,5.3c1.8,1.3,4.3,2,7.4,2
		c3.2,0,5.7-0.7,7.5-2c1.7-1.2,2.7-3.1,2.7-5.2c0-0.1,0-0.1,0-0.2v-0.5c0,0,0-0.1,0-0.1c0-1.4-0.5-2.7-1.3-3.8
		C634.2,336.5,633,335.7,631.7,335.2L631.7,335.2L631.7,335.2z"/>
	<path class="st1" d="M722.1,340.7c0,1.9-0.3,3.3-0.9,4.1c-0.5,0.7-1.5,1.1-2.9,1.1h-0.2c-1.4,0-2.4-0.4-2.9-1.1
		c-0.6-0.8-0.9-2.1-0.9-4.1v-10.3h-3.7v10.3c0,3.1,0.6,5.4,1.7,6.8c1.1,1.3,2.9,2,5.3,2.1h0.9c2.4-0.1,4.2-0.7,5.3-2.1
		c1.1-1.3,1.7-3.6,1.7-6.8v-10.3h-3.7L722.1,340.7L722.1,340.7L722.1,340.7z"/>
	<path class="st1" d="M661.5,340.7c0,1.9-0.3,3.3-0.9,4.1c-0.6,0.7-1.5,1.1-2.9,1.1h-0.1c-1.4,0-2.4-0.4-2.9-1.1
		c-0.6-0.8-0.9-2.1-0.9-4.1v-10.3h-3.7v10.3c0,3.1,0.6,5.4,1.7,6.8c1.1,1.3,2.9,2,5.3,2.1h0.9c2.4-0.1,4.2-0.7,5.3-2.1
		c1.1-1.4,1.7-3.6,1.7-6.8v-10.3h-3.7V340.7L661.5,340.7L661.5,340.7z"/>
	<path class="st1" d="M737.3,333.6c1.6,0,2.8,0.4,3.6,1.2c0.8,0.8,1.2,2.1,1.2,4v2.1c0,1.5-0.4,2.8-1.3,3.7c-0.9,0.9-2,1.3-3.5,1.3
		s-2.7-0.4-3.5-1.3c-0.8-0.9-1.3-2.1-1.3-3.7v-2.1c0-1.8,0.4-3.2,1.2-4C734.5,334,735.8,333.6,737.3,333.6L737.3,333.6L737.3,333.6z
		 M737.3,330c-2,0-3.6,0.6-4.7,1.8v-8.4h-3.8v17.5c0,2.6,0.8,4.7,2.3,6.3c1.5,1.6,3.6,2.4,6.2,2.4c2.6,0,4.7-0.8,6.3-2.4
		c1.5-1.6,2.3-3.7,2.3-6.3v-2.1C745.9,332.9,743,330,737.3,330L737.3,330z"/>
	<polygon class="st1" points="704,334.2 692.1,334.2 692.1,323.3 688.2,323.3 688.2,349.3 692.1,349.3 692.1,338 704,338 704,349.3 
		707.9,349.3 707.9,323.3 704,323.3 704,334.2 	"/>
	<path class="st1" d="M676.7,333.6c1.6,0,2.8,0.4,3.6,1.2c0.8,0.8,1.2,2.1,1.2,4v2.1c0,1.5-0.4,2.7-1.3,3.7c-0.9,0.9-2,1.3-3.5,1.3
		c-1.5,0-2.7-0.4-3.5-1.3c-0.8-0.9-1.3-2.1-1.3-3.7v-2.1c0-1.8,0.4-3.2,1.2-4C673.9,334,675.1,333.6,676.7,333.6L676.7,333.6
		L676.7,333.6z M676.7,330c-2,0-3.6,0.6-4.7,1.8v-8.4h-3.8v17.5c0,2.6,0.8,4.7,2.3,6.3c1.5,1.6,3.6,2.4,6.2,2.4s4.7-0.8,6.3-2.4
		c1.5-1.6,2.3-3.7,2.3-6.3v-2.1C685.2,332.9,682.4,330,676.7,330L676.7,330L676.7,330z"/>
</g>
</svg>
