<?xml version="1.0" encoding="utf-8"?>
<!-- Generator: Adobe Illustrator 22.1.0, SVG Export Plug-In . SVG Version: 6.00 Build 0)  -->
<svg version="1.1" id="Layer_1" xmlns="http://www.w3.org/2000/svg" xmlns:xlink="http://www.w3.org/1999/xlink" x="0px" y="0px"
	 viewBox="0 0 75 36.1" style="enable-background:new 0 0 75 36.1;" xml:space="preserve">
<style type="text/css">
	.st0{fill:#0064B1;}
</style>
<title>stubhub</title>
<path class="st0" d="M69.4,0c1.6-0.1,3.1,0.4,4.2,1.5c0.9,1,1.4,2.3,1.4,3.6c0,0.7-0.1,1.3-0.2,2c-0.7,7.5-1.3,15-2,22.5
	c0,0.6-0.1,1.1-0.2,1.7c-0.6,2.7-2.8,4.6-5.5,4.8c-0.5,0-1,0-1.5,0c-18.5-1.2-37-2.5-55.5-3.7c-0.2,0-0.4,0-0.5,0
	c-3,1.2-5.9,2.5-8.8,3.7c-0.2,0.1-0.4,0.1-0.6-0.1C0,35.8,0,35.6,0,35.5c0.7-2.3,1.3-4.6,2-6.9c0-0.2,0-0.4,0-0.5L0.2,11.3
	c-0.1-0.5-0.1-1-0.1-1.5c0-1.3,0.5-2.5,1.3-3.5c1-1.2,2.5-2,4.1-2.1C26.9,2.8,48.1,1.4,69.4,0z M5.7,6.2C4.9,6.2,4.2,6.5,3.5,7
	C2.8,7.6,2.3,8.5,2.2,9.5c0,0.5,0,1,0.1,1.5c0.6,5.7,1.2,11.5,1.8,17.2c0,0.3,0,0.6,0,0.8c-0.4,1.3-0.8,2.6-1.1,3.9
	c1.8-0.8,3.7-1.5,5.5-2.3c0.3-0.2,0.6-0.3,0.9-0.3c0.3,0,0.6,0,1,0c18.2,1.2,36.5,2.4,54.8,3.7c0.8,0,1.6,0.2,2.3,0
	c1.7-0.3,3-1.6,3.3-3.2c0.1-0.6,0.1-1.2,0.2-1.8c0.7-7.8,1.4-15.7,2-23.5c0.1-1-0.3-1.9-1-2.6c-0.6-0.6-1.5-0.9-2.4-0.8L5.7,6.2z"/>
<path class="st0" d="M8.4,11.2c0.9-0.7,2-0.9,3.1-0.8c1,0.1,2,0.6,2.6,1.5c0.4,0.6,0.6,1.4,0.7,2.1v1.6H12v-1.7
	c0-0.3-0.2-0.6-0.4-0.8c-0.5-0.3-1.1-0.2-1.4,0.3c0,0,0,0.1-0.1,0.1c-0.2,0.4-0.1,0.9,0,1.3c0.2,0.8,0.9,1.3,1.5,1.8
	c1,0.9,2,1.7,2.7,2.8c0.5,0.8,0.7,1.7,0.6,2.7c-0.1,1.2-0.7,2.3-1.6,3c-0.9,0.7-2.1,0.8-3.2,0.6c-0.9-0.1-1.7-0.5-2.3-1.1
	c-0.6-0.7-0.9-1.5-0.9-2.4v-1.6h2.7v1.6c0,0.5,0.3,0.9,0.7,1c0.5,0.2,1.1,0.1,1.4-0.3c0.2-0.4,0.3-0.9,0.1-1.4
	c-0.2-0.7-0.7-1.2-1.2-1.7c-1-0.9-2-1.7-2.7-2.8c-0.6-0.8-0.9-1.8-0.8-2.8C7,13,7.5,11.9,8.4,11.2L8.4,11.2z"/>
<path class="st0" d="M64.4,10.4H68v5.2c-0.2,1.8-0.5,3.6-0.7,5.5h-2.2c-0.2-1.8-0.5-3.5-0.7-5.3c0-0.2,0-0.5,0-0.7V10.4z"/>
<path class="st0" d="M29.9,10.6h2.9v3.9c0.2-0.5,0.6-0.9,1.1-1.2c0.8-0.3,1.7-0.2,2.3,0.3c0.7,0.5,0.9,1.5,0.9,2.3v6.6
	c0,0.8-0.2,1.7-0.8,2.3c-0.7,0.7-1.8,0.8-2.7,0.5c-0.5-0.2-0.9-0.6-1.2-1.1c-0.1,0.4-0.2,0.8-0.3,1.1h-2.3V10.6z M33.2,15.5
	c-0.3,0.2-0.5,0.5-0.5,0.8v6c0,0.3,0.1,0.6,0.2,0.8c0.2,0.2,0.6,0.3,0.9,0.1c0.3-0.2,0.4-0.5,0.4-0.8v-5.9c0-0.3-0.1-0.6-0.3-0.8
	C33.7,15.5,33.4,15.4,33.2,15.5z"/>
<path class="st0" d="M38.3,10.6h2.9V17h2.1v-6.4h3v14.8h-3v-5.9h-2.1v5.9h-2.9V10.6z"/>
<path class="st0" d="M56.1,10.6H59v3.9c0.3-0.5,0.6-0.9,1.1-1.1c0.8-0.3,1.6-0.2,2.3,0.3c0.5,0.3,0.7,0.9,0.9,1.4
	c0.2,0.6,0.1,1.3,0.1,2v5.9c0,0.9-0.4,1.9-1.2,2.4c-0.8,0.5-1.9,0.5-2.7-0.1c-0.3-0.2-0.6-0.5-0.8-0.9c-0.1,0.4-0.2,0.8-0.2,1.1
	h-2.3C56.1,20.5,56.1,15.5,56.1,10.6L56.1,10.6z M59.5,15.5c-0.4,0.1-0.6,0.5-0.6,0.9v6c0,0.3,0.1,0.6,0.4,0.8
	c0.3,0.2,0.6,0.1,0.8-0.2c0.2-0.3,0.3-0.6,0.2-0.9v-5.9C60.5,15.8,60,15.3,59.5,15.5z"/>
<path class="st0" d="M16.2,11.6H19v1.7h1.2v2.2H19v7.1c0,0.2,0.1,0.5,0.4,0.6c0.3,0,0.6,0,0.8,0v2.2h-1.9c-0.6,0-1.1-0.3-1.5-0.7
	c-0.5-0.5-0.6-1.2-0.6-1.9v-7.3h-0.8v-2.2h0.8C16.2,12.8,16.2,12.2,16.2,11.6L16.2,11.6z"/>
<path class="st0" d="M21.2,13.3h2.9v9c0,0.3,0.1,0.6,0.4,0.8c0.3,0.2,0.6,0.1,0.8-0.1c0.2-0.2,0.3-0.5,0.3-0.8v-9h2.9v12.1h-2.6
	c0-0.5-0.1-1-0.1-1.5c-0.3,0.6-0.7,1.1-1.3,1.4c-0.7,0.4-1.6,0.4-2.3,0c-0.8-0.5-1-1.4-1-2.2C21.2,23.1,21.2,13.3,21.2,13.3z"/>
<path class="st0" d="M47.6,13.3h2.9v9c0,0.4,0.2,0.8,0.6,0.9c0.3,0.1,0.7-0.1,0.9-0.4c0.1-0.3,0.1-0.6,0.1-0.9v-8.7h2.9v12.1h-2.6
	c0-0.5-0.1-1-0.1-1.5c-0.3,0.7-0.8,1.2-1.5,1.5c-0.7,0.3-1.6,0.2-2.2-0.2c-0.6-0.5-0.8-1.3-0.9-2.1C47.6,19.8,47.6,16.6,47.6,13.3
	L47.6,13.3z"/>
<path class="st0" d="M65.8,22c1-0.2,2.1,0.5,2.2,1.5c0.1,1-0.6,2-1.6,2.1c-1,0.1-1.9-0.5-2.1-1.5C64.2,23.2,64.8,22.2,65.8,22
	L65.8,22z"/>
</svg>
