<svg id="titanic_Image" data-name="titanic Image" xmlns="http://www.w3.org/2000/svg" viewBox="0 0 500.82 379.3"><defs><style>.cls-1{fill:#fefefe;}.cls-2{fill:#2cabc7;}.cls-3{fill:#010101;}.cls-4{fill:#000202;}.cls-5{fill:#020303;}.cls-6{fill:#010303;}.cls-7{fill:#040505;}.cls-8{fill:#030404;}.cls-9{fill:#2dabc6;}.cls-10{fill:#2c2c2c;}.cls-11{fill:#212121;}.cls-12{fill:#2e2e2e;}.cls-13{fill:#2eaac5;}.cls-14{fill:#5c5c5c;}.cls-15{fill:#31a9c3;}.cls-16{fill:#701010;}.cls-17{fill:#38a5bc;}.cls-18{fill:#cabebe;}.cls-19{fill:#218095;}.cls-20{fill:#e9e9e9;}.cls-21{fill:#fdfdfd;}.cls-22{fill:#740707;}.cls-23{fill:#fcfcfc;}.cls-24{fill:#fdfefe;}.cls-25{fill:#2caac6;}.cls-26{fill:#f9f9f9;}.cls-27{fill:#fbfcfc;}.cls-28{fill:#f8f8f8;}.cls-29{fill:#f6f6f6;}.cls-30{fill:#f8f9f9;}.cls-31{fill:#160202;}.cls-32{fill:#2da9c4;}.cls-33{fill:#f6f8f9;}.cls-34{fill:#f7f7f7;}.cls-35{fill:#f4f4f4;}.cls-36{fill:#f5f5f5;}.cls-37{fill:#29a2bc;}.cls-38{fill:#e8e9e9;}.cls-39{fill:#f2f2f2;}.cls-40{fill:#2ba2bc;}.cls-41{fill:#35aac4;}.cls-42{fill:#ebebeb;}.cls-43{fill:#f1f1f1;}.cls-44{fill:#112125;}.cls-45{fill:#670a0a;}.cls-46{fill:#dbdbdb;}.cls-47{fill:#510606;}.cls-48{fill:#39a5bd;}.cls-49{fill:#2ba4bf;}.cls-50{fill:#ddd;}.cls-51{fill:#5a5a5a;}.cls-52{fill:#dedede;}.cls-53{fill:#2799b2;}.cls-54{fill:#1d7083;}.cls-55{fill:#bed5da;}.cls-56{fill:#289db7;}.cls-57{fill:#131313;}.cls-58{fill:#215864;}.cls-59{fill:#49a9bd;}.cls-60{fill:#cdcdcd;}.cls-61{fill:#144d5a;}.cls-62{fill:#22859b;}.cls-63{fill:#bebfbf;}.cls-64{fill:#5d0808;}.cls-65{fill:#621616;}.cls-66{fill:#134c58;}.cls-67{fill:#c0acac;}.cls-68{fill:#196171;}.cls-69{fill:#1a6778;}.cls-70{fill:#dacccc;}.cls-71{fill:#540505;}.cls-72{fill:#2592aa;}.cls-73{fill:#499cae;}.cls-74{fill:#dfdcdc;}.cls-75{fill:#bca4a4;}.cls-76{fill:#a87878;}.cls-77{fill:#9b9b9b;}.cls-78{fill:#196070;}.cls-79{fill:#2c7686;}.cls-80{fill:#298295;}.cls-81{fill:#0d343c;}.cls-82{fill:#1b6a7b;}.cls-83{fill:#5d0606;}.cls-84{fill:#1c6f81;}.cls-85{fill:#1b6778;}.cls-86{fill:#e5e9ea;}.cls-87{fill:#207d92;}.cls-88{fill:#888;}.cls-89{fill:#c9c3c3;}.cls-90{fill:#11424d;}.cls-91{fill:#a3b4b8;}.cls-92{fill:#1b1b1b;}.cls-93{fill:#4a0505;}.cls-94{fill:#bdbcbc;}.cls-95{fill:#646464;}.cls-96{fill:#a8c6cd;}.cls-97{fill:#165462;}.cls-98{fill:#124752;}.cls-99{fill:#9e9e9e;}.cls-100{fill:#175c6b;}.cls-101{fill:#858889;}.cls-102{fill:#b7d6dd;}.cls-103{fill:silver;}.cls-104{fill:#0e3841;}.cls-105{fill:#690c0c;}.cls-106{fill:#e2e2e2;}.cls-107{fill:#ded7d7;}.cls-108{fill:#ccbcbc;}.cls-109{fill:#760f0f;}.cls-110{fill:#e6e6e6;}.cls-111{fill:#282828;}.cls-112{fill:#1c1c1c;}.cls-113{fill:#2d2d2d;}.cls-114{fill:#313131;}.cls-115{fill:#222;}.cls-116{fill:#464646;}.cls-117{fill:#2a2a2a;}.cls-118{fill:#121212;}.cls-119{fill:#e2cccc;}.cls-120{fill:#3c3c3c;}.cls-121{fill:#181818;}.cls-122{fill:#141414;}.cls-123{fill:#111;}.cls-124{fill:#191919;}</style></defs><title>titanic</title><path class="cls-1" d="M.08,379.22q0-188-.06-376C0,.58.6,0,3.21,0q247.22.1,494.44,0c2.61,0,3.19.59,3.19,3.19q-.1,186.46,0,372.92c0,2.6-.58,3.19-3.19,3.19Q248.88,379.19.08,379.22Z" transform="translate(-0.02 0.01)"/><path d="M142.39,210.47c-1-4.45,2.74-8.94-.19-13.41-2.55-3.89-3.65-8.45-5.78-12.58-5.92-11.5-12.66-22.57-18.08-34.32-1.75-3.79-1.26-4.74,2.7-6,1.09-.35,2.46-.59,3.12-1.37,3.84-4.53,9.69-6.5,13.56-11,2-2.34,3.88-2,4.41.84,2.51,13.69,12.05,23.74,18.13,35.57,1.06,2.06,2.79,3.66,4.26,5.45,2.17,2.62,3.95,2.31,6.26.15,1.75-1.64,2.24-4.69,4-5.44,3.68-1.59,4.38-5.09,6.36-7.73a32.8,32.8,0,0,0,2.44-4.58c2-3.73,3.59-4.44,7.57-2.74,5.28,2.27,11.43,2,16.23,5.62,1.28,1,1.89-.44,2.45-1.11,2.5-3,5-6,7.29-9.25a5.68,5.68,0,0,1,5.6-2.8c-3.87-4.08-7.24-8.11-11.65-11.05-13.34-8.92-24.13-20.44-33.88-33-1-1.36-2.18-2.66-3.58-4.36-.91,2.33-.54,4.36-.74,6.31-.11,1.18-.27,2.59-1.73,2.59-1.69,0-1.83-1.49-1.77-2.81a56.65,56.65,0,0,1,.46-7.27c.58-3.3-.53-5.86-2.61-8.25-1-1.15-2.94-2.48-1.38-4.06,1.74-1.76,2.52,1.13,4.27,1.59.1-1.46.13-2.87.3-4.27.14-1,.45-2.24,1.77-2.14,1.12.08,1.29,1.24,1.33,2.15a53.71,53.71,0,0,1,.06,6.59A9.47,9.47,0,0,0,176,94.65c11.38,14.22,23.31,27.81,38.69,38,5.95,3.94,10.1,10.15,16.32,13.92,1.49.91,2.42,2,4,.37a1.85,1.85,0,0,1,2.56-.12c1.19,1.38-1.34,1.19-1,2.38,1.6,1.38,3.45-.72,5.39.19,2.68,1.27,1.67,3.11,1.1,6,4.73-5.37,9.93-9,14.15-13.53,6.39-6.89,14.33-12,20.68-19A90.37,90.37,0,0,0,289.65,107,43,43,0,0,1,300.79,94a4.87,4.87,0,0,1,7.3,1.48A6.21,6.21,0,0,1,309,98c.2,4.47,3.51,7.9,4,12.29.26,2.33,3.18,3.1,3.72,5.28,1.51,6.11,5.15,11.35,7,17.32,1.74,5.7.56,10.93-2.71,15.78a36.5,36.5,0,0,0-8.65,15.52c-1.55,5.31-3.59,10.45-5.36,15.68a58.16,58.16,0,0,0-2.2,10,15,15,0,0,1,.51,2,10.7,10.7,0,0,1-.2,2.11c-1.12,6.9-.66,13.83-.37,20.73.11,2.53.49,5.05.46,7.59a21.66,21.66,0,0,0,.08,2.42c.18,1.79.69,3.46,2.39,4.36,1.25.66,1.87-.52,2.54-1.24,1.31-1.39,2.71-2.51,1.81-5-2.14-5.95-.39-11.8,1.36-17.54a3.79,3.79,0,0,1,2.42-2.34c2.63-.69,5.3.32,7.93-.14,1.56.65,1.38,1.51.73,2.9-1,2.14-2.28,4.47,2.1,4.7,2.88.15,3.19,5.93.53,8.71-.88.92-1.89,1.7-2.84,2.55L321.63,224c1.09,1.54,2.78,1.47,4.3,1.7,3,.45,4.72,2.23,4.52,5.14s-2.77,2.83-5,3.08c-4.61.51-6.95-1.7-7.41-6.79-2.29,2.53-2.09,6.18-6.51,6.56l7.1,4a12.36,12.36,0,0,1,5.47,6.08c1.26,3,.73,5.48-1.73,7.81-11.53,11-24,21-33.78,33.75a70,70,0,0,1-8.08,9c-2.16,2-.74,3.54.07,5.46,1,2.37,2.47,1.4,4,.95q4.31-1.32,8.61-2.68a3.06,3.06,0,0,0,2-1.14c7.27-11.18,17.7-17.71,30.59-20.54,1.49-.33,3.11-.48,4,1.15s.17,3.14-.92,4.44a68,68,0,0,1-9.37,8.74c-1.41,1.16-3.13,2-4.1,3.65a2.35,2.35,0,0,1-.47,1.28c-1.82,2.44-.15,2.72,1.72,2.63a45.73,45.73,0,0,0,8.52-1.38c2.24-.54,4.47-1.1,6.75-1.51,2.53-.46,4.4.23,5,2.92.37,1.7,1.34,1.92,2.78,1.64a10.2,10.2,0,0,1,3.44-.08c2.2.32,3.87,1.34,3.5,3.81-.34,2.23.58,2.17,2.28,1.95a73.82,73.82,0,0,1,9.27-1,15,15,0,0,1,4.11.43c5.74,1.58,6.86,5.32,2.68,9.48-2,2-3.49,4.75-6.82,4.89-3.09-.12-6.17.71-9.45.21-.28,0,.28.8.16.35,4.18-.21,8.36-.79,12.57-.5a12.64,12.64,0,0,0,6.79.66c5-.62,10.16-.27,15.16-1.3a1.79,1.79,0,0,1,.69,0c2.07.36,4.76.74,4.83,3.06.08,2.67-2.69,2.71-4.75,2.72-9,0-18,.19-27,.27-15.69.16-31.39.42-47.1.45a13.88,13.88,0,0,1-4.42-.25c3.33.81,6.63,2.65,9.89,4.54,1.95,1.13,3.28,2.68,1.72,5.1a4,4,0,0,1-3.46,1.2,208,208,0,0,1-22-2.1c-4.33-.71-8.79-1.44-12.45-4-5.88-4.05-12.55-4.45-19.2-4.48-7.14,0-14.29-.26-21.43-.07-1.1,0-2.3-.37-3.45.59,1.2,1.42,2.77,2.49,3.55,4.18,1.89,4.22,2.69,4.51,8.87,3.21a46.82,46.82,0,0,1,9.3-1,9.67,9.67,0,0,1,4.67,1.09,5.32,5.32,0,0,0,3,.91c5.88-.4,11.71,1.05,17.63.27,5.28-.7,10.22-.15,14.27,4.33,2.08,2.3,5.63,3.14,7.74,5.72a15.78,15.78,0,0,0,2.35,2c1.17,1,2.1,2.21,1.71,3.9a3.83,3.83,0,0,1-3.51,2.9,86.29,86.29,0,0,1-8.95,1,79.89,79.89,0,0,1-24.38-2.65c-6.28-1.68-12.3-1.28-18.5-.5-5.63.71-11.14,2-16.69,3.09-2.53.5-4.82.55-6.62-1.68-.8-1-2-.95-3.18-1.13a84.48,84.48,0,0,0-18.67-.35c-2.11.15-4,.07-5-2.05-.74-1.45-2.1-1.66-3.48-1.92-6.51-1.23-12.87,0-19.23,1.24a36.28,36.28,0,0,1-5.08,1,23.89,23.89,0,0,1-3.95.53c-3.74-.89-7.55-.48-11.33-.6-5.14-.15-6.38-1.68-5.26-6.81-3.61.4-7.15-2.11-10.68.3a2.73,2.73,0,0,1-2,.15c-.49-1-.61-2.62-2.46-1.4a5.15,5.15,0,0,1-2.66.69c-1.51,0-3.18.21-3.94-1.45s.71-2.49,1.71-3.38,2-2.05,1.27-3.58-2.25-1.4-3.64-1.12a16.92,16.92,0,0,0-6.89,3.12c-2,1.52-4.36,2.6-6.44,4-4.79,3.24-9.74,4.61-15.34,2.51a2.5,2.5,0,0,0-2.35.17c-3.85,2.86-8.5,3.34-12.93,4.49-7.27,2.16-14.65,3.89-22.28,3.52-2.49-.11-4.12,1.5-6.26,1.92-8.79-2.44-17.83-2.24-26.81-2.3-4.24,0-7.7-1.2-10.4-4.48-2.61-.29-5.22-.56-7.83-.89-.78-.1-2-.12-2.25-.6-1.81-3.17-4.59-1.94-7.15-1.78C.63,343,.63,343,.88,337.52c1-1.89,3.08-1.31,4.59-2a24.44,24.44,0,0,0,4.38-.76c-1.59.79-4.17.3-6.46,1.3a2.79,2.79,0,0,1-2.52-.51l0-5.55c1.25-1.24,2.93-1.38,4.5-1.52a68.16,68.16,0,0,1,11.78,0c5,.43,6,2.06,4.61,6.79-.47,1.62.13,3.53-1.81,5.25A115.4,115.4,0,0,0,34,336.91c3.51-1.18,7.15-1.86,10.7-2.88,1.48-.42,3-1.07,4.05.59s0,3.05-1.28,4.19a4,4,0,0,1-1.19.73A40.67,40.67,0,0,1,59,338c2.23.13,4.19.6,4.84,3.08.45,1.7,1.63,1.68,3,1.5a193.92,193.92,0,0,1,23.46-1.69,26.91,26.91,0,0,0,3,.12,2.35,2.35,0,0,0-2.64-.48,7.42,7.42,0,0,1-2.37.49c-5.08.26-6.54-1.94-4.16-6.88-4,1.06-7.71,1.95-11.46,2.88-1.93.48-3.81.62-4.74-1.56s.61-3.2,2-4.29,3.1-1.89,4.34-3.57a7.66,7.66,0,0,0-5.3-.79,45.69,45.69,0,0,0-15.34,4.05,68.91,68.91,0,0,1-10.46,3.65,8.71,8.71,0,0,1-3.08.36,3.73,3.73,0,0,1-3.4-2c-.76-1.48,0-2.66.93-3.76a20.31,20.31,0,0,1,6.21-4.93,5.12,5.12,0,0,0,3.13-4.21c-.37-1.43-1.7-1.42-2.74-1.74a26.82,26.82,0,0,0-12.28-1c-3.08.51-6.06,1.59-7.28,5-.79,3-2.71,3.42-5.27,2.31a69.65,69.65,0,0,0-14.49-4.19c-1.64-.31-3.11-.78-4-2.36V312.1C2.14,310.34,4,310.93,5.63,311c2.59.1,4.73-.45,6.23-2.69l11-1.35c2.41-.37,3.74-2.56,5.83-3.51.36-.16-.06-.8-.48-1.06a67.53,67.53,0,0,1-13.69-3.75c-1.36-.54-3-1-3.13-2.84s1.48-2.49,2.83-3.11c1.87-.86,3.81-1.59,5.92-2.46-.39-.58-.72-1-1-1.48-1-1.8-2.53-3.63-.87-5.71,1.48-1.87,3.59-1.08,5.5-.76a3.67,3.67,0,0,1,1.65.49c6.61,5.14,15,6.34,22.31,10,4.24,2.12,9.14,1.31,13.43-1.2a19.61,19.61,0,0,0,2.11-1.79c4.93-3.95,7.42-3,8.56,3.29.36,2,.74,3.86,3.24,4.13a9.28,9.28,0,0,1,3,0c1.42.18,2.73.61,3,2.26s-.94,2.15-2.15,2.61c-.52.2-1.12.22-1.51.63,1.79.81,3-.4,4.4-1.1a51.43,51.43,0,0,0,10.83-7.67,19.39,19.39,0,0,0,4.55-6.47c1.34-3,.15-4.53-3.25-4.11-2.06.25-4.11.61-6.18.84-1.26.14-2.4-.25-2.64-1.65A2.12,2.12,0,0,1,87,280c2.13-.45,4.31-.68,6.51-1-.69-2-2.41-.95-3.59-1.36-1.73-.61-4.54-.06-4.37-2.88.15-2.48,2.73-1.4,4.29-1.93,0-1.45-.88-2.55-1.58-3.69a92.15,92.15,0,0,1-9.91-21.7c-1.4-4.66-4.77-8.15-7.4-12.06-1-1.49-1.75-2.71-.22-4.24a2.91,2.91,0,0,0,.78-1.49c1-6.22,4-10.94,9.79-13.86,1.94-1,2.18-3.46,3.29-5.2,2.76-4.32,6.81-4.42,9.3.11,5.86,10.65,11,21.66,13.12,33.72.7,4,3.26,6.28,5.74,8.62,1.73,1.63,2.8-.83,4.57-2.06-4-.37-6.17-2-7.07-5.34-1-3.73.51-5.87,4.35-6,2.43-.06,5.62,1.21,6.72-1.89s-2.27-4.1-3.84-5.89a61,61,0,0,1-9.87-14.61c-3.86-8.39-7-17.09-11-25.44-1.83-3.84-2.29-7.84,2-10.8a7,7,0,0,0,2.64-4c1.07-3.9,4.55-6.32,5.91-10.06.5-1.37,2.24-1.06,3.43-.79,2.45.54,3.18,4,6.15,3.77-1.86,2,1,2.77,1.1,4.51C118,180,120,185,124.59,188.67a26.18,26.18,0,0,1,7.41,9.92c1.31,2.82,2.74,5.59,4.12,8.38,2,2.78,2.77,6.3,5.39,8.63.69.61,1.13,2.27,2.61,1.1C144.33,214.4,141,213.09,142.39,210.47Z" transform="translate(-0.02 0.01)"/><path class="cls-2" d="M316.64,334.66c1.06-2.17.06-3.4-1.83-4.42-3.86-2.1-8-3.63-12-5.8,1.15-.07,2.29-.18,3.44-.19,13.17-.1,26.35.73,39.5-.08,4.59-.29,9.23-1.31,13.74-.64,8.44,1.24,16.8.14,25.19,0,1.34,0,3.82.72,3.67-1.23-.13-1.57-2.86-2.66-4.47-2.33-5.48,1.13-11,.75-16.54,1.33-2,.21-4.4,1.1-6.06-1.14-.69-.89-2.47.62-2.72-1.24,3.14-1.64,5.21-4.49,7.54-7,1.72-1.82.62-4.21-2.19-5.39-3.11-1.32-6.38-.9-9.59-.58s-6.16.78-9.16,1.17c-.65-1,.13-1.42.37-2,1.26-2.89.54-4.07-2.67-4.17-2.18-.06-4.37,0-6.87,0-.2-1.26,1.11-2.95-.46-4.21s-3.36-.42-5-.05c-4.5,1-8.94,2.45-13.61,2.49-1.63,0-4.09.73-4.63-1.06-.45-1.51,1.52-2.85,3.09-3.68,1.72-.06,3.45,0,5.16-.19,2.73-.28,5.76.26,7.36-3.09.38-.79,1.94-1.25,3-1.43,3.5-.57,6.52-2.25,9.51-3.93a7,7,0,0,1,5.91-.9c-.05,1.85-1.7,1.95-2.85,2.41-3,1.21-6,2.35-9,3.57a50.12,50.12,0,0,0,8.8-3.06c2.45-1,4.4-1,5.76,1.73,1.62,3.26,4.64,3.51,7.77,3.11,4-.51,7.94-1.51,11.92-2.19a10.08,10.08,0,0,1,6.7,1c5.7,3.05,11.68,3.6,18.11,3,8.61-.82,17.34.21,26-.38A66.22,66.22,0,0,1,446,297.38c4.31,1.48,8.9,1.15,13.4.81,1.24-.1,2.54-.57,3.61.51,3.51,2.56,7.86,3.31,11.59,5.39,2,1.13,3.68,2.44,2,5.05-1.82,1-3.65.31-5.39-.15a47.74,47.74,0,0,0-15.13-1.61c-9.75.56-19.37-1.29-29.08-1.43a144.21,144.21,0,0,0-19.38,1.24,153.18,153.18,0,0,1-20.09.88,18.3,18.3,0,0,0-5.59.51c10.25,1.91,20.09.24,29.92-.71a141.88,141.88,0,0,1,29.43.38c6.25.69,12.49.23,18.72.49A56.42,56.42,0,0,1,477.27,312c-5.88,2-9.29,6.2-10.4,12.18-.33,1.78-1.5,2.5-2.64,3.41-2.71,2.19-5.35,4.42-6.58,7.85-1.29,1.33-3,1-4.57,1.08-8.48.47-16.85-.64-25.22-1.7a54.79,54.79,0,0,0-13.84,0,42.84,42.84,0,0,1-5.88.32c-12.95-.18-25.88.31-38.79,1.31-2.9.22-5.67.28-7.72-2.64-1.41-2-4-1.57-6.17-1.38-6.55.61-13.15.9-19.64,2.1-4.19.77-8.33,2-12.66,1.49C320.91,335.92,318.56,336.33,316.64,334.66Z" transform="translate(-0.02 0.01)"/><path class="cls-2" d="M174.66,348.74c6.13-1,12.11-3.11,18.44-2.79,2.54.12,5.07.33,7.61.56,1.45.13,3,0,2.83,2.4-.09,1.64,1.5,1.88,2.85,1.58,7.51-1.65,15-.14,22.44.25.53,0,1.47.27,1.5.52.65,4.32,3.61,2.63,5.87,2.18,8.51-1.67,17-3.55,25.69-3.86,6.1-.22,11.78,2.09,17.71,2.92a84.43,84.43,0,0,0,23.49.33c1.75-.24,4,.14,4.64-2.19s-1.69-2.74-2.84-3.91c-.4-.41-.81-.79-1.22-1.19.74-1.67,2.25-2.84,2.88-4.62.43-1.23,1.71-1.41,2.87-1.51a32.33,32.33,0,0,1,4.82-.05,15.8,15.8,0,0,0,9.87-2.19c6.29.12,12.31-1.85,18.53-2.36,3.8-.32,7.61-.28,11.4-.56,1.21-.08,2.43.05,3,1.28,1,2.24,2.92,2.31,4.93,2.33,10.39.09,20.75-1,31.11-1.15,14.87-.22,29.78-1.16,44.62.78,6.32.82,12.69.17,19,.39,1.67.06,3.52-.36,4.81,1.26-5.61-.11-10.47,1.88-15.56,4.22-6.6,3-14.23,1.88-21.39,2.67l-3.73.41c-3.4.84-6.52-.89-9.83-1.13-4.15-.29-8.28-.59-12.43-.48a97,97,0,0,1-14.44-.9c1.86,1.5,4.08,1.53,6.24,1.61,3.23.12,6.47-.09,9.69.11,1.1.07,2.84-.61,3.08,1.48-6.58.08-13.17.41-19.75.18-8.59-.3-16.41,1.84-24.29,5.26-8.65,3.74-17.84,6.23-27.5,6-19.78-.48-39.54,1.09-59.32.42-4.45-.15-8.44,2.37-13.12,1.65-7.13-1.1-14.56-.17-21.38-3.55-1.31-.65-3.18-.25-4.79-.21-15.61.31-31.21,1.38-46.83.8-.58,0-1.15-.1-1.72-.15-.07-1.68,1.36-1.35,2.16-1.35,3.37,0,6.68-.57,10-.86-3.68-.38-7.33-1-11.08-.29-1.76.33-3.78.34-3.72-2.63,0-2.13-1.92-1.82-3.36-2.1S175.22,351,174.66,348.74Z" transform="translate(-0.02 0.01)"/><path class="cls-3" d="M304.31,190.35c-.84-3.42.47-6.65,1.53-9.66,2.32-6.61,4.25-13.36,6.81-19.87,1.8-4.58,3.19-9.74,8.36-12.13-1,3.15-3.26,5.54-4.8,8.37-3.72,6.86-4.5,14.78-8,21.73-.28.55-.8,1.39.27,1.68,1.9.51,2,2.79,3.71,3.44,2.2-2.38,4.32-5,6.78-7.2,1.25-1.14,3.27-2.53,4.16.69a1.13,1.13,0,0,0,.73.63c5.75,1.55,7.75,6.95,11.26,10.81,2.72,3,4.89,6.69,9.46,7.49.82.14,1.44,1.37,2.18,2.07,3.18,3,6.43,5.95,9.55,9,2.32,2.29,1.76,5.81-1.32,6.83-2.08.69-4.06,1.63-6.15,2.24-2.81.82-4.2-.29-4.12-3.25,0-.58.22-1.14.23-1.71,0-1.53,1.47-3.89-.22-4.36-2-.57-3.2,2.14-4.78,3.38s-.88,2.37.1,3.55c.81,1,1.54,2,2.36,3,3.74,4.42,3.81,5.39.43,10.18a68.07,68.07,0,0,1-9.11,10.44c-.75.7-1.67,1.69-2.69.94-1.25-.92-.47-2.12.26-3q4.34-5.4,8.77-10.73c1.58-1.88,1.75-3.46-.21-5.31s-4.73-3.85-5.51-5.73c-1.59-3.82-4.44-6.38-6.69-9.49a26.09,26.09,0,0,0-7.49-7.08c-1.09-1-2.57-1.45-3.79-2.3a12.6,12.6,0,0,0-2.85-1.34,11,11,0,0,1-4.16-3.84c-.14-1.7-.32-3.38-2.08-4.38-1,.82-.45,2.17-1.13,3.06C305.67,189.21,305.64,190.44,304.31,190.35Z" transform="translate(-0.02 0.01)"/><path class="cls-2" d="M143.25,342.48c2.21-1.35,4.16-2.59,7.06-.83,1.5.91,4,.16,6.77.16-1.35,1.9-3.36,3-2.23,5.1s3.27,1.78,5.21,1.85c3.52.14,7.14-1.18,10.55.69,0,1.84-1.65,1.54-2.67,1.77-5.09,1.14-10.07.22-15-1-2.25-.55-4.57-1.11-6.37,1.1-13.33.09-26.36,2.76-39.48,4.66a13.38,13.38,0,0,1-5.16,0,6.1,6.1,0,0,1-4.73-6.73c.35-2.86-.73-3.08-3-2.66-2,.36-4,1-6.15.66,4.47-2.24,9.51-3,13.85-5.78,1.4-.89,4.06.65,6.1,1.07a7.3,7.3,0,0,0,5.26-.64c3.78-2,7.66-3.79,11.07-6.4a22.21,22.21,0,0,1,8.15-3.68c1.8-.47,3.69.16,4.06,1.52s1.24,3.61-1.26,4.73c-1,.46-2.64,1.45-2.24,2.63.52,1.56,2.43,1.15,3.69.9a54.31,54.31,0,0,0,6-1.88c-.36,1.29-1.47,2.11-.92,3.35.92.49,1.61,1.29,2.54,1.78.36.29.49-.45.25-.05-.06.1-.17.08-.32-.06C143.56,344.16,142.12,343.86,143.25,342.48Z" transform="translate(-0.02 0.01)"/><path class="cls-2" d="M91,341.52c-8.76.55-17.52,1.14-26.23,2.24-1.12.14-2.42.48-2-1.6.6-2.67-1.14-3.16-3.26-3.1-3.66.12-7.34-.29-10.94.9a21,21,0,0,1-4.24.52c.52-1.5,1.86-1.58,2.7-2.28,1-.83,2.19-1.58,1.36-3.1-.69-1.26-1.92-1.11-3.07-.76-3.31,1-6.6,2.14-9.91,3.16a93.24,93.24,0,0,1-17.94,4.12c1.56-2.19,5.26-3.25,2.65-6.54,0,0,.14-.17.19-.27,2-3.93,1.42-5-3.21-5.51A67.5,67.5,0,0,0,.89,330v-1.44A6.35,6.35,0,0,1,8.46,327a9.53,9.53,0,0,0,6.43.17c6-1.73,10.26,1.71,9.55,7.83-.22,1.91.57,2.25,2.15,1.95s2.92-.67,4.38-1c2.51-.54,4.15-1,3.76-4.57s2.81-5.71,5.71-7.14a11.83,11.83,0,0,0,5.15-4.34c.75-.61,1.51-1.12,2.44-.34a6.77,6.77,0,0,1-4.73,5.92,12.9,12.9,0,0,0-5.36,4.29,2.73,2.73,0,0,0-.67,2.88,2.77,2.77,0,0,0,2.84,1.58,18,18,0,0,0,7.34-1.83c6.6-2.77,13.09-5.84,20.4-6.4a18.26,18.26,0,0,1,6.87.31c1.61.49,1.92,1.18.41,2.24-1.79,1.26-3.6,2.5-5.38,3.78-1,.69-2,1.47-1.42,2.83s1.87,1.55,3.21,1.21l13.68-3.45c.09.5.23.75.16.91-.87,1.76-3.19,3.51-1.19,5.51s4.48,1,6.78.21C92.19,339.89,92.2,340.21,91,341.52Z" transform="translate(-0.02 0.01)"/><path class="cls-4" d="M461.52,339.14c-2.42,0-4.84-.16-7.26-.1a118.62,118.62,0,0,1-19-.78c-14.4-2-28.87-.51-43.3-.32-10.4.13-20.8.78-31.2,1.1-2.07.06-4.64.53-4.6-3.05,0-1.49-1.41-.77-2.18-.75A116,116,0,0,0,329.89,338c-2.05.49-4.1.73-6.09-.29a1.44,1.44,0,0,1-1-2.14c.48-.82,1.26-1.95,2.09-1.22,2,1.81,3.95.52,5.84.11a144.14,144.14,0,0,1,27.55-3c2.29-.06,4.69-.21,5.25,3.11.27,1.58,2,.78,3,.74,12.37-.39,24.74-.92,37.11-1.3s24.7-.77,37.05,1.18c5.53.88,11.3.23,17,.27,1.38.18,2.75.34,4.12.56s3,.24,2.84,1.88C464.49,339.75,462.6,338.77,461.52,339.14Z" transform="translate(-0.02 0.01)"/><path class="cls-5" d="M463,298.7a43.32,43.32,0,0,1-23.18-2,36.43,36.43,0,0,0-14.69-1.76c-12.23.8-24.5-.31-36.75.73a21.23,21.23,0,0,1-13.28-3.23,8.3,8.3,0,0,0-6-1c-4.68.69-9.22,2.19-14,2.38-3.6.14-6.45-.85-7.43-4.72-.42-1.69-1.28-1.44-2.54-.94q-5.31,2.11-10.7,4c-1.05.37-2.61.87-3-.57-.53-1.86,1.46-1.32,2.33-1.65a127,127,0,0,0,12.49-5c2.25-.71,3.53.2,4.06,2.42.59,2.45,2.25,3.21,4.65,3.17,3.86-.07,7.53-1.13,11.28-1.82,4.21-.78,8.14-.66,12,1.59s8.44,2.27,12.85,1.93c13-1,26.12.11,39.17-.65,4.19-.25,8.25,1.07,12.19,2.41a36.62,36.62,0,0,0,20.83,1.11c1.51-.36,3-.59,4.24.58.71.65,1.36,1.39.83,2.4a1.44,1.44,0,0,1-2.11.53A3.58,3.58,0,0,0,463,298.7Z" transform="translate(-0.02 0.01)"/><path class="cls-2" d="M45.92,320.14c-.65,2.35-1.75,4.05-4.5,4.51-2.13.35-3.34,2.36-4.79,3.82-1.7,1.72-1.81,3.49-.35,5.56.71,1-.53,1.72-1.35,1.94-3.1.82-6.23,1.56-9.38,2.18-2.29.44-3.16-.71-2.12-2.75,1.34-2.64.72-4.58-1.54-6.25s-4.09-2.75-6.85-1a5.73,5.73,0,0,1-5.37.18c-3.17-1.9-5.88-.77-8.78.19-.38-3-.73-6.06,4-7-2.08-1-4.65-.82-4-3.63,3.14,2,6.89,1.67,10.27,2.78,3.05,1,6.2,1.68,9.09,3.2,1.91,1,3.34.47,3.73-1.87a6.44,6.44,0,0,0,7.05.13,7,7,0,0,1,3.33-.77c3.19-.05,6.42.18,9.32-1.64A1.83,1.83,0,0,1,45.92,320.14Z" transform="translate(-0.02 0.01)"/><path class="cls-6" d="M477.27,312c-13.32-2.67-26.92-1.57-40.32-3.1-12.29-1.4-24.47-.22-36.64,1.21-6.35.74-12.67-.2-19,0-.82,0-2.16.05-2.24-1.14s1.21-1.11,2.05-1.29a13.53,13.53,0,0,1,3.71-.65c9.64.75,19.16-.48,28.7-1.45a132,132,0,0,1,27.68.28,92.46,92.46,0,0,0,14.2.61c7.26-.34,14.26.91,21.21,2.71C476,310.27,476.86,311.09,477.27,312Z" transform="translate(-0.02 0.01)"/><path class="cls-7" d="M403.15,347.13c-6.17-.82-12.47.12-18.59-1.41-.67-.17-1.36-.26-2-.42s-1.12-.48-1.14-1.13a1.24,1.24,0,0,1,1.07-1.19,4.76,4.76,0,0,1,2-.33c9,2.15,18.24.55,27.31,1.72a41.57,41.57,0,0,1,9,2.07c7.13,1,14.33.3,21.48.88,3,.24,6,.46,9,.77,1.14.12,2.53.31,2.37,1.89-.13,1.3-1.38,1.56-2.42,1.42-10.13-1.37-20.44,0-30.45-1.48C415,349.05,409.23,347,403.15,347.13Z" transform="translate(-0.02 0.01)"/><path class="cls-8" d="M146.55,351.32c-.63-1.69.16-2.35,1.75-2.41a25.85,25.85,0,0,1,7.16.85c5.06,1.24,10.14,1.74,15.15-.31l4-.71c1.3,1.22,2.84.47,4.26.47,4.16,0,5,1.06,3.51,5.2,6-.68,11.85-1,17.63.84-5,2.14-10.52.89-15.62,2.27-2.49.41-5,.86-7.49,1.21-1.47.21-3.23.54-3.94-1.2s.8-2.64,2.11-3.43a7,7,0,0,0,1.95-1.58C166.75,354.5,156.62,353.61,146.55,351.32Z" transform="translate(-0.02 0.01)"/><path class="cls-9" d="M22.27,346c.34,0,.89-.22,1-.08,3,4.05,7.35,3.27,11.54,3.38,5.61.14,11.22.66,16.84.85,2.93.1,5.62.59,7.85,2.63-3.55.48-7.12,1.51-10.62,1.32-6.57-.34-13.07.12-19.6.29C24.67,354.45,22.23,351.17,22.27,346Z" transform="translate(-0.02 0.01)"/><path class="cls-10" d="M122.08,116.85c-1.54,2-2,4.14-4,4.61a5.08,5.08,0,0,1-4.88-1.09,3.42,3.42,0,0,1-.73-3.86c.77-2.11,2.61-2.78,4.67-3,3.18-.32,3.87-1.44,2.59-4.17-.53-1.13-1.13-2-2.63-1.51a4.37,4.37,0,0,1-3.06-.2c-1.28-.5-2.24-1.44-1.86-2.91.34-1.29,1.63-1.3,2.61-1,3.88,1.11,2.68-1.52,2.22-3.16-.74-2.63-2.8-4.49-4.59-6.43-2.3-2.49-2.56-5.22-1.63-8.29a4.16,4.16,0,0,1,.75.15c-.17,4.66,2.56,7.86,5.44,11a7.77,7.77,0,0,1,2.06,6.07c-.06.69-.26,1.71.09,2,3.34,2.95,2.65,7.43,4.12,11.08a12.32,12.32,0,0,1-1.72,11.88c-1.48,2.06-4.51,1.79-6.92-.54,2-.56,4.23,1.62,5.74-.45C122.43,124.22,122.37,120.87,122.08,116.85Z" transform="translate(-0.02 0.01)"/><path class="cls-11" d="M62.91,171.17c-2.44,2.57-1.14,4.46.09,6.56,2,3.51,5,7,1.38,11.29-.56.65.27.95.66,1.27a8.36,8.36,0,0,1,3.19,7.65c-.14,1.27.64,2.14,1.24,3.13,2.12,3.53,1.52,7.09-.17,10.56-.37.78-.93,1.85-2.09,1.07-1-.64-.31-1.32.16-2,1.65-2.51,1.45-5.18.75-8.43-.83,1.14-1.34,1.86-1.87,2.56-1.2,1.58-2.76,2.19-4.55,1.23-2-1.07-2.3-3-2.09-5.1s1.53-2.54,3.3-2.89c1.19-.23,3.31,1.35,3.45-1.37.13-2.41-.86-4.73-3.17-5.21-4.9-1-2.76-2.09-.38-3.71,2.19-1.49,1.61-3.65.67-5.58s-2.31-4-3.4-6C58.52,173.21,58.81,172.63,62.91,171.17Z" transform="translate(-0.02 0.01)"/><path class="cls-12" d="M82.41,123.71c.44.51.75.76.71.83-2.31,4.51.35,7.52,3,10.76a10.11,10.11,0,0,1,2.16,7.49c-.19,1.8.84,3.15,1.44,4.72,1.37,3.59,2.35,6.93,5.78,9.51,2.2,1.65-.38,8.45-3.11,9.56a3.44,3.44,0,0,1-3-.15,1.19,1.19,0,0,1-.68-1.42.84.84,0,0,1,1.18-.37c3.32,1.4,3.6-1.49,4.32-3.28.84-2.1.51-4.12-1.85-5.27-1.11-.54-2.16-.86-3.17.18a3.71,3.71,0,0,1-2.7,1.36c-1.38,0-3.13.24-3.36-1.59s1.45-2.19,2.83-2.35c1.67-.21,3.57.3,3.26-2.58-.24-2.17-.64-3.83-3.29-3.94a6.61,6.61,0,0,1-2.54-1c-.6-.31-1.2-.82-.86-1.64a1.22,1.22,0,0,1,1.76-.58c2.64,1.15,2.28-.72,2.24-2.19-.09-3.16-1.21-6.26-3.62-8-3.48-2.46-2.88-5-1.45-8C81.69,125.26,82,124.63,82.41,123.71Z" transform="translate(-0.02 0.01)"/><path class="cls-13" d="M92.6,293.87c-2.23,4.42-6.67,6-10.6,8.26-2,.53-4,1.75-6.26.75-.46-.43-.84-1,0-1.22s2.06-.21,3-.5c.82-.25,2-.48,1.82-1.71s-1.12-1.3-2.1-1.25c-1.28.06-2.56.1-3.48-1,0-1.46,0-2.66,2.09-2.76C82.3,294.15,87.42,293.39,92.6,293.87Z" transform="translate(-0.02 0.01)"/><path class="cls-14" d="M314,193.11a3.68,3.68,0,0,1,2.81,1.32c.07.76.8,1.33.6,2.16.4,3.83,3.05,5.34,6.34,6.21-2.38,2.38-5.15.46-7.72.68,0-1.37.91-1,1.64-.76-5.34-1.88-9.39-5.6-13.31-9.5l.51-1.31c1.61-.86,2.49.55,3.55,1.21,2.81,1.73,4.91,4.42,7.93,6C315.81,196.91,313.68,195.5,314,193.11Z" transform="translate(-0.02 0.01)"/><path class="cls-15" d="M11.86,308.3c.25,2.8-1.3,3.66-3.8,3.64s-4.77.1-7.16.16c-.52-2.34,1.16-2.73,2.79-3C6.4,308.78,9.14,308.57,11.86,308.3Z" transform="translate(-0.02 0.01)"/><path class="cls-16" d="M145.13,217.64c-.64,1.31-1.34,1.24-2.39.33a20,20,0,0,1-6.62-11c1.59,1.68,3.19,3.35,4.78,5C143,213.34,144,215.56,145.13,217.64Z" transform="translate(-0.02 0.01)"/><path class="cls-17" d="M28.18,302.38c.83-.05,2.53.09,1.35,1-1.93,1.51-3.52,4.24-6.7,3.55C23.71,304.36,26.07,303.52,28.18,302.38Z" transform="translate(-0.02 0.01)"/><path class="cls-18" d="M145.13,217.64c-2.35-1.19-2.86-3.73-4.23-5.65.5-.51,1-1,1.49-1.52a4.26,4.26,0,0,0,1.68,3.46A3.53,3.53,0,0,1,145.13,217.64Z" transform="translate(-0.02 0.01)"/><path class="cls-19" d="M.87,335.52l2.62-.17c.79,0,1.92-.93,2.09.77l-4.7,1.4C.88,336.86.88,336.19.87,335.52Z" transform="translate(-0.02 0.01)"/><path class="cls-20" d="M317.39,196.59c-.61-.6-1.28-1.19-.6-2.16a8.6,8.6,0,0,1,3.42,2.85Z" transform="translate(-0.02 0.01)"/><path class="cls-1" d="M114.65,308.41c-1.45,1.23-2.22.51-2.75-1-.69-1.93.23-3.63.77-5.38.65-2.15,1.53-4.35-1.55-5.43-1.3-.45-.39-1.1,0-1.47,5.76-6.12,9.26-13.81,14.2-20.5,6.18-8.36,12.48-16.64,18.77-24.93,6.16-8.12,12.75-15.79,20.67-22.34,10.95-9.06,19-20.78,27.8-31.77,9.62-12,20.51-22.81,31.6-33.42,1.67-1.6,3.77-3,4.86-4.9,1.8-3.18,5.28-2.79,7.71-4.46a.72.72,0,0,1,.65,0c1.5,1.1,1.41,3.31,3.16,4.42.6.38-.93,1.53-1.55,2.24a114,114,0,0,1-15.43,14.93c-11.24,8.7-19.07,20.34-27.09,31.8-4.52,6.45-9.78,12.29-14.9,18.25-8.73,10.15-16.44,21.14-25.32,31.19a108.16,108.16,0,0,0-16,23c-4,8-9.91,14.76-15,22A111.84,111.84,0,0,0,114.65,308.41Z" transform="translate(-0.02 0.01)"/><path class="cls-1" d="M132.27,296.83c12.74-19.22,25.36-38.42,40.38-56.13,12-14.2,24.77-28,34.74-44a62.45,62.45,0,0,1,14.43-16.31c9.66-7.48,17.48-16.81,26.15-25.29,7.43-7.26,14.87-14.52,22.84-21.23a92.24,92.24,0,0,0,22.41-27.07,35.53,35.53,0,0,1,10.72-11.85,26,26,0,0,1,1.85,3.28c1.22,3.15,1.61,5.7-2.18,8a55.06,55.06,0,0,0-16,15.24,19,19,0,0,1-3.8,4,118.86,118.86,0,0,0-24.92,26.38c-6.65,9.39-14.94,17.15-23.44,24.7-8.27,7.34-15.2,15.83-22.11,24.36-3.13,3.86-6.08,7.87-9.91,11.1-1.74,1.46-2.67,3.53-3.7,5.41-4.62,8.49-11.45,15.35-16.83,23.24-6.51,9.53-12.38,19.48-19.47,28.66-5.24,6.77-11.93,12.24-16.58,19.53-2,3.12-4.11,6.1-5.21,9.68-1.12,1.2-2.44.79-3.75.46C136,298.32,133.7,298.74,132.27,296.83Z" transform="translate(-0.02 0.01)"/><path class="cls-2" d="M262.77,307.14c2.43,3.62,4.55,7.5,8,10.32,2.44,2,5.51,2.36,8.49,2.59a22.21,22.21,0,0,1,13.22,5c1.58,1.33,4,1.62,6.09,2.38,2.34.86,4.69,1.72,7,2.81-10-.26-19.78-1-28.46-6.79-3.38-2.25-7.48-2.27-11.4-2.39-4.73-.14-9.47,0-14.41,0,1-2.5.94-5.3,4.43-5.38a1.88,1.88,0,0,0,1.78-2.47c-.41-1.42-1.72-1.5-2.87-1.23-10,2.35-20.21,2.1-30.26,3.66-5.11.79-10.36.71-15.54,1a6.25,6.25,0,0,1-3.36-.64c-6.9-3.66-13.18-3.2-19.43,1.92-1.89,1.54-5.61,1.78-8,1.39-9.66-1.55-19.23-2.26-28.91-.55a25,25,0,0,1-4.16,0c2.22-3.45.19-7,.53-10.47.05-.52-.8-.73-1.41-.74-3-.55-6-.13-8.94-.25-1.14,0-2.43-.24-1.45-1.68a15.69,15.69,0,0,1,6.16-5.85.91.91,0,0,1,1.17.43c.87,3,3.31,4,6,4.57a3.8,3.8,0,0,1,2.93,2c3.13,5.84,8.77,7.68,14.52,3.72,8.69-6,19.06-6.62,28.57-9.91,5-1.72,10.54.25,15.7,1.31,4.14.85,8.73.95,11.9,4.57a2,2,0,0,0,2.55.56c3.71-2.83,8.2-1.74,12.29-2.64,2.65.55,5.3-.59,7.95,0,2.22,2.28,5.18,1.14,7.77,1.6a49.63,49.63,0,0,0,6.47.33C259.2,307.33,261,306.82,262.77,307.14Z" transform="translate(-0.02 0.01)"/><path class="cls-2" d="M209.23,329.82a10.37,10.37,0,0,1-1.35.26c-1.41.09-3.52-.54-3.29,1.78.2,2,2.27,1.57,3.7,1.5,4.07-.23,7.89-1.7,11.86-2.49,4.5,0,9-.67,13.47-.59,1.12.87,1.68,1.67.62,3.15-2,2.73-1.4,3.92,2.07,4.42,5.2.74,10.38.15,15.54-.58,2-.28,4-.91,5.77.94.65.67,2.17.57,3.31.68,8.76.85,17.55.63,26.33.53,2.13,0,3.82.32,4.85,2.46.75,1.55,2.35,2.19,3.92,2.65,2.36.69,3.77,2.41,5.54,4.62a55,55,0,0,1-13.12.55A134.2,134.2,0,0,1,268,346.13c-4.21-1.1-8.82-.65-13.09.29-8.5,1.85-17,1.54-25.49.62a144.23,144.23,0,0,0-18-1.13,3.76,3.76,0,0,1-1.69-.18c-9.43-4.77-19.31-4.24-29.06-1.85-3.78.92-7.34-.62-11.36.6.7-1.34,2.12-2.75.35-3.69a20.23,20.23,0,0,0-4.3-1.2c-.4-.33-1.11-.5-.66-1.27.46-.05.92-.09,1.37-.17.81-.14,1.78-.27,1.8-1.27,0-1.24-1.05-1.36-2-1.4q-8.15-.36-16.28-.68c-1.14,0-2.28,0-3.7,0,.9-2.06,2.46-1.48,3.65-1.52,4.62-.16,9.25-.06,13.86-.31,1.95-.1,3.95-.81,1.24-3.08-.87-1.1-2.87.81-3.37-1.25,8.62.22,17.33-.47,25.73,2.26,1,.34,2.09.61,2.85-.37,1.25-1.59-.43-2.43-1.21-3.69l4.79-1.6c2.32.59,4.7,1.09,2.71,4.41a1.64,1.64,0,0,0,.73,2.38c1.25.67,2.63.63,3.43-.56,1.4-2.06,3.65-2.79,5.59-4C208.29,326.09,209.06,326.7,209.23,329.82Z" transform="translate(-0.02 0.01)"/><path class="cls-1" d="M145.15,227.18c-.15-3.17,1.61-5.75,4.32-6.34.32-.08.79-.16.91-.4,2.65-4.77,8.2-7.21,10.16-12.5.92-2.47,2.93-4.93.66-7.74-.45-.55.16-1.06.49-1.5A67.5,67.5,0,0,0,169,185a6.58,6.58,0,0,1,4.73-4.05c6.62-1.83,10.31-8.1,9.2-14.86-.16-.94,3.87-9.4,4.71-9.75a1.83,1.83,0,0,1,1.33-.1c5.21,2.71,11.71,1.61,16.69,5.87-4,3.9-7.45,8.34-11.21,12.51-10.68,11.86-20.14,24.7-30.31,37C158.85,218,153,223.9,147.42,230,145.17,230.27,145.61,228.37,145.15,227.18Z" transform="translate(-0.02 0.01)"/><path class="cls-21" d="M322.83,335.55c.32.71.64,1.43,1,2.14-1.06,2.22-3.2,2.48-5.24,2.66s-4.37.11-6.56.12c-2.4,0-5.11-.78-5.33,3.19-.07,1.28-1.66,1.78-3,1.88-2-2.08-4.07-4.12-7.06-4.8a1.79,1.79,0,0,1-1.13-.76c-2.32-4.74-6.61-4.25-10.81-4.24q-9,0-18-.19c-2.21-.06-4.61.44-6.27-1.92-.58-.82-2-.48-3-.39-3.46.32-6.91.67-10.36,1-2.45-.08-5.57,1.6-6.4-2.66-.11-.56-1.71-.25-2.39-1a8.3,8.3,0,0,0-4.5-4c-.55-.17-1-.39-1-1.16.07-.94.69-1.1,1.42-1.12,2.66-.07,5.32-.22,8-.17,7.51.12,15,.34,22.53.51,4.92.11,9.56.8,13.8,3.8,3.2,2.26,7.12,3.29,11,4a207.32,207.32,0,0,0,24.11,2.61,15.55,15.55,0,0,0,3.06-.43A16.49,16.49,0,0,1,322.83,335.55Z" transform="translate(-0.02 0.01)"/><path class="cls-22" d="M161.25,192.41c-2.26,5.09-6.62,8.81-9.09,13.77a2.74,2.74,0,0,1-3.31,1.32c-1.38-.4-1.39-1.91-1.36-2.9.2-7.92-4.31-14.39-7.54-20.85-2.88-5.77-5.17-12-9.12-17.31-1.19-1.58-.81-2.56.75-3.94,2.26-2,5.14-3.36,6.6-6.27.73-1.45,1.72-.76,2.75.13,1.8,1.57,1.43,4.09,2.87,5.82,3.8,4.57,6,10,8.56,15.34a9.79,9.79,0,0,0,2.7,3.93c1.62,1.26,1.38,3.21.78,5.1a25.35,25.35,0,0,1-3.73,7c-.48.67-1,1.47-.11,2.12.63.47,1.24-.29,1.85-.41,5.27-1,5.84-5.57,7.1-9.5.63-1.95,1.55-3.3,3.61-3.63.51-.08,1.39,0,1.54.25.35.66-.06,1.3-.74,1.68A27.67,27.67,0,0,0,161.25,192.41Z" transform="translate(-0.02 0.01)"/><path class="cls-23" d="M223.18,157.77c-.2.52-.25,1.23-.63,1.52-5.68,4.41-9.84,10.39-15.49,14.86-6.5,5.14-10.68,12.37-16.15,18.44-8.8,9.78-15.84,21.09-25.79,29.86-2.14,1.88-3.6,4.93-7.13,4.8-1.06.34-2.2.93-2.42-.93,2.73-3.4,5.15-7.18,9.65-8.59,1.79-.56-.29-1.9.7-2.86a51.42,51.42,0,0,0,3.83-4.9c13.55-16.64,26.48-33.81,41.69-49a65.56,65.56,0,0,0,7.94-10c1.16-1.73,2.49-2.31,4.37-1.8,2.19.6,4.24,2.75,4.15,4.18-.13,2.18-2.31,4-4.84,4.61a4.85,4.85,0,0,0-.61-.67c-.08-.06,0,0,.25.19A5.46,5.46,0,0,1,223.18,157.77Z" transform="translate(-0.02 0.01)"/><path class="cls-22" d="M100.1,245.25c2.64,4.15,4.3,8.75,6.16,13.26a9.53,9.53,0,0,0,.78,1.88c.66.94,1.65,1.95,2.73,1.75,1.34-.24.48-1.75.81-2.64,1.9.61,2.18,2.25,2.5,3.87l-2.33,2.51c-1.13.15-1.81-.72-2.72-1.36-.09-.28-.44.54-.12.21,1.17,1.52.77,2.84-.53,4a4.21,4.21,0,0,0-6.26-1.25A24.77,24.77,0,0,0,97.79,271c-1.8,2.28-3.32,2-4.53-.6q-4.35-9.42-8.56-18.92a70.56,70.56,0,0,0-6.9-12.36c-.67-.94-1.84-1.88-.72-3.67.93,1.5,2.65,1.64,3.11,3.91.43,2.12,2.39.86,3.41-.28,2.07-2.32,4-4.74,6-7.11,2-1.72,2,.29,2.28,1.29a96.26,96.26,0,0,0,2.67,9.61c1.11,2.88,2.23,5.76,4.51,8.19C100.91,249.23,98.49,246.88,100.1,245.25Z" transform="translate(-0.02 0.01)"/><path class="cls-22" d="M117.39,195.18c3.31,6.57,5.67,13.62,9.7,19.79,1.27,1.95,1.73,6.29,6.13,3.63.77-.47.89.78.85,1.4a6.27,6.27,0,0,1-2,4.26c-.4.78-1.28-1.81-1.58.26-.22,1.62-1.75,2.89-1.37,4.71a6.6,6.6,0,0,1-2,3.18c-1.5,1.37-2.82,1.49-4.42-.14a59.8,59.8,0,0,1-14.42-22.44c-1.23-3.53-3.57-6.65-4.25-11.66,1.62,2.94,2.74,2.56,4.55,1.52,2.71-1.55,4.09-4.38,6.65-6C116.63,193.26,116.84,194.47,117.39,195.18Z" transform="translate(-0.02 0.01)"/><path class="cls-24" d="M76.82,313.74c-1.46.29-2.91.63-4.39.84s-3.15,1.12-3.15-1.78c0-1.51-1.63-1.62-3-1.44-2.13.29-4.1,1.4-6.32,1.16s-4.61.77-6.35-1.41c-1.86-1.27-4.21-1.14-5.87-3.52-2.13-3.06.09-3.88,1.57-5,1.93-1.44,5-1.55,5-5a.69.69,0,0,1,1-.58c4.45,1.77,6.75-1.59,9.51-3.92.85-.71,1.55-1.74,3.09-1.73a26.57,26.57,0,0,0,4,11.25c2.84,4.62,6.54,5.64,11.8,3.91a9.78,9.78,0,0,0,1.61-.63c2.8-1.54,5.46-2.86,6.92,1.62.31.93,1.48,1,2.45.71.66-.19,1.41-.52,1.8.32s-.46,1.19-.77,1.77c-.79,1.47-2.57,2.33-2.59,4.27-2,2.59-4.47,1.87-6.35.37C83.61,312.41,80.36,312.46,76.82,313.74Z" transform="translate(-0.02 0.01)"/><path class="cls-25" d="M318.81,312.87c1.94-.32,3.3-.51,4.66-.78.64-.13,1.52-.24,1.3-1.2-.17-.8-.95-1-1.67-.9-1.94.26-3.86.77-5.81.88-3.34.21-6.66,1.69-10.09-.39-1.12-.68-3.14,0-4.74.2-5.86.56-11.73,1-17.6,0-4.43-.78-8.94,1.1-13.46-.36a5.07,5.07,0,0,1,4.25-3.47,22.46,22.46,0,0,0,6.08-1.34c7-3.1,13.86-1.56,20.74.46a12.3,12.3,0,0,0,4.07.72c7.92-.45,15.62,1.33,23.41,2.19,2.44.26,5.16.74,4.94-3.22-.07-1.25.91-1.12,1.69-1.14,1.49,0,3,0,4.54,0a4,4,0,0,1-.14,1.07c-.57,1.34-1.83,2.64-.71,4.16,1.25,1.69,3.06,1.21,4.79.9,4.54-.81,9.08-1.75,13.73-1.63,1.27,0,2.95-.23,3.5.95s-1.5,1.59-1.81,2.61c-1.53,5-5.56,4.07-9.22,4.05-2.77,0-5.53-.07-8.29-.11-.35,0-.83.08-1-.11-5.1-5.15-11.48-2.4-17.34-2.78C322.91,313.5,321.18,313.9,318.81,312.87Z" transform="translate(-0.02 0.01)"/><path class="cls-21" d="M304.34,193.22c3.37,1.33,5.62,4.21,8.53,6.17,1.57,1.06,3.19,2.05,4.8,3.08l-1.66,1c-1.81,1-2.39,2.83-2.71,4.62-.64,3.64-1.1,7.31-1.55,11a8.1,8.1,0,0,0,.27,2.38c.28,1.47,3,2.32,2.07,3.49-1.53,2-3.42,3.71-4.95,5.74-.62.84-1.17.39-1.68-.15-1.66-1.76-3.18-3.34-3.2-6.2,0-6.23-.64-12.46-.93-18.7A46.75,46.75,0,0,1,304.34,193.22Z" transform="translate(-0.02 0.01)"/><path class="cls-25" d="M96.58,315.26c.92-2.81,3.2-4.12,5.71-5.17s4.72-.32,7,.5c2.88,2.65,6.11,1.75,10.1.29-1.78,3.64-2.78,6.77-4.66,9.24-2,2.63-5.5,1.61-8.39,2-1.72.22-5.13-1.63-3,3,.41.9-2.5.95-4.29,1.62.46-1.78,1-3.32-.73-4.43a1.53,1.53,0,0,1-.21-2.4c1.69-2.06.45-3.06-1.45-3.76C96.28,315.83,96.26,315.55,96.58,315.26Z" transform="translate(-0.02 0.01)"/><path class="cls-26" d="M138.91,237.36c-1.32,4.92-4.69,8.64-7.6,12.57-8.66,11.68-16.64,23.87-26.08,35-1.46,1.72-2.52,3.86-4.77,4.83-.83-1.29.26-2.12.71-2.84,4.83-7.68,9.07-15.69,15.42-22.46,8.25-8.82,14.7-19.12,21.59-29C139.9,235.51,139.33,236.46,138.91,237.36Z" transform="translate(-0.02 0.01)"/><path class="cls-27" d="M209.23,329.82c-.49-2-.89-3.82-3.33-1.33-1.51,1.56-4.05,1.64-5.18,4.16-.69,1.55-3.09,1.32-4.66.33a2.38,2.38,0,0,1-.84-3.6c1.86-2.32,1.45-3.25-1.48-3.26-.09,0-.18-.57-.27-.88,1.44-1.77,3.27-2,5.5-1.89a113.74,113.74,0,0,1,24.21,3.45C218,327.94,213.76,329.46,209.23,329.82Z" transform="translate(-0.02 0.01)"/><path class="cls-27" d="M45.92,320.14c-.23,0-.56-.19-.67-.1C40.52,324.25,34,321,28.91,324c-1.77,1-4.34,1.32-4.92-2,.45-2.58,3.83-5.36,7.46-5.91,5.72-.86,11.2.62,16.65,2.07.89.23.81.95-.07,1.38C47.18,319.22,46.57,319.75,45.92,320.14Z" transform="translate(-0.02 0.01)"/><path class="cls-28" d="M119.28,277.48c-1.87,3.07-3.36,5.53-4.87,8-.12.19-.4.4-.37.57.6,3.41-6.17-.31-4.58,5,.62,2.06-3.12,4.51-5,6.69a9.28,9.28,0,0,1-7.58,3.7c5.42-8.72,12.38-15.71,18.21-23.55C116.35,276.26,117.53,278,119.28,277.48Z" transform="translate(-0.02 0.01)"/><path class="cls-29" d="M126.26,266.13c-1.16-.77-1.42-1.58-.48-2.81,1.9-2.47,3.66-5,5.48-7.57.54-.76,1.06-1.48,2.21-1.33a1.34,1.34,0,0,0,1.68-1.3c-.14-4,1.78-6.35,5.33-7.75,1.47-.59-.59-1.71.3-2.66,1.4-1.5,2.47-3.32,4.18-4.55.84-.79,1.69-1,2.51,0,1.18,0,1,.68.48,1.28-7.36,8.49-13.1,18.24-20.54,26.67A.88.88,0,0,1,126.26,266.13Z" transform="translate(-0.02 0.01)"/><path class="cls-30" d="M300.7,295.88c2.5-2.14,5.11-3.89,7.08-6.9,2.88-4.39,11.35-7.67,17.36-8.31-4.79,5.69-11.26,9.15-16,14.46C306.41,296.44,303.69,297.7,300.7,295.88Z" transform="translate(-0.02 0.01)"/><path class="cls-31" d="M100.1,245.25c.24,1.7.55,3.39.69,5.1.07.84.38,2-.83,2.34s-1.57-.66-2.1-1.43c-3.78-5.41-5.43-11.62-6.75-17.94-.2-.91,0-2-1.47-1.38l.06-2.8c0-1.39-.4-2.86.66-4.09,3.8,3.86,5.55,8.87,7.44,13.74C98.62,240.9,100.25,242.78,100.1,245.25Z" transform="translate(-0.02 0.01)"/><path class="cls-32" d="M96.58,315.26l0,.84c-6.68,4.18-14.4,2.93-21.69,4.54.2-2.72,7.59-2.95,1.88-6.9,2.75-2.83,5.83-3,8.86-.4,2.29,2,4.67,2.79,7.5,1.27C94,316.45,95.2,316.34,96.58,315.26Z" transform="translate(-0.02 0.01)"/><path class="cls-28" d="M291,155.41c.11,1.2.19,1.88.22,2.57.08,1.64-.43,3.11-2.07,3.6-2,.58-2.49-1.2-3.17-2.47a12.65,12.65,0,0,1-1.39-5.66,3.09,3.09,0,0,1,1.85-3c1.22-.64,1.88.14,2.75.72,3.35,2.24,6.78,4.37,10.1,6.64,1.6,1.09,2.89,2.68,2,4.69a7.17,7.17,0,0,1-5.92,4.53c4.73-6.06,4.73-6.06-1.87-10.08Z" transform="translate(-0.02 0.01)"/><path class="cls-33" d="M11.63,314.76c3-.69,5.87-1.16,8.49-3.27,1.83-1.47,4.79-1.37,7.36-1,1.61.25,2.12,1.54,1,2.38a108.53,108.53,0,0,1-9.45,6.23c-.43.27-1.32-.12-2-.32-2.2-.66-4.39-1.37-6.58-2.06C9.45,315.29,10.87,315.21,11.63,314.76Z" transform="translate(-0.02 0.01)"/><path class="cls-34" d="M247.36,197.67c-.05,2.89.14,5.93-3.07,5.66-2.94-.25-3.69-3.54-3-5.7,1.07-3.43-.55-4.92-2.86-6.51-.57-.39-1.66-.87-.81-1.87.64-.75,1.46-.49,2.15.09,4,3.37,8.62,5.74,13,8.53.61.39,1.67.67.91,1.76a1.47,1.47,0,0,1-2.11.47C250.26,199.38,249,198.63,247.36,197.67Z" transform="translate(-0.02 0.01)"/><path class="cls-34" d="M260.51,184.75c-.13-1.95-.23-3.68-.34-5.4-.05-.73,0-1.51.85-1.64,1-.15,1,.75,1.09,1.39a14.35,14.35,0,0,1,.16,2.08c.05,2.2,1.54,5.1-1,6.32-2.29,1.1-3.81-2-5.95-2.74-.45-.15-.7-.87-1.08-1.3-1.2-1.36-4.48-2.39-4-3.19,1.6-2.62,2.35-5.88,4.89-8.17,1.72,3.18-4,6,0,9.11a9,9,0,0,0,.51-.94c.46-1.17.06-3.5,1.56-3.24,1.77.31.58,2.4.43,3.62C257.39,182.75,258.15,183.94,260.51,184.75Z" transform="translate(-0.02 0.01)"/><path class="cls-35" d="M225,219.5l2.51-5.8a13.92,13.92,0,0,0,5.79,6.24c.79.47,1.93.79,1.34,1.95s-1.58.53-2.4.11-1.4-.78-2.31-1.29c.17,3.26-.21,6.87-3.79,6.73s-3.56-3.95-3.85-6.81c-.24-2.41-.89-4.94,1.63-7.59-.12,2.87-.67,5-.07,7.12a9.71,9.71,0,0,1,1.31,2c.31.61.62,1.29,1.45,1.31.37,0,.59-.31.63-.67.11-1-.49-1.41-1.41-1.59S224.43,220.49,225,219.5Z" transform="translate(-0.02 0.01)"/><path class="cls-36" d="M293.34,148.05c.25-1.8-.68-3.77,1.09-4.66s3.23.59,4.65,1.53a2.85,2.85,0,0,1,.8.65c.85,1.19,3.48,2.18,2.37,3.43-1.26,1.41-2.18-1.26-3.4-1.91-1-.53-1.94-2-3-1.1-1.25,1,.05,2.29.56,3.33a10.23,10.23,0,0,0,1.73,2.13c.53.59,1.36,1.11.5,2a1.54,1.54,0,0,1-2.19,0q-5.79-4.4-11.56-8.82c-.57-.43-1.2-1-.68-1.69.7-1,1.6-.64,2.41,0Z" transform="translate(-0.02 0.01)"/><path class="cls-36" d="M266,173.35c1.18,2.28,1.93,3.71,2.66,5.15.41.83.91,1.7-.21,2.41-.91.58-1.47,0-2.08-.61-1.43-1.34-3-2.58-4.32-4-.74-.77-2.82-1.16-1.65-2.71s2.1.42,3.23.85c.1-1.32-1.47-2.7.09-3.77,1.26-.87,2.42.08,3.55.59,2,.9,4,1.79,5.93,2.75.62.3,1.86.35,1.27,1.53a1.62,1.62,0,0,1-2.14.65C270.42,175.42,268.59,174.54,266,173.35Z" transform="translate(-0.02 0.01)"/><path class="cls-20" d="M314,193.11c1.29,2.36,3.08,4.47,3.86,7.56-5.28-2-8.25-6.71-13-8.76-.7-.34-.6-.95-.54-1.56,1.07-.28.51-1.66,1.38-2.08,1.92-1.07,3.06.35,4.33,1.35Z" transform="translate(-0.02 0.01)"/><path class="cls-29" d="M278.6,166.13c-.62-1.41-2-2.16-3-3.24-.64-.7-.88-1.46-.12-2.09a1.35,1.35,0,0,1,2.29.39,9.58,9.58,0,0,0,2.63,3.15c.65.51,1.41,1.62,2.33.7.76-.76.16-1.83-.35-2.52a47.3,47.3,0,0,0-3.2-3.6c-.4-.42-.95-.83-.54-1.44a1.23,1.23,0,0,1,1.84-.2c2.46,1.9,4.87,3.86,7.3,5.8.51.4.76,1.35.32,1.4-1.9.21-2.9,1.48-4.26,2.57-1.7,1.38-3.64-.21-5.38-1Z" transform="translate(-0.02 0.01)"/><path class="cls-37" d="M121,316.24c.51-2.41,1.81-3.83,2.44-5.52.87-2.35,2.39-1,3.63-.77,1,.13,2.65-2.05,2.93.88.12,1.2,1.49,1.23,2.51,1.44s2.52-.21,4.29,1.47C131.22,314.91,126.1,314.81,121,316.24Z" transform="translate(-0.02 0.01)"/><path class="cls-38" d="M51.38,297.94c-4.05,3.28-14.24,1.11-20.3-3.64,3.83-1.28,3.91-1.4,7,.63C41.93,297.46,46.29,297.71,51.38,297.94Z" transform="translate(-0.02 0.01)"/><path class="cls-39" d="M278.49,166c.16.54.32,1.08.46,1.63.51,2,.69,4.05-1.42,5.21s-3.85.13-5.06-1.64c-1-1.42-3.31-2.39-2.51-4.42s5-2.4,7.41-1.21c.4.2.82.36,1.23.53Z" transform="translate(-0.02 0.01)"/><path class="cls-36" d="M109.3,310.59a15.83,15.83,0,0,1-7-.5c-1-3.38,2.23-7.89,6.84-9.12C108.05,304.28,107.18,307.51,109.3,310.59Z" transform="translate(-0.02 0.01)"/><path class="cls-40" d="M300.7,295.88l8.42-.75c-1.23,2.86-2,5.6,2,7.21-5.16.78-5.16.78-8-3.43a4.71,4.71,0,0,0-2.55-1.64C299.23,296.78,299.73,296.23,300.7,295.88Z" transform="translate(-0.02 0.01)"/><path class="cls-41" d="M132.27,296.83l5.86,1.36c-.45,2.84-2.22,4.94-4,7-1,1.15-2,1-2.8-.24C128.92,301.93,129.45,299.25,132.27,296.83Z" transform="translate(-0.02 0.01)"/><path class="cls-42" d="M147.47,238.19a3.79,3.79,0,0,0-2.51,0l10.61-11.84c.6.85,1.57.73,2.42.93.25,1.31-.48,2.09-1.37,2.92-1.78,1.64-3.44,3.41-5.15,5.12-.86.87-1.29,2.15-3.17,1.13C147.1,235.76,147.16,237.27,147.47,238.19Z" transform="translate(-0.02 0.01)"/><path class="cls-39" d="M236.91,212.82c0,2-.41,3.75-2.8,4.05-1.23.16-5.85-4.1-5.38-5.21.76-1.8,2.21-3.69,4.36-3.63C235.84,208.12,237,210.13,236.91,212.82Z" transform="translate(-0.02 0.01)"/><path class="cls-43" d="M32.07,299.22a41.19,41.19,0,0,1-15.65-3.57c4.36-2.8,6.13-2.75,10.23.13C28.23,296.89,29.91,297.86,32.07,299.22Z" transform="translate(-0.02 0.01)"/><path class="cls-35" d="M242.39,206.49c-.15,1.48-.69,3.17-3,3.38-1.3.12-6.11-4.49-5.53-5.41,1-1.64,2.46-3.3,4.76-3.26S242.47,203.31,242.39,206.49Z" transform="translate(-0.02 0.01)"/><path class="cls-37" d="M163.49,307c-2.69,1.67-5.14,1.53-7.52,1.64-2,.09-2.2-1.72-2.86-3a1.26,1.26,0,0,1,.77-1.94c1.21-.43,2.07-2.27,3.85-.5C159.22,304.67,161.29,305.58,163.49,307Z" transform="translate(-0.02 0.01)"/><path class="cls-44" d="M131.32,305c1.52,1.12,2.54.53,3.23-1a25.14,25.14,0,0,1,3.58-5.78c1.21-.21,2.27,1.26,3.54.33l-.73,1.72c-3.23,1.17-4.58,4.51-8.19,6.33,4.27,1.25,7.89-.14,11.25,1-3.2.05-6.41,0-9.59.21C132.13,308,131.37,307,131.32,305Z" transform="translate(-0.02 0.01)"/><path class="cls-45" d="M92.44,215.33c-4,1.16-4.28,1.65-3.14,5.74-.62.58-1.08.12-1.43-.3-.85-1-1-7.25-.26-8.36.85-1.36,1.71-1.32,2.75-.23a9.45,9.45,0,0,1,2.08,3.15Z" transform="translate(-0.02 0.01)"/><path class="cls-46" d="M126.26,266.13h1.15c-1.7,2.33-3.55,4.55-5,7-1.11,1.86-2.27,1.84-4,.83.86-1.21,1.7-2.42,2.55-3.62,1.08-1.53,1.8-3.54,4.39-2.93C125.89,267.55,126.14,266.71,126.26,266.13Z" transform="translate(-0.02 0.01)"/><path class="cls-47" d="M132.26,212.53c3,3.45,6.91,5.14,9.05,8.78.4.69,1.7,1.43.37,2.22-.92.55-1.51-.09-2-1.14-1.17-2.47-4-3.42-5.42-5.84C133.6,215.42,132.35,214.63,132.26,212.53Z" transform="translate(-0.02 0.01)"/><path class="cls-48" d="M114.65,308.41c2.93-3.38,5.8-6.83,10.58-7.64C123.26,305.47,119.1,307.14,114.65,308.41Z" transform="translate(-0.02 0.01)"/><path class="cls-49" d="M306.43,320.22c-3.73.9-7.56.17-11.31.68-.85.11-1.7,0-1.79-1.07-.12-1.37,1-1,1.69-1,2.65,0,5.3.05,8,.08C304,319.59,305.53,319.11,306.43,320.22Z" transform="translate(-0.02 0.01)"/><path class="cls-50" d="M31.1,290c-6.28.49-7.53-.1-9.66-4.55C25.28,285.74,28.09,287.64,31.1,290Z" transform="translate(-0.02 0.01)"/><path class="cls-51" d="M255.31,164.66c-4.36,3.28-9.69,5.55-11,12.18C242.75,172,246.88,167.58,255.31,164.66Z" transform="translate(-0.02 0.01)"/><path class="cls-52" d="M144.46,233.26c-.82.93-1.64,1.87-2.48,2.79a2.09,2.09,0,0,1-.55.3c-.78-6.42-.45-7.34,3-8.4C145.93,229.72,145.54,231.49,144.46,233.26Z" transform="translate(-0.02 0.01)"/><path class="cls-20" d="M117,247.35c-2.46.19-3.35-1.19-3.65-3-.28-1.69,1.09-1.38,2-1.37,2,0,4.08,0,4,2.83C119.4,247.62,117.72,247,117,247.35Z" transform="translate(-0.02 0.01)"/><path class="cls-53" d="M88.25,336.64c1.66-4.74,5.14-5.11,9.22-5.4C95,334.44,92,335.67,88.25,336.64Z" transform="translate(-0.02 0.01)"/><path class="cls-54" d="M58,324.48l-15.26,6.34C45.3,327.76,52.5,324.65,58,324.48Z" transform="translate(-0.02 0.01)"/><path class="cls-55" d="M233.62,330.28c-4.41,2-9,1.1-13.47.59C224.62,330.18,229,328,233.62,330.28Z" transform="translate(-0.02 0.01)"/><path class="cls-56" d="M41.45,303.92c-2.92,1.41-5.7,3.18-9.36,2.38C34.55,302.26,38.31,304.13,41.45,303.92Z" transform="translate(-0.02 0.01)"/><path class="cls-57" d="M225,219.5c.65,1.36.65,1.36,2.75.27-.3,1.92,2.19,4.76-.86,5.29-2.53.44-2.57-2.85-3-4.9Z" transform="translate(-0.02 0.01)"/><path class="cls-58" d="M161.31,328.64c.88,1.06,2.57,0,3.37,1.25-5.84,0-11.68-.1-17.49.92l-.11-1.26Z" transform="translate(-0.02 0.01)"/><path class="cls-59" d="M238.23,330.63c1.69-.1,4.13-1.5,3.44,2.25-.23,1.21,1,1.32,1.94,1.33l3.42.05c-2.2.94-4.46.51-6.7.34C237.63,334.39,239.35,331.74,238.23,330.63Z" transform="translate(-0.02 0.01)"/><path class="cls-60" d="M321.19,209.25c.69,3.66-1.87,5.45-2.46,7.91-.13.51-.58.31-.83.16a1.55,1.55,0,0,1-.77-1.75C317.65,213.24,319.26,211.61,321.19,209.25Z" transform="translate(-0.02 0.01)"/><path class="cls-61" d="M65.64,346.73l14.23-1.52C75.23,347.7,70.32,347.51,65.64,346.73Z" transform="translate(-0.02 0.01)"/><path class="cls-62" d="M321,302.28l10-2.46C330.12,302.4,327.93,302.94,321,302.28Z" transform="translate(-0.02 0.01)"/><path class="cls-63" d="M327.25,320.31,339.17,319l.13,1.12c-3.82,1.77-8,.48-12.06.72-.28-.12-.37-.23-.27-.34A.38.38,0,0,1,327.25,320.31Z" transform="translate(-0.02 0.01)"/><path class="cls-64" d="M117.39,195.18l-2.12-1.45c.48-1.63,1-3.76,2.84-3.66,1.57.07,1.27,2.38,2.4,4.3C118.64,193.33,117.14,192.7,117.39,195.18Z" transform="translate(-0.02 0.01)"/><path class="cls-65" d="M141.31,141.12c.79,3.52-1.28,6.21-5.5,6.76,1.34-2,4.15-2.82,4.05-5.56C140.33,141.91,140.42,141,141.31,141.12Z" transform="translate(-0.02 0.01)"/><path class="cls-66" d="M358.52,318.89c.59,1.1,2.13.13,2.72,1.24H347.36C351.12,320,354.75,318.61,358.52,318.89Z" transform="translate(-0.02 0.01)"/><path class="cls-67" d="M161.25,192.41c-.71-3.81,1.63-6.11,4.11-8.35C164.38,187,163.51,190.07,161.25,192.41Z" transform="translate(-0.02 0.01)"/><path class="cls-68" d="M164.73,338.32l.66,1.27c-3,.13-5.88,1.21-9.49.44A20.21,20.21,0,0,1,164.73,338.32Z" transform="translate(-0.02 0.01)"/><path class="cls-69" d="M167.22,301.33c2.3-4.12,6.41.84,8.72-2.35C174.72,301,171.89,301.69,167.22,301.33Z" transform="translate(-0.02 0.01)"/><path class="cls-70" d="M113.08,263.37c-1.39-.93-1.24-2.85-2.5-3.87-.07-.53-.15-1.05-.22-1.58a9.09,9.09,0,0,1,4,2.41c1.13.93-.42,1.47-.75,2.2A6.62,6.62,0,0,1,113.08,263.37Z" transform="translate(-0.02 0.01)"/><path class="cls-71" d="M123.59,193.93c3.29,1.3,4.34,4.09,4.9,7.22Z" transform="translate(-0.02 0.01)"/><path class="cls-72" d="M111.54,325.77l-4.88,2.84C106,323.5,109.68,325.92,111.54,325.77Z" transform="translate(-0.02 0.01)"/><path class="cls-73" d="M53.62,311.11,60,312.52c-1.21.34-2.44.6-3.61,1C53.87,314.45,53.36,313.23,53.62,311.11Z" transform="translate(-0.02 0.01)"/><path class="cls-74" d="M119.89,253.71c-.69-3.67,1.53-4.36,4.5-5.27C122.84,250.52,121.85,252.22,119.89,253.71Z" transform="translate(-0.02 0.01)"/><path class="cls-75" d="M107.38,268.77c.68-1.58.28-3.29.5-5.37l2.87,2.48C109.61,266.82,109.06,268.45,107.38,268.77Z" transform="translate(-0.02 0.01)"/><path class="cls-76" d="M129.14,229.23c-.81-.62-1.33-1.43-.43-2.24,1.46-1.34,1.37-3,1.3-4.79,1.2.24,1.54,1.26,2.08,2.06C130.27,225.42,130.41,227.74,129.14,229.23Z" transform="translate(-0.02 0.01)"/><path class="cls-77" d="M144.46,233.26c0-1.77,0-3.54,0-5.31l.67-.77c1.48.38.51,2.7,2.27,2.86A9,9,0,0,1,144.46,233.26Z" transform="translate(-0.02 0.01)"/><path class="cls-78" d="M43.68,346.37c.14-.43.14-.6.21-.63,1.53-.63,3.08-1.27,4.75-.62.22.09.33,1.17.28,1.18C47.25,346.91,45.56,346.48,43.68,346.37Z" transform="translate(-0.02 0.01)"/><path class="cls-79" d="M234.18,319a10.91,10.91,0,0,1-7,.14C229.53,318.9,231.81,317.67,234.18,319Z" transform="translate(-0.02 0.01)"/><path class="cls-80" d="M11.63,314.76c-.55.56-1.66.82-1.11,2a17,17,0,0,1-6.13-1.16Z" transform="translate(-0.02 0.01)"/><path class="cls-81" d="M143.25,342.48c.13,1.51,1.4,1.6,2.44,2,.57.21,1.06.59.81,1.27-.33.9-1.1.74-1.69.38-1.25-.75-2.64-1.4-3.05-3Z" transform="translate(-0.02 0.01)"/><path class="cls-82" d="M127,327.87c-.18.7-.7,1.19-1.18,1.09a3.46,3.46,0,0,1-2.48-2.3c0-.12.93-.92,1.24-.82A4.73,4.73,0,0,1,127,327.87Z" transform="translate(-0.02 0.01)"/><path class="cls-83" d="M90.36,225.05c-.25,1.36.64,2.9-.66,4.09-.49-1-1.7-.34-2.36-1.1A6.87,6.87,0,0,1,90.36,225.05Z" transform="translate(-0.02 0.01)"/><path class="cls-84" d="M138.26,326.11c-1.51-.37-2.68-.67-3.87-.94-.64-.15-1.07-.42-.74-1.15s.75-1.33,1.53-.76C136.17,324,137.45,324.41,138.26,326.11Z" transform="translate(-0.02 0.01)"/><path class="cls-85" d="M52.89,343.61c.77-.33,1.06-.57,1.35-.55,1.33.08,2.63-1,3.95-.09a1,1,0,0,1-.16.86C56.41,344.92,54.88,344.4,52.89,343.61Z" transform="translate(-0.02 0.01)"/><path class="cls-86" d="M243.32,304.48a10.34,10.34,0,0,1-7.95,0c1.82-.57,3.85,0,5.6-1.24C242.26,302.3,242.43,304.24,243.32,304.48Z" transform="translate(-0.02 0.01)"/><path class="cls-87" d="M91,341.52c-.23-.65.84-1.32,0-2,1.72-1.37,2.35,1.48,4.23.42C94,342.51,92.44,341.9,91,341.52Z" transform="translate(-0.02 0.01)"/><path class="cls-34" d="M326.5,229.92c-1.67.46-3.47,1.42-4.78-1.06A5.53,5.53,0,0,1,326.5,229.92Z" transform="translate(-0.02 0.01)"/><path class="cls-88" d="M107.43,190.65c1-2.72,1.76-4.4,3.25-5.9C110.85,187.49,110.85,187.49,107.43,190.65Z" transform="translate(-0.02 0.01)"/><path class="cls-89" d="M101.11,193.08c-.59-1.46-2.55-2.34-1.14-4.16.22-.29,1-1.07,1.32-.52A4.5,4.5,0,0,1,101.11,193.08Z" transform="translate(-0.02 0.01)"/><path class="cls-90" d="M5.58,336.12c-.46-.91-1.39-.53-2.09-.77,2.45-1.2,5.19-.19,7.68-1.2A11.26,11.26,0,0,1,5.58,336.12Z" transform="translate(-0.02 0.01)"/><path class="cls-91" d="M75.74,302.88l6.26-.75C80,303.39,78.15,305.35,75.74,302.88Z" transform="translate(-0.02 0.01)"/><path class="cls-92" d="M223.18,157.77c-1.24,1-2.15.51-2.55-.78-.28-.93.53-1.53,1.4-1.43,1.47.18,2,1,1,2.34Z" transform="translate(-0.02 0.01)"/><path class="cls-93" d="M92.44,215.33c2.08.91,2.24,2.89,2.87,5.2a7.36,7.36,0,0,1-2.87-5.2Z" transform="translate(-0.02 0.01)"/><path class="cls-94" d="M141.31,141.12c0,.94-.16,1.78-1.45,1.2a2.25,2.25,0,0,0-.25-.64c-.93-1.1-.9-2.49.36-2.8C141.38,138.53,140.81,140.36,141.31,141.12Z" transform="translate(-0.02 0.01)"/><path class="cls-95" d="M327.25,320.31c0,.16,0,.32,0,.49H319A25.22,25.22,0,0,1,327.25,320.31Z" transform="translate(-0.02 0.01)"/><path class="cls-96" d="M262.77,307.14c-1.89.83-3.7,1.16-5.2-.73C259.35,306.29,261.19,305.78,262.77,307.14Z" transform="translate(-0.02 0.01)"/><path class="cls-97" d="M157.56,337c-1.29.87-2.58,1.58-4.34,1C154.49,336.09,156.19,337.21,157.56,337Z" transform="translate(-0.02 0.01)"/><path class="cls-98" d="M163.28,343.52c1.28-.81,2.3-2.17,4.22-1.27A4.53,4.53,0,0,1,163.28,343.52Z" transform="translate(-0.02 0.01)"/><path class="cls-99" d="M316.06,210.53c.18-2.12.15-3.56,2-4.38C318.67,208,317.6,209,316.06,210.53Z" transform="translate(-0.02 0.01)"/><path class="cls-100" d="M111.73,336.26A12.8,12.8,0,0,1,106,339C108,337.18,109.38,336.26,111.73,336.26Z" transform="translate(-0.02 0.01)"/><path class="cls-101" d="M38.89,301.93c-1.73.21-3.21,1-3.77-1.51A4.4,4.4,0,0,1,38.89,301.93Z" transform="translate(-0.02 0.01)"/><path class="cls-102" d="M306.43,320.22c-1.16-.41-2.63,0-3.46-1.32a16.57,16.57,0,0,1,3.44-.09C308,319.1,307.13,319.72,306.43,320.22Z" transform="translate(-0.02 0.01)"/><path class="cls-62" d="M200.17,317.68c-2.15.76-4.26.7-7.27.32A12.85,12.85,0,0,1,200.17,317.68Z" transform="translate(-0.02 0.01)"/><path class="cls-103" d="M138.91,237.36c-.16-.68.22-1.57-.73-2,.11-.87.67-1.39,1.72-2.22C139.87,235,140.19,236.29,138.91,237.36Z" transform="translate(-0.02 0.01)"/><path class="cls-104" d="M86.37,327.43a4.06,4.06,0,0,1-3.56,1.81A3.51,3.51,0,0,1,86.37,327.43Z" transform="translate(-0.02 0.01)"/><path class="cls-105" d="M348.71,209.49c.66-.83,0-2.92,1.61-2.79a3.41,3.41,0,0,1,2.89,3.06c0,1.62-1.8,1.93-3.12,2.06C348.49,212,348.73,210.64,348.71,209.49Z" transform="translate(-0.02 0.01)"/><path class="cls-106" d="M310,189.62l-4.33-1.35c.54-1.56,0-3.37,1.27-5C308.59,185.16,310.52,186.75,310,189.62Z" transform="translate(-0.02 0.01)"/><path class="cls-107" d="M319.39,188.29c-.47,1.34,1.23,2.17.77,3.93-2.18-1.19-4.4-1.94-5.91-4s-.3-2.24,1.34-2.32A43.72,43.72,0,0,1,319.39,188.29Z" transform="translate(-0.02 0.01)"/><path class="cls-108" d="M332.22,201.78a16.68,16.68,0,0,1-5.85-5.05C330.4,196.5,330.79,199.73,332.22,201.78Z" transform="translate(-0.02 0.01)"/><path class="cls-109" d="M319.39,188.29c-2.19.68-3.39-.2-3.8-2.36C317.72,185.32,319.9,184.64,319.39,188.29Z" transform="translate(-0.02 0.01)"/><path class="cls-29" d="M120.11,115.48c-.77,2.67-1.38,4.85-4.47,4.17-1.22-.26-2-1-1.57-2.19C115.18,114.48,117.67,115.32,120.11,115.48Z" transform="translate(-0.02 0.01)"/><path class="cls-110" d="M66,201.53c-.62,1.15-.93,2.78-2.66,2.77s-1.63-1.37-1.64-2.54c0-1.73,1.25-1.67,2.44-1.62C65,200.17,66.1,200,66,201.53Z" transform="translate(-0.02 0.01)"/><path class="cls-111" d="M230.41,161.23c2.22,0,3.5.44,3.17,1.85-.49,2.14-2.59,2.67-4.4,3.2a1.31,1.31,0,0,1-1.72-1.53C227.82,162.66,228.94,161.18,230.41,161.23Z" transform="translate(-0.02 0.01)"/><path class="cls-92" d="M167.54,234.57a2.8,2.8,0,0,1-2.43,2.38c-1.07.16-1.87-.41-1.72-1.53a2.65,2.65,0,0,1,2.6-2.27C166.89,233,167.55,233.4,167.54,234.57Z" transform="translate(-0.02 0.01)"/><path class="cls-112" d="M221.15,173.16c-1,0-1.72-.31-1.53-1.38.25-1.37,1.37-1.75,2.59-1.79.91,0,1.64.41,1.51,1.41C223.53,172.89,222.18,172.87,221.15,173.16Z" transform="translate(-0.02 0.01)"/><path class="cls-113" d="M143.15,265a1.75,1.75,0,0,1-1.89,1.64,1.52,1.52,0,0,1-1.6-1.82c.14-1.11,1-1.49,2-1.42A1.44,1.44,0,0,1,143.15,265Z" transform="translate(-0.02 0.01)"/><path class="cls-114" d="M197.14,198.71c1,.15,1.64.68,1.39,1.61a2.26,2.26,0,0,1-2.39,2,1.2,1.2,0,0,1-1.09-1.45A2.19,2.19,0,0,1,197.14,198.71Z" transform="translate(-0.02 0.01)"/><path class="cls-115" d="M213.17,181.42c-.75-.06-1.44-.25-1.12-1.22a2.54,2.54,0,0,1,2.13-2c1.06-.1,1.39.66,1.25,1.56C215.25,181.05,214.28,181.35,213.17,181.42Z" transform="translate(-0.02 0.01)"/><path class="cls-116" d="M176.87,225.11c-.05,1-.54,1.61-1.45,1.65a1.37,1.37,0,0,1-1.54-1.47,1.42,1.42,0,0,1,1.29-1.4A1.39,1.39,0,0,1,176.87,225.11Z" transform="translate(-0.02 0.01)"/><path class="cls-117" d="M154.87,249.23a1.59,1.59,0,0,1-1.6,1.48,1.36,1.36,0,0,1-1.44-1.55,1.39,1.39,0,0,1,1.53-1.48A1.5,1.5,0,0,1,154.87,249.23Z" transform="translate(-0.02 0.01)"/><path class="cls-112" d="M184.71,213.3c-.84,0-1.31-.61-1.22-1.56a1.45,1.45,0,0,1,1.61-1.43,1.32,1.32,0,0,1,1.4,1.57C186.41,212.84,185.82,213.29,184.71,213.3Z" transform="translate(-0.02 0.01)"/><path class="cls-118" d="M204.85,191.24c-.89,0-1.5-.42-1.42-1.41a1.7,1.7,0,0,1,1.81-1.63,1.16,1.16,0,0,1,1.29,1.24A1.75,1.75,0,0,1,204.85,191.24Z" transform="translate(-0.02 0.01)"/><path class="cls-57" d="M137.44,274.53a1.56,1.56,0,0,1-1.55,1.55,1.21,1.21,0,0,1-1.3-1.3,1.45,1.45,0,0,1,1.52-1.53C136.93,273.22,137.35,273.74,137.44,274.53Z" transform="translate(-0.02 0.01)"/><path class="cls-119" d="M151.11,202.89c-.42-1.66-.63-2.87.58-3.77a.66.66,0,0,1,.58.19C152.63,200.55,152.34,201.61,151.11,202.89Z" transform="translate(-0.02 0.01)"/><path class="cls-120" d="M176.48,207.38c-.17.72-.85,1-1.72,1-.63-.05-1.13-.48-1-1.09a1.44,1.44,0,0,1,1.76-1.18C176.07,206.12,176.56,206.43,176.48,207.38Z" transform="translate(-0.02 0.01)"/><path class="cls-83" d="M98.36,248.17c-3.46-5.09-4.68-10.93-5.64-16.85C94.26,237.05,97.05,242.36,98.36,248.17Z" transform="translate(-0.02 0.01)"/><path class="cls-121" d="M286.93,152.67a7.24,7.24,0,0,1,1.92,6.66A7.41,7.41,0,0,1,286.93,152.67Z" transform="translate(-0.02 0.01)"/><path class="cls-121" d="M245,201.49a6.8,6.8,0,0,1-.56-.4,4.08,4.08,0,0,1-1.07-4.91.74.74,0,0,1,1.17-.11A4.25,4.25,0,0,1,245,201.49Z" transform="translate(-0.02 0.01)"/><path class="cls-122" d="M273.33,167.93c-.1-.86.32-1.35,1.14-1.3,1.67.09,2.32,1.23,2.45,2.72.06.78,0,1.85-1.13,1.55A3.59,3.59,0,0,1,273.33,167.93Z" transform="translate(-0.02 0.01)"/><path class="cls-123" d="M234.8,214.86c-2-1.06-3.24-2.11-2.82-4.19.15-.73.72-.81,1.34-.52C235.4,211.14,234.85,212.85,234.8,214.86Z" transform="translate(-0.02 0.01)"/><path class="cls-124" d="M240.39,206c-.14.58.26,1.68-.77,1.54-1.54-.22-2.19-1.56-2.59-2.91a1.1,1.1,0,0,1,1-1.5C239.69,203.23,240.29,204.45,240.39,206Z" transform="translate(-0.02 0.01)"/></svg>