<svg id="tugofwar_Image" data-name="tugofwar Image" xmlns="http://www.w3.org/2000/svg" viewBox="0 0 394 182"><defs><style>.cls-1{fill:none;}.cls-2{fill:#d89a6a;}.cls-3{fill:#eb9b82;}.cls-4{fill:#f0b09d;}.cls-5{fill:#f79955;}.cls-6{fill:#10100d;}.cls-7{fill:#080604;}.cls-8{fill:#0c0a08;}.cls-9{fill:#070606;}.cls-10{fill:#eb9c83;}.cls-11{fill:#100e0c;}.cls-12{fill:#efb09d;}.cls-13{fill:#171310;}.cls-14{fill:#0e0a07;}.cls-15{fill:#090807;}.cls-16{fill:#0e0906;}.cls-17{fill:#0c0a09;}.cls-18{fill:#14120e;}.cls-19{fill:#0d0b09;}.cls-20{fill:#0b0806;}.cls-21{fill:#110e0b;}.cls-22{fill:#17120f;}.cls-23{fill:#151210;}.cls-24{fill:#707070;}.cls-25{fill:#0a0807;}.cls-26{fill:#0b0b07;}.cls-27{fill:#140f0b;}.cls-28{fill:#161510;}.cls-29{fill:#1f1d1d;}.cls-30{fill:#3c3b3b;}.cls-31{fill:#353535;}.cls-32{fill:#100c0a;}.cls-33{fill:#312421;}.cls-34{fill:#201913;}.cls-35{fill:#191615;}.cls-36{fill:#252525;}.cls-37{fill:#e9ad9b;}.cls-38{fill:#24201d;}.cls-39{fill:#2a1f1c;}.cls-40{fill:#5b5b5b;}.cls-41{fill:#3b2a1e;}.cls-42{fill:#363426;}.cls-43{fill:#3f3633;}.cls-44{fill:#ca956c;}.cls-45{fill:#7e7e7e;}.cls-46{fill:#4a3c31;}.cls-47{fill:#ede285;}.cls-48{fill:#c4bd82;}.cls-49{fill:#1f2929;}.cls-50{fill:#201918;}.cls-51{fill:#2a3131;}.cls-52{fill:#423734;}.cls-53{fill:#64462f;}.cls-54{fill:#bb865c;}.cls-55{fill:#352b28;}.cls-56{fill:#c99872;}.cls-57{fill:#b08b80;}.cls-58{fill:#7a7a7a;}.cls-59{fill:#372f29;}.cls-60{fill:#cc976c;}.cls-61{fill:#4c4c4c;}.cls-62{fill:#535353;}.cls-63{fill:#764c2e;}.cls-64{fill:#f0e58b;}.cls-65{fill:#575352;}.cls-66{fill:#b4845e;}.cls-67{fill:#2e2e2e;}.cls-68{fill:#e6dc86;}.cls-69{fill:#cdcdcd;}.cls-70{fill:#121010;}.cls-71{fill:#635143;}.cls-72{fill:#be8f69;}.cls-73{fill:#d59e8d;}.cls-74{fill:#575757;}.cls-75{fill:#9bb3b2;}.cls-76{fill:#fdfdfd;}.cls-77{fill:#110c08;}.cls-78{fill:#130e0a;}.cls-79{fill:#2f2014;}.cls-80{fill:#1d150e;}.cls-81{fill:#ba7c4e;}.cls-82{fill:#302318;}.cls-83{fill:#3c2b1d;}.cls-84{fill:#6a635d;}.cls-85{fill:#dbd0c8;}.cls-86{fill:#f7eee6;}.cls-87{fill:#7f5e44;}.cls-88{fill:#1f1511;}.cls-89{fill:#ebdf81;}.cls-90{fill:#2b1c18;}.cls-91{fill:#120c0a;}.cls-92{fill:#160f0c;}.cls-93{fill:#583a31;}.cls-94{fill:#5a3f36;}.cls-95{fill:#e6e4e3;}.cls-96{fill:#1f1411;}.cls-97{fill:#3d3a22;}.cls-98{fill:#5e3e34;}.cls-99{fill:#64504a;}.cls-100{fill:#e2d1cc;}.cls-101{fill:#eab5a5;}.cls-102{fill:#231a15;}.cls-103{fill:#deb6a7;}.cls-104{fill:#64957c;}.cls-105{fill:#624630;}.cls-106{fill:#f4f0e9;}.cls-107{fill:#5b412d;}.cls-108{fill:#e8d1c7;}.cls-109{fill:#7d593d;}.cls-110{fill:#e1ddd0;}.cls-111{fill:#664932;}.cls-112{fill:#2bb4a9;}.cls-113{fill:#eeeae5;}.cls-114{fill:#d2c3b7;}.cls-115{fill:#c2a48d;}.cls-116{fill:#7df1b6;}.cls-117{fill:#fcfcfc;}.cls-118{fill:#111815;}.cls-119{fill:#33261b;}.cls-120{fill:#f7f7f7;}.cls-121{fill:#ebb09f;}.cls-122{fill:#d39768;}.cls-123{fill:#7ee8b2;}.cls-124{fill:#eff0ef;}.cls-125{fill:#302724;}.cls-126{fill:#67bc91;}.cls-127{fill:#3b3530;}.cls-128{fill:#e3e0de;}.cls-129{fill:#b7835b;}.cls-130{fill:#b6b6b6;}.cls-131{fill:#010202;}.cls-132{fill:#e6c1b6;}.cls-133{fill:#ececeb;}.cls-134{fill:#487f61;}.cls-135{fill:#9b8f8b;}.cls-136{fill:#fefefe;}.cls-137{fill:#ea9c83;}.cls-138{fill:#ea9c84;}.cls-139{fill:#f39856;}.cls-140{fill:#3f2a1b;}.cls-141{fill:#996138;}.cls-142{fill:#392d29;}.cls-143{fill:#2e1f1b;}.cls-144{fill:#da874b;}.cls-145{fill:#e1b19f;}.cls-146{fill:#a9744d;}.cls-147{fill:#d4a077;}.cls-148{fill:#db894d;}.cls-149{fill:#ab6d49;}.cls-150{fill:#b36f3d;}.cls-151{fill:#e8e5e4;}.cls-152{fill:#bb7c68;}.cls-153{fill:#b8723f;}.cls-154{fill:#e8e3df;}.cls-155{fill:#603c21;}.cls-156{fill:#5c391f;}.cls-157{fill:#c5b8af;}.cls-158{fill:#4a2e19;}.cls-159{fill:#35261d;}.cls-160{fill:#5c422d;}.cls-161{fill:#845e40;}.cls-162{fill:#13dcd5;}.cls-163{fill:#d89a69;}.cls-164{fill:#d79a69;}.cls-165{fill:#f2f6f6;}.cls-166{fill:#503a28;}.cls-167{fill:#38281c;}.cls-168{fill:#1ad1c9;}.cls-169{fill:#efecea;}.cls-170{fill:#8d6f57;}.cls-171{fill:#ccc7c3;}.cls-172{fill:#eeaf9c;}.cls-173{fill:#ede9e8;}.cls-174{fill:#d2d2d2;}.cls-175{fill:#76625c;}.cls-176{fill:#ebb9a8;}.cls-177{fill:#f5f5f5;}.cls-178{fill:#c8e5d7;}.cls-179{fill:#d5ece0;}.cls-180{fill:#4a3731;}.cls-181{fill:#f5ece9;}.cls-182{fill:#062a29;}.cls-183{fill:#aa8365;}.cls-184{fill:#866041;}.cls-185{fill:#b7a08f;}.cls-186{fill:#793c0a;}.cls-187{fill:#f0eeec;}.cls-188{fill:#f7f6f5;}.cls-189{fill:#7a3c0b;}.cls-190{fill:#763b0c;}.cls-191{fill:#e5dfd9;}.cls-192{fill:#b2a69d;}.cls-193{fill:#ab7e70;}.cls-194{fill:#f09653;}.cls-195{fill:#ece184;}.cls-196{fill:#cfc572;}.cls-197{fill:#6a4c34;}.cls-198{fill:#c8c8c4;}.cls-199{fill:#bf997b;}.cls-200{fill:#9d704d;}.cls-201{fill:#ebebeb;}.cls-202{fill:#c4bb6c;}.cls-203{fill:#ea9150;}.cls-204{fill:#f3f3f0;}.cls-205{fill:#c7a79d;}.cls-206{fill:#d5a597;}.cls-207{fill:#e8e8e8;}.cls-208{fill:#1d1a19;}.cls-209{fill:#e09780;}.cls-210{fill:#cdbaaf;}.cls-211{fill:#7b6d64;}.cls-212{fill:#959595;}.cls-213{fill:#9f724e;}.cls-214{fill:#b07e56;}.cls-215{fill:#172c21;}.cls-216{fill:#09120d;}.cls-217{fill:#13241b;}.cls-218{fill:#12231b;}.cls-219{fill:#251d1a;}.cls-220{fill:#585656;}.cls-221{fill:#90705b;}.cls-222{fill:#e7e5e5;}.cls-223{fill:#838383;}.cls-224{fill:#eae9e9;}</style></defs><title>tugofwar</title><path class="cls-1" d="M197.5,0q97.38,0,194.75,0c1.87,0,2.3.24,2.3,1.31q-.09,89.69,0,179.38c0,1.07-.43,1.31-2.3,1.31q-194.74,0-389.5,0c-1.87,0-2.3-.24-2.3-1.31Q.54,91,.45,1.31C.45.24.88,0,2.75,0Q100.13,0,197.5,0Z"/><path class="cls-2" d="M82.28,66.5l0,0a55.84,55.84,0,0,0,21.47,7.41,8.13,8.13,0,0,1,5.36,2.35,1.18,1.18,0,0,1,.08.72,4.18,4.18,0,0,1-4.21.51,2,2,0,0,0-2.37.45c.83.5,2.53-1.13,2.63,1.06.08,1.69.07,3.21-2.15,3.39a1.6,1.6,0,0,1-1.61-.42c-.65-1.38-2.22-1.46-3.28-2.28a5.8,5.8,0,0,0-3-1.73c-4.44-.53-8.79-1.78-13.3-1.8A10.59,10.59,0,0,1,75.41,74a8.66,8.66,0,0,0-5.3-1.91c-1.64,0-2.88-1.81-4.72-.84-.34.18-.83-.43-.92-1-.3.07.86-.84-.19-.28-2,1.07-2-.37-2.09-1.65l-.76-.49c-1.19-.59-2.51-1.3-3.72-.77s-1.09-1.48-2.15-1c-.15-.08-.25-.28-.37-.31-.39-.08,0,.17-.08.23a4.2,4.2,0,0,1,.9,1.47c.5,4.94,1.05,9.88,1.24,14.84a5.15,5.15,0,0,0,.93,3,2.26,2.26,0,0,1,.44.62c.06.62-.39.89-.85,1.07A27.35,27.35,0,0,1,48.06,89a2.25,2.25,0,0,1-2.2-1.41c-1.76-4.47-5.35-7.25-9-10a2.15,2.15,0,0,1-.43-.48c.95,1.45,2.77,2.48,4.36,3.68a13.83,13.83,0,0,1,3.94,5c1.74,3.49,2.35,3.55,6.33,3.1,4.5-.51,8.39-2.57,12.37-4.38,2.73-1.24,5.64-2,8.33-3.29a6.49,6.49,0,0,1,1.74-.68c1-.16,2-.17,2.94-.29a2.69,2.69,0,0,1,1.64.51c1.15.9,3.29,1.35,2.3,3.45-1.18,2.47-4.06,3.35-6,1.92a1.89,1.89,0,0,0-2.26-.17c-1,.47-1.91,1-2.85,1.52-6.4,3-12.16,7.4-19.18,9.1-.48.29-1.24.49-1,1.16s.95.27,1.47.25c.83,1.34.69,1.93-.7,2.4a5.07,5.07,0,0,1-5.61-1.74c-2.72-3.17-6.25-5.09-9.71-7.2a27.16,27.16,0,0,1-6-4.32c-.92-1-2.14-1.94-1.67-3.61,2.08-.72,4.28.44,6.45-.63-3.8.13-6.63-1.7-9.15-4.18-.12-.12-.31-.36-.34-.34-.61.48-1.25,1.23-1.88.08A9.73,9.73,0,0,1,21,75.08c-.6-3.86,1.26-6.72,3.75-9.32.8-.84,1.64-1.66,2.47-2.48A24.53,24.53,0,0,0,32,54l0,0c1-1.16,3.08-.65,3.66-1.93,1.54-3.43,3.31-3.23,6.17-1.39,1.89,1.22,5-.58,6-2.8.77-1.76,2.53-2,4-2.6.22-.09.63,0,.67.22a15.09,15.09,0,0,1-.11,4.4c-.12,1-1,1-1.79.88-1.14-.15-1.83.35-2.51,1.66,1.1-.31,1.62-1.9,2.5-.87a2.83,2.83,0,0,1,.3,3.87,2,2,0,0,1,2.41-.63,25.39,25.39,0,0,1,7.29,4.24,27.08,27.08,0,0,0,16.11,7,9.36,9.36,0,0,1,1.46.34A24.89,24.89,0,0,0,82.28,66.5Z"/><path class="cls-3" d="M347.22,69c0-.44.3-.5.66-.41,1.76,0,2.49,2,4.19,2.09,1.55,1.41,3.48,1,5.3,1.14.62.67,0,1.23-.2,1.79-.38.88-.67,1.71.1,2.53.72.24.57,1.75,1.82,1.22,1.17.44.82,1.23.43,2s-1.17,1-1.12,1.83l.05.65a6.69,6.69,0,0,0,.82,8.05c2.09,2.57,4,5.28,6.16,7.82,1.25,1.5,1.41,3,.14,4.5-1.73,2-2.49,4.74-4.79,6.31-2.76.7-3.18.29-3.33-2.86-1,1.92,1.57,3,1.86,4.89a2.12,2.12,0,0,1-1.42,1.61,23.2,23.2,0,0,0-6.27,4.88c-2.79,2.8-5,3.26-8.57,1.62a49,49,0,0,1-5.5-2.91c-.49-1,.63-1.45.89-2.2,1.72-2,3.48.07,5.22-.12,0,.06,0,0-.27,0-3.94-1.13-3.95-1.14-1.46-4.49a1.92,1.92,0,0,0,.41-1.37,2.78,2.78,0,0,1,1-1.73c.83-.83,2.47-1.19,1.72-3,.46-1.54.46-1.54,2.65-2.44-.18-.71-1.71-.56-1.13-1.77.77-1.59,2.34-1.27,3.65-1.58a4.74,4.74,0,0,0-3.66,1.25c-1.44,1.33-2.76.19-4.4-.76,1,1.54,3.4,1.82,2.48,4a20.35,20.35,0,0,1-4.23,2c-.84.33-1.81.42-1.28-1.08,0-.11.63-.61.06-.44-2.14.65-1.64-.52-1.41-1.73.05-.26-.46-.76-.74-.91-2.22-1.14-3-3.46-4.56-5.33.62,1.14,0,1.74-.76,2.24a7,7,0,0,0-2.42,2.32c-.74,1.26-1.8.5-2.17-.58a12.09,12.09,0,0,1-.75-4.89c1.9-4.19,5.46-6.08,9.76-6.61a36.35,36.35,0,0,0,5.59-.79,2,2,0,0,1,.86.84c1.4,2.13,1.32,2.35-1.05,3.08a6.11,6.11,0,0,1-.88.28,6.86,6.86,0,0,1,5.43.14c.95,1.63,2.1,2.88,4.24,2.71,1.59-.13,2.25-.94,1.46-2.35-.6-1.08.31-1.91,0-2.83.41-.74-.34-.72-.65-1-.63-1.08.57-1.14.82-1.76a13.8,13.8,0,0,1-1.77.84c-3.22,1.1-4.83,0-4.7-3.32.09-2.27-1-4.92,1.69-6.57a.26.26,0,0,0,0-.43c-1.94-1.87-.47-3.67.1-5.48A1.33,1.33,0,0,0,347.22,69Z"/><path class="cls-4" d="M128.53,146.52l-.6-1.45a8.19,8.19,0,0,0,.26-3.68c-.37-5.3-.58-10.61.44-15.86.49-2.52.07-5.09.63-7.38-2.87-1.34-6.1-1.07-8.87-2.55.42-.6,1.12-.17,1.69-.45-3.19.46-6.29-.26-9.41-.26a33.68,33.68,0,0,1-9.62-2.38c-1.5-.53-1.81-1.36-.41-2.17,3.51-2,5.62-5.36,8-8.44.81-1.06,2.05-1.73,2.64-3,.45-.88,1-1.5,2.09-.87A18.34,18.34,0,0,0,120,99.51c4.14,2.51,8.84,4.08,12.48,7.43,1.45,1.34,2.73,2.89,4.72,3.57a2.91,2.91,0,0,1,1.79,2c1.2,8-.82,15.63-2.45,23.32a28.31,28.31,0,0,0-.88,5.88C135.68,146.7,133.34,148.25,128.53,146.52Z"/><path class="cls-2" d="M284.15,162.39a15,15,0,0,1-4-2.52c-.81-1.78.21-3.39.66-5a174.31,174.31,0,0,0,5.35-22.69c.56-3.72,3.16-6.54,5.27-9.49a53.88,53.88,0,0,1,8.67-8.87c2.93-.17,4.56-2.85,7.15-3.68-.26-.37-.46-.73.12-1,1.66-.17,3.36.41,5-.53a1.25,1.25,0,0,1,1.92.85c-.62,1.16-1.88,1.53-2.93,2.37a26.2,26.2,0,0,0,2.76-1.92.86.86,0,0,1,1-.06,1.61,1.61,0,0,1,.33.65,1.55,1.55,0,0,1-.23,1c-1.29.88-2.85,1.29-4,2.22a15.28,15.28,0,0,1,4.42-2c.82.11.49,1.81,1.86,1.3.35-.12.77.51.82,1.09,0,.09-1.24,1.27.35.57.57-.25,1.08.25,1.34.85a1.29,1.29,0,0,1-.42,1.56,16.67,16.67,0,0,1-4.51,3.51c-2.7,1.32-5.2,3-7.93,4.24-3.84,1.78-6.94,4.54-10,7.35-.92.84-.88,2.14-1.56,3.09-1.15,2.27-2.56,4.43-2.78,7.06a75.89,75.89,0,0,0-7.54,18.34C285.05,161.29,285.19,162.28,284.15,162.39Z"/><path class="cls-2" d="M270,95.05l-.45.44c-1.7.09-3.48-1.44-5.09.29-.24.4-.59.18-.9.17-1.42.29-2.67.22-3.32-1.37a2.08,2.08,0,0,0-.81-.93c-.63-.41-1.89-.25-1.63-1.47A3.6,3.6,0,0,1,260,89.59a7.38,7.38,0,0,1,4.89-.51c4,1.1,7.71,0,11.44-1.24a9.56,9.56,0,0,1,2.87-.81c4.47,0,7.05-2.89,9.53-6,.57-.72,1.05-1.62,1.84-2,2.63-1.28,3.74-3.66,4.8-6.12,1.13-1.52,3.48-2.11,3.47-4.51-.13-1-1.13-1.53-1.54-2.47-1.09-2.55-1.2-2.5,1.36-3.37.33-.08-.12-.39.05-.11,0,.06,0,.13-.2.13-1.63,0-3.18,1.47-4.88.26-.23-.66.32-1.12.44-1.7s.86-.69,1.3-1c1.77-1.31,1.79-2.12,0-3.52-.58-.46-1.19-.87-1-1.76,1.75-1.46,1.66-3.92,3-5.58.94-.45,1.89-.07,2.84,0,1.07.53,1.76,1.7,3.24,1.58,1-.08,1.26.93,1.54,1.71.84,2.35.9,4.88,1.74,7.24.36,1-.39,1.49-1.18,1.89s-1.47.61-1.83,1.53c-.87,2.18,1.5,1.75,2.08,2.73a15.69,15.69,0,0,0,5.73,3.41c2.05,1.81,3.68,4,5.69,5.88,1.75,1.62,1.3,3.44-.79,3.65-3.3.34-6.54,1.29-9.88,1.2-1.6,0-3.9.22-4.43-1.38s1.77-2.2,2.86-3.21a4.14,4.14,0,0,0-1.53,1.21c-4.35,5.11-10.43,8.2-15.05,13a4.84,4.84,0,0,1-3.85,1.43,38.54,38.54,0,0,0-7.41.87A17.65,17.65,0,0,0,270,95.05Z"/><path class="cls-2" d="M113,151.42l-2.54,1.89c-2.73-2.63-6.86-3.33-9.1-6.67a2.77,2.77,0,0,0-2.22-1c-2.66-.14-4.87-1-6.15-3.57-.56-1.12-1.35-1.69-2.58-.83-1,.24-1.47-.56-2.16-.91s-1.59-.45-1.43-1.39,1.14-.65,1.77-.84c-.56-1.32.13-2.29,1-3.3-2.54-.77-5.46-.69-7.08-3.31-.08-.15-.24-.3-.4-.26-2.36.54-4.07-1.4-6.22-1.63-.81-.09-1.82.13-2.28-.69s.93-1.19,1-2c-1.18-.3-3.08.87-3.38-.51-.35-1.58,2-1.28,2.91-2.25-.51-.49-1.34.09-1.82-.45-.88-1,.72-1.08.61-1.78a2.05,2.05,0,0,1-.58-.67c-2.74-1.32-5.47-2.68-8.67-2.16-.25,0-.58,0-.68-.18-.77-1.62-1-3.43-1.59-5.13-.32-.88.9-1.64,1.8-2.13,2.17-.63,3.49-2.35,4.93-3.9a1.07,1.07,0,0,1,.91-.35c1.14,1,1.77-.51,2.69-.57A43.5,43.5,0,0,1,84,120.68c.56,1.57,1.26,3,2.94,3.72a13,13,0,0,1,2,2.83c1.06,1.5,2,3.4,3.62,4,5.32,2.08,8,7.31,12.67,10.14,2.4,1.45,3.45,4.37,5.34,6.45C111.52,148.9,113,149.67,113,151.42Z"/><path class="cls-5" d="M101.51,81.72a2.17,2.17,0,0,0,1.56.25,14.3,14.3,0,0,1,5.25-.49c1.32.23,2-.94,3-1.45s2-.86,2.89.06c.16.3.4.8.21.92-2.1,1.4-2.34,4.56-5.21,5.31a17,17,0,0,0-5.34,2c.15,1.16,2,1.32,1.62,2.58-.2.76-1.1.43-1.69.5,3.36.68,6.61,1.55,8.23,5.09.37,1.28-.71,2.39-.44,3.66.15.21.29.5.15.69-2.68,3.48-5.13,7.18-9,9.55a15.11,15.11,0,0,0-2.53,2,3.72,3.72,0,0,1-3.15,1.07c-3.63-2.2-7-4.58-7-9.47,1.66.42,1.92,2.12,2.83,3.21a16.93,16.93,0,0,0,2.48,2.76c-2.44-2.68-5.17-5.59-5.5-9.88a19.06,19.06,0,0,1,1-7.38c1-2.68,2-5.34,4.58-6.93.35-.21.39-.1,0-.4-.64-.51-.46-1.32-.33-2.06C96,79.67,98.49,79.07,101.51,81.72Z"/><path class="cls-6" d="M300.52,114.07a58.36,58.36,0,0,0-12.37,14.22,7.78,7.78,0,0,0-1.24,3c-1.14,9.81-4.57,19.07-6.81,28.61-.57,1.58-1.14,3.17-2.87,4.17,3.76-10.54,6.15-21.18,8.49-31.86,1.36-6.23,5.64-10.87,10.15-15.07,4.05-3.76,7.27-8.16,10.86-12.46-3.21-1.7-6.57-1.86-9.8-1.81-2.67,0-5.14-.82-7.76-1-2-.1-.06-1.59-.18-2.44.09-.09.18-.17.27-.27,2.38-.6,4.67-1.82,7.26-1.18a4.39,4.39,0,0,1,4.43,2.44c1.2,2,3.68,1.54,5.61,1.9,1.35.25,2-1.16,2.56-2.53-3.46-.3-6.79-.26-9.89-1.53-1-.68-2.49.33-3.34-.92.95-1.66,2.57-.81,3.89-1a36.31,36.31,0,0,1,6.11,1.13,11.08,11.08,0,0,0,3.67.41,2.07,2.07,0,0,0,2.53-2c.37-.59.79-1.17,1.58-.74s.71,1.07.65,1.76c-.28,3.59-1.63,6.93-2.46,10.39-1.52.11-1.94-.22-1.78-1.75a31.58,31.58,0,0,1,1-4.55c-1.15,2.47-3.26,4.37-4.37,6.92,1.63.84,3.26.08,4.87.12,2.76-.23,5.5-1.24,8.25.24,1.16.62,1.47-1.11,2.42-1.33.63.16.76.79,1.12,1.19,1.05-.6.06-1.29.09-1.92.05-1-1.06-2.41.47-2.73,1.28-.26,1.42,1.33,1.74,2.32s.4,1.79.75,2.64c.21.51.38,1.12,1.27,1.14.17-1-.46-1.89-.76-2.79-.21-.63-.52-1.4.22-1.79s1.39.23,1.81.87a12.88,12.88,0,0,1,1.24,3.51.81.81,0,0,0,.85.66c.49-1.39-.29-2.7-.37-4,0-.8-.41-1.87.72-2.06s1.27.86,1.54,1.65c.11.31,0-.09.06.24.34,1.58-.09,4,1.4,4.46,1.73.49,3.88-.37,5.62-1.43A5.34,5.34,0,0,0,342,107.7a1.57,1.57,0,0,1,.56-.32c.65,0,1.22.12.74,1-.12.21-.29.4-.43.6-.73,1-2.71,2-2.21,2.93.73,1.32,2.79.83,4.31,1,.29,0,.58.13,1.26.29-2.06,1.18-3.8.45-5.44.08-.92-.21-1.55-.49-1.89.63a13.87,13.87,0,0,0-2.47.5c-1.1-.11-2.28.09-3.18-.8-.53-1.26-1.77-1.06-2.78-1.33-2.47-.2-3.4,2.3-5.33,3a4.63,4.63,0,0,1-.86.49c-.44.19-1,.55-1.34,0s.08-1.09.53-1.46a9.34,9.34,0,0,0,1.87-1.46,5.51,5.51,0,0,1-1.43,1.12c-.75.38-1.65,1.49-2.31.37-.55-1,1-1.05,1.45-1.73-.68.8-2.47.71-1.31,2.68,1,1.67,2,1.83,3.4,1.06s2.75-1.23,3.52-2.64c.53-.63.82-1.67,2-1.24.78,2.22-1,3.27-2.14,4.58A5.64,5.64,0,0,1,326,119c-1.46.32-3,0-4.42.52-2.33.39-4.22,2.26-6.73,2-2.73,1-3.53,3.51-4.53,5.84-.35.81.18.76.72.55,1.36-.27,2.42-1.66,4-1-.64,1.34-.64,1.34-3.81,2.75a21.64,21.64,0,0,0,3.29-1.52c.68-.33,1.47-.94,1.93,0s-.5,1.31-1.14,1.64a48.57,48.57,0,0,0-5.15,3.07,7.1,7.1,0,0,0-2.57,2.65c-1,2.26-1,4.71-1.34,7.08a3.18,3.18,0,0,0,2.12,3.57,17.17,17.17,0,0,0,2.61.82c5.34,1.24,10.09,3.86,14.89,6.35,3.9,2,6.14,6,9.5,8.64l.47.87c-.38.05-.87.27-1.11.12-1.37-.91-3-1.48-4-2.86-4-5.48-10.15-7.53-16-10-2.13-.9-4.54-1.19-6.58-2.24s-2.77-.21-3.93,1.25c-3.74,4.72-8.56,8.25-13.55,11.54-.67.44-1.39.93-2-.07,2.6-2.58,5.8-4.38,8.64-6.66,2.49-2,4.15-4.72,6.54-6.79a1.66,1.66,0,0,0,.47-1.82,16.69,16.69,0,0,1-.3-5.18,6.89,6.89,0,0,1,.59-2c.41-.74.1-1.52.13-2.28.71-3.64,2.51-6.86,3.79-10.39-5,2.93-11,4.71-11.91,11.8-.34,2.56-1.95,4.56-3.23,6.7a12.25,12.25,0,0,0-2,3.73c-.17,1.38-1.64,2.22-1.54,3.72-1.77,2.68-2.13,6-3.75,8.7a19.9,19.9,0,0,0-1.45,6c-.93-1.18-.56-2.43-.44-3.65,1.59-5.76,3.09-11.55,6.16-16.76.71-1.21,1.41-2.43,2.11-3.65.75-2.38,2.09-4.54,2.68-7,1.43-4.53,5.33-6.71,8.93-9s7.2-4.1,10.88-6c1.67-.86,2.85-2.26,4.31-3.33.71-.52.38-1.09,0-1.48s-.9-.15-1.27.23a5.85,5.85,0,0,1-.64.76c-.32.26-.75.49-1.11.14s0-.71.27-1c1.25-1.37,1.26-1.38-.36-1.86-.86-.25.47-1.38-.64-1.5-.23-.12-.52-.16-.6-.46l.14-.88a.88.88,0,0,1,.12-.21c.49-.48.91.29,1.39.09-.53-.37-.9-1.12-1.74-.67l-.77.24-.12-.12c.09-1-.63-1.2-1.22-.84-1.85,1.15-3.77.67-5.68.49a4.3,4.3,0,0,0-3.65,2A6.06,6.06,0,0,1,300.52,114.07Z"/><path class="cls-7" d="M345.07,158.62c-.34,1.35-.42,2.9-2.3,3.12a7,7,0,0,1,.36-2.67c1.17-3.77,1.86-7.58.66-11.5a3,3,0,0,1,.31-2.17,17,17,0,0,0,1.07-3.83c.26-1.22.7-2.53.36-3.68-.39-1.33-2.13-.5-3-1.25-3.59-3.11-7.23-2.16-11-.26a5.12,5.12,0,0,1-3.1.78,1.9,1.9,0,0,1-1-1.2,27.32,27.32,0,0,0-1.82-9.41c-1-1.77-1-1.77-2.39.36-2.58,4.26-5.28,8.48-6.34,13.46-.28,1.38.65,1.75,1.68,2a17.76,17.76,0,0,1,10.68,6.77c1.65,2.11,4,3.44,6.23,4.93a18.52,18.52,0,0,1,3.09,2.49c1.14,1.26,2.4,2.41,3.56,3.65.29.48.68.92.56,1.55-.17.86-.62.13-.93.16a4.5,4.5,0,0,1-2.18-1.11c-2.52-2.94-5.77-4.94-8.92-7.09a12.52,12.52,0,0,1-3.49-3.16,14.08,14.08,0,0,0-9.44-5.88c-3.45-.69-3.73-1.27-3.08-4.79.49-2.65,1.71-5,2.67-7.48,1.47-2.59,3.12-5.07,4.68-7.6,1.2-1.9,2-4.08,3.91-5.49,1.5-.05,1.19.75.75,1.61a4.15,4.15,0,0,0-.79,1.33,15.57,15.57,0,0,1,.91-1.4c1.12-1.29,1.62-3.23,3.66-3.59,1.7,1.17.67,2.21-.38,2.78-1.23.67,0,.9,0,1.33a1.68,1.68,0,0,0,.33,1.93c.17-.69-.61-1.25-.14-1.84,1.29-1,2.69-2,2.36-4a.8.8,0,0,1,1.41-.14c1.9,2.12,4.54,3.08,6.92,4.45a1.34,1.34,0,0,1-.1,1.69,5.57,5.57,0,0,1-.56.43c-.5.54-1.22.74-1.75,1.24.63-.45,1.34-.78,1.95-1.26,1.93,1.32,4,.1,6,.37a1,1,0,0,1,.58.83c-.14,1-.92,1.72-1.43,2.56a7.92,7.92,0,0,0-1.55,3.87c0,1.91.58,2.36,2.44,1.77,2.52-.79,3.06.36,3.71,2.82,1.11,4.18-1.63,6.5-3.29,9.43-.77,1.29.18,2.53.27,3.54-.35.55.28.49,0,.37-.07,0-.05-.1,0-.24a1.41,1.41,0,0,1,.82-.87c1.26,0,1.31.72.88,1.6s-1,1.47-1.42,2.23a5,5,0,0,0-.89,1.42c-.13.56-.18,1.14-.33,1.7A9.13,9.13,0,0,1,345.07,158.62Z"/><path class="cls-2" d="M318,132.52c-1,2.9-2.55,5.57-2.9,8.68-.17,1.48.11,2.41,1.73,2.61a15.44,15.44,0,0,1,11.5,6.95,8.16,8.16,0,0,0,2.62,2.25c4.09,2.42,7.44,5.73,10.92,8.89-2.16,1.34-4.33-.49-6.5,0a8.52,8.52,0,0,1-3.83-2.64c-4.41-6.05-11.22-8.15-17.68-10.82-.91-.38-1.87-.65-2.8-1a9.43,9.43,0,0,1-2-3.81c0-1.47.59-2.88.13-4.42-1.13-3.7-1.06-3.72,2.09-6.26-1.25.77-2,2.16-3.5,2.66-.43,0-.57-.36-.65-.73,2.28-3.3,6.1-4.46,9.08-7l-5,2.07c1.29-1.61,3-1.78,4.13-2.92,1.27-1.06,1.53-3.41,3.89-3.1a2.71,2.71,0,0,1-.13,2.75,2.48,2.48,0,0,0-.25,2.3C319.21,130.36,317.65,131.22,318,132.52Z"/><path class="cls-8" d="M32.55,118c-.22-.77-.94-1.41-.65-2.33a5.08,5.08,0,0,1-.34-1.58A18.35,18.35,0,0,1,38.64,106c3-1.83,6.34-1.61,9.54-.12,2.33,1.21,4.08,2.89,4.45,5.65.26,1-.64,2-.22,3,1.41,3.2.85,6.78,2,10,1.57,4.36,1.24,9.15,3.1,13.43,1.49,5.42,5.6,7.94,10.56,9.48,2.13.65,3.22,3,5.7,3.21-2.75-.12-5.22.06-7.24,2-3.34.36-6.66,1.19-10,.31a5,5,0,0,1-4.63.23c-3.36-1.18-6.79-2.34-10.34-.07a5.78,5.78,0,0,1,5.77-2.27,21.88,21.88,0,0,1,6,1.74c.68.27,1.32.41,1.77-.25s-.38-.95-.68-1.36a15.53,15.53,0,0,1-3.15-7.37c-.65-4.38-3.79-7.7-6.59-11A61,61,0,0,1,39,125.07c-1.35-2.17-3.58-3.8-5-6-.41-1-.23-2.18.74-2.46s1.68.65,1.78,1.78c.09.93.43,1,.92.19,1.71-2.43,1.9-2.42,3.21.1.18.36.27.87.82.72s1.41-1.1,2-.28-.17,1.72-.59,2.52c-1,1.12-1,2.52-1.23,4,.42-1.35-.05-3,1.53-3.73.89.3.67,1,.63,1.66a10.51,10.51,0,0,0,1.39,5.92c.34-.23.22-.62.33-.91.17-.44.22-1.09.87-1s.58.72.63,1.21a12.71,12.71,0,0,1-.25,1.94c0,.33.46.08.13.11a8.25,8.25,0,0,1,.46-3.11c2.11.21,1.07,1.77,1.21,2.83-.31,1.13-.63,2.26.15,3.35.38,1.92,1.77,3.3,2.65,5a8.71,8.71,0,0,1-1-4.52c0-.38,0-.75,0-1.12a22.64,22.64,0,0,1,.84-4.4c.19-.69.48-1.64,1.42-1.44,1.13.25.87,1.3.65,2.06-.53,1.88-.93,3.79-1.44,5.66.18.09.08-.06.15-.23,2.68-6.11-.18-12-.61-18-.08-1.14-.56-2.26-.7-3.42-.43-3.76-2.59-5.79-6.24-6.39-2.88-.57-4.85.25-6.29,2.63-.45,1.58-1.78,2.49-2.77,3.65s-.91,2.46-1.34,3.7C33.75,117.74,33.64,118.54,32.55,118Z"/><path class="cls-9" d="M128.53,146.52c1.15-.3,2.55.57,3.3.16,1.41-.78,3.3-1.11,3.22-3.85-.2-6.25,1.88-12.25,3.11-18.32.85-4.19,0-8.26.25-12.37-.15-.54.13-.71.6-.75a2.39,2.39,0,0,1,1,2.16c0,4.13,1,8.2.33,12.4a73.05,73.05,0,0,0-.43,12.56c0,.25-.1.63.06.71,3,1.55,1.47,4.87,2.81,7.08.39.64.47,1.81-.52,2.11s-1.16-.72-1.52-1.36c-.87-1.5-1-3.35-2.19-4.68-1.1-.94-.84-2.64-2-3.52a9.3,9.3,0,0,0-.37,2.76,27.87,27.87,0,0,0,.5,3.87c-.07-1.38-.58-2.72-.48-4.13,0-.47-.18-1.12.34-1.31.7-.26,1,.35,1.12.92a4,4,0,0,0,.53,1.34c.33.48.35,1.11.65,1.58,1.11,1.72.08,4.58,2.21,5.48s2.4,3.53,4.42,4.41c.81.41,1.58.14,2.68,0a13.86,13.86,0,0,1-3-4.47,19,19,0,0,1-1.42-7.31c-.07-4.67-1.43-9.19-1.7-13.86a42.52,42.52,0,0,1-.23-6.47c.34-3.48-.75-6.55-2.17-9.58-.77-1.64-2.55-2.31-3.68-3.62,0-.14,0-.28,0-.42,2-.49,3.32.47,4.35,2.07,2.39,3.72,4,7.54,3.24,12.19-.65,3.82.84,7.56,1.08,11.39s1,7.42,1.18,11.16c.24,4.51,3.23,7.29,6.07,10.22.59.61,1.22.32,1.86.24,2.89-.34,5.78-.83,8.55.64.81.42,1.63-.11,2.44-.23,2.23-.34,4.47-.68,6.62.32.52.24,1.13.7.83,1.34-.43.94-.88.11-1.34-.13-2.16-1.09-4.4-.59-6.59-.15a4.42,4.42,0,0,1-3.09-.26c-2.71-1.32-5.56-.5-8.35-.15-.82.1-1.55.4-2.37-.19-1.53-1.12-3.14-1.44-4.72,0a2.08,2.08,0,0,1-.63.32c-.39-2.08-3.19-2.19-3.56-3.72-.44-1.82-.85-2.24-2.56-1.72-1.07.33-2,.05-1.33-1.37.84-1.91.33-2.36-1.53-1.55-.66.28-1.3.34-1.75-.38-1-.8-1.64,0-2.35.5-1.41,1-1.57-2-3.33-.94-1,.62-1.68,2.12-3.23,1.88-.21-.44-1.26,0-1-.94Z"/><path class="cls-10" d="M304.51,140c.3,1.92-.73,4,.68,5.8.22.28,0,.61-.22.88a62.77,62.77,0,0,1-15.9,13.78,1.32,1.32,0,0,1-.49.07c-.57-1.67-1.46-1.59-2.54-.47.67-3.21,1.3-6.44,3.43-9.1,2.88-3.54,5.21-7.59,9.31-10a6.78,6.78,0,0,1,2.4-1.2C302.27,140,303.5,138.59,304.51,140Z"/><path class="cls-11" d="M277,91.5a19.64,19.64,0,0,1,6.88-.89,5.23,5.23,0,0,0,4.77-2.06A19.58,19.58,0,0,1,294,84.11c3.45-2.08,6.07-5.14,9.09-7.71a7.45,7.45,0,0,1,4.4-2.27c-1.86,1.87-4,2.62-5.06,4.65a16.23,16.23,0,0,0,7.06.44q3.33-.47,6.68-.8c1.83-.17,2.19-1,1.14-2.4A10.45,10.45,0,0,0,315,73.79c-1.61-1.13-2.5-2.87-3.79-4.26-.31-.06-.41-.24-.3-.53,2.44-.54,2.84,1.39,3.56,2.93,6,5.31,9.28,12.26,12.05,19.55.57.58-.05,1.42.43,2,.21,1.48.39,3,.66,4.45.1.53.27,1.29,1.08,1,.6-.2.9-.56.21-1.24s.18-.81.61-.94a11,11,0,0,0,3-1.65c-.28-1.22-1.15,0-1.66-.52.12-.87.71-1.14,1.53-1,1.24.15,1.8,1,2.27,2.07s-.08,2.95,2.18,2c.32-.14.65.39.7.86s0,.93.2,1.17c1,1.1,1,1.07,0,2.12,1.21.24,2-1.25,3.28-.86.13,1.43-1.66,1.25-1.91,2.5l5.39-1.9c.58.33.44,1.1.91,1.5.69.44,1.55.88.36,1.68-.7.47-1.23,1.28-2.22,1.27-1.18-.26-2.46.32-3.61-.39.45.34,1.1.41,1.32,1a2,2,0,0,1-.64,2c-1.15.57-1.8-.29-2.53-.9-1.48-1.28-2.55-2.94-4-4.26-1.1-1.21-2.73-1.3-4.12-1.92-2.94-.26-4.29-2.09-4.34-4.83-.1-5.67-3.12-10.24-5.37-15.13-1-2.25-2.81-1.53-4.5-1.38-2.19-.19-4.3.72-6.49.52-2-.06-4,.12-6-.1a4.55,4.55,0,0,0-4.24,1.53,22,22,0,0,1-2.27,1.93c-1.3,1-2.74,1.86-4.13,2.77-1.21.78-1.18.8-1.15,2.1A1.72,1.72,0,0,1,291,90a5.93,5.93,0,0,1-2.69,2.15c-3.77,1.13-7.56,1.74-11.34,0A.56.56,0,0,1,277,91.5Z"/><path class="cls-12" d="M113.48,50.54c-.42,2.38,1.84,3.56,2.46,5.47a.88.88,0,0,1,.35.91c-.69,2.13.81,1.95,2.11,2a2.28,2.28,0,0,1,.65,2.27c-.12,1.4-.84,1.68-2,1a7,7,0,0,1-2.52-2c-1.55-2.45-4-3.65-6.38-5s-2.56-1.67-.9-4c1.52-2.15,2-4.85,3.58-6.95a7.61,7.61,0,0,0,5-4.6c.48-1.1,1.73-1.17,2.87-.84a20.7,20.7,0,0,0,4.88,1,1.77,1.77,0,0,1,1.87,1.36,2,2,0,0,1-.93,2.36,5.58,5.58,0,0,0-1.76,4.71c.27,1-.07,1.68-1.27,1.42a10.14,10.14,0,0,0-2.18-.17c1,.3,3.12-.63,2.18,2-2.55,3.28-4.87,2.64-7.63-2.08A1.24,1.24,0,0,1,113.48,50.54Z"/><path class="cls-13" d="M113,151.42c-2.32-2.8-5.15-5.17-6.82-8.51-.32-.66-1.23-1.07-1.92-1.51-2.18-1.4-4.3-2.85-5.57-5.22a3.77,3.77,0,0,0-2-1.79c-5-1.67-7.62-5.65-10.13-9.81-1.47-.83-2-2.49-3.11-3.61-2.81-5.59-7.25-9.8-11.76-14-1-.18-1.77,1-2.85.61h-.18l-.15.12a27.89,27.89,0,0,1-5,4.27c-1.17.87-2.3,1.57-.86,3.34.56.7.09,2.22.09,3.82,3.24-2.94,5.85,1.77,8.64-.35.48,1-.4,1.11-.58,1.5.89.62,1.87-1.09,2.58.3a5.89,5.89,0,0,1-.73.52c-1.42,1.33-3.32,1.76-5,2.62-.62.34-1.41-.5-2,.28a1.67,1.67,0,0,1-1.21.9c-2.34-1.83-4.63-3.71-6-6.43a2.34,2.34,0,0,1-.44-1,4.65,4.65,0,0,1,1.51-3.17,12.46,12.46,0,0,0,1.63-2.19,29.13,29.13,0,0,1,9.15-7.39A1,1,0,0,1,71,105c3,2.78,5.43,6.2,9.36,7.93A5.59,5.59,0,0,1,84,117.55c-.81.48-1.2,0-1.53-.66A13.65,13.65,0,0,0,81,114.74a19.18,19.18,0,0,1,2.42,3.91c2.4,3.06,4.78,6.13,6.94,9.36a11.93,11.93,0,0,0,5.08,4.28,10.47,10.47,0,0,1,5,4.25c1.07,1.84,2.92,2.91,4.74,3.91a6.48,6.48,0,0,1,3.18,3.59,18.16,18.16,0,0,1,5.12,5.87,3.57,3.57,0,0,1,.3.38c.38.7,2,.91,1.26,1.91C114.44,153,113.83,151.45,113,151.42Z"/><path class="cls-14" d="M77.81,66.57c-6.25.26-11.45-2.55-16.22-6-2.56-1.88-5-3.83-7.94-5.05-.84-.35-1.58-.86-2.31.32-.47.77-1.35.9-2.39.07,1.95-.69,2.28-2,1.69-3.76-.12-.34-.25-.66-.64-.51a1.2,1.2,0,0,0-.66.63c-.12.37,1.19,1-.14,1.17a2.31,2.31,0,0,1-2.07-1.19c-.49-.74.47-.92.87-1.2.83-.56,1.53-1.61,2.83-.74,1,.67,1.09-.3,1.17-.9.16-1.22.21-2.45.32-3.75-1.19.4-2,1.35-3.22,1.49-.43,0-1,.27-.88.7.49,3.08-2,2.86-3.76,3.55a4.09,4.09,0,0,1-4.78-1.08c-1.35-1.45-2-1.4-2.46.58C36.54,53.6,34.3,53.93,32,54a19.55,19.55,0,0,0-1.12-8.34c-1.41-4,.39-6.72,2.9-9.31,3-3.12,8.31-3.57,12.14-1.39,2.14,1.22,4.58,1.92,6.79,3,3.64,1.81,3.86,3.2,1.09,6.15a2.38,2.38,0,0,0-.69,1.72c-.08,2,.39,4.15-1.27,5.91a1.25,1.25,0,0,0,.52,1.91c5.62,1.79,9.34,6.59,14.54,9A34.89,34.89,0,0,0,80,66C79.54,67.34,78.58,66.58,77.81,66.57Z"/><path class="cls-15" d="M360.57,108.12c2-2,3.17-4.64,4.93-6.83.89-1.11.38-2.16-.46-3.12a113,113,0,0,1-7.28-9.73,5.28,5.28,0,0,1,.69-6.62c-1.54,4.64,1.05,7.89,3.74,11.1,1.29,1.53,2.52,3.1,3.87,4.58a3.51,3.51,0,0,1,.29,4.78c-1.92,2.81-4,5.56-5.9,8.35A9.1,9.1,0,0,1,357,113.4c-3.55,1.84-3.75,5.49-3.89,8.62-.07,1.61,2.21,3.29,2.57,5.39.06.39.55.78.48,1.09-.86,3.69.61,7.27.48,10.89s-2.16,6.44-3.48,9.55c-1.79,4.21-4,8.22-5.27,12.66-.14.51-.26,1.17-1.25,1.36-.28-1.36.41-2.52.7-3.71s.79-2.51,1.2-3.77c-.25-.5,0-.94.19-1.38,1.75-3.86,3.57-7.69,5.2-11.61a10.58,10.58,0,0,0,.61-6.8,8.26,8.26,0,0,1-.51-2.93c.11-.84,0-1-.9-1.23-1.23-.34-.78-1.5-.26-2.27a3.71,3.71,0,0,0,.3-3.78A4,4,0,0,0,352,123.9c-.52-.5-1.66-.32-1.6-1.45,1.23-1,1.08-2.52,1.66-4a7.79,7.79,0,0,1-4.64,2.12,10.73,10.73,0,0,1-5.94-1.42,45.79,45.79,0,0,0-6.41-2.61,3.6,3.6,0,0,0-3.09.06.92.92,0,0,1-.85-.64,2.6,2.6,0,0,1,1-2.83c.43-.34.9-.38,1.12.3.78,1.13,2.13.71,3.17,1.15a2.31,2.31,0,0,1,1.09.86,22.19,22.19,0,0,1,4.78,2.06c3.61,2.13,6.62,1.8,9.31-1.35,2.11-2.5,5-3.74,7.48-5.68A4.22,4.22,0,0,1,360.57,108.12Z"/><path class="cls-16" d="M121,51.5c.77-1.35,0-1.48-1.11-1.49-.87,0-2.22.38-2.42-.67s.78-1.16,1.67-.66a3.66,3.66,0,0,0,.94.28c.24.06.5,0,.73.13.56.18,1.16.89,1.65-.07s-.61-.9-1-1.29-1.86-.29-1.28-1.36,1.39,0,2.09.4c.55-1.55-.7-3.91,2.24-4,.7,0,.47-1.15.45-1.76,0-.88-1.35-.92-1.48-.87-1.87.7-3.49-.29-5.11-.76-1.4-.41-2-.14-2.43,1.15-.1.32-.3.6-.4.92-.67,2.2-2.28,3-4.44,3a.9.9,0,0,1-1.18.62,5.26,5.26,0,0,1-1.3-3.67,1.46,1.46,0,0,1,1-1.55,1.24,1.24,0,0,1,1.35.4c2.2,2.08,2.2,2.08,3.65-1.13-.84.86-1,2.26-2.25,2.07s-1.56-1.38-2-2.35c-.72-1.66-.49-3.44-.56-5.18,0-.49,0-1.13-.56-1.27-.78-.21-1,.54-1.13,1-.56,1.84-1,3.67-.27,5.61a5.44,5.44,0,0,1,.31,4.35c-.59.47-.87.07-1.14-.39-.24-2.69-1.57-5.17-1-8,.65-3.5,3-5.57,5.57-7.5A15.82,15.82,0,0,1,117,26.11c1.84-1.37,4,.24,5.91-.65a.54.54,0,0,1,.77.4c.12.54-.32.72-.64.94-1.8,1.21-2.06,1.91.47,2.52,1.72.41,3.8,1,3.29,3.68,0,.19.19.45.35.65,2.05,2.58,1.35,4.9-.74,7a4,4,0,0,0-.81,3.23c.37,3.65-2.13,5.7-3.91,8.18C121.12,52.22,120.9,52.05,121,51.5Z"/><path class="cls-17" d="M107.06,43l.86.49c.76.43,1.43,1,2.14,1.5l1-.55.44.82c-3.23,1.71-2.27,6.22-6,8.1,5.47,1.73,8.72,5.67,12.84,9.46-.1-1.69.3-2.74-.31-3.78-1.19-.2-2.23-.55-2.11-2.08,0-.32,0-.64,0-1,3.07,2.28,6.72,3.81,9.08,7,1.27,1.71,3.72,2.23,4.45,4.47-1,.86-1.73.1-2.46-.36a18.05,18.05,0,0,1-4.23-3.86,5.88,5.88,0,0,0-2.28-1.89,5.47,5.47,0,0,0,4.09,5.49c1.66.5,3.43.68,5,1.57,1.44,1.13,3.28,1.07,4.89,1.65,6.17,2.22,12.27,4.64,18.38,7A5,5,0,0,1,154,78c.08.51-.25.66-.65.73a106.4,106.4,0,0,1-12.88-4.67c-4.49-2.11-9.3-3-14-4.35a17.59,17.59,0,0,1-7.28-3.94c-3.84-3.39-7.27-7.33-11.86-9.82a6,6,0,0,0-8.78,3.22,31.64,31.64,0,0,0-1.73,8c-.18,1.49.49,2,1.91,1.65s2.57-.69,3.85-1c.82-.24,1.86-.66,2,.82-1.92,2.2-7.25,3.59-9.34,2.42.09-2.25-.21-4.51.17-6.75a19.73,19.73,0,0,1,2.46-7.52,4.54,4.54,0,0,1,3.5-2.56,8.13,8.13,0,0,0,5.45-3.61c1.21-1.65,2.55-3.35.63-5.48C107.05,44.69,107.18,43.74,107.06,43Z"/><path class="cls-18" d="M297.57,49.53c-1.15,1.75-.7,4.4-3.05,5.48-.35.32-.07,1.28-1,1-.65-.37-.85-.92-.2-1.35,3.19-2.15,3.55-5.29,3.22-8.71,1.73-1.82,3-1.72,4.25.35.48.78.75,1.66,1.26,2.51.46-.82-.82-2.64,1.36-2.38,1.18,1.29,3,1.41,4.37,1.43,3.18.06,4.31,2.06,5.25,4.44,1.24,3.12,1.28,6.5,2,9.74,0,1.3,0,1.32-1.67.68a2,2,0,0,1-.71-1.74c0-3.74-.62-7.31-2.85-10.5-.21,4.06.52,8.21-1.77,11.91a8,8,0,0,0-.83,3.33c.06,1.17-.67,1.4-1.63.73a3.71,3.71,0,0,0-.68-.69c-.84-.47-2.88,0-2.55-.44.93-1.19-.19-3.57,2.32-3.86,1-.12,2.34-.37,1.12-2.51-.94-1.63-.82-4.15-1.31-6.25-.18-.75-.24-1.55-1.58-1.18-1.49.41-2-1.15-2.78-2.05C299.24,49.14,298.39,48.6,297.57,49.53Z"/><path class="cls-19" d="M49.92,95.88c4.07-1.74,8.52-2.38,12.15-5.45C63.89,88.89,66.54,87.9,69,87c.38-.28.89-.3,1,.08.35.92-.36,1.46-1,2-1.67,1.18-4.36,1.42-3.89,4.58-1.12-2.27-1.9-1.14-2.68,0l-.18.32c-2.43,2-5.1,3.66-7.51,5.71a10.12,10.12,0,0,1-7.65,2.29,12.31,12.31,0,0,1-4.07-3,17.11,17.11,0,0,0-5.34-4.37c-3.82-2.3-7.85-4.3-10.93-7.67A8,8,0,0,1,25.63,85c-.27-.84-.65-1.74.8-1.85a1.09,1.09,0,0,1,.62.36c.4,2.24,2.2,3.38,3.77,4.64,3.63,2.91,8.1,4.58,11.61,7.69,1.36,1.2,2.38,2.78,4.06,3.65s4,.56,4.47-.79c0,0,0-.2-.09-.21a1.73,1.73,0,0,0-.4,0C48.77,97.94,49.74,96.82,49.92,95.88Z"/><path class="cls-20" d="M64.52,124.93l.84-.92c1.45.25,2.11,2.65,3.9,1.5-.16,0,.32,0,.17,0-1,0-2.21.48-2.62-1-.09-.34.26-.57.58-.7a15.87,15.87,0,0,1,6.14-2.18c.33,0,.71-.16,1,0,.43.23.15.61-.11.75-.65.34-1.33.59-2.16.95a4.34,4.34,0,0,0,.6.2c1,.15,2.61-1.07,2.9,0,.37,1.34-1.59,1.24-2.48,1.84a15.06,15.06,0,0,1-2,.89c1.21.6,2.18,0,3.15,0,.62,0,1.49-.39,1.71.5.17.69-.65.84-1.13,1.13s-.93.54-1.79,1c1.39.42,2.37,0,3.28.19.74.1,2.62-1.46,2.15,1.19-.1.55,1,.12,1.45.27,1.25.37,3.39-1.16,3.52,1.79,0,.45,1.83.89,2.86,1.2,1.42.42,2.88.71,5.14,1.25-2.21.22-1.6,2.18-3.1,2.35.64.88,1.94.56,2.19,1.7-.72.74-1.13-.31-1.71-.32-1.71-.65-3.57-.73-5.27-1.42a25.31,25.31,0,0,0-5.85-4.44c-.52-.37-1,.29-1.54,0l-.68-.16c-1.57-.57-3-1.48-4.62-1.92A18,18,0,0,1,64.52,124.93Z"/><path class="cls-21" d="M27.05,83.52h-.49c-.91-.53-1.93-.91-2.29-1.61.95.58.76,2.26,1.93,3.13l.8,1.41a14.13,14.13,0,0,1,3.14,7.68c.53,4.81,3.07,6.15,8,6,1.4,0,2.75-.61,4.17-.73,1,.13,2.09.11,1.82,1.63a14.06,14.06,0,0,1-10.28,1c-1.26-.43-2.79-.42-3.36-2a10.3,10.3,0,0,1-2.15-5.45c-.48-3.78-2.41-7.06-4.52-10.14a18.85,18.85,0,0,1-3.07-13,6.28,6.28,0,0,1,1.93-3.93C24.15,66,25.54,64.48,27,63c.5-.13.68.06.56.55l-4.49,5c-2.14,2.38-2.13,7.88.07,10.24.82-.85-.92-1.31-.22-2.25a25.76,25.76,0,0,0,4.8,4.21,9.68,9.68,0,0,0,5.7,1.42c.57,0,1.51-.58,1.63.44.08.72-.77,1.06-1.4,1.2A13.07,13.07,0,0,1,27.05,83.52Z"/><path class="cls-22" d="M293.61,62.86c2.24.2,4.29-.82,6.57-1-.9,1.05-2.17,1.2-3.62,1.78,1.58.89.29,3.76,3.27,3.68.59,0-.57.64-.7,1.11-.46,2-2.26,3-3.33,4.57-.79,4.68-5.45,6.22-7.81,9.63a11.23,11.23,0,0,1-9.17,5.13c-1.94.11-3.82,1.12-5.73,1.7a13.42,13.42,0,0,1-7.14.3c-3.15-.76-6.09-.75-8,2.93,2.76-.36,2.79,3.61,5.6,3.25-.77,1.53-1.64,1.77-2.73.26-.9-1.26-1.75-2.57-3.47-2.91-.53-.1-.58-.74-.48-1.27-.76-.72-1.84,0-2.62-.57a1.76,1.76,0,0,1-.49-.49,1,1,0,0,1,.16-1c3.55-.46,7.09-2,10.59-1.4,4.35.72,8.21-.28,12.16-1.58a6.9,6.9,0,0,1,2.16-.59c3.91.09,6.22-2.54,8.82-4.87,3.92-3.52,6.74-7.81,9.41-12.25,1-1.7-.92-4.77-3.7-5.81l-.23-.09Z"/><path class="cls-23" d="M97.05,113.43c5.17-2.31,9-6.26,12.46-10.55.73-.89,1.36-1.84,2-2.77L113,98.49c.5-.1.75.08.67.61-3.64,4.35-6.42,9.48-11.89,12.52,3.73,1.28,7.08,2.59,10.73,2.76,2.62.59,5.4.23,8,1.23a19.6,19.6,0,0,1,7.43,1.77c1.31.69,2.07-1.55,3.57-.34-2.16.91-1.76,2.76-1.88,4.52-.28,3.89-.8,7.76-1.07,11.65a37.36,37.36,0,0,0,.45,9.44c.17.93.78,2.26-1,2.42a67,67,0,0,1-.37-16.26c.22-2.73.56-5.44.89-8.16a2.24,2.24,0,0,0-1.82-2.76,23,23,0,0,0-5.33-1.17,57.37,57.37,0,0,1-17.7-3.62c-1.52-.58-2.94-1.08-4.2.61C98.64,114.73,97.78,114,97.05,113.43Z"/><path class="cls-24" d="M167.45,81.51c7.54,1,15.07,2.06,22.62,3,10.2,1.24,20.42,2.09,30.7,2.45a19.89,19.89,0,0,1,6.33,1c-1.15,1-2.55.64-3.8.52-2.48-.23-5-.15-7.42-.2-2.88-1.17-5.9-.62-8.86-.74-1.75,0-3.51,0-5.26,0-4.65-1.3-9.47-1.26-14.21-1.83a4.41,4.41,0,0,0-1.52.29c-6.9-1.58-14.09-.9-21-2.84a36.58,36.58,0,0,1,8,.39c-2-1.43-4.24-.56-6.09-1.53C166.91,81.55,167.06,81.41,167.45,81.51Z"/><path class="cls-25" d="M90.6,141a1,1,0,0,1,1.57-.94,5.87,5.87,0,0,1,2.52,3.5c0,.21,0,.47.25.39,1.72-.46,2.7,1.58,4.58,1.17,1.28-.27,2.34.9,3.22,2.15a7.33,7.33,0,0,0,3.55,2.57,7.28,7.28,0,0,1,4.21,3.5,2.52,2.52,0,0,1-2.45-.75c-2.85-1-5.26-2.9-8.13-3.85a17.35,17.35,0,0,1,3.06,1.41c.6.4,1.69.69,1,1.85-5.43-1.56-10.17-4.19-13.58-8.86C90.09,142.37,91.14,141.73,90.6,141Z"/><path class="cls-26" d="M313,61.09l.52,1.4c.44,1.6,2.31.43,3,1.55.59.68.78,1.76,1.89,1.94,1.76,1.87,1.69,2.9-.34,5a3,3,0,0,1-3.06.46c-.71-.4-.91-.9,0-1.09s1.63-.3,2.07-1.15c.23-.24-.35-.34-.07-.16.1,0,0,.11,0,.24a1.68,1.68,0,0,1-1.39.94c-.54,0-1.24.36-1.58-.3s.19-.93.61-1.19a3,3,0,0,0,1.15-2.15,2.74,2.74,0,0,1-1.89,2.38,4.45,4.45,0,0,1-3.32-.74c-2.12-1.06-3.7-2.42-2.95-5.12.62-1.5,1.87-2.74,1.87-4.51,0-.64-.05-1.52.8-1.59A1.89,1.89,0,0,1,312.37,58C312.72,59,313.35,60,313,61.09Z"/><path class="cls-27" d="M112,96.45c-2.61-3.45-6.77-4-10.86-5.39,1.68-1.17,2.82-.08,4-.17a1,1,0,0,0,0-.37c-.6-1.09-2.79-1-2.48-2.4s2.29-1.26,3.37-1.51c1.38-.31,2.55-1.46,4.14-1.1s.24-1.08.87-1.68c.88-.82,1.2-2.14,2.8-2.16.42,0,.18-.72.22-1.11a2.69,2.69,0,0,1,1.64-1.33c.52,0,1,.1.92.79-1,1.6-1.74,3.5-3.09,4.71-2.2,2-2.5,4.15-1.87,6.74,1.38,1.59,1.16,3.29.32,5Z"/><path class="cls-28" d="M352,71.12c-2,.1-2.81-1.6-4.12-2.54,0-1-.84-1.35-1.4-1.92s-.52-1.43.12-1.2c2.41.84,4.68-1.26,6.92-.23,2.77,1.27,5.44,2.77,8.12,4.23.55.3-.25.68-.16,1.06l-.17.29a3.09,3.09,0,0,0-1.61,3.58c-.4,1.43-.79,2.87-2.82,2.18-1.45-.39-1.09-1.43-.73-2.32A16.25,16.25,0,0,1,357.47,72a.92.92,0,0,1,.09-.23.9.9,0,0,1,.15-.19c-.39-.25-.8,0-1.19,0-1.34.07-2.68-.08-2.78-1.71s1.56-1,2.45-1.43a5.09,5.09,0,0,0-2.9-1.3c-.89-.09-2-.25-2.35.82s.76,1.25,1.53,1.52c.62.21,1.43.37,1.18,1.26S352.65,71.35,352,71.12Z"/><path class="cls-29" d="M163,83.94c-.09.83,1.61,1,.83,2s-1.58-.15-2.1,0c-2.54.62-5-.74-7.58,0-1.74.48-3.53-1.05-5.25-1.79.57-1.38,2-1.54,3.08-2.29.36-.77.74,2.5,1.21,0,.19-1,.88-1,2,0,.2-.85-.59-1.51-.44-2.35.7-1.19,1.34-.42,2,0,.53.17.17,1.19,1.05,1,1.91-.31,1.51,1.58,2.25,2.38l.39.5a1.48,1.48,0,0,0,1.4.39A6.83,6.83,0,0,1,163,83.94Z"/><path class="cls-13" d="M69,89c-.14-.68,1.68-1.41-.06-2a10.57,10.57,0,0,1,2.91-1.66c.88-.18,2.57-2.28,2.9.64,0,.4.57.48,1,.51,2.15.15,3.13-1.77,4.66-2.69.51-.3-.26-1-.68-1.34-1-.7-2.11-1.28-3.17-1.91a2.12,2.12,0,0,1-1.76-1.18.72.72,0,0,1,.35-.64c3.92-1,5.72,2.11,8,4.21A1.17,1.17,0,0,1,83,84c-2.12,1.25-4,2.71-6.51,3.47S71.4,88,69,89Z"/><path class="cls-30" d="M152,82.14c-.65,1.25-2,1.44-3.09,2-1.05-1-2.36-.45-3.56-.59-9.33-1-18.64-2.2-27.92-3.63-.49-.53-1.57-.84-.71-1.88a1.16,1.16,0,0,1,.67-.24,10.12,10.12,0,0,1,2.23.44c4.63.46,9.17,1.58,13.76,2.21,5,.69,10,1.84,15.1,1.33.59-.07,1.22.24,1.8-.14C151,81.5,151.61,81.44,152,82.14Z"/><path class="cls-31" d="M215.52,88l11.58,0L236.5,89a77.91,77.91,0,0,0,8.49.81c3.12.35,6.21.91,9.32,1.3a3.52,3.52,0,0,0,2.81.1c.38-.21.65,0,.37.41a2,2,0,0,1-.58.41c-6.36,1.15-12.5-.74-18.67-1.57-7.57-1-15.16-1.39-22.74-2.06a.27.27,0,0,1-.1-.31C215.44,88,215.48,88,215.52,88Z"/><path class="cls-32" d="M95.61,83.58c.47,1.61-.38,2.64-1.38,3.79a14,14,0,0,0-2.75,4.85,14.93,14.93,0,0,0-1.09,8.29c.77,4.27,3.73,7.22,6.2,10.51C93.2,109.79,92,106.48,90,104c-2.75-6.56-.35-12.14,3.31-17.49,1.18-1.63.68-3.8,1.74-5.61C96.19,81.69,95.62,82.69,95.61,83.58Z"/><path class="cls-33" d="M347.22,69c1.6.65.25,1.5,0,2.11-.55,1.6-1.15,3,.81,4.19.84.5.75.91-.51,1.28a1.86,1.86,0,0,0-1.46,2.21c0,1.41.05,2.82.07,4.23,0,2.38.71,2.95,3,2.46a7.5,7.5,0,0,0,3.32-1.63c.39-.33.85-.66,1.27-.13.54.68-.09,1-.51,1.37s-1.82.29-1.76,1.52c-.88,1.88-2.62,2-4.34,2.13-.54-1.89-2.13-2.72-3.68-3.59a.51.51,0,0,1,0-.62c1.5,0,1.6-.92,1.62-2.12C345.18,77.83,345.29,73.27,347.22,69Z"/><path class="cls-34" d="M95.43,64.33l.07,7.16A50.78,50.78,0,0,1,112.15,76c.46.23.91.41,1,1-.07.92-.74,1-1.46,1.08A3.36,3.36,0,0,1,109,76.54c-3-2.06-6.59-2.1-10-2.79C93.18,72.56,87.93,70,82.7,67.31c-.24-.12-.32-.55-.47-.83,3.4.59,6.06,3,9.34,3.87,1.09.3,2,1.15,3.33,1.08C95.25,69.06,94.67,66.63,95.43,64.33Z"/><path class="cls-35" d="M277,91.5l0,.61c-.6,1.63-2.65.84-3.47,2.09,0,0,.05.14.11.2a.48.48,0,0,0,.21.12c3.26.91,6.59,1.39,9.81,2.4,1.15.43,2.38.58,3.54,1,.78.28,1.87.33,1.77,1.62v-.08a5,5,0,0,1-4.72-.66c-3.36-2-6.51-.12-9.65.24-2.61.29-3.48,0-3.62-3a10.07,10.07,0,0,0,5.42,1.23c-2.32.22-4-1.19-5.94-2.12a2.3,2.3,0,0,1-.45,0c-.19-1.67,1.38-1.34,2.17-1.82A11,11,0,0,1,277,91.5Z"/><path class="cls-36" d="M274.43,159.05c-.7-.27-1.36-.6-1.95.26-.46.66-.94.47-1.34-.17-1.16-1.85-2-.88-2.63.4s-1.39,1.81-2.92,1.17c-2-.85-3.79-.74-4.28,2-.17,1-.69,1.31-1.77,1.12-2.64-.47-5.41-1.52-7.65,1.07-.08.1-.48.05-.62-.07-.31-.26-.15-.61,0-.88a3.82,3.82,0,0,1,2.65-1.7,9.45,9.45,0,0,1,4.2.14c1.28.29,2,.25,2.56-1.29.76-2.12,2.67-2.32,4.57-1.57,1.18.46,1.85.47,2.53-.82.77-1.46,1.93-2.11,3.68-.9.93.64,2.54-.64,3.5.75C275,159,274.94,159.23,274.43,159.05Z"/><path class="cls-37" d="M129.56,68.43c-2.59-.47-5.37-.33-7.5-2.25-1.76-1.6-3.26-3.33-2.27-6.1a10.26,10.26,0,0,1,4,3.4c1.52,1.84,3.18,3.54,5.69,4Z"/><path class="cls-38" d="M90.6,141c.45.08,1.12-.1,1.18.55.09.9-1.07.9-1.34,1.59-2.11-2.66-5.08-4.13-8-5.71-2.32-1.27-4.62-2.55-6.15-4.81.54-.26.53-2,1.68-.65,1.32,2.43,3.67,3.5,6,4.55.27.18.67.58.78.51,2-1.34,2.88.69,4.17,1.42-.5.44-1.15.42-2.33.55C88.4,139.58,89.17,140.82,90.6,141Z"/><path class="cls-39" d="M138.93,111.51l-.52.63c-6-4.23-11.55-9.18-18.36-12.22,0-.93.49-.66,1-.44,3.72,2.12,7.74,3.76,11.13,6.39,1.22.95,3.17.39,3.84,2.14h0c-.68,1,.4.92.8,1.27C137.59,110,139.11,109.94,138.93,111.51Z"/><path class="cls-40" d="M201.33,86.92l5.78.14c1.36.41,2.76.08,4.13.21.5,0,1.24-.28,1.27.67a103.7,103.7,0,0,1-26.48-2l1-.44a65.72,65.72,0,0,1,10.85.88C199,86.53,200.2,86.67,201.33,86.92Z"/><path class="cls-41" d="M32.55,118c1.41-.49,1.15-1.8,1.24-2.81A2.38,2.38,0,0,1,35,113c.66-.14,1.13-1.19,1.94-.55s.46,1.3.09,2c0,.07-.59.35,0,.35,3.13,0,1.8,1.55,1.07,2.9-.2.38-.39.72-.17,1.14-.16.77-.47,1.47-1.39,1.28a1,1,0,0,1-.77-1.11c.16-.77.67-1.77-.65-1.81-1.09,0-.75,1.21-1.11,1.85Z"/><path class="cls-42" d="M358.4,81.17c-1.18-.25-.66-.7-.22-1.28s1.88-1,.95-2.32c-.59.2-.82-.2-.61-.58.58-1.06.66-2.33,1.46-3.28.57-1,.71-2.32,1.54-3.25l0,.06c1.59,2.13,1.43,5.63-.48,8.08A28.68,28.68,0,0,1,358.4,81.17Z"/><path class="cls-43" d="M343.5,84.52l0,.5c.1.94-.64.87-1.21,1l-.3,0c-2.91,1.69-6.39.57-9.37,2-2.56,1.19-4.93,2.55-5.71,5.56a2.26,2.26,0,0,1-.43-2,14.64,14.64,0,0,1,12.05-5.59C340.32,85.9,341.72,84.49,343.5,84.52Z"/><path class="cls-44" d="M57.47,138c-2-2.78-2.53-5.95-2.57-9.29a34.44,34.44,0,0,0-.52-4.14C56.25,128.83,58.12,133.12,57.47,138Z"/><path class="cls-45" d="M245.09,90.42c-3,.2-5.78-.64-8.59-1.42,5.81.44,11.7-.37,17.46,1L254,91c-2.31.54-4.45-.73-6.74-.64A5.43,5.43,0,0,0,245.09,90.42Z"/><path class="cls-46" d="M293.5,56l1-1c.17.25.29.65.53.74,1.33.49,3,1.3,2.55,2.64s-1.48,3-3.55,2.77C292.72,59.57,294.85,57.6,293.5,56Z"/><path class="cls-47" d="M303.39,46.43c-1.88,1.25.13,2.64-.12,4.12-1.85-.4-2.1-1.94-2.62-3.27-.93-2.36-1.93-2.67-4.13-1.33,1-2.06,2.69-2.61,4.66-1.38A20.52,20.52,0,0,1,303.39,46.43Z"/><path class="cls-48" d="M311.06,67.88c3,1.53,4,.79,4.24-3.15,1.66,1.81,1.35,3.24-1.06,5,2.16.08,2.23,0,3.16-2.33.54,1.94,0,3-1.76,3.13-.77.07-1.14,0-.64.88l-.54.52c-1.34-.69-1.6-2.6-3.31-2.87A.74.74,0,0,1,311.06,67.88Z"/><path class="cls-49" d="M71,105l-.23,0-.23,0c-2.16-1.51-4.23-3.09-5.08-5.79a12.62,12.62,0,0,0-2-3.09c-.53-.79-1.38-1.48-1-2.63l0,.07c2.42.62,3.41,2.82,4.3,4.64a10,10,0,0,0,3.41,4.35C70.87,103,72.11,103.72,71,105Z"/><path class="cls-50" d="M121,51.5l.64.57c-1.18.52-1,2.81-2.73,2.38-2.25-.56-4.34-1.61-5.43-3.91.34-1-1.15-1.73-.35-2.79,1.09.06,1.27,1,1.49,1.73a5.47,5.47,0,0,0,2.92,3.16C119.32,53.67,120.28,53.2,121,51.5Z"/><path class="cls-51" d="M32,114.21l-.12,1.46c-2-1.54-2.28-3.87-2.57-6.13A17.58,17.58,0,0,1,30,101c1.17-.07,1.17-.07,1.12,1.73C30,106.68,31.39,110.42,32,114.21Z"/><path class="cls-52" d="M156.55,80c-.56,0-.68-1.46-1.55-.47-.86.25-1.45,0-1.56-.95L154,78c2.72.48,5.57.42,8,2,.51.54,1.42.32,1.88,1,.18.34,0,.47-.3.54A18.5,18.5,0,0,1,161.75,83c-.52.41-1,1.13-1.78.49l0,0C159.26,82,159.42,79.49,156.55,80Z"/><path class="cls-53" d="M95.61,83.58l-.25-2.34c-.94,1.78-.23,4-2,5.23.23-1.09.49-2.18.67-3.27.12-.75.46-1.7-.92-1.64-.53.24-.67-.07-.71-.51a3.26,3.26,0,0,1,2-1c1-.15,2.08-.42,3.13-.58.34,0,.69,0,1,0,1,.38,2,.7,3,1.15.48.23.71.7,0,1.08-.47-.16-.92-.35-1.39-.49C97,80.29,96.4,80.6,95.61,83.58Z"/><path class="cls-54" d="M104,152c0-1.4-1.38-1.19-2.14-1.68-1-.67-2.15-1.25-3.2-1.9a1.12,1.12,0,0,1-.44-.94c1.61,1.71,4.45.59,5.83,2.83.38.61,1.17.52,1.8.71.89.27,2.08.18,2.18,1.57Z"/><path class="cls-55" d="M349,154.73l-.48.75c-1.73.41-1.31,3.18-3.44,3.14A6.38,6.38,0,0,1,346,155c1-.7,1-.91.14-1.87l1-1.17C349.37,152,349.49,152.16,349,154.73Z"/><path class="cls-56" d="M56.46,152.93c.94-.76,2-.47,3-.33,1.64.22,3.25,1.12,4.8-.46.7-.72,1.32.81,2.18.48a30,30,0,0,1-7.72,1.52A2.86,2.86,0,0,1,56.46,152.93Z"/><path class="cls-57" d="M270.48,95.1A44.63,44.63,0,0,0,279,97.25c-1.62,1-2.89.42-4,.61-.65.1-1.35-1-2.05.25-.26.46-.7-.34-.8-.73-.16-.64.22-1.63-1.07-1.39Z"/><path class="cls-58" d="M92.56,81.08l.54.48C89.9,83,86.32,83,83,84l-.09-.92A13.75,13.75,0,0,1,92.56,81.08Z"/><path class="cls-59" d="M27.53,63.53,27,63c2.23-2.7,3.29-6,5-9A16,16,0,0,1,27.53,63.53Z"/><path class="cls-60" d="M113.48,149.91a33.29,33.29,0,0,1-5.12-5.87C111.89,144.41,112.56,147.27,113.48,149.91Z"/><path class="cls-61" d="M58.47,117.45l0,1c-2.26-.9-3.25-3.21-5.09-4.6-1.13-.86-.92,0-1,.62-.92-.94-.47-2-.34-3.1C55,112.63,56.7,115.05,58.47,117.45Z"/><path class="cls-62" d="M163.88,81A1.52,1.52,0,0,1,162,80a14.56,14.56,0,0,0,4.42,0c1.38-.21,1.67.32,1,1.49l-.43.43C165.6,82.84,165,81.18,163.88,81Z"/><path class="cls-63" d="M111.47,77.55c.57-.11,1.25.11,1.59-.6a10.31,10.31,0,0,1,3.86,1c-.54.85.66,1.24.53,2l-.85.13a1.07,1.07,0,0,0-1-.5c-1.18.71-2.33.09-3.63.1.42-1.41,1.62-.49,2.2-1,.32-.07-.08-.47.06-.17.06.12,0,.2-.13.21C113,78.67,111.75,79.34,111.47,77.55Z"/><path class="cls-64" d="M318.05,71c.87-1.6,1.4-3.23.34-5a2.43,2.43,0,0,1,2.37,2.63C320.7,70.09,319.53,70.82,318.05,71Z"/><path class="cls-65" d="M121,99.48l-1,.44a11.17,11.17,0,0,1-4.47-1.39c-.88-.48-1.52-.42-1.92.57l-.67-.61c.3-.67.2-1.7,1.54-1.19C116.67,98.11,118.86,98.76,121,99.48Z"/><path class="cls-66" d="M117,26.11c-1.73.69-3.33,1.87-5.36,1.37C112.88,25.07,114.9,25.53,117,26.11Z"/><path class="cls-31" d="M124.52,148.55l1,.94c-1.78.07-3,1.42-4.46,2.08-.37.16-.82.45-1.12,0-.44-.67.22-.86.62-1C121.9,149.94,123,148.82,124.52,148.55Z"/><path class="cls-67" d="M212.51,87.94c-1.67-1.12-3.74.21-5.41-.88,2.82.24,5.77-.88,8.42.89a3.39,3.39,0,0,0,0,.45C214.41,88.86,213.53,87.91,212.51,87.94Z"/><path class="cls-5" d="M112,96.49c.57-1.71-.38-3.33-.32-5C114.15,92.92,114.21,93.85,112,96.49Z"/><path class="cls-68" d="M316.5,64c-1.18-.15-2.5.2-3.48-.69-.79-.71.35-.54.48-.86.59.14,1.3.68,1.51-.45A2.42,2.42,0,0,1,316.5,64Z"/><path class="cls-69" d="M83.39,118.65,79.69,114c1.55.1,2.07,1.12,2.76,1.89.51.57.45,1.68,1.57,1.67Z"/><path class="cls-70" d="M161.44,82.59a2.45,2.45,0,0,1,2.14-1.07c1.21,1.12-.54,1.57-.55,2.42-.26.57-.58.17-.89,0C161.36,83.8,161.1,83.35,161.44,82.59Z"/><path class="cls-71" d="M264.49,95.78c1.56-2.53,3.35-.92,5.09-.29C267.92,96.29,266.15,95,264.49,95.78Z"/><path class="cls-72" d="M71,130.51a6.38,6.38,0,0,1,4.62,1.92C73.76,132.63,72.39,131.58,71,130.51Z"/><path class="cls-73" d="M132.06,148.55a6.81,6.81,0,0,1,1.15-1.48c1.48-1.09,1.27.07,1.2,1A3.87,3.87,0,0,1,132.06,148.55Z"/><path class="cls-74" d="M274.43,159.05l.55-.51a5.23,5.23,0,0,1,2.16,3.94Z"/><path class="cls-75" d="M30.55,102.59c-.32-.47.81-1.41-.51-1.56l.45-1,3,1.35A3.6,3.6,0,0,1,30.55,102.59Z"/><path class="cls-34" d="M77.81,66.57c.71-.22,1.58.16,2.18-.53a3,3,0,0,1,2.29.46C80.8,67.26,79.3,66.93,77.81,66.57Z"/><path class="cls-76" d="M92.56,81.08l-9.62,2c-2.58-1.5-4.19-4.87-7.94-4.1-.92,1.38-2.54,1.83-3.76,2.82-3.63.84-6.94,2.55-10.4,3.85-.81.3-1.59,1-2.54.37h-.16a14.66,14.66,0,0,1-1.23-6.72c0-2.43.16-4.8-.65-7.14A3.66,3.66,0,0,1,56,70.72c.07-1-.42-2.12.62-2.76s1.72.25,2.52.63A115.67,115.67,0,0,0,78,75.88a14.57,14.57,0,0,0,4.45.39c4.1-.18,8,1.16,12.08,1.35a2.48,2.48,0,0,1,1.54.77c.18.82-.43,1.06-1,1.11-2.72.24-5.33,1.1-8,1.49a4.61,4.61,0,0,0-1.89.22c1.23-.44,2.56.09,3.71-.59,1.48-.19,2.92-.62,4.41-.83.57-.08,1.21-.27,1.23.67Z"/><path class="cls-77" d="M42,65.05C39.46,63.8,40.42,60.7,38.63,59c2,1.42,4.41,1.08,6.44,2,.78.37,1.82.61,2.25-.69.37-1.11.12-1.72-1.18-1.8-.81,0-.57-.63-.27-1.06A4.55,4.55,0,0,1,48.4,55.9a29.4,29.4,0,0,1,0,3.78c-.23,1.66-.63,3,1.28,4.31a7.62,7.62,0,0,1,2.53,3.7c.33,1.57-1.28,3.22-2.74,3.7a9.75,9.75,0,0,0-2.89,1.66c-1.16.85-1.16.9-1.52-.43-.09-.31-.11-.51-.39-.31-1.64,1.15-3.31-1.17-5,0-.18.14-.62-.06-1-.12.73-2.41,3.58-2.92,4.45-5.06-.63-.7-1.7.4-2-.64A1.31,1.31,0,0,1,42,65c.61.42,1.07.3,1.39-.45C42.79,64.38,42.6,65.39,42,65.05Z"/><path class="cls-17" d="M96,78.51c-4.1-.46-8.11-1.58-12.3-1.42a28.43,28.43,0,0,1-12.06-2.47c-3.57-1.5-7.13-3-10.73-4.46a26.72,26.72,0,0,1-4.2-2c.81,6,1,11.93,1.44,17.87-2.11-1.41-1.91-3.89-1.8-5.72.28-4.51-1.28-8.83-.9-13.29-.21-.42-.29-.82.19-1.12.51-.56-.1-1.76,1.14-1.94.64.87-.27,1.7,0,2.7a5.57,5.57,0,0,1,5.07.73c0,.3-.35.64-.16.81s.55-.09.83-.19c1.53-.29,1.57-.25.75.66-.25.28-.8.33-.66,1.06,1.33.63,2.11-.82,3.3-1,.53,1.11-1.21.91-1,1.9,1.67.89,2.83-1.6,4.49-.82.34.93-.91.84-1,1.55a11.23,11.23,0,0,1,8.34,2.85,6.2,6.2,0,0,0,4.4,1.36c4.85-.21,9.52,1.19,14.28,1.73a3.44,3.44,0,0,1,3.09,2.16c-.12.17-.25.33-.38.49C97.41,79.52,96.35,79.53,96,78.51Z"/><path class="cls-78" d="M58.3,86.05c4.38-1.49,8.57-3.55,13.08-4.68a.8.8,0,0,1,.84.12c-2.07,1.86-4.91,1.8-7.3,2.93-4.48,2.12-8.93,4.44-14,5-4,.48-4.77.36-6.53-3.25a17.56,17.56,0,0,0-5.68-6.44c-1.68-1.24-3.58-2.46-3.4-5.09,1.7,3.29,5.09,4.69,7.62,7,1.49,1.38,2,3.41,3.12,5.08.49.77.9,1.73,2,1.61C51.55,88,55.17,88.08,58.3,86.05Z"/><path class="cls-79" d="M111.59,80.51c-2.41,3-5.66,1.11-8.52,1.46,2.27-.51,1.26-2.32,1.41-4-.51,1.71-1.3.89-2.06.56-1-.43-.27-1.22-.16-1.6a1.26,1.26,0,0,1,1.88-.54c1.56,1.37,3.23.58,4.86.55a1.08,1.08,0,0,1,.68,1.16c-.14.89-.17,1.09.92.74C111.43,78.62,112,79.51,111.59,80.51Z"/><path class="cls-80" d="M47.25,82.85c-.36-2.93-1.62-5.85-.2-8.88.68.55-.26,1.23.21,1.76.86.32,1.55-1.48,2.34-.29.56.84-.38,1.48-.76,2.18-.29.54-.92,1-.67,1.78.79-.19.76-1,1.18-1.43s1.23-1.36,1.51-.75c.57,1.23,2.13.18,2.35,1.22S52.5,80.05,52,80.78a.83.83,0,0,1-.65.23C48.55,80.88,48.55,80.87,47.25,82.85Z"/><path class="cls-81" d="M111.59,80.51c-.6-1.11-.59-1.1-1.24-.18-.13.17-.48.41-.56.36a2.12,2.12,0,0,1-.56-.66c-.66-1,.21-2.06-.23-3,0-.15,0-.29,0-.44l2.48,1c1.17.92,1.17.92,3.59,1.25l-2.92.33c1.38.66,2.44.2,3.44.39a1.59,1.59,0,0,1-1.54,1C113.25,79.58,112.42,80.05,111.59,80.51Z"/><path class="cls-82" d="M72.92,67.57c1,.31,1.42,1.31,2.06,2,.4.46,1.24,1,.65,1.64s-1.4.38-2.13.3c-.32,0-.68-.56-.43-.71C75.49,69.47,72,68.86,72.92,67.57Z"/><path class="cls-83" d="M49.92,95.88c.3.84-.3,1.88.55,2.6-.91.87-1.79.73-2.25-.37C47.56,96.54,49.25,96.55,49.92,95.88Z"/><path class="cls-84" d="M72.22,81.49l-.84-.12c1.16-.85,2.13-2,3.62-2.36a3.84,3.84,0,0,0,0,.48c.26,1.22-1,.93-1.46,1.45Z"/><path class="cls-85" d="M73.54,80.94,75,79.49c.83-.11,1.2.48,1.6,1C75.69,81.42,74.57,80.83,73.54,80.94Z"/><path class="cls-86" d="M55.63,65.92,55.44,67a3.49,3.49,0,0,1-1.27-2.78C55.71,64,55.28,65.27,55.63,65.92Z"/><path class="cls-87" d="M62.52,68c-.41.6-.78,1.29-1.65,1.26-.18,0-.52-.31-.51-.45.07-.89,1-1,1.49-1.43Z"/><path class="cls-88" d="M352.39,103.77l-.84,1c2.61-1,3.16-4.41,6.21-4.91-3.18,4.39-7.19,8.08-10,12.82-1.81-2.19.29-4.52-1.09-6.44-.3-.42.05-.79.47-1l5-2Z"/><path class="cls-89" d="M352,71.12c.47-.24,1.22.12,1.49-.86-.63-.58-1.51-.19-2.24-.4-1.23-.35-1.25-1.26-1.34-2.32-.13-1.51.92-.59,1.41-.84,2.9-1.51,4.47,1,6.79,2.1-1.15.21-2,.59-2.91.33-.5-.14-1-.14-1.15.53s.31.92.74,1.15c1.59.82,3,.42,4.5-.49L357.47,72C355.51,72.59,353.56,73.1,352,71.12Z"/><path class="cls-90" d="M352.16,87.57c0,.08,0,.18.09.23l.73.62c-1.34,1.31,1,2.74-.11,4-.54.59-1.38,1.33-2.05,1.29-2.16-.11-4.31-.52-5.05-3.08C347.61,89,349.59,87.65,352.16,87.57Z"/><path class="cls-91" d="M345.41,103c-1-.09-.9-.82-.91-1.5.21-1.64-1.05-2-2.15-2.62-.79-.43-1.87-1.18-1.24-2.08.83-1.18,1.59.09,2.16.64,1.29,1.24,2.42,1.51,3.74,0a4,4,0,0,1,2.47-1.07c.86-.13,2.26-.66,2.39.37.15,1.25-1.47.79-2.29,1.13a1.57,1.57,0,0,1-.73-.07c-1.18-.17-1.76.55-2.35,1.42.92.73,1.91-.35,2.77.56a2.33,2.33,0,0,1-2.48,1.65C345.47,101.37,345.61,102.26,345.41,103Z"/><path class="cls-92" d="M352.16,87.57c-2.36.52-4,2.51-6.39,3-1.88-.31-3.76-.89-5.64.11-.45.24-1.19.66-1.45-.15s.37-1.11,1.14-1.16c1.06-.07,2.11-.21,3.47-.35-.81-1-1.47-1.89-1.27-3.06l0,0c1.36-.41,2.71-1,2.84,1.37.05,1,1.47.37,2,1a11,11,0,0,0,4.65-1.8c.54-.08,1.24-.53,1.55.09S352.64,87.44,352.16,87.57Z"/><path class="cls-93" d="M349.56,78.31c1.63,1.69,2.54,2.84,2,3.61-.61.94-2.11,1-3.35,1a1.1,1.1,0,0,1-1.13-1.08c-.07-.9.65-.77,1.19-.81C349.4,80.91,351.15,81.64,349.56,78.31Z"/><path class="cls-94" d="M360.57,108.12c-.31.92-.53,1.89-1.5,2.4-1.49-1.85-3.07-3.66-2-6.33.17-.43.13-1.17.73-1.12.88.09.56.83.47,1.38s-.19,1.14-.26,1.72C357.76,108.26,358.53,109,360.57,108.12Z"/><path class="cls-95" d="M340.91,106.59a3.33,3.33,0,0,1-.79-.57c-.42-.56-2-.6-1.33-1.49.84-1.12,1,.48,1.57.79a2.32,2.32,0,0,0,1.89-.12c.72-.23,1.3-.25,1.3.75.05.74-.61,1-1,1.43l-.09.09C341.31,108.3,341.46,106.82,340.91,106.59Z"/><path class="cls-96" d="M348.92,76.25c.55-.62.91-1.4,1.64-1.17,1.09.33,2.24.88,2.48,2.12.15.71-.6.89-1.22.64A7.26,7.26,0,0,1,348.92,76.25Z"/><path class="cls-97" d="M360.47,73.94a4.54,4.54,0,0,0-1.34,3.63L357.81,79c-.81-.69.51-2.1-.93-2.43,2.1.33,1.68-1.87,2.67-2.65A.66.66,0,0,1,360.47,73.94Z"/><path class="cls-98" d="M334.23,92.08c.7-1.33,1.89-1.3,3.09-1.25A3.31,3.31,0,0,1,334.23,92.08Z"/><path class="cls-99" d="M337.5,115.49a1,1,0,0,1-1.06-.49.71.71,0,0,1,0-1c.8-.28,1.53-1.78,2.43-.13C338.88,114.82,337.76,114.78,337.5,115.49Z"/><path class="cls-100" d="M120.47,115.61a21,21,0,0,1-8-1.23c2.11-.69,4.16.39,6.28.24a18.21,18.21,0,0,1,4,.62Z"/><path class="cls-101" d="M300.52,114.07c1.14-1.4,2.28-2.81,3.44-4.2.91-1.1,2-1,3.07-.28,0,.36,1,.49.41.87-2,1.4-4,2.7-6.1,4C301.2,114.53,300.8,114.2,300.52,114.07Z"/><path class="cls-102" d="M293.4,131.09a7.89,7.89,0,0,1,5.81-3.41A5.17,5.17,0,0,1,293.4,131.09Z"/><path class="cls-103" d="M295.1,135a10.34,10.34,0,0,1-2.68,7C292.2,139.23,294,137.24,295.1,135Z"/><path class="cls-104" d="M314.83,109.82c1-1.06,1-1.06,1.56,0,.41.78,2.75.06,1.7,1.62-.71,1-1.9-.83-3-.81C315,110.35,314.91,110.09,314.83,109.82Z"/><path class="cls-105" d="M314.92,111.49l.6.46c-1.56.62-2.89,1.79-5.17,2.16A9.74,9.74,0,0,1,314.92,111.49Z"/><path class="cls-6" d="M314.06,110.06c-1,1.5-2.59,2.08-4.16,2.72a10.79,10.79,0,0,1,4-2.84Z"/><path class="cls-106" d="M311.06,67.88l.09,1.18a.64.64,0,0,0,.05.47,9.21,9.21,0,0,1-5.65-3.08c.44-.15,1.59.09,1.24-.38-1.29-1.68.48-2.58.65-3.84a1.17,1.17,0,0,1,.65.91C307.45,65.74,309.25,66.81,311.06,67.88Z"/><path class="cls-107" d="M303.41,69.88c-3.67,6.25-4.64,7.11-7.87,6.22C300,75.82,300.2,71.53,303.41,69.88Z"/><path class="cls-83" d="M299,56c-1-.19-2-.53-2-1.76,0-.92.73-1.33,1.5-1.36a2.75,2.75,0,0,1,2.32,1.44C299.63,54.3,300.35,56.25,299,56Z"/><path class="cls-108" d="M295.8,73a12.43,12.43,0,0,1,3.33-4.56c.95.25,1,.77.33,1.36C298.23,70.86,297.35,72.32,295.8,73Z"/><path class="cls-109" d="M307.24,76.43a5.59,5.59,0,0,1,4.43-.08A4.78,4.78,0,0,1,307.24,76.43Z"/><path class="cls-110" d="M297.57,49.53c.79-1.84,1.63-1.85,2.52-.06C299.27,50.47,298.4,49.25,297.57,49.53Z"/><path class="cls-111" d="M73.53,121.57l-6.09,2.35c-.14-.11-.18-.2-.12-.28a.24.24,0,0,1,.17-.1,11,11,0,0,1,5.18-2.41Z"/><path class="cls-112" d="M63.53,112c1.35-1.79,3.25-2.93,5-4.27A7.59,7.59,0,0,1,63.53,112Z"/><path class="cls-113" d="M68.85,107.62c.91-.37,1.57-1.92,2.85-.62C70.75,107.21,70.4,110.22,68.85,107.62Z"/><path class="cls-114" d="M83.46,121a11.13,11.13,0,0,1,3.11,3.61C84.55,124.22,84.19,122.44,83.46,121Z"/><path class="cls-115" d="M90.39,100.51a9.75,9.75,0,0,1,1.09-8.29C91.09,95,90.13,97.67,90.39,100.51Z"/><path class="cls-116" d="M334.53,103.12c1.92.7,2.05,3.09,3.8,4,.69.35,1,1.35,2,1.22a.52.52,0,0,1,.14.82c-1.63,1.8-4.14,1.28-6.11,2.3-.93.49-1.34-.77-1.45-1.76-.23-1.9-.18-3.88-1.5-6.12-.44,2.29.45,3.88.47,5.54,0,.77.49,1.84-.7,2.06s-1.44-.61-1.6-1.68c-.24-1.64-.52-3.36-2.2-4.77-.26,1.64.77,2.61.92,3.77.11.8,1.06,2-.21,2.31a2.11,2.11,0,0,1-2.27-1.73c-.36-1.45-.7-2.91-1.11-4.34-.12-.42-.09-1-1-1.13-.21,1.59.73,3,.83,4.43,0,.46.5,1.11-.06,1.33a1,1,0,0,1-1.44-.83c0-2.21-.75-4.33-.76-6.54-.16,1.63.88,3.24.1,4.88-.81,2.47-1.49,2.74-3.68,1.49a5.53,5.53,0,0,0-4.06-.21,23.49,23.49,0,0,1-3.16.28c-.26-.31-.11-.7-.2-1,.49-3.68,2.08-7.11,2.36-10.84.1-1.36,0-1.84-1.36-1a4,4,0,0,1-1.61-4.31c.13-.76,1.07-1.56.14-2.26s-1.75,0-2.52.47c-3.54,2.11-4.6,2-7.45-1a31.33,31.33,0,0,1-2.5-3.12,3.13,3.13,0,0,1,.1-3.41c1.13-1.67,2.43-2.58,4.68-2a29.09,29.09,0,0,0,5.62.3c-.27-.19.43.3.1.24-.18,0-.21.33-.14.32,2.4-.41,4.88-.34,7.21-1.21,3.83-.85,3.86-.86,5.33,2.72,1.25,3.06,3.46,5.68,4.15,9a29.2,29.2,0,0,1,.62,3.93c.17,3,.59,5.67,4.42,5.85C331.41,102.58,333.34,102.13,334.53,103.12Z"/><path class="cls-76" d="M291,147.63c-.3-1.63.93-2.62,1.65-3.79,1.29-2.12,3.16-4.09,3.24-6.62.14-4,2.61-6.27,5.4-8.4a50.22,50.22,0,0,1,9.06-5.24A101,101,0,0,0,305,136a5.37,5.37,0,0,1-3,3.17,27,27,0,0,0-8.66,7C292.7,146.82,292.19,147.83,291,147.63Z"/><path class="cls-117" d="M306,98.05l-5.88-1.13c-2.29-.73-4.55.48-6.84.09-1.12-.41-1-1.17-.57-2a27.74,27.74,0,0,0,5.11-5.69c1.09-1.8,2.11-1.85,3.56-.35s3.22,2.56,5.5,1.83a1.35,1.35,0,0,1,1.54.56c1.37,1.73,1.68,4.07,3.44,5.65.64.58-.36,1.27-1.19,1.24A20.26,20.26,0,0,1,306,98.05Z"/><path class="cls-118" d="M306,98.05c1.92-.27,3.94.3,6.35-.67-2.82-.83-3.05-3-3.8-4.91-.26-.65-.44-1.59-1.37-1.22-2.63,1.07-4.63-.18-6.2-1.89s-2.13-.88-2.8.47a13.93,13.93,0,0,1-4,4.71,3.38,3.38,0,0,1-1.14.35.68.68,0,0,1-.15-.61,4.66,4.66,0,0,1,1-1.72c2.31-1.89,3.46-4.66,5.22-7,1.51,1,2.05,2.94,3.69,3.93s3.15,1.62,4.52-.27c.78-1.07,2.1-.82,3.09-1.39s.85.68,1.32,1c.91.58.5,1.14,0,1.57-1.23,1,.19,2.39-.52,3.45,2.26-.71.83,1.1,1.16,1.71.55,2.15-.24,3.18-2.5,2.93C308.56,98.35,307.19,98.94,306,98.05Z"/><path class="cls-119" d="M319,123.93c-1.82.37-1.74,3-3.75,3.15-1.63-.15-2.71,1.29-4.23,1.43-1-.23-1.39-.77-.76-1.73,1.38-2.11,2.29-4.59,4.74-5.84,1.44.65,2.16-1.09,3.51-1a7.52,7.52,0,0,0,2.54-.87c1.49,2,.71,3.42-1,4.7A1.57,1.57,0,0,1,319,123.93Z"/><path class="cls-120" d="M299.6,98c3.51.67,7,1.51,10.84,1-.47,1.75-1.72,2.75-2.56,4a.87.87,0,0,1-1.08.4,17.78,17.78,0,0,0-6.06-1.34c-.29,0-.74,0-.65-.5.59-3-1.52-2.84-3.44-2.89,0,0-.08-.14-.12-.21C297.35,97.07,298.54,97.94,299.6,98Z"/><path class="cls-121" d="M307.08,134.93l.55.61c1.77,2.33,2,5,1.82,7.81.13,1.54,1.8,2.48,1.58,4.14-1.11-.29-2.23-.54-3.32-.9a2.75,2.75,0,0,1-2.11-2.49A22.67,22.67,0,0,1,307.08,134.93Z"/><path class="cls-122" d="M319.56,123.55c2.21-.94,1.69-2.78,1.5-4.52a7.83,7.83,0,0,1,4.89-.51.7.7,0,0,1,.11,1l-3.52,5.39c-.87.38-1.19,1.28-1.76,1.94s-.81,1.47-1.87,1.16C318.55,126.45,320,125.13,319.56,123.55Z"/><path class="cls-123" d="M311.33,107.4c.63.24.33.66.2,1-1.85.56-3.69.9-5.63-.27a38.16,38.16,0,0,1,6.27-9c-.83,1.85-.85,3.86-1.34,5.77C310.61,105.83,310.23,106.8,311.33,107.4Z"/><path class="cls-124" d="M326.06,119.54c0-.34-.07-.68-.11-1,2-1.7,4.37-3.06,4.53-6.1l0-.27c1.25-.2,2.86-1.34,3.08,1.16.24.5,0,.67-.47.67-.23-.49-.6-.94-1-.23a13.54,13.54,0,0,0-.74,2.31c-.1.55-.11,1.15-.84,1.31-1.51.9-2.15,2.61-3.46,3.71a.52.52,0,0,1-.74-.1C326.08,120.53,327.89,119.66,326.06,119.54Z"/><path class="cls-125" d="M291,147.63c4.14-4.53,9.12-8.06,14-11.68.27.67.94,1.31.15,2.06-.94-.61-.94.5-1.36.79-.73.5-1.34,1.19-2.33,1.17-3.33,2.05-6.47,4.27-8.63,7.69a10.17,10.17,0,0,1-3.33,3.29C288.52,149.21,290.9,148.94,291,147.63Z"/><path class="cls-126" d="M329,114a8,8,0,0,1-6.53,3.59c-.7-.06-1.39-.39-1-1,.84-1.24-2.45-2-.26-3.22,1.19-.68,2.27-1.54,3.6-2.46-.4,1.9-2.19,2.16-3.2,3.59a7.18,7.18,0,0,0,3.85-2.4c.38-.39.62-.83,1.14-.36.8.72-.06,1-.46,1.25-1.05.75-2.14,1.45-3.44,2.32,1.19.56,1.59-.58,2.31-.36.06.07.11.14.17.2,1.31-.09,2.14-1.43,3.52-1.35Z"/><path class="cls-127" d="M293.13,96.58a19.4,19.4,0,0,1,7,.34c-1.34.44-2.84-.44-4.12.52-2.66,1.32-5.39.78-8.14.34-1.2-.19-2.44-.25-3.65-.44-1.79-.55-3.61-1-5.41-1.44-.57-.15-1.39,0-1.51-.92.65-1.52,1.89-1.08,3-.77a21.34,21.34,0,0,0,6.08,1.07,13.67,13.67,0,0,1,4.75.64C291.8,96,292.27,96.9,293.13,96.58Z"/><path class="cls-128" d="M284.14,96.86c4,0,7.88,1.18,11.87.58,1.17.38,2.45-.1,3.59.51-1,.34-2.15-.31-3.07.5-1.91-.66-3.57.65-5.39.67a11.48,11.48,0,0,0-2.15.41c-1.52-1.51-3.78-1.07-5.49-2.07C283.42,97,283.61,96.72,284.14,96.86Z"/><path class="cls-129" d="M290.3,100.49c2.1.67,3.73-2.08,6.06-.5.56.38,1.58-1.29,2.26.2.14.32.84.42.43.94-.19.24-.63.58-.77.51C295.72,100.36,292.83,102.43,290.3,100.49Z"/><path class="cls-130" d="M315,120.94c-2,1.41-2.56,3.87-4.19,5.54-.59.6-1.2,1.5.21,2l-2.35,1.24C310.41,126.11,310.74,122.14,315,120.94Z"/><path class="cls-131" d="M322.43,106.88l-.45-5.17c1,2.2,1.85,4.4,1.11,6.83C322.43,108.16,322.57,107.47,322.43,106.88Z"/><path class="cls-126" d="M330.5,112.15l.09.14-.11.13c-1,.11-.79,1.23-1.48,1.58h0c-.91-.43-1.43.41-2.13.65s-1.13,1.08-1.9.32l0,0c.88-1.32,2.69-1.6,3.44-3.21C328.74,111.13,329.9,111.41,330.5,112.15Z"/><path class="cls-132" d="M301.43,140c.93-.77,1.86-1.52,2.78-2.3.54-.45.82-.35.91.34-.2.66-.41,1.32-.61,2C303.49,139.05,302.45,141.12,301.43,140Z"/><path class="cls-133" d="M333.11,114l.47-.67,2.89.72,0,1A4.62,4.62,0,0,1,333.11,114Z"/><path class="cls-134" d="M320.27,112.23a31.52,31.52,0,0,1,3.42-2C322.87,111.44,322.08,112.64,320.27,112.23Z"/><path class="cls-135" d="M340.49,109.16c-.05-.27-.1-.55-.14-.82-.25-.72,1.11-.93.56-1.75.57.2.76,1.08,1.56.88A1.71,1.71,0,0,1,340.49,109.16Z"/><path class="cls-136" d="M342.77,161.73c.3-.74-.8-.62-.75-1.21-.31-2.12-2-2.83-3.66-3.53a42.88,42.88,0,0,0-5.41-4,19.14,19.14,0,0,1-4.46-3.95,15.74,15.74,0,0,0-10.41-6.19c-1.42-.25-2.48-.69-1.61-2.44a3.06,3.06,0,0,1,1-.53c3.09-.5,6-1.75,8.91-2.68.69-.22,1.3-.76,2.07-.3,2.54-1.33,5.53-1.61,7.86-3.52.61-.51,1.59-.23,2.48.39,2.37,1.64,4.85,3.22,8.11,2.77-1.06,1.55-.78,3.23-1,4.77-.41,2.73-1.84,5.11-1.07,8.31,1,4-.29,8.23-2.09,12.08Z"/><path class="cls-137" d="M349,154.73c.43-1.68-.29-2.56-1.95-2.79.54-.79,1.11-1.56,1.6-2.38s.2-1.05-.64-1c-.44-1-.44-1,.72-2.82a2.38,2.38,0,0,1-2.25-.27c.52-2.32,2.53-3.74,3.48-5.89.86-2,.25-2-1.37-2.17.21-.39.29-.73.51-.89,1.06-.79,1.41-1.86.37-2.67a2.25,2.25,0,0,0-3,.15c-1.35,1.57-1.77.89-2.47-.55-1.21-2.46.11-4.31,1.21-6.23A19.38,19.38,0,0,1,347,125a3.44,3.44,0,0,1,2.87-1.29c1.28.39,2.37,1.32,3.78,1.39.86,1.57,1.05,3.05-.36,4.49-.48.48-.92,1.24-.1,2,1.12-.07.48-1.81,2-1.77-1,2.57-.06,5,.34,7.52a7,7,0,0,1-.32,3.92A137.35,137.35,0,0,1,349,154.73Z"/><path class="cls-138" d="M317.39,140.51l-.92-.06c.52-4.47,3-8.11,5.08-11.91a19.59,19.59,0,0,1,1.43-2c1-.4,1.87-1.59,3.13-.55,1.32,3.21,2.31,6.48,1.9,10a4.75,4.75,0,0,1-3.11,1.91A70.81,70.81,0,0,0,317.39,140.51Z"/><path class="cls-139" d="M332,116.44c.59-.63.72-1.55,2.19-.91,2.8,1.23,5.81,1.94,8.47,3.56a8.84,8.84,0,0,0,4.82,1c.66.53,2.57-.35,1.92,1.69-2.77.83-5.49,2.52-8.38.36-3.11-.8-5.35-3.08-8-4.64C331.83,117.9,331.64,117.4,332,116.44Z"/><path class="cls-140" d="M341,122.11c3,1,5.79-.4,8.68-.69.92-.17,1.26.13.85,1,.42.83,1.58.14,2,1-.71.93-1.7.49-2.59.54-1,.23-1.81,1.08-2.94,1l-.58-.57c.36-1.2,1.42-1.2,2.36-1.5-2.67.93-5.35,1.84-8.18.67Z"/><path class="cls-141" d="M332,116.44a.9.9,0,0,0,1,1c1.32,2.48-.38,3.31-2.21,4.07a.4.4,0,0,1-.69,0c-.49-1.21-1.26.65-1.75-.14-.23-1.9,3.64-1.44,2.25-4l.84-1.31C331.59,116.18,331.77,116.31,332,116.44Z"/><path class="cls-142" d="M317.39,140.51c1-1.41,2.69-1.6,4.12-2,2.23-.69,4.36-1.58,6.5-2.47l.49.93A40.53,40.53,0,0,1,317.39,140.51Z"/><path class="cls-143" d="M346.47,145.5c.9.81,1.24-.35,1.85-.55s1-.82,1.52-.18-.26,1-.52,1.5c-.42.78-1.72,1.07-1.32,2.32-.57.74-.66,1.85-1.83,2.25C347.61,149.07,345.39,147.23,346.47,145.5Z"/><path class="cls-144" d="M340.57,123.56a31.57,31.57,0,0,0,9.42-1.33c-1.23,1.46-2.67,1.36-3.6,2.16-1.57,1.13-3.48.11-5.15.81-.36.14.58-1.41-.72-1.25-.14-.11-.18-.21-.12-.29a.26.26,0,0,1,.18-.11Z"/><path class="cls-145" d="M318.94,128c1.57-.58,1.52-3.07,3.6-3L318,132.52c-1.18-1.38.73-2.31.51-3.56C318.16,128.41,318.14,128,318.94,128Z"/><path class="cls-146" d="M333.56,124.05c1.83-.57,3.12-3.1,5.53-1.54.12.08.18.23.31.4-.35.85-1.25,1-1.87,1.51-.6-.62.45-.84.21-1.22s-.7-.16-1.05,0l-2.64,1.37C333.56,124.7,333.43,124.49,333.56,124.05Z"/><path class="cls-147" d="M338.36,157c3.15.15,4,1,3.66,3.53C340.83,159.31,339.23,158.53,338.36,157Z"/><path class="cls-148" d="M335.72,132.5c0,.43-.36.49-.64.64l-2.69,1.41C333.52,131.19,333.52,131.19,335.72,132.5Z"/><path class="cls-149" d="M344.65,125.92c-.86,1.68-1.5,3-2.41,4.76C342,128.32,341.93,126.7,344.65,125.92Z"/><path class="cls-150" d="M330.06,121.52l.69,0c-.65,1.17.79.92,1,1.51.16.39.39.71,0,1s-1,.61-1,.38C330.45,123.51,328,123,330.06,121.52Z"/><path class="cls-151" d="M326.11,126c-1.13-.27-2,.92-3.13.54a2.24,2.24,0,0,1,.23-.69c.46-.65.63-1.86,1.51-1.75C325.42,124.19,325.9,125.16,326.11,126Z"/><path class="cls-152" d="M346.09,153.11c.61-.09,1.6-.49,1.7.18.15.94-.87,1.57-1.5,2.27L346,155C346,154.36,346,153.73,346.09,153.11Z"/><path class="cls-153" d="M327.54,124.7a3.16,3.16,0,0,1,2.37,2.38c0,.09-.57.58-.64.53A5.06,5.06,0,0,1,327.54,124.7Z"/><path class="cls-154" d="M329.15,131.81A3,3,0,0,1,330.4,135c0,.14-.56.33-.64.26C328.67,134.3,329.65,133,329.15,131.81Z"/><path class="cls-155" d="M342,126.51a7.53,7.53,0,0,1-4.05,2.2A8.83,8.83,0,0,1,342,126.51Z"/><path class="cls-156" d="M333.56,124.05l.49.54a6.9,6.9,0,0,1-2.29,2A2.25,2.25,0,0,1,333.56,124.05Z"/><path class="cls-157" d="M326.36,121l.74.1c-.1.5-1.06.61-.6,1.39.21.35.85.75.13,1.17a1,1,0,0,1-1.11-.26.87.87,0,0,1-.07-1.29C325.73,121.7,326.05,121.35,326.36,121Z"/><path class="cls-158" d="M337.94,130.55a7.3,7.3,0,0,1,3.48-2.11C340.6,130,339.55,130.26,337.94,130.55Z"/><path class="cls-140" d="M340.58,123.55a.69.69,0,0,1-.06.4c-.57,1.32-2,1.27-3.07,1.81A6.84,6.84,0,0,1,340.58,123.55Z"/><path class="cls-159" d="M309.45,143.35l-.68-.13c.93-2.75-.53-5.15-1.14-7.68,1.59-1.48,3-3.21,5.43-4.11a3.81,3.81,0,0,1-2.21,2.59c-2.28,1.08-2.27,3-1.36,4.61S310,141.79,309.45,143.35Z"/><path class="cls-160" d="M312.05,138.82c.36,1.56,2.39,3,0,4.73C311.28,141.9,310.46,140.42,312.05,138.82Z"/><path class="cls-161" d="M318.94,128l-.46,1c-1.27,0-.86-.66-.54-1.27a6.12,6.12,0,0,0,1.07-3.76l.55-.38C321.21,125.28,319,126.48,318.94,128Z"/><path class="cls-162" d="M30.55,102.59a3.75,3.75,0,0,1,2.94-1.21c3.54.81,7,.25,10.48-.52,1.23-.53,2.15.54,3.26.62a14.58,14.58,0,0,0,9.49-4.22,17.09,17.09,0,0,1,5.75-3.77c1.34,2.63,3.57,4.67,4.52,7.63.5,1.57,2.9,2,3.55,3.88-3.17,2.37-6.51,4.55-9.09,7.62-1.24-.4-1.93-1.15-1.54-2.57-1.18.1-2.2.92-3.54.42,1-2.42,3.58-3,5-4.89a10.59,10.59,0,0,1-3.77,2.47c-.51.22-1.19.48-1.53-.22-.26-.54.25-.92.64-1.21a20,20,0,0,0,3.14-3c-1.12,1.72-3.48,3-5.28,4.94.73.48,2.67-.34,1.7,1.72-.34.72.49.63,1,.56a3.58,3.58,0,0,1,2.5,1c.61.39.31.83-.15,1.17-3.11,1.13-4.82.46-7.12-2.6-1.25-1.65-2-3.9-4.63-4-5.41-2.14-8.86-1.06-13.21,4.25-.94,1.15-1.71,2.45-2.56,3.68C29.69,110.57,30,106.6,30.55,102.59Z"/><path class="cls-163" d="M37.89,118.83c-.76-.65,0-1.17.13-1.75s.84-1.26.18-1.81-1.28.25-1.85.64a5.69,5.69,0,0,1-.56.3c-.2-1.46,1.85-2.23,1.09-3.57-.44-.79-1.13.78-1.89.36.74-1.33,2.22-2.1,2.71-3.61a10.82,10.82,0,0,1,6.28-3c4.48.28,6.48,2.3,7.38,6.57.85,4.07.94,8.27,2,12.26s-.61,7.24-1.71,11.43c-.15-3.58,1.11-6.3,1-9.21-1.24,1.8-1.43,3.89-1.68,6-1,1.17-1.35.33-1.44-.56-.15-1.37.49-2.6.65-3.55-.83,1,0,3.31-2.07,4.31A3.11,3.11,0,0,1,48,131c-.14-1,.88-2.17-.45-3-1.43,0-.57-1.38-1.16-1.84-1.65,1.35,0,3.31-.89,4.8,0,0-.13,0-.18,0a1.21,1.21,0,0,1-.2-.14c-1.71-2.69-2-5.71-2-8.81-.51.08-.77-.1-.66-.65l.92-2c-1.18-1-1.46,2-2.65.54-.65-.76-1.53-1.47-.79-2.78C38.57,117.31,38.28,118.13,37.89,118.83Z"/><path class="cls-164" d="M67.1,150.45c-1.51.32-3,1-4.37,1.35A8.49,8.49,0,0,1,56,150.66c-1.73-1.28-3-3.32-2.09-5.89.32-.86.21-.94-.89-1.38-.33-.13-.28-.35-.34-.56a1.06,1.06,0,0,1,0-.25c.24-3,2-5.75.4-9h.9c1.14,2.28,2.39,4.51,3.39,6.84,1.57,3.68,4.11,6.11,8.09,6.91C65.5,148.67,67.9,148.67,67.1,150.45Z"/><path class="cls-165" d="M47.79,106.28c1.05-.83,1.75-.32,2.46.56,1.19,1.47,2.43,2.9,3.69,4.31,1.51,1.69,3.27,2.46,5.45,1.23a3.07,3.07,0,0,1,.76,2.08,7.17,7.17,0,0,0-1.68,3l-6.4-6C51.7,108.82,49.91,107.42,47.79,106.28Z"/><path class="cls-166" d="M45.08,130.85c.73-.83.24-1.74.11-2.6-.25-1.68.61-2.77,1.65-4,1.3,1.3-.73,2.8.67,3.78l-.62,4.05-.37,0v-3.86l-.41,0a24.83,24.83,0,0,1-.16,2.59C45.85,131.37,45.49,131.6,45.08,130.85Z"/><path class="cls-163" d="M50.92,134.62c-.69,2.06,1.71,3.57.7,6.2C50.91,138.1,48,137,48.54,134,49.52,133.5,50.2,134.13,50.92,134.62Z"/><path class="cls-167" d="M50.92,134.62,48.54,134c-1.76-.7-1.12-1.87-.58-3l.19,2.29c1.42-1.5.78-3.64,2.15-5.25.66,1.81-.38,3.17-.27,4.61,0,.6-.27,1.57.93.79C51,133.84,50.94,134.23,50.92,134.62Z"/><path class="cls-168" d="M44,106.43l-6.28,3C38.35,107,40.55,106,44,106.43Z"/><path class="cls-169" d="M67.1,150.45c-.16-1.12-1-1.56-1.92-2s-.66-.88.21-1.09c.6.27,1.21.51,1.79.81.75.39,2.18.13,2.11,1.24C69.23,150.28,67.9,150.21,67.1,150.45Z"/><path class="cls-170" d="M42.37,121.39,43,122c-1.11,1.55-.78,3.27-.46,5.11C40.84,125.82,40.83,124.49,42.37,121.39Z"/><path class="cls-171" d="M36.86,120.51c.86,1.11,2.13.38,2.17,1.78,0,.21-.18.61-.24.6C37.8,122.77,37.28,122.16,36.86,120.51Z"/><path class="cls-172" d="M138.93,111.51c-.67-1.56-2.37-1.51-3.55-2.28-.36-.24-1-.46-.61-1.06A.78.78,0,0,1,136,108c4.25,2.55,6.73,6.46,6.46,11.24a67,67,0,0,0,1,13.84c.82,5.48.54,11.13,2.39,16.46a2.46,2.46,0,0,0,.57,1.82c.8,1.41.57,2.48-.94,3.2-1-1.25-2.82-1.68-3.16-3.73-.23-1.4-2-.66-3.11-.89.81-2.71-1-4.92-1.26-7.41-.14-.5.06-.65.53-.5,1-.27,1.75-.58,1.65,1.09-.1,2,1.4,3.55,2,5.4.63-1.19,0-2.21-.34-3.17a8.69,8.69,0,0,1-.6-3.11c0-1,.52-2.67-1.62-2-.55.16-.58-.27-.47-.5,1.09-2.25-.85-4.58.3-6.91.64-1.29-.58-2.72-.16-4.35,1.33-5.29.32-10.68.07-16A2.74,2.74,0,0,0,138.93,111.51Z"/><path class="cls-173" d="M145.47,154.56c.95-1.08,1.34-2.23.26-3.44-.55-.61-.61-1.1.11-1.58a14.94,14.94,0,0,0,4.38,5Z"/><path class="cls-174" d="M136.41,141.57c.4,1.4.75,2.81,1.23,4.19.31.91-.06,1.16-.85,1.29-1,.16-.84-.48-.83-1.05,0-1.48.09-3,.14-4.43Z"/><path class="cls-175" d="M136.41,141.57l-.16,0-.15,0a8.19,8.19,0,0,1,.79-4.66c.58,1.86,1.08,3.49,1.58,5.12l-.53.5c-.71-.59-.15-1.85-1.19-2.27C136.24,140.6,136.65,141.17,136.41,141.57Z"/><path class="cls-164" d="M286.53,95.92a16.08,16.08,0,0,1-6.26-1c-1-.35-2-1-2.87.16-1.5,1.13-2.9-.85-4.39-.15-1-.18-1.55-.41-.32-1.24s3-.79,4.33-1.57a24.08,24.08,0,0,0,9.86,0,7.68,7.68,0,0,0,4.5-3.48c-1.41.09-1.62,1.44-2.9,1.57,2.15-3,5.13-4.78,8-6.56.7,3,1.27,5.92-1.61,8.2a2.6,2.6,0,0,0-.91,1.42l-.92,1.22c-.75.28-1,1.2-1.72,1.48C289.75,96.07,288.15,95.35,286.53,95.92Z"/><path class="cls-176" d="M294,93.26c0-.24-.08-.62.05-.72,3.12-2.34,2.05-5.83,2.47-8.9l2-1.68c0,1.25-.18,2.52.62,3.64C298.42,88.82,296.39,91.16,294,93.26Z"/><path class="cls-177" d="M329.72,99.52a12.59,12.59,0,0,1,3.63-3.31c.85,1.46,1.13,3.28.18,4.28C332.8,101.25,331.24,99.94,329.72,99.52Z"/><path class="cls-178" d="M316,79.56c-2.52,2-5.52,1.25-8.49,1.21l1.32-.56A36.72,36.72,0,0,1,316,79.56Z"/><path class="cls-179" d="M334.53,103.12c-1.56-.28-3.45.12-4-2.06C331.88,101.64,333.67,101.48,334.53,103.12Z"/><path class="cls-180" d="M117.48,43.49c-.47-.55,1.55-.26.36-1.15-.41-.3,0-.74.47-.82a4.7,4.7,0,0,1,3.33.54c1.27.88-.67.83-.65,1.45C119.81,44.56,118.64,43.9,117.48,43.49Z"/><path class="cls-25" d="M117.48,43.49l3.51,0c1.25,1.62-.12,1.65-1.07,1.5a10.42,10.42,0,0,1-2.55-1.13s-.06-.14,0-.2S117.43,43.55,117.48,43.49Z"/><path class="cls-181" d="M116,57l2.11,2.08c-1.06,1.34-1.83,0-2.51-.42C114.59,58,115.33,57.42,116,57Z"/><path class="cls-182" d="M60.15,114.46c-.54-.59-1.55-1-.76-2.07a6.28,6.28,0,0,0-3.33-1c-2,0,.1-1.31-.06-2a18.21,18.21,0,0,1-2.21.08c-.61-.06-1-.63-.38-1,2.85-1.74,4.78-4.69,8-5.93l-5.33,5.42c2.63-.45,4.22-2.59,6.6-3.32-1.22,2.61-4,3.58-6,5.76,1.8-.07,3-1.57,5.09-1.42-1.68,1.34-1.4,2.52-.32,3.67A3.61,3.61,0,0,1,60.15,114.46Z"/><path class="cls-183" d="M67.49,123.54a1.58,1.58,0,0,0,0,.38c-.59.53-.68,1.06.27,1a29,29,0,0,0,3.47-.39c-2.71,2.73-3,2.7-5.82-.57-.06-.42-.69-.82-.12-1.26a.66.66,0,0,1,1,.18C66.56,123.46,67,123.48,67.49,123.54Z"/><path class="cls-184" d="M60.47,119c1-.69,1-.69,1.41-2.4v4.85A4,4,0,0,1,60,119,.35.35,0,0,1,60.47,119Z"/><path class="cls-185" d="M60.47,119H60c-1.7-1.16-.33-1.94.5-2.81Z"/><path class="cls-186" d="M40.81,35c3.25-.53,5.56,1.81,8.16,3.3,1.43.81,2.65,2,4.26,2.53,1.1.33,1.08.85.48,1.57-1.44,1.74-3,3.4-5.41,3.64a1.84,1.84,0,0,0-1.89,1.56c-.81,3-4.06,3.85-6.39,1.74-2-1.78-2.53-1.64-3.65.82a6.4,6.4,0,0,1-1,1.71c-.91,1-1.86.94-2.16-.46a70,70,0,0,1-1.59-9C31.35,38.66,36,35,40.81,35Z"/><path class="cls-187" d="M350.5,122.46a1.12,1.12,0,0,0-.85-1c-.37-1.06-1.57-.76-2.22-1.36,2.12-.39,2.12-.39,5.18-2.75.27,1.64-.75,3-.76,4.51C351.85,122.68,351,122.35,350.5,122.46Z"/><path class="cls-188" d="M349.91,124c.72-.87,1.7-.46,2.59-.54l1.12,1.62C351.89,126.4,351,124.81,349.91,124Z"/><path class="cls-189" d="M124.46,39.35c-.57-.05-.63-1.18-1.6-.57-2,1.23-3.51.38-4.84-1.23-1.14-1.38-4.87-1.64-6.46-.16,0-1.79,0-3.32,0-4.84,0-2.91,0-2.82,2.6-4,1.7-.81,3.1-1.57,5.24-.92,1.59.49.68,2.46,2.21,2.47,1.21.88,3.12.66,3.75,2.43.79.72.3,1.75.63,2.58C127.06,37.05,125.93,38.26,124.46,39.35Z"/><path class="cls-190" d="M110.06,45c-1.23.24-2.19.1-2.14-1.5A7.53,7.53,0,0,0,107.1,39c-.76-1.42.1-6.23,1.18-7.38.35-.38.72-.67,1.29-.38a1.66,1.66,0,0,1,.91,1.62c.08,2-.28,4,.53,5.92.32.76.46,1.8,1.37,1.93,1.06.16.79-1,1.15-1.54s1.06-.58,1.74-.91a8.31,8.31,0,0,1-1.39,3.91c-.3.55-.36,1.39-1.29,1.25-.74-.11-1.08-.73-1.42-1.3s0-2.29-1.34-1.9-.53,1.69-.36,2.6C109.61,43.57,109.86,44.28,110.06,45Z"/><path class="cls-191" d="M124.46,39.35c.33-1.5,2-2.53,1.53-4.29,1.07.47,1.77,1.14,1.32,2.44S126,39.7,124.46,39.35Z"/><path class="cls-192" d="M125.36,32.48c-1-1.16-2.86-1.06-3.75-2.43C123.16,30.41,125.17,30,125.36,32.48Z"/><path class="cls-193" d="M123.82,44.57c.81.94.82,1.85,0,3.18A3.81,3.81,0,0,1,123.82,44.57Z"/><path class="cls-4" d="M153.44,78.54l1.56.95c1.39,1.3,1.5,2.5-.33,3.5-.48-.5.4-1.41-.46-1.87-.78.37-.64,1.09-.7,1.73-.08.84-.57,1.62-1.35,1.3s.09-.92.27-1.39,0-.63-.41-.62L150,82c-.6-.27-1.5-.29-1.77-.8-2.1-4-5.76-2.42-8.78-2.33a36.49,36.49,0,0,1-10.74-1,.74.74,0,0,1-.41-.59c.69-1.39,2.32-1,3.79-2.13-3.09,1.79-5.39,1-8.18.07-5.43-1.81-9.88-5.87-15.75-6.57-1.61-.19-3-1.34-4.49-2a36.16,36.16,0,0,1,3.35,1.82.81.81,0,0,1,0,.71c-1,.28-2.1,1.52-2.73-.42-.57-1.46-1.42-.3-2-.09-6.16,2.25-6.69,1.88-5.84-4.44a22.28,22.28,0,0,1,2.12-6.62c1.31-2.77,5.85-3.92,8.62-2.4,5.1,2.81,8.86,7.25,13.24,10.93a13,13,0,0,0,5.6,3,89.54,89.54,0,0,1,12.16,3.42C143.3,74.44,148.37,76.51,153.44,78.54Z"/><path class="cls-194" d="M104.29,68.71c.76,1,1.73,0,2.57.28,1.19-.07,1.64.82,2.13,1.66a71.34,71.34,0,0,0,5.7,4.72c.94.69,2.26,1.15,2.32,2.64l-.09-.09c-1.39.1-2.85.46-3.86-1a12.76,12.76,0,0,1-4.13-1.6c-3.14-1.95-6.8-1.93-10.26-2.67-1.12-.24-2.33-.22-3.17-1.19,1.47-1.13,3.33-.55,4.94-1.13A17.26,17.26,0,0,0,104.29,68.71Z"/><path class="cls-195" d="M308.09,63.14l-.65-.91a17.84,17.84,0,0,0,1.07-12.12c-.1-.39-.35-.9.12-1.09.3-.13.77.11,1.15.22a1.37,1.37,0,0,1,.38.31c1.89,1.71,3.68,9.05,2.82,11.54-1-1.32-.56-3.66-3.08-4A6.33,6.33,0,0,1,308.09,63.14Z"/><path class="cls-196" d="M298.32,46c.55.08,1.09.3,1.12,1s-.54.46-.89.51a.85.85,0,0,1-1-.75C297.46,46.32,297.81,46.05,298.32,46Z"/><path class="cls-164" d="M42,100a14,14,0,0,1-8.27.38A4.58,4.58,0,0,1,30,96.51,44.16,44.16,0,0,0,27,86.44c4.17,4.26,9.84,6.35,14.46,10a5.35,5.35,0,0,1,2,2.1A2.52,2.52,0,0,1,42,100Z"/><path class="cls-197" d="M26.2,85c-1.69-1.09-2.38-2.81-2.8-4.78l3.16,3.26C25.1,83.69,26.11,84.47,26.2,85Z"/><path class="cls-198" d="M42,100A3.75,3.75,0,0,1,43.5,98.5c1,1.33,2.54,1.91,3.73,3a7,7,0,0,1-3.26-.62C44,99.05,42.59,100.36,42,100Z"/><path class="cls-199" d="M84,136.49c-2.62.17-5.76-2.2-6-4.55C80.16,133.28,82.4,134.49,84,136.49Z"/><path class="cls-200" d="M86.34,134.42c-3.19,1.47-3.93-2.13-6.15-2.75A61.85,61.85,0,0,0,86.34,134.42Z"/><path class="cls-201" d="M245.09,90.42c3.07-1.29,5.94.4,8.9.59a.47.47,0,0,0,.32.1c-2.3,1.14-4.51-.26-6.77-.27A14,14,0,0,1,245.09,90.42Z"/><path class="cls-136" d="M201.33,86.92l-14.28-1.44c3-1,5.89.18,8.84.23A11.4,11.4,0,0,1,201.33,86.92Z"/><path class="cls-202" d="M313.09,64.76c1.41,1.16,1.53,2,.7,2.74-.46.44-1.26.57-1.57.06C311.52,66.36,313.41,66.25,313.09,64.76Z"/><path class="cls-203" d="M104.45,88.63c5.63-1.76,5.63-1.76,6,5.24C108.23,92.11,107,89.53,104.45,88.63Z"/><path class="cls-204" d="M360.47,73.94l-.92,0c-.05-.64-1.42-.34-1-1,.69-1.07,1.16-2.61,2.94-2.42C361.31,71.67,361.44,73,360.47,73.94Z"/><path class="cls-205" d="M156.55,80c1.39-1.52,2.2-.08,2.85.75a3.77,3.77,0,0,1,.61,2.82c-.48-.06-.6-.44-.81-.79-.41-.72.18-2.76-1.84-1.46Z"/><path class="cls-206" d="M161.44,82.59l.7,1.4c-1,.87-1.73.93-2.17-.5C160.76,83.68,160.91,82.83,161.44,82.59Z"/><path class="cls-14" d="M117,78c-2.7-2.48-5.9-4.35-8.45-7a2.59,2.59,0,0,1,3.15-.84c.39.13.58.67,1,.6,2.65-.41,4.17,1.08,5.38,3.11-.25,1.33,1.25.22,1.4,1,.06.33,0-.09.15.19.22.48-.14.82-.15,1.23.32-.33.54-.79,1-.91,1.17.45.8,1.24.45,2a3.31,3.31,0,0,1-1.3,1.16.64.64,0,0,1-.64,0Z"/><path class="cls-207" d="M119.09,78.55a.41.41,0,0,0,.4-.07c2.2-1.11,4.58-.88,6.81-.51,7.3,1.22,14.52,2.87,21.9,3.54a1.57,1.57,0,0,1,.71.54c-.58,1.13-1.64.57-2.42.53a134,134,0,0,1-20.9-2.94C123.44,79.19,121.14,79.62,119.09,78.55Z"/><path class="cls-208" d="M148.91,82.05a.79.79,0,0,1-.39-.16,3.92,3.92,0,0,1-2.24-1.24c-2-1.73-4.44-.66-6.67-1-3.46.14-6.84-.71-10.29-.73a2.19,2.19,0,0,1-1.17-.32c-.44-.27-1.32-.31-1.05-1.05s.94-.48,1.5-.21c5.39,1,10.81.83,16.25.57,1.3-.06,3.18-.59,3.13,2,0,.63,1.34,1.29,2.06,2C149.72,82.56,149.29,82.05,148.91,82.05Z"/><path class="cls-209" d="M346.84,88.4c-.88-.11-1.68,1.2-2.65.09-.73-.85-.54-1.53.7-2.32L342,86l1.55-1C346.2,85.4,347.26,86.48,346.84,88.4Z"/><path class="cls-210" d="M273,94.92c.08-.8.51-.93,1.15-.55a6.89,6.89,0,0,0,3.24.7l6.74,1.79-.64.6Z"/><path class="cls-211" d="M96,78.51A3.12,3.12,0,0,1,98.14,80c-1.25,0-2.39.76-3.67.48-2.06-.78-3.89.7-5.89.6-.74.08-1.63.77-2-.5C89.69,79.87,92.94,79.63,96,78.51Z"/><path class="cls-212" d="M86.54,80.56c.53.77,1.37.31,2,.5-1.75.74-3.62.54-6,1.08C84,80.49,85.31,80.67,86.54,80.56Z"/><path class="cls-213" d="M49.23,68.2c-.85,2.26-3.41,1.88-5,3.39C44.78,69.52,45.83,68.85,49.23,68.2Z"/><path class="cls-214" d="M42,65.05c.2-.24.49-.44.6-.72.2-.51.17-1.27,1-1.12.63.12.87.84.9,1.33,0,.73-.73,1-1.28,1.29-.82.42-1.23.08-1.17-.83Z"/><path class="cls-2" d="M105.81,78.64a2.22,2.22,0,0,1,.82,2.48c-.06.14-.52.29-.62.21C105,80.58,105.7,79.57,105.81,78.64Z"/><path class="cls-215" d="M316,99c1.57,2.38,1.31,5.07-.83,6.29C316.26,103.17,315.58,101.11,316,99Z"/><path class="cls-216" d="M319,101.07a18.15,18.15,0,0,1,.55,4.77c0,.44.18,1.1-.52,1.17s-.65-.6-.66-1c0-1.62,0-3.23,0-4.85Z"/><path class="cls-6" d="M313.41,102.64a5,5,0,0,1-.09,4.15A6,6,0,0,1,313.41,102.64Z"/><path class="cls-217" d="M336,110.49a5.44,5.44,0,0,1-2.2-4.52C335.07,107.43,336,108.43,336,110.49Z"/><path class="cls-128" d="M291.52,95.51c.46-.45.59-1.39,1.57-1a.82.82,0,0,1,0,.41c.16.56-.58,1.16.09,1.69-.58.69-1.14.26-1.71,0C291.45,96.21,291.5,95.86,291.52,95.51Z"/><path class="cls-218" d="M325,115c1.08.07,1.78-.73,2.6-1.22.63-.38,1-.32,1.43.25l-5,2.69Z"/><path class="cls-117" d="M291.52,95.51c.55.4.37.74-.1,1a18.39,18.39,0,0,0-4.89-.64C288.12,94.86,289.9,96.17,291.52,95.51Z"/><path class="cls-219" d="M118,73.89c-.47-.51-1.17-.56-1.67-1.24-.77-1-1.73-2.21-3.59-1-1.43.94-1-.36-.73-1.14-1.61-.86-3.65-.56-5-1.94a12.5,12.5,0,0,1-5.45-3.31c.75-.69,1.13,0,1.52.31a15.56,15.56,0,0,0,6.13,2.66,19.88,19.88,0,0,1,8.46,3.44c2.69,2.1,6.31,1.92,9,4.09.94.76,2.4.19,3.6-.27s2.38-1,4.18-.13l-5.76,1.75c-.6.23-1.26,0-1.86.27C123.73,76.47,121,75,118,73.89Z"/><path class="cls-220" d="M126.51,77l2.09.12a.61.61,0,0,1,0,.27l-1.16.24A59.54,59.54,0,0,0,140.1,79.1c-.21,1-1,.51-1.63.67,2.85.1,5.64.66,8.47.77l1.58,1.35c-5.65.55-11-1.6-16.47-2.16-4.18-.42-8.28-1.71-12.56-1.25l1-1C122.46,77.06,124.53,77.66,126.51,77Z"/><path class="cls-221" d="M107,68.58c1.68.65,3.77.23,5,1.94a6.16,6.16,0,0,0-3.44.48,4.56,4.56,0,0,0-1.7-2A.61.61,0,0,0,107,68.58Z"/><path class="cls-222" d="M126.51,77c0,1.27-1,.87-1.58.81-1.49-.15-3,.58-4.47-.33.24-.64,1.32-1.26.07-2-.57.29-.75-.26-1.07-.49l-3.07-.15c.19-1.11,1.18-.54,1.6-1a13.78,13.78,0,0,1,6.16,1.79C125,76.09,125.72,76.56,126.51,77Z"/><path class="cls-223" d="M119.46,75l1.07.49c-.47,1.39-1.28,1.89-2.67,1.17C118,75.56,119.87,76.51,119.46,75Z"/><path class="cls-224" d="M146.94,80.54c-3.2,1.24-6.14-.19-9.18-1l2.34-.47a33.2,33.2,0,0,0,4.24-.14A2.12,2.12,0,0,1,146.94,80.54Z"/></svg>