<svg id="thumbsup_Image" data-name="thumbsup Image" xmlns="http://www.w3.org/2000/svg" viewBox="0 0 425 425">
  <defs>
    <style>
      .cls-1 {
        fill: #fff;
      }

      .cls-2 {
        fill: #c9c9c9;
      }
    </style>
  </defs>
  <title>WDS-logo-full</title>
  <circle class="cls-1" cx="212.5" cy="181.48" r="142.74"/>
  <g>
    <path d="M196.46,105.83,183.05,243.75H157.76q-.28-8.43-.62-15.85t-.91-14.22c-.38-4.54-.82-9-1.29-13.32s-1-8.78-1.63-13.31-1.3-9.24-2.06-14.13-1.6-10.1-2.49-15.66q-1.83,10.73-5.08,32.14t-7.85,53.39l-26.53,1.34L99.72,106.4l24.14-.57q-.1,5.94-.1,12.93-.11,6-.1,13.84v30.79q0,7.19,0,14.13t.1,13.36c0,4.28.11,8.17.24,11.69l13.12-83.43h22.12l10.44,79.5q.2-7.09.43-15t.44-16c.12-5.36.24-10.66.33-15.9s.21-10.25.34-15q.38-16.75.67-33.42Z"/>
    <path d="M264.84,174.88a132.28,132.28,0,0,1-2.15,25.63,81.29,81.29,0,0,1-5.7,18.34,46.05,46.05,0,0,1-8,12.26,39.1,39.1,0,0,1-9.05,7.28,31.36,31.36,0,0,1-8.91,3.49,36.91,36.91,0,0,1-7.56.91l-19.64-1.62q1.24-19.54,1.92-39.32t.67-39.9q0-15.22-.38-30.17t-1.15-29.88c1.53-.13,3-.22,4.5-.29s2.9-.09,4.31-.09q15.9,0,25.86,5.41a39.19,39.19,0,0,1,15.56,15.13,66.15,66.15,0,0,1,7.67,23.18A197.08,197.08,0,0,1,264.84,174.88Zm-19.53-2.58q0-4.7-.2-10t-.81-10.58a82.46,82.46,0,0,0-1.87-10.25,47.62,47.62,0,0,0-3.25-9.15,26.65,26.65,0,0,0-4.94-7.14,16.41,16.41,0,0,0-7-4.21q-.57,10.53-1,20.55t-.72,19.77q-.28,9.78-.43,19.4T224.9,200v12.79q0,6.47.19,13.17a13.5,13.5,0,0,0,7.67-3.36,24.54,24.54,0,0,0,5.51-7.23,45.5,45.5,0,0,0,3.63-9.86,98.51,98.51,0,0,0,2.16-11.3q.76-5.81,1-11.45C245.22,179,245.31,175.49,245.31,172.3Z"/>
    <path d="M323.65,206.11a49.55,49.55,0,0,1-1.58,13.26,36.74,36.74,0,0,1-4.12,9.77,27.77,27.77,0,0,1-5.69,6.71,29.91,29.91,0,0,1-6.47,4.17,28.82,28.82,0,0,1-6.32,2.15,26,26,0,0,1-5.22.62c-.77,0-1.82,0-3.16-.14a43.11,43.11,0,0,1-4.6-.62,58.28,58.28,0,0,1-5.7-1.39,45.24,45.24,0,0,1-6.56-2.54l1-24.14a34.94,34.94,0,0,0,10.11,6.42,22.62,22.62,0,0,0,7.52,1.63q5.94,0,8.95-4.31t3-11.21a28.38,28.38,0,0,0-2.25-10.29,44.11,44.11,0,0,0-8-12.31q-3.93-4.6-8.14-9.58a84.67,84.67,0,0,1-7.66-10.63,59.83,59.83,0,0,1-5.65-12.17A43.61,43.61,0,0,1,271,137.43a47,47,0,0,1,2.64-16.57,33.56,33.56,0,0,1,7-11.59,28.29,28.29,0,0,1,10.1-6.84,32.21,32.21,0,0,1,11.93-2.25,44.15,44.15,0,0,1,11.16,1.48,52.73,52.73,0,0,1,11.44,4.55l-1.82,24.14a23.83,23.83,0,0,0-5.22-5,24.85,24.85,0,0,0-5.27-2.83,21.14,21.14,0,0,0-4.69-1.24,28.41,28.41,0,0,0-3.59-.29,9.82,9.82,0,0,0-5.12,1.39,13.23,13.23,0,0,0-4,3.73,19,19,0,0,0-2.63,5.56,23.43,23.43,0,0,0-1,6.75,20.62,20.62,0,0,0,2.35,9.87,52,52,0,0,0,5.89,8.71q3.54,4.32,7.61,8.86a74.15,74.15,0,0,1,7.62,10.25,58.46,58.46,0,0,1,5.89,13A55.93,55.93,0,0,1,323.65,206.11Z"/>
  </g>
  <ellipse class="cls-2" cx="212.5" cy="266.05" rx="85.63" ry="9.4"/>
  <g>
    <path class="cls-1" d="M66,354.44l-2.94,30.23H57.51c0-1.23-.09-2.39-.14-3.47s-.12-2.12-.2-3.12-.18-2-.28-2.92-.23-1.92-.36-2.92-.28-2-.45-3.09-.35-2.22-.55-3.43q-.39,2.34-1.11,7T52.7,384.47l-5.82.29-2.1-30.19,5.29-.13c0,.87,0,1.81,0,2.83s0,1.9,0,3v6.75c0,1.05,0,2.08,0,3.1s0,2,0,2.92,0,1.8.06,2.57L53,357.36h4.85l2.29,17.43c0-1,.06-2.14.1-3.29s.06-2.32.09-3.5,0-2.33.07-3.48,0-2.25.08-3.3q.08-3.68.14-7.33Z"/>
    <path class="cls-1" d="M79.89,370.48q0,3.31,0,6.64t-.14,6.9l-3.65-.21V381a5.49,5.49,0,0,1-1.43,1.73,6.8,6.8,0,0,1-1.51.89,5.11,5.11,0,0,1-1.66.38,4.11,4.11,0,0,1-1.89-.45,4.85,4.85,0,0,1-1.53-1.21,5.46,5.46,0,0,1-1-1.73,5.62,5.62,0,0,1-.37-2,5.87,5.87,0,0,1,.51-2.36,5.56,5.56,0,0,1,1.76-2.11c1.1-.85,2.06-1.57,2.87-2.14a23.78,23.78,0,0,0,2-1.56A5.94,5.94,0,0,0,75,369a2.77,2.77,0,0,0,.39-1.48,3.73,3.73,0,0,0-.47-2.07,1.4,1.4,0,0,0-1.21-.68,1.3,1.3,0,0,0-.79.24,2,2,0,0,0-.53.63,3.35,3.35,0,0,0-.29.86,5.07,5.07,0,0,0-.09.94q0,.31,0,.69a4.92,4.92,0,0,0,.13.8l-4.83.08-.06-.68c0-.22,0-.43,0-.64a7.89,7.89,0,0,1,.44-2.57A7.27,7.27,0,0,1,69,362.89a6.54,6.54,0,0,1,2.07-1.6,6.09,6.09,0,0,1,2.79-.61,5.43,5.43,0,0,1,3.23.85,5.34,5.34,0,0,1,1.8,2.23,10.34,10.34,0,0,1,.8,3.14A35,35,0,0,1,79.89,370.48Zm-4.73,5.94c.07-.35.14-.75.19-1.19s.11-.84.15-1.38.08-1.14.11-1.81c-.23.3-.45.58-.66.81s-.4.45-.58.63l-.59.57c-.32.27-.67.56-1,.89a10.85,10.85,0,0,0-1,1,6.51,6.51,0,0,0-.75,1.13,2.29,2.29,0,0,0-.31,1.12,1.66,1.66,0,0,0,.4,1.08,1.23,1.23,0,0,0,1,.49,1.9,1.9,0,0,0,.91-.25,3.27,3.27,0,0,0,.9-.71,5.14,5.14,0,0,0,1.27-2.42Z"/>
    <path class="cls-1" d="M89.71,355.51c-.11,1.13-.21,2.24-.29,3.31s-.16,2.14-.23,3.2l1.59-.07c.52,0,1.06-.06,1.6-.12l-.15,4.26c-.53,0-1.07,0-1.62,0H89q-.17,3-.24,5.91c0,1.93-.08,3.87-.08,5.83,0,1,0,2,0,3s0,2,.07,3.08l-4.62.08q.15-4.51.25-8.93t.11-8.91l-1.62.07c-.55,0-1.08.05-1.62.09l.17-4.59c.49.06,1,.12,1.51.16l1.52.11c0-1.09,0-2.17,0-3.21s-.05-2.13-.09-3.22Z"/>
    <path class="cls-1" d="M105.44,383.29a18.22,18.22,0,0,1-3.56.88,21.13,21.13,0,0,1-2.63.21,4.85,4.85,0,0,1-2.25-.5,5.58,5.58,0,0,1-1.67-1.35,7.19,7.19,0,0,1-1.16-1.94,13.37,13.37,0,0,1-.74-2.32A20.17,20.17,0,0,1,93,375.8c-.07-.83-.11-1.62-.11-2.36a27.1,27.1,0,0,1,.44-5.11,15.48,15.48,0,0,1,1.28-4,7.38,7.38,0,0,1,2.08-2.66,4.64,4.64,0,0,1,5.18-.3,5.22,5.22,0,0,1,1.83,2,11.61,11.61,0,0,1,1.16,3.41,25.1,25.1,0,0,1,.41,4.91c0,.53,0,1.07,0,1.61s-.06,1.12-.11,1.7l-7.43,1a9.37,9.37,0,0,0,.26,1.47,5.25,5.25,0,0,0,.48,1.23,2.64,2.64,0,0,0,.72.85,1.68,1.68,0,0,0,1,.31,19.07,19.07,0,0,0,2.27-.13q1.14-.14,2.37-.33Zm-7.83-10.92,3.48-.65v-.8a10.89,10.89,0,0,0-.27-2.76,5.07,5.07,0,0,0-.59-1.44,1.38,1.38,0,0,0-.86-.63,1.3,1.3,0,0,0-1,.57,3.64,3.64,0,0,0-.54,1.29,10.18,10.18,0,0,0-.22,1.77c0,.66,0,1.33,0,2Z"/>
    <path class="cls-1" d="M120,370.92l-1.41.25c-.42.09-.89.2-1.42.34s-1.07.3-1.6.48a18.4,18.4,0,0,0,.28-1.83c.05-.53.08-1,.08-1.44a6.36,6.36,0,0,0-.2-1.78,3.38,3.38,0,0,0-.45-.95,1,1,0,0,0-.5-.38,1.73,1.73,0,0,0-.32-.06,1.28,1.28,0,0,0-1.09.55,4,4,0,0,0-.66,1.47,12,12,0,0,0-.31,2.09c-.06.79-.08,1.59-.08,2.42,0,.58,0,1.17,0,1.76s0,1.18.06,1.76l.29,8.26-4.85.33q0-5.06-.09-9.12t-.2-6.94c-.08-2.24-.18-4.23-.27-6l4.13-.28.21,2.38a7.1,7.1,0,0,1,1.29-2.14,6,6,0,0,1,1.49-1.17,4.47,4.47,0,0,1,1.37-.49,6.19,6.19,0,0,1,.93-.11,2.37,2.37,0,0,1,1.75.68,4.91,4.91,0,0,1,1,1.76,10.27,10.27,0,0,1,.51,2.35,23.6,23.6,0,0,1,.14,2.47q0,.94-.06,1.8C120,370,120,370.47,120,370.92Z"/>
    <path class="cls-1" d="M134.65,370.52c-.06,1.68-.12,3.31-.17,4.87,0,.68-.06,1.37-.09,2.08s-.06,1.41-.09,2.09-.07,1.33-.09,1.95-.06,1.18-.09,1.65l-4.6.44c.11-1.84.21-3.46.28-4.86s.12-2.59.15-3.59.06-1.83.08-2.51,0-1.21,0-1.61,0-.71,0-.91,0-.32,0-.37a15.93,15.93,0,0,0-.1-1.91,4.92,4.92,0,0,0-.26-1.16,1.14,1.14,0,0,0-.41-.57,1.09,1.09,0,0,0-.54-.14,2.29,2.29,0,0,0-.76.13,1.56,1.56,0,0,0-.7.55,3.42,3.42,0,0,0-.49,1.16,9,9,0,0,0-.19,2c0,1.6,0,3.15,0,4.67s0,2.89.06,4.11q0,2.11.06,4.05l-5,.46c.11-1.48.19-2.93.22-4.35s0-2.68,0-3.82q0-3.18-.13-6.33t-.47-6.52c.89,0,1.63-.06,2.2-.1a13.29,13.29,0,0,0,1.36-.15,4.84,4.84,0,0,0,.91-.19l0,2.54a10.7,10.7,0,0,1,1-1.34,7.09,7.09,0,0,1,1.12-1.08,5.49,5.49,0,0,1,1.23-.72,3.48,3.48,0,0,1,1.31-.26,6.56,6.56,0,0,1,1.33.12,2.31,2.31,0,0,1,1,.44,2.65,2.65,0,0,1,.73.9,7.07,7.07,0,0,1,.5,1.48,10.14,10.14,0,0,1,.83-1.12,6.34,6.34,0,0,1,1-.95A4.57,4.57,0,0,1,137,361a3.85,3.85,0,0,1,1.34-.23,6.23,6.23,0,0,1,2,.27,2.42,2.42,0,0,1,1.29,1.11,6.48,6.48,0,0,1,.71,2.35,28.68,28.68,0,0,1,.22,4c0,2.39-.05,4.79-.17,7.19s-.23,4.88-.35,7.42l-4.6.44c.17-2.57.28-4.74.34-6.49s.11-3.18.12-4.26,0-1.85,0-2.34,0-.75,0-.81a12.21,12.21,0,0,0-.12-1.89,4,4,0,0,0-.31-1.14,1,1,0,0,0-1-.7l-.42,0a1.06,1.06,0,0,0-.48.21,1.94,1.94,0,0,0-.5.55,4.84,4.84,0,0,0-.45,1.05c0,.63.07,1.19.08,1.68S134.65,370.33,134.65,370.52Z"/>
    <path class="cls-1" d="M157.34,370.48q0,3.31,0,6.64t-.14,6.9l-3.65-.21V381a5.36,5.36,0,0,1-1.43,1.73,6.59,6.59,0,0,1-1.51.89,5,5,0,0,1-1.66.38,4.11,4.11,0,0,1-1.89-.45,5,5,0,0,1-1.53-1.21,5.78,5.78,0,0,1-.87-6.12,5.53,5.53,0,0,1,1.75-2.11c1.11-.85,2.07-1.57,2.88-2.14a25.48,25.48,0,0,0,2-1.56,6.12,6.12,0,0,0,1.19-1.35,2.77,2.77,0,0,0,.39-1.48,3.73,3.73,0,0,0-.46-2.07,1.43,1.43,0,0,0-1.22-.68,1.3,1.3,0,0,0-.79.24,2,2,0,0,0-.52.63,3.79,3.79,0,0,0-.3.86,5.07,5.07,0,0,0-.09.94q0,.31,0,.69a5,5,0,0,0,.14.8l-4.83.08c0-.23-.05-.46-.06-.68s0-.43,0-.64a7.63,7.63,0,0,1,.44-2.57,6.9,6.9,0,0,1,1.29-2.27,6.32,6.32,0,0,1,2.07-1.6,6.09,6.09,0,0,1,2.79-.61,5,5,0,0,1,5,3.08,10.05,10.05,0,0,1,.79,3.14A35,35,0,0,1,157.34,370.48Zm-4.72,5.94c.07-.35.13-.75.19-1.19s.1-.84.14-1.38.08-1.14.11-1.81a10,10,0,0,1-.65.81c-.21.24-.41.45-.59.63l-.59.57c-.32.27-.66.56-1,.89a10.73,10.73,0,0,0-1,1,6.58,6.58,0,0,0-.76,1.13,2.38,2.38,0,0,0-.3,1.12,1.66,1.66,0,0,0,.4,1.08,1.2,1.2,0,0,0,1,.49,1.93,1.93,0,0,0,.92-.25,3.6,3.6,0,0,0,.9-.71,5.28,5.28,0,0,0,.76-1.07A5,5,0,0,0,152.62,376.42Z"/>
    <path class="cls-1" d="M168.32,383.73c.31-2.25.53-4.54.67-6.84s.19-4.74.19-7.27a10.23,10.23,0,0,0-.16-2.05,3.68,3.68,0,0,0-.44-1.17,1.31,1.31,0,0,0-.59-.53,2,2,0,0,0-.61-.11,2.3,2.3,0,0,0-.79.14,1.69,1.69,0,0,0-.68.57,4.46,4.46,0,0,0-.58,1.18,12.52,12.52,0,0,0-.45,2,29.63,29.63,0,0,0-.28,3c-.07,1.19-.1,2.6-.1,4.24v1.83c0,.64,0,1.24,0,1.82s0,1.08,0,1.52a7.56,7.56,0,0,0,.06.93l-4.75,0c0-1.27.08-2.41.1-3.41s0-1.92.05-2.76,0-1.63,0-2.36,0-1.46,0-2.18,0-1.3,0-2,0-1.41,0-2.19,0-1.64,0-2.58-.05-2-.08-3.09l4.92-.13-.09,2.14a7.24,7.24,0,0,1,1.22-1.71,5.86,5.86,0,0,1,1.29-1,4.22,4.22,0,0,1,1.25-.48,6.58,6.58,0,0,1,1.09-.11,2.79,2.79,0,0,1,2.14.9,6.41,6.41,0,0,1,1.34,2.4,16.37,16.37,0,0,1,.68,3.44,39.79,39.79,0,0,1,.19,4c0,1,0,2-.07,3.06s-.11,2.06-.17,3.06-.14,2-.21,2.9-.15,1.79-.2,2.59Z"/>
    <path class="cls-1" d="M196.73,369.58a29.32,29.32,0,0,1-.47,5.61,18,18,0,0,1-1.25,4,10.11,10.11,0,0,1-1.75,2.68,8.58,8.58,0,0,1-2,1.6,6.71,6.71,0,0,1-2,.76,7.75,7.75,0,0,1-1.66.21l-4.3-.36q.27-4.29.42-8.62t.14-8.75c0-2.22,0-4.43-.08-6.61s-.14-4.37-.25-6.55l1-.06c.33,0,.64,0,1,0a11.87,11.87,0,0,1,5.67,1.18A8.64,8.64,0,0,1,194.6,358a14.41,14.41,0,0,1,1.68,5.08A43.27,43.27,0,0,1,196.73,369.58Zm-4.28-.57c0-.68,0-1.42,0-2.19s-.09-1.55-.18-2.32a18.23,18.23,0,0,0-.41-2.25,9.62,9.62,0,0,0-.72-2,5.75,5.75,0,0,0-1.08-1.57,3.55,3.55,0,0,0-1.54-.92c-.08,1.54-.16,3-.22,4.5s-.12,2.91-.16,4.34-.07,2.84-.09,4.25,0,2.82,0,4.23v2.8c0,.95,0,1.91,0,2.89a3,3,0,0,0,1.68-.74,5.43,5.43,0,0,0,1.21-1.58,10.54,10.54,0,0,0,.79-2.16,22.18,22.18,0,0,0,.48-2.48c.11-.85.18-1.68.22-2.51S192.45,369.71,192.45,369Z"/>
    <path class="cls-1" d="M210.8,383.29a18.22,18.22,0,0,1-3.56.88,21.13,21.13,0,0,1-2.63.21,4.85,4.85,0,0,1-2.25-.5,5.46,5.46,0,0,1-1.67-1.35,7.48,7.48,0,0,1-1.17-1.94,14.26,14.26,0,0,1-.73-2.32,20.17,20.17,0,0,1-.39-2.47c-.08-.83-.11-1.62-.11-2.36a27.1,27.1,0,0,1,.44-5.11,15.48,15.48,0,0,1,1.28-4,7.38,7.38,0,0,1,2.08-2.66,4.64,4.64,0,0,1,5.18-.3,5.3,5.3,0,0,1,1.83,2,11.61,11.61,0,0,1,1.16,3.41,25.1,25.1,0,0,1,.41,4.91c0,.53,0,1.07,0,1.61s-.06,1.12-.11,1.7l-7.44,1a10.67,10.67,0,0,0,.27,1.47,4.85,4.85,0,0,0,.48,1.23,2.64,2.64,0,0,0,.72.85,1.68,1.68,0,0,0,1,.31,19.2,19.2,0,0,0,2.27-.13q1.14-.14,2.37-.33ZM203,372.37l3.48-.65v-.8a10.89,10.89,0,0,0-.27-2.76,5.07,5.07,0,0,0-.59-1.44,1.38,1.38,0,0,0-.86-.63,1.28,1.28,0,0,0-1,.57,3.64,3.64,0,0,0-.54,1.29,10.18,10.18,0,0,0-.22,1.77c0,.66,0,1.33,0,2Z"/>
    <path class="cls-1" d="M222.62,377.58a7.08,7.08,0,0,1-.62,3.12,5.86,5.86,0,0,1-1.55,2,5.71,5.71,0,0,1-2,1.08,7.38,7.38,0,0,1-2.1.33,8.34,8.34,0,0,1-1.43-.17,7.72,7.72,0,0,1-1.29-.39,3.94,3.94,0,0,1-1.23-.76l.17-4.79a6.8,6.8,0,0,0,1.53.94,10.45,10.45,0,0,0,1.43.51,8.77,8.77,0,0,0,1.47.23,2.23,2.23,0,0,0,.91-.89,2.59,2.59,0,0,0,.33-1.3,3.38,3.38,0,0,0-.28-1.29,4.18,4.18,0,0,0-.88-1.29l-1.39-1.42a16.43,16.43,0,0,1-1.56-1.87,11.86,11.86,0,0,1-1.26-2.34,7.45,7.45,0,0,1-.51-2.79,8.67,8.67,0,0,1,.41-2.72,6.4,6.4,0,0,1,1.15-2.11,5.17,5.17,0,0,1,1.79-1.36,5.36,5.36,0,0,1,2.28-.49,8.87,8.87,0,0,1,2.18.31,13.29,13.29,0,0,1,2.5.95l-.34,4.9a5,5,0,0,0-1.15-.79,8.86,8.86,0,0,0-1.13-.47,6,6,0,0,0-1.2-.25,2.27,2.27,0,0,0-1.37.82,2.71,2.71,0,0,0-.56,1.76,3.51,3.51,0,0,0,.41,1.75,6.52,6.52,0,0,0,1,1.41q.62.66,1.35,1.32A10.4,10.4,0,0,1,221,373a8.59,8.59,0,0,1,1.1,1.93A7.52,7.52,0,0,1,222.62,377.58Z"/>
    <path class="cls-1" d="M231.06,356a3.38,3.38,0,0,1-.21,1.21,2.71,2.71,0,0,1-.63,1,3,3,0,0,1-1.06.64,4.55,4.55,0,0,1-1.5.23,4.86,4.86,0,0,1-1.59-.23,3,3,0,0,1-1-.64,2.35,2.35,0,0,1-.58-1,3.89,3.89,0,0,1-.18-1.21,3.52,3.52,0,0,1,.19-1.18,2.37,2.37,0,0,1,.6-1,2.74,2.74,0,0,1,1.06-.66,4.47,4.47,0,0,1,1.55-.24,4.37,4.37,0,0,1,1.54.24,2.78,2.78,0,0,1,1.05.66,2.62,2.62,0,0,1,.61,1A3.52,3.52,0,0,1,231.06,356Zm-1.26,6.11c-.08.77-.15,1.6-.21,2.48s-.1,1.79-.15,2.74-.07,1.9-.08,2.88,0,1.92,0,2.86c0,1.09,0,2.15,0,3.16s0,1.95.08,2.8.08,1.61.13,2.27a14.69,14.69,0,0,0,.18,1.54c-.56,0-1.14,0-1.74,0l-1.75.1c-.64,0-1.28.11-1.93.19.24-2.52.4-4.82.48-6.92s.13-4,.13-5.64c0-1.42,0-2.67-.07-3.74s-.1-2-.16-2.72-.13-1.61-.21-2.23c.78.1,1.5.16,2.15.19s1.22,0,1.69,0H229a3.1,3.1,0,0,0,.46,0A2.06,2.06,0,0,0,229.8,362.06Z"/>
    <path class="cls-1" d="M245.36,378.23c-.06,1.65-.11,3.11-.17,4.38a26.24,26.24,0,0,1-.34,3.32,8.28,8.28,0,0,1-.75,2.4,4.1,4.1,0,0,1-1.4,1.55,6.12,6.12,0,0,1-2.27.85,17.84,17.84,0,0,1-3.36.26c-.66,0-1.37,0-2.13-.07a23.61,23.61,0,0,1-2.43-.3l.17-4.62,2.74.17,2,.1c.63,0,1.18.07,1.64.08a1.64,1.64,0,0,0,1.52-1.17,9.07,9.07,0,0,0,.58-3.26,5.36,5.36,0,0,1-.85,1.37,4.52,4.52,0,0,1-1,.83,3.26,3.26,0,0,1-1,.41,4.08,4.08,0,0,1-.87.1,4,4,0,0,1-2.13-.65,5.6,5.6,0,0,1-1.87-2.15,14.32,14.32,0,0,1-1.36-3.93,28.85,28.85,0,0,1-.52-6,23.41,23.41,0,0,1,.45-4.87,13.86,13.86,0,0,1,1.2-3.53,6.25,6.25,0,0,1,1.75-2.15,3.45,3.45,0,0,1,2.06-.73,4,4,0,0,1,1.08.17,3.68,3.68,0,0,1,1.16.6,5.18,5.18,0,0,1,1.12,1.16,7.09,7.09,0,0,1,.94,1.85l0-2.58,3.73.19Zm-4.6-4.31c0-.43,0-.94,0-1.54s0-1.21-.06-1.85-.1-1.26-.2-1.88a10,10,0,0,0-.41-1.65,3.48,3.48,0,0,0-.68-1.19,1.38,1.38,0,0,0-1.05-.45,1.41,1.41,0,0,0-1.25.67,5,5,0,0,0-.68,1.72,14.41,14.41,0,0,0-.26,2.31c0,.84,0,1.65,0,2.44,0,.54,0,1.12,0,1.72s.06,1.2.12,1.79a14,14,0,0,0,.25,1.69,7.74,7.74,0,0,0,.42,1.42,2.85,2.85,0,0,0,.62,1,1.18,1.18,0,0,0,.87.35,1.36,1.36,0,0,0,1.07-.51,3.91,3.91,0,0,0,.72-1.4,9.86,9.86,0,0,0,.41-2.06A22.94,22.94,0,0,0,240.76,373.92Z"/>
    <path class="cls-1" d="M256.38,383.73c.31-2.25.53-4.54.66-6.84s.2-4.74.2-7.27a9.44,9.44,0,0,0-.17-2.05,3.25,3.25,0,0,0-.44-1.17,1.29,1.29,0,0,0-.58-.53,2,2,0,0,0-.61-.11,2.26,2.26,0,0,0-.79.14,1.63,1.63,0,0,0-.68.57,4.46,4.46,0,0,0-.58,1.18,10.64,10.64,0,0,0-.45,2c-.13.83-.22,1.83-.29,3s-.09,2.6-.09,4.24v1.83c0,.64,0,1.24,0,1.82s0,1.08,0,1.52,0,.75,0,.93l-4.74,0c0-1.27.07-2.41.09-3.41s0-1.92.06-2.76,0-1.63,0-2.36,0-1.46,0-2.18,0-1.3,0-2,0-1.41,0-2.19,0-1.64-.05-2.58,0-2-.07-3.09l4.91-.13-.08,2.14A7,7,0,0,1,254,362.7a5.86,5.86,0,0,1,1.29-1,4.22,4.22,0,0,1,1.25-.48,6.48,6.48,0,0,1,1.09-.11,2.79,2.79,0,0,1,2.14.9,6.27,6.27,0,0,1,1.33,2.4,16.34,16.34,0,0,1,.69,3.44c.12,1.28.19,2.62.19,4,0,1,0,2-.08,3.06s-.1,2.06-.16,3.06-.14,2-.22,2.9-.14,1.79-.19,2.59Z"/>
    <path class="cls-1" d="M282.21,376.42a10.94,10.94,0,0,1-.35,2.91,8.11,8.11,0,0,1-.9,2.14,5.91,5.91,0,0,1-1.25,1.47,6.6,6.6,0,0,1-1.42.92,6.33,6.33,0,0,1-1.39.47,5.86,5.86,0,0,1-1.14.14l-.69,0a8.75,8.75,0,0,1-1-.13,11.33,11.33,0,0,1-1.25-.31,11,11,0,0,1-1.44-.55l.23-5.3a7.63,7.63,0,0,0,2.22,1.41,4.93,4.93,0,0,0,1.65.36,2.25,2.25,0,0,0,2-1,4.2,4.2,0,0,0,.66-2.45,6.2,6.2,0,0,0-.49-2.26,9.85,9.85,0,0,0-1.76-2.7l-1.78-2.1a17.68,17.68,0,0,1-1.68-2.33,13.21,13.21,0,0,1-1.24-2.66,9.71,9.71,0,0,1-.48-3.09,10.16,10.16,0,0,1,.58-3.63,7.35,7.35,0,0,1,1.54-2.54,6.1,6.1,0,0,1,2.21-1.51,7.29,7.29,0,0,1,2.62-.49,9.48,9.48,0,0,1,2.44.33,11.38,11.38,0,0,1,2.51,1l-.4,5.29a5.34,5.34,0,0,0-1.14-1.1,5.49,5.49,0,0,0-1.16-.62,4.56,4.56,0,0,0-1-.27,6.56,6.56,0,0,0-.79-.06,2.16,2.16,0,0,0-1.12.3,2.89,2.89,0,0,0-.89.82,4.17,4.17,0,0,0-.57,1.22,5.14,5.14,0,0,0-.21,1.48,4.53,4.53,0,0,0,.51,2.16,11.06,11.06,0,0,0,1.29,1.91c.52.63,1.08,1.28,1.67,1.94a16.42,16.42,0,0,1,1.67,2.25,12.52,12.52,0,0,1,1.29,2.86A12.29,12.29,0,0,1,282.21,376.42Z"/>
    <path class="cls-1" d="M296.69,371.82a37.2,37.2,0,0,1-.23,4.5,19.09,19.09,0,0,1-.66,3.35,9.57,9.57,0,0,1-1,2.35,6.11,6.11,0,0,1-1.32,1.5,4.54,4.54,0,0,1-1.56.8,6.68,6.68,0,0,1-1.73.23,7.24,7.24,0,0,1-1.69-.19,4.26,4.26,0,0,1-1.5-.69,5.45,5.45,0,0,1-1.27-1.37,8.06,8.06,0,0,1-1-2.2,18.49,18.49,0,0,1-.62-3.21,37.43,37.43,0,0,1-.22-4.39,28.53,28.53,0,0,1,.55-6.2,12.08,12.08,0,0,1,1.46-3.81,5.07,5.07,0,0,1,2.06-1.93,5.53,5.53,0,0,1,2.37-.53,8.43,8.43,0,0,1,1.57.15,4.3,4.3,0,0,1,1.49.62,5.44,5.44,0,0,1,1.31,1.28,7.83,7.83,0,0,1,1.05,2.13,18.16,18.16,0,0,1,.69,3.18A33.49,33.49,0,0,1,296.69,371.82Zm-4.51.17a29.57,29.57,0,0,0-.15-3.3,10.43,10.43,0,0,0-.4-2.05,2.22,2.22,0,0,0-.6-1,1.23,1.23,0,0,0-.78-.28,1.07,1.07,0,0,0-.84.41,3.27,3.27,0,0,0-.6,1.31,14.66,14.66,0,0,0-.37,2.32q-.12,1.41-.12,3.45a31.9,31.9,0,0,0,.15,3.41,11.36,11.36,0,0,0,.44,2.17,2.62,2.62,0,0,0,.68,1.14,1.27,1.27,0,0,0,.83.34c.61,0,1.06-.64,1.34-1.91A30.61,30.61,0,0,0,292.18,372Z"/>
    <path class="cls-1" d="M303.58,383.29c-.36,0-.78,0-1.24.08l-1.37.11c-.53,0-1.11.1-1.74.17q-.18-7.12-.39-12.59c-.15-3.65-.27-6.73-.38-9.25q-.21-4.41-.42-7.66l5.46-.26v8.54c0,2.53,0,4.77,0,6.74s0,3.68,0,5.14,0,2.72,0,3.77C303.55,380.53,303.57,382.27,303.58,383.29Z"/>
    <path class="cls-1" d="M319.43,363.13q-.17,3.39-.23,6.69t-.06,6.65c0,1.31,0,2.61,0,3.9s0,2.59.07,3.91l-4.18.1v-2.62a5.3,5.3,0,0,1-1.4,1.57,6.14,6.14,0,0,1-1.48.79,4.71,4.71,0,0,1-1.21.27l-.59,0a4.16,4.16,0,0,1-2.19-1.16,6.51,6.51,0,0,1-1.39-2.23,12.9,12.9,0,0,1-.72-3,28.51,28.51,0,0,1-.21-3.53c0-1.06,0-2.15.12-3.25s.19-2.2.32-3.27.26-2.1.42-3.11.31-1.93.46-2.8l4.58.09c-.13.82-.26,1.72-.39,2.68s-.25,2-.36,3-.19,2-.25,3-.09,2-.09,2.89,0,1.62.1,2.35a10.31,10.31,0,0,0,.34,1.9,3.52,3.52,0,0,0,.59,1.26,1.15,1.15,0,0,0,.92.45,1.35,1.35,0,0,0,1.17-.86,8.1,8.1,0,0,0,.73-2.26,26.48,26.48,0,0,0,.36-3.14q.09-1.74.09-3.51c0-.88,0-1.72,0-2.52s-.06-1.51-.09-2.14-.08-1.4-.12-2Z"/>
    <path class="cls-1" d="M329.15,355.51c-.11,1.13-.21,2.24-.29,3.31s-.16,2.14-.23,3.2l1.58-.07c.53,0,1.06-.06,1.61-.12l-.15,4.26c-.53,0-1.07,0-1.62,0h-1.63q-.17,3-.24,5.91c-.05,1.93-.08,3.87-.08,5.83,0,1,0,2,0,3s0,2,.07,3.08l-4.62.08q.15-4.51.25-8.93t.11-8.91l-1.62.07c-.55,0-1.08.05-1.62.09l.17-4.59c.49.06,1,.12,1.51.16l1.51.11c0-1.09,0-2.17,0-3.21s-.05-2.13-.09-3.22Z"/>
    <path class="cls-1" d="M339.53,356a3.38,3.38,0,0,1-.21,1.21,2.71,2.71,0,0,1-.63,1,3.1,3.1,0,0,1-1.06.64,4.55,4.55,0,0,1-1.5.23,4.82,4.82,0,0,1-1.59-.23,2.87,2.87,0,0,1-1.05-.64,2.49,2.49,0,0,1-.59-1,3.89,3.89,0,0,1-.18-1.21,3.79,3.79,0,0,1,.19-1.18,2.6,2.6,0,0,1,.6-1,2.82,2.82,0,0,1,1.06-.66,4.53,4.53,0,0,1,1.56-.24,4.41,4.41,0,0,1,1.54.24,2.86,2.86,0,0,1,1.05.66,2.75,2.75,0,0,1,.61,1A3.52,3.52,0,0,1,339.53,356Zm-1.26,6.11c-.09.77-.16,1.6-.21,2.48s-.11,1.79-.15,2.74-.07,1.9-.08,2.88,0,1.92,0,2.86c0,1.09,0,2.15,0,3.16s.05,1.95.08,2.8.08,1.61.13,2.27a12.4,12.4,0,0,0,.18,1.54c-.57,0-1.15,0-1.75,0l-1.74.1c-.64,0-1.29.11-1.93.19.24-2.52.4-4.82.48-6.92s.13-4,.13-5.64c0-1.42,0-2.67-.08-3.74s-.1-2-.15-2.72-.13-1.61-.21-2.23c.78.1,1.5.16,2.15.19s1.21,0,1.69,0h.61a3.17,3.17,0,0,0,.46,0A2.12,2.12,0,0,0,338.27,362.06Z"/>
    <path class="cls-1" d="M352.92,371.82a37.2,37.2,0,0,1-.23,4.5,19.09,19.09,0,0,1-.66,3.35,9.57,9.57,0,0,1-1,2.35,6.11,6.11,0,0,1-1.32,1.5,4.58,4.58,0,0,1-1.57.8,6.6,6.6,0,0,1-1.72.23,7.18,7.18,0,0,1-1.69-.19,4.26,4.26,0,0,1-1.5-.69,5.45,5.45,0,0,1-1.27-1.37,8.38,8.38,0,0,1-1-2.2,20.58,20.58,0,0,1-.62-3.21,39.74,39.74,0,0,1-.22-4.39,28.45,28.45,0,0,1,.56-6.2,12.08,12.08,0,0,1,1.46-3.81,5.07,5.07,0,0,1,2.06-1.93,5.53,5.53,0,0,1,2.37-.53,8.24,8.24,0,0,1,1.56.15,4.14,4.14,0,0,1,1.49.62,5.47,5.47,0,0,1,1.32,1.28,8.13,8.13,0,0,1,1.05,2.13,18.16,18.16,0,0,1,.69,3.18A33.49,33.49,0,0,1,352.92,371.82Zm-4.51.17a29.57,29.57,0,0,0-.15-3.3,10.43,10.43,0,0,0-.4-2.05,2.23,2.23,0,0,0-.61-1,1.18,1.18,0,0,0-.77-.28,1,1,0,0,0-.84.41A3.27,3.27,0,0,0,345,367a13.59,13.59,0,0,0-.37,2.32c-.08.94-.13,2.09-.13,3.45a31.55,31.55,0,0,0,.16,3.41,10.64,10.64,0,0,0,.44,2.17,2.62,2.62,0,0,0,.68,1.14,1.24,1.24,0,0,0,.82.34c.62,0,1.07-.64,1.35-1.91A30.61,30.61,0,0,0,348.41,372Z"/>
    <path class="cls-1" d="M363.46,383.73c.31-2.25.53-4.54.66-6.84s.2-4.74.2-7.27a9.44,9.44,0,0,0-.17-2.05,3.25,3.25,0,0,0-.44-1.17,1.24,1.24,0,0,0-.58-.53,2,2,0,0,0-.61-.11,2.26,2.26,0,0,0-.79.14,1.69,1.69,0,0,0-.68.57,4.46,4.46,0,0,0-.58,1.18,10.64,10.64,0,0,0-.45,2,29.63,29.63,0,0,0-.28,3c-.07,1.19-.1,2.6-.1,4.24v1.83c0,.64,0,1.24,0,1.82s0,1.08,0,1.52,0,.75.05.93L355,383c0-1.27.07-2.41.09-3.41s0-1.92.06-2.76,0-1.63,0-2.36,0-1.46,0-2.18,0-1.3,0-2,0-1.41,0-2.19,0-1.64,0-2.58-.05-2-.08-3.09l4.92-.13-.09,2.14a7,7,0,0,1,1.22-1.71,5.86,5.86,0,0,1,1.29-1,4.22,4.22,0,0,1,1.25-.48,6.58,6.58,0,0,1,1.09-.11,2.79,2.79,0,0,1,2.14.9,6.41,6.41,0,0,1,1.34,2.4,17,17,0,0,1,.68,3.44c.12,1.28.19,2.62.19,4,0,1,0,2-.08,3.06s-.1,2.06-.16,3.06-.14,2-.21,2.9-.15,1.79-.2,2.59Z"/>
    <path class="cls-1" d="M381.25,377.58a7.08,7.08,0,0,1-.62,3.12,6,6,0,0,1-1.56,2,5.59,5.59,0,0,1-2,1.08,7.49,7.49,0,0,1-2.1.33,8.34,8.34,0,0,1-1.43-.17,7.2,7.2,0,0,1-1.29-.39,3.73,3.73,0,0,1-1.23-.76l.17-4.79a6.58,6.58,0,0,0,1.53.94,10,10,0,0,0,1.43.51,8.61,8.61,0,0,0,1.47.23,2.29,2.29,0,0,0,.91-.89,2.59,2.59,0,0,0,.33-1.3,3.41,3.41,0,0,0-.29-1.29,4.32,4.32,0,0,0-.87-1.29c-.39-.39-.86-.86-1.4-1.42a17.5,17.5,0,0,1-1.55-1.87,10.9,10.9,0,0,1-1.26-2.34,7.45,7.45,0,0,1-.51-2.79,8.39,8.39,0,0,1,.41-2.72,6.22,6.22,0,0,1,1.15-2.11,5.08,5.08,0,0,1,1.79-1.36,5.35,5.35,0,0,1,2.27-.49,9,9,0,0,1,2.19.31,13.55,13.55,0,0,1,2.5.95l-.34,4.9a5,5,0,0,0-1.15-.79,8.39,8.39,0,0,0-1.14-.47,5.7,5.7,0,0,0-1.2-.25,2.25,2.25,0,0,0-1.36.82,2.66,2.66,0,0,0-.57,1.76,3.62,3.62,0,0,0,.41,1.75,7.27,7.27,0,0,0,1,1.41c.41.44.87.88,1.35,1.32a10.45,10.45,0,0,1,1.38,1.5,8.57,8.57,0,0,1,1.09,1.93A7.51,7.51,0,0,1,381.25,377.58Z"/>
  </g>
</svg>
