<svg id="thumbsup_Image" data-name="thumbsup Image" xmlns="http://www.w3.org/2000/svg" viewBox="0 0 1790.94 329.85"><defs><style>.cls-1{fill:#fff;}.cls-2{fill:#c9c9c9;}</style></defs><title>WDS-logo-banner</title><circle class="cls-1" cx="213.9" cy="164.93" r="142.74"/><path d="M197.86,89.27,184.45,227.19H159.17c-.2-5.62-.4-10.9-.63-15.85s-.52-9.69-.91-14.22-.81-9-1.29-13.32-1-8.78-1.63-13.31-1.29-9.24-2.06-14.13-1.59-10.1-2.49-15.66q-1.82,10.74-5.08,32.14t-7.85,53.4l-26.53,1.34L101.12,89.84l24.14-.57q-.11,5.94-.1,12.93-.09,6-.09,13.84v30.79q0,7.18.05,14.13t.09,13.36q0,6.42.24,11.69l13.12-83.43H160.7l10.44,79.5q.18-7.08.43-15t.43-16q.19-8,.33-15.9c.1-5.23.21-10.25.34-15q.39-16.77.67-33.43Z"/><path d="M266.25,158.33A132.17,132.17,0,0,1,264.09,184a80.12,80.12,0,0,1-5.7,18.34,45.88,45.88,0,0,1-8,12.26,39,39,0,0,1-9.05,7.28,31.93,31.93,0,0,1-8.91,3.5,37.8,37.8,0,0,1-7.57.91l-19.63-1.63q1.24-19.55,1.91-39.32t.67-39.89q0-15.24-.38-30.18t-1.15-29.88c1.53-.13,3-.22,4.5-.29S213.7,85,215.1,85Q231,85,241,90.37a39.28,39.28,0,0,1,15.57,15.13,66.14,66.14,0,0,1,7.66,23.18A197.15,197.15,0,0,1,266.25,158.33Zm-19.54-2.59c0-3.13-.07-6.46-.19-10s-.4-7.07-.82-10.58a82.79,82.79,0,0,0-1.86-10.25,47.62,47.62,0,0,0-3.26-9.15,26.57,26.57,0,0,0-4.93-7.13,16.39,16.39,0,0,0-7-4.22q-.59,10.55-1,20.55t-.72,19.78q-.28,9.77-.43,19.39t-.14,19.3v12.79q0,6.47.19,13.17a13.53,13.53,0,0,0,7.66-3.35,24.55,24.55,0,0,0,5.51-7.24,46,46,0,0,0,3.64-9.86,100.71,100.71,0,0,0,2.15-11.3q.76-5.81,1-11.45T246.71,155.74Z"/><path d="M325.06,189.55a50,50,0,0,1-1.58,13.27,37.55,37.55,0,0,1-4.12,9.77,27.52,27.52,0,0,1-5.7,6.7,29.31,29.31,0,0,1-6.47,4.17,28.82,28.82,0,0,1-6.32,2.15,26,26,0,0,1-5.22.63c-.76,0-1.82-.05-3.16-.15a40.24,40.24,0,0,1-4.59-.62,56.92,56.92,0,0,1-5.7-1.39,44.37,44.37,0,0,1-6.56-2.54l1.05-24.13a34.93,34.93,0,0,0,10.1,6.41,22.62,22.62,0,0,0,7.52,1.63q5.94,0,9-4.31t3-11.21A28.41,28.41,0,0,0,304,179.64a44.2,44.2,0,0,0-8-12.31q-3.93-4.61-8.14-9.58a83.74,83.74,0,0,1-7.67-10.63A60.54,60.54,0,0,1,274.58,135a43.69,43.69,0,0,1-2.2-14.08A46.88,46.88,0,0,1,275,104.31a33.52,33.52,0,0,1,7-11.59,28.23,28.23,0,0,1,10.11-6.85,32.16,32.16,0,0,1,11.92-2.25,44.15,44.15,0,0,1,11.16,1.48,52.8,52.8,0,0,1,11.45,4.55l-1.82,24.14a24.06,24.06,0,0,0-5.22-5,25.56,25.56,0,0,0-5.27-2.83,21.78,21.78,0,0,0-4.7-1.24,28.27,28.27,0,0,0-3.59-.29,9.91,9.91,0,0,0-5.12,1.39,13,13,0,0,0-4,3.74,18.55,18.55,0,0,0-2.64,5.55,23.43,23.43,0,0,0-1,6.75,20.62,20.62,0,0,0,2.35,9.87,53.08,53.08,0,0,0,5.89,8.72q3.54,4.31,7.62,8.86a74,74,0,0,1,7.61,10.24,58.22,58.22,0,0,1,5.89,13A56,56,0,0,1,325.06,189.55Z"/><ellipse class="cls-2" cx="213.9" cy="249.49" rx="85.63" ry="9.4"/><path class="cls-1" d="M489.62,95.89,478,215.15H456.16c-.17-4.85-.34-9.42-.54-13.7s-.45-8.38-.78-12.3-.71-7.76-1.12-11.51-.89-7.59-1.41-11.52-1.12-8-1.78-12.21-1.38-8.74-2.15-13.54q-1.58,9.27-4.39,27.78t-6.8,46.18l-22.94,1.15L406,96.39l20.87-.5q-.07,5.14-.08,11.19c-.06,3.47-.08,7.47-.08,12v26.63q0,6.21,0,12.21c0,4,0,7.86.08,11.56s.1,7.07.21,10.1l11.34-72.13h19.14l9,68.74q.17-6.14.38-13t.37-13.79q.17-7,.29-13.75t.29-13q.33-14.5.58-28.91Z"/><path class="cls-1" d="M544.45,159.17q0,13.08-.13,26.17t-.54,27.25l-14.41-.83V200.58a21.13,21.13,0,0,1-5.63,6.83,27.5,27.5,0,0,1-6,3.52,20.46,20.46,0,0,1-6.54,1.49,16.09,16.09,0,0,1-7.46-1.78,19.64,19.64,0,0,1-6-4.76,22.88,22.88,0,0,1-5.47-14.83,22.9,22.9,0,0,1,2-9.31,21.59,21.59,0,0,1,6.91-8.33q6.54-5,11.35-8.44t8-6.17a23.39,23.39,0,0,0,4.72-5.3,11.09,11.09,0,0,0,1.54-5.84q0-5.47-1.83-8.16a5.56,5.56,0,0,0-4.8-2.69,5.11,5.11,0,0,0-3.11.95,7.24,7.24,0,0,0-2.07,2.49,13.15,13.15,0,0,0-1.16,3.39,19.4,19.4,0,0,0-.37,3.69c0,.82,0,1.74.13,2.73a20,20,0,0,0,.53,3.14l-19,.34c-.12-.94-.2-1.84-.25-2.69s-.09-1.7-.09-2.53a30.82,30.82,0,0,1,1.74-10.15,27.51,27.51,0,0,1,5.1-8.94,25.46,25.46,0,0,1,8.15-6.33,24.24,24.24,0,0,1,11-2.41q8,0,12.71,3.36a21.28,21.28,0,0,1,7.13,8.82,40.38,40.38,0,0,1,3.14,12.38A139.19,139.19,0,0,1,544.45,159.17Zm-18.64,23.44c.28-1.38.53-3,.75-4.72.22-1.5.41-3.3.58-5.43s.3-4.51.41-7.16c-.88,1.21-1.74,2.29-2.57,3.23s-1.6,1.77-2.32,2.48-1.6,1.58-2.31,2.24q-1.92,1.58-4.06,3.52a38.92,38.92,0,0,0-3.94,4.1,26.05,26.05,0,0,0-3,4.43,9.47,9.47,0,0,0-1.2,4.43,6.61,6.61,0,0,0,1.57,4.26,4.83,4.83,0,0,0,3.9,1.95,7.65,7.65,0,0,0,3.6-1,13.84,13.84,0,0,0,3.56-2.82,20.93,20.93,0,0,0,3-4.22A20,20,0,0,0,525.81,182.61Z"/><path class="cls-1" d="M583.21,100.12q-.68,6.7-1.16,13t-.92,12.63c2.1-.11,4.19-.2,6.26-.29s4.18-.23,6.33-.45l-.58,16.81c-2.1-.11-4.23-.17-6.41-.17h-6.42q-.67,11.94-1,23.32t-.29,23q0,6,.13,12t.29,12.13l-18.22.33q.57-17.8,1-35.24t.42-35.15q-3.15.16-6.38.28c-2.15.09-4.28.21-6.38.38l.66-18.14c1.94.28,3.92.5,6,.67s4,.3,6,.41q0-6.47-.12-12.67T562,100.28Z"/><path class="cls-1" d="M645.24,209.69a73.08,73.08,0,0,1-14,3.48,83.78,83.78,0,0,1-10.39.83,18.86,18.86,0,0,1-8.87-2,21.49,21.49,0,0,1-6.58-5.3,30,30,0,0,1-4.6-7.66,55.16,55.16,0,0,1-2.9-9.15,79.58,79.58,0,0,1-1.53-9.74c-.3-3.28-.45-6.39-.45-9.31a109.13,109.13,0,0,1,1.74-20.17,61.87,61.87,0,0,1,5-15.94,29.41,29.41,0,0,1,8.2-10.48,18.26,18.26,0,0,1,20.45-1.2,20.91,20.91,0,0,1,7.21,7.87,45.32,45.32,0,0,1,4.59,13.46,100.5,100.5,0,0,1,1.62,19.33q0,3.15-.13,6.38c-.08,2.16-.23,4.39-.45,6.71l-29.32,3.89a40.41,40.41,0,0,0,1,5.8,19.62,19.62,0,0,0,1.9,4.84,10.7,10.7,0,0,0,2.86,3.36,6.56,6.56,0,0,0,4.06,1.24,74.48,74.48,0,0,0,8.94-.54c3-.35,6.1-.79,9.36-1.28Zm-30.89-43.07,13.74-2.56v-3.15A42.94,42.94,0,0,0,627,150a20.17,20.17,0,0,0-2.32-5.68,5.37,5.37,0,0,0-3.4-2.48,5.13,5.13,0,0,0-3.81,2.24,14.1,14.1,0,0,0-2.11,5.09,39.22,39.22,0,0,0-.87,7c-.11,2.59-.16,5.22-.16,7.87Z"/><path class="cls-1" d="M702.55,160.91q-2.65.42-5.55,1c-1.66.33-3.54.78-5.63,1.33s-4.2,1.18-6.3,1.9a70.85,70.85,0,0,0,1.12-7.25c.19-2.06.29-4,.29-5.67a24.23,24.23,0,0,0-.79-7,11.33,11.33,0,0,0-1.78-3.77A4,4,0,0,0,682,140a6.69,6.69,0,0,0-1.29-.24,5.15,5.15,0,0,0-4.3,2.19,16.15,16.15,0,0,0-2.57,5.8,47.34,47.34,0,0,0-1.24,8.24c-.22,3.09-.33,6.27-.33,9.52,0,2.32,0,4.64.08,7s.14,4.64.25,7l1.16,32.55-19.13,1.32q0-20-.38-36t-.78-27.37q-.51-13.24-1.08-23.6l16.31-1.07.83,9.35a26.85,26.85,0,0,1,5.1-8.4,22.53,22.53,0,0,1,5.88-4.64,18.72,18.72,0,0,1,5.38-2,24.85,24.85,0,0,1,3.69-.41,9.24,9.24,0,0,1,6.87,2.69,18.39,18.39,0,0,1,4.14,6.91,41.13,41.13,0,0,1,2,9.28,92.07,92.07,0,0,1,.54,9.77q0,3.74-.21,7.08T702.55,160.91Z"/><path class="cls-1" d="M760.44,159.34q-.33,9.93-.66,19.21-.18,4-.33,8.2c-.12,2.81-.24,5.56-.38,8.24s-.26,5.24-.37,7.7-.22,4.62-.33,6.5l-18.14,1.74q.66-10.94,1.08-19.17c.27-5.49.48-10.22.62-14.16s.23-7.25.29-9.9.07-4.78,0-6.38,0-2.78-.08-3.56,0-1.27,0-1.49a60.75,60.75,0,0,0-.38-7.53,19.43,19.43,0,0,0-1-4.56,4.46,4.46,0,0,0-1.62-2.24,4,4,0,0,0-2.11-.58,9,9,0,0,0-3,.54,5.94,5.94,0,0,0-2.74,2.16,13,13,0,0,0-1.94,4.59,33.82,33.82,0,0,0-.75,7.95q0,9.45,0,18.43t.21,16.19q.09,8.37.25,16L709.34,209q.66-8.79.87-17.15t.21-15.07q0-12.59-.54-25T708,126.12c3.54-.11,6.44-.24,8.7-.41s4.06-.36,5.38-.58a20.69,20.69,0,0,0,3.56-.75l.17,10a42.45,42.45,0,0,1,3.85-5.3,29.5,29.5,0,0,1,4.43-4.27A21.28,21.28,0,0,1,739,122a13.52,13.52,0,0,1,5.17-1,27.36,27.36,0,0,1,5.26.45,9.66,9.66,0,0,1,4,1.75,10.19,10.19,0,0,1,2.86,3.55,26.4,26.4,0,0,1,2,5.84,44.07,44.07,0,0,1,3.28-4.43,23.94,23.94,0,0,1,3.89-3.72,17.82,17.82,0,0,1,4.51-2.53,14.78,14.78,0,0,1,5.3-.91,24.2,24.2,0,0,1,7.7,1.07,9.48,9.48,0,0,1,5.1,4.35,25.9,25.9,0,0,1,2.81,9.28,115.39,115.39,0,0,1,.87,15.86q0,14.16-.66,28.36t-1.41,29.28l-18.14,1.74q1-15.24,1.37-25.63t.46-16.77q.08-6.37,0-9.24c-.06-1.9-.09-3-.09-3.19a50.24,50.24,0,0,0-.45-7.45,16.47,16.47,0,0,0-1.25-4.51,4.81,4.81,0,0,0-1.82-2.2,4.64,4.64,0,0,0-2.27-.58,13,13,0,0,0-1.66.13,4.46,4.46,0,0,0-1.91.82,7.83,7.83,0,0,0-1.94,2.2,17.18,17.18,0,0,0-1.78,4.14c.16,2.49.26,4.69.29,6.63S760.44,158.56,760.44,159.34Z"/><path class="cls-1" d="M850,159.17q0,13.08-.13,26.17t-.54,27.25l-14.41-.83V200.58a21.13,21.13,0,0,1-5.63,6.83,27.5,27.5,0,0,1-6,3.52,20.46,20.46,0,0,1-6.54,1.49,16.12,16.12,0,0,1-7.46-1.78,19.64,19.64,0,0,1-6-4.76,22.88,22.88,0,0,1-5.47-14.83,22.9,22.9,0,0,1,2-9.31,21.59,21.59,0,0,1,6.91-8.33q6.56-5,11.35-8.44t8-6.17a23.39,23.39,0,0,0,4.72-5.3,11,11,0,0,0,1.54-5.84q0-5.47-1.83-8.16a5.56,5.56,0,0,0-4.8-2.69,5.08,5.08,0,0,0-3.1.95,7.15,7.15,0,0,0-2.08,2.49,13.15,13.15,0,0,0-1.16,3.39,19.4,19.4,0,0,0-.37,3.69c0,.82,0,1.74.13,2.73a20,20,0,0,0,.53,3.14l-19,.34c-.12-.94-.2-1.84-.25-2.69s-.09-1.7-.09-2.53A30.82,30.82,0,0,1,802,138.17a27.51,27.51,0,0,1,5.1-8.94,25.4,25.4,0,0,1,8.16-6.33,24.17,24.17,0,0,1,11-2.41q8,0,12.71,3.36a21.28,21.28,0,0,1,7.13,8.82,40.38,40.38,0,0,1,3.14,12.38A139.19,139.19,0,0,1,850,159.17Zm-18.64,23.44c.28-1.38.53-3,.75-4.72.22-1.5.41-3.3.58-5.43s.3-4.51.41-7.16c-.88,1.21-1.74,2.29-2.57,3.23s-1.6,1.77-2.31,2.48-1.61,1.58-2.32,2.24c-1.27,1.05-2.63,2.22-4.06,3.52a38.92,38.92,0,0,0-3.94,4.1,26.05,26.05,0,0,0-3,4.43,9.47,9.47,0,0,0-1.2,4.43,6.62,6.62,0,0,0,1.58,4.26,4.8,4.8,0,0,0,3.89,1.95,7.65,7.65,0,0,0,3.6-1,13.84,13.84,0,0,0,3.56-2.82,20.93,20.93,0,0,0,3-4.22A20,20,0,0,0,831.33,182.61Z"/><path class="cls-1" d="M893.28,211.43q1.82-13.34,2.61-27t.79-28.66a38.56,38.56,0,0,0-.67-8.07,14.06,14.06,0,0,0-1.73-4.64A5,5,0,0,0,892,141a7.08,7.08,0,0,0-2.41-.46,8.18,8.18,0,0,0-3.1.59,6.41,6.41,0,0,0-2.69,2.23,17.25,17.25,0,0,0-2.28,4.64,46.22,46.22,0,0,0-1.78,7.86q-.75,4.89-1.12,11.89t-.37,16.69v7.24c0,2.52,0,4.9,0,7.17s0,4.26.08,6a31.61,31.61,0,0,0,.21,3.68l-18.72-.16q.25-7.55.37-13.46t.21-10.9q.09-5,.13-9.31c0-2.9,0-5.76,0-8.58,0-2.53,0-5.14,0-7.82s-.06-5.56-.09-8.65-.08-6.48-.16-10.15-.18-7.74-.29-12.22l19.38-.49-.33,8.44a27.36,27.36,0,0,1,4.8-6.74,24.06,24.06,0,0,1,5.09-3.94,16.4,16.4,0,0,1,4.93-1.86,22.88,22.88,0,0,1,4.31-.46,11.06,11.06,0,0,1,8.45,3.56,25.38,25.38,0,0,1,5.25,9.49,63.21,63.21,0,0,1,2.7,13.54q.73,7.62.74,15.82,0,6-.29,12.09t-.66,12.05q-.37,5.92-.83,11.43c-.3,3.67-.57,7.08-.79,10.22Z"/><path class="cls-1" d="M1005.34,155.61a113.74,113.74,0,0,1-1.87,22.15,69.44,69.44,0,0,1-4.93,15.86,39.6,39.6,0,0,1-6.91,10.6,33.74,33.74,0,0,1-7.83,6.3,27.1,27.1,0,0,1-7.7,3,32.54,32.54,0,0,1-6.54.79l-17-1.41q1.08-16.89,1.66-34t.58-34.49q0-13.17-.34-26.09t-1-25.84c1.33-.11,2.62-.19,3.89-.25s2.52-.08,3.73-.08q13.74,0,22.36,4.68a34,34,0,0,1,13.46,13.08,57.27,57.27,0,0,1,6.63,20A170.92,170.92,0,0,1,1005.34,155.61Zm-16.9-2.24c0-2.7-.06-5.59-.16-8.65s-.35-6.12-.71-9.15A72.7,72.7,0,0,0,986,126.7a41.4,41.4,0,0,0-2.82-7.91,22.93,22.93,0,0,0-4.26-6.16,14.14,14.14,0,0,0-6.09-3.65q-.49,9.1-.87,17.76t-.62,17.11q-.25,8.44-.37,16.77t-.13,16.69v11.05c0,3.73.05,7.53.17,11.39a11.64,11.64,0,0,0,6.62-2.9,20.94,20.94,0,0,0,4.76-6.25,39.39,39.39,0,0,0,3.15-8.53,86,86,0,0,0,1.86-9.77q.67-5,.87-9.9T988.44,153.37Z"/><path class="cls-1" d="M1060.82,209.69a72.82,72.82,0,0,1-14,3.48,83.92,83.92,0,0,1-10.4.83,18.82,18.82,0,0,1-8.86-2,21.49,21.49,0,0,1-6.58-5.3,29.77,29.77,0,0,1-4.6-7.66,55.16,55.16,0,0,1-2.9-9.15,75.91,75.91,0,0,1-1.53-9.74c-.3-3.28-.46-6.39-.46-9.31a109.13,109.13,0,0,1,1.74-20.17,61.86,61.86,0,0,1,5.06-15.94,29.39,29.39,0,0,1,8.19-10.48,18.27,18.27,0,0,1,20.46-1.2,20.91,20.91,0,0,1,7.21,7.87,45.61,45.61,0,0,1,4.59,13.46,100.5,100.5,0,0,1,1.62,19.33q0,3.15-.13,6.38c-.08,2.16-.23,4.39-.45,6.71l-29.32,3.89a40.41,40.41,0,0,0,1,5.8,19.24,19.24,0,0,0,1.9,4.84,10.7,10.7,0,0,0,2.86,3.36,6.54,6.54,0,0,0,4.06,1.24,74.48,74.48,0,0,0,8.94-.54c3-.35,6.1-.79,9.36-1.28Zm-30.89-43.07,13.75-2.56v-3.15A42.41,42.41,0,0,0,1042.6,150a20.2,20.2,0,0,0-2.31-5.68,5.37,5.37,0,0,0-3.4-2.48,5.13,5.13,0,0,0-3.81,2.24,14.1,14.1,0,0,0-2.11,5.09,39.22,39.22,0,0,0-.87,7c-.11,2.59-.17,5.22-.17,7.87Z"/><path class="cls-1" d="M1107.45,187.16a27.53,27.53,0,0,1-2.44,12.3,22.69,22.69,0,0,1-14.2,12.18,29.8,29.8,0,0,1-8.29,1.28,31.06,31.06,0,0,1-10.72-2.2,15,15,0,0,1-4.85-3l.67-18.88a26.52,26.52,0,0,0,6,3.73,38.78,38.78,0,0,0,5.63,2,32.16,32.16,0,0,0,5.8.92,8.91,8.91,0,0,0,3.6-3.52,10.17,10.17,0,0,0,1.29-5.1,13.19,13.19,0,0,0-1.12-5.09,16.64,16.64,0,0,0-3.44-5.1q-2.31-2.31-5.51-5.59a62.53,62.53,0,0,1-6.12-7.41,44.15,44.15,0,0,1-5-9.19,29.14,29.14,0,0,1-2-11,33.94,33.94,0,0,1,1.61-10.73,25.07,25.07,0,0,1,4.56-8.33,20.25,20.25,0,0,1,7-5.38,21,21,0,0,1,9-1.9,34.63,34.63,0,0,1,8.62,1.2,52.12,52.12,0,0,1,9.85,3.76l-1.32,19.3a21.26,21.26,0,0,0-4.56-3.1,32.84,32.84,0,0,0-4.47-1.87,25.81,25.81,0,0,0-4.72-1,9,9,0,0,0-5.38,3.27,10.47,10.47,0,0,0-2.24,6.91,14.21,14.21,0,0,0,1.61,6.92,27.57,27.57,0,0,0,4.06,5.55q2.44,2.61,5.34,5.22a42.32,42.32,0,0,1,5.43,5.92,34.11,34.11,0,0,1,4.31,7.62A29.32,29.32,0,0,1,1107.45,187.16Z"/><path class="cls-1" d="M1140.75,101.86a13.41,13.41,0,0,1-.83,4.76,10.38,10.38,0,0,1-2.49,3.81,11.44,11.44,0,0,1-4.18,2.53,17.62,17.62,0,0,1-5.92.91,18.72,18.72,0,0,1-6.25-.91,11.07,11.07,0,0,1-4.15-2.53,9.39,9.39,0,0,1-2.31-3.81,15.47,15.47,0,0,1-.71-4.76,14.35,14.35,0,0,1,.75-4.68,10,10,0,0,1,2.36-3.85,11.09,11.09,0,0,1,4.18-2.61,17.51,17.51,0,0,1,6.13-1,17.23,17.23,0,0,1,6.09,1,11.24,11.24,0,0,1,4.14,2.61,10.7,10.7,0,0,1,2.4,3.85A13.85,13.85,0,0,1,1140.75,101.86Zm-5,24.1q-.49,4.55-.83,9.77c-.22,3.48-.42,7.08-.58,10.81s-.28,7.51-.33,11.34-.09,7.61-.09,11.31q0,6.47.13,12.47t.33,11.05c.14,3.37.3,6.35.5,8.95a54.22,54.22,0,0,0,.7,6q-3.31,0-6.87.17-3.08.16-6.88.41t-7.62.75q1.41-14.91,1.91-27.29t.5-22.24q0-8.44-.29-14.78c-.2-4.23-.41-7.8-.63-10.73-.22-3.42-.49-6.35-.82-8.77q4.63.57,8.48.74t6.67.16h2.4a16,16,0,0,0,1.83-.08A12,12,0,0,0,1135.78,126Z"/><path class="cls-1" d="M1197.15,189.73q-.35,9.77-.67,17.27a102.78,102.78,0,0,1-1.32,13.12,32.86,32.86,0,0,1-3,9.45,16.11,16.11,0,0,1-5.51,6.12,24.46,24.46,0,0,1-9,3.36,72.28,72.28,0,0,1-13.29,1c-2.59,0-5.38-.09-8.36-.29a86.25,86.25,0,0,1-9.61-1.2l.66-18.22q6.14.42,10.81.67l7.83.41c2.48.17,4.64.27,6.46.33q4,0,6-4.64t2.28-12.83a20.77,20.77,0,0,1-3.35,5.38,18.06,18.06,0,0,1-3.81,3.27,12.61,12.61,0,0,1-3.81,1.62,16.37,16.37,0,0,1-3.44.41,15.75,15.75,0,0,1-8.37-2.57q-4.14-2.56-7.41-8.49a57.51,57.51,0,0,1-5.34-15.48,114.11,114.11,0,0,1-2.07-23.65,92.06,92.06,0,0,1,1.78-19.22,54.28,54.28,0,0,1,4.76-13.91,24.43,24.43,0,0,1,6.88-8.48,13.48,13.48,0,0,1,8.11-2.86,15.38,15.38,0,0,1,4.27.66,14.77,14.77,0,0,1,4.59,2.36,20.92,20.92,0,0,1,4.43,4.55,28,28,0,0,1,3.69,7.33l-.17-10.18,14.75.74Zm-18.14-17c0-1.71,0-3.74,0-6.09s-.11-4.77-.25-7.28a72,72,0,0,0-.79-7.42,36.81,36.81,0,0,0-1.61-6.54,13.5,13.5,0,0,0-2.69-4.68,5.47,5.47,0,0,0-4.15-1.78,5.61,5.61,0,0,0-4.92,2.65,19,19,0,0,0-2.65,6.79,53,53,0,0,0-1,9.11c-.11,3.31-.16,6.52-.16,9.61q0,3.24.12,6.79t.45,7.08a59.56,59.56,0,0,0,1,6.67,32,32,0,0,0,1.66,5.59,11,11,0,0,0,2.44,3.85,4.75,4.75,0,0,0,3.44,1.41,5.38,5.38,0,0,0,4.22-2,15.89,15.89,0,0,0,2.86-5.51,41.22,41.22,0,0,0,1.61-8.15A96,96,0,0,0,1179,172.75Z"/><path class="cls-1" d="M1240.63,211.43q1.81-13.34,2.61-27t.78-28.66a39.36,39.36,0,0,0-.66-8.07,14,14,0,0,0-1.74-4.64,5,5,0,0,0-2.32-2.07,7,7,0,0,0-2.4-.46,8.27,8.27,0,0,0-3.11.59,6.47,6.47,0,0,0-2.69,2.23,17.55,17.55,0,0,0-2.28,4.64,46.22,46.22,0,0,0-1.78,7.86q-.74,4.89-1.12,11.89t-.37,16.69v7.24c0,2.52,0,4.9,0,7.17s.06,4.26.09,6a30,30,0,0,0,.2,3.68l-18.71-.16q.24-7.55.37-13.46t.21-10.9q.07-5,.12-9.31t0-8.58q0-3.8,0-7.82c0-2.68,0-5.56-.08-8.65s-.09-6.48-.17-10.15-.18-7.74-.29-12.22l19.38-.49-.33,8.44a27.36,27.36,0,0,1,4.8-6.74,24.1,24.1,0,0,1,5.1-3.94,16.25,16.25,0,0,1,4.92-1.86,23,23,0,0,1,4.31-.46,11,11,0,0,1,8.45,3.56,25.39,25.39,0,0,1,5.26,9.49,63.24,63.24,0,0,1,2.69,13.54q.75,7.62.74,15.82,0,6-.28,12.09t-.67,12.05q-.36,5.92-.83,11.43t-.78,10.22Z"/><path class="cls-1" d="M1342.49,182.61a43.22,43.22,0,0,1-1.36,11.47,32.37,32.37,0,0,1-3.57,8.45,23.82,23.82,0,0,1-4.92,5.79,26.1,26.1,0,0,1-5.59,3.61,25.46,25.46,0,0,1-5.47,1.86,22.7,22.7,0,0,1-4.51.54c-.67,0-1.58,0-2.73-.13a36.66,36.66,0,0,1-4-.53,50,50,0,0,1-4.93-1.21,38.09,38.09,0,0,1-5.67-2.19l.91-20.87a30.57,30.57,0,0,0,8.73,5.55,19.64,19.64,0,0,0,6.51,1.41,8.85,8.85,0,0,0,7.74-3.73,16.54,16.54,0,0,0,2.61-9.69,24.46,24.46,0,0,0-2-8.9,38.24,38.24,0,0,0-6.91-10.65q-3.4-4-7-8.28a73.28,73.28,0,0,1-6.63-9.19,52.62,52.62,0,0,1-4.88-10.52,37.5,37.5,0,0,1-1.91-12.17,40.57,40.57,0,0,1,2.28-14.33,29.24,29.24,0,0,1,6.09-10A24.4,24.4,0,0,1,1314,93,28,28,0,0,1,1324.35,91a38.4,38.4,0,0,1,9.65,1.28,45.74,45.74,0,0,1,9.9,3.93l-1.58,20.88a20.4,20.4,0,0,0-4.51-4.35,21.43,21.43,0,0,0-4.55-2.44,18,18,0,0,0-4.06-1.08,23.54,23.54,0,0,0-3.11-.25,8.54,8.54,0,0,0-4.43,1.2,11.48,11.48,0,0,0-3.48,3.23,16.23,16.23,0,0,0-2.27,4.81,20.34,20.34,0,0,0-.83,5.83,17.74,17.74,0,0,0,2,8.53,46.06,46.06,0,0,0,5.09,7.54q3.06,3.72,6.58,7.66a63.33,63.33,0,0,1,6.59,8.86,50.31,50.31,0,0,1,5.09,11.27A48,48,0,0,1,1342.49,182.61Z"/><path class="cls-1" d="M1399.64,164.47a150.86,150.86,0,0,1-.91,17.73,78.16,78.16,0,0,1-2.61,13.2,37.47,37.47,0,0,1-4.06,9.28,23.28,23.28,0,0,1-5.22,5.92,17.47,17.47,0,0,1-6.17,3.15,25.38,25.38,0,0,1-6.79.91,29.08,29.08,0,0,1-6.67-.75,16.27,16.27,0,0,1-5.92-2.73,21.22,21.22,0,0,1-5-5.38,32.1,32.1,0,0,1-3.85-8.7,76.53,76.53,0,0,1-2.44-12.67,150,150,0,0,1-.87-17.31q0-14.91,2.19-24.43t5.76-15a19.89,19.89,0,0,1,8.11-7.62,22,22,0,0,1,9.36-2.11,31,31,0,0,1,6.17.62,16.56,16.56,0,0,1,5.88,2.44,20.69,20.69,0,0,1,5.18,5.05,30.37,30.37,0,0,1,4.14,8.41,68.44,68.44,0,0,1,2.73,12.54A133.31,133.31,0,0,1,1399.64,164.47Zm-17.81.66a118.37,118.37,0,0,0-.58-13,41.77,41.77,0,0,0-1.57-8.08,8.78,8.78,0,0,0-2.4-4.1,4.85,4.85,0,0,0-3.07-1.11,4.25,4.25,0,0,0-3.31,1.61,13.08,13.08,0,0,0-2.36,5.17,54.93,54.93,0,0,0-1.45,9.16q-.49,5.59-.5,13.62a121.16,121.16,0,0,0,.62,13.46,41.56,41.56,0,0,0,1.74,8.53,10.51,10.51,0,0,0,2.65,4.51,4.89,4.89,0,0,0,3.27,1.33q3.66,0,5.3-7.54T1381.83,165.13Z"/><path class="cls-1" d="M1426.8,209.69c-1.43.06-3.06.16-4.88.33l-5.43.41q-3.1.25-6.83.67-.75-28.08-1.57-49.65t-1.5-36.49q-.83-17.38-1.65-30.22l21.53-1v33.67q0,15,0,26.58t.09,20.29q0,8.66,0,14.87Q1426.72,203.64,1426.8,209.69Z"/><path class="cls-1" d="M1489.33,130.18q-.66,13.33-.91,26.38t-.25,26.21q0,7.78,0,15.41t.29,15.4L1472,214V203.64a20.35,20.35,0,0,1-5.55,6.21,23.35,23.35,0,0,1-5.84,3.11,18.75,18.75,0,0,1-4.76,1.08c-1.32.08-2.1.12-2.32.12a16.38,16.38,0,0,1-8.65-4.6,25.46,25.46,0,0,1-5.47-8.77,50.42,50.42,0,0,1-2.85-11.89,110.61,110.61,0,0,1-.84-13.91q0-6.3.51-12.84t1.24-12.88q.73-6.33,1.65-12.26t1.82-11l18.06.33q-.75,4.89-1.53,10.6t-1.41,11.68q-.63,6-1,12t-.38,11.4q0,5,.42,9.27a41.36,41.36,0,0,0,1.32,7.49,13.78,13.78,0,0,0,2.36,5,4.48,4.48,0,0,0,3.61,1.79c1.87,0,3.42-1.14,4.63-3.4a31.13,31.13,0,0,0,2.86-8.9,95.62,95.62,0,0,0,1.41-12.39q.38-6.87.37-13.83,0-5.22-.17-9.94c-.11-3.14-.22-6-.33-8.44-.16-2.87-.33-5.55-.49-8Z"/><path class="cls-1" d="M1527.68,100.12q-.66,6.7-1.16,13t-.91,12.63c2.1-.11,4.18-.2,6.25-.29s4.18-.23,6.34-.45l-.58,16.81q-3.15-.17-6.42-.17h-6.42q-.66,11.94-1,23.32t-.29,23q0,6,.12,12t.29,12.13l-18.22.33q.58-17.8,1-35.24t.41-35.15q-3.15.16-6.38.28c-2.15.09-4.28.21-6.38.38l.67-18.14q2.9.42,6,.67t6,.41q0-6.47-.12-12.67t-.37-12.68Z"/><path class="cls-1" d="M1568.59,101.86a13.41,13.41,0,0,1-.82,4.76,10.5,10.5,0,0,1-2.49,3.81,11.44,11.44,0,0,1-4.18,2.53,17.66,17.66,0,0,1-5.92.91,18.82,18.82,0,0,1-6.26-.91,11.11,11.11,0,0,1-4.14-2.53,9.41,9.41,0,0,1-2.32-3.81,15.47,15.47,0,0,1-.7-4.76,14.62,14.62,0,0,1,.74-4.68,10.11,10.11,0,0,1,2.37-3.85,11.09,11.09,0,0,1,4.18-2.61,17.51,17.51,0,0,1,6.13-1,17.14,17.14,0,0,1,6.08,1,11.2,11.2,0,0,1,4.15,2.61,10.7,10.7,0,0,1,2.4,3.85A13.85,13.85,0,0,1,1568.59,101.86Zm-5,24.1q-.49,4.55-.82,9.77t-.58,10.81q-.26,5.6-.34,11.34c-.05,3.85-.08,7.61-.08,11.31q0,6.47.13,12.47t.33,11.05q.2,5.06.5,8.95a54.22,54.22,0,0,0,.7,6q-3.32,0-6.88.17-3.06.16-6.87.41t-7.62.75q1.41-14.91,1.91-27.29t.49-22.24q0-8.44-.29-14.78c-.19-4.23-.4-7.8-.62-10.73-.22-3.42-.5-6.35-.83-8.77,3.09.38,5.93.63,8.49.74s4.79.16,6.67.16h2.4a15.78,15.78,0,0,0,1.82-.08A11.78,11.78,0,0,0,1563.62,126Z"/><path class="cls-1" d="M1621.43,164.47a150.86,150.86,0,0,1-.91,17.73,78.16,78.16,0,0,1-2.61,13.2,37.1,37.1,0,0,1-4.06,9.28,23.44,23.44,0,0,1-5.21,5.92,17.64,17.64,0,0,1-6.17,3.15,25.45,25.45,0,0,1-6.8.91,29,29,0,0,1-6.66-.75,16.2,16.2,0,0,1-5.92-2.73,21.07,21.07,0,0,1-5-5.38,32.1,32.1,0,0,1-3.84-8.7,75.43,75.43,0,0,1-2.45-12.67,150,150,0,0,1-.87-17.31q0-14.91,2.2-24.43t5.75-15A19.91,19.91,0,0,1,1587,120a22,22,0,0,1,9.36-2.11,31,31,0,0,1,6.17.62,16.56,16.56,0,0,1,5.88,2.44,20.66,20.66,0,0,1,5.17,5.05,29.83,29.83,0,0,1,4.14,8.41,69.22,69.22,0,0,1,2.74,12.54A133.48,133.48,0,0,1,1621.43,164.47Zm-17.8.66a120.91,120.91,0,0,0-.58-13,41.67,41.67,0,0,0-1.58-8.08,8.7,8.7,0,0,0-2.4-4.1,4.85,4.85,0,0,0-3.06-1.11,4.26,4.26,0,0,0-3.32,1.61,13.22,13.22,0,0,0-2.36,5.17,56,56,0,0,0-1.45,9.16q-.5,5.59-.49,13.62a118.77,118.77,0,0,0,.62,13.46,40.26,40.26,0,0,0,1.74,8.53,10.31,10.31,0,0,0,2.65,4.51,4.89,4.89,0,0,0,3.27,1.33q3.64,0,5.3-7.54T1603.63,165.13Z"/><path class="cls-1" d="M1663,211.43q1.82-13.34,2.61-27t.78-28.66a39.36,39.36,0,0,0-.66-8.07,13.83,13.83,0,0,0-1.74-4.64,5,5,0,0,0-2.32-2.07,7.07,7.07,0,0,0-2.4-.46,8.15,8.15,0,0,0-3.1.59,6.43,6.43,0,0,0-2.7,2.23,17.26,17.26,0,0,0-2.27,4.64,44.36,44.36,0,0,0-1.78,7.86q-.75,4.89-1.12,11.89t-.38,16.69v7.24c0,2.52,0,4.9,0,7.17s.06,4.26.09,6a34.81,34.81,0,0,0,.2,3.68l-18.71-.16q.24-7.55.37-13.46t.21-10.9q.07-5,.12-9.31t0-8.58q0-3.8,0-7.82c0-2.68,0-5.56-.08-8.65s-.08-6.48-.17-10.15-.18-7.74-.29-12.22l19.39-.49-.34,8.44a27.36,27.36,0,0,1,4.8-6.74,24.1,24.1,0,0,1,5.1-3.94,16.2,16.2,0,0,1,4.93-1.86,22.79,22.79,0,0,1,4.3-.46,11,11,0,0,1,8.45,3.56,25.39,25.39,0,0,1,5.26,9.49,63.24,63.24,0,0,1,2.69,13.54q.75,7.62.75,15.82,0,6-.29,12.09t-.67,12.05q-.36,5.92-.82,11.43t-.79,10.22Z"/><path class="cls-1" d="M1733.16,187.16a27.52,27.52,0,0,1-2.45,12.3,22.69,22.69,0,0,1-14.2,12.18,29.8,29.8,0,0,1-8.29,1.28,31.06,31.06,0,0,1-10.72-2.2,15.08,15.08,0,0,1-4.85-3l.67-18.88a26.52,26.52,0,0,0,6,3.73,39.29,39.29,0,0,0,5.64,2,32.05,32.05,0,0,0,5.79.92,9,9,0,0,0,3.61-3.52,10.27,10.27,0,0,0,1.28-5.1,13.19,13.19,0,0,0-1.12-5.09,16.6,16.6,0,0,0-3.43-5.1q-2.33-2.31-5.51-5.59a61.62,61.62,0,0,1-6.13-7.41,44.15,44.15,0,0,1-5-9.19,29.34,29.34,0,0,1-2-11,33.66,33.66,0,0,1,1.62-10.73,24.88,24.88,0,0,1,4.55-8.33,20.35,20.35,0,0,1,7-5.38,21.06,21.06,0,0,1,9-1.9,34.49,34.49,0,0,1,8.61,1.2,52.19,52.19,0,0,1,9.86,3.76l-1.33,19.3a21.2,21.2,0,0,0-4.55-3.1,33.46,33.46,0,0,0-4.48-1.87,25.64,25.64,0,0,0-4.72-1,9,9,0,0,0-5.38,3.27,10.47,10.47,0,0,0-2.24,6.91,14.1,14.1,0,0,0,1.62,6.92,27.57,27.57,0,0,0,4.06,5.55c1.62,1.74,3.41,3.48,5.34,5.22a42.88,42.88,0,0,1,5.42,5.92,33.72,33.72,0,0,1,4.31,7.62A29.31,29.31,0,0,1,1733.16,187.16Z"/></svg>