<?xml version="1.0" encoding="utf-8"?>
<!-- Generator: Adobe Illustrator 23.0.2, SVG Export Plug-In . SVG Version: 6.00 Build 0)  -->
<svg version="1.1" id="thumbsup_Image" xmlns="http://www.w3.org/2000/svg" xmlns:xlink="http://www.w3.org/1999/xlink" x="0px"
	 y="0px" viewBox="0 0 427.8 427.8" style="enable-background:new 0 0 427.8 427.8;" xml:space="preserve">
<style type="text/css">
	.st0{fill:#EC1000;}
	.st1{fill:#FFFFFF;}
	.st2{enable-background:new    ;}
	.st3{fill:#C9C9C9;}
</style>
<title>WDS-logo-full</title>
<rect y="-0.9" class="st0" width="430.7" height="429.7"/>
<circle class="st1" cx="213.9" cy="163.9" r="142.7"/>
<g class="st2">
	<path class="st1" d="M99.6,388.3l1.1,0.8c-0.8,1-1.4,2.1-1.6,3.1l-0.3,1.5h-2l0.2-1.3C97.3,390.8,98.1,389.4,99.6,388.3z
		 M103,388.3l1.1,0.8c-0.8,1-1.4,2.1-1.6,3.1l-0.3,1.5h-2l0.2-1.3C100.7,390.8,101.6,389.4,103,388.3z"/>
</g>
<g class="st2">
	<path class="st1" d="M109.6,397.6l5.6-8.2h2.5l-7.3,10.4l-1,6h-2.1l1.1-6.2l-3.6-10.1h2.3L109.6,397.6z"/>
</g>
<g class="st2">
	<path class="st1" d="M122.7,393.4c1,0,1.9,0.3,2.6,0.8s1.3,1.3,1.6,2.2c0.3,0.9,0.5,2,0.4,3.1l0,0.2c-0.1,1.2-0.5,2.3-1.1,3.2
		c-0.6,1-1.3,1.7-2.2,2.2c-0.9,0.5-1.9,0.8-2.9,0.8c-1,0-1.9-0.3-2.6-0.8c-0.7-0.5-1.3-1.3-1.6-2.2s-0.5-2-0.4-3.1
		c0.1-1.3,0.5-2.4,1-3.4c0.6-1,1.3-1.8,2.2-2.3C120.6,393.6,121.6,393.3,122.7,393.4z M118.5,399.9c-0.1,0.5-0.1,1,0,1.5
		c0.1,0.9,0.3,1.6,0.8,2.1c0.5,0.5,1.1,0.8,1.8,0.8c0.7,0,1.3-0.1,1.9-0.5s1-0.9,1.4-1.6s0.6-1.5,0.8-2.4c0.1-0.7,0.1-1.3,0-1.7
		c-0.1-0.9-0.4-1.6-0.8-2.1c-0.5-0.5-1.1-0.8-1.8-0.8c-1,0-1.9,0.4-2.7,1.2c-0.7,0.8-1.2,2-1.4,3.3L118.5,399.9z"/>
	<path class="st1" d="M136.5,404.5c-1,1-2.2,1.5-3.6,1.4c-1.2,0-2-0.4-2.6-1.2c-0.6-0.8-0.8-1.9-0.6-3.3l1.3-7.9h2l-1.3,7.9
		c0,0.3,0,0.7,0,1c0,0.5,0.2,1,0.5,1.3c0.3,0.3,0.7,0.5,1.2,0.5c1.5,0,2.6-0.5,3.4-1.8l1.5-8.8h2l-2.1,12.2h-1.9L136.5,404.5z"/>
	<path class="st1" d="M148.7,395.4l-1-0.1c-1.3,0-2.3,0.6-3.1,1.8l-1.5,8.6h-2l2.1-12.2l2,0l-0.3,1.4c0.9-1.1,1.9-1.7,3-1.7
		c0.2,0,0.6,0.1,1,0.2L148.7,395.4z"/>
</g>
<g class="st2">
	<path class="st1" d="M158,399.3l-1.1,6.4h-2.1l2.8-16.4l5.5,0c1.7,0,3,0.4,3.9,1.3s1.3,2.1,1.2,3.6c-0.1,1.6-0.8,2.8-1.9,3.7
		c-1.1,0.9-2.6,1.3-4.4,1.3L158,399.3z M158.3,397.6l3.6,0c1.1,0,2.1-0.3,2.8-0.9c0.7-0.6,1.2-1.4,1.3-2.4c0.1-0.9-0.1-1.7-0.6-2.2
		c-0.5-0.6-1.2-0.9-2.2-0.9l-3.9,0L158.3,397.6z"/>
</g>
<g class="st2">
	<path class="st1" d="M175.9,405.7c-0.1-0.2-0.1-0.4-0.1-0.6l0-0.6c-1.1,1-2.3,1.5-3.5,1.5c-1.1,0-1.9-0.4-2.6-1
		c-0.7-0.7-1-1.5-0.9-2.5c0.1-1.3,0.6-2.3,1.7-3c1.1-0.7,2.4-1.1,4.1-1.1l2.1,0l0.1-1c0.1-0.7-0.1-1.3-0.4-1.7
		c-0.4-0.4-0.9-0.6-1.6-0.7c-0.7,0-1.3,0.2-1.8,0.5c-0.5,0.4-0.9,0.8-1,1.4l-2,0c0.1-0.7,0.3-1.3,0.8-1.9c0.5-0.5,1.1-1,1.9-1.3
		c0.8-0.3,1.6-0.4,2.4-0.4c1.3,0,2.2,0.4,3,1.2s1,1.7,0.9,2.9l-1,6l-0.1,0.9c0,0.4,0,0.8,0.1,1.2l0,0.2H175.9z M172.8,404.2
		c0.7,0,1.3-0.1,1.8-0.5c0.6-0.3,1.1-0.8,1.5-1.4l0.4-2.5l-1.5,0c-1.3,0-2.3,0.2-2.9,0.6s-1.1,1-1.2,1.7c-0.1,0.6,0.1,1,0.4,1.4
		C171.6,404,172.1,404.2,172.8,404.2z"/>
</g>
<g class="st2">
	<path class="st1" d="M188.3,395.4l-1-0.1c-1.3,0-2.3,0.6-3.1,1.8l-1.5,8.6h-2l2.1-12.2l2,0l-0.3,1.4c0.9-1.1,1.9-1.7,3-1.7
		c0.2,0,0.6,0.1,1,0.2L188.3,395.4z"/>
</g>
<g class="st2">
	<path class="st1" d="M194.3,390.6l-0.5,2.9h2.2l-0.3,1.6h-2.2l-1.3,7.6c0,0.2,0,0.4,0,0.5c0.1,0.6,0.4,0.9,1,0.9c0.2,0,0.6,0,1-0.1
		l-0.2,1.7c-0.5,0.1-1,0.2-1.5,0.2c-0.8,0-1.4-0.3-1.8-0.9s-0.6-1.4-0.5-2.3l1.2-7.5h-2.1l0.3-1.6h2.1l0.5-2.9H194.3z"/>
	<path class="st1" d="M200.4,393.6l-0.3,1.5c1.1-1.2,2.3-1.8,3.7-1.8c1.1,0,2,0.4,2.5,1.2s0.7,1.8,0.6,3.2l-1.3,8h-2l1.3-8
		c0-0.4,0-0.7,0-1c-0.1-1-0.7-1.6-1.9-1.6c-1.2,0-2.3,0.6-3.2,2l-1.5,8.7h-2l2.1-12.2L200.4,393.6z"/>
	<path class="st1" d="M214.1,406c-1.5,0-2.7-0.6-3.5-1.7c-0.9-1.1-1.2-2.5-1.1-4.2l0.1-0.5c0.1-1.2,0.5-2.3,1.1-3.3
		c0.6-1,1.3-1.7,2.2-2.3c0.8-0.5,1.8-0.7,2.7-0.7c1.3,0,2.2,0.4,2.9,1.2c0.7,0.8,1.1,1.9,1.2,3.3c0,0.5,0,1,0,1.5l-0.1,0.9h-7.9
		c-0.1,1.1,0,2,0.5,2.8c0.5,0.8,1.2,1.2,2.2,1.2c1.2,0,2.3-0.5,3.3-1.6l1.2,1c-0.5,0.7-1.2,1.3-2,1.7C215.9,405.8,215,406,214.1,406
		z M215.3,395.1c-0.8,0-1.6,0.3-2.2,0.9c-0.6,0.6-1.1,1.5-1.5,2.6l5.9,0l0-0.2c0.1-0.9,0-1.7-0.5-2.4S216.1,395.1,215.3,395.1z"/>
	<path class="st1" d="M228.3,395.4l-1-0.1c-1.3,0-2.3,0.6-3.1,1.8l-1.5,8.6h-2l2.1-12.2l2,0l-0.3,1.4c0.9-1.1,1.9-1.7,3-1.7
		c0.2,0,0.6,0.1,1,0.2L228.3,395.4z"/>
	<path class="st1" d="M236.2,405.7h-2l2.1-12.2h2L236.2,405.7z M237.9,389.2c0.3,0,0.6,0.1,0.9,0.3c0.2,0.2,0.3,0.5,0.3,0.9
		c0,0.4-0.1,0.6-0.3,0.9c-0.2,0.2-0.5,0.3-0.9,0.4c-0.4,0-0.6-0.1-0.9-0.3s-0.3-0.5-0.3-0.9c0-0.4,0.1-0.6,0.3-0.9
		C237.3,389.3,237.5,389.2,237.9,389.2z"/>
	<path class="st1" d="M243.6,393.6l-0.3,1.5c1.1-1.2,2.3-1.8,3.7-1.8c1.1,0,2,0.4,2.5,1.2c0.5,0.8,0.7,1.8,0.6,3.2l-1.3,8h-2l1.3-8
		c0-0.4,0-0.7,0-1c-0.1-1-0.7-1.6-1.9-1.6c-1.2,0-2.3,0.6-3.2,2l-1.5,8.7h-2l2.1-12.2L243.6,393.6z"/>
	<path class="st1" d="M257.9,405.7l2.8-16.4l4.2,0c1.3,0,2.5,0.3,3.4,1c1,0.7,1.7,1.6,2.1,2.8c0.4,1.2,0.5,2.5,0.4,3.9l-0.1,0.8
		c-0.3,2.4-1.3,4.3-2.8,5.7c-1.5,1.4-3.4,2.1-5.7,2.1H257.9z M262.6,391.2l-2.2,12.8l2.1,0c1.6,0,2.9-0.5,4-1.5
		c1.1-1,1.8-2.3,2.2-4.1c0.3-1.4,0.4-2.5,0.3-3.5c-0.1-1.2-0.5-2.1-1.2-2.7c-0.7-0.7-1.5-1-2.7-1L262.6,391.2z"/>
	<path class="st1" d="M277.6,406c-1.5,0-2.7-0.6-3.5-1.7c-0.9-1.1-1.2-2.5-1.1-4.2l0.1-0.5c0.1-1.2,0.5-2.3,1.1-3.3
		c0.6-1,1.3-1.7,2.2-2.3c0.8-0.5,1.8-0.7,2.7-0.7c1.2,0,2.2,0.4,2.9,1.2c0.7,0.8,1.1,1.9,1.2,3.3c0,0.5,0,1,0,1.5l-0.1,0.9H275
		c-0.1,1.1,0,2,0.5,2.8c0.5,0.8,1.2,1.2,2.2,1.2c1.2,0,2.3-0.5,3.3-1.6l1.2,1c-0.5,0.7-1.2,1.3-2,1.7
		C279.5,405.8,278.6,406,277.6,406z M278.9,395.1c-0.8,0-1.6,0.3-2.2,0.9c-0.6,0.6-1.1,1.5-1.5,2.6l5.9,0l0-0.2
		c0.1-0.9,0-1.7-0.5-2.4C280.3,395.4,279.7,395.1,278.9,395.1z"/>
	<path class="st1" d="M291.8,402.4c0.1-0.8-0.3-1.4-1.4-1.8l-2.1-0.6c-1.8-0.6-2.6-1.6-2.6-3.1c0.1-1.1,0.5-1.9,1.5-2.6
		c0.9-0.7,2-1,3.3-1c1.2,0,2.2,0.4,3,1.1c0.8,0.7,1.1,1.6,1.1,2.7l-2,0c0-0.6-0.2-1.1-0.6-1.5c-0.4-0.4-0.9-0.6-1.6-0.6
		c-0.7,0-1.3,0.2-1.8,0.5c-0.5,0.3-0.7,0.8-0.8,1.3c-0.1,0.7,0.3,1.2,1.3,1.5l1,0.3c1.4,0.4,2.4,0.8,3,1.4s0.9,1.3,0.8,2.1
		c0,0.8-0.3,1.4-0.7,2c-0.4,0.6-1,1-1.8,1.3c-0.7,0.3-1.5,0.4-2.4,0.4c-1.3,0-2.4-0.4-3.2-1.1c-0.8-0.7-1.2-1.7-1.2-2.8l2,0
		c0,0.7,0.2,1.2,0.7,1.6c0.4,0.4,1,0.6,1.8,0.6c0.7,0,1.4-0.1,1.9-0.5C291.4,403.5,291.7,403,291.8,402.4z"/>
	<path class="st1" d="M298.1,405.7h-2l2.1-12.2h2L298.1,405.7z M299.8,389.2c0.3,0,0.6,0.1,0.9,0.3s0.3,0.5,0.3,0.9
		c0,0.4-0.1,0.6-0.3,0.9s-0.5,0.3-0.9,0.4c-0.4,0-0.6-0.1-0.9-0.3s-0.3-0.5-0.3-0.9c0-0.4,0.1-0.6,0.3-0.9
		C299.1,389.3,299.4,389.2,299.8,389.2z"/>
	<path class="st1" d="M302,399.6c0.2-1.3,0.5-2.5,1.1-3.5c0.5-1,1.2-1.7,2-2.2c0.8-0.5,1.6-0.7,2.5-0.7c1.4,0,2.5,0.6,3.2,1.6
		l0.4-1.4h1.9l-2,11.9c-0.2,1.5-0.8,2.8-1.9,3.7c-1,0.9-2.3,1.4-3.9,1.3c-0.8,0-1.6-0.2-2.4-0.6c-0.8-0.4-1.3-0.9-1.8-1.5l1.2-1.2
		c0.7,1.1,1.7,1.6,2.9,1.7c1,0,1.8-0.2,2.5-0.8s1.1-1.4,1.3-2.4l0.2-1.1c-1,1-2.1,1.5-3.5,1.4c-0.8,0-1.4-0.2-2-0.6s-1-0.9-1.3-1.7
		c-0.3-0.7-0.5-1.5-0.5-2.4C301.9,400.8,302,400.3,302,399.6z M304,400.8c0,1.1,0.2,1.9,0.6,2.5c0.4,0.6,1,0.9,1.8,0.9
		c1.2,0,2.3-0.6,3.1-1.8l1-5.6c-0.4-1.1-1.3-1.7-2.4-1.7c-1.1,0-2,0.4-2.7,1.3c-0.7,0.9-1.1,2.2-1.3,3.8L304,400.8z"/>
</g>
<g class="st2">
	<path class="st1" d="M318.1,393.6l-0.3,1.5c1.1-1.2,2.3-1.8,3.7-1.8c1.1,0,2,0.4,2.5,1.2c0.5,0.8,0.7,1.8,0.6,3.2l-1.3,8h-2l1.3-8
		c0-0.4,0-0.7,0-1c-0.1-1-0.7-1.6-1.9-1.6c-1.2,0-2.3,0.6-3.2,2l-1.5,8.7h-2l2.1-12.2L318.1,393.6z"/>
</g>
<g class="st2">
	<path class="st1" d="M327.8,394l-1.1-0.8c0.9-1.1,1.4-2.2,1.6-3.2l0.3-1.5h2l-0.2,1.4C330,391.5,329.2,392.9,327.8,394z M331.1,394
		l-1.1-0.8c0.9-1.1,1.4-2.2,1.6-3.2l0.3-1.5h2l-0.2,1.4C333.3,391.5,332.5,392.9,331.1,394z"/>
</g>
<g>
	<path d="M197.9,88.2l-13.4,137.9h-25.3c-0.2-5.6-0.4-10.9-0.6-15.9s-0.5-9.7-0.9-14.2c-0.4-4.5-0.8-9-1.3-13.3
		c-0.5-4.3-1-8.8-1.6-13.3c-0.6-4.5-1.3-9.2-2.1-14.1s-1.6-10.1-2.5-15.7c-1.2,7.1-2.9,17.9-5.1,32.1c-2.2,14.3-4.8,32.1-7.9,53.4
		l-26.5,1.3l-9.6-137.7l24.1-0.6c-0.1,4-0.1,8.3-0.1,12.9c-0.1,4-0.1,8.6-0.1,13.8v30.8c0,4.8,0,9.5,0.1,14.1
		c0,4.6,0.1,9.1,0.1,13.4c0,4.3,0.1,8.2,0.2,11.7l13.1-83.4h22.1l10.4,79.4c0.1-4.7,0.3-9.7,0.4-15c0.2-5.3,0.3-10.6,0.4-15.9
		c0.1-5.4,0.2-10.7,0.3-15.9s0.2-10.2,0.3-15c0.3-11.2,0.5-22.3,0.7-33.4L197.9,88.2z"/>
	<path d="M266.2,157.3c0.1,8.6-0.6,17.2-2.1,25.6c-1.2,6.3-3.1,12.5-5.7,18.3c-2,4.5-4.7,8.6-8,12.3c-2.6,2.9-5.7,5.3-9.1,7.3
		c-2.8,1.6-5.8,2.8-8.9,3.5c-2.5,0.6-5,0.9-7.6,0.9l-19.6-1.6c0.8-13,1.5-26.1,1.9-39.3c0.4-13.2,0.7-26.5,0.7-39.9
		c0-10.2-0.1-20.2-0.4-30.2c-0.3-10-0.6-19.9-1.1-29.9c1.5-0.1,3-0.2,4.5-0.3s2.9-0.1,4.3-0.1c10.6,0,19.2,1.8,25.9,5.4
		c6.5,3.5,11.9,8.7,15.6,15.1c4,7.2,6.6,15,7.7,23.2C265.6,137.5,266.3,147.4,266.2,157.3z M246.7,154.7c0-3.1-0.1-6.5-0.2-10
		c-0.1-3.5-0.4-7.1-0.8-10.6c-0.4-3.5-1-6.9-1.9-10.2c-0.8-3.2-1.9-6.2-3.3-9.1c-1.2-2.6-2.9-5-4.9-7.1c-1.9-2-4.3-3.4-7-4.2
		c-0.4,7-0.7,13.9-1,20.5c-0.3,6.7-0.5,13.3-0.7,19.8c-0.2,6.5-0.3,13-0.4,19.4c-0.1,6.4-0.1,12.9-0.1,19.3v12.8
		c0,4.3,0.1,8.7,0.2,13.2c2.8-0.3,5.5-1.5,7.7-3.4c2.3-2,4.1-4.5,5.5-7.2c1.6-3.1,2.8-6.5,3.6-9.9c0.9-3.7,1.7-7.5,2.1-11.3
		c0.5-3.9,0.8-7.7,1-11.4S246.7,157.9,246.7,154.7L246.7,154.7z"/>
	<path d="M325.1,188.5c0.1,4.5-0.5,8.9-1.6,13.3c-0.9,3.4-2.3,6.7-4.1,9.8c-1.5,2.5-3.5,4.8-5.7,6.7c-3.7,3.1-8.1,5.3-12.8,6.3
		c-1.7,0.4-3.5,0.6-5.2,0.6c-0.8,0-1.8,0-3.2-0.1c-1.5-0.1-3.1-0.3-4.6-0.6c-1.9-0.4-3.8-0.8-5.7-1.4c-2.2-0.7-4.4-1.5-6.6-2.5
		l1-24.1c3,2.7,6.4,4.9,10.1,6.4c2.4,1,4.9,1.5,7.5,1.6c4,0,7-1.4,9-4.3c2-2.9,3-6.6,3-11.2c-0.1-3.5-0.9-7-2.3-10.3
		c-2-4.5-4.7-8.7-8-12.3c-2.6-3.1-5.3-6.2-8.1-9.6c-2.8-3.3-5.4-6.9-7.7-10.6c-2.3-3.8-4.2-7.9-5.6-12.2c-1.5-4.5-2.2-9.3-2.2-14.1
		c-0.1-5.6,0.8-11.3,2.7-16.6c1.5-4.3,3.9-8.2,7-11.6c2.8-3,6.3-5.3,10.1-6.8c3.8-1.5,7.8-2.3,11.9-2.2c3.8,0,7.5,0.5,11.2,1.5
		c4,1.1,7.8,2.6,11.5,4.5l-1.8,24.1c-1.5-1.9-3.2-3.6-5.2-5c-1.6-1.1-3.4-2.1-5.3-2.8c-1.5-0.6-3.1-1-4.7-1.2
		c-1.2-0.2-2.4-0.3-3.6-0.3c-1.8,0-3.6,0.5-5.1,1.4c-1.6,1-2.9,2.2-4,3.7c-1.2,1.7-2.1,3.6-2.6,5.6c-0.7,2.2-1,4.5-1,6.8
		c0,3.4,0.8,6.8,2.4,9.9c1.7,3.1,3.6,6,5.9,8.7c2.4,2.9,4.9,5.8,7.6,8.9c2.8,3.2,5.4,6.6,7.6,10.2c2.5,4.1,4.5,8.4,5.9,13
		C324.3,177,325.1,182.8,325.1,188.5z"/>
</g>
<ellipse class="st3" cx="213.9" cy="248.4" rx="85.6" ry="9.4"/>
<g>
	<path class="st1" d="M67.4,336.8l-2.9,30.2h-5.5c0-1.2-0.1-2.4-0.1-3.5s-0.1-2.1-0.2-3.1s-0.2-2-0.3-2.9s-0.2-1.9-0.3-2.9
		s-0.3-2-0.5-3.1s-0.3-2.2-0.5-3.4c-0.3,1.6-0.6,3.9-1.1,7c-0.5,3.1-1,7-1.7,11.8l-5.8,0.3L46.2,337l5.3-0.1c0,0.9,0,1.8,0,2.8
		s0,1.9,0,3v6.8c0,1,0,2.1,0,3.1s0,2,0,2.9s0,1.8,0,2.6l2.9-18.3h4.8l2.3,17.4c0-1,0.1-2.1,0.1-3.3s0.1-2.3,0.1-3.5s0.1-2.3,0.1-3.5
		s0-2.2,0.1-3.3c0.1-2.4,0.1-4.9,0.1-7.3L67.4,336.8z"/>
	<path class="st1" d="M81.3,352.9c0,2.2,0,4.4,0,6.6c0,2.2-0.1,4.5-0.1,6.9l-3.7-0.2v-2.8c-0.4,0.7-0.9,1.3-1.5,1.7
		c-0.5,0.4-1,0.7-1.5,0.9c-0.5,0.2-1.1,0.3-1.7,0.4c-0.7,0-1.3-0.2-1.9-0.5c-0.6-0.3-1.1-0.7-1.5-1.2c-0.4-0.5-0.8-1.1-1-1.7
		c-0.2-0.6-0.4-1.3-0.4-2c0-0.8,0.2-1.6,0.5-2.4c0.4-0.8,1-1.6,1.8-2.1c1.1-0.9,2.1-1.6,2.9-2.1s1.5-1.1,2-1.6
		c0.5-0.4,0.9-0.8,1.2-1.3c0.3-0.4,0.4-1,0.4-1.5c0.1-0.7-0.1-1.4-0.5-2.1c-0.3-0.4-0.7-0.7-1.2-0.7c-0.3,0-0.6,0.1-0.8,0.2
		c-0.2,0.2-0.4,0.4-0.5,0.6c-0.1,0.3-0.2,0.6-0.3,0.9c-0.1,0.3-0.1,0.6-0.1,0.9c0,0.2,0,0.5,0,0.7c0,0.3,0.1,0.5,0.1,0.8l-4.8,0.1
		c0-0.2,0-0.5-0.1-0.7s0-0.4,0-0.6c0-0.9,0.1-1.8,0.4-2.6c0.3-0.8,0.7-1.6,1.3-2.3c0.6-0.7,1.3-1.2,2.1-1.6c0.9-0.4,1.8-0.6,2.8-0.6
		c1.1-0.1,2.3,0.2,3.2,0.9c0.8,0.6,1.4,1.3,1.8,2.2c0.4,1,0.7,2.1,0.8,3.1C81.2,350.5,81.3,351.7,81.3,352.9z M76.6,358.8
		c0.1-0.4,0.1-0.8,0.2-1.2s0.1-0.8,0.2-1.4s0.1-1.1,0.1-1.8c-0.2,0.3-0.4,0.6-0.7,0.8c-0.2,0.2-0.4,0.5-0.6,0.6s-0.4,0.4-0.6,0.6
		s-0.7,0.6-1,0.9c-0.4,0.3-0.7,0.6-1,1c-0.3,0.3-0.5,0.7-0.8,1.1c-0.2,0.3-0.3,0.7-0.3,1.1c0,0.4,0.1,0.8,0.4,1.1
		c0.2,0.3,0.6,0.5,1,0.5c0.3,0,0.6-0.1,0.9-0.2c0.3-0.2,0.6-0.4,0.9-0.7c0.3-0.3,0.6-0.7,0.8-1.1C76.3,359.7,76.5,359.3,76.6,358.8
		L76.6,358.8z"/>
	<path class="st1" d="M91.1,337.9c-0.1,1.1-0.2,2.2-0.3,3.3s-0.2,2.1-0.2,3.2l1.6-0.1c0.5,0,1.1-0.1,1.6-0.1l-0.2,4.3
		c-0.5,0-1.1,0-1.6,0h-1.6c-0.1,2-0.2,4-0.2,5.9c0,1.9-0.1,3.9-0.1,5.8c0,1,0,2,0,3s0.1,2,0.1,3.1l-4.6,0.1c0.1-3,0.2-6,0.2-8.9
		s0.1-5.9,0.1-8.9l-1.6,0.1c-0.6,0-1.1,0.1-1.6,0.1l0.2-4.6c0.5,0.1,1,0.1,1.5,0.2l1.5,0.1c0-1.1,0-2.2,0-3.2c0-1,0-2.1-0.1-3.2
		L91.1,337.9z"/>
	<path class="st1" d="M106.8,365.7c-1.2,0.4-2.3,0.7-3.6,0.9c-0.9,0.1-1.8,0.2-2.6,0.2c-0.8,0-1.5-0.2-2.2-0.5
		c-0.6-0.3-1.2-0.8-1.7-1.3c-0.5-0.6-0.9-1.2-1.2-1.9c-0.3-0.8-0.6-1.5-0.7-2.3c-0.2-0.8-0.3-1.6-0.4-2.5c-0.1-0.8-0.1-1.6-0.1-2.4
		c0-1.7,0.1-3.4,0.4-5.1c0.2-1.4,0.7-2.7,1.3-4c0.5-1.1,1.2-2,2.1-2.7c1.5-1.2,3.6-1.3,5.2-0.3c0.8,0.5,1.4,1.2,1.8,2
		c0.6,1.1,1,2.2,1.2,3.4c0.3,1.6,0.4,3.3,0.4,4.9c0,0.5,0,1.1,0,1.6c0,0.5-0.1,1.1-0.1,1.7l-7.4,1c0.1,0.5,0.1,1,0.3,1.5
		c0.1,0.4,0.3,0.8,0.5,1.2c0.2,0.3,0.4,0.6,0.7,0.9c0.3,0.2,0.6,0.3,1,0.3c0.8,0,1.5,0,2.3-0.1c0.8-0.1,1.5-0.2,2.4-0.3L106.8,365.7
		z M99,354.8l3.5-0.6v-0.8c0-0.9-0.1-1.9-0.3-2.8c-0.1-0.5-0.3-1-0.6-1.4c-0.2-0.3-0.5-0.6-0.9-0.6c-0.4,0-0.8,0.2-1,0.6
		c-0.3,0.4-0.4,0.8-0.5,1.3c-0.1,0.6-0.2,1.2-0.2,1.8c0,0.7,0,1.3,0,2L99,354.8z"/>
	<path class="st1" d="M121.4,353.3c-0.4,0.1-0.9,0.1-1.4,0.2s-0.9,0.2-1.4,0.3s-1.1,0.3-1.6,0.5c0.1-0.6,0.2-1.2,0.3-1.8
		c0-0.5,0.1-1,0.1-1.4c0-0.6,0-1.2-0.2-1.8c-0.1-0.4-0.2-0.7-0.4-1c-0.1-0.2-0.3-0.3-0.5-0.4c-0.1,0-0.2-0.1-0.3-0.1
		c-0.4,0-0.8,0.2-1.1,0.6c-0.3,0.4-0.5,0.9-0.7,1.5c-0.2,0.7-0.3,1.4-0.3,2.1c0,0.8-0.1,1.6-0.1,2.4c0,0.6,0,1.2,0,1.8
		s0,1.2,0.1,1.8l0.3,8.2l-4.8,0.3c0-3.4,0-6.4-0.1-9.1c-0.1-2.7-0.1-5-0.2-6.9c-0.1-2.2-0.2-4.2-0.3-6l4.1-0.3l0.2,2.4
		c0.3-0.8,0.7-1.5,1.3-2.1c0.4-0.5,0.9-0.9,1.5-1.2c0.4-0.2,0.9-0.4,1.4-0.5c0.3-0.1,0.6-0.1,0.9-0.1c0.6,0,1.3,0.2,1.7,0.7
		c0.5,0.5,0.8,1.1,1.1,1.8c0.3,0.8,0.4,1.6,0.5,2.4c0.1,0.8,0.1,1.7,0.1,2.5c0,0.6,0,1.2,0,1.8S121.4,352.9,121.4,353.3z"/>
	<path class="st1" d="M136.1,352.9c-0.1,1.7-0.1,3.3-0.2,4.9c0,0.7,0,1.4-0.1,2.1s-0.1,1.4-0.1,2.1s-0.1,1.3-0.1,2s-0.1,1.2-0.1,1.6
		l-4.6,0.4c0.1-1.8,0.2-3.5,0.3-4.9c0.1-1.4,0.1-2.6,0.2-3.6s0.1-1.8,0.1-2.5s0-1.2,0-1.6s0-0.7,0-0.9s0-0.3,0-0.4
		c0-0.6,0-1.3-0.1-1.9c0-0.4-0.1-0.8-0.3-1.1c-0.1-0.2-0.2-0.4-0.4-0.6c-0.2-0.1-0.3-0.2-0.5-0.1c-0.3,0-0.5,0.1-0.8,0.1
		c-0.3,0.1-0.5,0.3-0.7,0.5c-0.2,0.4-0.4,0.8-0.5,1.2c-0.1,0.7-0.2,1.3-0.2,2c0,1.6,0,3.1,0,4.7s0,2.9,0,4.1c0,1.4,0,2.8,0.1,4
		l-5,0.5c0.1-1.5,0.2-2.9,0.2-4.4s0.1-2.7,0.1-3.8c0-2.1,0-4.2-0.1-6.3c-0.1-2.1-0.2-4.3-0.5-6.5c0.9,0,1.6-0.1,2.2-0.1
		s1-0.1,1.4-0.1c0.3,0,0.6-0.1,0.9-0.2v2.5c0.3-0.5,0.6-0.9,1-1.4c0.3-0.4,0.7-0.8,1.1-1.1c0.4-0.3,0.8-0.5,1.2-0.7
		c0.4-0.2,0.9-0.3,1.3-0.3c0.4,0,0.9,0,1.3,0.1c0.4,0.1,0.7,0.2,1,0.4c0.3,0.2,0.5,0.6,0.7,0.9c0.2,0.5,0.4,1,0.5,1.5
		c0.3-0.4,0.5-0.8,0.8-1.1c0.3-0.3,0.6-0.7,1-0.9c0.3-0.3,0.7-0.5,1.1-0.6c0.4-0.2,0.9-0.2,1.4-0.2c0.7,0,1.4,0.1,2,0.3
		c0.5,0.2,1,0.6,1.3,1.1c0.4,0.7,0.6,1.5,0.7,2.4c0.2,1.3,0.2,2.7,0.2,4c0,2.4-0.1,4.8-0.2,7.2c-0.1,2.4-0.2,4.9-0.4,7.4l-4.6,0.4
		c0.2-2.6,0.3-4.7,0.4-6.5s0.1-3.2,0.1-4.2s0-1.9,0-2.3s0-0.8,0-0.8c0-0.6,0-1.3-0.1-1.9c0-0.4-0.2-0.8-0.3-1.1
		c-0.1-0.2-0.3-0.4-0.5-0.6c-0.2-0.1-0.4-0.2-0.6-0.1h-0.4c-0.2,0-0.3,0.1-0.5,0.2c-0.2,0.2-0.4,0.3-0.5,0.6c-0.2,0.3-0.3,0.7-0.4,1
		c0,0.6,0.1,1.2,0.1,1.7S136.1,352.7,136.1,352.9z"/>
	<path class="st1" d="M158.8,352.9c0,2.2,0,4.4,0,6.6c0,2.2-0.1,4.5-0.1,6.9l-3.6-0.2v-2.8c-0.3,0.7-0.8,1.3-1.4,1.7
		c-0.5,0.4-1,0.7-1.5,0.9c-0.5,0.2-1.1,0.3-1.7,0.4c-0.7,0-1.3-0.2-1.9-0.5c-0.6-0.3-1.1-0.7-1.5-1.2c-0.4-0.5-0.8-1.1-1-1.7
		c-0.2-0.6-0.4-1.3-0.4-2c0-0.8,0.2-1.6,0.5-2.4c0.4-0.8,1-1.6,1.8-2.1c1.1-0.9,2.1-1.6,2.9-2.1s1.5-1.1,2-1.6
		c0.5-0.4,0.9-0.8,1.2-1.3c0.3-0.4,0.4-1,0.4-1.5c0.1-0.7-0.1-1.4-0.5-2.1c-0.3-0.4-0.7-0.7-1.2-0.7c-0.3,0-0.6,0.1-0.8,0.2
		c-0.2,0.2-0.4,0.4-0.5,0.6c-0.1,0.3-0.2,0.6-0.3,0.9c-0.1,0.3-0.1,0.6-0.1,0.9c0,0.2,0,0.5,0,0.7c0,0.3,0.1,0.5,0.1,0.8l-4.8,0.1
		c0-0.2,0-0.5-0.1-0.7s0-0.4,0-0.6c0-0.9,0.2-1.7,0.4-2.6c0.3-0.8,0.7-1.6,1.3-2.3c0.6-0.7,1.3-1.2,2.1-1.6c0.9-0.4,1.8-0.6,2.8-0.6
		c1.1-0.1,2.3,0.2,3.2,0.9c0.8,0.6,1.4,1.3,1.8,2.2c0.4,1,0.7,2.1,0.8,3.1C158.7,350.5,158.7,351.7,158.8,352.9z M154,358.8
		c0.1-0.4,0.1-0.8,0.2-1.2s0.1-0.8,0.1-1.4s0.1-1.1,0.1-1.8c-0.2,0.3-0.4,0.6-0.6,0.8c-0.2,0.2-0.4,0.5-0.6,0.6l-0.6,0.6
		c-0.3,0.3-0.7,0.6-1,0.9c-0.4,0.3-0.7,0.6-1,1c-0.3,0.3-0.5,0.7-0.8,1.1c-0.2,0.3-0.3,0.7-0.3,1.1c0,0.4,0.1,0.8,0.4,1.1
		c0.2,0.3,0.6,0.5,1,0.5c0.3,0,0.6-0.1,0.9-0.2c0.3-0.2,0.6-0.4,0.9-0.7C153.4,360.5,153.8,359.7,154,358.8L154,358.8z"/>
	<path class="st1" d="M169.7,366.1c0.3-2.2,0.5-4.5,0.7-6.8c0.1-2.3,0.2-4.7,0.2-7.3c0-0.7,0-1.3-0.2-2c-0.1-0.4-0.2-0.8-0.4-1.2
		c-0.1-0.2-0.3-0.4-0.6-0.5c-0.2-0.1-0.4-0.1-0.6-0.1c-0.3,0-0.5,0-0.8,0.1c-0.3,0.1-0.5,0.3-0.7,0.6c-0.2,0.4-0.4,0.8-0.6,1.2
		c-0.2,0.7-0.4,1.3-0.4,2c-0.1,0.8-0.2,1.8-0.3,3s-0.1,2.6-0.1,4.2v1.8c0,0.6,0,1.2,0,1.8s0,1.1,0,1.5c0,0.3,0,0.6,0.1,0.9h-4.7
		c0-1.3,0.1-2.4,0.1-3.4s0-1.9,0-2.8s0-1.6,0-2.4s0-1.5,0-2.2s0-1.3,0-2s0-1.4,0-2.2s0-1.6,0-2.6s0-2-0.1-3.1l4.9-0.1l-0.1,2.1
		c0.3-0.6,0.7-1.2,1.2-1.7c0.4-0.4,0.8-0.7,1.3-1c0.4-0.2,0.8-0.4,1.2-0.5c0.4-0.1,0.7-0.1,1.1-0.1c0.8,0,1.6,0.3,2.1,0.9
		c0.6,0.7,1.1,1.5,1.3,2.4c0.4,1.1,0.6,2.3,0.7,3.4c0.1,1.3,0.2,2.7,0.2,4c0,1,0,2-0.1,3.1s-0.1,2-0.2,3s-0.1,2-0.2,2.9
		s-0.1,1.8-0.2,2.6L169.7,366.1z"/>
	<path class="st1" d="M198.1,352c0,1.9-0.1,3.8-0.5,5.6c-0.3,1.4-0.7,2.7-1.2,4c-0.4,1-1,1.9-1.8,2.7c-0.6,0.6-1.3,1.2-2,1.6
		c-0.6,0.4-1.3,0.6-2,0.8c-0.5,0.1-1.1,0.2-1.6,0.2l-4.3-0.4c0.2-2.9,0.3-5.7,0.4-8.6s0.1-5.8,0.1-8.7c0-2.2,0-4.4-0.1-6.6
		c-0.1-2.2-0.1-4.4-0.3-6.6l1-0.1h0.9c2-0.1,3.9,0.3,5.7,1.2c1.4,0.7,2.6,1.9,3.5,3.3c0.9,1.6,1.4,3.3,1.7,5.1
		C198,347.6,198.2,349.8,198.1,352z M193.9,351.4c0-0.7,0-1.4,0-2.2s-0.1-1.5-0.2-2.3c-0.1-0.8-0.2-1.5-0.4-2.2
		c-0.2-0.7-0.4-1.4-0.7-2c-0.3-0.6-0.6-1.1-1.1-1.6c-0.4-0.4-1-0.8-1.5-0.9c-0.1,1.5-0.2,3-0.2,4.5s-0.1,2.9-0.1,4.3
		s-0.1,2.9-0.1,4.2s0,2.8,0,4.2v2.8c0,0.9,0,1.9,0,2.9c0.6-0.1,1.2-0.3,1.7-0.7c0.5-0.4,0.9-1,1.2-1.6c0.4-0.7,0.6-1.4,0.8-2.2
		c0.2-0.8,0.4-1.6,0.5-2.5c0.1-0.8,0.2-1.7,0.2-2.5S193.9,352.1,193.9,351.4L193.9,351.4z"/>
	<path class="st1" d="M212.2,365.7c-1.2,0.4-2.3,0.7-3.6,0.9c-0.9,0.1-1.7,0.2-2.6,0.2c-0.8,0-1.6-0.2-2.2-0.5
		c-0.6-0.3-1.2-0.8-1.7-1.3c-0.5-0.6-0.9-1.2-1.2-1.9c-0.3-0.8-0.6-1.5-0.7-2.3c-0.2-0.8-0.3-1.6-0.4-2.5c-0.1-0.8-0.1-1.6-0.1-2.4
		c0-1.7,0.1-3.4,0.4-5.1c0.2-1.4,0.7-2.7,1.3-4c0.5-1,1.2-1.9,2.1-2.6c0.8-0.6,1.8-1,2.8-1c0.8,0,1.7,0.2,2.4,0.6
		c0.8,0.5,1.4,1.2,1.8,2c0.6,1.1,1,2.2,1.2,3.4c0.3,1.6,0.4,3.3,0.4,4.9c0,0.5,0,1.1,0,1.6c0,0.5-0.1,1.1-0.1,1.7l-7.4,1
		c0,0.5,0.1,1,0.3,1.5c0.1,0.4,0.3,0.8,0.5,1.2c0.2,0.3,0.4,0.6,0.7,0.9c0.3,0.2,0.6,0.3,1,0.3c0.8,0,1.5,0,2.3-0.1
		c0.8-0.1,1.6-0.2,2.4-0.3L212.2,365.7z M204.4,354.8l3.5-0.6v-0.8c0-0.9-0.1-1.9-0.3-2.8c-0.1-0.5-0.3-1-0.6-1.4
		c-0.2-0.3-0.5-0.6-0.9-0.6c-0.4,0-0.8,0.2-1,0.6c-0.3,0.4-0.4,0.8-0.5,1.3c-0.1,0.6-0.2,1.2-0.2,1.8c0,0.7,0,1.3,0,2L204.4,354.8z"
		/>
	<path class="st1" d="M224,360c0,1.1-0.2,2.1-0.6,3.1c-0.4,0.8-0.9,1.4-1.6,2c-0.6,0.5-1.3,0.9-2,1.1c-0.7,0.2-1.4,0.3-2.1,0.3
		c-0.5,0-1-0.1-1.4-0.2c-0.4-0.1-0.9-0.2-1.3-0.3c-0.5-0.2-0.9-0.4-1.2-0.8l0.2-4.8c0.5,0.4,1,0.7,1.5,1c0.5,0.2,0.9,0.4,1.4,0.5
		c0.5,0.1,1,0.2,1.5,0.2c0.4-0.2,0.7-0.5,0.9-0.9c0.2-0.4,0.3-0.8,0.3-1.3c0-0.4-0.1-0.9-0.3-1.3c-0.2-0.5-0.5-0.9-0.9-1.3l-1.5-1.5
		c-0.6-0.6-1.1-1.2-1.6-1.9c-0.5-0.7-0.9-1.5-1.3-2.3c-0.3-0.9-0.5-1.8-0.5-2.8c0-0.9,0.1-1.8,0.4-2.7c0.2-0.8,0.6-1.5,1.1-2.1
		c0.5-0.6,1.1-1,1.8-1.4c0.7-0.3,1.5-0.5,2.3-0.5c0.7,0,1.5,0.1,2.2,0.3c0.9,0.3,1.7,0.6,2.5,1l-0.3,4.9c-0.4-0.3-0.7-0.6-1.2-0.8
		c-0.4-0.2-0.7-0.4-1.1-0.5c-0.4-0.1-0.8-0.2-1.2-0.2c-0.5,0.1-1,0.4-1.4,0.8c-0.4,0.5-0.6,1.1-0.6,1.8c0,0.6,0.1,1.2,0.4,1.8
		c0.3,0.5,0.6,1,1,1.4c0.4,0.4,0.9,0.9,1.4,1.3c0.5,0.5,1,1,1.4,1.5c0.4,0.6,0.8,1.2,1.1,1.9C223.8,358.2,224,359.1,224,360z"/>
	<path class="st1" d="M232.5,338.4c0,0.4-0.1,0.8-0.2,1.2c-0.1,0.4-0.3,0.7-0.6,1c-0.3,0.3-0.7,0.5-1.1,0.6c-0.5,0.2-1,0.2-1.5,0.2
		c-0.5,0-1.1-0.1-1.6-0.2c-0.4-0.1-0.7-0.4-1-0.6c-0.3-0.3-0.5-0.6-0.6-1c-0.2-0.8-0.2-1.6,0-2.4c0.1-0.4,0.3-0.7,0.6-1
		c0.3-0.3,0.7-0.5,1.1-0.7c1-0.3,2.1-0.3,3.1,0c0.4,0.1,0.7,0.4,1,0.7c0.3,0.3,0.5,0.6,0.6,1C232.4,337.6,232.5,338,232.5,338.4z
		 M231.2,344.5c-0.1,0.8-0.2,1.6-0.2,2.5s-0.1,1.8-0.1,2.7s-0.1,1.9-0.1,2.9s0,1.9,0,2.9s0,2.1,0,3.2s0,2,0.1,2.8s0.1,1.6,0.1,2.3
		c0,0.5,0.1,1,0.2,1.5c-0.6,0-1.1,0-1.7,0l-1.7,0.1c-0.6,0-1.3,0.1-1.9,0.2c0.2-2.5,0.4-4.8,0.5-6.9s0.1-4,0.1-5.6
		c0-1.4,0-2.7-0.1-3.8s-0.1-2-0.2-2.7s-0.1-1.6-0.2-2.2c0.8,0.1,1.5,0.2,2.2,0.2s1.2,0,1.7,0h0.6h0.5L231.2,344.5z"/>
	<path class="st1" d="M246.8,360.6c0,1.7-0.1,3.1-0.2,4.4c0,1.1-0.2,2.2-0.3,3.3c-0.1,0.8-0.4,1.6-0.8,2.4c-0.3,0.6-0.8,1.2-1.4,1.6
		c-0.7,0.4-1.5,0.7-2.3,0.9c-1.1,0.2-2.2,0.3-3.4,0.3c-0.7,0-1.4,0-2.1-0.1c-0.8-0.1-1.6-0.2-2.4-0.3l0.2-4.6l2.7,0.2l2,0.1
		c0.6,0,1.2,0.1,1.6,0.1c0.7,0,1.3-0.5,1.5-1.2c0.4-1,0.6-2.1,0.6-3.2c-0.2,0.5-0.5,1-0.9,1.4c-0.3,0.3-0.6,0.6-1,0.8
		c-0.3,0.2-0.6,0.3-1,0.4c-0.3,0.1-0.6,0.1-0.9,0.1c-0.8,0-1.5-0.2-2.1-0.6c-0.8-0.5-1.4-1.3-1.9-2.2c-0.6-1.2-1.1-2.6-1.4-3.9
		c-0.4-2-0.6-4-0.5-6c0-1.6,0.1-3.3,0.4-4.9c0.2-1.2,0.6-2.4,1.2-3.5c0.4-0.8,1-1.6,1.7-2.2c0.6-0.5,1.3-0.7,2.1-0.7
		c0.4,0,0.7,0.1,1.1,0.2c0.4,0.1,0.8,0.3,1.2,0.6c0.4,0.3,0.8,0.7,1.1,1.1c0.4,0.6,0.7,1.2,0.9,1.9v-2.6l3.7,0.2L246.8,360.6z
		 M242.2,356.3c0-0.4,0-1,0-1.5s0-1.2-0.1-1.9c0-0.6-0.1-1.3-0.2-1.9c-0.1-0.6-0.2-1.1-0.4-1.7c-0.1-0.4-0.4-0.8-0.7-1.2
		c-0.3-0.3-0.7-0.5-1.1-0.5c-0.5,0-1,0.2-1.2,0.7c-0.3,0.5-0.6,1.1-0.7,1.7c-0.2,0.8-0.2,1.5-0.3,2.3c0,0.8,0,1.6,0,2.4
		c0,0.5,0,1.1,0,1.7s0.1,1.2,0.1,1.8c0.1,0.6,0.1,1.1,0.2,1.7c0.1,0.5,0.2,1,0.4,1.4c0.1,0.4,0.3,0.7,0.6,1c0.2,0.2,0.5,0.4,0.9,0.4
		c0.4,0,0.8-0.2,1.1-0.5c0.3-0.4,0.6-0.9,0.7-1.4c0.2-0.7,0.3-1.4,0.4-2.1C242.1,358.1,242.2,357.2,242.2,356.3L242.2,356.3z"/>
	<path class="st1" d="M257.8,366.1c0.3-2.2,0.5-4.5,0.7-6.8s0.2-4.7,0.2-7.3c0-0.7,0-1.3-0.2-2c-0.1-0.4-0.2-0.8-0.4-1.2
		c-0.1-0.2-0.3-0.4-0.6-0.5c-0.2-0.1-0.4-0.1-0.6-0.1c-0.3,0-0.5,0-0.8,0.1c-0.3,0.1-0.5,0.3-0.7,0.6c-0.2,0.4-0.4,0.8-0.6,1.2
		c-0.2,0.7-0.4,1.3-0.4,2c-0.1,0.8-0.2,1.8-0.3,3s-0.1,2.6-0.1,4.2v3.6c0,0.6,0,1.1,0,1.5c0,0.3,0,0.6,0.1,0.9h-4.8
		c0-1.3,0.1-2.4,0.1-3.4s0-1.9,0-2.8s0-1.6,0-2.4s0-1.5,0-2.2s0-1.3,0-2s0-1.4,0-2.2s0-1.6,0-2.6s0-2-0.1-3.1l4.9-0.1l-0.1,2.1
		c0.3-0.6,0.7-1.2,1.2-1.7c0.4-0.4,0.8-0.7,1.3-1c0.4-0.2,0.8-0.4,1.2-0.5c0.4-0.1,0.7-0.1,1.1-0.1c0.8,0,1.6,0.3,2.1,0.9
		c0.6,0.7,1.1,1.5,1.3,2.4c0.4,1.1,0.6,2.3,0.7,3.4c0.1,1.3,0.2,2.7,0.2,4c0,1,0,2-0.1,3.1s-0.1,2-0.2,3s-0.1,2-0.2,2.9
		s-0.1,1.8-0.2,2.6L257.8,366.1z"/>
	<path class="st1" d="M283.6,358.8c0,1-0.1,2-0.3,2.9c-0.2,0.8-0.5,1.5-0.9,2.1c-0.3,0.6-0.8,1-1.2,1.5c-0.4,0.4-0.9,0.7-1.4,0.9
		c-0.4,0.2-0.9,0.4-1.4,0.5c-0.4,0.1-0.8,0.1-1.1,0.1h-0.7c-0.3,0-0.7-0.1-1-0.1c-0.4-0.1-0.8-0.2-1.2-0.3c-0.5-0.1-1-0.3-1.4-0.6
		l0.2-5.3c0.7,0.6,1.4,1.1,2.2,1.4c0.5,0.2,1.1,0.3,1.6,0.4c0.8,0.1,1.5-0.3,2-0.9c0.5-0.7,0.7-1.6,0.7-2.5c0-0.8-0.2-1.5-0.5-2.2
		c-0.4-1-1-1.9-1.8-2.7c-0.6-0.7-1.2-1.4-1.8-2.1c-0.6-0.7-1.2-1.5-1.7-2.3c-0.5-0.8-0.9-1.7-1.2-2.7c-0.3-1-0.5-2-0.5-3.1
		c0-1.2,0.2-2.5,0.6-3.6c0.3-0.9,0.9-1.8,1.5-2.5c0.6-0.7,1.4-1.2,2.2-1.5c0.8-0.3,1.7-0.5,2.6-0.5c0.8,0,1.7,0.1,2.5,0.3
		c0.9,0.2,1.7,0.6,2.5,1l-0.4,5.3c-0.6-0.8-1.4-1.4-2.3-1.7c-0.3-0.1-0.7-0.2-1-0.3c-0.3,0-0.5-0.1-0.8-0.1c-0.4,0-0.8,0.1-1.1,0.3
		c-0.4,0.2-0.7,0.5-0.9,0.8c-0.3,0.4-0.5,0.8-0.6,1.2c-0.1,0.5-0.2,1-0.2,1.5c0,0.8,0.2,1.5,0.5,2.2c0.4,0.7,0.8,1.3,1.3,1.9
		c0.5,0.6,1.1,1.3,1.7,1.9c0.6,0.7,1.2,1.5,1.7,2.2c0.5,0.9,1,1.9,1.3,2.9C283.5,356.3,283.7,357.6,283.6,358.8z"/>
	<path class="st1" d="M298.1,354.2c0,1.5-0.1,3-0.2,4.5c-0.1,1.1-0.3,2.3-0.7,3.4c-0.2,0.8-0.6,1.6-1,2.4c-0.3,0.6-0.8,1.1-1.3,1.5
		c-0.5,0.4-1,0.6-1.6,0.8c-0.6,0.2-1.1,0.2-1.7,0.2c-0.6,0-1.1-0.1-1.7-0.2c-0.5-0.1-1.1-0.4-1.5-0.7c-0.5-0.4-0.9-0.8-1.3-1.4
		c-0.4-0.7-0.8-1.4-1-2.2c-0.3-1.1-0.5-2.1-0.6-3.2c-0.2-1.5-0.2-2.9-0.2-4.4c0-2.1,0.1-4.2,0.6-6.2c0.3-1.3,0.8-2.6,1.5-3.8
		c0.5-0.8,1.2-1.5,2-1.9c0.7-0.4,1.6-0.5,2.4-0.5c0.5,0,1,0.1,1.6,0.2c0.5,0.1,1,0.3,1.5,0.6c0.5,0.3,1,0.8,1.3,1.3
		c0.4,0.7,0.8,1.4,1,2.1c0.3,1,0.6,2.1,0.7,3.2C298,351.3,298.1,352.7,298.1,354.2z M293.6,354.4c0-1.1,0-2.2-0.1-3.3
		c-0.1-0.7-0.2-1.3-0.4-2c-0.1-0.4-0.3-0.7-0.6-1c-0.2-0.2-0.5-0.3-0.8-0.3c-0.3,0-0.6,0.2-0.8,0.4c-0.3,0.4-0.5,0.8-0.6,1.3
		c-0.2,0.8-0.3,1.5-0.4,2.3c-0.1,1-0.1,2.1-0.1,3.5c0,1.1,0,2.3,0.2,3.4c0.1,0.7,0.2,1.5,0.4,2.2c0.1,0.4,0.4,0.8,0.7,1.1
		c0.2,0.2,0.5,0.3,0.8,0.3c0.6,0,1.1-0.6,1.3-1.9C293.5,358.5,293.6,356.4,293.6,354.4L293.6,354.4z"/>
	<path class="st1" d="M305,365.7l-1.2,0.1l-1.4,0.1c-0.5,0-1.1,0.1-1.7,0.2c-0.1-4.7-0.3-8.9-0.4-12.6c-0.1-3.6-0.3-6.7-0.4-9.2
		c-0.1-2.9-0.3-5.5-0.4-7.7l5.5-0.2v8.5c0,2.5,0,4.8,0,6.7c0,2,0,3.7,0,5.1s0,2.7,0,3.8C305,362.9,305,364.7,305,365.7z"/>
	<path class="st1" d="M320.8,345.5c-0.1,2.2-0.2,4.5-0.2,6.7s-0.1,4.4-0.1,6.6c0,1.3,0,2.6,0,3.9s0,2.6,0.1,3.9l-4.2,0.1v-2.6
		c-0.4,0.6-0.8,1.2-1.4,1.6c-0.5,0.3-1,0.6-1.5,0.8c-0.4,0.1-0.8,0.2-1.2,0.3h-0.6c-0.8-0.2-1.6-0.6-2.2-1.2
		c-0.6-0.6-1.1-1.4-1.4-2.2c-0.4-1-0.6-2-0.7-3c-0.1-1.2-0.2-2.3-0.2-3.5c0-1.1,0-2.1,0.1-3.3s0.2-2.2,0.3-3.3s0.3-2.1,0.4-3.1
		s0.3-1.9,0.5-2.8l4.6,0.1l-0.4,2.7c-0.1,1-0.2,2-0.4,3s-0.2,2-0.2,3s-0.1,2-0.1,2.9s0,1.6,0.1,2.4c0.1,0.6,0.2,1.3,0.3,1.9
		c0.1,0.5,0.3,0.9,0.6,1.3c0.2,0.3,0.6,0.5,0.9,0.5c0.5,0,1-0.4,1.2-0.9c0.4-0.7,0.6-1.5,0.7-2.3c0.2-1,0.3-2.1,0.4-3.1
		c0.1-1.2,0.1-2.3,0.1-3.5c0-0.9,0-1.7,0-2.5s0-1.5-0.1-2.1s-0.1-1.4-0.1-2L320.8,345.5z"/>
	<path class="st1" d="M330.6,337.9c-0.1,1.1-0.2,2.2-0.3,3.3s-0.2,2.1-0.2,3.2l1.6-0.1c0.5,0,1.1-0.1,1.6-0.1l-0.1,4.3
		c-0.5,0-1.1,0-1.6,0h-1.6c-0.1,2-0.2,4-0.2,5.9c0,1.9-0.1,3.9-0.1,5.8c0,1,0,2,0,3s0,2,0.1,3.1l-4.6,0.1c0.1-3,0.2-6,0.2-8.9
		s0.1-5.9,0.1-8.9l-1.6,0.1c-0.5,0-1.1,0.1-1.6,0.1l0.2-4.6c0.5,0.1,1,0.1,1.5,0.2l1.5,0.1c0-1.1,0-2.2,0-3.2c0-1,0-2.1-0.1-3.2
		L330.6,337.9z"/>
	<path class="st1" d="M340.9,338.4c0,0.4-0.1,0.8-0.2,1.2c-0.1,0.4-0.3,0.7-0.6,1c-0.3,0.3-0.7,0.5-1.1,0.6c-0.5,0.2-1,0.2-1.5,0.2
		c-0.5,0-1.1-0.1-1.6-0.2c-0.4-0.1-0.7-0.4-1-0.6c-0.3-0.3-0.5-0.6-0.6-1c-0.1-0.4-0.2-0.8-0.2-1.2c0-0.4,0.1-0.8,0.2-1.2
		c0.1-0.4,0.3-0.7,0.6-1c0.3-0.3,0.7-0.5,1.1-0.7c0.5-0.2,1-0.3,1.5-0.2c0.5,0,1,0.1,1.5,0.2c0.4,0.1,0.8,0.4,1,0.7
		c0.3,0.3,0.5,0.6,0.6,1C340.9,337.6,340.9,338,340.9,338.4z M339.7,344.5c-0.1,0.8-0.1,1.6-0.2,2.5s-0.1,1.8-0.1,2.7
		s-0.1,1.9-0.1,2.9s0,1.9,0,2.9s0,2.1,0,3.2s0,2,0.1,2.8s0.1,1.6,0.1,2.3c0,0.5,0.1,1,0.2,1.5c-0.6,0-1.1,0-1.7,0l-1.8,0.1
		c-0.6,0-1.3,0.1-1.9,0.2c0.2-2.5,0.4-4.8,0.5-6.9c0.1-2.1,0.1-4,0.1-5.6c0-1.4,0-2.7-0.1-3.8s-0.1-2-0.2-2.7s-0.1-1.6-0.2-2.2
		c0.8,0.1,1.5,0.2,2.1,0.2s1.2,0,1.7,0h0.6h0.5L339.7,344.5z"/>
	<path class="st1" d="M354.3,354.2c0,1.5-0.1,3-0.2,4.5c-0.1,1.1-0.4,2.3-0.7,3.4c-0.2,0.8-0.6,1.6-1,2.4c-0.3,0.6-0.8,1.1-1.3,1.5
		c-0.5,0.4-1,0.6-1.6,0.8c-0.6,0.2-1.1,0.2-1.7,0.2c-0.6,0-1.1-0.1-1.7-0.2c-0.5-0.1-1.1-0.4-1.5-0.7c-0.5-0.4-0.9-0.8-1.3-1.4
		c-0.4-0.7-0.8-1.4-1-2.2c-0.3-1.1-0.5-2.1-0.6-3.2c-0.2-1.5-0.2-2.9-0.2-4.4c0-2.1,0.1-4.2,0.6-6.2c0.3-1.3,0.8-2.6,1.5-3.8
		c0.5-0.8,1.2-1.5,2-1.9c0.7-0.4,1.6-0.5,2.4-0.5c0.5,0,1,0.1,1.6,0.2c0.5,0.1,1,0.3,1.5,0.6c0.5,0.3,1,0.8,1.3,1.3
		c0.5,0.6,0.8,1.4,1,2.1c0.3,1,0.6,2.1,0.7,3.2C354.2,351.3,354.3,352.7,354.3,354.2z M349.8,354.4c0-1.1,0-2.2-0.1-3.3
		c-0.1-0.7-0.2-1.3-0.4-2c-0.1-0.4-0.3-0.7-0.6-1c-0.2-0.2-0.5-0.3-0.8-0.3c-0.3,0-0.6,0.2-0.8,0.4c-0.3,0.4-0.5,0.8-0.6,1.3
		c-0.2,0.8-0.3,1.5-0.4,2.3c-0.1,1-0.1,2.1-0.1,3.5c0,1.1,0,2.3,0.2,3.4c0.1,0.7,0.2,1.5,0.4,2.2c0.1,0.4,0.4,0.8,0.7,1.1
		c0.2,0.2,0.5,0.3,0.8,0.3c0.6,0,1.1-0.6,1.3-1.9C349.7,358.5,349.9,356.4,349.8,354.4L349.8,354.4z"/>
	<path class="st1" d="M364.9,366.1c0.3-2.2,0.5-4.5,0.7-6.8s0.2-4.7,0.2-7.3c0-0.7,0-1.3-0.2-2c-0.1-0.4-0.2-0.8-0.4-1.2
		c-0.1-0.2-0.3-0.4-0.6-0.5c-0.2-0.1-0.4-0.1-0.6-0.1c-0.3,0-0.5,0-0.8,0.1c-0.3,0.1-0.5,0.3-0.7,0.6c-0.2,0.4-0.4,0.8-0.6,1.2
		c-0.2,0.7-0.4,1.3-0.5,2c-0.1,0.8-0.2,1.8-0.3,3s-0.1,2.6-0.1,4.2v1.8c0,0.6,0,1.2,0,1.8s0,1.1,0,1.5c0,0.3,0,0.6,0,0.9h-4.7
		c0-1.3,0.1-2.4,0.1-3.4s0-1.9,0-2.8s0-1.6,0-2.4s0-1.5,0-2.2s0-1.3,0-2s0-1.4,0-2.2s0-1.6,0-2.6s0-2-0.1-3.1l4.9-0.1l-0.1,2.1
		c0.3-0.6,0.7-1.2,1.2-1.7c0.4-0.4,0.8-0.7,1.3-1c0.4-0.2,0.8-0.4,1.2-0.5c0.4-0.1,0.7-0.1,1.1-0.1c0.8,0,1.6,0.3,2.1,0.9
		c0.6,0.7,1.1,1.5,1.3,2.4c0.4,1.1,0.6,2.3,0.7,3.4c0.1,1.3,0.2,2.7,0.2,4c0,1,0,2-0.1,3.1s-0.1,2-0.2,3s-0.1,2-0.2,2.9
		s-0.1,1.8-0.2,2.6L364.9,366.1z"/>
	<path class="st1" d="M382.6,360c0,1.1-0.2,2.1-0.6,3.1c-0.7,1.5-2,2.6-3.6,3.1c-0.7,0.2-1.4,0.3-2.1,0.3c-0.5,0-1-0.1-1.4-0.2
		c-0.4-0.1-0.9-0.2-1.3-0.4c-0.5-0.2-0.9-0.4-1.2-0.8l0.2-4.8c0.5,0.4,1,0.7,1.5,1c0.5,0.2,0.9,0.4,1.4,0.5c0.5,0.1,1,0.2,1.5,0.2
		c0.4-0.2,0.7-0.5,0.9-0.9c0.2-0.4,0.3-0.8,0.3-1.3c0-0.4-0.1-0.9-0.3-1.3c-0.2-0.5-0.5-0.9-0.9-1.3l-1.4-1.4
		c-0.6-0.6-1.1-1.2-1.5-1.9c-0.5-0.7-0.9-1.5-1.3-2.3c-0.4-0.9-0.5-1.8-0.5-2.8c0-0.9,0.1-1.8,0.4-2.7c0.2-0.8,0.6-1.5,1.2-2.1
		c0.5-0.6,1.1-1,1.8-1.4c0.7-0.3,1.5-0.5,2.3-0.5c0.7,0,1.5,0.1,2.2,0.3c0.9,0.3,1.7,0.6,2.5,1l-0.3,4.9c-0.3-0.3-0.7-0.6-1.1-0.8
		c-0.4-0.2-0.7-0.4-1.1-0.5c-0.4-0.1-0.8-0.2-1.2-0.2c-0.5,0.1-1,0.4-1.4,0.8c-0.4,0.5-0.6,1.1-0.6,1.8c0,0.6,0.1,1.2,0.4,1.8
		c0.3,0.5,0.6,1,1,1.4c0.4,0.4,0.9,0.9,1.4,1.3c0.5,0.5,1,1,1.4,1.5c0.4,0.6,0.8,1.2,1.1,1.9C382.4,358.3,382.6,359.1,382.6,360z"/>
</g>
</svg>
