<svg id="Layer_1" data-name="Layer 1" xmlns="http://www.w3.org/2000/svg" width="453.81" height="113.05" viewBox="0 0 453.81 113.05">
  <defs>
    <style>
      .cls-1, .cls-3 {
        fill: #fff;
      }

      .cls-2 {
        fill: #231f20;
      }

      .cls-3 {
        font-size: 26px;
        font-family: Roboto-Medium, Roboto;
        font-weight: 500;
      }

      .cls-4 {
        letter-spacing: -0.02em;
      }

      .cls-5 {
        font-family: Roboto-Black, Roboto;
        font-weight: 800;
      }
    </style>
  </defs>
  <title>wds-logo</title>
  <circle class="cls-1" cx="56.53" cy="56.53" r="56.53"/>
  <g>
    <path class="cls-2" d="M50,31.84,44.69,86H34.76c-.08-2.21-.16-4.28-.25-6.23s-.2-3.8-.35-5.58-.32-3.52-.51-5.23-.4-3.44-.64-5.22-.51-3.63-.81-5.55-.62-4-1-6.14q-.72,4.2-2,12.61t-3.08,21l-10.41.53L12,32.06l9.47-.22c0,1.55,0,3.24,0,5.07q0,2.37,0,5.43V54.43c0,1.88,0,3.73,0,5.55s0,3.56,0,5.24.05,3.21.1,4.59l5.15-32.75h8.68l4.1,31.21q.07-2.79.17-5.89t.17-6.26q.08-3.15.13-6.24t.13-5.9q.15-6.58.26-13.12Z"/>
    <path class="cls-2" d="M76.79,58.94A52.32,52.32,0,0,1,76,69a31.9,31.9,0,0,1-2.24,7.2A18,18,0,0,1,70.57,81,15.32,15.32,0,0,1,67,83.87a12.3,12.3,0,0,1-3.5,1.37,14.54,14.54,0,0,1-3,.36L52.84,85q.49-7.67.76-15.43t.26-15.66q0-6-.15-11.85t-.45-11.73c.6-.05,1.19-.08,1.76-.11s1.15,0,1.7,0a21.15,21.15,0,0,1,10.15,2.13A15.38,15.38,0,0,1,73,38.21a26.08,26.08,0,0,1,3,9.1A78.41,78.41,0,0,1,76.79,58.94Zm-7.67-1c0-1.23,0-2.54-.07-3.93s-.16-2.78-.32-4.16a33.12,33.12,0,0,0-.73-4,19.44,19.44,0,0,0-1.28-3.59,10.41,10.41,0,0,0-1.94-2.8A6.27,6.27,0,0,0,62,37.78q-.23,4.13-.4,8.06t-.28,7.76q-.11,3.84-.17,7.62c0,2.52-.05,5-.05,7.57v5c0,1.69,0,3.42.07,5.17a5.28,5.28,0,0,0,3-1.31,9.78,9.78,0,0,0,2.16-2.84A17.78,17.78,0,0,0,67.79,71a40,40,0,0,0,.84-4.44c.21-1.52.34-3,.4-4.49S69.12,59.18,69.12,57.93Z"/>
    <path class="cls-2" d="M99.88,71.2a19.74,19.74,0,0,1-.62,5.21,14.53,14.53,0,0,1-1.62,3.83,10.64,10.64,0,0,1-2.24,2.63,11.47,11.47,0,0,1-2.53,1.64,12,12,0,0,1-2.49.85,10.42,10.42,0,0,1-2,.24c-.3,0-.72,0-1.24-.06a15.93,15.93,0,0,1-1.81-.24c-.68-.13-1.42-.31-2.24-.55a17.44,17.44,0,0,1-2.57-1l.41-9.48a13.5,13.5,0,0,0,4,2.52,8.79,8.79,0,0,0,3,.64,4,4,0,0,0,3.52-1.69,7.6,7.6,0,0,0,1.18-4.4,11.32,11.32,0,0,0-.88-4,17.48,17.48,0,0,0-3.14-4.83l-3.2-3.76a34.93,34.93,0,0,1-3-4.18,23.9,23.9,0,0,1-2.22-4.77,17.32,17.32,0,0,1-.86-5.53,18.43,18.43,0,0,1,1-6.5A13.09,13.09,0,0,1,83,33.19a11.11,11.11,0,0,1,4-2.69,12.67,12.67,0,0,1,4.68-.88A17.25,17.25,0,0,1,96,30.2a20.28,20.28,0,0,1,4.5,1.79l-.72,9.47a9.21,9.21,0,0,0-2-2,9.74,9.74,0,0,0-2.06-1.11,8.23,8.23,0,0,0-1.85-.49,10.05,10.05,0,0,0-1.41-.11,3.93,3.93,0,0,0-2,.54,5.13,5.13,0,0,0-1.58,1.47,7.46,7.46,0,0,0-1,2.18,9.23,9.23,0,0,0-.38,2.65,8.13,8.13,0,0,0,.92,3.87,21.29,21.29,0,0,0,2.32,3.42q1.38,1.7,3,3.48a29.56,29.56,0,0,1,3,4A23.41,23.41,0,0,1,99,64.53,22,22,0,0,1,99.88,71.2Z"/>
  </g>
  <text class="cls-3" transform="translate(121.33 69.54)"><tspan class="cls-4">W</tspan><tspan x="22.46" y="0">aterman</tspan><tspan class="cls-5" x="119.41" y="0">Design</tspan><tspan x="200.46" y="0">Solutions</tspan></text>
</svg>
