<svg id="Layer_1" data-name="Layer 1" xmlns="http://www.w3.org/2000/svg" xmlns:xlink="http://www.w3.org/1999/xlink" viewBox="0 0 529 109.64"><defs><style>.cls-1,.cls-2{fill:none;}.cls-2{clip-rule:evenodd;}.cls-3{clip-path:url(#clip-path);}.cls-4{isolation:isolate;}.cls-5{clip-path:url(#clip-path-2);}.cls-6{clip-path:url(#clip-path-3);}.cls-7{fill:#fff;}.cls-8{clip-path:url(#clip-path-5);}.cls-9{clip-path:url(#clip-path-6);}.cls-10{clip-path:url(#clip-path-7);}.cls-11{clip-path:url(#clip-path-8);}.cls-12{fill:#c9c9c9;}.cls-13{clip-path:url(#clip-path-9);}.cls-14{clip-path:url(#clip-path-10);}.cls-15{clip-path:url(#clip-path-11);}.cls-16{clip-path:url(#clip-path-12);}.cls-17{clip-path:url(#clip-path-13);}.cls-18{clip-path:url(#clip-path-14);}.cls-19{clip-path:url(#clip-path-15);}.cls-20{clip-path:url(#clip-path-16);}.cls-21{clip-path:url(#clip-path-17);}.cls-22{clip-path:url(#clip-path-18);}.cls-23{clip-path:url(#clip-path-19);}.cls-24{clip-path:url(#clip-path-20);}.cls-25{clip-path:url(#clip-path-21);}.cls-26{clip-path:url(#clip-path-22);}.cls-27{clip-path:url(#clip-path-24);}.cls-28{clip-path:url(#clip-path-25);}.cls-29{clip-path:url(#clip-path-26);}.cls-30{clip-path:url(#clip-path-27);}.cls-31{clip-path:url(#clip-path-28);}.cls-32{clip-path:url(#clip-path-29);}.cls-33{clip-path:url(#clip-path-30);}.cls-34{clip-path:url(#clip-path-31);}.cls-35{clip-path:url(#clip-path-32);}.cls-36{clip-path:url(#clip-path-33);}.cls-37{clip-path:url(#clip-path-35);}.cls-38{clip-path:url(#clip-path-36);}.cls-39{clip-path:url(#clip-path-37);}</style><clipPath id="clip-path"><rect class="cls-1" width="109.64" height="109.64"/></clipPath><clipPath id="clip-path-2"><rect class="cls-1" y="-0.36" width="110" height="110"/></clipPath><clipPath id="clip-path-3"><path class="cls-2" d="M109.64,54.82A54.82,54.82,0,1,1,54.82,0a54.82,54.82,0,0,1,54.82,54.82"/></clipPath><clipPath id="clip-path-5"><path class="cls-2" d="M48,27.6,42.87,80.5H33.2c-.07-2.16-.15-4.18-.24-6.08s-.2-3.72-.35-5.46-.31-3.44-.49-5.1-.39-3.37-.62-5.11-.5-3.54-.79-5.42-.61-3.87-.95-6q-.71,4.11-2,12.32t-3,20.48l-10.15.51L11,27.82l9.23-.22c0,1.52,0,3.17,0,5,0,1.54,0,3.31,0,5.31V49.68c0,1.83,0,3.64,0,5.42s0,3.48,0,5.12.05,3.14.09,4.48l5-32h8.47l4,30.49c0-1.82.1-3.73.16-5.75s.12-4.06.17-6.12.09-4.09.13-6.1.08-3.93.12-5.76q.15-6.44.26-12.83Z"/></clipPath><clipPath id="clip-path-6"><path class="cls-2" d="M75,53.69a48.78,48.78,0,0,1-.85,9.79,30,30,0,0,1-2.24,7,17.6,17.6,0,0,1-3.15,4.69A15.21,15.21,0,0,1,65.2,78a12.48,12.48,0,0,1-3.5,1.34,15.11,15.11,0,0,1-3,.34L51,79q.49-7.47.75-15T52,48.75q0-5.82-.15-11.54t-.46-11.42c.61-.05,1.2-.08,1.78-.11s1.14,0,1.69,0a21.72,21.72,0,0,1,10.17,2.07,15.21,15.21,0,0,1,6.13,5.79,24.77,24.77,0,0,1,3,8.86A73,73,0,0,1,75,53.69m-7.69-1c0-1.2,0-2.47-.07-3.83s-.16-2.7-.32-4a31.2,31.2,0,0,0-.74-3.92,17.13,17.13,0,0,0-1.28-3.49A9.67,9.67,0,0,0,63,34.69a6.33,6.33,0,0,0-2.77-1.61q-.22,4-.39,7.85c-.12,2.55-.21,5.07-.29,7.56s-.13,5-.16,7.41-.06,4.92-.06,7.38v4.89c0,1.64,0,3.32.07,5a5.41,5.41,0,0,0,3-1.28,9.4,9.4,0,0,0,2.16-2.76A17.6,17.6,0,0,0,66,65.39a38.34,38.34,0,0,0,.84-4.32c.2-1.48.34-2.94.4-4.38s.09-2.77.09-4"/></clipPath><clipPath id="clip-path-7"><path class="cls-2" d="M97.37,66.5a19,19,0,0,1-.61,5.11,14.55,14.55,0,0,1-1.59,3.77A10.73,10.73,0,0,1,93,78a11.45,11.45,0,0,1-2.5,1.6A10.84,10.84,0,0,1,88,80.4a9.54,9.54,0,0,1-2,.24c-.3,0-.7,0-1.22,0s-1.11-.12-1.78-.24a20,20,0,0,1-2.2-.54,17.65,17.65,0,0,1-2.54-1l.41-9.31A13.63,13.63,0,0,0,82.57,72a8.79,8.79,0,0,0,2.91.63A3.94,3.94,0,0,0,88.94,71a7.35,7.35,0,0,0,1.17-4.32,11,11,0,0,0-.87-4,17.11,17.11,0,0,0-3.09-4.74L83,54.23a31.91,31.91,0,0,1-3-4.1,23.13,23.13,0,0,1-2.19-4.69A16.71,16.71,0,0,1,77,40a18.07,18.07,0,0,1,1-6.39,13.06,13.06,0,0,1,2.72-4.47,11,11,0,0,1,3.91-2.64,12.42,12.42,0,0,1,4.61-.87,17.17,17.17,0,0,1,4.31.58A20.08,20.08,0,0,1,98,28l-.7,9.31a9.62,9.62,0,0,0-2-1.94,10.22,10.22,0,0,0-2-1.09,8.43,8.43,0,0,0-1.81-.48A11.71,11.71,0,0,0,90,33.66a3.78,3.78,0,0,0-2,.54,4.86,4.86,0,0,0-1.56,1.44,7.2,7.2,0,0,0-1,2.14,8.88,8.88,0,0,0-.37,2.6A7.92,7.92,0,0,0,86,44.19a20,20,0,0,0,2.28,3.36q1.36,1.66,2.94,3.42a28.6,28.6,0,0,1,3,4,22.27,22.27,0,0,1,2.27,5,21.35,21.35,0,0,1,.91,6.56"/></clipPath><clipPath id="clip-path-8"><path class="cls-2" d="M88,89.14c0,1.94-14.77,3.5-33,3.5s-33-1.56-33-3.5,14.77-3.5,33-3.5,33,1.57,33,3.5"/></clipPath><clipPath id="clip-path-9"><path class="cls-2" d="M160,36.25l-3.33,33.3H150.4c-.05-1.35-.1-2.63-.15-3.82s-.13-2.34-.23-3.44-.2-2.17-.32-3.21-.25-2.12-.4-3.22-.33-2.23-.52-3.41-.39-2.44-.61-3.78q-.45,2.58-1.26,7.76T145,69.32l-6.58.32L136,36.39l6-.14q0,1.43,0,3.12c0,1,0,2.08,0,3.34v7.44c0,1.15,0,2.29,0,3.41s0,2.19,0,3.23,0,2,.06,2.82l3.25-20.15h5.49l2.59,19.2c0-1.14.07-2.35.11-3.62s.07-2.56.1-3.85.06-2.58.09-3.84.05-2.48.08-3.63q.09-4,.17-8.08Z"/></clipPath><clipPath id="clip-path-10"><path class="cls-2" d="M175,54.56q0,3.7,0,7.39c0,2.46-.07,5-.15,7.69l-4.14-.23V66.25a6,6,0,0,1-1.62,1.93,8.06,8.06,0,0,1-1.72,1,5.86,5.86,0,0,1-1.88.42,4.65,4.65,0,0,1-2.14-.51,5.56,5.56,0,0,1-1.74-1.34A6.46,6.46,0,0,1,160,63.57a6.39,6.39,0,0,1,.58-2.64,6.19,6.19,0,0,1,2-2.35c1.26-.95,2.34-1.74,3.26-2.38s1.69-1.22,2.3-1.74a6.72,6.72,0,0,0,1.36-1.5,3.08,3.08,0,0,0,.44-1.65,4.09,4.09,0,0,0-.53-2.3,1.59,1.59,0,0,0-1.38-.76,1.47,1.47,0,0,0-.89.27,1.92,1.92,0,0,0-.59.7,3.32,3.32,0,0,0-.34,1,5.31,5.31,0,0,0-.1,1c0,.23,0,.49,0,.77a5.08,5.08,0,0,0,.16.89l-5.48.09c0-.26-.06-.51-.07-.76s0-.47,0-.71a8.57,8.57,0,0,1,.5-2.86,7.89,7.89,0,0,1,1.47-2.53A7.44,7.44,0,0,1,165,44.32a7.14,7.14,0,0,1,3.17-.68,6.28,6.28,0,0,1,3.66,1,6.08,6.08,0,0,1,2,2.49,11.31,11.31,0,0,1,.91,3.5c.13,1.3.2,2.63.2,4m-5.36,6.62c.08-.39.15-.83.22-1.33s.12-.93.16-1.53.09-1.28.12-2a11,11,0,0,1-.74.92c-.23.26-.46.5-.66.7l-.67.63-1.17,1a11.21,11.21,0,0,0-1.13,1.16,7.08,7.08,0,0,0-.85,1.25,2.67,2.67,0,0,0-.35,1.25A1.87,1.87,0,0,0,165,64.4a1.41,1.41,0,0,0,1.12.54,2.2,2.2,0,0,0,1-.28,3.7,3.7,0,0,0,1-.79,5.62,5.62,0,0,0,.87-1.19,5.3,5.3,0,0,0,.57-1.5"/></clipPath><clipPath id="clip-path-11"><path class="cls-2" d="M185.12,37.64c-.12,1.24-.23,2.44-.32,3.61s-.17,2.32-.25,3.48l1.71-.08q.86,0,1.74-.12l-.16,4.64c-.57,0-1.16-.05-1.76-.05h-1.76c-.12,2.2-.2,4.34-.26,6.44S184,59.77,184,61.9c0,1.1,0,2.2,0,3.3s0,2.23.08,3.35l-5,.09c.1-3.27.19-6.52.27-9.72s.11-6.45.11-9.71l-1.74.08c-.59,0-1.18.06-1.75.11l.18-5c.53.08,1.07.14,1.63.18l1.64.12c0-1.19,0-2.36,0-3.5s0-2.31-.1-3.5Z"/></clipPath><clipPath id="clip-path-12"><path class="cls-2" d="M203,68.45a20.7,20.7,0,0,1-4,1,22.88,22.88,0,0,1-3,.23,5.43,5.43,0,0,1-2.51-.55,6.1,6.1,0,0,1-1.87-1.47,8.16,8.16,0,0,1-1.3-2.13,15.21,15.21,0,0,1-.83-2.55,20.5,20.5,0,0,1-.43-2.7c-.09-.92-.13-1.78-.13-2.59a29.67,29.67,0,0,1,.49-5.61,16.82,16.82,0,0,1,1.44-4.43,8.12,8.12,0,0,1,2.32-2.92,5.24,5.24,0,0,1,5.8-.33,5.81,5.81,0,0,1,2,2.19,12.74,12.74,0,0,1,1.3,3.74,27.1,27.1,0,0,1,.46,5.38c0,.58,0,1.17,0,1.77s-.06,1.22-.13,1.86l-8.31,1.09a11.48,11.48,0,0,0,.29,1.61,6.34,6.34,0,0,0,.54,1.35,3.09,3.09,0,0,0,.81.93,1.91,1.91,0,0,0,1.15.34,21.51,21.51,0,0,0,2.54-.15c.85-.1,1.73-.21,2.66-.35Zm-8.76-12,3.9-.71v-.88a11.38,11.38,0,0,0-.31-3,5.17,5.17,0,0,0-.66-1.57,1.49,1.49,0,0,0-1-.69,1.45,1.45,0,0,0-1.08.62,3.8,3.8,0,0,0-.6,1.41,11.05,11.05,0,0,0-.24,2c0,.72,0,1.45,0,2.19Z"/></clipPath><clipPath id="clip-path-13"><path class="cls-2" d="M218.84,54.18l-1.53.27c-.46.1-1,.22-1.55.37s-1.16.33-1.74.53a19.64,19.64,0,0,0,.31-2c0-.57.08-1.09.08-1.56a6.62,6.62,0,0,0-.22-1.94,3.26,3.26,0,0,0-.49-1,1.11,1.11,0,0,0-.53-.41,1.6,1.6,0,0,0-.36-.07,1.42,1.42,0,0,0-1.19.61,4.57,4.57,0,0,0-.71,1.6,13.77,13.77,0,0,0-.34,2.28c-.06.85-.09,1.73-.09,2.63,0,.64,0,1.28,0,1.92s0,1.28.07,1.92l.32,9-5.27.36c0-3.67,0-7-.11-9.94s-.14-5.47-.21-7.56c-.09-2.45-.19-4.62-.3-6.53l4.5-.29.23,2.58a7.33,7.33,0,0,1,1.4-2.32,6.26,6.26,0,0,1,1.62-1.28,5.32,5.32,0,0,1,1.49-.54,6.37,6.37,0,0,1,1-.12,2.53,2.53,0,0,1,1.89.75,5,5,0,0,1,1.14,1.91,11,11,0,0,1,.56,2.56,25.26,25.26,0,0,1,.15,2.7c0,.69,0,1.34-.06,2s-.07,1.17-.1,1.66"/></clipPath><clipPath id="clip-path-14"><path class="cls-2" d="M236,54.3c-.06,1.85-.13,3.63-.19,5.34q0,1.11-.09,2.28c0,.79-.07,1.55-.11,2.29s-.08,1.46-.11,2.14-.06,1.29-.09,1.81l-5.21.48c.13-2,.23-3.8.31-5.32s.14-2.84.18-3.94.07-2,.08-2.75,0-1.33,0-1.77,0-.78,0-1,0-.36,0-.42a16.52,16.52,0,0,0-.11-2.09,5.59,5.59,0,0,0-.29-1.27,1.27,1.27,0,0,0-.47-.62,1.12,1.12,0,0,0-.6-.16,2.65,2.65,0,0,0-.87.15,1.69,1.69,0,0,0-.78.6,3.42,3.42,0,0,0-.56,1.27,8.81,8.81,0,0,0-.22,2.21c0,1.75,0,3.46,0,5.13s0,3.16.05,4.5c0,1.55,0,3,.08,4.44l-5.66.51c.13-1.63.21-3.22.25-4.77s.06-3,.06-4.19c0-2.33-.05-4.65-.15-6.94s-.29-4.68-.54-7.15c1,0,1.85-.07,2.5-.11s1.16-.1,1.54-.16a7.08,7.08,0,0,0,1-.21l.05,2.78a12.23,12.23,0,0,1,1.1-1.47,8.25,8.25,0,0,1,1.28-1.18,6.21,6.21,0,0,1,1.39-.79,4,4,0,0,1,1.48-.29,8.41,8.41,0,0,1,1.51.13,2.86,2.86,0,0,1,1.14.49,2.77,2.77,0,0,1,.82,1,7.47,7.47,0,0,1,.57,1.63,11.11,11.11,0,0,1,.94-1.23,6.79,6.79,0,0,1,1.11-1,5.28,5.28,0,0,1,1.3-.7,4.37,4.37,0,0,1,1.52-.26,7.07,7.07,0,0,1,2.21.3,2.72,2.72,0,0,1,1.46,1.21,7.13,7.13,0,0,1,.81,2.58,30.59,30.59,0,0,1,.25,4.41q0,3.93-.19,7.88t-.4,8.14l-5.21.48q.28-4.23.39-7.12c.08-1.93.12-3.48.13-4.66s0-2,0-2.57,0-.82,0-.88a13.13,13.13,0,0,0-.13-2.08,4.61,4.61,0,0,0-.36-1.25,1.34,1.34,0,0,0-.52-.61,1.31,1.31,0,0,0-.65-.16l-.48,0a1.37,1.37,0,0,0-.54.23,2.24,2.24,0,0,0-.56.61,4.65,4.65,0,0,0-.51,1.15c0,.69.07,1.31.08,1.85s0,.91,0,1.12"/></clipPath><clipPath id="clip-path-15"><path class="cls-2" d="M261,54.56q0,3.7,0,7.39c0,2.46-.07,5-.15,7.69l-4.14-.23V66.25a6,6,0,0,1-1.62,1.93,8.06,8.06,0,0,1-1.72,1,5.86,5.86,0,0,1-1.88.42,4.65,4.65,0,0,1-2.14-.51,5.56,5.56,0,0,1-1.74-1.34A6.46,6.46,0,0,1,246,63.57a6.39,6.39,0,0,1,.58-2.64,6.19,6.19,0,0,1,2-2.35c1.26-.95,2.34-1.74,3.26-2.38s1.69-1.22,2.3-1.74a6.72,6.72,0,0,0,1.36-1.5,3.08,3.08,0,0,0,.44-1.65,4.09,4.09,0,0,0-.53-2.3,1.59,1.59,0,0,0-1.38-.76,1.47,1.47,0,0,0-.89.27,1.92,1.92,0,0,0-.59.7,3.32,3.32,0,0,0-.34,1,5.31,5.31,0,0,0-.1,1c0,.23,0,.49,0,.77a5.08,5.08,0,0,0,.16.89l-5.48.09c0-.26-.06-.51-.07-.76s0-.47,0-.71a8.57,8.57,0,0,1,.5-2.86,7.89,7.89,0,0,1,1.47-2.53A7.44,7.44,0,0,1,251,44.32a7.14,7.14,0,0,1,3.17-.68,6.28,6.28,0,0,1,3.66,1,6.08,6.08,0,0,1,2,2.49,11.31,11.31,0,0,1,.91,3.5c.13,1.3.2,2.63.2,4m-5.36,6.62c.08-.39.15-.83.22-1.33s.12-.93.16-1.53.09-1.28.12-2a11,11,0,0,1-.74.92c-.23.26-.46.5-.66.7l-.67.63-1.17,1a11.21,11.21,0,0,0-1.13,1.16,7.08,7.08,0,0,0-.85,1.25,2.67,2.67,0,0,0-.35,1.25A1.87,1.87,0,0,0,251,64.4a1.41,1.41,0,0,0,1.12.54,2.2,2.2,0,0,0,1-.28,3.7,3.7,0,0,0,1-.79,5.62,5.62,0,0,0,.87-1.19,5.3,5.3,0,0,0,.57-1.5"/></clipPath><clipPath id="clip-path-16"><path class="cls-2" d="M273.65,68.64q.53-3.73.75-7.56c.15-2.56.23-5.23.23-8a11.29,11.29,0,0,0-.19-2.27,3.82,3.82,0,0,0-.51-1.3,1.47,1.47,0,0,0-.66-.58,2.21,2.21,0,0,0-.7-.13,2.39,2.39,0,0,0-.89.17,1.77,1.77,0,0,0-.78.62,4.89,4.89,0,0,0-.66,1.3,13.32,13.32,0,0,0-.51,2.21c-.14.91-.25,2-.32,3.33s-.11,2.87-.11,4.68v2c0,.7,0,1.37,0,2s0,1.19,0,1.68a6,6,0,0,0,.06,1l-5.4,0c.05-1.41.08-2.67.11-3.78s0-2.12.06-3.05,0-1.8,0-2.61,0-1.61,0-2.4,0-1.45,0-2.2,0-1.56,0-2.42,0-1.82-.05-2.85-.05-2.17-.08-3.42l5.59-.14-.1,2.37a7.15,7.15,0,0,1,2.85-3,5.12,5.12,0,0,1,1.42-.52,7.59,7.59,0,0,1,1.25-.13,3.23,3.23,0,0,1,2.43,1A7,7,0,0,1,279,47.3a17.93,17.93,0,0,1,.78,3.8c.14,1.42.21,2.9.21,4.43,0,1.11,0,2.24-.08,3.39s-.12,2.27-.2,3.38-.15,2.17-.23,3.2-.17,2-.23,2.87Z"/></clipPath><clipPath id="clip-path-17"><path class="cls-2" d="M305,53.3a31.51,31.51,0,0,1-.53,6.17,18.93,18.93,0,0,1-1.4,4.41,10.9,10.9,0,0,1-2,2.95,9.3,9.3,0,0,1-2.22,1.75,8,8,0,0,1-2.19.85,9.78,9.78,0,0,1-1.86.21L290,69.25c.2-3.13.36-6.29.47-9.46s.17-6.37.17-9.6c0-2.44,0-4.86-.1-7.26s-.16-4.8-.28-7.19c.38,0,.74-.06,1.1-.07l1.06,0A13.48,13.48,0,0,1,298.78,37a9.53,9.53,0,0,1,3.83,3.64,15.5,15.5,0,0,1,1.88,5.58A46,46,0,0,1,305,53.3m-4.8-.62c0-.75,0-1.56-.05-2.41s-.1-1.7-.2-2.55a19.78,19.78,0,0,0-.46-2.46,10.77,10.77,0,0,0-.8-2.2,6.39,6.39,0,0,0-1.21-1.72,4,4,0,0,0-1.73-1c-.1,1.69-.18,3.34-.25,5s-.13,3.19-.18,4.76-.08,3.12-.1,4.67,0,3.09,0,4.64v3.08c0,1,0,2.09.05,3.17a3.37,3.37,0,0,0,1.88-.81A6,6,0,0,0,298.47,63a11.57,11.57,0,0,0,.89-2.37,24.21,24.21,0,0,0,.53-2.72c.13-.93.21-1.85.25-2.76s.06-1.74.06-2.51"/></clipPath><clipPath id="clip-path-18"><path class="cls-2" d="M320,68.45a20.7,20.7,0,0,1-4,1,22.88,22.88,0,0,1-2.95.23,5.43,5.43,0,0,1-2.51-.55,6.1,6.1,0,0,1-1.87-1.47,8.16,8.16,0,0,1-1.3-2.13,15.21,15.21,0,0,1-.83-2.55,20.5,20.5,0,0,1-.43-2.7c-.09-.92-.13-1.78-.13-2.59a29.67,29.67,0,0,1,.49-5.61,16.82,16.82,0,0,1,1.44-4.43,8.12,8.12,0,0,1,2.32-2.92,5.24,5.24,0,0,1,5.8-.33,5.81,5.81,0,0,1,2.05,2.19,12.74,12.74,0,0,1,1.3,3.74,27.1,27.1,0,0,1,.46,5.38c0,.58,0,1.17,0,1.77s-.06,1.22-.13,1.86l-8.31,1.09a11.48,11.48,0,0,0,.29,1.61,6.34,6.34,0,0,0,.54,1.35,3.09,3.09,0,0,0,.81.93,1.91,1.91,0,0,0,1.15.34,21.51,21.51,0,0,0,2.54-.15c.85-.1,1.73-.21,2.66-.35Zm-8.76-12,3.9-.71v-.88a11.38,11.38,0,0,0-.31-3,5.17,5.17,0,0,0-.66-1.57,1.49,1.49,0,0,0-1-.69,1.45,1.45,0,0,0-1.08.62,3.8,3.8,0,0,0-.6,1.41,11.05,11.05,0,0,0-.24,2c0,.72-.05,1.45-.05,2.19Z"/></clipPath><clipPath id="clip-path-19"><path class="cls-2" d="M333,62.39a8,8,0,0,1-.66,3.46,6.42,6.42,0,0,1-1.66,2.23,6.08,6.08,0,0,1-2.18,1.2,6.91,6.91,0,0,1-3.77.18,9.69,9.69,0,0,1-1.37-.43,4.21,4.21,0,0,1-1.32-.85l.18-5.32a6.9,6.9,0,0,0,1.64,1,9.61,9.61,0,0,0,1.52.56,8.16,8.16,0,0,0,1.57.26,2.46,2.46,0,0,0,1-1,3,3,0,0,0,.34-1.44,3.86,3.86,0,0,0-.3-1.43,4.66,4.66,0,0,0-.93-1.44c-.42-.43-.91-1-1.49-1.57a18.16,18.16,0,0,1-1.66-2.09,12.41,12.41,0,0,1-1.34-2.59,8.45,8.45,0,0,1-.55-3.1,10,10,0,0,1,.44-3,7,7,0,0,1,1.23-2.34,5.58,5.58,0,0,1,1.9-1.52,5.48,5.48,0,0,1,2.43-.54,9.18,9.18,0,0,1,2.33.34A13.52,13.52,0,0,1,333,44.05l-.36,5.43a5.53,5.53,0,0,0-1.23-.87,8.6,8.6,0,0,0-1.21-.53,6.69,6.69,0,0,0-1.28-.28,2.42,2.42,0,0,0-1.45.92,3,3,0,0,0-.61,2,4.13,4.13,0,0,0,.44,1.95,7.48,7.48,0,0,0,1.1,1.56c.44.5.92,1,1.44,1.48a12.52,12.52,0,0,1,1.47,1.66,10,10,0,0,1,1.16,2.15,8.32,8.32,0,0,1,.53,2.92"/></clipPath><clipPath id="clip-path-20"><rect class="cls-1" x="335.53" y="34.62" width="7.65" height="33.07"/></clipPath><clipPath id="clip-path-21"><rect class="cls-1" x="335" y="33.64" width="9" height="35"/></clipPath><clipPath id="clip-path-22"><path class="cls-2" d="M343.19,38a3.52,3.52,0,0,1-.24,1.32,2.83,2.83,0,0,1-.71,1.06,3.24,3.24,0,0,1-1.19.7,5.06,5.06,0,0,1-1.69.25,5.37,5.37,0,0,1-1.78-.25,3.11,3.11,0,0,1-1.18-.7,2.63,2.63,0,0,1-.67-1.06,4.25,4.25,0,0,1-.2-1.32,3.64,3.64,0,0,1,.22-1.29,2.66,2.66,0,0,1,.67-1.07,3.2,3.2,0,0,1,1.19-.73,5.33,5.33,0,0,1,1.75-.26,5.23,5.23,0,0,1,1.74.26,3.24,3.24,0,0,1,1.18.73,2.92,2.92,0,0,1,.68,1.07,3.65,3.65,0,0,1,.23,1.29m-1.42,6.69c-.09.84-.17,1.74-.24,2.71s-.11,2-.16,3-.08,2.08-.1,3.15,0,2.11,0,3.13c0,1.2,0,2.35,0,3.46s0,2.13.09,3.07.09,1.76.14,2.48a16,16,0,0,0,.2,1.67c-.63,0-1.28,0-2,.05l-2,.11c-.72,0-1.45.12-2.17.21q.4-4.14.54-7.57c.1-2.29.14-4.34.14-6.16,0-1.57,0-2.93-.08-4.1s-.11-2.17-.18-3-.14-1.76-.23-2.43c.88.11,1.69.18,2.42.21s1.36,0,1.9,0h.68l.52,0,.43,0"/></clipPath><clipPath id="clip-path-24"><path class="cls-2" d="M358,62.77c-.06,1.79-.12,3.38-.18,4.76a28.4,28.4,0,0,1-.37,3.61,9.12,9.12,0,0,1-.82,2.61,4.53,4.53,0,0,1-1.53,1.69,6.89,6.89,0,0,1-2.47.92,20.19,20.19,0,0,1-3.68.28c-.71,0-1.48,0-2.31-.07a25.85,25.85,0,0,1-2.66-.34l.19-5,3,.19,2.16.11c.69,0,1.28.08,1.79.09a1.79,1.79,0,0,0,1.66-1.28,9.92,9.92,0,0,0,.63-3.53,6.07,6.07,0,0,1-.93,1.48,4.75,4.75,0,0,1-1.05.9,3.55,3.55,0,0,1-1.06.45,4.78,4.78,0,0,1-.95.11A4.36,4.36,0,0,1,347.1,69a6.15,6.15,0,0,1-2.05-2.34,15.79,15.79,0,0,1-1.48-4.26A31.49,31.49,0,0,1,343,55.9a25.3,25.3,0,0,1,.49-5.3,15,15,0,0,1,1.32-3.83,6.82,6.82,0,0,1,1.9-2.34,3.8,3.8,0,0,1,2.24-.79,4.32,4.32,0,0,1,1.18.19,4,4,0,0,1,1.27.65,5.85,5.85,0,0,1,1.23,1.25,7.76,7.76,0,0,1,1,2l0-2.81,4.08.21Zm-5-4.68c0-.47,0-1,0-1.68s0-1.31-.07-2a19.57,19.57,0,0,0-.21-2,10.28,10.28,0,0,0-.45-1.8,3.81,3.81,0,0,0-.74-1.29,1.51,1.51,0,0,0-1.15-.49,1.55,1.55,0,0,0-1.36.73,5.26,5.26,0,0,0-.73,1.87,13.62,13.62,0,0,0-.29,2.51c0,.91-.05,1.8-.05,2.65,0,.59,0,1.22,0,1.87s.06,1.31.12,2,.16,1.26.28,1.84a8.26,8.26,0,0,0,.46,1.54,3,3,0,0,0,.67,1.06,1.33,1.33,0,0,0,.95.39,1.5,1.5,0,0,0,1.17-.56,4.25,4.25,0,0,0,.79-1.52,10.9,10.9,0,0,0,.45-2.25A26.69,26.69,0,0,0,353,58.09Z"/></clipPath><clipPath id="clip-path-25"><path class="cls-2" d="M370.65,68.64q.53-3.73.75-7.56c.15-2.56.23-5.23.23-8a11.29,11.29,0,0,0-.19-2.27,3.82,3.82,0,0,0-.51-1.3,1.47,1.47,0,0,0-.66-.58,2.21,2.21,0,0,0-.7-.13,2.39,2.39,0,0,0-.89.17,1.77,1.77,0,0,0-.78.62,5.2,5.2,0,0,0-.66,1.3,14.42,14.42,0,0,0-.51,2.21c-.14.91-.25,2-.32,3.33s-.11,2.87-.11,4.68v2c0,.7,0,1.37,0,2s0,1.19,0,1.68a7.26,7.26,0,0,0,.06,1l-5.4,0c.05-1.41.08-2.67.11-3.78s0-2.12.06-3.05,0-1.8,0-2.61,0-1.61,0-2.4,0-1.45,0-2.2,0-1.56,0-2.42,0-1.82-.05-2.85-.05-2.17-.08-3.42l5.59-.14-.1,2.37a7.15,7.15,0,0,1,2.85-3,5.12,5.12,0,0,1,1.42-.52,7.59,7.59,0,0,1,1.25-.13,3.23,3.23,0,0,1,2.43,1A7,7,0,0,1,376,47.3a17.93,17.93,0,0,1,.78,3.8c.14,1.42.21,2.9.21,4.43,0,1.11,0,2.24-.08,3.39s-.12,2.27-.19,3.38-.15,2.17-.24,3.2-.17,2-.23,2.87Z"/></clipPath><clipPath id="clip-path-26"><path class="cls-2" d="M399.61,59.9a11.89,11.89,0,0,1-.38,3.16,8.93,8.93,0,0,1-1,2.33,6.59,6.59,0,0,1-1.37,1.6,7.13,7.13,0,0,1-3.06,1.51,7,7,0,0,1-1.25.14l-.75,0a8.43,8.43,0,0,1-1.1-.15,12,12,0,0,1-2.94-.93l.25-5.76a8.46,8.46,0,0,0,2.42,1.53,5.42,5.42,0,0,0,1.8.39,2.43,2.43,0,0,0,2.14-1,4.46,4.46,0,0,0,.73-2.67,6.69,6.69,0,0,0-.54-2.45,10.47,10.47,0,0,0-1.92-2.94l-1.94-2.28a19.34,19.34,0,0,1-1.84-2.54,14,14,0,0,1-1.35-2.9,10.36,10.36,0,0,1-.53-3.35,11.17,11.17,0,0,1,.63-4,8,8,0,0,1,1.69-2.77,6.82,6.82,0,0,1,2.41-1.63,7.73,7.73,0,0,1,2.86-.54,10.45,10.45,0,0,1,2.67.36A13.2,13.2,0,0,1,400,36.08l-.44,5.76A5.59,5.59,0,0,0,397.05,40a4.47,4.47,0,0,0-1.12-.3,6,6,0,0,0-.86-.07,2.41,2.41,0,0,0-1.23.33,3.24,3.24,0,0,0-1,.89,4.31,4.31,0,0,0-.63,1.33,5.63,5.63,0,0,0-.23,1.6,5,5,0,0,0,.56,2.36A13.63,13.63,0,0,0,394,48.19c.57.68,1.18,1.39,1.83,2.11a18,18,0,0,1,1.82,2.44,14.36,14.36,0,0,1,1.41,3.11,13.34,13.34,0,0,1,.56,4"/></clipPath><clipPath id="clip-path-27"><path class="cls-2" d="M415,55.64a42.09,42.09,0,0,1-.25,4.94,21.29,21.29,0,0,1-.73,3.69,10.27,10.27,0,0,1-1.12,2.59,6.75,6.75,0,0,1-1.45,1.65,4.65,4.65,0,0,1-1.71.88,7,7,0,0,1-1.88.25,8.6,8.6,0,0,1-1.85-.2,4.64,4.64,0,0,1-1.64-.77,6,6,0,0,1-1.39-1.5,8.9,8.9,0,0,1-1.06-2.43,21.31,21.31,0,0,1-.68-3.53,42.57,42.57,0,0,1-.24-4.84,31.07,31.07,0,0,1,.61-6.81,13.18,13.18,0,0,1,1.59-4.2,5.65,5.65,0,0,1,2.25-2.13,6.13,6.13,0,0,1,2.6-.59,8.43,8.43,0,0,1,1.71.18,4.42,4.42,0,0,1,1.62.68,5.63,5.63,0,0,1,1.44,1.41A8.43,8.43,0,0,1,414,47.26a19.1,19.1,0,0,1,.75,3.5,36.21,36.21,0,0,1,.28,4.88m-4.93.18a35.53,35.53,0,0,0-.16-3.64,11.89,11.89,0,0,0-.44-2.25,2.4,2.4,0,0,0-.67-1.15,1.31,1.31,0,0,0-.85-.31,1.17,1.17,0,0,0-.91.45,3.73,3.73,0,0,0-.66,1.44,16.29,16.29,0,0,0-.4,2.56c-.09,1-.14,2.31-.14,3.8a35.19,35.19,0,0,0,.17,3.76,11.54,11.54,0,0,0,.49,2.38,3,3,0,0,0,.73,1.26,1.35,1.35,0,0,0,.91.37q1,0,1.47-2.1a34.42,34.42,0,0,0,.46-6.57"/></clipPath><clipPath id="clip-path-28"><path class="cls-2" d="M423,68.25l-1.34.09-1.49.12-1.87.18q-.21-7.89-.44-14c-.15-4-.28-7.46-.41-10.25-.15-3.27-.3-6.1-.45-8.51l5.91-.28v9.47c0,2.8,0,5.3,0,7.48s0,4.08,0,5.7,0,3,0,4.18c0,2.72,0,4.65,0,5.78"/></clipPath><clipPath id="clip-path-29"><path class="cls-2" d="M441,45.84q-.18,3.78-.26,7.48t-.06,7.43c0,1.47,0,2.92,0,4.36s0,2.9.08,4.37l-4.62.12V66.66a5.64,5.64,0,0,1-1.55,1.76,7,7,0,0,1-1.63.89,5,5,0,0,1-1.34.3l-.64,0a4.51,4.51,0,0,1-2.43-1.3A7.19,7.19,0,0,1,427,65.85a14.52,14.52,0,0,1-.8-3.36,33.31,33.31,0,0,1-.23-4c0-1.19.05-2.4.14-3.64s.21-2.45.35-3.65.29-2.35.46-3.47.34-2.16.51-3.14l5.05.1c-.13.92-.28,1.92-.42,3s-.28,2.19-.4,3.31-.21,2.26-.28,3.39-.1,2.22-.1,3.23,0,1.82.12,2.63a11.41,11.41,0,0,0,.37,2.13,4,4,0,0,0,.66,1.41,1.25,1.25,0,0,0,1,.5,1.49,1.49,0,0,0,1.29-1,8.87,8.87,0,0,0,.8-2.53,26.19,26.19,0,0,0,.4-3.51c.07-1.29.1-2.6.1-3.92,0-1,0-1.92-.05-2.81s-.06-1.69-.09-2.4-.09-1.57-.14-2.27Z"/></clipPath><clipPath id="clip-path-30"><path class="cls-2" d="M451.12,37.64c-.12,1.24-.23,2.44-.32,3.61s-.17,2.32-.25,3.48l1.71-.08q.86,0,1.74-.12l-.16,4.64c-.57,0-1.16-.05-1.76-.05h-1.76c-.12,2.2-.2,4.34-.26,6.44S450,59.77,450,61.9c0,1.1,0,2.2,0,3.3s.05,2.23.08,3.35l-5,.09c.1-3.27.19-6.52.27-9.72s.11-6.45.11-9.71l-1.74.08c-.59,0-1.18.06-1.75.11l.18-5c.53.08,1.08.14,1.63.18l1.64.12c0-1.19,0-2.36,0-3.5s-.05-2.31-.1-3.5Z"/></clipPath><clipPath id="clip-path-31"><rect class="cls-1" x="456.06" y="34.62" width="7.65" height="33.07"/></clipPath><clipPath id="clip-path-32"><rect class="cls-1" x="456" y="33.64" width="8" height="35"/></clipPath><clipPath id="clip-path-33"><path class="cls-2" d="M463.71,38a3.73,3.73,0,0,1-.23,1.32,3,3,0,0,1-.71,1.06,3.37,3.37,0,0,1-1.2.7,5,5,0,0,1-1.68.25,5.44,5.44,0,0,1-1.79-.25,3.19,3.19,0,0,1-1.18-.7,2.5,2.5,0,0,1-.66-1.06,4.25,4.25,0,0,1-.2-1.32,3.88,3.88,0,0,1,.21-1.29,2.77,2.77,0,0,1,.67-1.07,3.25,3.25,0,0,1,1.2-.73,5.33,5.33,0,0,1,1.75-.26,5.21,5.21,0,0,1,1.73.26,3.16,3.16,0,0,1,1.18.73,2.82,2.82,0,0,1,.69,1.07,3.64,3.64,0,0,1,.22,1.29m-1.42,6.69c-.09.84-.17,1.74-.23,2.71s-.12,2-.17,3-.08,2.08-.09,3.15,0,2.11,0,3.13c0,1.2,0,2.35,0,3.46s.06,2.13.09,3.07.09,1.76.15,2.48a13.64,13.64,0,0,0,.2,1.67c-.63,0-1.29,0-2,.05l-2,.11c-.73,0-1.45.12-2.18.21q.41-4.14.55-7.57t.14-6.16c0-1.57,0-2.93-.08-4.1s-.12-2.17-.18-3-.14-1.76-.24-2.43c.88.11,1.69.18,2.42.21s1.37,0,1.9,0h.69l.52,0,.42,0"/></clipPath><clipPath id="clip-path-35"><path class="cls-2" d="M478,55.64a42.09,42.09,0,0,1-.25,4.94,21.29,21.29,0,0,1-.73,3.69,10.27,10.27,0,0,1-1.12,2.59,6.75,6.75,0,0,1-1.45,1.65,4.65,4.65,0,0,1-1.71.88,7,7,0,0,1-1.88.25,8.6,8.6,0,0,1-1.85-.2,4.64,4.64,0,0,1-1.64-.77,6,6,0,0,1-1.39-1.5,8.9,8.9,0,0,1-1.06-2.43,21.31,21.31,0,0,1-.68-3.53,42.57,42.57,0,0,1-.24-4.84,31.07,31.07,0,0,1,.61-6.81,13.18,13.18,0,0,1,1.59-4.2,5.65,5.65,0,0,1,2.25-2.13,6.13,6.13,0,0,1,2.6-.59,8.43,8.43,0,0,1,1.71.18,4.42,4.42,0,0,1,1.62.68,5.63,5.63,0,0,1,1.44,1.41A8.43,8.43,0,0,1,477,47.26a19.1,19.1,0,0,1,.75,3.5,36.21,36.21,0,0,1,.28,4.88m-4.93.18a35.53,35.53,0,0,0-.16-3.64,11.89,11.89,0,0,0-.44-2.25,2.4,2.4,0,0,0-.67-1.15,1.31,1.31,0,0,0-.85-.31,1.17,1.17,0,0,0-.91.45,3.73,3.73,0,0,0-.66,1.44,16.29,16.29,0,0,0-.4,2.56c-.09,1-.14,2.31-.14,3.8a35.19,35.19,0,0,0,.17,3.76,11.54,11.54,0,0,0,.49,2.38,3,3,0,0,0,.73,1.26,1.35,1.35,0,0,0,.91.37q1,0,1.47-2.1a34.42,34.42,0,0,0,.46-6.57"/></clipPath><clipPath id="clip-path-36"><path class="cls-2" d="M489.65,68.64q.53-3.73.75-7.56c.15-2.56.23-5.23.23-8a11.29,11.29,0,0,0-.19-2.27,3.82,3.82,0,0,0-.51-1.3,1.47,1.47,0,0,0-.66-.58,2.21,2.21,0,0,0-.7-.13,2.39,2.39,0,0,0-.89.17,1.77,1.77,0,0,0-.78.62,4.89,4.89,0,0,0-.66,1.3,12.38,12.38,0,0,0-.51,2.21c-.14.91-.25,2-.32,3.33s-.11,2.87-.11,4.68v2c0,.7,0,1.37,0,2s0,1.19,0,1.68a7.26,7.26,0,0,0,.06,1l-5.4,0c.05-1.41.08-2.67.11-3.78s0-2.12.06-3.05,0-1.8,0-2.61,0-1.61,0-2.4,0-1.45,0-2.2,0-1.56,0-2.42,0-1.82-.05-2.85-.05-2.17-.08-3.42l5.59-.14-.1,2.37a7.15,7.15,0,0,1,2.85-3,5.12,5.12,0,0,1,1.42-.52,7.59,7.59,0,0,1,1.25-.13,3.23,3.23,0,0,1,2.43,1A7,7,0,0,1,495,47.3a17.93,17.93,0,0,1,.78,3.8c.14,1.42.21,2.9.21,4.43,0,1.11,0,2.24-.08,3.39s-.12,2.27-.19,3.38-.16,2.17-.24,3.2-.17,2-.23,2.87Z"/></clipPath><clipPath id="clip-path-37"><path class="cls-2" d="M509,62.39a8,8,0,0,1-.66,3.46,6.42,6.42,0,0,1-1.66,2.23,6.08,6.08,0,0,1-2.18,1.2,6.91,6.91,0,0,1-3.77.18,9.69,9.69,0,0,1-1.37-.43,4.21,4.21,0,0,1-1.32-.85l.18-5.32a6.9,6.9,0,0,0,1.64,1,9.61,9.61,0,0,0,1.52.56,8.16,8.16,0,0,0,1.57.26,2.46,2.46,0,0,0,1-1,3,3,0,0,0,.34-1.44,3.86,3.86,0,0,0-.3-1.43,4.66,4.66,0,0,0-.93-1.44c-.42-.43-.91-1-1.49-1.57a17.14,17.14,0,0,1-1.66-2.09,12.41,12.41,0,0,1-1.34-2.59,8.45,8.45,0,0,1-.55-3.1,10,10,0,0,1,.44-3,7,7,0,0,1,1.23-2.34,5.58,5.58,0,0,1,1.9-1.52,5.48,5.48,0,0,1,2.43-.54,9.18,9.18,0,0,1,2.33.34A13.52,13.52,0,0,1,509,44.05l-.36,5.43a5.53,5.53,0,0,0-1.23-.87,8.6,8.6,0,0,0-1.21-.53,6.69,6.69,0,0,0-1.28-.28,2.42,2.42,0,0,0-1.45.92,3,3,0,0,0-.61,2,4.13,4.13,0,0,0,.44,1.95,7.48,7.48,0,0,0,1.1,1.56c.44.5.92,1,1.44,1.48a12.52,12.52,0,0,1,1.47,1.66,10,10,0,0,1,1.16,2.15,8.32,8.32,0,0,1,.53,2.92"/></clipPath></defs><title>wds-logo</title><g class="cls-3"><g class="cls-4"><g class="cls-5"><g class="cls-6"><g class="cls-5"><rect class="cls-7" x="-5" y="-5" width="119.64" height="119.64"/></g></g></g></g></g><g class="cls-8"><rect x="6" y="21.64" width="47" height="64"/></g><g class="cls-9"><rect x="46" y="20.64" width="34" height="64"/></g><g class="cls-10"><rect x="72" y="20.64" width="31" height="65"/></g><g class="cls-11"><rect class="cls-12" x="17" y="80.64" width="76" height="17"/></g><g class="cls-13"><rect class="cls-7" x="131" y="30.64" width="34" height="44"/></g><g class="cls-14"><rect class="cls-7" x="155" y="38.64" width="25" height="36"/></g><g class="cls-15"><rect class="cls-7" x="171" y="32.64" width="22" height="41"/></g><g class="cls-16"><rect class="cls-7" x="184" y="38.64" width="24" height="36"/></g><g class="cls-17"><rect class="cls-7" x="200" y="37.64" width="24" height="36"/></g><g class="cls-18"><rect class="cls-7" x="216" y="38.64" width="34" height="35"/></g><g class="cls-19"><rect class="cls-7" x="241" y="38.64" width="25" height="36"/></g><g class="cls-20"><rect class="cls-7" x="259" y="38.64" width="26" height="35"/></g><g class="cls-21"><rect class="cls-7" x="285" y="30.64" width="25" height="44"/></g><g class="cls-22"><rect class="cls-7" x="301" y="38.64" width="24" height="36"/></g><g class="cls-23"><rect class="cls-7" x="317" y="37.64" width="21" height="37"/></g><g class="cls-24"><g class="cls-4"><g class="cls-25"><g class="cls-26"><g class="cls-25"><rect class="cls-7" x="330.53" y="29.62" width="17.65" height="43.07"/></g></g></g></g></g><g class="cls-27"><rect class="cls-7" x="338" y="38.64" width="25" height="43"/></g><g class="cls-28"><rect class="cls-7" x="356" y="38.64" width="26" height="35"/></g><g class="cls-29"><rect class="cls-7" x="382" y="29.64" width="23" height="44"/></g><g class="cls-30"><rect class="cls-7" x="396" y="37.64" width="24" height="37"/></g><g class="cls-31"><rect class="cls-7" x="412" y="30.64" width="16" height="43"/></g><g class="cls-32"><rect class="cls-7" x="421" y="39.64" width="25" height="35"/></g><g class="cls-33"><rect class="cls-7" x="437" y="32.64" width="22" height="41"/></g><g class="cls-34"><g class="cls-4"><g class="cls-35"><g class="cls-36"><g class="cls-35"><rect class="cls-7" x="451.06" y="29.62" width="17.65" height="43.07"/></g></g></g></g></g><g class="cls-37"><rect class="cls-7" x="459" y="37.64" width="24" height="37"/></g><g class="cls-38"><rect class="cls-7" x="475" y="38.64" width="26" height="35"/></g><g class="cls-39"><rect class="cls-7" x="493" y="37.64" width="21" height="37"/></g></svg>