<svg xmlns="http://www.w3.org/2000/svg" viewBox="0 0 291.56 113.21"><title>Asset 1</title><g id="Layer_2" data-name="Layer 2"><g id="Layer_1-2" data-name="Layer 1"><path d="M47.63,2.88,41,70.79H28.58c-.09-2.77-.2-5.37-.31-7.8s-.26-4.78-.44-7-.41-4.42-.64-6.55-.5-4.33-.8-6.56-.64-4.55-1-7-.78-5-1.22-7.71q-.9,5.28-2.5,15.83T17.78,70.32L4.72,71,0,3.16l11.88-.28q0,2.93,0,6.36c0,2-.05,4.26-.05,6.82V31.22q0,3.54,0,7c0,2.28,0,4.47,0,6.58s.06,4,.12,5.75L18.44,9.43H29.33l5.15,39.15q.09-3.49.21-7.38c.08-2.6.15-5.21.21-7.86s.12-5.25.16-7.83.11-5,.17-7.4q.2-8.25.33-16.46Z"/><path d="M70.32,69.33q-.24-3.26-.45-6.56c-.14-2.2-.31-4.41-.49-6.65l-4-.28c-1.29-.09-2.6-.14-3.92-.14h-.61c-.16,2.26-.3,4.5-.43,6.7s-.23,4.38-.33,6.55l-11.79-.19q2.93-16.83,5.29-33.58t4-33.76l14.2.23q1.78,16.85,4.32,33.46T82,68.57Zm-5.52-56Q63.86,22,63,30.61T61.45,48c.66.06,1.34.1,2,.1h5.19q-.81-8.78-1.79-17.41T64.8,13.3Z"/><path d="M107.34,11.08c-1-.06-2.16-.11-3.47-.14s-2.69,0-4.17,0q-.33,4.39-.54,9.08T98.8,29.5q-.14,4.83-.18,9.72c0,3.25-.05,6.46-.05,9.64,0,3.62,0,7.11.07,10.49s.15,6.65.31,9.79h-10q.42-8,.66-17.07t.24-18.25q0-6-.14-11.7c-.1-3.8-.19-7.51-.29-11.13-1.51,0-2.94,0-4.29,0s-2.56.08-3.63.14l.09-9.86c1.13.1,2.41.17,3.82.21s2.9.09,4.46.12,3.15.06,4.79.07l4.81,0h4.45c1.4,0,2.65,0,3.75-.1Z"/><path d="M130.54,43.72c-1-.06-2-.11-3-.14s-2,0-3,0c-.57,0-1.16,0-1.77,0s-1.22,0-1.82,0l-.19,16.84q3.87-.09,7.52-.38t7.76-.89v9.86c-1.76-.07-3.46-.11-5.11-.15s-3.3,0-4.93,0c-2.45,0-4.88,0-7.27.11s-4.85.2-7.4.36q.42-8.78.68-17.38t.26-17.38q0-8.4-.21-16.67t-.73-16.67q5.57.42,10.61.42,3.21,0,6.39-.16c2.12-.11,4.4-.26,6.82-.45V11.88q-2.92-.51-5.78-.8c-1.9-.19-3.8-.28-5.68-.28h-1.84q-.48,5.9-.64,11.74T121,34.29c.82.06,1.64.09,2.48.09h4.78q1.14,0,2.31-.09Z"/><path d="M168,21.41a35,35,0,0,1-.59,6.34,26.84,26.84,0,0,1-1.91,6.14,25.16,25.16,0,0,1-3.39,5.51A22.28,22.28,0,0,1,157,44a138.46,138.46,0,0,0,5.83,12.94,112.27,112.27,0,0,0,7.09,12l-11.79.66-8-22.78c.12,3.83.28,7.64.47,11.41s.42,7.5.71,11.18H139.79q.75-10.71,1.11-21.41t.35-21.56q0-6.27-.09-12.52t-.38-12.61a24.45,24.45,0,0,1,5.07-1C147.56.08,149,0,150.21,0a22.86,22.86,0,0,1,3.09.26,16.39,16.39,0,0,1,3.8,1.06A18.24,18.24,0,0,1,161,3.58a14.65,14.65,0,0,1,3.48,3.85,21.11,21.11,0,0,1,2.5,5.8A30.13,30.13,0,0,1,168,21.41ZM150,39.1a9.18,9.18,0,0,0,2.9-1.39,11.87,11.87,0,0,0,2.2-2.1,14,14,0,0,0,1.58-2.5,22.38,22.38,0,0,0,1.06-2.64,26,26,0,0,0,1.08-6.7c0-.06,0-.45,0-1.16a22.8,22.8,0,0,0-.26-2.66c-.16-1.07-.39-2.23-.68-3.49a18.55,18.55,0,0,0-1.3-3.66,12.08,12.08,0,0,0-2.17-3.13,7.22,7.22,0,0,0-3.21-1.93q-.57,7.4-.87,14.73T150,37.26Z"/><path d="M206.43,69.05q.13-7.22.33-14.67,0-3.16.12-6.7t.11-7.17q.06-3.63.07-7.26t0-7V22.05c0-1.34,0-2.6-.1-3.8-.37,2.33-.85,5.32-1.43,9s-1.19,7.7-1.82,12.12-1.25,9.09-1.86,14-1.16,9.84-1.63,14.71l-9-.23q-1.14-7.37-2.19-14.48t-2-13.54q-1-6.41-1.77-11.88c-.54-3.65-1-6.82-1.37-9.53V34.85q0,5.1,0,10.26t.12,9.74q.06,4.57.21,8.23t.38,5.68l-12.83.76q.7-4,1.15-9T173.72,50q.25-5.48.36-11.13c.06-3.77.09-7.44.09-11s0-7.06-.07-10.23-.1-6-.17-8.35q-.13-4.2-.23-7.69c1,.16,2.06.29,3.16.4s2.18.2,3.25.26,2.11.11,3.11.14,1.92,0,2.74,0h1.49c.45,0,.85,0,1.2,0a9.57,9.57,0,0,0,1,0q2.27,15.65,3.82,26.41t2.45,16.36c.35-2.39.68-4.85,1-7.38s.64-5,.92-7.52.55-4.91.78-7.29.45-4.61.64-6.72q.66-7.45,1.18-14.43L202.7,2c.72.06,1.58.11,2.57.14s2.09.05,3.28.05,2.48,0,3.87-.07,2.83-.15,4.34-.31q-.57,17.64-.57,30.51,0,9.48.21,16.32T216.85,60c.19,3.52.43,6.45.71,8.77Z"/><path d="M242.65,69.33q-.24-3.26-.45-6.56c-.14-2.2-.31-4.41-.49-6.65l-4-.28c-1.29-.09-2.6-.14-3.92-.14h-.61c-.16,2.26-.3,4.5-.42,6.7s-.24,4.38-.33,6.55l-11.8-.19q2.92-16.83,5.29-33.58t4-33.76l14.19.23q1.8,16.85,4.32,33.46t5.91,33.46Zm-5.52-56q-.94,8.68-1.79,17.31T233.78,48c.66.06,1.34.1,2,.1H241q-.81-8.78-1.79-17.41T237.13,13.3Z"/><path d="M291.56.94q-.62,9.48-.95,18.8t-.33,18.7q0,7.31.22,14.43t.73,14.34l-9.53-.29q-1.89-6.12-3.7-12.19t-3.61-12c-1.2-4-2.41-8-3.66-11.93s-2.52-7.91-3.84-11.84q.14,12.32.45,24.55t1.11,24.41l-10.9-.1q.57-15,.57-30.23,0-9.33-.19-18.49T257.36.66l13.21.28Q273,11.32,275.71,22t5.8,21.12q-.33-10.65-1-21.34t-1.39-21Z"/><path d="M6,96.92a10.57,10.57,0,0,1,2-6.68,6.21,6.21,0,0,1,5.16-2.53,6.26,6.26,0,0,1,5,2.17V80.47h3.09V106.1H18.43l-.15-1.93a6.29,6.29,0,0,1-5.16,2.26A6.15,6.15,0,0,1,8,103.86a10.65,10.65,0,0,1-2-6.7Zm3.09.35a8,8,0,0,0,1.27,4.81,4.07,4.07,0,0,0,3.5,1.73,4.49,4.49,0,0,0,4.29-2.63v-8.3a4.54,4.54,0,0,0-4.26-2.55,4.1,4.1,0,0,0-3.53,1.75A8.79,8.79,0,0,0,9.12,97.27Z"/><path d="M37,106.43A7.9,7.9,0,0,1,31,104a9,9,0,0,1-2.3-6.45V97a10.75,10.75,0,0,1,1-4.8,8,8,0,0,1,2.87-3.31,7.25,7.25,0,0,1,4-1.19A6.77,6.77,0,0,1,42.06,90Q44,92.35,44,96.67V98H31.78a6.37,6.37,0,0,0,1.56,4.31,4.87,4.87,0,0,0,3.79,1.64,5.41,5.41,0,0,0,2.77-.66,7.11,7.11,0,0,0,2-1.77L43.78,103A7.6,7.6,0,0,1,37,106.43Zm-.39-16.18a4.09,4.09,0,0,0-3.13,1.36,6.57,6.57,0,0,0-1.57,3.81h9v-.23a5.87,5.87,0,0,0-1.27-3.65A3.87,3.87,0,0,0,36.58,90.25Z"/><path d="M61.51,101.31a2.26,2.26,0,0,0-.94-1.94,9.26,9.26,0,0,0-3.29-1.2A15.33,15.33,0,0,1,53.56,97a5.28,5.28,0,0,1-2-1.67,4,4,0,0,1-.66-2.3,4.68,4.68,0,0,1,1.88-3.75,7.3,7.3,0,0,1,4.8-1.54,7.51,7.51,0,0,1,5,1.59,5,5,0,0,1,1.91,4h-3.1a2.78,2.78,0,0,0-1.08-2.18,4,4,0,0,0-2.71-.92A4.25,4.25,0,0,0,54.9,91,2.32,2.32,0,0,0,54,92.9a1.88,1.88,0,0,0,.89,1.69A10.86,10.86,0,0,0,58,95.67a16.92,16.92,0,0,1,3.75,1.24,5.53,5.53,0,0,1,2.13,1.72,4.29,4.29,0,0,1,.69,2.46A4.61,4.61,0,0,1,62.66,105a8.06,8.06,0,0,1-5,1.46,9.11,9.11,0,0,1-3.84-.76,6.24,6.24,0,0,1-2.61-2.15,5.16,5.16,0,0,1-.94-3h3.08A3.17,3.17,0,0,0,54.58,103a4.79,4.79,0,0,0,3.06.91,5,5,0,0,0,2.81-.7A2.19,2.19,0,0,0,61.51,101.31Z"/><path d="M72.05,83.25A1.84,1.84,0,0,1,72.51,82a1.71,1.71,0,0,1,1.36-.52,1.74,1.74,0,0,1,1.37.52,1.77,1.77,0,0,1-1.37,3,1.77,1.77,0,0,1-1.36-.5A1.84,1.84,0,0,1,72.05,83.25Zm3.34,22.85H72.31V88h3.08Z"/><path d="M83,96.92a10.6,10.6,0,0,1,2-6.71,6.72,6.72,0,0,1,10.33-.16l.15-2h2.82v17.63a7.34,7.34,0,0,1-2.08,5.52,7.63,7.63,0,0,1-5.58,2,9.36,9.36,0,0,1-3.82-.83,6.61,6.61,0,0,1-2.86-2.29l1.61-1.85a6,6,0,0,0,4.85,2.45,4.73,4.73,0,0,0,3.52-1.27,4.83,4.83,0,0,0,1.26-3.57V104.3a6.36,6.36,0,0,1-5.06,2.13A6.16,6.16,0,0,1,85,103.88,11.13,11.13,0,0,1,83,96.92Zm3.1.35a8.12,8.12,0,0,0,1.25,4.8,4.08,4.08,0,0,0,3.51,1.74,4.53,4.53,0,0,0,4.29-2.65V92.92a4.58,4.58,0,0,0-4.26-2.59,4.09,4.09,0,0,0-3.52,1.75A8.79,8.79,0,0,0,86.12,97.27Z"/><path d="M109.26,88l.1,2.27a6.59,6.59,0,0,1,5.41-2.6q5.73,0,5.77,6.46V106.1h-3.08V94.15a4.15,4.15,0,0,0-.9-2.89,3.57,3.57,0,0,0-2.72-.93,4.48,4.48,0,0,0-2.64.8,5.48,5.48,0,0,0-1.77,2.1V106.1h-3.09V88Z"/><path d="M151,101.31a2.26,2.26,0,0,0-.94-1.94,9.26,9.26,0,0,0-3.29-1.2,15.33,15.33,0,0,1-3.72-1.2,5.28,5.28,0,0,1-2-1.67,4,4,0,0,1-.66-2.3,4.68,4.68,0,0,1,1.88-3.75,7.3,7.3,0,0,1,4.8-1.54,7.53,7.53,0,0,1,5,1.59,5,5,0,0,1,1.91,4h-3.1a2.78,2.78,0,0,0-1.08-2.18,4,4,0,0,0-2.71-.92,4.23,4.23,0,0,0-2.64.73,2.32,2.32,0,0,0-1,1.92,1.89,1.89,0,0,0,.88,1.69,11.06,11.06,0,0,0,3.2,1.08,16.92,16.92,0,0,1,3.75,1.24,5.42,5.42,0,0,1,2.12,1.72,4.22,4.22,0,0,1,.7,2.46,4.61,4.61,0,0,1-1.94,3.88,8.06,8.06,0,0,1-5,1.46,9.11,9.11,0,0,1-3.84-.76,6.24,6.24,0,0,1-2.61-2.15,5.16,5.16,0,0,1-.94-3h3.08a3.17,3.17,0,0,0,1.25,2.46,4.79,4.79,0,0,0,3.06.91,5,5,0,0,0,2.81-.7A2.19,2.19,0,0,0,151,101.31Z"/><path d="M169,106.43a7.86,7.86,0,0,1-6-2.41,8.91,8.91,0,0,1-2.31-6.45V97a10.89,10.89,0,0,1,1-4.8,8,8,0,0,1,2.87-3.31,7.26,7.26,0,0,1,4-1.19A6.75,6.75,0,0,1,174.12,90q1.95,2.32,1.95,6.64V98H163.84a6.42,6.42,0,0,0,1.56,4.31,4.89,4.89,0,0,0,3.8,1.64,5.43,5.43,0,0,0,2.77-.66,7.07,7.07,0,0,0,2-1.77l1.89,1.47A7.58,7.58,0,0,1,169,106.43Zm-.38-16.18a4.1,4.1,0,0,0-3.14,1.36,6.57,6.57,0,0,0-1.57,3.81H173v-.23a5.93,5.93,0,0,0-1.27-3.65A3.89,3.89,0,0,0,168.65,90.25Z"/><path d="M191.79,90.81a10.24,10.24,0,0,0-1.52-.11,4.07,4.07,0,0,0-4.12,2.58V106.1h-3.09V88h3l.05,2.09a4.8,4.8,0,0,1,4.3-2.42,3.26,3.26,0,0,1,1.37.23Z"/><path d="M204.3,101.91,208.77,88h3.16l-6.48,18.06H203.1L196.56,88h3.15Z"/><path d="M218.33,83.25a1.84,1.84,0,0,1,.46-1.26,1.71,1.71,0,0,1,1.36-.52,1.74,1.74,0,0,1,1.37.52,1.77,1.77,0,0,1-1.37,3,1.77,1.77,0,0,1-1.36-.5A1.84,1.84,0,0,1,218.33,83.25Zm3.34,22.85h-3.09V88h3.09Z"/><path d="M237.27,103.91a4.46,4.46,0,0,0,2.89-1,3.52,3.52,0,0,0,1.37-2.5h2.92a5.6,5.6,0,0,1-1.07,3,7,7,0,0,1-2.63,2.24,7.5,7.5,0,0,1-3.48.83,7.42,7.42,0,0,1-5.86-2.46,9.75,9.75,0,0,1-2.18-6.73v-.52a10.8,10.8,0,0,1,1-4.69A7.38,7.38,0,0,1,233,88.84a8,8,0,0,1,4.28-1.13,7.25,7.25,0,0,1,5.05,1.82,6.51,6.51,0,0,1,2.15,4.72h-2.92a4.24,4.24,0,0,0-1.33-2.88,4.14,4.14,0,0,0-2.95-1.12,4.31,4.31,0,0,0-3.64,1.69,8,8,0,0,0-1.29,4.9v.58a7.78,7.78,0,0,0,1.28,4.81A4.35,4.35,0,0,0,237.27,103.91Z"/><path d="M258.83,106.43a7.9,7.9,0,0,1-6-2.41,9,9,0,0,1-2.3-6.45V97a10.75,10.75,0,0,1,1-4.8,8,8,0,0,1,2.87-3.31,7.26,7.26,0,0,1,4-1.19A6.75,6.75,0,0,1,263.92,90q1.95,2.32,1.95,6.64V98H253.64a6.37,6.37,0,0,0,1.56,4.31,4.89,4.89,0,0,0,3.8,1.64,5.43,5.43,0,0,0,2.77-.66,7.21,7.21,0,0,0,2-1.77l1.89,1.47A7.59,7.59,0,0,1,258.83,106.43Zm-.38-16.18a4.1,4.1,0,0,0-3.14,1.36,6.57,6.57,0,0,0-1.57,3.81h9v-.23a5.87,5.87,0,0,0-1.26-3.65A3.89,3.89,0,0,0,258.45,90.25Z"/><path d="M283.37,101.31a2.26,2.26,0,0,0-.94-1.94,9.18,9.18,0,0,0-3.29-1.2,15.33,15.33,0,0,1-3.72-1.2,5.24,5.24,0,0,1-2-1.67,4,4,0,0,1-.66-2.3,4.67,4.67,0,0,1,1.87-3.75,7.31,7.31,0,0,1,4.8-1.54,7.51,7.51,0,0,1,5,1.59,5,5,0,0,1,1.91,4h-3.1a2.78,2.78,0,0,0-1.08-2.18,4,4,0,0,0-2.71-.92,4.25,4.25,0,0,0-2.64.73,2.32,2.32,0,0,0-.95,1.92,1.88,1.88,0,0,0,.89,1.69,11,11,0,0,0,3.19,1.08,16.92,16.92,0,0,1,3.75,1.24,5.38,5.38,0,0,1,2.13,1.72,4.29,4.29,0,0,1,.69,2.46,4.59,4.59,0,0,1-1.94,3.88,8.06,8.06,0,0,1-5,1.46,9.17,9.17,0,0,1-3.84-.76,6.24,6.24,0,0,1-2.61-2.15,5.16,5.16,0,0,1-.94-3h3.09a3.16,3.16,0,0,0,1.24,2.46,4.79,4.79,0,0,0,3.06.91,5,5,0,0,0,2.81-.7A2.19,2.19,0,0,0,283.37,101.31Z"/></g></g></svg>