<svg id="thumbsup_Image" data-name="thumbsup Image" xmlns="http://www.w3.org/2000/svg" viewBox="0 0 427.81 427.81"><defs><style>.cls-1{fill:#ec1000;}.cls-2{fill:#fff;}.cls-3{font-size:24px;font-family:RobotoCondensed-Bold, Roboto Condensed;font-weight:700;}.cls-4{fill:#c9c9c9;}</style></defs><title>WDS-logo</title><rect class="cls-1" x="0.51" width="427.81" height="427.81"/><circle class="cls-2" cx="214.42" cy="206.9" r="142.04"/><path d="M198.38,135.93,185,273.86H159.68q-.28-8.43-.62-15.86c-.23-4.94-.53-9.69-.91-14.22s-.82-9-1.3-13.31-1-8.78-1.63-13.32-1.29-9.24-2.05-14.12-1.6-10.11-2.49-15.66q-1.83,10.73-5.08,32.13t-7.86,53.4l-26.53,1.34-9.57-137.73,24.13-.58q-.09,5.94-.09,12.93-.11,6-.1,13.84v30.8q0,7.17,0,14.12t.09,13.36q.06,6.42.25,11.69l13.12-83.43h22.12l10.44,79.5q.19-7.08.43-15t.43-15.94q.19-8.06.34-15.9t.33-15q.39-16.77.68-33.43Z"/><path d="M266.76,205a132.89,132.89,0,0,1-2.15,25.62,81.12,81.12,0,0,1-5.7,18.34,45.89,45.89,0,0,1-8,12.26,38.83,38.83,0,0,1-9,7.28A31.51,31.51,0,0,1,233,272a37.63,37.63,0,0,1-7.56.91l-19.64-1.63Q207,251.73,207.67,232t.67-39.89q0-15.23-.39-30.17T206.8,132c1.54-.12,3-.22,4.5-.28s2.91-.1,4.32-.1q15.88,0,25.86,5.41A39.21,39.21,0,0,1,257,152.17a65.88,65.88,0,0,1,7.66,23.17A195.94,195.94,0,0,1,266.76,205Zm-19.54-2.59c0-3.13-.06-6.46-.19-10s-.4-7.07-.81-10.58a82.8,82.8,0,0,0-1.87-10.25,47.28,47.28,0,0,0-3.26-9.14,26.4,26.4,0,0,0-4.93-7.14,16.43,16.43,0,0,0-7-4.22q-.57,10.55-1,20.55t-.71,19.78q-.3,9.77-.43,19.39t-.15,19.3v12.79q0,6.47.19,13.17a13.59,13.59,0,0,0,7.67-3.35,24.61,24.61,0,0,0,5.5-7.23,45.79,45.79,0,0,0,3.64-9.87,98.51,98.51,0,0,0,2.16-11.3q.77-5.79,1-11.45T247.22,202.4Z"/><path d="M325.57,236.21A49.63,49.63,0,0,1,324,249.48a37.07,37.07,0,0,1-4.12,9.77,27.52,27.52,0,0,1-5.7,6.7,29.53,29.53,0,0,1-12.78,6.33,26.78,26.78,0,0,1-5.22.62c-.77,0-1.82,0-3.16-.14a43,43,0,0,1-4.6-.63,58.28,58.28,0,0,1-5.7-1.39,44.11,44.11,0,0,1-6.56-2.54l1.05-24.13a35.38,35.38,0,0,0,10.11,6.42,22.77,22.77,0,0,0,7.52,1.62q5.93,0,8.95-4.31t3-11.2a28.39,28.39,0,0,0-2.25-10.3,44.26,44.26,0,0,0-8-12.31q-3.93-4.59-8.14-9.58a84.67,84.67,0,0,1-7.66-10.63,60.31,60.31,0,0,1-5.66-12.16,43.92,43.92,0,0,1-2.2-14.08A46.87,46.87,0,0,1,275.53,151a33.46,33.46,0,0,1,7-11.59,28.1,28.1,0,0,1,10.1-6.85,32.21,32.21,0,0,1,11.93-2.25,44.1,44.1,0,0,1,11.15,1.49,52.55,52.55,0,0,1,11.45,4.54l-1.82,24.14a24.06,24.06,0,0,0-5.22-5,25.49,25.49,0,0,0-5.27-2.82,21.2,21.2,0,0,0-4.69-1.25,28.41,28.41,0,0,0-3.59-.29,10,10,0,0,0-5.13,1.39,13.22,13.22,0,0,0-4,3.74,18.65,18.65,0,0,0-2.63,5.55,23.45,23.45,0,0,0-1,6.76,20.66,20.66,0,0,0,2.34,9.86,53.16,53.16,0,0,0,5.9,8.72q3.54,4.3,7.61,8.86a74.35,74.35,0,0,1,7.62,10.25,58.12,58.12,0,0,1,5.88,13A55.69,55.69,0,0,1,325.57,236.21Z"/><text class="cls-3" transform="translate(69.19 135.88) rotate(-62.03)">C</text><text class="cls-3" transform="translate(75.54 124.09) rotate(-58.27)">r</text><text class="cls-3" transform="translate(79.44 117.66) rotate(-54.97)">e</text><text class="cls-3" transform="translate(85.85 108.5) rotate(-51.03)">a</text><text class="cls-3" transform="matrix(0.67, -0.74, 0.74, 0.67, 92.85, 99.93)">t</text><text class="cls-3" transform="translate(97.69 94.6) rotate(-45.49)">i</text><text class="cls-3" transform="matrix(0.74, -0.67, 0.67, 0.74, 101.72, 90.39)">n</text><text class="cls-3" transform="matrix(0.78, -0.62, 0.62, 0.78, 110.21, 82.62)">g</text><text class="cls-3" transform="matrix(0.82, -0.58, 0.58, 0.82, 119.58, 75.33)"> </text><text class="cls-3" transform="translate(123.81 72.18) rotate(-31.92)">D</text><text class="cls-3" transform="translate(135.09 65.19) rotate(-27.56)">e</text><text class="cls-3" transform="translate(145 60.02) rotate(-23.66)">s</text><text class="cls-3" transform="translate(154.81 55.78) rotate(-20.69)">i</text><text class="cls-3" transform="matrix(0.95, -0.3, 0.3, 0.95, 160.23, 53.64)">g</text><text class="cls-3" transform="matrix(0.97, -0.23, 0.23, 0.97, 171.44, 50.09)">n</text><text class="cls-3" transform="translate(182.76 47.49) rotate(-10.31)"> </text><text class="cls-3" transform="translate(187.93 46.44) rotate(-7.1)">S</text><text class="cls-3" transform="translate(200.51 44.88) rotate(-2.79)">o</text><text class="cls-3" transform="translate(212.14 44.35) rotate(0.93)">l</text><text class="cls-3" transform="matrix(1, 0.06, -0.06, 1, 218.01, 44.33)">u</text><text class="cls-3" transform="translate(229.59 45.06) rotate(6.66)">t</text><text class="cls-3" transform="translate(236.71 45.9) rotate(8.98)">i</text><text class="cls-3" transform="translate(242.5 46.73) rotate(12.13)">o</text><text class="cls-3" transform="translate(253.87 49.16) rotate(16.28)">n</text><text class="cls-3" transform="translate(264.93 52.4) rotate(20.25)">s</text><text class="cls-3" transform="matrix(0.92, 0.39, -0.39, 0.92, 274.93, 56.15)"> </text><text class="cls-3" transform="translate(279.22 57.85) rotate(26.12)">T</text><text class="cls-3" transform="translate(290.65 63.47) rotate(30.45)">h</text><text class="cls-3" transform="translate(300.58 69.31) rotate(34.46)">a</text><text class="cls-3" transform="matrix(0.79, 0.61, -0.61, 0.79, 309.67, 75.6)">t</text><text class="cls-3" transform="translate(315.37 80.03) rotate(39.93)"> </text><text class="cls-3" transform="translate(319.55 83.22) rotate(44.03)">M</text><text class="cls-3" transform="matrix(0.65, 0.76, -0.76, 0.65, 332.27, 95.7)">a</text><text class="cls-3" transform="translate(339.46 104.08) rotate(52.34)">t</text><text class="cls-3" transform="matrix(0.58, 0.82, -0.82, 0.58, 343.85, 109.77)">t</text><text class="cls-3" transform="translate(348.01 115.57) rotate(58.17)">e</text><text class="cls-3" transform="translate(353.91 125.16) rotate(61.55)">r</text><ellipse class="cls-4" cx="214.42" cy="296.15" rx="85.63" ry="9.4"/><path class="cls-2" d="M67.39,374.54l-2.94,30.24H58.91c0-1.23-.09-2.39-.14-3.48s-.11-2.12-.2-3.11-.17-2-.28-2.92-.22-1.93-.36-2.92-.28-2-.45-3.1-.35-2.21-.54-3.43q-.4,2.35-1.12,7T54.1,404.57l-5.81.29-2.1-30.19,5.29-.13c0,.87,0,1.82,0,2.84s0,1.89,0,3v6.75c0,1,0,2.09,0,3.1s0,2,0,2.93,0,1.79.05,2.56l2.88-18.29h4.85l2.28,17.43c0-1,.06-2.13.1-3.29s.07-2.32.09-3.49.06-2.34.08-3.49,0-2.24.07-3.29c.06-2.45.11-4.9.15-7.33Z"/><path class="cls-2" d="M81.29,390.59q0,3.32,0,6.63t-.14,6.91l-3.65-.21v-2.84A5.43,5.43,0,0,1,76,402.82a7,7,0,0,1-1.51.89,5.31,5.31,0,0,1-1.66.38,4.11,4.11,0,0,1-1.89-.45,5.28,5.28,0,0,1-1.53-1.21,6,6,0,0,1-1-1.73,5.88,5.88,0,0,1-.37-2,5.81,5.81,0,0,1,.52-2.36,5.46,5.46,0,0,1,1.75-2.11c1.11-.86,2.07-1.57,2.88-2.14s1.49-1.1,2-1.57a6.33,6.33,0,0,0,1.19-1.34,2.8,2.8,0,0,0,.39-1.48,3.69,3.69,0,0,0-.46-2.07,1.41,1.41,0,0,0-1.22-.68,1.3,1.3,0,0,0-.79.24,1.8,1.8,0,0,0-.52.63,3.63,3.63,0,0,0-.3.86,5,5,0,0,0-.09.93c0,.21,0,.44,0,.7a4.88,4.88,0,0,0,.14.79l-4.83.09c0-.24,0-.47-.06-.68s0-.43,0-.64a7.7,7.7,0,0,1,.45-2.58A6.85,6.85,0,0,1,70.43,383a6.42,6.42,0,0,1,2.06-1.61,6.17,6.17,0,0,1,2.8-.61,5.42,5.42,0,0,1,3.22.85,5.47,5.47,0,0,1,1.81,2.24,10.26,10.26,0,0,1,.79,3.14A35,35,0,0,1,81.29,390.59Zm-4.72,5.94c.07-.35.13-.75.19-1.2s.1-.84.14-1.37.08-1.15.11-1.82c-.23.31-.44.58-.65.82s-.41.45-.59.63l-.59.57c-.32.26-.66.56-1,.89a9.69,9.69,0,0,0-1,1,6.51,6.51,0,0,0-.76,1.12,2.45,2.45,0,0,0-.3,1.12,1.69,1.69,0,0,0,.39,1.08,1.24,1.24,0,0,0,1,.5,2.05,2.05,0,0,0,.92-.25,3.65,3.65,0,0,0,.9-.72,5.39,5.39,0,0,0,.76-1.07A4.78,4.78,0,0,0,76.57,396.53Z"/><path class="cls-2" d="M91.12,375.62q-.16,1.69-.3,3.3c-.08,1.07-.16,2.14-.23,3.2l1.59-.07c.52,0,1.06-.06,1.6-.12l-.14,4.27c-.53,0-1.08,0-1.63,0H90.38q-.16,3-.24,5.91c0,1.92-.07,3.86-.07,5.82,0,1,0,2,0,3s.05,2,.07,3.07l-4.62.09q.15-4.51.26-8.94c.07-2.94.1-5.92.1-8.91l-1.62.07c-.54,0-1.08.06-1.61.1l.17-4.6c.49.07,1,.12,1.51.17l1.51.1q0-1.63,0-3.21c0-1.05,0-2.12-.1-3.21Z"/><path class="cls-2" d="M106.84,403.39a17.45,17.45,0,0,1-3.55.88,19.62,19.62,0,0,1-2.64.22A4.78,4.78,0,0,1,98.4,404a5.4,5.4,0,0,1-1.67-1.34,7.92,7.92,0,0,1-1.16-1.94,14.6,14.6,0,0,1-.74-2.32,18.9,18.9,0,0,1-.38-2.47c-.08-.83-.12-1.62-.12-2.36a28.07,28.07,0,0,1,.44-5.12,16,16,0,0,1,1.28-4,7.34,7.34,0,0,1,2.08-2.65,4.47,4.47,0,0,1,2.81-1,4.55,4.55,0,0,1,2.38.65,5.31,5.31,0,0,1,1.82,2,11.22,11.22,0,0,1,1.17,3.41,25.78,25.78,0,0,1,.41,4.9q0,.79,0,1.62c0,.54-.06,1.11-.12,1.7l-7.43,1a9.71,9.71,0,0,0,.26,1.48,5,5,0,0,0,.48,1.22,2.8,2.8,0,0,0,.73.85,1.66,1.66,0,0,0,1,.32,19.34,19.34,0,0,0,2.27-.14c.75-.09,1.54-.2,2.37-.32ZM99,392.48l3.49-.66V391a10.89,10.89,0,0,0-.27-2.76,5.24,5.24,0,0,0-.59-1.44,1.31,1.31,0,0,0-.86-.63,1.29,1.29,0,0,0-1,.57,3.32,3.32,0,0,0-.53,1.29,9.89,9.89,0,0,0-.23,1.77c0,.66,0,1.32,0,2Z"/><path class="cls-2" d="M121.37,391c-.44.07-.91.15-1.4.25s-.9.19-1.43.33-1.06.31-1.6.49a18.44,18.44,0,0,0,.29-1.84c0-.52.07-1,.07-1.44a6.28,6.28,0,0,0-.2-1.77,2.87,2.87,0,0,0-.45-1,1.07,1.07,0,0,0-.49-.38,1.65,1.65,0,0,0-.33-.06,1.31,1.31,0,0,0-1.09.56,4,4,0,0,0-.65,1.47,11.8,11.8,0,0,0-.32,2.09c0,.78-.08,1.59-.08,2.41,0,.59,0,1.18,0,1.76s0,1.18.06,1.77l.3,8.25-4.85.34q0-5.07-.1-9.13c-.06-2.7-.13-5-.2-6.94q-.12-3.36-.27-6l4.14-.27.21,2.37a6.55,6.55,0,0,1,1.29-2.13,5.55,5.55,0,0,1,1.49-1.18,4.7,4.7,0,0,1,1.36-.49,6.43,6.43,0,0,1,.94-.11,2.33,2.33,0,0,1,1.74.69,4.6,4.6,0,0,1,1.05,1.75,10.38,10.38,0,0,1,.51,2.35,21.33,21.33,0,0,1,.14,2.48c0,.63,0,1.23,0,1.79S121.4,390.58,121.37,391Z"/><path class="cls-2" d="M136.05,390.63c-.06,1.68-.11,3.3-.17,4.87,0,.67,0,1.36-.08,2.08s-.06,1.41-.1,2.09-.06,1.33-.09,1.95-.06,1.17-.08,1.65l-4.6.44q.16-2.77.27-4.86c.07-1.39.12-2.59.16-3.59s.06-1.84.07-2.51,0-1.21,0-1.62,0-.7,0-.9,0-.32,0-.38a16.37,16.37,0,0,0-.09-1.91,5.28,5.28,0,0,0-.27-1.15,1.14,1.14,0,0,0-.41-.57,1,1,0,0,0-.53-.15,2.37,2.37,0,0,0-.77.14,1.46,1.46,0,0,0-.69.54,3.37,3.37,0,0,0-.49,1.17,8.38,8.38,0,0,0-.19,2c0,1.6,0,3.16,0,4.68s0,2.88,0,4.1q0,2.13.06,4.05l-5,.47c.11-1.49.18-2.94.22-4.35s.05-2.69.05-3.82q0-3.19-.14-6.33c-.09-2.09-.25-4.27-.47-6.52.9,0,1.63-.06,2.2-.11s1-.09,1.37-.14a5.89,5.89,0,0,0,.9-.19l0,2.54a11.08,11.08,0,0,1,1-1.35,7.54,7.54,0,0,1,1.12-1.08,5.09,5.09,0,0,1,1.23-.71,3.36,3.36,0,0,1,1.31-.26,7.56,7.56,0,0,1,1.34.11,2.64,2.64,0,0,1,1,.44,2.69,2.69,0,0,1,.72.91,6.2,6.2,0,0,1,.5,1.48,11.73,11.73,0,0,1,.83-1.13,6.27,6.27,0,0,1,1-.94,4.61,4.61,0,0,1,1.14-.64,3.68,3.68,0,0,1,1.35-.23,6.12,6.12,0,0,1,2,.27,2.4,2.4,0,0,1,1.29,1.1,6.6,6.6,0,0,1,.72,2.35,30.52,30.52,0,0,1,.22,4c0,2.4-.06,4.79-.17,7.2s-.23,4.87-.36,7.42l-4.6.44c.17-2.58.29-4.74.35-6.5s.1-3.17.11-4.25,0-1.86,0-2.34,0-.76,0-.81a13.72,13.72,0,0,0-.11-1.89,4.13,4.13,0,0,0-.32-1.15,1.18,1.18,0,0,0-.46-.55,1.14,1.14,0,0,0-.58-.15l-.42,0a1.1,1.1,0,0,0-.48.21,2,2,0,0,0-.49.56,4.44,4.44,0,0,0-.45,1.05c0,.63.06,1.19.07,1.68S136.05,390.43,136.05,390.63Z"/><path class="cls-2" d="M158.75,390.59q0,3.32,0,6.63c0,2.21-.07,4.51-.14,6.91l-3.65-.21v-2.84a5.43,5.43,0,0,1-1.43,1.74,7.22,7.22,0,0,1-1.51.89,5.38,5.38,0,0,1-1.66.38,4.11,4.11,0,0,1-1.89-.45,5.16,5.16,0,0,1-1.53-1.21,5.57,5.57,0,0,1-1-1.73,5.65,5.65,0,0,1-.37-2,5.8,5.8,0,0,1,.51-2.36,5.49,5.49,0,0,1,1.76-2.11c1.1-.86,2.06-1.57,2.87-2.14s1.49-1.1,2-1.57a6.13,6.13,0,0,0,1.2-1.34,2.79,2.79,0,0,0,.38-1.48,3.69,3.69,0,0,0-.46-2.07,1.39,1.39,0,0,0-1.21-.68,1.28,1.28,0,0,0-.79.24,1.82,1.82,0,0,0-.53.63,3.22,3.22,0,0,0-.29.86,5,5,0,0,0-.1.93,6,6,0,0,0,0,.7,4.81,4.81,0,0,0,.13.79l-4.83.09c0-.24,0-.47-.06-.68s0-.43,0-.64a8,8,0,0,1,.44-2.58,6.85,6.85,0,0,1,1.29-2.26,6.57,6.57,0,0,1,2.07-1.61,6.09,6.09,0,0,1,2.79-.61,5.45,5.45,0,0,1,3.23.85,5.37,5.37,0,0,1,1.8,2.24,10.26,10.26,0,0,1,.8,3.14A35,35,0,0,1,158.75,390.59ZM154,396.53c.07-.35.14-.75.19-1.2s.11-.84.15-1.37.08-1.15.1-1.82a10.23,10.23,0,0,1-.65.82c-.21.24-.4.45-.59.63l-.58.57c-.33.26-.67.56-1,.89a8.89,8.89,0,0,0-1,1,7.14,7.14,0,0,0-.76,1.12,2.45,2.45,0,0,0-.3,1.12,1.64,1.64,0,0,0,.4,1.08,1.23,1.23,0,0,0,1,.5,2,2,0,0,0,.91-.25,3.48,3.48,0,0,0,.9-.72,5.42,5.42,0,0,0,.77-1.07A5.09,5.09,0,0,0,154,396.53Z"/><path class="cls-2" d="M169.73,403.83q.47-3.37.66-6.84t.2-7.27a10,10,0,0,0-.17-2,3.52,3.52,0,0,0-.44-1.18,1.23,1.23,0,0,0-.59-.52,1.7,1.7,0,0,0-.61-.12,2,2,0,0,0-.78.15,1.65,1.65,0,0,0-.69.57,4.25,4.25,0,0,0-.57,1.17,11.54,11.54,0,0,0-.46,2c-.12.82-.22,1.83-.28,3s-.09,2.59-.09,4.23v1.84c0,.63,0,1.24,0,1.81s0,1.08,0,1.53a8.16,8.16,0,0,0,.05.93l-4.74,0c0-1.28.07-2.41.09-3.41s0-1.93,0-2.77,0-1.62,0-2.36,0-1.46,0-2.17,0-1.31,0-2,0-1.41,0-2.2,0-1.64,0-2.57,0-2-.07-3.1l4.91-.12-.08,2.14a6.59,6.59,0,0,1,1.21-1.71,6.21,6.21,0,0,1,1.3-1,3.88,3.88,0,0,1,1.24-.47,5.75,5.75,0,0,1,1.1-.12,2.81,2.81,0,0,1,2.14.9,6.53,6.53,0,0,1,1.33,2.41,15.54,15.54,0,0,1,.68,3.43,40.07,40.07,0,0,1,.19,4c0,1,0,2-.07,3.07s-.11,2-.17,3-.13,2-.21,2.9-.14,1.79-.2,2.59Z"/><path class="cls-2" d="M198.14,389.68a28.65,28.65,0,0,1-.48,5.62,17.51,17.51,0,0,1-1.25,4,9.93,9.93,0,0,1-1.75,2.69,8.48,8.48,0,0,1-2,1.59,6.92,6.92,0,0,1-2,.77,8.36,8.36,0,0,1-1.65.2l-4.31-.36c.18-2.85.32-5.73.42-8.62s.15-5.8.15-8.74c0-2.23,0-4.43-.09-6.62s-.14-4.36-.25-6.55l1-.06.94,0a11.81,11.81,0,0,1,5.67,1.19A8.49,8.49,0,0,1,196,378.1a14.48,14.48,0,0,1,1.68,5.08A42,42,0,0,1,198.14,389.68Zm-4.29-.56c0-.69,0-1.42,0-2.2s-.09-1.55-.18-2.32a18.23,18.23,0,0,0-.41-2.25,10.71,10.71,0,0,0-.71-2,6,6,0,0,0-1.08-1.56,3.51,3.51,0,0,0-1.55-.93c-.08,1.54-.15,3-.22,4.51s-.11,2.9-.15,4.33-.08,2.85-.1,4.25,0,2.82,0,4.23V398c0,.94,0,1.9,0,2.88a2.92,2.92,0,0,0,1.68-.73,5.31,5.31,0,0,0,1.21-1.59,10.12,10.12,0,0,0,.8-2.16,21.75,21.75,0,0,0,.47-2.48c.11-.84.18-1.68.22-2.51S193.85,389.82,193.85,389.12Z"/><path class="cls-2" d="M212.2,403.39a17.37,17.37,0,0,1-3.56.88,19.61,19.61,0,0,1-2.63.22,4.78,4.78,0,0,1-2.25-.51,5.4,5.4,0,0,1-1.67-1.34,7.62,7.62,0,0,1-1.16-1.94,13.65,13.65,0,0,1-.74-2.32,20.79,20.79,0,0,1-.39-2.47c-.07-.83-.11-1.62-.11-2.36a28.07,28.07,0,0,1,.44-5.12,15.6,15.6,0,0,1,1.28-4,7.34,7.34,0,0,1,2.08-2.65,4.47,4.47,0,0,1,2.81-1,4.55,4.55,0,0,1,2.38.65,5.31,5.31,0,0,1,1.82,2,11.5,11.5,0,0,1,1.17,3.41,25.78,25.78,0,0,1,.41,4.9q0,.79,0,1.62c0,.54-.06,1.11-.12,1.7l-7.43,1a9.71,9.71,0,0,0,.26,1.48,5,5,0,0,0,.48,1.22,2.8,2.8,0,0,0,.73.85,1.66,1.66,0,0,0,1,.32,19,19,0,0,0,2.26-.14c.76-.09,1.55-.2,2.38-.32Zm-7.83-10.91,3.49-.66V391a10.37,10.37,0,0,0-.28-2.76,5,5,0,0,0-.58-1.44,1.33,1.33,0,0,0-.86-.63,1.29,1.29,0,0,0-1,.57,3.49,3.49,0,0,0-.54,1.29,9.94,9.94,0,0,0-.22,1.77c0,.66,0,1.32,0,2Z"/><path class="cls-2" d="M224,397.68a6.88,6.88,0,0,1-.62,3.12,6,6,0,0,1-1.55,2,5.86,5.86,0,0,1-2,1.08,7.72,7.72,0,0,1-2.1.32,7.35,7.35,0,0,1-1.42-.17,8.45,8.45,0,0,1-1.3-.38,3.82,3.82,0,0,1-1.22-.77l.16-4.79a6.91,6.91,0,0,0,1.54.95,9.47,9.47,0,0,0,1.43.5,7.75,7.75,0,0,0,1.46.23,2.25,2.25,0,0,0,.92-.89,2.55,2.55,0,0,0,.32-1.29,3.3,3.3,0,0,0-.28-1.29,4.08,4.08,0,0,0-.87-1.29L217,393.6a15.68,15.68,0,0,1-1.55-1.88,11.06,11.06,0,0,1-1.26-2.33,7.49,7.49,0,0,1-.52-2.79,8.63,8.63,0,0,1,.41-2.72,6.32,6.32,0,0,1,1.16-2.11,5.16,5.16,0,0,1,1.78-1.37,5.42,5.42,0,0,1,2.28-.48,9,9,0,0,1,2.19.3,14,14,0,0,1,2.49,1l-.33,4.89a5.81,5.81,0,0,0-1.16-.79,7.81,7.81,0,0,0-1.13-.47,6.76,6.76,0,0,0-1.2-.25,2.27,2.27,0,0,0-1.36.83,2.63,2.63,0,0,0-.57,1.75,3.66,3.66,0,0,0,.41,1.76,7.1,7.1,0,0,0,1,1.4c.41.44.86.88,1.35,1.33a11.06,11.06,0,0,1,1.38,1.5,8.35,8.35,0,0,1,1.09,1.93A7.24,7.24,0,0,1,224,397.68Z"/><path class="cls-2" d="M232.46,376.06a3.36,3.36,0,0,1-.21,1.2,2.55,2.55,0,0,1-.63,1,2.86,2.86,0,0,1-1.06.64,4.46,4.46,0,0,1-1.5.23,4.75,4.75,0,0,1-1.58-.23,2.74,2.74,0,0,1-1-.64,2.35,2.35,0,0,1-.59-1,3.87,3.87,0,0,1-.18-1.2,3.58,3.58,0,0,1,.19-1.19,2.68,2.68,0,0,1,.6-1,2.74,2.74,0,0,1,1.06-.66,5.13,5.13,0,0,1,3.1,0,2.94,2.94,0,0,1,1,.66,2.68,2.68,0,0,1,.6,1A3.34,3.34,0,0,1,232.46,376.06Zm-1.26,6.11c-.08.77-.15,1.59-.21,2.47s-.1,1.8-.14,2.74-.07,1.91-.09,2.88,0,1.93,0,2.87c0,1.09,0,2.14,0,3.16s0,1.95.09,2.8.07,1.61.12,2.27a14.12,14.12,0,0,0,.18,1.53c-.56,0-1.14,0-1.74,0l-1.74.11c-.65,0-1.29.1-1.93.19q.34-3.78.48-6.92t.12-5.64c0-1.43,0-2.68-.07-3.75s-.1-2-.16-2.72-.12-1.61-.21-2.22c.79.1,1.5.16,2.16.19s1.21,0,1.69,0h.6l.47,0Z"/><path class="cls-2" d="M246.76,398.33c0,1.65-.11,3.11-.17,4.38a24.64,24.64,0,0,1-.33,3.33,8.2,8.2,0,0,1-.76,2.39,4.1,4.1,0,0,1-1.39,1.56,6.37,6.37,0,0,1-2.27.85,18.84,18.84,0,0,1-3.37.26c-.66,0-1.37,0-2.12-.07a21.16,21.16,0,0,1-2.44-.31l.17-4.62,2.74.17,2,.1c.63.05,1.18.07,1.64.09a1.64,1.64,0,0,0,1.52-1.18,8.8,8.8,0,0,0,.58-3.25,5,5,0,0,1-.85,1.36,4.48,4.48,0,0,1-1,.83,3.07,3.07,0,0,1-1,.41,3.7,3.7,0,0,1-3-.54,5.74,5.74,0,0,1-1.88-2.16,14.7,14.7,0,0,1-1.36-3.92,29,29,0,0,1-.52-6,23.48,23.48,0,0,1,.45-4.87,13.6,13.6,0,0,1,1.21-3.53,6.21,6.21,0,0,1,1.74-2.15,3.46,3.46,0,0,1,2.06-.72,3.61,3.61,0,0,1,1.08.17,3.72,3.72,0,0,1,1.17.6,5.35,5.35,0,0,1,1.12,1.15,6.72,6.72,0,0,1,.93,1.86l0-2.59,3.74.19Zm-4.6-4.3c0-.43,0-.95,0-1.54s0-1.21-.06-1.85a16.63,16.63,0,0,0-.2-1.88,9,9,0,0,0-.41-1.66,3.41,3.41,0,0,0-.68-1.19,1.38,1.38,0,0,0-1.05-.45,1.44,1.44,0,0,0-1.25.67,5,5,0,0,0-.67,1.73,12.44,12.44,0,0,0-.26,2.31c0,.84,0,1.65,0,2.43,0,.55,0,1.12,0,1.72s.06,1.2.11,1.8a16.71,16.71,0,0,0,.25,1.69,9.23,9.23,0,0,0,.42,1.42,3,3,0,0,0,.62,1,1.22,1.22,0,0,0,.87.36,1.34,1.34,0,0,0,1.07-.52,3.86,3.86,0,0,0,.73-1.39,10.82,10.82,0,0,0,.41-2.07A25.38,25.38,0,0,0,242.16,394Z"/><path class="cls-2" d="M257.79,403.83q.45-3.37.66-6.84t.2-7.27a10,10,0,0,0-.17-2,3.52,3.52,0,0,0-.44-1.18,1.23,1.23,0,0,0-.59-.52,1.7,1.7,0,0,0-.61-.12,2.09,2.09,0,0,0-.79.15,1.69,1.69,0,0,0-.68.57,4.54,4.54,0,0,0-.58,1.17,12.68,12.68,0,0,0-.45,2c-.12.82-.22,1.83-.28,3s-.1,2.59-.1,4.23v1.84c0,.63,0,1.24,0,1.81s0,1.08,0,1.53a6.31,6.31,0,0,0,.05.93l-4.75,0c0-1.28.08-2.41.1-3.41s0-1.93,0-2.77,0-1.62,0-2.36,0-1.46,0-2.17,0-1.31,0-2,0-1.41,0-2.2,0-1.64,0-2.57,0-2-.07-3.1l4.91-.12-.09,2.14a6.84,6.84,0,0,1,1.22-1.71,6.44,6.44,0,0,1,1.29-1,4,4,0,0,1,1.25-.47,5.74,5.74,0,0,1,1.09-.12,2.82,2.82,0,0,1,2.15.9,6.67,6.67,0,0,1,1.33,2.41,16.14,16.14,0,0,1,.68,3.43,40.07,40.07,0,0,1,.19,4c0,1,0,2-.07,3.07s-.11,2-.17,3-.13,2-.21,2.9-.14,1.79-.2,2.59Z"/><path class="cls-2" d="M283.61,396.53a11,11,0,0,1-.35,2.91,8.25,8.25,0,0,1-.9,2.14,6.13,6.13,0,0,1-2.67,2.38,6.44,6.44,0,0,1-1.38.47,5.86,5.86,0,0,1-1.15.14l-.69,0a9.28,9.28,0,0,1-1-.14c-.37-.07-.79-.17-1.25-.3a10.5,10.5,0,0,1-1.43-.56l.23-5.29a7.69,7.69,0,0,0,2.21,1.41,5.14,5.14,0,0,0,1.65.35,2.23,2.23,0,0,0,2-.94,4.21,4.21,0,0,0,.67-2.46,6.27,6.27,0,0,0-.5-2.26,9.62,9.62,0,0,0-1.75-2.69l-1.79-2.1a20.59,20.59,0,0,1-1.68-2.33,13.52,13.52,0,0,1-1.23-2.67,9.36,9.36,0,0,1-.49-3.09,10.16,10.16,0,0,1,.58-3.63,7.35,7.35,0,0,1,1.54-2.54,6.24,6.24,0,0,1,2.22-1.5,7,7,0,0,1,2.61-.49,9.53,9.53,0,0,1,2.45.32,11.62,11.62,0,0,1,2.51,1l-.4,5.29a5.36,5.36,0,0,0-1.15-1.1,5.23,5.23,0,0,0-1.15-.62,4.64,4.64,0,0,0-1-.27,5.07,5.07,0,0,0-.79-.07,2.1,2.1,0,0,0-1.12.31,2.74,2.74,0,0,0-.88.82,3.89,3.89,0,0,0-.58,1.21,5.19,5.19,0,0,0-.21,1.48,4.49,4.49,0,0,0,.52,2.17,11.46,11.46,0,0,0,1.29,1.91c.51.63,1.07,1.27,1.67,1.94A15.24,15.24,0,0,1,281.8,390a12.9,12.9,0,0,1,1.3,2.85A12.32,12.32,0,0,1,283.61,396.53Z"/><path class="cls-2" d="M298.1,391.93a39.06,39.06,0,0,1-.23,4.49,20.89,20.89,0,0,1-.66,3.35,9.4,9.4,0,0,1-1,2.35,5.62,5.62,0,0,1-1.33,1.5,4.29,4.29,0,0,1-1.56.8,6.2,6.2,0,0,1-1.72.23,7.18,7.18,0,0,1-1.69-.19,3.94,3.94,0,0,1-1.5-.69,5.21,5.21,0,0,1-1.27-1.36,8.14,8.14,0,0,1-1-2.21,19.07,19.07,0,0,1-.62-3.21,37.43,37.43,0,0,1-.22-4.39,27.74,27.74,0,0,1,.56-6.19,11.84,11.84,0,0,1,1.46-3.81,5,5,0,0,1,2.05-1.93,5.55,5.55,0,0,1,2.38-.54,7.65,7.65,0,0,1,1.56.16,4.11,4.11,0,0,1,1.49.62,4.94,4.94,0,0,1,1.31,1.28,7.29,7.29,0,0,1,1,2.13,16.87,16.87,0,0,1,.7,3.18A35.18,35.18,0,0,1,298.1,391.93Zm-4.52.17a32.69,32.69,0,0,0-.14-3.31,10.59,10.59,0,0,0-.4-2.05,2.23,2.23,0,0,0-.61-1,1.29,1.29,0,0,0-.78-.28,1.1,1.1,0,0,0-.84.41,3.27,3.27,0,0,0-.6,1.31,13.88,13.88,0,0,0-.36,2.32c-.09,1-.13,2.1-.13,3.46a29.17,29.17,0,0,0,.16,3.41,10,10,0,0,0,.44,2.16,2.72,2.72,0,0,0,.67,1.15,1.27,1.27,0,0,0,.83.33c.62,0,1.06-.64,1.34-1.91A30.43,30.43,0,0,0,293.58,392.1Z"/><path class="cls-2" d="M305,403.39c-.36,0-.77,0-1.23.09l-1.38.1c-.52,0-1.1.1-1.73.17q-.19-7.11-.4-12.59c-.14-3.64-.27-6.73-.38-9.25q-.21-4.41-.42-7.66l5.46-.25v8.53q0,3.8,0,6.74c0,2,0,3.69,0,5.15s0,2.72,0,3.77C305,400.64,305,402.37,305,403.39Z"/><path class="cls-2" d="M320.84,383.24c-.12,2.25-.19,4.48-.24,6.68s-.06,4.42-.06,6.65c0,1.32,0,2.62,0,3.9s0,2.59.08,3.91l-4.18.11v-2.63a5.07,5.07,0,0,1-1.41,1.57,5.81,5.81,0,0,1-1.48.79,5.25,5.25,0,0,1-1.21.28l-.58,0a4.1,4.1,0,0,1-2.2-1.17,6.35,6.35,0,0,1-1.38-2.22,12.49,12.49,0,0,1-.73-3,28.34,28.34,0,0,1-.21-3.52c0-1.07,0-2.15.13-3.26s.19-2.19.31-3.26.27-2.11.42-3.11.31-1.94.46-2.8l4.58.08-.39,2.69c-.13,1-.25,1.95-.35,3s-.19,2-.26,3-.09,2-.09,2.89,0,1.62.11,2.35a10.21,10.21,0,0,0,.33,1.9,3.36,3.36,0,0,0,.6,1.26,1.13,1.13,0,0,0,.91.45,1.34,1.34,0,0,0,1.18-.86,7.61,7.61,0,0,0,.72-2.26,22.68,22.68,0,0,0,.36-3.14c.06-1.16.09-2.33.09-3.5,0-.88,0-1.72,0-2.52s-.05-1.51-.08-2.14-.09-1.41-.13-2Z"/><path class="cls-2" d="M330.56,375.62q-.17,1.69-.3,3.3c-.08,1.07-.16,2.14-.23,3.2l1.59-.07c.52,0,1.06-.06,1.6-.12l-.14,4.27c-.53,0-1.08,0-1.63,0h-1.63q-.17,3-.24,5.91c-.05,1.92-.07,3.86-.07,5.82,0,1,0,2,0,3s0,2,.07,3.07l-4.62.09q.15-4.51.26-8.94c.07-2.94.1-5.92.1-8.91l-1.62.07c-.54,0-1.08.06-1.61.1l.17-4.6c.49.07,1,.12,1.51.17l1.51.1q0-1.63,0-3.21c0-1.05-.06-2.12-.1-3.21Z"/><path class="cls-2" d="M340.93,376.06a3.36,3.36,0,0,1-.21,1.2,2.55,2.55,0,0,1-.63,1,2.86,2.86,0,0,1-1.06.64,4.55,4.55,0,0,1-1.5.23,4.86,4.86,0,0,1-1.59-.23,2.9,2.9,0,0,1-1.05-.64,2.33,2.33,0,0,1-.58-1,3.87,3.87,0,0,1-.18-1.2,3.58,3.58,0,0,1,.19-1.19,2.43,2.43,0,0,1,.6-1,2.78,2.78,0,0,1,1.05-.66,4.57,4.57,0,0,1,1.56-.24,4.41,4.41,0,0,1,1.54.24,2.78,2.78,0,0,1,1.05.66,2.7,2.7,0,0,1,.61,1A3.58,3.58,0,0,1,340.93,376.06Zm-1.26,6.11c-.08.77-.15,1.59-.21,2.47s-.1,1.8-.15,2.74-.07,1.91-.08,2.88,0,1.93,0,2.87c0,1.09,0,2.14,0,3.16s.05,1.95.08,2.8.08,1.61.13,2.27a14.12,14.12,0,0,0,.18,1.53c-.56,0-1.14,0-1.74,0l-1.75.11c-.64,0-1.28.1-1.93.19q.36-3.78.48-6.92c.09-2.09.13-4,.13-5.64,0-1.43,0-2.68-.07-3.75s-.1-2-.16-2.72-.13-1.61-.21-2.22c.78.1,1.5.16,2.15.19s1.22,0,1.69,0h.61l.46,0Z"/><path class="cls-2" d="M354.33,391.93a39.06,39.06,0,0,1-.23,4.49,19.78,19.78,0,0,1-.67,3.35,9,9,0,0,1-1,2.35,5.59,5.59,0,0,1-1.32,1.5,4.29,4.29,0,0,1-1.56.8,6.26,6.26,0,0,1-1.72.23,7.12,7.12,0,0,1-1.69-.19,4.05,4.05,0,0,1-1.51-.69,5.57,5.57,0,0,1-1.27-1.36,8.14,8.14,0,0,1-1-2.21,19.07,19.07,0,0,1-.62-3.21,37.43,37.43,0,0,1-.22-4.39,28.43,28.43,0,0,1,.55-6.19,12.32,12.32,0,0,1,1.46-3.81,5.06,5.06,0,0,1,2.06-1.93,5.54,5.54,0,0,1,2.37-.54,7.68,7.68,0,0,1,1.57.16,4.11,4.11,0,0,1,1.49.62,4.94,4.94,0,0,1,1.31,1.28,7.29,7.29,0,0,1,1.05,2.13,16.18,16.18,0,0,1,.69,3.18A33.22,33.22,0,0,1,354.33,391.93Zm-4.52.17a32.69,32.69,0,0,0-.14-3.31,11.41,11.41,0,0,0-.4-2.05,2.31,2.31,0,0,0-.61-1,1.29,1.29,0,0,0-.78-.28,1.1,1.1,0,0,0-.84.41,3.27,3.27,0,0,0-.6,1.31,14.86,14.86,0,0,0-.37,2.32c-.08,1-.12,2.1-.12,3.46a29.17,29.17,0,0,0,.16,3.41,10,10,0,0,0,.44,2.16,2.72,2.72,0,0,0,.67,1.15,1.25,1.25,0,0,0,.83.33c.61,0,1.06-.64,1.34-1.91A30.43,30.43,0,0,0,349.81,392.1Z"/><path class="cls-2" d="M364.87,403.83q.45-3.37.66-6.84t.2-7.27a10,10,0,0,0-.17-2,3.52,3.52,0,0,0-.44-1.18,1.23,1.23,0,0,0-.59-.52,1.7,1.7,0,0,0-.61-.12,2.09,2.09,0,0,0-.79.15,1.69,1.69,0,0,0-.68.57,4.54,4.54,0,0,0-.58,1.17,12.68,12.68,0,0,0-.45,2c-.12.82-.22,1.83-.28,3s-.1,2.59-.1,4.23v1.84c0,.63,0,1.24,0,1.81s0,1.08,0,1.53a6.31,6.31,0,0,0,.05.93l-4.75,0c.05-1.28.08-2.41.1-3.41s0-1.93,0-2.77,0-1.62,0-2.36,0-1.46,0-2.17,0-1.31,0-2,0-1.41,0-2.2,0-1.64,0-2.57-.05-2-.07-3.1l4.91-.12-.08,2.14a6.59,6.59,0,0,1,1.21-1.71,6.44,6.44,0,0,1,1.29-1,4,4,0,0,1,1.25-.47,5.74,5.74,0,0,1,1.09-.12,2.82,2.82,0,0,1,2.15.9,6.53,6.53,0,0,1,1.33,2.41,15.54,15.54,0,0,1,.68,3.43,40.07,40.07,0,0,1,.19,4c0,1,0,2-.07,3.07s-.11,2-.17,3-.13,2-.21,2.9-.14,1.79-.2,2.59Z"/><path class="cls-2" d="M382.65,397.68a7,7,0,0,1-.62,3.12,5.7,5.7,0,0,1-3.6,3.09,7.72,7.72,0,0,1-2.1.32,7.46,7.46,0,0,1-1.43-.17,8.68,8.68,0,0,1-1.29-.38,4,4,0,0,1-1.23-.77l.17-4.79a6.86,6.86,0,0,0,1.53.95,10.3,10.3,0,0,0,1.43.5,7.85,7.85,0,0,0,1.47.23,2.23,2.23,0,0,0,.91-.89,2.55,2.55,0,0,0,.33-1.29,3.3,3.3,0,0,0-.28-1.29,4,4,0,0,0-.88-1.29l-1.39-1.42a15.73,15.73,0,0,1-1.56-1.88,12.06,12.06,0,0,1-1.26-2.33,7.48,7.48,0,0,1-.51-2.79,8.63,8.63,0,0,1,.41-2.72,6.3,6.3,0,0,1,1.15-2.11,5.2,5.2,0,0,1,1.79-1.37,5.35,5.35,0,0,1,2.28-.48,8.83,8.83,0,0,1,2.18.3,14.1,14.1,0,0,1,2.5,1l-.34,4.89a5.75,5.75,0,0,0-1.15-.79,7.89,7.89,0,0,0-1.14-.47,6.48,6.48,0,0,0-1.19-.25,2.29,2.29,0,0,0-1.37.83,2.68,2.68,0,0,0-.56,1.75,3.55,3.55,0,0,0,.41,1.76,6.72,6.72,0,0,0,1,1.4c.41.44.86.88,1.35,1.33a10.4,10.4,0,0,1,1.37,1.5,8.76,8.76,0,0,1,1.1,1.93A7.46,7.46,0,0,1,382.65,397.68Z"/></svg>