<svg id="thumbsup_Image" data-name="thumbsup Image" xmlns="http://www.w3.org/2000/svg" viewBox="0 0 427.81 427.81"><defs><style>.cls-1{fill:#fff;}.cls-2{fill:#c9c9c9;}</style></defs><title>WDS-logo</title><circle class="cls-1" cx="213.9" cy="206.9" r="142.04"/><path d="M197.86,135.93,184.45,273.86H159.17c-.2-5.62-.4-10.91-.63-15.86s-.52-9.69-.91-14.22-.81-9-1.29-13.31-1-8.78-1.63-13.32-1.29-9.24-2.06-14.12-1.59-10.11-2.49-15.66q-1.82,10.73-5.08,32.13t-7.85,53.4l-26.53,1.34-9.58-137.73,24.14-.58q-.11,5.94-.1,12.93-.09,6-.09,13.84v30.8q0,7.17.05,14.12t.09,13.36q0,6.42.24,11.69l13.12-83.43H160.7l10.44,79.5q.18-7.08.43-15t.43-15.94q.19-8.06.33-15.9t.34-15q.39-16.77.67-33.43Z"/><path d="M266.25,205a132,132,0,0,1-2.16,25.62,80.12,80.12,0,0,1-5.7,18.34,45.88,45.88,0,0,1-8,12.26,39,39,0,0,1-9.05,7.28,31.63,31.63,0,0,1-8.91,3.5,37.8,37.8,0,0,1-7.57.91l-19.63-1.63q1.24-19.54,1.91-39.32t.67-39.89q0-15.23-.38-30.17T206.29,132c1.53-.12,3-.22,4.5-.28s2.91-.1,4.31-.1q15.9,0,25.86,5.41a39.3,39.3,0,0,1,15.57,15.14,66.09,66.09,0,0,1,7.66,23.17A197.25,197.25,0,0,1,266.25,205Zm-19.54-2.59c0-3.13-.07-6.46-.19-10s-.4-7.07-.82-10.58a82.79,82.79,0,0,0-1.86-10.25,47.28,47.28,0,0,0-3.26-9.14,26.62,26.62,0,0,0-4.93-7.14,16.48,16.48,0,0,0-7-4.22q-.59,10.55-1,20.55t-.72,19.78q-.28,9.77-.43,19.39t-.14,19.3v12.79q0,6.47.19,13.17a13.53,13.53,0,0,0,7.66-3.35,24.63,24.63,0,0,0,5.51-7.23,46.33,46.33,0,0,0,3.64-9.87,100.71,100.71,0,0,0,2.15-11.3q.76-5.79,1-11.45T246.71,202.4Z"/><path d="M325.06,236.21a50,50,0,0,1-1.58,13.27,37.41,37.41,0,0,1-4.12,9.77,27.52,27.52,0,0,1-5.7,6.7,29.63,29.63,0,0,1-12.79,6.33,26.7,26.7,0,0,1-5.22.62c-.76,0-1.82,0-3.16-.14a42.87,42.87,0,0,1-4.59-.63,56.92,56.92,0,0,1-5.7-1.39,43.28,43.28,0,0,1-6.56-2.54l1.05-24.13a35.22,35.22,0,0,0,10.1,6.42,22.82,22.82,0,0,0,7.52,1.62q5.94,0,9-4.31t3-11.2A28.42,28.42,0,0,0,304,226.3,44.2,44.2,0,0,0,296,214q-3.93-4.59-8.14-9.58a83.74,83.74,0,0,1-7.67-10.63,60.28,60.28,0,0,1-5.65-12.16,43.65,43.65,0,0,1-2.2-14.08A46.88,46.88,0,0,1,275,151a33.62,33.62,0,0,1,7-11.59,28.23,28.23,0,0,1,10.11-6.85,32.16,32.16,0,0,1,11.92-2.25,44.17,44.17,0,0,1,11.16,1.49,52.75,52.75,0,0,1,11.45,4.54l-1.82,24.14a24.06,24.06,0,0,0-5.22-5,25.49,25.49,0,0,0-5.27-2.82,21.28,21.28,0,0,0-4.7-1.25,28.27,28.27,0,0,0-3.59-.29,9.91,9.91,0,0,0-5.12,1.39,13,13,0,0,0-4,3.74,18.66,18.66,0,0,0-2.64,5.55,23.45,23.45,0,0,0-1,6.76,20.55,20.55,0,0,0,2.35,9.86,53.08,53.08,0,0,0,5.89,8.72q3.54,4.3,7.62,8.86a73.51,73.51,0,0,1,7.61,10.25,58.13,58.13,0,0,1,5.89,13A56,56,0,0,1,325.06,236.21Z"/><path class="cls-1" d="M66.42,149.11l-.5.44a9,9,0,0,1-1.32.93l-.63.42a4.35,4.35,0,0,1-1.4.39,6.72,6.72,0,0,1-1.65-.12,5.6,5.6,0,0,1-.63-.17,9,9,0,0,1-1.88-1.06,10.77,10.77,0,0,1-1.63-1.36,39.47,39.47,0,0,1-3.87-4.72c0-.11-.08-.18-.1-.23s0,0-.06,0a9.78,9.78,0,0,1-1.48-1.53,1.61,1.61,0,0,0-.71-.85.58.58,0,0,0-.36,0c-.13,0-.29-.23-.51-.81a10.48,10.48,0,0,1-.48-2.08,2.65,2.65,0,0,1,0-1.78,1,1,0,0,1,.22-.36.35.35,0,0,1,.29-.11q.18.08.33-1.2c.06-.38.11-.65.15-.82a1.11,1.11,0,0,1,0-.69c.05-.35.15-.82.3-1.44a8.33,8.33,0,0,0,.37-1,5.73,5.73,0,0,0,.19-.66.62.62,0,0,1,.26-.48,1.44,1.44,0,0,1,.81-.24.93.93,0,0,1,.42.06.61.61,0,0,1,.35.59,4.84,4.84,0,0,1-.21,1.47c-.17.67-.27,1.08-.31,1.25a33.65,33.65,0,0,0-.74,3.58,4.79,4.79,0,0,0-.05,1.87,5.18,5.18,0,0,0,.89,1.67,2.71,2.71,0,0,0,.54.8c.32.37.65.74,1,1.12a2.85,2.85,0,0,0,.21.31c.08.13.17.27.26.44.55.85.94,1.45,1.2,1.8s.44.5.54.47l.21-.3a3.46,3.46,0,0,0,.25-.39,2.25,2.25,0,0,1,.08-.81,4.71,4.71,0,0,0,.14-.71q.59-5.09.73-5.73a1,1,0,0,1,0-.56c.13-.35.48-.57,1.05-.67a.81.81,0,0,1,.36,0q.26.1.33.6a8.64,8.64,0,0,1,0,1.76c-.07.84-.16,1.85-.28,3l-.1,1a11.71,11.71,0,0,1-.57,3.15c-.23.61-.51.83-.83.69q-.26.22.39.9a10.71,10.71,0,0,0,1.69,1.37,9.3,9.3,0,0,0,1.84,1,1.83,1.83,0,0,0,.67.16,3.17,3.17,0,0,0,1.36-.23,3.48,3.48,0,0,0,1.15-1.08l.25-.49a6.11,6.11,0,0,0,.3-.7,3.42,3.42,0,0,0,.22-1.25,23.4,23.4,0,0,0,.39-2.77,8.88,8.88,0,0,0,0-1.47,1.35,1.35,0,0,1,0-.34.84.84,0,0,1,.06-.24l0,.05s0,0,0,0a2,2,0,0,0-.3-.71,6.49,6.49,0,0,1-.26-1.66c0-.67,0-1,.16-.95a.89.89,0,0,1,.32,0A2.35,2.35,0,0,1,67,138.92a7.9,7.9,0,0,1,.73,2.4,12.67,12.67,0,0,1-.1,3.62,19.49,19.49,0,0,1-.91,3.54C66.52,148.9,66.42,149.11,66.42,149.11Z"/><path class="cls-1" d="M71,136.56a.86.86,0,0,1-.78.49,2.74,2.74,0,0,1-1.36-.32,8.81,8.81,0,0,1-1.42-.86,4.67,4.67,0,0,0-1-.87,13.65,13.65,0,0,1-1.67-1.47c-.78-.77-1.25-1.24-1.39-1.42,0-.08,0-.17-.09-.28a1,1,0,0,0-.37-.28,1.69,1.69,0,0,1-.48-.34,1.15,1.15,0,0,1-.28-.39,1.46,1.46,0,0,1-.28-.22,1.77,1.77,0,0,0-.28-.21.63.63,0,0,1-.18-.17.63.63,0,0,0-.21-.18q-.66-.85-3.21-3.41a27.14,27.14,0,0,0-2.88-2.72.44.44,0,0,1-.24-.66.67.67,0,0,1,.07-.52l.66-.24a1,1,0,0,1,.53-.06,2.48,2.48,0,0,1,.66.23,2.6,2.6,0,0,1,.68.46c.17.17.51.56,1,1.15a5,5,0,0,1,.36.45c.14.17.31.38.52.62.08.08.35.39.81.92a3.36,3.36,0,0,0,.52.59,1.18,1.18,0,0,1,.3.27c.15.16.3.31.46.46s.65.77,1.27,1.46a12.92,12.92,0,0,0,1,1.08.65.65,0,0,1,.39.35c0,.06,0,.11.08.17a.91.91,0,0,0,.17.12,7,7,0,0,1,1.29,1.14l.7.64c1.06.92,1.84,1.59,2.34,2a6.2,6.2,0,0,0,1.34.88,6.44,6.44,0,0,1,.89.47.57.57,0,0,1,.2.38A1.26,1.26,0,0,1,71,136.56Z"/><path class="cls-1" d="M74.21,129.16a3.1,3.1,0,0,1-1,1.14,3.26,3.26,0,0,1-1.45.56,3.19,3.19,0,0,1-1.27,0,5.42,5.42,0,0,1-1.44-.54L68,129.7a6.29,6.29,0,0,1-1.77-1.79A9.2,9.2,0,0,1,65,125.4a5.93,5.93,0,0,1-.3-2.37,1.82,1.82,0,0,1,.14-1c.07-.13.15-.25.23-.37l.28-.38a3.55,3.55,0,0,1,.71-.81,1.61,1.61,0,0,1,.74-.3,2.46,2.46,0,0,1,2,.15A3.63,3.63,0,0,1,69.82,122a6.44,6.44,0,0,1,.44,2.52,4,4,0,0,1-.42,1.21,2.73,2.73,0,0,1-1.08,1.2,1.49,1.49,0,0,0-.29.34c-.09.17,0,.35.14.55a6.88,6.88,0,0,0,1.09.87,5,5,0,0,0,.54.31c.94.49,1.62.45,2-.13a4.79,4.79,0,0,0,.61-.84,1.78,1.78,0,0,0,.17-.86l0-.68a1.52,1.52,0,0,0-.06-.42l-.12-.38-.09-.26a.58.58,0,0,1-.06-.29.39.39,0,0,1,0-.2.43.43,0,0,1,.25-.19,1.87,1.87,0,0,0,.3-.13c.09-.16.22-.14.4.07a2.76,2.76,0,0,1,.49,1,6.29,6.29,0,0,1,.28,1.46A2.73,2.73,0,0,1,74.21,129.16Zm-5.81-6.32a1.51,1.51,0,0,0-.57-.91.8.8,0,0,0-.69,0,1.14,1.14,0,0,0-.58.57,2,2,0,0,0-.2.53,2.76,2.76,0,0,0,.11,1.22,9.22,9.22,0,0,0,.51,1.43q.3.64.42.6c.22,0,.49-.32.81-.95a3.38,3.38,0,0,0,.39-1.13A3.32,3.32,0,0,0,68.4,122.84Z"/><path class="cls-1" d="M74.86,111.67a1.49,1.49,0,0,1,.61.81c0,.1.13.28.23.54a6,6,0,0,0,.35.72,2.76,2.76,0,0,0,.52.64c.36.32,1.11,1.06,2.22,2.23l.87.92L81.05,119q3.4,3.71,3.32,5.29a2.08,2.08,0,0,1-.27.75A2.75,2.75,0,0,1,83,126a4.15,4.15,0,0,1-1.7.44,5,5,0,0,1-1.5-.2c-.65-.16-1-.32-1-.46a.26.26,0,0,1,.06-.22.83.83,0,0,1,.36-.33.64.64,0,0,1,.44-.1,4.28,4.28,0,0,0,1,0,1.52,1.52,0,0,0,.81-.2,2,2,0,0,0,.65-.59.86.86,0,0,0,.12-.55,3.64,3.64,0,0,0-.45-1.28,12.06,12.06,0,0,0-1.33-1.73l-.65-.69a36.35,36.35,0,0,1-2.47-2.77,5,5,0,0,1-.51-.67l.14.74c.07.33.12.66.16,1a4.57,4.57,0,0,1,0,1q.12.33-.33,1.08a4.35,4.35,0,0,1-.81,1,3.43,3.43,0,0,1-.87.42,4.72,4.72,0,0,1-1-.08,1.93,1.93,0,0,1-.73-.3,7.47,7.47,0,0,1-2.13-2,11,11,0,0,1-1.25-2.94,5.66,5.66,0,0,1-.26-2.75,1.66,1.66,0,0,1,.19-.69,2.39,2.39,0,0,1,.48-.54,2.3,2.3,0,0,1,.59-.56,8.35,8.35,0,0,1,1.1-.43,4.76,4.76,0,0,1,2-.07A1.56,1.56,0,0,1,74.86,111.67Zm-.78,2.88a4.92,4.92,0,0,0-1.32-1,1.79,1.79,0,0,0-.58-.21.37.37,0,0,0-.33.21,2.48,2.48,0,0,0-.23,1.46,7.5,7.5,0,0,0,.48,2,5.53,5.53,0,0,0,.87,1.44,5.91,5.91,0,0,0,1.49,1.34c.39.24.65.3.79.19a3.26,3.26,0,0,0,.44-1.8A6,6,0,0,0,75,116,4.35,4.35,0,0,0,74.08,114.55Z"/><path class="cls-1" d="M82,114.09c-.18,0-.3,0-.33,0a.84.84,0,0,0-.52-.18.45.45,0,0,1-.27-.11,5.49,5.49,0,0,1-1.1-1.38,24.2,24.2,0,0,1-1.39-2.54,3.44,3.44,0,0,0-.25-.77,2.5,2.5,0,0,1-.2-.63.34.34,0,0,1-.14-.21.29.29,0,0,1,0-.24l-.15-.11c-.16-.11-.32-.65-.51-1.63a9.5,9.5,0,0,1-.23-2.23,2.89,2.89,0,0,1,.49-1.6,1.56,1.56,0,0,1,.82-.6q.24,0,1.92-.39l1.51-.35.94,1.37a5,5,0,0,0,1.08,1.11,4.16,4.16,0,0,0,2.25.76,1.68,1.68,0,0,0,.9-.12,2.36,2.36,0,0,0,.85-.55.69.69,0,0,1,1-.16.68.68,0,0,1,.29.89,2.14,2.14,0,0,1-.19.33c-.72,1-2,1.36-4,1.08a3.4,3.4,0,0,1-.75-.13,3.44,3.44,0,0,1-.69-.21c.06.2.13.44.21.73a7.54,7.54,0,0,1,.18.77c.52,3.16.41,5.28-.35,6.34a2,2,0,0,1-.91.74A1.36,1.36,0,0,0,82,114.09Zm0-2.15a3.86,3.86,0,0,0,.22-.84,5.71,5.71,0,0,0,0-1.18,22.45,22.45,0,0,0-1-5.49l-.51-1.21a3,3,0,0,0-1.16,0,1.07,1.07,0,0,0-.6.34c-.25.36-.21,1.23.14,2.62a19.64,19.64,0,0,0,1.65,4.32,9.47,9.47,0,0,0,.59,1l.4.64Q81.85,112.24,82,111.94Z"/><path class="cls-1" d="M96.31,95.54a2,2,0,0,1-1.12-.05,7.47,7.47,0,0,1-1.71-1.07,1.74,1.74,0,0,1-.44-.5c0-.11-.12-.26-.34-.43l-.48-.39c-.38-.29-.65-.33-.83-.13a1.17,1.17,0,0,0-.23.62C91,95,90.81,96.1,90.69,97a20.84,20.84,0,0,0-.14,2.86A6.08,6.08,0,0,0,90.8,101c.09.27.16.46.19.57a.29.29,0,0,1-.06.28,1,1,0,0,1-.11.23.61.61,0,0,1-.37.17,2.11,2.11,0,0,1-.36.06l-.59,0a1.2,1.2,0,0,1-.52,0,11.38,11.38,0,0,1-1.42-1.9s0-.2-.11-.46a4.88,4.88,0,0,1-.25-.66,16.11,16.11,0,0,1-1.11-2A8.51,8.51,0,0,0,85.53,96a5.31,5.31,0,0,0-.8-1l0,0a.25.25,0,0,1-.09-.2.32.32,0,0,1,.06-.2.72.72,0,0,1,.14-.41,1.11,1.11,0,0,1,.9-.29,2,2,0,0,1,1.26.45,6,6,0,0,1,1.28,2.43l.31.61a1.75,1.75,0,0,0,.32.49l.22-2.1a8.62,8.62,0,0,1,.11-1.66,5.63,5.63,0,0,1,.36-1.69,3.59,3.59,0,0,1,.35-.94A1.85,1.85,0,0,1,91,91.05a2.72,2.72,0,0,1,1.21,0,1.43,1.43,0,0,0,.42.28,6,6,0,0,1,1.22.83,6.94,6.94,0,0,1,.72.71c.2.23.28.4.26.49l.09,0s.09,0,.13,0l.12.1q-.16.2.36.39a1.94,1.94,0,0,0,.94.14.89.89,0,0,1,.68.17c.19.16.21.42,0,.77A1.74,1.74,0,0,1,96.31,95.54Z"/><path class="cls-1" d="M100.35,92.6a3.11,3.11,0,0,1-1.24-.28.26.26,0,0,0-.14,0h-.15c-.1,0-.37-.19-.82-.63s-.71-.73-1.06-1.14a9.81,9.81,0,0,1-.79-1.06l-.79-1.56-.59-1.18-.71-1.87L93,85.47a.54.54,0,0,1-.41.11.59.59,0,0,1-.34-.14,1.12,1.12,0,0,1-.25-.62c0-.29,0-.47,0-.55a2.81,2.81,0,0,0,.37-.33,8.54,8.54,0,0,0,.91-1.07.74.74,0,0,0,0-.66c-.06-.18-.14-.39-.24-.65s-.19-.49-.26-.71-.12-.34-.21-.62-.18-.61-.27-1l-.13-.52a2.41,2.41,0,0,1-.07-.8.73.73,0,0,1,.22-.53,1.44,1.44,0,0,1,.86-.3l.29,0a.56.56,0,0,1,.28.12,1.5,1.5,0,0,1,.21.55c.09.27.16.51.22.73s.12.41.17.57c.12.47.22.81.29,1a1.25,1.25,0,0,0,.23.66c.11.1.25.06.44-.14a9.81,9.81,0,0,0,.89-1.18c.18-.23.3-.39.37-.46.51-.52,1-.6,1.48-.22a3.54,3.54,0,0,1,.33.28c.21.21.26.4.17.59a5.67,5.67,0,0,1-.86,1,13.82,13.82,0,0,1-1.32,1.58c-.09.09-.19.19-.29.31a3.13,3.13,0,0,0-.28.4.75.75,0,0,0-.12.39,1.59,1.59,0,0,0,.13.45,4.57,4.57,0,0,0,.21.81,12,12,0,0,1,.39,1.17,29.9,29.9,0,0,0,2.78,4.46c.21.26.34.42.4.48a.72.72,0,0,0,.69.24,2.22,2.22,0,0,0,.87-.63,6.59,6.59,0,0,0,1.13-1.47,10.79,10.79,0,0,0,.49-1.48c.06-.21.11-.4.15-.58s.07-.3.09-.37a.29.29,0,0,1,0-.29c.12-.12.34-.11.67,0a1.76,1.76,0,0,1,.47.76,3.12,3.12,0,0,1-.14,1.39,6.73,6.73,0,0,1-1.7,3.4,5.45,5.45,0,0,1-.72.6A2,2,0,0,1,100.35,92.6Z"/><path class="cls-1" d="M116,81.08l0-.09q-.19-.24-.63.06a4.43,4.43,0,0,1-1.57-.1,4.49,4.49,0,0,1-1.27-.46l-.5-.27a.18.18,0,0,1,0-.19c0-.08.06-.18.11-.29a.59.59,0,0,1,.22-.38.3.3,0,0,1,.27,0,3.23,3.23,0,0,1,.53.19,2.57,2.57,0,0,0,1.65,0,5.12,5.12,0,0,0,1.85-1,6.1,6.1,0,0,0,1.69-2.07,4.61,4.61,0,0,0,.51-1.27.94.94,0,0,0-.17-.8,1.66,1.66,0,0,0-.83-.49,1.47,1.47,0,0,0-.49-.19,4.94,4.94,0,0,0-.68-.07l-1-.09a7,7,0,0,1-1.11.25l-.71.17a9.39,9.39,0,0,1-2.33.21,6.25,6.25,0,0,1-2.16-.33,2.69,2.69,0,0,1-1.23-.45A4.65,4.65,0,0,1,107,72.36a4.42,4.42,0,0,1-.92-1.9,10.85,10.85,0,0,1-.18-2.86,12,12,0,0,1,.31-2.76l.14-1.11c0-.08,0-.14,0-.17l.06-.07a6.71,6.71,0,0,1,.33-.64,4.24,4.24,0,0,0,.41-1.39,32.42,32.42,0,0,1,1.74-3.29,6.63,6.63,0,0,1,1.38-1.68,3.43,3.43,0,0,1,2-.69,2.72,2.72,0,0,1,1.87.76,2.11,2.11,0,0,1,.4.4,4.62,4.62,0,0,1,.87,2.39,5.53,5.53,0,0,1-.25,2.63,3.59,3.59,0,0,1-.64,1,.3.3,0,0,1-.33.06,1,1,0,0,1-.35-.36,1.3,1.3,0,0,1-.24-.63,8.35,8.35,0,0,1,0-1.48,5.73,5.73,0,0,0-.72-2.94.48.48,0,0,0-.72-.15,5.83,5.83,0,0,0-1.25,1.2c-.62.71-.89,1.11-.83,1.19s0,0,.06.09,0,.08-.06.11a14.65,14.65,0,0,0-1,2.45,16,16,0,0,0-.83,2.56.63.63,0,0,1,0,.4,2,2,0,0,1-.2.53,3.74,3.74,0,0,0-.22,1.46,16.22,16.22,0,0,0,.24,2.2,5.09,5.09,0,0,0,.25,1.28,3,3,0,0,0,.52,1,1.79,1.79,0,0,0,.44.4,3.32,3.32,0,0,0,1.56.41,11,11,0,0,0,2.51-.12,22,22,0,0,1,3.18-.29,4.9,4.9,0,0,1,2,.29,3.7,3.7,0,0,1,1.94,1.28,2.82,2.82,0,0,1,.43.69,3.68,3.68,0,0,1,0,1.3,1.31,1.31,0,0,1-.41.94,1.94,1.94,0,0,0-.26.52,4,4,0,0,1-.17.39,4.87,4.87,0,0,1-1,1.3,14.46,14.46,0,0,1-1.82,1.55Z"/><path class="cls-1" d="M124.9,72.21a4.78,4.78,0,0,1-.77,0,3.07,3.07,0,0,1-2-1.07,1.32,1.32,0,0,1-.15-.27,1,1,0,0,0-.18-.41,1.91,1.91,0,0,1-.17-.22c-.12,0-.18,0-.2-.07a.11.11,0,0,1,0-.11.38.38,0,0,0,0-.15c.11-.07.08-.18-.09-.35a2.65,2.65,0,0,1-.41-1,7.61,7.61,0,0,1-.25-1.74,15.85,15.85,0,0,1,.05-1.73,8.39,8.39,0,0,1,.27-1.74,8.19,8.19,0,0,1,.56-1.55,5.35,5.35,0,0,1,.82-1.12A5.5,5.5,0,0,1,123,60a.79.79,0,0,1,.38-.13,3.33,3.33,0,0,1,.6.07,2.36,2.36,0,0,1,1.5.13,3.74,3.74,0,0,1,1.28,1.3,7.82,7.82,0,0,1,1.11,4.56,8.72,8.72,0,0,1-.22,2,11.28,11.28,0,0,1-.71,1.9,5.41,5.41,0,0,1-.61,1.23,4.17,4.17,0,0,1-.89.89A1.13,1.13,0,0,1,124.9,72.21Zm1.27-6.64a10.2,10.2,0,0,0-.36-2,5,5,0,0,0-.59-1.15c-.36-.51-.62-.76-.81-.73a1.31,1.31,0,0,0-.6.22,2.25,2.25,0,0,0-.83,1.32,8.08,8.08,0,0,0-.26,2.5,22.16,22.16,0,0,0,.38,3.16,2.79,2.79,0,0,0,.46,1.23,1.13,1.13,0,0,0,.61.49.82.82,0,0,0,.69-.13c.57-.39,1-1.34,1.21-2.87A10.84,10.84,0,0,0,126.17,65.57Z"/><path class="cls-1" d="M133.51,67.39a.87.87,0,0,1-.93,0,2.83,2.83,0,0,1-1-1,7.82,7.82,0,0,1-.7-1.5,4,4,0,0,0-.4-1.3,15.55,15.55,0,0,1-.57-2.16c-.22-1.06-.35-1.71-.37-1.94.07-.05.1-.14.08-.29a1,1,0,0,0-.15-.43,1.66,1.66,0,0,1-.21-.55,1.15,1.15,0,0,1,0-.48,1.66,1.66,0,0,1-.11-.34,1.23,1.23,0,0,0-.12-.33.73.73,0,0,1-.05-.24,1,1,0,0,0-.07-.27c-.06-.72-.32-2.26-.79-4.62a27,27,0,0,0-.89-3.85.44.44,0,0,1,.16-.69.7.7,0,0,1,.35-.39l.68.16a1.09,1.09,0,0,1,.48.24,3.49,3.49,0,0,1,.42.57,2.44,2.44,0,0,1,.31.75c.05.24.12.75.2,1.53a3.84,3.84,0,0,1,.06.56,7.12,7.12,0,0,0,.09.81c0,.11.07.52.16,1.22a3.56,3.56,0,0,0,.11.77,1.79,1.79,0,0,1,.1.4,4.7,4.7,0,0,0,.13.63q0,.55.24,1.92A10.59,10.59,0,0,0,131,58a.69.69,0,0,1,.13.5c-.06,0-.07.1,0,.19a1.35,1.35,0,0,0,.08.19,6.92,6.92,0,0,1,.44,1.67l.23.91c.37,1.36.65,2.35.84,3a7,7,0,0,0,.64,1.48,6.37,6.37,0,0,1,.48.87.51.51,0,0,1-.05.43A1,1,0,0,1,133.51,67.39Z"/><path class="cls-1" d="M141.77,60.2a2.28,2.28,0,0,1-.37-.54l-.31-.58a2,2,0,0,1-.2,1.07,5.29,5.29,0,0,1-.75,1.62,3.55,3.55,0,0,1-1.22,1.48,1.57,1.57,0,0,1-1.37,0,2.62,2.62,0,0,1-.86-.31,1.65,1.65,0,0,1-.58-.64,3.78,3.78,0,0,1-.28-.7,11.86,11.86,0,0,1-.77-2.1,17.29,17.29,0,0,1-.41-2.87c0-1.47,0-2.46,0-3a1,1,0,0,1,.33-.24.75.75,0,0,1,.54-.09.79.79,0,0,1,.44.33.53.53,0,0,1,.25.26,6.58,6.58,0,0,1,.4,2.69,13,13,0,0,0,.87,4.14c.21.38.44.55.7.5a.62.62,0,0,0,.35-.08,3,3,0,0,0,1.13-1.82,10.62,10.62,0,0,0,.21-4,7,7,0,0,0-.58-2.17,1.08,1.08,0,0,1-.16-.23,1,1,0,0,1,.06-1.06.94.94,0,0,1,.16-.42c.09-.14.18-.18.26-.12L140,51c0-.05.13,0,.25.06a.51.51,0,0,0,.29.14.91.91,0,0,1,.52.5,9.43,9.43,0,0,1,.71,3.2A14,14,0,0,0,142,57a5.1,5.1,0,0,0,.41,1.25,2.48,2.48,0,0,0,1.73,1.29.91.91,0,0,1,.56.23,2.68,2.68,0,0,1,.35.59.7.7,0,0,1-.1.57,1.25,1.25,0,0,1-.48.46,1.18,1.18,0,0,1-.73.15A4.4,4.4,0,0,1,141.77,60.2Z"/><path class="cls-1" d="M148.13,58.57a3.19,3.19,0,0,1-1.06-.7s0-.07-.11-.1l-.13-.06c-.1,0-.29-.31-.55-.88s-.4-.94-.58-1.45a8.65,8.65,0,0,1-.36-1.27l-.19-1.74L145,51.06v-2l-1.27.21a.52.52,0,0,1-.42,0,.57.57,0,0,1-.27-.26,1.08,1.08,0,0,1,0-.66c.06-.29.14-.46.24-.5a2.68,2.68,0,0,0,.46-.18A8.38,8.38,0,0,0,145,47a.78.78,0,0,0,.18-.64c0-.19,0-.42,0-.69s0-.53,0-.76,0-.36,0-.65,0-.63.09-1c0-.07,0-.25.07-.53a2.21,2.21,0,0,1,.22-.77.68.68,0,0,1,.39-.42,1.48,1.48,0,0,1,.91,0l.26.16a.5.5,0,0,1,.22.21,1.55,1.55,0,0,1,0,.58c0,.28,0,.54,0,.76s0,.43-.06.59c-.05.49-.08.84-.09,1.08a1.24,1.24,0,0,0,0,.69c.06.13.22.14.46,0a8.82,8.82,0,0,0,1.25-.78c.25-.16.42-.26.52-.31.66-.3,1.14-.2,1.45.33a2.59,2.59,0,0,1,.21.38c.12.26.11.46-.05.6a5.21,5.21,0,0,1-1.16.64,13.06,13.06,0,0,1-1.8,1l-.38.19a3.12,3.12,0,0,0-.4.27.68.68,0,0,0-.25.32,1.51,1.51,0,0,0,0,.47,5.58,5.58,0,0,0-.1.83c0,.67,0,1.08-.05,1.23a30.56,30.56,0,0,0,1,5.16,4.35,4.35,0,0,0,.21.59.69.69,0,0,0,.55.47,2.26,2.26,0,0,0,1-.28,6.49,6.49,0,0,0,1.58-1,11.93,11.93,0,0,0,1-1.21c.13-.17.24-.33.34-.48l.21-.32c0-.14.05-.23.12-.26s.36,0,.61.27a1.75,1.75,0,0,1,.17.88,3,3,0,0,1-.63,1.25,6.62,6.62,0,0,1-2.8,2.56,4.11,4.11,0,0,1-.89.31A2,2,0,0,1,148.13,58.57Z"/><path class="cls-1" d="M154,41.4c-.23-.29-.29-.46-.2-.49s.26-.33.34-.73a1.42,1.42,0,0,0-.05-.9.36.36,0,0,1,0-.25.48.48,0,0,1,.15-.22.85.85,0,0,1,.35-.3,1.21,1.21,0,0,1,1.17.33,1.54,1.54,0,0,1,.44.6,1.14,1.14,0,0,1,.07.59A4.49,4.49,0,0,1,156,41c-.15.57-.37.92-.66,1a1.16,1.16,0,0,1-.75,0A1.75,1.75,0,0,1,154,41.4Zm1.68,12.43a1.63,1.63,0,0,1-.14-.75,1.58,1.58,0,0,1-.08-.37.94.94,0,0,0-.05-.29,3.74,3.74,0,0,1-.15-1.05,40.1,40.1,0,0,0-.25-4.63.33.33,0,0,1,0-.29.64.64,0,0,1,.29-.27,1.61,1.61,0,0,1,.3-.19.43.43,0,0,1,.35,0,3.22,3.22,0,0,1,.55.33.77.77,0,0,1,.39.45,3.42,3.42,0,0,1,.16,1.48,6.87,6.87,0,0,0,.09,1.65,14.75,14.75,0,0,0,0,1.66c0,.13,0,.39.11.77a2.82,2.82,0,0,1,0,1,6.29,6.29,0,0,1,.14,1.26c0,.25-.07.4-.19.45s-.37,0-.71-.19A1.67,1.67,0,0,1,155.66,53.83Z"/><path class="cls-1" d="M163,52.82a4.57,4.57,0,0,1-.74-.24A3.06,3.06,0,0,1,160.68,51a1,1,0,0,1-.07-.31,1.07,1.07,0,0,0-.07-.44,2.24,2.24,0,0,1-.11-.26c-.1-.05-.16-.09-.17-.12s0-.06,0-.11a.5.5,0,0,0,.05-.13c.12,0,.12-.16,0-.36a2.47,2.47,0,0,1-.13-1.13,7.53,7.53,0,0,1,.23-1.74,13.81,13.81,0,0,1,.5-1.66,8.54,8.54,0,0,1,.72-1.6,6.66,6.66,0,0,1,1-1.35A5.21,5.21,0,0,1,163.7,41a4.68,4.68,0,0,1,.75-.42.61.61,0,0,1,.4,0,2.7,2.7,0,0,1,.56.22,2.32,2.32,0,0,1,1.41.52,3.83,3.83,0,0,1,.9,1.58,7.85,7.85,0,0,1-.14,4.7,9.15,9.15,0,0,1-.75,1.92,12.89,12.89,0,0,1-1.18,1.65,5.24,5.24,0,0,1-.92,1,3.7,3.7,0,0,1-1.09.62A1.22,1.22,0,0,1,163,52.82Zm3-6.07a9.51,9.51,0,0,0,.19-2.08,4.49,4.49,0,0,0-.26-1.26c-.21-.59-.4-.89-.58-.92a1.35,1.35,0,0,0-.64.06,2.29,2.29,0,0,0-1.16,1.05,8.65,8.65,0,0,0-.91,2.35,22.32,22.32,0,0,0-.46,3.14,2.82,2.82,0,0,0,.12,1.31,1.1,1.1,0,0,0,.46.63.78.78,0,0,0,.7.06c.65-.22,1.29-1,1.93-2.45A11.37,11.37,0,0,0,166,46.75Z"/><path class="cls-1" d="M181.12,46.41a2,2,0,0,1-.89-.69,7.54,7.54,0,0,1-.77-1.86,1.76,1.76,0,0,1-.08-.65.79.79,0,0,0,0-.56c-.08-.27-.13-.46-.17-.58-.14-.46-.34-.66-.6-.59a1.24,1.24,0,0,0-.55.37c-.94,1-1.73,1.85-2.36,2.55a19.88,19.88,0,0,0-1.76,2.27,5.77,5.77,0,0,0-.42,1,5.67,5.67,0,0,1-.17.57.27.27,0,0,1-.2.2,1,1,0,0,1-.23.12.57.57,0,0,1-.4-.07l-.33-.15-.5-.31a1.2,1.2,0,0,1-.41-.33,8.53,8.53,0,0,1-.1-1.16,6.27,6.27,0,0,1,0-1.2c.06,0,.12-.17.17-.45a5.79,5.79,0,0,1,.18-.68,15.26,15.26,0,0,1,.24-2.28,7.46,7.46,0,0,0,.28-1.36,6,6,0,0,0-.09-1.27l0-.06a.25.25,0,0,1,0-.22.36.36,0,0,1,.16-.12.7.7,0,0,1,.35-.25,1.06,1.06,0,0,1,.91.28,1.92,1.92,0,0,1,.77,1.08,6,6,0,0,1-.35,2.74c0,.15,0,.38-.1.67a1.67,1.67,0,0,0,0,.58l1.39-1.58a8.07,8.07,0,0,1,1-1.31A6.17,6.17,0,0,1,177.41,40a4,4,0,0,1,.82-.57,1.87,1.87,0,0,1,1.12.29,2.6,2.6,0,0,1,1,.71,1.44,1.44,0,0,0,.19.47,5.94,5.94,0,0,1,.52,1.38,6.85,6.85,0,0,1,.18,1c0,.3,0,.49-.07.55l.06.08s.07,0,.13,0l0,.15c-.16,0-.13.22.08.53a2,2,0,0,0,.69.66.88.88,0,0,1,.45.52c.07.24-.07.46-.4.66A1.94,1.94,0,0,1,181.12,46.41Z"/><path class="cls-1" d="M185.7,46.79a3,3,0,0,1-.84-.6s0-.11,0-.21a.21.21,0,0,1,.06-.22.85.85,0,0,1,.32-.1,16.12,16.12,0,0,1,1.68-.19,7.75,7.75,0,0,0,1.5-.45c.56-.21.85-.4.89-.55s.09,0,.08,0-.11-.13-.3-.26a.8.8,0,0,1-.3-.06l-.29-.06c0-.08-.13-.17-.34-.27a3.54,3.54,0,0,0-.67-.24c-.69-.38-1.17-.66-1.46-.85s-.41-.35-.37-.46l0-.15c-.14,0-.34-.15-.58-.51a2.8,2.8,0,0,1-.47-1.08,4,4,0,0,1,.19-1.62,6,6,0,0,1,.8-1.79A17.13,17.13,0,0,1,187.44,35a10.13,10.13,0,0,1,2-1.54,2.77,2.77,0,0,1,1-.4,1.56,1.56,0,0,1,.87.06,3.51,3.51,0,0,1,.91.56,2.85,2.85,0,0,1,.66.74,6.68,6.68,0,0,1,.1,1.33c0,.43-.12.67-.3.7a.21.21,0,0,0-.09,0,.19.19,0,0,0,0,.16.71.71,0,0,1-.06.35,1.74,1.74,0,0,1-.27.44,2.21,2.21,0,0,1-1,.7.43.43,0,0,1-.5-.26,1.2,1.2,0,0,1-.15-.16c-.06-.08-.12-.11-.18-.1s-.06,0-.12-.09a.43.43,0,0,1-.13-.27.31.31,0,0,1,0-.22.47.47,0,0,1,.08-.15c.12,0,.28-.3.48-.84a2.58,2.58,0,0,0,.25-1,.35.35,0,0,0-.08-.21.86.86,0,0,0-.3,0A13.37,13.37,0,0,0,187.89,37l-.09.27a.24.24,0,0,1-.16.09c0-.19-.45.61-1.24,2.38a1,1,0,0,0-.07.39,2.25,2.25,0,0,0,0,.54,1.61,1.61,0,0,0,0,.29.34.34,0,0,0,.15.22,2,2,0,0,0,.34.21l.42.22c1.21.61,2.06,1.07,2.55,1.39a2.77,2.77,0,0,1,.94.86,2.11,2.11,0,0,1,.6,1,.91.91,0,0,1-.16.69,2.71,2.71,0,0,1-.73.68,4.78,4.78,0,0,1-1.09.47,11.21,11.21,0,0,1-1.54.39,8.48,8.48,0,0,1-.93.11A4.38,4.38,0,0,1,185.7,46.79Z"/><path class="cls-1" d="M218.2,26.15a.23.23,0,0,1-.06.2.33.33,0,0,1-.17.12l-.12.07a3.67,3.67,0,0,1-1.1.29,2.31,2.31,0,0,1-.73-.11,1.72,1.72,0,0,0-.77-.36,10.68,10.68,0,0,0-1.82-.11c-.6.1-1.12.16-1.58.19a6.76,6.76,0,0,1-.59,2.1,4.73,4.73,0,0,1-.28,1.08,2,2,0,0,0-.14.72,14.69,14.69,0,0,0-.5,1.61c-.27,1-.52,1.94-.76,2.87-.17.66-.29,1.14-.38,1.43a10,10,0,0,0-.33,1c-.13.45-.22.77-.27,1L208,40.42a11.54,11.54,0,0,0-.52,1.52c-.2.68-.35,1.3-.47,1.85l-.24,1.11c-.08.38-.15.66-.21.86a.86.86,0,0,1-.16.32.77.77,0,0,1-.31,0c-.16,0-.35-.11-.56-.36a1.29,1.29,0,0,1-.35-.74,10.19,10.19,0,0,1,.34-2.34,23.33,23.33,0,0,1,.76-2.64c.07-.37.12-.68.18-.91a3.72,3.72,0,0,0,.11-.51,3,3,0,0,0,.26-.69,10.37,10.37,0,0,0,.26-1c0-.37.56-2.5,1.55-6.37l.18-.67a6.29,6.29,0,0,0,.46-1.21.74.74,0,0,0,.2-.67.48.48,0,0,1,.1-.25c.06-.11.1-.19.09-.23a.87.87,0,0,0,.13-.3.8.8,0,0,1,.18-.37v0l-.49.06-1.52.25-.68.1c-1.19.18-1.89.29-2.07.34a3.32,3.32,0,0,1-1.33,0,.46.46,0,0,1-.3-.6.94.94,0,0,1,.35-.59,2.46,2.46,0,0,1,.91-.33c.18-.06.54-.14,1.07-.26l.83-.2,1.05-.19a34.9,34.9,0,0,1,3.81-.61c.56,0,1-.11,1.41-.16l.76-.13c.29,0,.76,0,1.42.07a7.86,7.86,0,0,1,1.44.19,2.31,2.31,0,0,1,1,.38,1.65,1.65,0,0,1,.54.78A1.11,1.11,0,0,1,218.2,26.15Z"/><path class="cls-1" d="M215.08,43.82a5.07,5.07,0,0,1-.63-.46,3.09,3.09,0,0,1-1.06-2,1.14,1.14,0,0,1,0-.31,1,1,0,0,0,.07-.44c0-.14,0-.23,0-.28s-.13-.13-.13-.17a.12.12,0,0,1,.06-.09.31.31,0,0,0,.09-.11c.13,0,.17-.12.12-.35a2.71,2.71,0,0,1,.24-1.11,7.41,7.41,0,0,1,.75-1.58,13.72,13.72,0,0,1,1-1.42,8.86,8.86,0,0,1,1.18-1.3,7.77,7.77,0,0,1,1.32-1,5.3,5.3,0,0,1,1.3-.49,5.39,5.39,0,0,1,.84-.17.77.77,0,0,1,.4.11,2.8,2.8,0,0,1,.45.38,2.42,2.42,0,0,1,1.19.93,3.8,3.8,0,0,1,.35,1.79A7.75,7.75,0,0,1,221,40.2a8.63,8.63,0,0,1-1.31,1.6A12.86,12.86,0,0,1,218.1,43a5.44,5.44,0,0,1-1.19.69,3.89,3.89,0,0,1-1.23.25A1.17,1.17,0,0,1,215.08,43.82ZM219.79,39a10,10,0,0,0,.83-1.91,4.46,4.46,0,0,0,.13-1.28c0-.63-.1-1-.26-1.06a1.31,1.31,0,0,0-.63-.14,2.23,2.23,0,0,0-1.42.64,8.3,8.3,0,0,0-1.59,1.94A22.19,22.19,0,0,0,215.43,40a2.93,2.93,0,0,0-.29,1.28,1.13,1.13,0,0,0,.24.75.83.83,0,0,0,.65.27c.68,0,1.55-.59,2.59-1.73A10.42,10.42,0,0,0,219.79,39Z"/><path class="cls-1" d="M233.63,46.27a3.05,3.05,0,0,1-.83-1.54,9.62,9.62,0,0,1-.1-3.34,18.3,18.3,0,0,1,.59-3.09,13.16,13.16,0,0,1,1.06-2.52l.36-.62a18,18,0,0,1,.91-1.58,19.59,19.59,0,0,1,2.23-2.9,32,32,0,0,1,2.18-2.4,9,9,0,0,1,1.47-1.15c.46-.28,1.31-.74,2.54-1.39a2.77,2.77,0,0,1,1.7-.33,2.87,2.87,0,0,1,1.4.56,2.51,2.51,0,0,1,.87,1.22,3.16,3.16,0,0,1,.15,1.62,7.8,7.8,0,0,1-1,2.84,6.51,6.51,0,0,1-1.87,2.19.93.93,0,0,1-.62.21,1.58,1.58,0,0,1-.84-.61c-.14-.37-.22-.59-.23-.65s0-.1.14-.11a10.93,10.93,0,0,0,1-1.22,10,10,0,0,0,.91-1.44,3.9,3.9,0,0,0,.2-.61,8.24,8.24,0,0,0,.42-1.42.85.85,0,0,0-.14-.62.39.39,0,0,0-.24-.12,2.33,2.33,0,0,0-.9.21,6.77,6.77,0,0,0-2.06,1.16,17.45,17.45,0,0,0-2.36,2.1c-1.1,1.13-2,2.06-2.55,2.8a11.29,11.29,0,0,0-1.46,2.31l-.44.76a1.8,1.8,0,0,1-.16.61,4.24,4.24,0,0,1-.38.77,15.25,15.25,0,0,0-.86,3.51,10.15,10.15,0,0,0,0,2.38,2.55,2.55,0,0,0,.49,1.47,1.15,1.15,0,0,0,.72.31,4.82,4.82,0,0,0,1.57-.13c.63-.13,1.42-.34,2.35-.62a9.63,9.63,0,0,0,1.43-.49,5,5,0,0,0,1-.57,2.55,2.55,0,0,1,1.37-.43,2,2,0,0,1,.48-.07.09.09,0,0,1,.07.09,1.56,1.56,0,0,1,0,.2,1.46,1.46,0,0,1-.58.89,5.68,5.68,0,0,1-1.35.83,4.5,4.5,0,0,1-1.6.78,12.62,12.62,0,0,1-2.46,1,6.33,6.33,0,0,1-2.47.26,3.75,3.75,0,0,1-.61-.13A6.57,6.57,0,0,1,233.63,46.27Z"/><path class="cls-1" d="M247.61,46.83a4.22,4.22,0,0,1-.52-.58,3.09,3.09,0,0,1-.62-2.16.94.94,0,0,1,.1-.3,1,1,0,0,0,.16-.41c0-.15,0-.24,0-.28s-.1-.16-.09-.19a.13.13,0,0,1,.08-.08.2.2,0,0,0,.11-.09c.13,0,.19-.08.19-.31a2.72,2.72,0,0,1,.47-1A7.43,7.43,0,0,1,248.6,40a14.76,14.76,0,0,1,1.27-1.17,9.4,9.4,0,0,1,1.43-1,7.52,7.52,0,0,1,1.51-.68,5.46,5.46,0,0,1,1.37-.2,4.08,4.08,0,0,1,.86,0,.69.69,0,0,1,.36.18,2.83,2.83,0,0,1,.37.47,2.35,2.35,0,0,1,1,1.16,3.76,3.76,0,0,1,0,1.83,7.89,7.89,0,0,1-2.49,4,8.77,8.77,0,0,1-1.62,1.28,12.18,12.18,0,0,1-1.86.81,5.11,5.11,0,0,1-1.3.42,3.81,3.81,0,0,1-1.26,0A1.17,1.17,0,0,1,247.61,46.83Zm5.63-3.73a10.17,10.17,0,0,0,1.22-1.69,4.48,4.48,0,0,0,.4-1.22c.13-.62.11-1,0-1.09a1.35,1.35,0,0,0-.58-.28,2.28,2.28,0,0,0-1.53.33,8.34,8.34,0,0,0-2,1.56,22.33,22.33,0,0,0-2,2.47,3,3,0,0,0-.56,1.19,1.11,1.11,0,0,0,.08.78.78.78,0,0,0,.57.41c.67.13,1.64-.25,2.9-1.14A10.61,10.61,0,0,0,253.24,43.1Z"/><path class="cls-1" d="M269.6,51.05a3.83,3.83,0,0,1,.18-2l.44-1.37a2,2,0,0,0,.1-.52c0-.11,0-.18-.12-.2a4.49,4.49,0,0,0-2,.53A25.36,25.36,0,0,0,265,49.15l-.53.32a2.5,2.5,0,0,1-.58.28.72.72,0,0,1-.43,0,.78.78,0,0,1-.45-.36l-.25-.36a.6.6,0,0,1-.09-.48l.14-.26,1.27-1.77c.74-.89,1.19-1.45,1.35-1.7s.18-.37.08-.38a2.66,2.66,0,0,0-.84.06,1.42,1.42,0,0,0-.74.32,1.65,1.65,0,0,0-.48.2,4.4,4.4,0,0,1-.7.3,16,16,0,0,1-1.73,1l-.92.47a9.35,9.35,0,0,0-1.69,1.1,2.53,2.53,0,0,1-.64.4,1.14,1.14,0,0,1-.9-1.24,1.17,1.17,0,0,1,.05-.6,10.27,10.27,0,0,1,.94-1.87c.37-.63.6-1,.66-1.17l.33-.56a4.62,4.62,0,0,1,.54-.84c.25-.32.65-.82,1.22-1.5a4.41,4.41,0,0,0,.67-1.17.76.76,0,0,1,.45-.53,1,1,0,0,1,1.28.49,1.31,1.31,0,0,1,0,1,2.8,2.8,0,0,1-.55,1l-.57.71a16.75,16.75,0,0,0-1.06,1.36,8.43,8.43,0,0,0-.72,1.08c0,.06.07.07.22,0s.32-.13.52-.22a5.33,5.33,0,0,1,.79-.35,14.37,14.37,0,0,1,2.61-1,9.55,9.55,0,0,1,2.19-.43,1.33,1.33,0,0,1,.55.28,1.8,1.8,0,0,1,.33.48c.11.22.19.38.25.48a1.13,1.13,0,0,1,0,.86,1.74,1.74,0,0,1-.18.37c-.16.26-.36.56-.61.92s-.42.63-.54.79l.94-.41,1.23-.55a4.64,4.64,0,0,1,2.7-.47,1.35,1.35,0,0,1,.89,1,1.2,1.2,0,0,1,.16.65,3.6,3.6,0,0,1-.16.78c-.09.32-.17.57-.22.75a5.62,5.62,0,0,1-.18.73c0,.16-.09.48-.2,1a2.06,2.06,0,0,0-.09.82c.06.14.37.35.92.62.34.17.47.38.4.64s-.24.32-.55.42a1.83,1.83,0,0,1-1,0,2.55,2.55,0,0,1-.93-.47A1.77,1.77,0,0,1,269.6,51.05Z"/><path class="cls-1" d="M268.58,60.45a.46.46,0,0,1-.27-.41.89.89,0,0,1,.05-.55,8.16,8.16,0,0,1,.53-.92,8.67,8.67,0,0,0,1-1.56,2,2,0,0,1,.23-.4c.11-.17.2-.33.28-.47a2.74,2.74,0,0,0,.46-.54,4,4,0,0,0,.4-.7.67.67,0,0,1,.23-.3,1,1,0,0,1,.37-.2,2.41,2.41,0,0,1,.29-.51c.16-.21.26-.37.32-.46A41.21,41.21,0,0,1,275,50.16q2.15-2.53,3.54-4.07a8.86,8.86,0,0,0,1-1.15,4.58,4.58,0,0,0,.52-.9.37.37,0,0,1,.16-.19,2.15,2.15,0,0,1,.35-.18.6.6,0,0,1,.46-.05.68.68,0,0,1,.28.24c.08.12.16.26.24.4a2.76,2.76,0,0,1,.08.6,1.21,1.21,0,0,1-.09.53,5.14,5.14,0,0,1-.27.53,1.86,1.86,0,0,1-.66.9c-.28.19-.39.29-.34.28a6,6,0,0,1,2.56.31,2.57,2.57,0,0,1,1.59,1.53,3.19,3.19,0,0,1-.12,2.3,3.67,3.67,0,0,1-.8,1.14,2.82,2.82,0,0,1-1,.76c-.11,0-.35.1-.7.43a5,5,0,0,1-1.63.48c-.71.11-1.17.09-1.37-.08h-.1a.18.18,0,0,0-.12.12c0,.08-.41.1-1.15.05a5.58,5.58,0,0,1-1.75-.32,2.18,2.18,0,0,1-.51-.25,1,1,0,0,1-.27-.32.59.59,0,0,0-.35.29,4.83,4.83,0,0,1-.75,1c-.41.49-.68.71-.8.66l-.11.09c-.06,0-.06.12,0,.23s-.09.19-.19.39a1.16,1.16,0,0,1-.34.44,5.25,5.25,0,0,1-.36.68,3.45,3.45,0,0,1-.48.6,2.27,2.27,0,0,1-.37.64c-.15.2-.27.28-.34.25s-.3.25-.51.77a2.4,2.4,0,0,1-.73,1,.8.8,0,0,1-.77.17Zm9.5-8a6.5,6.5,0,0,0,2.19-.17,5.26,5.26,0,0,0,1.42-.72,2.4,2.4,0,0,0,.86-1.06,1.51,1.51,0,0,0,.06-.94A.81.81,0,0,0,282,49a3.41,3.41,0,0,0-1.53-.13,6.14,6.14,0,0,0-1.89.49,5.14,5.14,0,0,0-1.52,1.13,4.69,4.69,0,0,0-1,1.37c-.09.21-.07.34,0,.39A8,8,0,0,0,278.08,52.45Z"/><path class="cls-1" d="M283.72,59.19a.84.84,0,0,1-.5-.77,2.75,2.75,0,0,1,.31-1.37,9.18,9.18,0,0,1,.85-1.43,4.34,4.34,0,0,0,.86-1,14.75,14.75,0,0,1,1.46-1.68c.76-.78,1.23-1.25,1.41-1.4.07,0,.17,0,.28-.09a1.14,1.14,0,0,0,.27-.37,1.69,1.69,0,0,1,.34-.48,1.21,1.21,0,0,1,.39-.29,1,1,0,0,1,.21-.28,1.29,1.29,0,0,0,.21-.28.63.63,0,0,1,.17-.18.77.77,0,0,0,.18-.21q.85-.68,3.39-3.24a28.62,28.62,0,0,0,2.69-2.9.44.44,0,0,1,.66-.25.68.68,0,0,1,.52.07l.24.66a1,1,0,0,1,.07.52,3.12,3.12,0,0,1-.23.67,2.36,2.36,0,0,1-.45.68c-.17.18-.55.52-1.15,1-.12.11-.26.23-.44.37s-.38.31-.61.52l-.92.82a3.54,3.54,0,0,0-.58.52,1.49,1.49,0,0,1-.28.31c-.15.14-.3.3-.45.46s-.77.66-1.45,1.28a11,11,0,0,0-1.07,1,.65.65,0,0,1-.35.39c-.05,0-.11,0-.17.08a1.11,1.11,0,0,0-.11.17,7.91,7.91,0,0,1-1.14,1.3l-.63.71c-.92,1.06-1.58,1.85-2,2.35a7.51,7.51,0,0,0-.87,1.35,6,6,0,0,1-.45.89.5.5,0,0,1-.38.2A.86.86,0,0,1,283.72,59.19Z"/><path class="cls-1" d="M291.11,62.35a3.07,3.07,0,0,1-1.14-1,3.29,3.29,0,0,1-.58-1.45,3.39,3.39,0,0,1,0-1.27,5.35,5.35,0,0,1,.53-1.44c.09-.19.3-.55.62-1.08a6.17,6.17,0,0,1,1.78-1.79,9.09,9.09,0,0,1,2.5-1.23,5.91,5.91,0,0,1,2.36-.31,1.72,1.72,0,0,1,.95.14,2.77,2.77,0,0,1,.37.22l.39.27a3.55,3.55,0,0,1,.81.71,1.69,1.69,0,0,1,.31.74,2.5,2.5,0,0,1-.13,2,3.71,3.71,0,0,1-1.65,1.09,6.43,6.43,0,0,1-2.51.46,4.18,4.18,0,0,1-1.22-.41,2.66,2.66,0,0,1-1.2-1.07,1.8,1.8,0,0,0-.35-.29.49.49,0,0,0-.55.15,6.82,6.82,0,0,0-.86,1.1c-.08.12-.18.3-.31.54-.48.94-.43,1.62.15,2a5.16,5.16,0,0,0,.85.61,1.79,1.79,0,0,0,.86.16l.68,0a1.23,1.23,0,0,0,.42-.07l.38-.12.26-.1a.88.88,0,0,1,.29-.06l.2.05a.45.45,0,0,1,.19.26,1.69,1.69,0,0,0,.13.29c.16.09.14.22-.07.41a2.87,2.87,0,0,1-1,.49,6.3,6.3,0,0,1-1.46.29A2.75,2.75,0,0,1,291.11,62.35Zm6.28-5.86a1.56,1.56,0,0,0,.91-.58.8.8,0,0,0,0-.69,1.11,1.11,0,0,0-.58-.57,1.66,1.66,0,0,0-.52-.2,2.79,2.79,0,0,0-1.22.12,9.93,9.93,0,0,0-1.43.52c-.43.2-.63.34-.6.43s.33.48,1,.8a3.08,3.08,0,0,0,1.14.37A3.27,3.27,0,0,0,297.39,56.49Z"/><path class="cls-1" d="M303.73,69.74a1.56,1.56,0,0,1-.34-.31c-.12-.15-.24-.3-.36-.47a8.35,8.35,0,0,1-.93-2.15c-.35-1-.45-1.68-.33-1.9a.13.13,0,0,0,0-.12.19.19,0,0,0-.09-.09.91.91,0,0,1,0-.16.37.37,0,0,1,0-.23.29.29,0,0,0,0-.24.34.34,0,0,0-.14-.19l-.85.14c-.43.07-.88.17-1.37.29-.91.23-1.53.38-1.85.44a1.11,1.11,0,0,1-.68,0,1.53,1.53,0,0,1-.54-.78,1,1,0,0,1,0-.9c.16-.07.54-.19,1.13-.36s1.21-.3,1.83-.42L302,61.6l.31-1.19a17.35,17.35,0,0,1,.31-2.1,3.66,3.66,0,0,1,0-.52.58.58,0,0,1,.05-.31,1.23,1.23,0,0,1,.46-.27,1,1,0,0,1,.63,0,1,1,0,0,1,.28.39c.14.08.19.52.15,1.3a4.35,4.35,0,0,1-.27,1.53c-.14.23-.13.39,0,.49a3.26,3.26,0,0,0,1.35.11,7.36,7.36,0,0,0,.74-.18l.37-.1c.31,0,.79-.08,1.43-.13a8.93,8.93,0,0,1,1.21-.05.54.54,0,0,1,.26.05,1,1,0,0,1,.41.72,1.31,1.31,0,0,1-.13.89.89.89,0,0,1-.47.42,3.41,3.41,0,0,1-1,.07l-1.2.12c-.66.06-1.52.18-2.57.36l-1,.15v1a2.76,2.76,0,0,0,.11,1.4,6.53,6.53,0,0,0,.5,1.57,5.48,5.48,0,0,0,.57,1.21.68.68,0,0,1,.19.26,2,2,0,0,0,.21.34,1.17,1.17,0,0,1-.1.91c-.17.29-.37.37-.58.24S303.76,69.9,303.73,69.74Z"/><path class="cls-1" d="M310.49,76.51a1.16,1.16,0,0,1-.06-.42.69.69,0,0,1,.15-.6,17.61,17.61,0,0,1,3.15-2.33c.47-.38.93-.72,1.4-1a2.56,2.56,0,0,0,.68-.53,2.35,2.35,0,0,1,.42-.41,2.71,2.71,0,0,0,.33-.31c.2.15.64,0,1.33-.59l.66-.5a3.59,3.59,0,0,0,.41-.33,1.2,1.2,0,0,0,.28-.14l.32-.18a11.4,11.4,0,0,1,1.35-.77c.77-.59,1.6-1.19,2.5-1.79a23,23,0,0,1,2.08-1.29l.87-.51.33-.2a1.39,1.39,0,0,0,.33-.24.23.23,0,0,0,0-.21.32.32,0,0,1,.06-.34,1.79,1.79,0,0,1,1.24-.38,2.13,2.13,0,0,1,.88-.09,1.57,1.57,0,0,1,.67.34l.75.65c.18.17.7.59,1.56,1.25.12.22.27.47.45.74.37.55.52.85.47.92a.22.22,0,0,0,0,.24.71.71,0,0,0,.2.27,1.89,1.89,0,0,1,.34,1.16,5.34,5.34,0,0,1-.08,1.76c-.09.36-.17.64-.25.86a2.19,2.19,0,0,1-.38.67,3.6,3.6,0,0,1-.5.55c-.24.24-.48.46-.72.67a1.4,1.4,0,0,1-.53.34c-.42,0-.68.06-.8.21a3.82,3.82,0,0,1-1.43.55,13.73,13.73,0,0,1-2.26.46,8.91,8.91,0,0,1-2.54.12c-2.61-.62-4.3-1.25-5-1.88a5.56,5.56,0,0,0-1.13-.54.81.81,0,0,0-.58.2c-.25.15-.5.31-.75.49a3,3,0,0,0-.46.35c-.23.11-.92.55-2.06,1.32s-2,1.38-2.47,1.8a.87.87,0,0,1-.53.22,1,1,0,0,1-.45-.23A.58.58,0,0,1,310.49,76.51Zm9.44-4.71a5,5,0,0,0,.93.56,6.4,6.4,0,0,0,1.25.5,12.13,12.13,0,0,0,2.72.56,9.12,9.12,0,0,0,1.31,0,9.87,9.87,0,0,0,1.71-.29c.23-.09.72-.32,1.49-.7a6.8,6.8,0,0,0,1.07-.6,3.83,3.83,0,0,0,.93-.82,1.4,1.4,0,0,0,.2-.31,3,3,0,0,0,.27-1.7,3.42,3.42,0,0,0-.64-1.7,5.88,5.88,0,0,0-.86-.82,4.75,4.75,0,0,0-.8-.5,1.52,1.52,0,0,0-.84-.1,5.29,5.29,0,0,0-1.21.56A27.46,27.46,0,0,0,324.59,68a26.63,26.63,0,0,1-3,2.05l-1.49.86L320,71a2.18,2.18,0,0,1-.25.28.3.3,0,0,0-.12.26C319.66,71.57,319.75,71.66,319.93,71.8Z"/><path class="cls-1" d="M323.44,83.35a1,1,0,0,1,.25-.41,2.41,2.41,0,0,1,.34-.32,14.43,14.43,0,0,1,2-1.52l.54-.35a17.18,17.18,0,0,1,3-1.7,20,20,0,0,1,3.49-1.43,1,1,0,0,1,.49.24.91.91,0,0,1,.32.67.52.52,0,0,1-.17.47,2.77,2.77,0,0,1-.79.53c-.39.19-1,.46-1.79.79l-.94.41a3.44,3.44,0,0,0-.77.41s0,0,0,.06a.17.17,0,0,0,.12,0,.58.58,0,0,1,.14,0,7.07,7.07,0,0,1,2.33-.09,14.91,14.91,0,0,1,2.21.28,4.28,4.28,0,0,1,.58.19l.47.18a2.59,2.59,0,0,1,1.05.61,2,2,0,0,1,.47.61.8.8,0,0,1,.05.62.56.56,0,0,0-.1.37.81.81,0,0,0,.05.25.13.13,0,0,1,0,.14l-.05.1a.26.26,0,0,1-.37,0,8.78,8.78,0,0,1-.72-.55,3,3,0,0,0-.64-.36,4.55,4.55,0,0,0-.76-.27c-1.31-.29-2.3-.49-3-.59a8.72,8.72,0,0,0-2.3,0,8.61,8.61,0,0,0-1.57.38,3,3,0,0,0-1.1.54,6.71,6.71,0,0,0-.94.69l-.33.18a2,2,0,0,1-.55.2c-.41.08-.68.06-.8-.05a1.28,1.28,0,0,1-.22-.87A1.46,1.46,0,0,1,323.44,83.35Z"/><path class="cls-1" d="M331.75,92.41a3.6,3.6,0,0,1-.1-.77,3,3,0,0,1,.72-2.13,1,1,0,0,1,.24-.19,1,1,0,0,0,.37-.25l.19-.2a.36.36,0,0,1,0-.21.12.12,0,0,1,.11,0,.32.32,0,0,0,.14,0c.09.09.2,0,.34-.15a2.5,2.5,0,0,1,1-.59,7,7,0,0,1,1.67-.53,14,14,0,0,1,1.71-.25,8.85,8.85,0,0,1,1.76,0,7.34,7.34,0,0,1,1.62.3,5.16,5.16,0,0,1,1.25.61,4.8,4.8,0,0,1,.69.5.65.65,0,0,1,.2.36,3.1,3.1,0,0,1,0,.59,2.37,2.37,0,0,1,.13,1.5,3.67,3.67,0,0,1-1.06,1.48,7.8,7.8,0,0,1-4.31,1.87,8.67,8.67,0,0,1-2.06.13,11.59,11.59,0,0,1-2-.37,5.31,5.31,0,0,1-1.32-.4,4.14,4.14,0,0,1-1-.72A1.1,1.1,0,0,1,331.75,92.41Zm6.75.13a10.34,10.34,0,0,0,2-.71,4.66,4.66,0,0,0,1-.77c.45-.44.65-.74.59-.92a1.36,1.36,0,0,0-.32-.55,2.29,2.29,0,0,0-1.45-.6,8.28,8.28,0,0,0-2.5.16,23.94,23.94,0,0,0-3.05.91,3,3,0,0,0-1.13.67,1.1,1.1,0,0,0-.38.68.81.81,0,0,0,.24.66c.48.49,1.49.73,3,.71A10.94,10.94,0,0,0,338.5,92.54Z"/><path class="cls-1" d="M339.77,101.12a1.42,1.42,0,0,1,.17-.58,1.22,1.22,0,0,1,.13-.48.58.58,0,0,1,.23-.21c.16.19.28.27.37.25s.1,0,.17,0a.45.45,0,0,1,.15.18,4.75,4.75,0,0,0,2.22,1.3,18.56,18.56,0,0,0,3.88.91,14.16,14.16,0,0,0,2.2-.19,2.39,2.39,0,0,0,1-.4,1.28,1.28,0,0,0,.29-.37c.08-.14,0-.36-.25-.64a3.6,3.6,0,0,0-1.8-1.1,18,18,0,0,0-2.56-.66,9.57,9.57,0,0,0-2.22-.1,6.43,6.43,0,0,0-1.18.17l-.87.19c-.06.06-.22,0-.47-.07a1.52,1.52,0,0,1-.53-.35,1.37,1.37,0,0,1,0-.44.66.66,0,0,1,.19-.45c0-.06,0-.15,0-.26a.67.67,0,0,1,0-.26.59.59,0,0,1,.14-.18,4.54,4.54,0,0,1,.75-.4l.9-.4c.71-.38,1.48-.74,2.3-1.09a4.75,4.75,0,0,1,1.42-.47l.36-.12a1.57,1.57,0,0,0,.52-.29,5.54,5.54,0,0,1,.62-.26,2.1,2.1,0,0,0,.42-.16,14.11,14.11,0,0,0,2.53-.81,13.67,13.67,0,0,1,1.71-.53q2.44-.7,3.09-1a6.31,6.31,0,0,0,1-.15,1.88,1.88,0,0,1,.84-.06,1,1,0,0,1,.34.55,1.28,1.28,0,0,1,0,.77.64.64,0,0,1-.14.32,1.73,1.73,0,0,1-.55.24c-.29.09-.59.17-.91.25s-.55.13-.7.18l-1.75.44c-1.26.32-2.37.65-3.3,1s-2,.71-3.15,1.16l-1.54.55-.62.32,1.07.12c.3.07.89.17,1.76.31l.5.09.35.06a9.27,9.27,0,0,1,2.06,1,5.27,5.27,0,0,1,1,1,1.83,1.83,0,0,1,.46,1,3.32,3.32,0,0,1-.23,1.29,2.69,2.69,0,0,1-.76,1,3.54,3.54,0,0,1-1.7.78,1.59,1.59,0,0,0-.45,0,.54.54,0,0,0-.36.09,3.34,3.34,0,0,1-1,.13q-.82,0-1.71,0a11.94,11.94,0,0,1-2.66-.57,11.47,11.47,0,0,1-2.29-1l-.53-.46a5.57,5.57,0,0,0-.58-.48A2.2,2.2,0,0,1,339.77,101.12Z"/><path class="cls-1" d="M346.13,110.36a.86.86,0,0,1-.07-.92,2.78,2.78,0,0,1,.94-1,7.83,7.83,0,0,1,1.44-.84,4.06,4.06,0,0,0,1.25-.5,14.45,14.45,0,0,1,2.1-.76c1-.32,1.68-.5,1.91-.54.05.06.14.08.29,0a1.05,1.05,0,0,0,.42-.19,1.64,1.64,0,0,1,.53-.26,1.52,1.52,0,0,0,.8-.2l.32-.14a.63.63,0,0,1,.23-.08.74.74,0,0,0,.26-.1c.72-.11,2.23-.51,4.53-1.18a27.61,27.61,0,0,0,3.76-1.24.45.45,0,0,1,.7.1.66.66,0,0,1,.42.31l-.1.7a.91.91,0,0,1-.2.49,2.86,2.86,0,0,1-.52.47,2.23,2.23,0,0,1-.73.38c-.23.07-.73.18-1.49.34l-.57.1c-.22,0-.48.09-.79.17l-1.2.26a3.11,3.11,0,0,0-.76.18,1.27,1.27,0,0,1-.39.13c-.2,0-.41.12-.61.19-.37.06-1,.2-1.89.41a9.31,9.31,0,0,0-1.44.39.73.73,0,0,1-.5.17s-.1-.06-.18,0a.67.67,0,0,0-.18.1,7.48,7.48,0,0,1-1.63.58l-.89.32c-1.32.48-2.28.85-2.87,1.1a6.34,6.34,0,0,0-1.42.76,5.68,5.68,0,0,1-.83.55.5.5,0,0,1-.43,0A.69.69,0,0,1,346.13,110.36Z"/><path class="cls-1" d="M351.08,116.73a3,3,0,0,1-.51-1.44,3.26,3.26,0,0,1,.2-1.54,3.12,3.12,0,0,1,.6-1.12,5.48,5.48,0,0,1,1.16-1c.18-.11.53-.33,1.07-.64a6.08,6.08,0,0,1,2.42-.7,8.93,8.93,0,0,1,2.78.14,5.82,5.82,0,0,1,2.22.87,1.72,1.72,0,0,1,.77.58,2.82,2.82,0,0,1,.21.38q.11.19.21.42a3.17,3.17,0,0,1,.36,1,1.69,1.69,0,0,1-.08.8,2.46,2.46,0,0,1-1.07,1.65,3.78,3.78,0,0,1-2,.16,6.54,6.54,0,0,1-2.43-.82,4,4,0,0,1-.86-1,2.76,2.76,0,0,1-.54-1.52,1.47,1.47,0,0,0-.16-.42.49.49,0,0,0-.55-.14,6.86,6.86,0,0,0-1.28.55,4.08,4.08,0,0,0-.54.32c-.88.59-1.17,1.21-.86,1.85a4.89,4.89,0,0,0,.45.94,1.74,1.74,0,0,0,.67.56l.62.3a1.28,1.28,0,0,0,.4.15l.39.08.27,0a.59.59,0,0,1,.29.09.67.67,0,0,1,.15.14.48.48,0,0,1,0,.31,2.5,2.5,0,0,0,0,.32c.1.16,0,.26-.26.32a3,3,0,0,1-1.12,0,6.36,6.36,0,0,1-1.42-.46A2.69,2.69,0,0,1,351.08,116.73Zm8.33-2.08a1.56,1.56,0,0,0,1.08-.07.78.78,0,0,0,.36-.58,1.14,1.14,0,0,0-.23-.79,1.94,1.94,0,0,0-.36-.43,3,3,0,0,0-1.13-.48,10.69,10.69,0,0,0-1.49-.24c-.48,0-.72,0-.74.09s.05.57.45,1.16a3.19,3.19,0,0,0,.81.88A3.51,3.51,0,0,0,359.41,114.65Z"/><path class="cls-1" d="M362.32,132.6a3.8,3.8,0,0,1,1.54-1.3l1.27-.67a2.28,2.28,0,0,0,.44-.3.19.19,0,0,0,.05-.23,4.37,4.37,0,0,0-1.77-1,23.25,23.25,0,0,0-3.5-1.1l-.6-.15a2.61,2.61,0,0,1-.62-.21.82.82,0,0,1-.32-.28.85.85,0,0,1-.07-.57l.08-.44a.55.55,0,0,1,.28-.4l.27-.08,2.15-.38c1.15-.12,1.86-.21,2.15-.27s.39-.14.32-.22a2.65,2.65,0,0,0-.63-.54,1.45,1.45,0,0,0-.76-.29,1.33,1.33,0,0,0-.48-.19,3.94,3.94,0,0,1-.71-.29,12.65,12.65,0,0,1-2-.48l-1-.3a8.48,8.48,0,0,0-2-.4,2.39,2.39,0,0,1-.73-.17,1.13,1.13,0,0,1,.22-1.51,1.16,1.16,0,0,1,.46-.4,11.59,11.59,0,0,1,2-.68c.7-.18,1.14-.3,1.29-.36l.62-.17a5,5,0,0,1,1-.22c.4-.06,1-.13,1.92-.22a4.29,4.29,0,0,0,1.29-.36.83.83,0,0,1,.7-.07,1,1,0,0,1,.51.43,1,1,0,0,1,.06.82,1.31,1.31,0,0,1-.64.72,2.68,2.68,0,0,1-1.07.31l-.9.11a16.64,16.64,0,0,0-1.72.22,10.54,10.54,0,0,0-1.26.26s0,.11.15.17l.52.21a5,5,0,0,1,.81.3,14.9,14.9,0,0,1,2.56,1.12,9.78,9.78,0,0,1,1.86,1.23,1.32,1.32,0,0,1,.2.59,1.76,1.76,0,0,1-.11.57c-.07.23-.12.41-.15.52a1.14,1.14,0,0,1-.58.64,1.61,1.61,0,0,1-.38.14c-.3.07-.66.15-1.09.23l-.93.18.95.36,1.26.48a4.62,4.62,0,0,1,2.27,1.56,1.34,1.34,0,0,1-.06,1.31,1.13,1.13,0,0,1-.33.58,4.57,4.57,0,0,1-.67.44l-.68.38a5.88,5.88,0,0,1-.64.39c-.13.1-.4.28-.8.54s-.62.44-.64.52a2.15,2.15,0,0,0,.21,1.09c.13.36.08.61-.16.74a.75.75,0,0,1-.68-.08,1.91,1.91,0,0,1-.71-.75,3,3,0,0,1-.34-1A1.78,1.78,0,0,1,362.32,132.6Z"/><path class="cls-1" d="M362.82,137.65a3.06,3.06,0,0,1,.37-1l.2-.09c.1,0,.17,0,.22,0a.75.75,0,0,1,.19.29c.14.33.34.86.58,1.59a7.56,7.56,0,0,0,.79,1.35c.35.48.6.72.76.72s0,.08.06.07.1-.13.18-.35a1.15,1.15,0,0,1,0-.3,1,1,0,0,0,0-.3c.08,0,.14-.17.19-.39a5.49,5.49,0,0,0,.07-.72q.3-1.12.48-1.62c.11-.32.23-.48.35-.47l.15-.06c-.06-.13.05-.36.35-.69a3,3,0,0,1,.93-.71,4,4,0,0,1,1.62-.2,6.11,6.11,0,0,1,1.93.34,16.83,16.83,0,0,1,2.49,1.36,9.5,9.5,0,0,1,2,1.53,2.55,2.55,0,0,1,.63.88,1.47,1.47,0,0,1,.15.85,3.18,3.18,0,0,1-.33,1,2.83,2.83,0,0,1-.55.82,6.06,6.06,0,0,1-1.27.41q-.65.14-.75-.12l-.07-.07s-.09,0-.17,0a.74.74,0,0,1-.35,0,1.62,1.62,0,0,1-.49-.15,2.17,2.17,0,0,1-.92-.82.42.42,0,0,1,.13-.54.59.59,0,0,1,.12-.19.18.18,0,0,0,0-.2s0-.06.06-.14a.45.45,0,0,1,.23-.19.32.32,0,0,1,.22,0,.58.58,0,0,1,.17,0c.05.11.36.2.93.26a2.53,2.53,0,0,0,1.07,0c.12-.05.18-.1.18-.13a.67.67,0,0,0-.09-.29,13.32,13.32,0,0,0-2.75-2.07l-.29,0c-.05,0-.09,0-.12-.13.17-.08-.7-.29-2.61-.64a1,1,0,0,0-.4,0,2.34,2.34,0,0,0-.52.15l-.28.06a.33.33,0,0,0-.18.2,1.42,1.42,0,0,0-.12.38c0,.15-.07.3-.12.46a28.66,28.66,0,0,1-.73,2.81,2.87,2.87,0,0,1-.61,1.11,2.09,2.09,0,0,1-.86.83.92.92,0,0,1-.71,0,3,3,0,0,1-.83-.55,4.23,4.23,0,0,1-.71-.95,11.28,11.28,0,0,1-.76-1.4,8.11,8.11,0,0,1-.33-.88A4.31,4.31,0,0,1,362.82,137.65Z"/><ellipse class="cls-2" cx="213.9" cy="296.15" rx="85.63" ry="9.4"/><path class="cls-1" d="M27.2,398.81l.33,2.87.51-2.53,4.1-17.86h2.69l4,17.86.51,2.6.37-2.95,3.13-17.51H46l-5.1,25.59H38l-4.27-18.65-.27-1.51-.26,1.51L28.8,406.88H25.88L20.8,381.29H24Z"/><path class="cls-1" d="M58.51,406.88a6.65,6.65,0,0,1-.41-2.07,4.93,4.93,0,0,1-4.22,2.42,5.44,5.44,0,0,1-4-1.45,5.5,5.5,0,0,1-1.45-4.08,5.76,5.76,0,0,1,2-4.61,8.05,8.05,0,0,1,5.39-1.74h2.29v-2A2.67,2.67,0,0,0,55,390.18a3.18,3.18,0,0,0-2.29.84,2.8,2.8,0,0,0-.87,2.12H48.71a5,5,0,0,1,.87-2.79,5.92,5.92,0,0,1,2.32-2.08,6.86,6.86,0,0,1,3.25-.76A6.2,6.2,0,0,1,59.59,389a5.69,5.69,0,0,1,1.55,4.23v9.6a11.45,11.45,0,0,0,.6,3.81v.28Zm-4.15-2.48a4.14,4.14,0,0,0,2.18-.63,3.93,3.93,0,0,0,1.51-1.58v-4.54H56.29a5.93,5.93,0,0,0-3.5,1,3.16,3.16,0,0,0-1.28,2.68,3.46,3.46,0,0,0,.65,2.34A2.82,2.82,0,0,0,54.36,404.4Z"/><path class="cls-1" d="M70,383.26v4.6H72.9v2.52H70v11.81a3.13,3.13,0,0,0,.37,1.7,1.36,1.36,0,0,0,1.26.58,4,4,0,0,0,1.25-.21l0,2.62a6.61,6.61,0,0,1-2.16.35,3.28,3.28,0,0,1-2.81-1.31,6.27,6.27,0,0,1-1-3.73V390.38H64v-2.52h2.9v-4.6Z"/><path class="cls-1" d="M83.4,407.23A6.93,6.93,0,0,1,78,405.12C76.68,403.7,76,401.63,76,398.9v-2.3a10.68,10.68,0,0,1,1.86-6.67A6.14,6.14,0,0,1,83,387.51a5.93,5.93,0,0,1,5,2.13c1.1,1.42,1.66,3.62,1.68,6.62v2H79.11v.44a6.94,6.94,0,0,0,1.15,4.45,4,4,0,0,0,3.31,1.39,5.32,5.32,0,0,0,2.42-.52,5.9,5.9,0,0,0,2-1.64l1.62,2A7.08,7.08,0,0,1,83.4,407.23ZM83,390.18a3.28,3.28,0,0,0-2.86,1.33,8,8,0,0,0-1.06,4.12h7.49v-.42a7.28,7.28,0,0,0-1-3.87A3,3,0,0,0,83,390.18Z"/><path class="cls-1" d="M101.31,390.78a7.8,7.8,0,0,0-1.41-.12,3.42,3.42,0,0,0-3.34,2.62v13.6H93.45v-19h3l.06,1.94a3.86,3.86,0,0,1,3.53-2.29,2.67,2.67,0,0,1,1.23.25Z"/><path class="cls-1" d="M107.34,387.86l.07,1.76a5.65,5.65,0,0,1,4.59-2.11,4.49,4.49,0,0,1,4.44,2.76,5.65,5.65,0,0,1,5-2.76q5.25,0,5.37,6.56v12.81h-3.09V394.37a5.27,5.27,0,0,0-.74-3.09,2.88,2.88,0,0,0-2.49-1,2.8,2.8,0,0,0-2.29,1.09,5.06,5.06,0,0,0-1,2.78v12.74h-3.13V394.23q0-4-3.21-4a3.4,3.4,0,0,0-3.33,2.36v14.25h-3.09v-19Z"/><path class="cls-1" d="M141.28,406.88a6.71,6.71,0,0,1-.4-2.07,4.93,4.93,0,0,1-4.22,2.42,5.46,5.46,0,0,1-4-1.45,5.54,5.54,0,0,1-1.45-4.08,5.79,5.79,0,0,1,2-4.61,8.06,8.06,0,0,1,5.4-1.74h2.28v-2a3.27,3.27,0,0,0-.75-2.43,3.24,3.24,0,0,0-2.3-.72,3.18,3.18,0,0,0-2.29.84,2.77,2.77,0,0,0-.88,2.12h-3.11a5.05,5.05,0,0,1,.86-2.79,6.06,6.06,0,0,1,2.32-2.08,6.89,6.89,0,0,1,3.25-.76,6.17,6.17,0,0,1,4.44,1.45,5.69,5.69,0,0,1,1.56,4.23v9.6a11.45,11.45,0,0,0,.6,3.81v.28Zm-4.15-2.48a4.14,4.14,0,0,0,2.18-.63,3.87,3.87,0,0,0,1.51-1.58v-4.54h-1.75a5.91,5.91,0,0,0-3.5,1,3.14,3.14,0,0,0-1.28,2.68,3.41,3.41,0,0,0,.65,2.34A2.79,2.79,0,0,0,137.13,404.4Z"/><path class="cls-1" d="M151.67,387.86l.09,2.06a5.53,5.53,0,0,1,4.62-2.41c3.36,0,5.07,2.25,5.12,6.73v12.64h-3.1v-12.5a5.26,5.26,0,0,0-.74-3.17,2.7,2.7,0,0,0-2.25-.94,3.19,3.19,0,0,0-2.08.77,5.57,5.57,0,0,0-1.48,2v13.81h-3.12v-19Z"/><path class="cls-1" d="M165.89,406.88V381.29h6.77a9.29,9.29,0,0,1,7.14,2.85,11.14,11.14,0,0,1,2.72,7.8v4.15q0,5-2.66,7.92a9.55,9.55,0,0,1-7.34,2.87Zm5.17-21.28v17h1.55a4.31,4.31,0,0,0,3.63-1.36c.71-.91,1.08-2.47,1.11-4.7v-4.45c0-2.39-.33-4.06-1-5a4,4,0,0,0-3.41-1.48Z"/><path class="cls-1" d="M193.66,407.23a7.8,7.8,0,0,1-6-2.28,9.19,9.19,0,0,1-2.15-6.54V396.9q0-4.5,2-6.95a6.84,6.84,0,0,1,5.64-2.44,6.46,6.46,0,0,1,5.4,2.29c1.21,1.53,1.82,3.79,1.85,6.79V399h-9.9a5.16,5.16,0,0,0,.93,3.1,3.13,3.13,0,0,0,2.55,1,5.64,5.64,0,0,0,4.17-1.7l1.95,3a6.39,6.39,0,0,1-2.66,2.05A9.13,9.13,0,0,1,193.66,407.23Zm-3.12-11.67h5v-.46a5.31,5.31,0,0,0-.56-2.58,2,2,0,0,0-1.83-.88,2.06,2.06,0,0,0-1.89.93A6.46,6.46,0,0,0,190.54,395.56Z"/><path class="cls-1" d="M211.63,401.78a1.51,1.51,0,0,0-.61-1.16,11.31,11.31,0,0,0-2.7-1.45,11.23,11.23,0,0,1-4.22-2.59,4.9,4.9,0,0,1-1.15-3.32,5.31,5.31,0,0,1,1.8-4.12,6.82,6.82,0,0,1,4.77-1.63,7.4,7.4,0,0,1,5,1.62,5.44,5.44,0,0,1,1.88,4.34h-5c0-1.55-.65-2.32-1.94-2.32a1.78,1.78,0,0,0-1.3.49,1.83,1.83,0,0,0-.51,1.37,1.46,1.46,0,0,0,.56,1.12,12.67,12.67,0,0,0,2.66,1.38,11,11,0,0,1,4.3,2.5,5.15,5.15,0,0,1,1.25,3.58,5,5,0,0,1-1.91,4.1,7.78,7.78,0,0,1-5,1.54,8,8,0,0,1-3.69-.81,6.3,6.3,0,0,1-2.51-2.28,5.88,5.88,0,0,1-.9-3.15h4.73a3,3,0,0,0,.6,1.95,2.36,2.36,0,0,0,1.87.66C211,403.6,211.63,403,211.63,401.78Z"/><path class="cls-1" d="M219.56,382.94a2.58,2.58,0,0,1,.73-1.9,3,3,0,0,1,3.94,0,2.82,2.82,0,0,1,0,3.8,2.95,2.95,0,0,1-4,0A2.61,2.61,0,0,1,219.56,382.94Zm5.22,23.94h-5v-19h5Z"/><path class="cls-1" d="M228,396.79q0-4.67,1.69-7a5.53,5.53,0,0,1,4.73-2.3,4.57,4.57,0,0,1,4,2l.19-1.69h4.48v19a7.3,7.3,0,0,1-2,5.57,8.22,8.22,0,0,1-5.85,1.92,9.82,9.82,0,0,1-3.29-.62,6.12,6.12,0,0,1-2.56-1.59l1.67-3.45a5.16,5.16,0,0,0,1.82,1.2,5.6,5.6,0,0,0,2.13.47,3.14,3.14,0,0,0,2.4-.8,3.82,3.82,0,0,0,.75-2.57v-1.64a4.46,4.46,0,0,1-3.71,1.86,5.38,5.38,0,0,1-4.7-2.36,11.62,11.62,0,0,1-1.7-6.67Zm5,1.25a8,8,0,0,0,.69,3.84,2.33,2.33,0,0,0,2.18,1.21,2.55,2.55,0,0,0,2.27-1.11v-9.09a2.49,2.49,0,0,0-2.24-1.21,2.35,2.35,0,0,0-2.18,1.21,8,8,0,0,0-.72,3.9Z"/><path class="cls-1" d="M251.29,387.86l.14,1.88a5.28,5.28,0,0,1,4.41-2.23q4.91,0,5,6.87v12.5h-5V394.75a4.37,4.37,0,0,0-.48-2.34,1.88,1.88,0,0,0-1.7-.73,2.33,2.33,0,0,0-2.11,1.39v13.81h-5v-19Z"/><path class="cls-1" d="M276.58,400.41a3.94,3.94,0,0,0-1-2.93,10.71,10.71,0,0,0-3.74-2,15.9,15.9,0,0,1-4.14-2,7.14,7.14,0,0,1-2.14-2.42,6.59,6.59,0,0,1-.72-3.12,6.68,6.68,0,0,1,2-5,7.3,7.3,0,0,1,5.32-2,7.93,7.93,0,0,1,4,1,6.89,6.89,0,0,1,2.71,2.8,8.26,8.26,0,0,1,.94,3.93h-3.23a5.38,5.38,0,0,0-1.14-3.67,4.14,4.14,0,0,0-3.29-1.3,4,4,0,0,0-3,1.09,4.17,4.17,0,0,0-1.07,3.06,3.53,3.53,0,0,0,1.16,2.71,10.23,10.23,0,0,0,3.58,2,12.35,12.35,0,0,1,5.41,3.08,6.94,6.94,0,0,1,1.62,4.78,6.46,6.46,0,0,1-2,5,7.77,7.77,0,0,1-5.5,1.87,8.84,8.84,0,0,1-4.12-1,7.41,7.41,0,0,1-3-2.74,7.63,7.63,0,0,1-1.08-4.06h3.23a4.57,4.57,0,0,0,4.94,5,4.29,4.29,0,0,0,3.2-1.09A4,4,0,0,0,276.58,400.41Z"/><path class="cls-1" d="M283,396.49a10,10,0,0,1,2-6.56,7.12,7.12,0,0,1,10.64-.06,9.73,9.73,0,0,1,2.06,6.41v2a9.9,9.9,0,0,1-2,6.54,7.17,7.17,0,0,1-10.64.07,9.73,9.73,0,0,1-2.07-6.33Zm3.11,1.8a8.12,8.12,0,0,0,1.15,4.61,3.6,3.6,0,0,0,3.11,1.68q4.11,0,4.23-5.94v-2.15a8,8,0,0,0-1.16-4.61,3.59,3.59,0,0,0-3.11-1.7,3.55,3.55,0,0,0-3.07,1.7,8.13,8.13,0,0,0-1.15,4.6Z"/><path class="cls-1" d="M305,406.88h-3.11v-27H305Z"/><path class="cls-1" d="M319.63,405.21a5.34,5.34,0,0,1-4.52,2,4.54,4.54,0,0,1-3.9-1.78,8.78,8.78,0,0,1-1.34-5.19v-12.4H313V400q0,4.44,2.67,4.44a3.88,3.88,0,0,0,3.9-2.53V387.86h3.11v19H319.7Z"/><path class="cls-1" d="M331.41,383.26v4.6h2.86v2.52h-2.86v11.81a3.13,3.13,0,0,0,.37,1.7,1.36,1.36,0,0,0,1.26.58,4,4,0,0,0,1.25-.21l0,2.62a6.61,6.61,0,0,1-2.16.35,3.28,3.28,0,0,1-2.81-1.31,6.27,6.27,0,0,1-1-3.73V390.38h-2.9v-2.52h2.9v-4.6Z"/><path class="cls-1" d="M341.57,382.82a2,2,0,0,1-.44,1.32,2,2,0,0,1-2.66,0,2,2,0,0,1-.44-1.32,2.1,2.1,0,0,1,.44-1.34,1.62,1.62,0,0,1,1.32-.54,1.6,1.6,0,0,1,1.33.55A2,2,0,0,1,341.57,382.82Zm-.25,24.06h-3.11v-19h3.11Z"/><path class="cls-1" d="M345.56,396.49a10,10,0,0,1,2-6.56,7.11,7.11,0,0,1,10.63-.06,9.74,9.74,0,0,1,2.07,6.41v2a10,10,0,0,1-2,6.54,7.18,7.18,0,0,1-10.65.07,9.67,9.67,0,0,1-2.06-6.33Zm3.11,1.8a8,8,0,0,0,1.15,4.61,3.58,3.58,0,0,0,3.1,1.68c2.74,0,4.16-2,4.24-5.94v-2.15a8.09,8.09,0,0,0-1.16-4.61,3.61,3.61,0,0,0-3.11-1.7,3.55,3.55,0,0,0-3.07,1.7,8.05,8.05,0,0,0-1.15,4.6Z"/><path class="cls-1" d="M367.21,387.86l.09,2.06a5.55,5.55,0,0,1,4.62-2.41c3.37,0,5.07,2.25,5.12,6.73v12.64H374v-12.5a5.18,5.18,0,0,0-.75-3.17,2.69,2.69,0,0,0-2.24-.94,3.2,3.2,0,0,0-2.09.77,5.57,5.57,0,0,0-1.48,2v13.81h-3.11v-19Z"/><path class="cls-1" d="M390.94,402a2.31,2.31,0,0,0-.75-1.72,11.5,11.5,0,0,0-2.92-1.69,18.84,18.84,0,0,1-3.54-1.77,5,5,0,0,1-1.54-1.68,4.66,4.66,0,0,1-.51-2.24,5,5,0,0,1,1.7-3.86,6.9,6.9,0,0,1,8.79.08,5.48,5.48,0,0,1,1.69,4.15h-3.09a3.07,3.07,0,0,0-.86-2.19,2.9,2.9,0,0,0-2.2-.91,3.1,3.1,0,0,0-2.15.71,2.43,2.43,0,0,0-.79,1.9,2.05,2.05,0,0,0,.58,1.53,10.2,10.2,0,0,0,2.75,1.52,14.15,14.15,0,0,1,4.71,2.65,4.57,4.57,0,0,1,1.25,3.29,5,5,0,0,1-1.71,4,6.72,6.72,0,0,1-4.57,1.48,6.81,6.81,0,0,1-4.82-1.7,5.64,5.64,0,0,1-1.84-4.33h3.13a3.44,3.44,0,0,0,1,2.48,3.51,3.51,0,0,0,2.57.9,3.55,3.55,0,0,0,2.36-.69A2.38,2.38,0,0,0,390.94,402Z"/></svg>