<svg id="thumbsup_Image" data-name="thumbsup Image" xmlns="http://www.w3.org/2000/svg" viewBox="0 0 427.81 427.81">
  <defs>
    <style>
      .cls-1 {
        fill: #ec1000;
      }

      .cls-2, .cls-3 {
        fill: #fff;
      }

      .cls-3 {
        font-size: 23px;
        font-family: Roboto-Italic, Roboto;
        font-style: italic;
      }

      .cls-4 {
        letter-spacing: -0.03em;
      }

      .cls-5 {
        letter-spacing: -0.01em;
      }

      .cls-6 {
        letter-spacing: 0.02em;
      }

      .cls-7 {
        letter-spacing: -0.05em;
      }

      .cls-8 {
        fill: #c9c9c9;
      }
    </style>
  </defs>
  <title>WDS-logo-full</title>
  <rect class="cls-1" y="-0.89" width="430.71" height="429.74"/>
  <circle class="cls-2" cx="213.91" cy="163.89" r="142.74"/>
  <text class="cls-3" transform="translate(94.78 405.74)">“<tspan class="cls-4" x="8" y="0">Y</tspan><tspan x="20.78" y="0">our </tspan><tspan class="cls-5" x="59.32" y="0">P</tspan><tspan x="73.38" y="0">a</tspan><tspan class="cls-6" x="85.63" y="0">r</tspan><tspan x="93.85" y="0">tner in Desig</tspan><tspan class="cls-7" x="218.93" y="0">n</tspan><tspan x="230.18" y="0">”</tspan></text>
  <g>
    <path d="M197.86,88.23,184.45,226.16H159.17q-.28-8.43-.63-15.85t-.91-14.23q-.57-6.79-1.29-13.31t-1.63-13.32q-.92-6.8-2.06-14.12t-2.49-15.66q-1.82,10.72-5.07,32.13t-7.86,53.4l-26.53,1.34L101.12,88.81l24.14-.58q-.09,5.94-.1,12.93-.09,6-.09,13.84v30.8q0,7.19.05,14.12t.09,13.37c0,4.27.11,8.17.24,11.68l13.12-83.42H160.7L171.14,181q.18-7.08.43-15t.43-15.94q.19-8.06.33-15.9t.34-15q.39-16.77.67-33.43Z"/>
    <path d="M266.25,157.29a132.89,132.89,0,0,1-2.15,25.62,81.12,81.12,0,0,1-5.7,18.34,46.13,46.13,0,0,1-8,12.26,39,39,0,0,1-9.05,7.28,31.63,31.63,0,0,1-8.91,3.5,37.08,37.08,0,0,1-7.57.91l-19.63-1.63q1.24-19.55,1.91-39.32t.67-39.89q0-15.23-.38-30.17T206.29,84.3c1.53-.12,3-.22,4.5-.28s2.91-.1,4.31-.1q15.9,0,25.86,5.41a39.3,39.3,0,0,1,15.57,15.14,66.14,66.14,0,0,1,7.66,23.18A197,197,0,0,1,266.25,157.29Zm-19.54-2.59q0-4.68-.19-10t-.81-10.58a82.8,82.8,0,0,0-1.87-10.25,47.28,47.28,0,0,0-3.26-9.14,26.4,26.4,0,0,0-4.93-7.14,16.37,16.37,0,0,0-7-4.21q-.59,10.53-1,20.54t-.72,19.78q-.28,9.76-.43,19.39t-.14,19.3v12.79q0,6.47.19,13.17a13.53,13.53,0,0,0,7.66-3.35,24.63,24.63,0,0,0,5.51-7.23,46.33,46.33,0,0,0,3.64-9.87,98.5,98.5,0,0,0,2.15-11.3q.76-5.79,1-11.45T246.71,154.7Z"/>
    <path d="M325.06,188.51a50,50,0,0,1-1.58,13.27,37.41,37.41,0,0,1-4.12,9.77,27.52,27.52,0,0,1-5.7,6.7,29.63,29.63,0,0,1-12.79,6.33,26.7,26.7,0,0,1-5.22.62c-.76,0-1.82,0-3.16-.14a42.87,42.87,0,0,1-4.59-.63,56.92,56.92,0,0,1-5.7-1.39,44.69,44.69,0,0,1-6.56-2.53l1.05-24.14a35.35,35.35,0,0,0,10.1,6.42,22.82,22.82,0,0,0,7.52,1.62q5.94,0,9-4.31t3-11.2A28.39,28.39,0,0,0,304,178.6a44.49,44.49,0,0,0-8-12.31q-3.93-4.59-8.14-9.57a84.85,84.85,0,0,1-7.67-10.64,60.83,60.83,0,0,1-5.65-12.16,43.65,43.65,0,0,1-2.2-14.08A47.11,47.11,0,0,1,275,103.27a33.62,33.62,0,0,1,7-11.59,28.23,28.23,0,0,1,10.11-6.85,32.16,32.16,0,0,1,11.92-2.25,44.17,44.17,0,0,1,11.16,1.49,52.55,52.55,0,0,1,11.45,4.54l-1.82,24.14a24.06,24.06,0,0,0-5.22-5,25.49,25.49,0,0,0-5.27-2.82,21.28,21.28,0,0,0-4.7-1.25,28,28,0,0,0-3.59-.28,9.91,9.91,0,0,0-5.12,1.38,13.23,13.23,0,0,0-4,3.74,18.66,18.66,0,0,0-2.64,5.55,23.5,23.5,0,0,0-1,6.76,20.66,20.66,0,0,0,2.35,9.86,53.29,53.29,0,0,0,5.89,8.72c2.37,2.87,4.9,5.83,7.62,8.86a73.51,73.51,0,0,1,7.61,10.25,58.13,58.13,0,0,1,5.89,13A55.69,55.69,0,0,1,325.06,188.51Z"/>
  </g>
  <ellipse class="cls-8" cx="213.91" cy="248.45" rx="85.63" ry="9.4"/>
  <g>
    <path class="cls-2" d="M67.39,336.84l-2.94,30.24H58.91c0-1.23-.09-2.39-.13-3.48s-.12-2.12-.2-3.11-.18-2-.29-2.92-.22-1.93-.35-2.92-.29-2-.46-3.1-.35-2.21-.54-3.43q-.4,2.36-1.11,7T54.1,366.87l-5.81.29L46.19,337l5.29-.13c0,.87,0,1.82,0,2.84s0,1.89,0,3v6.75c0,1.05,0,2.09,0,3.1s0,2,0,2.93,0,1.79.05,2.56l2.88-18.29h4.85l2.29,17.43c0-1,.06-2.13.09-3.29s.07-2.31.09-3.49.06-2.34.08-3.49,0-2.24.07-3.29Q62,340,62,336.3Z"/>
    <path class="cls-2" d="M81.29,352.89q0,3.32,0,6.63c0,2.21-.06,4.52-.13,6.91l-3.66-.21v-2.84A5.3,5.3,0,0,1,76,365.12a7,7,0,0,1-1.51.89,5.31,5.31,0,0,1-1.66.38,4.11,4.11,0,0,1-1.89-.45,5.42,5.42,0,0,1-1.53-1.21,6,6,0,0,1-1-1.73,5.87,5.87,0,0,1-.36-2,5.8,5.8,0,0,1,.51-2.36,5.46,5.46,0,0,1,1.75-2.11c1.11-.86,2.07-1.57,2.88-2.14s1.49-1.1,2-1.57a6.09,6.09,0,0,0,1.19-1.34,2.8,2.8,0,0,0,.39-1.48,3.69,3.69,0,0,0-.46-2.07,1.42,1.42,0,0,0-1.22-.68,1.3,1.3,0,0,0-.79.24,1.8,1.8,0,0,0-.52.63,3.22,3.22,0,0,0-.29.86,4.27,4.27,0,0,0-.1.93c0,.21,0,.45,0,.7a4.88,4.88,0,0,0,.14.79l-4.83.09c0-.24,0-.47-.06-.68s0-.43,0-.64a7.69,7.69,0,0,1,.44-2.58,6.85,6.85,0,0,1,1.29-2.26,6.46,6.46,0,0,1,2.07-1.61,6.09,6.09,0,0,1,2.79-.61,5.4,5.4,0,0,1,3.22.85,5.47,5.47,0,0,1,1.81,2.24,10.26,10.26,0,0,1,.8,3.14C81.23,350.48,81.29,351.67,81.29,352.89Zm-4.72,5.94c.07-.35.13-.75.19-1.2s.1-.84.15-1.37.07-1.15.1-1.82a10.23,10.23,0,0,1-.65.82c-.21.24-.41.45-.59.63s-.4.4-.59.57-.66.56-1,.89a9.69,9.69,0,0,0-1,1,6.51,6.51,0,0,0-.76,1.12,2.45,2.45,0,0,0-.3,1.12,1.63,1.63,0,0,0,.4,1.08,1.21,1.21,0,0,0,1,.5,2.05,2.05,0,0,0,.92-.25,3.65,3.65,0,0,0,.9-.72,5.42,5.42,0,0,0,.77-1.07A5.09,5.09,0,0,0,76.57,358.83Z"/>
    <path class="cls-2" d="M91.12,337.92c-.11,1.13-.21,2.23-.29,3.3s-.17,2.14-.24,3.2l1.59-.07c.52,0,1.06-.06,1.61-.11l-.15,4.26c-.53,0-1.08,0-1.63,0H90.38q-.16,3-.24,5.91c0,1.92-.07,3.86-.07,5.82,0,1,0,2,0,3s.05,2,.07,3.07l-4.61.09c.09-3,.18-6,.25-8.94s.1-5.91.1-8.91l-1.61.07c-.55,0-1.09.06-1.62.1l.17-4.6c.49.07,1,.13,1.51.17l1.51.1q0-1.63,0-3.21c0-1.05,0-2.12-.1-3.21Z"/>
    <path class="cls-2" d="M106.85,365.69a18.48,18.48,0,0,1-3.56.89,21.13,21.13,0,0,1-2.64.21,4.72,4.72,0,0,1-2.24-.51,5.18,5.18,0,0,1-1.67-1.34A7.65,7.65,0,0,1,95.57,363a13.62,13.62,0,0,1-.73-2.32,17.38,17.38,0,0,1-.39-2.47c-.08-.83-.12-1.62-.12-2.36a28.07,28.07,0,0,1,.44-5.12,16,16,0,0,1,1.28-4A7.45,7.45,0,0,1,98.13,344a4.63,4.63,0,0,1,5.19-.31,5.31,5.31,0,0,1,1.82,2,11.22,11.22,0,0,1,1.17,3.41,25.78,25.78,0,0,1,.41,4.9q0,.79,0,1.62c0,.54-.06,1.11-.12,1.7l-7.43,1a11.12,11.12,0,0,0,.26,1.48,4.64,4.64,0,0,0,.49,1.22,2.64,2.64,0,0,0,.72.85,1.66,1.66,0,0,0,1,.32,19.34,19.34,0,0,0,2.27-.14c.75-.09,1.54-.2,2.37-.32ZM99,354.78l3.49-.65v-.8a10.89,10.89,0,0,0-.27-2.76,5.38,5.38,0,0,0-.59-1.44,1.31,1.31,0,0,0-.86-.63,1.29,1.29,0,0,0-1,.57,3.48,3.48,0,0,0-.53,1.29,9.1,9.1,0,0,0-.22,1.77c0,.66,0,1.32,0,2Z"/>
    <path class="cls-2" d="M121.37,353.33c-.44.07-.91.15-1.4.25s-.9.2-1.43.34-1.06.3-1.6.48a18.44,18.44,0,0,0,.29-1.84c0-.52.07-1,.07-1.44a6,6,0,0,0-.2-1.77,2.87,2.87,0,0,0-.45-1,1.07,1.07,0,0,0-.49-.38,1.65,1.65,0,0,0-.33-.06,1.31,1.31,0,0,0-1.09.56,4,4,0,0,0-.65,1.47,11.8,11.8,0,0,0-.32,2.09c0,.78-.08,1.59-.08,2.41,0,.59,0,1.18,0,1.77s0,1.17.06,1.76l.3,8.25-4.85.34q0-5.07-.1-9.13c-.06-2.7-.13-5-.2-6.94q-.12-3.36-.27-6l4.14-.27.21,2.37a6.55,6.55,0,0,1,1.29-2.13,5.7,5.7,0,0,1,1.49-1.18,5,5,0,0,1,1.36-.49,6.11,6.11,0,0,1,.94-.1,2.32,2.32,0,0,1,1.74.68,4.6,4.6,0,0,1,1.05,1.75,11,11,0,0,1,.52,2.35,23.71,23.71,0,0,1,.13,2.48c0,.63,0,1.23,0,1.79S121.4,352.88,121.37,353.33Z"/>
    <path class="cls-2" d="M136.05,352.93c-.05,1.68-.11,3.3-.17,4.87,0,.67,0,1.36-.08,2.08s-.06,1.41-.1,2.09-.06,1.33-.09,1.95-.06,1.17-.08,1.65l-4.6.44q.16-2.77.27-4.86c.07-1.39.12-2.59.16-3.59s.06-1.84.07-2.51,0-1.21,0-1.62,0-.7,0-.9,0-.32,0-.38a16.37,16.37,0,0,0-.09-1.91,4.76,4.76,0,0,0-.27-1.15,1.08,1.08,0,0,0-.41-.57,1,1,0,0,0-.53-.15,2.37,2.37,0,0,0-.77.14,1.46,1.46,0,0,0-.69.54,3.37,3.37,0,0,0-.49,1.17,8.42,8.42,0,0,0-.19,2c0,1.59,0,3.15,0,4.67s0,2.88,0,4.1c0,1.42,0,2.77.06,4.05l-5,.47c.11-1.49.18-2.94.22-4.35s.05-2.69.05-3.82q0-3.19-.14-6.33c-.09-2.09-.25-4.27-.47-6.52.9,0,1.63-.06,2.21-.11s1-.09,1.36-.14a5.89,5.89,0,0,0,.9-.19l0,2.54a11.08,11.08,0,0,1,1-1.35,7.54,7.54,0,0,1,1.12-1.08,5.5,5.5,0,0,1,1.23-.71,3.36,3.36,0,0,1,1.31-.26,7.56,7.56,0,0,1,1.34.11,2.64,2.64,0,0,1,1,.44,2.69,2.69,0,0,1,.72.91,6.2,6.2,0,0,1,.5,1.48,11.73,11.73,0,0,1,.83-1.13,6.27,6.27,0,0,1,1-.94,4.61,4.61,0,0,1,1.14-.64,3.68,3.68,0,0,1,1.35-.23,6.12,6.12,0,0,1,2,.27,2.4,2.4,0,0,1,1.29,1.1,6.6,6.6,0,0,1,.72,2.35,30.52,30.52,0,0,1,.22,4q0,3.6-.17,7.2t-.36,7.42l-4.6.44c.17-2.58.29-4.74.35-6.5s.1-3.17.12-4.25,0-1.86,0-2.34,0-.75,0-.81a12.3,12.3,0,0,0-.11-1.89,4,4,0,0,0-.32-1.14,1.16,1.16,0,0,0-.46-.56,1.14,1.14,0,0,0-.58-.15l-.42,0a1.24,1.24,0,0,0-.48.21,2,2,0,0,0-.49.56,4.44,4.44,0,0,0-.45,1.05c0,.63.06,1.19.07,1.68S136.05,352.73,136.05,352.93Z"/>
    <path class="cls-2" d="M158.75,352.89q0,3.32,0,6.63c0,2.21-.07,4.52-.14,6.91l-3.65-.21v-2.84a5.43,5.43,0,0,1-1.43,1.74A7.22,7.22,0,0,1,152,366a5.38,5.38,0,0,1-1.66.38,4.11,4.11,0,0,1-1.89-.45,5.16,5.16,0,0,1-1.53-1.21,5.57,5.57,0,0,1-1-1.73,5.65,5.65,0,0,1-.37-2,5.8,5.8,0,0,1,.51-2.36,5.49,5.49,0,0,1,1.76-2.11c1.1-.86,2.06-1.57,2.87-2.14s1.49-1.1,2-1.57a5.92,5.92,0,0,0,1.2-1.34,2.8,2.8,0,0,0,.39-1.48,3.68,3.68,0,0,0-.47-2.07,1.4,1.4,0,0,0-1.21-.68,1.3,1.3,0,0,0-.79.24,1.82,1.82,0,0,0-.53.63,3.22,3.22,0,0,0-.29.86,5,5,0,0,0-.09.93c0,.21,0,.45,0,.7a4.81,4.81,0,0,0,.13.79l-4.83.09c0-.24,0-.47-.06-.68s0-.43,0-.64a8,8,0,0,1,.44-2.58,7.22,7.22,0,0,1,1.29-2.26,6.57,6.57,0,0,1,2.07-1.61,6.09,6.09,0,0,1,2.79-.61,5.43,5.43,0,0,1,3.23.85,5.37,5.37,0,0,1,1.8,2.24,10.26,10.26,0,0,1,.8,3.14A35,35,0,0,1,158.75,352.89ZM154,358.83c.07-.35.14-.75.19-1.2s.11-.84.15-1.37.08-1.15.1-1.82a10.23,10.23,0,0,1-.65.82c-.21.24-.4.45-.58.63l-.59.57c-.32.26-.67.56-1,.89a9.79,9.79,0,0,0-1,1,6.44,6.44,0,0,0-.75,1.12,2.35,2.35,0,0,0-.31,1.12,1.63,1.63,0,0,0,.4,1.08,1.24,1.24,0,0,0,1,.5,2,2,0,0,0,.91-.25,3.32,3.32,0,0,0,.9-.72,5.17,5.17,0,0,0,1.27-2.41Z"/>
    <path class="cls-2" d="M169.73,366.13q.47-3.37.66-6.84t.2-7.26a10.05,10.05,0,0,0-.17-2,3.6,3.6,0,0,0-.44-1.18,1.23,1.23,0,0,0-.59-.52,1.7,1.7,0,0,0-.61-.12,2,2,0,0,0-.78.15,1.65,1.65,0,0,0-.69.57,4.25,4.25,0,0,0-.57,1.17,10.77,10.77,0,0,0-.45,2c-.13.82-.22,1.83-.29,3s-.09,2.59-.09,4.23v1.84c0,.63,0,1.24,0,1.81s0,1.08,0,1.53a8.16,8.16,0,0,0,.05.93l-4.74,0c0-1.28.07-2.41.09-3.41s0-1.93,0-2.77,0-1.62,0-2.36,0-1.46,0-2.17,0-1.31,0-2,0-1.41,0-2.2,0-1.64,0-2.57,0-2-.07-3.1l4.91-.12-.08,2.14a6.6,6.6,0,0,1,1.22-1.71,5.93,5.93,0,0,1,1.29-1,3.84,3.84,0,0,1,1.25-.47,5.66,5.66,0,0,1,1.09-.12,2.79,2.79,0,0,1,2.14.9,6.53,6.53,0,0,1,1.33,2.41,15.54,15.54,0,0,1,.68,3.43,40.07,40.07,0,0,1,.19,4c0,1,0,2-.07,3.07s-.1,2.05-.17,3.05-.13,2-.21,2.9-.14,1.8-.2,2.59Z"/>
    <path class="cls-2" d="M198.14,352a28.57,28.57,0,0,1-.48,5.62,17.51,17.51,0,0,1-1.25,4,9.93,9.93,0,0,1-1.75,2.69,8.48,8.48,0,0,1-2,1.59,6.81,6.81,0,0,1-2,.77,8.27,8.27,0,0,1-1.65.2l-4.31-.36c.18-2.85.32-5.73.42-8.62s.15-5.8.15-8.74q0-3.34-.08-6.61c-.06-2.19-.15-4.37-.26-6.56l1-.06.94,0a11.81,11.81,0,0,1,5.67,1.19A8.58,8.58,0,0,1,196,340.4a15,15,0,0,1,1.68,5.09A43.13,43.13,0,0,1,198.14,352Zm-4.29-.56c0-.69,0-1.42,0-2.2s-.09-1.55-.18-2.32a16.12,16.12,0,0,0-.41-2.24,10.56,10.56,0,0,0-.71-2,5.55,5.55,0,0,0-1.08-1.56,3.53,3.53,0,0,0-1.54-.93c-.09,1.54-.16,3-.23,4.51s-.11,2.9-.15,4.33-.08,2.85-.1,4.25,0,2.82,0,4.23v2.81c0,.94,0,1.9,0,2.88a2.92,2.92,0,0,0,1.68-.73,5.31,5.31,0,0,0,1.21-1.59,9.61,9.61,0,0,0,.8-2.16,21.75,21.75,0,0,0,.47-2.48c.11-.84.19-1.68.22-2.5S193.85,352.12,193.85,351.42Z"/>
    <path class="cls-2" d="M212.2,365.69a18.13,18.13,0,0,1-3.56.89,21,21,0,0,1-2.63.21,4.78,4.78,0,0,1-2.25-.51,5.4,5.4,0,0,1-1.67-1.34,7.92,7.92,0,0,1-1.16-1.94,14.6,14.6,0,0,1-.74-2.32,18.9,18.9,0,0,1-.38-2.47c-.08-.83-.12-1.62-.12-2.36a28.07,28.07,0,0,1,.44-5.12,16,16,0,0,1,1.28-4,7.34,7.34,0,0,1,2.08-2.65,4.47,4.47,0,0,1,2.81-1,4.55,4.55,0,0,1,2.38.65,5.31,5.31,0,0,1,1.82,2,11.22,11.22,0,0,1,1.17,3.41,25.78,25.78,0,0,1,.41,4.9q0,.79,0,1.62c0,.54-.06,1.11-.12,1.7l-7.43,1a9.71,9.71,0,0,0,.26,1.48,5,5,0,0,0,.48,1.22,2.8,2.8,0,0,0,.73.85,1.66,1.66,0,0,0,1,.32,19,19,0,0,0,2.26-.14c.76-.09,1.55-.2,2.38-.32Zm-7.83-10.91,3.49-.65v-.8a10.37,10.37,0,0,0-.28-2.76,5.11,5.11,0,0,0-.58-1.44,1.31,1.31,0,0,0-.86-.63,1.29,1.29,0,0,0-1,.57,3.32,3.32,0,0,0-.53,1.29,9.89,9.89,0,0,0-.23,1.77c0,.66,0,1.32,0,2Z"/>
    <path class="cls-2" d="M224,360a7,7,0,0,1-.61,3.12,6.15,6.15,0,0,1-1.56,2,5.86,5.86,0,0,1-2,1.08,7.72,7.72,0,0,1-2.1.32,7.35,7.35,0,0,1-1.42-.17A8,8,0,0,1,215,366a3.76,3.76,0,0,1-1.23-.77l.17-4.79a6.64,6.64,0,0,0,1.53,1,9.86,9.86,0,0,0,1.43.5,7.73,7.73,0,0,0,1.47.23,2.23,2.23,0,0,0,.91-.89,2.52,2.52,0,0,0,.32-1.29,3.3,3.3,0,0,0-.28-1.29,4.08,4.08,0,0,0-.87-1.29L217,355.9a15.68,15.68,0,0,1-1.55-1.88,11.06,11.06,0,0,1-1.26-2.33,7.45,7.45,0,0,1-.51-2.79,8.35,8.35,0,0,1,.41-2.72,6.22,6.22,0,0,1,1.15-2.11,5.28,5.28,0,0,1,1.78-1.37,5.42,5.42,0,0,1,2.28-.48,9,9,0,0,1,2.19.3,14,14,0,0,1,2.49,1l-.33,4.89a5.36,5.36,0,0,0-1.16-.78,6.93,6.93,0,0,0-1.13-.48,6.58,6.58,0,0,0-1.2-.25,2.31,2.31,0,0,0-1.36.83,2.63,2.63,0,0,0-.57,1.75,3.66,3.66,0,0,0,.41,1.76,7.1,7.1,0,0,0,1,1.4c.41.44.86.88,1.35,1.33a11.06,11.06,0,0,1,1.38,1.5,8.35,8.35,0,0,1,1.09,1.93A7.24,7.24,0,0,1,224,360Z"/>
    <path class="cls-2" d="M232.47,338.36a3.6,3.6,0,0,1-.21,1.2,2.55,2.55,0,0,1-.63,1,3,3,0,0,1-1.06.64,4.57,4.57,0,0,1-1.51.23,4.8,4.8,0,0,1-1.58-.23,2.74,2.74,0,0,1-1-.64,2.35,2.35,0,0,1-.59-1,4,4,0,0,1,0-2.39,2.68,2.68,0,0,1,.6-1,2.82,2.82,0,0,1,1.06-.66,5.13,5.13,0,0,1,3.1,0,2.94,2.94,0,0,1,1,.66,2.84,2.84,0,0,1,.61,1A3.58,3.58,0,0,1,232.47,338.36Zm-1.26,6.11c-.09.77-.16,1.59-.21,2.47s-.11,1.8-.15,2.74-.07,1.91-.09,2.88,0,1.93,0,2.87,0,2.14,0,3.16,0,2,.08,2.8.08,1.61.13,2.27a12.3,12.3,0,0,0,.17,1.53c-.56,0-1.14,0-1.74,0l-1.74.11c-.65,0-1.29.1-1.93.19.23-2.52.4-4.83.48-6.92s.13-4,.13-5.64c0-1.43,0-2.68-.08-3.75s-.1-2-.16-2.72-.12-1.61-.21-2.22c.79.1,1.51.16,2.16.19s1.21,0,1.69,0h.61l.46,0Z"/>
    <path class="cls-2" d="M246.76,360.63c0,1.66-.11,3.12-.16,4.38a26.22,26.22,0,0,1-.34,3.33,8.2,8.2,0,0,1-.76,2.39,4.1,4.1,0,0,1-1.39,1.56,6.37,6.37,0,0,1-2.27.85,18.84,18.84,0,0,1-3.37.26c-.66,0-1.36,0-2.12-.07a21.16,21.16,0,0,1-2.44-.31l.17-4.62,2.74.17,2,.1c.63.05,1.17.08,1.63.09a1.65,1.65,0,0,0,1.53-1.18,9,9,0,0,0,.57-3.25,5,5,0,0,1-.85,1.36,4.26,4.26,0,0,1-1,.83,3,3,0,0,1-1,.41,4,4,0,0,1-.87.11,4,4,0,0,1-2.12-.65,5.66,5.66,0,0,1-1.88-2.16,14.72,14.72,0,0,1-1.35-3.92,29,29,0,0,1-.53-6,23.48,23.48,0,0,1,.45-4.87,13.76,13.76,0,0,1,1.21-3.52,6.16,6.16,0,0,1,1.74-2.16,3.46,3.46,0,0,1,2.06-.72,3.56,3.56,0,0,1,1.08.17,3.72,3.72,0,0,1,1.17.6,5.35,5.35,0,0,1,1.12,1.15,6.72,6.72,0,0,1,.93,1.86l0-2.58,3.74.18Zm-4.59-4.3c0-.43,0-.95,0-1.54s0-1.21-.07-1.85a16.63,16.63,0,0,0-.2-1.88,9,9,0,0,0-.41-1.66,3.41,3.41,0,0,0-.68-1.19,1.38,1.38,0,0,0-1.05-.45,1.44,1.44,0,0,0-1.25.67,5,5,0,0,0-.67,1.73,13.36,13.36,0,0,0-.26,2.31c0,.84,0,1.65,0,2.43,0,.55,0,1.12,0,1.72s.06,1.2.11,1.8a16.71,16.71,0,0,0,.25,1.69,10.5,10.5,0,0,0,.42,1.42,3,3,0,0,0,.62,1,1.22,1.22,0,0,0,.87.36,1.37,1.37,0,0,0,1.08-.52,4,4,0,0,0,.72-1.39,10.1,10.1,0,0,0,.41-2.07A25.25,25.25,0,0,0,242.17,356.33Z"/>
    <path class="cls-2" d="M257.79,366.13c.31-2.25.52-4.53.66-6.84s.2-4.73.2-7.26a10.05,10.05,0,0,0-.17-2,3.6,3.6,0,0,0-.44-1.18,1.23,1.23,0,0,0-.59-.52,1.7,1.7,0,0,0-.61-.12,2.09,2.09,0,0,0-.79.15,1.69,1.69,0,0,0-.68.57,4.54,4.54,0,0,0-.58,1.17,12.68,12.68,0,0,0-.45,2c-.12.82-.22,1.83-.28,3s-.09,2.59-.09,4.23v3.65c0,.58,0,1.08,0,1.53a6.31,6.31,0,0,0,.05.93l-4.75,0c0-1.28.08-2.41.1-3.41s0-1.93,0-2.77,0-1.62,0-2.36,0-1.46,0-2.17,0-1.31,0-2,0-1.41,0-2.2,0-1.64,0-2.57,0-2-.07-3.1l4.91-.12-.08,2.14a6.59,6.59,0,0,1,1.21-1.71,6.44,6.44,0,0,1,1.29-1,4,4,0,0,1,1.25-.47,5.74,5.74,0,0,1,1.09-.12,2.82,2.82,0,0,1,2.15.9,6.53,6.53,0,0,1,1.33,2.41,15.54,15.54,0,0,1,.68,3.43,40.07,40.07,0,0,1,.19,4c0,1,0,2-.07,3.07s-.11,2.05-.17,3.05-.13,2-.21,2.9-.14,1.8-.2,2.59Z"/>
    <path class="cls-2" d="M283.61,358.83a11.07,11.07,0,0,1-.34,2.91,8.61,8.61,0,0,1-.91,2.14,6.29,6.29,0,0,1-1.25,1.47,6.48,6.48,0,0,1-1.41.91,6.71,6.71,0,0,1-1.39.47,5.86,5.86,0,0,1-1.14.14l-.7,0a8.82,8.82,0,0,1-1-.14c-.38-.07-.8-.17-1.25-.3a10.11,10.11,0,0,1-1.44-.56l.23-5.29a7.69,7.69,0,0,0,2.21,1.41,5.14,5.14,0,0,0,1.65.35,2.23,2.23,0,0,0,2-.94,4.14,4.14,0,0,0,.67-2.46,6.18,6.18,0,0,0-.5-2.25,9.51,9.51,0,0,0-1.75-2.7c-.57-.67-1.17-1.37-1.78-2.1a18.37,18.37,0,0,1-1.68-2.33,13,13,0,0,1-1.24-2.67,9.36,9.36,0,0,1-.49-3.09,10.39,10.39,0,0,1,.58-3.63,7.5,7.5,0,0,1,1.54-2.54,6.33,6.33,0,0,1,2.22-1.5,7,7,0,0,1,2.61-.49,9.53,9.53,0,0,1,2.45.32,11.62,11.62,0,0,1,2.51,1l-.4,5.29a5.26,5.26,0,0,0-2.3-1.72,4.5,4.5,0,0,0-1-.27,5.07,5.07,0,0,0-.79-.07,2.1,2.1,0,0,0-1.12.31,2.74,2.74,0,0,0-.88.82,4,4,0,0,0-.58,1.21,5.19,5.19,0,0,0-.21,1.48,4.49,4.49,0,0,0,.52,2.17,11.46,11.46,0,0,0,1.29,1.91c.51.63,1.07,1.28,1.67,1.94a16,16,0,0,1,1.67,2.25,13.36,13.36,0,0,1,1.29,2.85A12.32,12.32,0,0,1,283.61,358.83Z"/>
    <path class="cls-2" d="M298.1,354.23a39.06,39.06,0,0,1-.23,4.49,20.89,20.89,0,0,1-.66,3.35,9.4,9.4,0,0,1-1,2.35,5.62,5.62,0,0,1-1.33,1.5,4.29,4.29,0,0,1-1.56.8,6.2,6.2,0,0,1-1.72.23,7.18,7.18,0,0,1-1.69-.19,3.94,3.94,0,0,1-1.5-.69,5.22,5.22,0,0,1-1.27-1.36,8.14,8.14,0,0,1-1-2.21,19.07,19.07,0,0,1-.62-3.21,37.43,37.43,0,0,1-.22-4.39,28.35,28.35,0,0,1,.56-6.19,11.84,11.84,0,0,1,1.46-3.81,5,5,0,0,1,2.05-1.93,5.58,5.58,0,0,1,2.38-.54,7.58,7.58,0,0,1,1.56.16,4,4,0,0,1,1.49.62,4.94,4.94,0,0,1,1.31,1.28,7.29,7.29,0,0,1,1,2.13,16.87,16.87,0,0,1,.7,3.18A35.18,35.18,0,0,1,298.1,354.23Zm-4.52.17a30,30,0,0,0-.14-3.31,10.59,10.59,0,0,0-.4-2,2.23,2.23,0,0,0-.61-1,1.29,1.29,0,0,0-.78-.28,1.1,1.1,0,0,0-.84.41,3.41,3.41,0,0,0-.6,1.31,13.88,13.88,0,0,0-.36,2.32c-.09.95-.13,2.1-.13,3.46a29.17,29.17,0,0,0,.16,3.41,10,10,0,0,0,.44,2.16,2.72,2.72,0,0,0,.67,1.15,1.27,1.27,0,0,0,.83.33c.62,0,1.06-.64,1.34-1.91A30.43,30.43,0,0,0,293.58,354.4Z"/>
    <path class="cls-2" d="M305,365.69l-1.23.09-1.38.1c-.52,0-1.1.1-1.73.17q-.19-7.11-.4-12.59c-.14-3.64-.27-6.73-.38-9.25-.14-2.93-.28-5.49-.42-7.66l5.46-.25v8.53q0,3.8,0,6.74c0,2,0,3.69,0,5.15s0,2.72,0,3.77C305,362.94,305,364.67,305,365.69Z"/>
    <path class="cls-2" d="M320.84,345.54c-.12,2.25-.19,4.48-.23,6.68s-.07,4.42-.07,6.65c0,1.32,0,2.62,0,3.91s0,2.59.08,3.9l-4.18.11v-2.63a5.23,5.23,0,0,1-1.41,1.58,6.08,6.08,0,0,1-1.48.78,4.78,4.78,0,0,1-1.21.28l-.58,0a4.14,4.14,0,0,1-2.2-1.17,6.35,6.35,0,0,1-1.38-2.22,12.49,12.49,0,0,1-.73-3,28.34,28.34,0,0,1-.21-3.52c0-1.07.05-2.15.13-3.26s.19-2.19.31-3.26.27-2.11.42-3.11.31-1.93.47-2.8l4.57.08-.39,2.69c-.13,1-.25,1.95-.35,3s-.19,2-.25,3-.1,2-.1,2.89,0,1.62.11,2.35a11.1,11.1,0,0,0,.33,1.9,3.52,3.52,0,0,0,.6,1.26,1.14,1.14,0,0,0,.91.45,1.34,1.34,0,0,0,1.18-.86,7.61,7.61,0,0,0,.72-2.26,22.71,22.71,0,0,0,.36-3.13c.06-1.17.1-2.33.1-3.51,0-.88,0-1.72-.05-2.52s-.05-1.51-.08-2.14-.09-1.41-.13-2Z"/>
    <path class="cls-2" d="M330.56,337.92c-.11,1.13-.21,2.23-.29,3.3s-.17,2.14-.24,3.2l1.59-.07c.52,0,1.06-.06,1.61-.11l-.15,4.26c-.53,0-1.08,0-1.63,0h-1.63q-.17,3-.24,5.91c-.05,1.92-.07,3.86-.07,5.82,0,1,0,2,0,3s0,2,.07,3.07l-4.61.09c.09-3,.18-6,.25-8.94s.1-5.91.1-8.91l-1.61.07c-.55,0-1.09.06-1.62.1l.17-4.6c.49.07,1,.13,1.51.17l1.51.1q0-1.63,0-3.21c0-1.05,0-2.12-.1-3.21Z"/>
    <path class="cls-2" d="M340.93,338.36a3.36,3.36,0,0,1-.21,1.2,2.55,2.55,0,0,1-.63,1,2.86,2.86,0,0,1-1.06.64,4.55,4.55,0,0,1-1.5.23,4.86,4.86,0,0,1-1.59-.23,2.9,2.9,0,0,1-1.05-.64,2.33,2.33,0,0,1-.58-1,3.87,3.87,0,0,1-.18-1.2,3.58,3.58,0,0,1,.19-1.19,2.43,2.43,0,0,1,.6-1,2.74,2.74,0,0,1,1.06-.66,4.47,4.47,0,0,1,1.55-.24,4.37,4.37,0,0,1,1.54.24,2.78,2.78,0,0,1,1.05.66,2.57,2.57,0,0,1,.61,1A3.58,3.58,0,0,1,340.93,338.36Zm-1.26,6.11c-.08.77-.15,1.59-.21,2.47s-.1,1.8-.15,2.74-.07,1.91-.08,2.88,0,1.93,0,2.87,0,2.14,0,3.16.05,2,.09,2.8.07,1.61.12,2.27a14.12,14.12,0,0,0,.18,1.53c-.56,0-1.14,0-1.74,0l-1.75.11c-.64,0-1.28.1-1.93.19q.36-3.78.49-6.92t.12-5.64c0-1.43,0-2.68-.07-3.75s-.1-2-.16-2.72-.13-1.61-.21-2.22c.78.1,1.5.16,2.15.19s1.22,0,1.69,0h.61l.46,0Z"/>
    <path class="cls-2" d="M354.33,354.23a39.06,39.06,0,0,1-.23,4.49,19.78,19.78,0,0,1-.67,3.35,9.05,9.05,0,0,1-1,2.35,5.62,5.62,0,0,1-1.33,1.5,4.29,4.29,0,0,1-1.56.8,6.2,6.2,0,0,1-1.72.23,7.18,7.18,0,0,1-1.69-.19,3.94,3.94,0,0,1-1.5-.69,5.06,5.06,0,0,1-1.27-1.36,8.14,8.14,0,0,1-1-2.21,19.07,19.07,0,0,1-.62-3.21,37.43,37.43,0,0,1-.22-4.39,27.74,27.74,0,0,1,.56-6.19,11.84,11.84,0,0,1,1.46-3.81,5,5,0,0,1,2-1.93,5.55,5.55,0,0,1,2.38-.54,7.65,7.65,0,0,1,1.56.16,4.11,4.11,0,0,1,1.49.62,4.94,4.94,0,0,1,1.31,1.28,7.29,7.29,0,0,1,1.05,2.13,16.18,16.18,0,0,1,.69,3.18A33.22,33.22,0,0,1,354.33,354.23Zm-4.52.17a32.69,32.69,0,0,0-.14-3.31,11.41,11.41,0,0,0-.4-2,2.23,2.23,0,0,0-.61-1,1.29,1.29,0,0,0-.78-.28,1.1,1.1,0,0,0-.84.41,3.27,3.27,0,0,0-.6,1.31,13.88,13.88,0,0,0-.36,2.32c-.09.95-.13,2.1-.13,3.46a29.17,29.17,0,0,0,.16,3.41,10,10,0,0,0,.44,2.16,2.72,2.72,0,0,0,.67,1.15,1.27,1.27,0,0,0,.83.33c.62,0,1.06-.64,1.34-1.91A30.43,30.43,0,0,0,349.81,354.4Z"/>
    <path class="cls-2" d="M364.87,366.13c.31-2.25.52-4.53.66-6.84s.2-4.73.2-7.26a10.05,10.05,0,0,0-.17-2,3.6,3.6,0,0,0-.44-1.18,1.23,1.23,0,0,0-.59-.52,1.7,1.7,0,0,0-.61-.12,2,2,0,0,0-.78.15,1.65,1.65,0,0,0-.69.57,4.25,4.25,0,0,0-.57,1.17,11.54,11.54,0,0,0-.46,2c-.12.82-.22,1.83-.28,3s-.09,2.59-.09,4.23v1.84c0,.63,0,1.24,0,1.81s0,1.08,0,1.53a6.31,6.31,0,0,0,.05.93l-4.74,0c0-1.28.07-2.41.09-3.41s0-1.93,0-2.77,0-1.62,0-2.36,0-1.46,0-2.17,0-1.31,0-2,0-1.41,0-2.2,0-1.64,0-2.57-.05-2-.07-3.1l4.91-.12-.08,2.14a6.59,6.59,0,0,1,1.21-1.71,6.21,6.21,0,0,1,1.3-1,3.88,3.88,0,0,1,1.24-.47,5.75,5.75,0,0,1,1.1-.12,2.81,2.81,0,0,1,2.14.9,6.53,6.53,0,0,1,1.33,2.41,15.54,15.54,0,0,1,.68,3.43,40.07,40.07,0,0,1,.19,4c0,1,0,2-.07,3.07s-.11,2.05-.17,3.05-.13,2-.21,2.9-.14,1.8-.2,2.59Z"/>
    <path class="cls-2" d="M382.65,360a7,7,0,0,1-.62,3.12,5.7,5.7,0,0,1-3.6,3.09,7.72,7.72,0,0,1-2.1.32,7.55,7.55,0,0,1-1.43-.17,8.68,8.68,0,0,1-1.29-.38,4,4,0,0,1-1.23-.77l.17-4.79a7.09,7.09,0,0,0,1.53,1,10.3,10.3,0,0,0,1.43.5,8,8,0,0,0,1.47.23,2.17,2.17,0,0,0,.91-.89,2.53,2.53,0,0,0,.33-1.29,3.3,3.3,0,0,0-.28-1.29,4.08,4.08,0,0,0-.87-1.29l-1.4-1.42a14.78,14.78,0,0,1-1.55-1.88,11.06,11.06,0,0,1-1.26-2.33,7.26,7.26,0,0,1-.52-2.79,8.63,8.63,0,0,1,.41-2.72,6.24,6.24,0,0,1,1.16-2.11,5.19,5.19,0,0,1,1.78-1.37,5.35,5.35,0,0,1,2.28-.48,8.83,8.83,0,0,1,2.18.3,13.81,13.81,0,0,1,2.5,1l-.34,4.89a5.08,5.08,0,0,0-1.15-.78,7.31,7.31,0,0,0-1.13-.48,6.76,6.76,0,0,0-1.2-.25,2.29,2.29,0,0,0-1.36.83,2.63,2.63,0,0,0-.57,1.75,3.55,3.55,0,0,0,.41,1.76,6.72,6.72,0,0,0,1,1.4c.41.44.86.88,1.35,1.33a11.06,11.06,0,0,1,1.38,1.5,8.73,8.73,0,0,1,1.09,1.93A7.46,7.46,0,0,1,382.65,360Z"/>
  </g>
</svg>
