<?xml version="1.0" encoding="utf-8"?>
<!-- Generator: Adobe Illustrator 23.0.2, SVG Export Plug-In . SVG Version: 6.00 Build 0)  -->
<svg version="1.1" xmlns="http://www.w3.org/2000/svg" xmlns:xlink="http://www.w3.org/1999/xlink" x="0px" y="0px"
	 viewBox="0 0 183.85 110.8" style="enable-background:new 0 0 183.85 110.8;" xml:space="preserve">
<style type="text/css">
	.st0{display:none;}
	.st1{display:inline;fill:#DA6054;}
	.st2{fill:#FFFFFF;}
	.st3{enable-background:new    ;}
	.st4{clip-path:url(#SVGID_2_);enable-background:new    ;}
	.st5{fill:#CCCAC9;}
	.st6{fill:#4C587C;}
	.st7{display:none;fill:none;stroke:#000000;stroke-width:3;stroke-miterlimit:10;}
	.st8{fill:none;}
	.st9{font-family:'RobotoCondensed-Regular';}
	.st10{font-size:16px;}
	.st11{font-family:'RobotoCondensed-Bold';}
</style>
<g id="Layer_2" class="st0">
	<rect x="-1.23" class="st1" width="186.83" height="110.8"/>
</g>
<g id="Layer_1">
	<circle class="st2" cx="92.18" cy="49.02" r="31.43"/>
	<g class="st3">
		<defs>
			<path id="SVGID_1_" class="st3" d="M116.95,32.43L67.69,63.27c-0.11,0.07-0.2,0.11-0.27,0.13l49.26-30.84
				C116.74,32.54,116.84,32.5,116.95,32.43z"/>
		</defs>
		<clipPath id="SVGID_2_">
			<use xlink:href="#SVGID_1_"  style="overflow:visible;"/>
		</clipPath>
		<g class="st4">
			<path class="st5" d="M116.95,32.43L67.69,63.27c-0.11,0.07-0.2,0.11-0.27,0.13l49.26-30.84
				C116.74,32.54,116.84,32.5,116.95,32.43"/>
		</g>
	</g>
	<path d="M85.65,26.89l-4.79,49.22h-9.02c-0.07-2-0.14-3.89-0.22-5.66c-0.08-1.77-0.19-3.46-0.32-5.08
		c-0.14-1.62-0.29-3.2-0.46-4.75c-0.17-1.55-0.36-3.13-0.58-4.75c-0.22-1.62-0.46-3.3-0.73-5.04s-0.57-3.61-0.89-5.59
		c-0.43,2.55-1.04,6.37-1.81,11.47c-0.77,5.09-1.71,11.44-2.8,19.06l-9.47,0.48l-3.42-49.15l8.61-0.21
		c-0.02,1.41-0.03,2.95-0.03,4.61c-0.02,1.44-0.03,3.08-0.03,4.94c0,1.86,0,3.83,0,5.93c0,1.66,0,3.35,0,5.06s0.01,3.39,0.02,5.04
		c0.01,1.65,0.02,3.24,0.03,4.77c0.01,1.53,0.04,2.92,0.09,4.17l4.68-29.77h7.9l3.73,28.37c0.05-1.69,0.1-3.47,0.15-5.35
		c0.06-1.88,0.11-3.78,0.15-5.69c0.05-1.91,0.09-3.81,0.12-5.67c0.03-1.87,0.07-3.66,0.12-5.37c0.09-3.99,0.17-7.96,0.24-11.93
		L85.65,26.89z"/>
	<path d="M111.05,51.53c0,3.53-0.26,6.58-0.77,9.14s-1.19,4.75-2.03,6.55c-0.84,1.8-1.79,3.26-2.85,4.38
		c-1.06,1.12-2.14,1.98-3.23,2.6s-2.15,1.03-3.18,1.25c-1.03,0.22-1.93,0.32-2.7,0.32l-7.01-0.58c0.3-4.65,0.52-9.33,0.68-14.03
		c0.16-4.71,0.24-9.45,0.24-14.24c0-3.62-0.05-7.21-0.14-10.77c-0.09-3.55-0.23-7.11-0.41-10.66c0.55-0.05,1.08-0.08,1.61-0.1
		c0.52-0.02,1.04-0.03,1.54-0.03c3.78,0,6.86,0.64,9.23,1.93c2.37,1.29,4.22,3.09,5.55,5.4c1.33,2.31,2.24,5.07,2.73,8.27
		C110.8,44.16,111.05,47.68,111.05,51.53z M104.08,50.61c0-1.12-0.02-2.31-0.07-3.57c-0.05-1.26-0.14-2.52-0.29-3.78
		c-0.15-1.25-0.37-2.47-0.67-3.66c-0.3-1.18-0.68-2.27-1.16-3.26s-1.07-1.84-1.76-2.55c-0.7-0.71-1.53-1.21-2.51-1.5
		c-0.14,2.51-0.26,4.95-0.36,7.33c-0.1,2.38-0.19,4.73-0.26,7.06s-0.12,4.63-0.15,6.92s-0.05,4.59-0.05,6.89c0,1.5,0,3.02,0,4.56
		c0,1.54,0.02,3.1,0.07,4.7c1.05-0.11,1.96-0.51,2.73-1.2c0.77-0.68,1.43-1.54,1.97-2.58c0.54-1.04,0.97-2.21,1.3-3.52
		c0.33-1.31,0.59-2.65,0.77-4.03c0.18-1.38,0.3-2.74,0.36-4.08C104.05,52.99,104.08,51.75,104.08,50.61z"/>
	<path d="M133.04,64.67c0,1.8-0.19,3.38-0.56,4.73c-0.38,1.36-0.87,2.52-1.47,3.49c-0.6,0.97-1.28,1.77-2.03,2.39
		c-0.75,0.63-1.52,1.12-2.31,1.49s-1.54,0.62-2.26,0.77c-0.72,0.15-1.34,0.22-1.86,0.22c-0.27,0-0.65-0.02-1.13-0.05
		s-1.03-0.11-1.64-0.22c-0.62-0.11-1.29-0.28-2.03-0.5c-0.74-0.22-1.52-0.52-2.34-0.91l0.38-8.61c1.34,1.14,2.55,1.9,3.61,2.29
		c1.06,0.39,1.95,0.58,2.68,0.58c1.41,0,2.48-0.51,3.2-1.54s1.08-2.36,1.08-4c0-1.09-0.27-2.32-0.8-3.67
		c-0.54-1.36-1.49-2.82-2.85-4.39c-0.93-1.09-1.9-2.23-2.91-3.42c-1-1.18-1.91-2.45-2.73-3.79c-0.82-1.34-1.49-2.79-2.02-4.34
		c-0.52-1.55-0.79-3.22-0.79-5.02c0-2.28,0.31-4.25,0.94-5.91c0.63-1.66,1.46-3.04,2.51-4.14c1.05-1.09,2.25-1.91,3.61-2.44
		c1.36-0.54,2.77-0.8,4.26-0.8c1.3,0,2.63,0.18,3.98,0.53c1.36,0.35,2.72,0.89,4.08,1.62l-0.65,8.61c-0.59-0.75-1.21-1.35-1.86-1.79
		s-1.28-0.78-1.88-1.01c-0.6-0.23-1.16-0.38-1.67-0.44c-0.51-0.07-0.94-0.1-1.28-0.1c-0.66,0-1.27,0.17-1.83,0.5
		c-0.56,0.33-1.04,0.77-1.44,1.33c-0.4,0.56-0.71,1.22-0.94,1.98c-0.23,0.76-0.34,1.57-0.34,2.41c0,1.3,0.28,2.47,0.84,3.52
		c0.56,1.05,1.26,2.08,2.1,3.11c0.84,1.03,1.75,2.08,2.72,3.16c0.97,1.08,1.87,2.3,2.72,3.66c0.84,1.36,1.54,2.91,2.1,4.65
		C132.76,60.35,133.04,62.37,133.04,64.67z"/>
	<rect x="7.52" y="90.08" class="st8" width="169.33" height="18"/>
	<text transform="matrix(1 0 0 1 8.4477 102.0802)"><tspan x="0" y="0" class="st2 st9 st10">Waterman</tspan><tspan x="64.38" y="0" class="st2 st11 st10">Design</tspan><tspan x="108.3" y="0" class="st2 st9 st10">Solutions</tspan></text>
</g>
</svg>
