<svg id="Layer_1" data-name="Layer 1" xmlns="http://www.w3.org/2000/svg" viewBox="0 0 226 295">
  <defs>
    <style>
      .cls-1 {
        fill: #b5b5b5;
        stroke: #000;
        stroke-miterlimit: 10;
      }

      .cls-2 {
        font-size: 21px;
        font-family: RobotoCondensed-Bold, Roboto Condensed;
        font-weight: 700;
      }

      .cls-3 {
        letter-spacing: -0.01em;
      }

      .cls-4 {
        letter-spacing: -0.02em;
      }

      .cls-5 {
        fill: #eb5e4e;
      }

      .cls-6 {
        font-size: 12px;
        font-family: Roboto-Black, Roboto;
        font-weight: 800;
      }

      .cls-7 {
        font-family: Roboto-Medium, Roboto;
        font-weight: 500;
      }

      .cls-8 {
        letter-spacing: -0.01em;
      }

      .cls-9 {
        letter-spacing: -0.01em;
      }

      .cls-10 {
        letter-spacing: -0.01em;
      }

      .cls-11 {
        letter-spacing: -0.01em;
      }

      .cls-12 {
        letter-spacing: -0.01em;
      }

      .cls-13 {
        letter-spacing: -0.01em;
      }
    </style>
  </defs>
  <title>photo-history-skills</title>
  <rect class="cls-1" x="0.5" y="0.5" width="225" height="294"/>
  <text class="cls-2" transform="translate(12.5 23.25)">Softwa<tspan class="cls-3" x="58.29" y="0">r</tspan><tspan x="65.06" y="0">e/</tspan><tspan class="cls-4" x="82.06" y="0">A</tspan><tspan x="94.11" y="0">pps</tspan></text>
  <rect class="cls-5" x="97.5" y="61.5" width="115" height="8.6"/>
  <rect class="cls-5" x="97.5" y="84.43" width="115" height="8.6"/>
  <rect class="cls-5" x="97.5" y="107.37" width="108" height="8.6"/>
  <rect class="cls-5" x="97.5" y="130.3" width="94" height="8.6"/>
  <rect class="cls-5" x="97.5" y="176.23" width="82" height="8.6"/>
  <rect class="cls-5" x="97.5" y="199.1" width="82" height="8.6"/>
  <rect class="cls-5" x="97.5" y="222.03" width="105" height="8.6"/>
  <rect class="cls-5" x="97.5" y="244.97" width="84" height="8.6"/>
  <rect class="cls-5" x="97.5" y="267.7" width="78" height="9"/>
  <text class="cls-6" transform="translate(14.5 46.5)">Adobe CC:<tspan class="cls-7"><tspan x="0" y="23">Illlust</tspan><tspan class="cls-8" x="29.43" y="23">r</tspan><tspan x="33.47" y="23">a</tspan><tspan class="cls-8" x="39.97" y="23">t</tspan><tspan x="43.78" y="23">or</tspan><tspan x="0" y="46">Pho</tspan><tspan class="cls-8" x="21.16" y="46">t</tspan><tspan x="24.98" y="46">oshop</tspan><tspan x="0" y="69">InDesign</tspan><tspan x="0" y="92">After</tspan><tspan class="cls-9" x="26.89" y="92">E</tspan><tspan x="33.57" y="92">f</tspan><tspan class="cls-10" x="37.82" y="92">f</tspan><tspan x="41.94" y="92">ects</tspan></tspan><tspan x="0" y="115">Other:</tspan><tspan class="cls-7"><tspan x="0" y="138">Visual Studio</tspan><tspan x="0" y="161">S</tspan><tspan class="cls-11" x="7.24" y="161">k</tspan><tspan x="13.39" y="161">etch</tspan><tspan x="0" y="184">CSS/</tspan><tspan class="cls-12" x="27.06" y="184">H</tspan><tspan x="35.42" y="184">TML</tspan><tspan x="0" y="207">Github</tspan><tspan x="0" y="230">Flexb</tspan><tspan class="cls-13" x="28.89" y="230">o</tspan><tspan x="35.6" y="230">x</tspan></tspan></text>
</svg>
